<svg xmlns="http://www.w3.org/2000/svg" viewBox="0 0 217.42 330.45">
  <path d="M13.16,77.25,5.81,70.5c20.37-29.65,50-57,85.18-66.25,59-17,123.28,18.34,126.08,83.14,2.92,37.85-12.56,69-35.79,97.21-30.75,37.52-71.81,63-111,90.48,7.93,0,15.52-.71,22.92.15,15.18,1.75,30.27,4.36,45.4,6.59,13.14,1.93,26.36,4.93,39.29-.75,12.55-5.53,22.08-14.9,31.11-25l8,5.13c-12.77,23.22-25.34,46.06-38.12,69.28-42.24-5.42-84-13.17-126.6-14.06-15.73-.25-31,1.83-43.37,14L0,324.31c7.48-8.22,14.2-16.81,22.13-24.07,24.69-22.6,50.2-44.31,74.72-67.09,38-36.16,84.18-97,62.51-151.9C133.1,18.16,51.07,30.45,13.16,77.25Z"/>
</svg>
