<svg xmlns="http://www.w3.org/2000/svg" viewBox="0 0 209.37 361.09">
  <path d="M76.3,153.35c11.67-1.43,22.62-3.53,33.64-4,35.43-1.45,66,8.87,86.3,39.84,15.27,23.31,16.6,48.77,7.21,74.68-9.61,26.51-28.41,45.57-51.64,60.4-36,23-75.59,34.91-118.26,36.55-6.49.25-13,.23-19.47.26a21.15,21.15,0,0,1-3.75-.69c-.67-2.86-1.35-5.71-2.09-8.85,9.28-2.06,18.27-3.63,27-6.06,37.49-10.4,72-26.3,98-56.47,17.94-20.87,25.58-45.13,18.56-72.47-4.59-17.86-16-30.67-32.33-39.24-20.51-10.77-42-10.17-63.79-5.57-9.73,2.06-19.2,5.32-28.8,8-1.22.34-2.46.65-4,1.07-1.22-3.25-2.3-6.15-3.47-9.25,10-5.42,19.92-10.43,29.47-16.09,18.71-11.09,36.11-23.91,50-40.9,11.44-14,19.52-29.41,19.11-48.12-.43-20.07-10.53-30.36-30.62-31-22.56-.68-42.28,7.85-60.74,19.71C19.93,59.54,14,64.92,7.18,70.18L0,63.64c7.55-7.56,14.52-15.13,22.12-22C40.71,24.77,61.64,11.54,85.78,4.26c22.57-6.8,44.86-6,65.53,6.56,25.08,15.3,30.11,42.07,17.91,66.56-12.83,25.73-34.83,42.49-58.58,57.13-9.9,6.1-20.39,11.23-30.62,16.81Z"/>
</svg>
