<svg xmlns="http://www.w3.org/2000/svg" viewBox="0 0 251.9 335.39">
  <path d="M208.8,0c1.38,4.91,2.53,9,3.63,13-47,12.53-84,39.86-115.85,74.59C82.39,103,72.06,121.26,64.85,142.76c5.18-3,9.05-5.42,13.06-7.57,25.83-13.92,53.17-21.87,82.76-20.33,29,1.51,52.54,13.6,69.2,37.73,12.7,18.37,21,38.44,21.94,61.14.91,20.91-5.25,39.83-16.38,57.12-22.89,35.55-55.45,58.3-97.17,63.39-50.47,6.16-91.64-12.3-119.13-56.43C7.05,258.42,1.36,236.67.22,213.85c-2.3-45.75,13.71-85.32,42.31-120C81.4,46.74,131.87,18,190.74,3.37,196.5,1.94,202.43,1.17,208.8,0ZM57.5,166.45c-5.68,24.51-7,49.13-2.79,73.9,2.55,14.88,7.4,29,16.43,41.37,15.24,20.81,36.24,30,61.65,29.84,18-.1,34.05-5.36,47-18.35,12.1-12.1,17.45-27.4,19.69-43.8,3.93-28.61-2.38-54.94-19.49-78.38-20.08-27.52-51.56-37.82-84-27.31C81.62,148.41,69.63,157.53,57.5,166.45Z"/>
</svg>
