<svg xmlns="http://www.w3.org/2000/svg" viewBox="0 0 229.79 342.22">
  <path d="M138.32,146.28c29.35,14.46,60.17,26,79.51,53.59C251.94,253.43,207.77,320,152.27,334.6,17.85,377.71-67.57,227.07,70,156.75-29.8,90,45.55-10.16,146,.83,200.64,2,229.55,68.44,192.19,108.07,177.27,125.22,158.25,136,138.32,146.28Zm-45,22.87C3.44,231.54,77.61,360.57,172.64,309.28,240.73,256.65,142.3,189.16,93.27,169.15Zm23.46-32.6c9-6.17,18.39-11.88,27-18.63,26.76-18.6,29.95-57.22,9.66-81.91C93.09-26.9,3.27,71.66,116.73,136.55Z"/>
</svg>
