<?xml version="1.0" encoding="utf-8"?>
<!-- Generator: Adobe Illustrator 26.0.2, SVG Export Plug-In . SVG Version: 6.00 Build 0)  -->
<svg version="1.1" id="Layer_1" xmlns="http://www.w3.org/2000/svg" xmlns:xlink="http://www.w3.org/1999/xlink" x="0px" y="0px"
	 viewBox="0 0 294.4 265.3" style="enable-background:new 0 0 294.4 265.3;" xml:space="preserve">
<path d="M147.1,235.9c-33.4,0-66.8,0-100.2,0c-2.3-0.1-4.6,0.1-6.9,0.4c-6.7,1.2-11,7.1-10.8,14.4c0.3,7.4,4.8,13,11.6,13.8
	c4.1,0.5,8.3,0.7,12.4,0.7c62.3,0,124.7,0,187,0c4.1,0,8.3-0.3,12.4-0.6c7-0.6,11.7-6.3,11.8-14c0.2-7.9-4-13.4-11.2-14.4
	c-2-0.2-4-0.3-6-0.3L147.1,235.9z"/>
<path d="M274.8,12c-28.2-7-44.2,32.4-18.6,46.1l-27.9,52.2c24.5,10.5,16.3,48.2-10.8,47.7c-32,0-34.2-46.9-2.5-50l-20.9-58.4
	C223.7,43,219.8,0.5,189,0c-29-0.3-35.1,41.1-7.5,49c-6.6,13.5-19.9,40.5-26.5,53.9c30,7,24.6,51.9-6.6,51.6
	c-29.9,0.4-36.8-42.2-8.6-51L113.5,49c27.9-7.8,21.6-49.7-7.7-49c-30,0.1-34.4,43.5-5.2,49.5l-21.3,58.8c30.6,5.4,27.4,49.5-4,49.9
	c-27.8,0.4-35.3-38.6-9.6-48.2L37.8,58C62.3,44.7,48.2,6.6,20.6,11.7c-30.7,5-26.2,50.7,5.1,49.7c8,51.8,16.1,103.7,24.1,155.5
	c0.6,4.2,1.7,5.7,5.5,5.7c62.7-0.2,125.4-0.2,188.1-0.1c8.4-54.2,16.7-107.8,25-161.1C298.6,62.2,304.1,18.6,274.8,12z"/>
</svg>
