<?xml version="1.0" encoding="UTF-8"?>
<svg xmlns="http://www.w3.org/2000/svg" viewBox="0 0 460.2 446.41">
  <g id="a" data-name="Layer 1"/>
  <g id="b" data-name="Layer 2">
    <g id="c" data-name="Layer 1">
      <path d="M451.46,131.76c-8.89-1.56-18.14-.98-27.48,1.17l.06-.37c-11.41,3.62-23.57,7.82-34.99,14.6,32.36-31.73,2.4-106.58-45.75-101.18,33.6,4.95,38.08,54.52,5.79,65.34C355.94,51.79,273.55-17.08,217.39,3.82c44.53,7.5,76.69,58.87,48.54,99.33-4.92-47.63-49.17-83.06-97.8-77.46,48.8,.48,80.96,65.17,40.64,92.14-54.04,23.33-64.7-63.99-8.5-54.89-56.44-30.89-106.75,52.24-51.98,87.35-41.27-10.04-58.2-55.71-33.63-98.79-49.63,29.17-46.93,71.34-26.71,104.63-23.44-17.1-49.9-29.51-79.2-24.37-12.22,1.75-10.64,32.01-1.33,38.98,1.55,1.16-7.33,55.08,20.6,66.31-7.94,21.92,12.83,50.8,27.96,50.01-9.49,14.94-.63,34.7,14.84,43.88,0,0,114.43,115.46,158.91,115.46s158.81-114.96,158.81-114.96c16-8.95,25.36-29.17,15.7-44.38,15.13,.79,35.9-28.1,27.96-50.01,27.93-11.23,19.05-65.15,20.6-66.31,9.31-6.98,10.89-37.23-1.33-38.98Zm-221.36,167.15s-36.66-17.04-36.66-23.97,16.41-12.54,36.66-12.54,36.66,5.61,36.66,12.54-36.66,23.97-36.66,23.97ZM86.46,181.52s12.78,0,32.92,7.2c-9.83,29.77,13.5,63.67,13.5,63.67,0,0,9.21-33.22,12.99-51.17,26.44,16.17,41.18,32.53,41.18,32.53-55.82,76.1-111.49-6.57-100.59-52.23Zm236.49,179.57c-6.31-10.83-12.81-20.32-24.12-25.28-14.5,13.04-22.6,34.58-32.17,51.77-32.14-51.09-41-51.08-73.13,0-9.57-17.19-17.67-38.73-32.17-51.77-11.31,4.96-17.81,14.44-24.12,25.28-14.79-22.56-39.72-42.64-28.01-71.37,35.93,66.53,205.8,66.53,241.73,0,11.72,28.74-13.22,48.81-28.01,71.37Zm-49.81-127.34s14.74-16.36,41.18-32.53c3.77,17.95,12.99,51.17,12.99,51.17,0,0,23.33-33.9,13.5-63.67,20.15-7.2,32.92-7.2,32.92-7.2,10.9,45.66-44.77,128.33-100.59,52.23Z"/>
    </g>
  </g>
</svg>