<svg xmlns="http://www.w3.org/2000/svg" viewBox="0 0 275.18 266.51">
  <g>
    <path d="M25,234.67l.73,10.23C4,221.71,1.18,189,11.3,160.21L0,167.91c6.75-17.44,16.8-31.12,29-43.36l1.93.48c-1.11,8.46-2.23,16.91-3.29,25l31.91-22,.72,1-5.49,17.38,1.06.79c6.81-5.27,13.79-9.81,23.08-6.59-53.59,53.84,8.4,121.26,52.24,48.07l22.77,19C135.89,263.68,60.08,281.62,25,234.67Z"/>
    <path d="M104.27,134.45c4.83,14.8,24.78,3.37,27.21,18.41,1.59,8.14,1.87,8.38,9.92,8.76,20.22-1.26,43.62,42.77,61.34,32.86,5.25-2.92,7.38-8.13,6.42-15.43,11.73,5.82,13.74,23,4,37C236.36,220.4,254.81,195.89,230,182c46.7-2,53.67,63.39-4.41,65,8.4,5.29,16.44,7.58,26.79,5.31-22.87,24.9-66.56,16.29-70.46-18.69-6.65,5.88-7.17,15.09-1.51,25.35-8.67-1.12-17.31-11.77-17.78-22.29-.25-12.17,3.15-25.88-8.43-34.16-12-12.23-33.29-20-33.87-39.49C119.35,151.41,101.53,147.41,104.27,134.45Z"/>
    <path d="M87.1,129.66l11,1.57c-1.91,5.66-7.11,16.94,3.07,15.05-2.13,10.82-1.6,11.91,7.23,12.32-5.52,8.28-13.24,11.47-22.7,13l8-9.38-10.45,1.07c15.34-15.94,1.23-34.38-21.31-25.63,3.28-7.78,8.86-12.86,16.62-17.44l-11.52-3-.4-1.43L87,109.21c-8.63-2.67-25.58,2.73-33.17,11.1l9.47,2L33.84,138.94c5.49-18.63-4.81-22.87-22.23-21.22,24.84-19,41.56-12.79,18.87-35.48l17.36,1.53L45.4,66.05,47,65.6c9,14.86,27.39,20.81,40.21,31.15-1.76-6.93-11.82-11-14-18.12a46.17,46.17,0,0,1,4.12-29c3.15,26,25.25,36.76,41.54,53.23C110,86.47,79.78,75.5,93.39,53.27c1.91,30.12,43.44,37.91,42.9,68.62,1.37,3.42,4.29,5.63,6.76,9.13l6.78-5.62c2.47,9-3.74,22.71-13,28.31-.82-12-2.52-13.3-20.43-15.31,3.16-8.8,4-12.34-6.77-12C102.14,127.19,94,126.58,87.1,129.66Zm32.05-9.51c-2.74-6.83-6.57-10.54-11.75-11.58C109.44,116.65,112.24,119.5,119.15,120.15Z"/>
    <path d="M69.51,79.76C57.18,73.54,50.44,64.67,46.26,52.54c-4.25,9.12-5.7,17.54-3.7,26.57C29.74,70.66,28,38.29,37.87,27.57l1.61,9.12c4.37-12.84,10.78-24,22.32-32.62-.53,3.18-.95,5.69-1.5,9,52.39-41.65,111.92,25.22,66.1,79.9L103.34,69.78C127.91,29.58,76.82,6,69.59,45.84,69.23,56.74,69.51,67.66,69.51,79.76Z"/>
    <path d="M168.91,171.75l-18.47-14c17-22.06,36.53-40.93,65.68-46.61-21,1.15-38.23,10.44-53,25.06.57-9.52,15.42-28.61,27.75-35.83-1.32,3-2.66,6.09-4,9.16l1.41,1c6.21-1.66,9.88-7.3,15.13-10.46s10.51-5.83,15.78-8.73l.69,1.32c-8.79,6.11-12.34,13.13,1.87,8,18.61-5.86,42.61,1.05,53.45,15.51-13.81-1.12-26.87.89-38.93,7.9-15.91-5.24-31.55-6.81-42.67,8.14A315.72,315.72,0,0,0,168.91,171.75Z"/>
  </g>
</svg>
