<svg xmlns="http://www.w3.org/2000/svg" viewBox="0 0 210.71 227.9">
  <path d="M146.91,59.53c.39-10.77-1.17-20.75-7.52-29.59-.69-1-.78-1.42.57-2.09C157.64,8.6,184.69-1.62,210.71.25,188.36,15.84,185,50,206.88,67.42c-16.34,4.67-31.46,18-32,36-.51,2.32,1.69,9.82-1.69,9.58-25.71-1-51,13.09-52.2,40.71,0,14.38,6.3,28.55,9.92,42.29,1.18,15-7.68,25.29-20.59,31-12,3.66-27.89-3.55-31-16.24-4.3-10.38,4.42-17.29-11-11.86,2.54-7.69,6.53-14.66,10.16-21.84,4.26,6.29,7.34,13.69,11.28,20.33.19.33,0,.89-.06,1.34-2.92-1.78-6.18-1.71-9.48-1.53,1.24,15.57,20.86,29.95,29.72,11.43,5.06-9.85-16.45-33.86-17.78-48.27-3.48-10-2.64-21.95-9.9-30.43-10.44-13.3-28.81-17.51-45-16.9-3-.44-.7-7.47-1.38-9.94C34.35,86.74,21,71.23,4.79,68c-.92-.44-1-.78-.24-1.15,2.63-1.37,3.67-4.26,5.9-6C15.06,55.2,16.6,48,18.91,41.37c.82-15.79-6-31.77-18.91-41,25.84-2.52,54.07,8.3,71,28.1.49.61.94.8.24,1.82-6.34,9.18-7.73,21.07-7.19,32C61.84,73.43,80.91,117,93.69,98.44c3.47-6.5-12.93-13.88-13.79-28.55a22.94,22.94,0,0,1,3.61-15c.52-.83.75-1.64-.3-1.9-3.86-1-5.51-3.4-5.34-7.29-.47-.76-1.15-1.36-.72-2.48,4.27,2.14,9,5.54,13.85,2.79,2.68-.63-6.74-5.25-4.83-13.81,1.66.1,1.42,1.74,2.13,2.62a23.84,23.84,0,0,0,20,7.07c9.62.26,9.3,6,12-5.84,7,7,7.31,18,13.43,25.24,5.22,3.51,2.59,6.61-1.44,9.55-.13-.44-.43-.92-.36-1.33.24-4.25-6.48-4.16-9.25-6.23-1.8.58,2.24,8.1,3.38,9.33,1,.94.91,1.23-.07,1.79-5.7,2.82-10.76-8.7-14.38-12.15-6.46-9.67-18.8,4.08-10,10.63,6.34,4,12.84,7.79,18.92,12.21,4.26,2.86,7.63,6.69,11.26,10.25,1.79,1.75,2.18,1.88,3.48-.34C142.75,85,147.86,71.93,146.91,59.53Z"/>
</svg>
