<?xml version="1.0" encoding="utf-8"?>
<!-- Generator: Adobe Illustrator 26.2.1, SVG Export Plug-In . SVG Version: 6.00 Build 0)  -->
<svg version="1.1" id="Layer_1" xmlns="http://www.w3.org/2000/svg" xmlns:xlink="http://www.w3.org/1999/xlink" x="0px" y="0px"
	 viewBox="0 0 922.4 1171.3" style="enable-background:new 0 0 922.4 1171.3;" xml:space="preserve">
<g id="a">
</g>
<path d="M641.9,246.1L461.2,0L280.5,246.1L0,103.1l138,242.8h646.5l138-242.8L641.9,246.1z M461.2,267.7L398,217.9l63.2-88.5
	l63.2,88.5L461.2,267.7z"/>
<path d="M430.8,581.3L430.8,581.3l0-180.1H138.3V793c64.9,84,229.8,297.1,292.6,378.3V632.4H261.5v98h71.4v154.2l-96.6-124.9V499.2
	h96.6v82.1H430.8z"/>
<path d="M782.7,548.6L782.7,548.6l0-147.2h-97.8V508l-96.7,96.6V401.4h-97.8v769.9l97.8-126.6V743.2l61.8,61.6l-0.2,160.4
	c32.5-41.9,98.2-127,130.5-168.7C759.8,776.2,676,692.4,657.5,673.8C675.5,656,763,568.3,782.7,548.6z"/>
</svg>
