<?xml version="1.0" encoding="UTF-8"?>
<svg id="a" data-name="Layer 1" xmlns="http://www.w3.org/2000/svg" viewBox="0 0 903.05 878.52">
  <path d="M898.54,288.03l-.02,.02c-20.86-32.01-56.03-37.18-89.53-32.89,.81-53.87-36.7-102.62-78.49-135.01,7.31,11.6,13.65,23.53,18.74,35.65,33.05,60.17-.66,166.02-83.25,119.28C727.38,152.43,628.39-9.65,486.56,.45c135.17,23.58,170.71,192.97,52.51,265.89,49.33-137.25-140.53-317.47-254.85-193.06,140.92-80.21,224.8,127.92,106.67,219.67-149.75-69-27.57-198.69,12.42-125.74,1.09-15.49-9.32-28.66-23.2-35.74-113.81-45.64-168.76,141-135.58,181.93-70.73-41.97-90.55-139.92-49.41-210.02-54.13,32.27-88.89,93.23-96.35,152.45-85.42-16.48-131.45,53.32-71.76,118.65-17.62,51.29-2.79,93.92,37.37,122.42-12.69,46.88,13.56,79.42,50.43,94.08-12.79,35.01-2.71,61.48,29.83,86.85,327.14,268.35,287.62,266.83,613.66,0,32.54-25.38,42.62-51.84,29.83-86.85,36.87-14.66,63.12-47.2,50.43-94.08,40.16-28.5,54.99-71.12,37.37-122.42,18.06-19.42,35.63-55.21,22.61-86.45Z"/>
</svg>