<?xml version="1.0" encoding="UTF-8"?>
<svg xmlns="http://www.w3.org/2000/svg" viewBox="0 0 524.68 331.71">
  <g id="a" data-name="Layer 1"/>
  <g id="b" data-name="Layer 2">
    <g id="c" data-name="Layer 1">
      <path d="M480.34,174.65h0c-76.05,108.11-359.68,108.01-435.67,.04-23.08,50.64,22.01,77.37,51.79,115.41,9.18-12.32,31.08-46.78,49.13-33.18,21.49,21.27,35.8,49.63,51.46,74.79,56.36-90.76,73.62-89.59,130.96-.05,15.65-25.13,29.94-53.49,51.43-74.74,18-13.61,40.02,20.92,49.12,33.17,29.84-37.94,74.86-65.16,51.79-115.44Z"/>
      <path d="M521.84,.02h-.01c-13.72,.52-64.78,11.87-64.78,11.87,0,0,8.03,71.09-25.16,98.09-32.21-24.75-17.07-81.36-17.07-81.36,0,0-67.59,43.47-79.84,54.29,25.98,31.75,62.45,50.51,84.36,50.51C489.31,136.16,537.07,51.34,521.84,.02Z"/>
      <path d="M109.86,28.6h-.01s15.14,56.62-17.07,81.37C59.59,82.97,67.62,11.88,67.62,11.88,67.62,11.88,16.56,.53,2.84,0-12.39,51.31,35.37,136.14,105.34,133.4c21.91,0,58.38-18.76,84.36-50.51-12.25-10.82-79.84-54.29-79.84-54.29Z"/>
      <path d="M248.59,171.22c-7.34-13.61-20.34-20.85-29.04-16.17-8.7,4.69-9.81,19.52-2.48,33.14,7.34,13.61,29.04,16.17,29.04,16.17,0,0,9.81-19.52,2.48-33.14Z"/>
      <path d="M305.11,155.05c-8.7-4.69-21.7,2.55-29.04,16.17-7.34,13.61,2.48,33.14,2.48,33.14,0,0,21.7-2.55,29.04-16.17,7.34-13.61,6.23-28.45-2.48-33.14Z"/>
    </g>
  </g>
</svg>