<?xml version="1.0" encoding="UTF-8"?>
<svg id="a" data-name="Layer 1" xmlns="http://www.w3.org/2000/svg" viewBox="0 0 819.61 703.76">
  <path d="M788.53,219.08h.02c26.15,52.16,13.16,89.32-37.87,115.23,26.02,62.72-3.5,68.94-55.4,87.83,28.08,63.15,21.9,61.83-28.82,100.79-26.62,26.03-231.08,176.82-253.89,180.69,1.23,0,1.69,.02-.53,.07,.16-.01,.34-.03,.53-.07-1.01,0-2.54,0-3.54,.01,.27,.01,.43,.04,.43,.04-10.8,4.36-229.86-155.78-254.04-180.6l-.27,.14c-53.3-38.81-55.3-40.84-28.91-101.09-51.91-18.9-81.32-25.12-55.33-87.8-50.95-25.91-64.03-62.95-37.93-115.09-76.76-73.48-3.83-80.27,59.63-61.49,2.47-20.39,4.71-41.32,9.61-61.83,15.53,47.03,81.18,129.64,147.43,119.72-29.12-86.82-16.91-131.22-6.62-141.95,18,80.44,60.77,101.78,116.09,121.76,59.69-50.5,99.48-120.68,87.4-195.44,32.45,53.9,8.79,135.72-11.76,207.69,74.09-39.57,139.85-83.28,167.56-154.59-1.4,27.93-11.12,58.92-26.07,86.75,31.41,48.34,137.41,52.65,172.52,6.68,79.9-13.36,90.83,25.13,39.76,72.55Z"/>
</svg>