<?xml version="1.0" encoding="UTF-8"?>
<svg id="a" data-name="Layer 1" xmlns="http://www.w3.org/2000/svg" viewBox="0 0 903.04 878.51">
  <g>
    <path d="M670.8,558.43h0c-76.05,108.11-359.68,108.01-435.67,.04-23.08,50.64,22.01,77.37,51.79,115.41,9.18-12.32,31.08-46.78,49.13-33.18,21.49,21.27,35.8,49.63,51.46,74.79,56.36-90.76,73.62-89.59,130.96-.05,15.65-25.13,29.94-53.49,51.43-74.74,18-13.61,40.02,20.92,49.12,33.17,29.84-37.94,74.86-65.16,51.79-115.44Z"/>
    <path d="M712.3,383.8h-.01c-13.72,.52-64.78,11.87-64.78,11.87,0,0,8.03,71.09-25.16,98.09-32.21-24.75-17.07-81.36-17.07-81.36,0,0-67.59,43.47-79.84,54.29,25.98,31.75,62.45,50.51,84.36,50.51,69.97,2.74,117.73-82.08,102.5-133.4Z"/>
    <path d="M300.32,412.38h-.01s15.14,56.62-17.07,81.37c-33.19-27-25.16-98.09-25.16-98.09,0,0-51.06-11.35-64.78-11.88-15.23,51.31,32.53,136.14,102.5,133.4,21.91,0,58.38-18.76,84.36-50.51-12.25-10.82-79.84-54.29-79.84-54.29Z"/>
    <path d="M439.05,555c-7.34-13.61-20.34-20.85-29.04-16.17-8.7,4.69-9.81,19.52-2.48,33.14,7.34,13.61,29.04,16.17,29.04,16.17,0,0,9.81-19.52,2.48-33.14Z"/>
    <path d="M495.57,538.83c-8.7-4.69-21.7,2.55-29.04,16.17-7.34,13.61,2.48,33.14,2.48,33.14,0,0,21.7-2.55,29.04-16.17,7.34-13.61,6.23-28.45-2.48-33.14Z"/>
  </g>
  <path d="M74.11,359.97c-76.76-73.48-3.83-80.27,59.63-61.49,.5-4.16,1-8.33,1.51-12.53H7.59c-13.68,23.48-9.82,56.54,19.41,88.53-8.6,25.03-9.45,48-3.42,68.27h48.34c-15.18-22.07-14.57-49.32,2.18-82.78Z"/>
  <path d="M138.48,552.2c-32.77-13.19-47.08-27.36-26.44-77.14-18.25-9.28-31.64-19.99-40.11-32.31H23.59c6.33,21.26,20.23,39.56,40.79,54.15-12.69,46.88,13.56,79.42,50.43,94.08-1.06,2.91-1.96,5.77-2.7,8.57h26.38v-47.34Z"/>
  <path d="M712.78,285.95h48.39v-66.1c-3.33,32.46-20.07,61.28-48.39,66.1Z"/>
  <path d="M521.2,129.16c-17.57-30.32-42.76-56.6-71.37-74.24v74.24h71.37Z"/>
  <path d="M112.1,599.55c-7.64,28.62,1.23,51.5,26.38,73.24v-73.24h-26.38Z"/>
  <path d="M605.5,180.76v74.52c15.97-18.12,28.97-38.32,37.96-61.44-1.4,27.93-11.12,58.92-26.07,86.75,1.21,1.86,2.53,3.64,3.95,5.36h74.08c-8.98-1.38-18.8-4.85-29.43-10.87,23.43-46.82,23.5-99.38,6.73-145.92h-62.76c1.7,17.16,.28,34.67-4.45,51.61Z"/>
  <path d="M400.25,336.18c17.86-15.11,33.94-31.99,47.39-50.23h-48.39c-2.67,2.4-5.46,4.73-8.37,7-4.93-2.27-9.55-4.61-13.9-7h-60.38c21.55,25.65,50.32,38.19,83.65,50.23Z"/>
  <path d="M672.71,129.16c-13.13-36.44-36.58-69.19-67.21-92.59V105.19c2.17,7.85,3.65,15.87,4.45,23.97h62.76Z"/>
  <path d="M318.52,129.16h55.25c-20.48-6.8-38.95-6.03-55.25,0Z"/>
  <path d="M449.83,282.94c30.07-42.03,46.09-91.04,37.83-142.2,23.29,38.68,17.68,91.74,5.06,145.21h80.85c11.59-9.58,22.3-19.74,31.94-30.67v-74.52c-9.18,32.86-30.82,63.6-66.43,85.58,16.25-45.21,6.54-95.07-17.86-137.18h-71.37v153.78Z"/>
  <path d="M284.21,73.28c3.35-1.9,6.66-3.65,9.94-5.23v-4.65c-3.37,3.06-6.69,6.34-9.94,9.88Z"/>
  <path d="M730.49,120.15c1.88,2.98,3.69,5.98,5.44,9.01h5.56c-3.62-3.12-7.29-6.13-11-9.01Z"/>
  <path d="M486.55,.45c63.54,11.08,105.05,54.39,118.94,104.74V36.56C572.77,11.56,531.85-2.78,486.55,.45Z"/>
  <path d="M294.15,756.34h22.39c-7.53-5.46-15.02-10.94-22.39-16.36v16.36Z"/>
  <path d="M195.11,103.38c-12.17,7.25-23.35,15.97-33.47,25.78h21.47c3.17-8.89,7.16-17.53,12-25.78Z"/>
  <path d="M143.35,236.65c4.73,14.34,14.13,31.98,26.78,49.3h41.37c-36.7-41.72-47.32-103.7-28.39-156.8h-21.47c-8.49,8.23-16.23,17.23-23.16,26.81v105.99c1.31-8.46,2.87-16.92,4.87-25.31Z"/>
  <path d="M605.5,756.34v-13.19c-5.96,4.38-11.98,8.79-18.03,13.19h18.03Z"/>
  <path d="M438.86,129.16h10.96V54.91c-48.87-30.12-107.73-34.99-155.67,8.49v4.65c70.21-33.92,124.79,4.16,144.71,61.11Z"/>
  <path d="M138.48,261.96v-105.99c-21.56,29.79-35.34,65.12-39.72,99.86-43.59-8.41-76.91,5.66-91.17,30.12h127.66c.97-7.97,1.99-15.98,3.23-24Z"/>
  <path d="M239.94,756.34c19.65,16.09,37.61,30.59,54.21,43.49v-43.49h-54.21Z"/>
  <path d="M741.49,129.16h-5.56c5.05,8.74,9.52,17.64,13.3,26.64,6.58,11.99,10.51,25.78,11.94,39.83v-47.57c-6.25-6.7-12.86-13.01-19.68-18.9Z"/>
  <path d="M761.17,219.85v66.1h37.74c14.8-1.86,26.89-1.76,36.33,0h61.85c-21.01-30.12-55.35-34.99-88.1-30.79,.6-40.08-20.01-77.32-47.81-107.1v47.57c.82,8.09,.82,16.27,0,24.22Z"/>
  <path d="M605.5,802.33c17.47-13.53,36.46-28.86,57.38-45.99h-57.38v45.99Z"/>
  <path d="M587.47,756.34c-59.98,43.62-121.81,85.99-133.77,88.02,1.23,0,1.69,.02-.53,.07,.16-.01,.34-.03,.53-.07-1.01,0-2.54,0-3.54,.01,.27,.01,.43,.04,.43,.04-.19,.08-.45,.1-.77,.07v34.01c44.84,.68,89.3-24.76,155.67-76.16v-45.99h-18.03Z"/>
  <path d="M761.17,675.53c27.65-22.57,37.62-46.16,29.66-75.99h-29.66v75.99Z"/>
  <path d="M791.81,475.05c21.52,51.87,5.05,65.1-30.64,78.8v45.69h29.66c-.75-2.8-1.64-5.65-2.7-8.57,36.87-14.66,63.12-47.2,50.43-94.08,20.56-14.59,34.46-32.89,40.79-54.15h-47.42c-8.47,12.32-21.85,23.03-40.11,32.3Z"/>
  <path d="M290.78,356.37c-9.29-27.7-14.37-51.07-16.65-70.42h-38.73c1.07,11.63,4.08,21.22,9.12,27.45-12.66-7.51-23.68-16.83-33.02-27.45h-41.37c28.84,39.5,74.6,77.31,120.65,70.42Z"/>
  <path d="M829.66,359.82h.02c16.79,33.5,17.44,60.81,2.24,82.93h47.42c6.03-20.27,5.18-43.23-3.42-68.27,18.06-19.42,35.63-55.21,22.61-86.45l-.02,.02c-.47-.72-.95-1.41-1.43-2.1h-61.85c36.26,6.74,33.37,37.71-5.57,73.87Z"/>
  <path d="M138.48,552.2v47.34h14.52c2.63-9.43,7.55-21.11,14.37-36.69-10.68-3.89-20.4-7.24-28.89-10.66Z"/>
  <path d="M316.61,285.95h60.38c-127.9-70.32-12.36-189.29,26.32-118.74,1.09-15.49-9.32-28.66-23.2-35.74-2.13-.86-4.24-1.62-6.33-2.31h-55.25c-8.76,3.24-16.89,8-24.37,13.91v104.4c6.18,15.54,13.72,28.09,22.45,38.48Z"/>
  <path d="M294.15,739.98c-46.58-34.28-87.87-66.18-97.6-76.17l-.27,.14c-39.52-28.78-50.83-37.34-43.28-64.41h-14.52v73.24c1.95,1.69,4,3.37,6.15,5.05,35.85,29.41,67.3,55.58,95.31,78.51h54.21v-16.36Z"/>
  <path d="M750.82,599.55h10.35v-45.69c-7.47,2.87-15.78,5.76-24.76,9.03,6.96,15.65,11.81,27.34,14.41,36.67Z"/>
  <path d="M789.9,287.27c3.11-.52,6.1-.95,9-1.32h-37.74v23.06c11.67-5.23,21.65-12.46,28.73-21.74Z"/>
  <path d="M573.56,285.95h-80.85c-4.97,21.04-11.02,42.15-16.82,62.48,35.58-19,69.22-38.97,97.67-62.48Z"/>
  <path d="M750.82,599.55c7.87,28.3-5.08,34.82-43.23,64.12-11.27,11.01-54.38,44.37-102.09,79.48v13.19h57.38c28.02-22.95,59.5-49.12,95.41-78.51,.98-.76,1.94-1.53,2.88-2.3v-75.99h-10.35Z"/>
  <path d="M695.42,285.95h-74.08c28.05,34.15,95.92,42.76,139.84,23.06v-23.06h-48.39c-5.37,.91-11.17,.95-17.36,0Z"/>
  <path d="M284.16,214.42c2.76,12.34,6.11,23.28,9.99,33.05v-104.4c-41.43,32.78-62.62,101.03-58.75,142.88h38.73c-4.87-41.3,3.02-64.23,10.03-71.53Z"/>
  <path d="M399.25,285.95h48.39c.74-1,1.47-2,2.19-3.01V129.16h-10.96c17.38,49.67,8.38,113.69-39.61,156.8Z"/>
  <path d="M316.54,756.34h-22.39v43.49c66.64,51.82,111.35,77.99,155.67,78.66v-34.01c-9.29-.69-72.22-43.82-133.28-88.14Z"/>
</svg>