<?xml version="1.0" encoding="utf-8"?>
<!-- Generator: Adobe Illustrator 26.2.1, SVG Export Plug-In . SVG Version: 6.00 Build 0)  -->
<svg version="1.1" id="Layer_1" xmlns="http://www.w3.org/2000/svg" xmlns:xlink="http://www.w3.org/1999/xlink" x="0px" y="0px"
	 viewBox="0 0 512 512" style="enable-background:new 0 0 512 512;" xml:space="preserve">
<path d="M61.5,20.3c0,0-26.2,154.1-17.3,198.2c11.4,56.3,43.7,85,71.7,86.8c28.9,61.3,81.2,126.3,141.6,186.7
	C321,428.3,372,364.7,399.9,305.2c27.9-2,60-30.7,71.3-86.8c8.9-44.1-17.3-198.2-17.3-198.2s-25.8,45-51,93.3
	c-59.3-121.5-231.2-122.3-290.5,0C87.3,65.3,61.5,20.3,61.5,20.3L61.5,20.3z M154.6,136.7c27.4,0,49.2,14.3,66.2,41.2
	c-32.6,17.1-60.6-1.2-86.1-38.8C141.7,137.5,148.3,136.7,154.6,136.7L154.6,136.7z M359.8,136.7c6.3,0,12.9,0.8,19.9,2.3
	c-25.4,37.6-53.4,56-86,38.8C310.5,151,332.3,136.7,359.8,136.7L359.8,136.7z M201.6,211.2l31.1,84.6l26.6-84.6l27.1,85.9l30.2-82.4
	l25.5,84.7l31-77.9c20.5,43.3-12,117.3-41.6,154.1L309,312.9l-22.1,118.7l-23.8-102.7l-26.8,94.7l-24.6-99.2l-22.6,58.1
	c-41-55-53.1-112-32.6-161l21.7,66.5L201.6,211.2L201.6,211.2z"/>
</svg>
