<svg xmlns="http://www.w3.org/2000/svg" viewBox="0 0 287.98 298.31">
  <g>
    <path d="M143.43,298.31c-18.61-70.09-37.23-140.17-56-210.73H200.32c-18.74,70.54-37.35,140.62-56,210.7Z"/>
    <path d="M288,87.32,162.75,275.55c.56-2.87.75-4.21,1.09-5.48Q187.48,181,211.15,92c.66-2.52,1.12-4.75,3.8-4.74C238.85,87.38,262.75,87.32,288,87.32Z"/>
    <path d="M124.16,274.24,0,87.64c1.8-.16,2.69-.31,3.59-.31,22.67,0,45.33,0,68-.07,2.45,0,4,.47,5,4.16q23.73,89.94,47.64,179.79c.22.83.36,1.7.53,2.55Z"/>
    <path d="M194.89,71.79h-102l51-71.43Z"/>
    <path d="M81.44,65.71,45.19,0h83.17C112.49,22.23,97.12,43.76,81.44,65.71Z"/>
    <path d="M205.71,64.83,159.4,0h81.54Z"/>
    <path d="M251.27,6.93l35.9,64.76H216.05Z"/>
    <path d="M.56,71.54l34.6-64,35.36,64Z"/>
  </g>
</svg>
