<svg xmlns="http://www.w3.org/2000/svg" viewBox="0 0 328.68 510.92">
  <path d="M101.37,0H287.81c2.27,1.57,4.83,2.85,6.75,4.77,5.37,5.39,5.45,12,.56,20.57L193.14,205c-.95,1.67-1.82,3.37-3,5.61h6.2c37.84,0,75.69.14,113.53-.1,9.28-.06,15.62,3.25,18.83,12.08v6c-2.47,3.69-4.55,7.71-7.46,11Q230.8,342,140.23,444.29,113.64,474.36,87,504.41c-5.27,5.95-11.08,7.81-17.23,5.61-9.29-3.32-12.41-12-7.93-22.57q38.4-90.29,76.86-180.53c.86-2,1.66-4.06,2.66-6.51H17.44c-14.12-.05-20.5-8.92-16-22.44Q45.11,146.1,88.78,14.21C91,7.44,94.53,2.39,101.37,0Z"/>
</svg>
