<svg xmlns="http://www.w3.org/2000/svg" viewBox="0 0 112 104.33">
  <g>
    <path d="M102.27,56.66c-.51-3.88-1.22-7.74-1.75-11.61-.58-4.29-.16-8.26,5.22-10.63l.24-.12c-5.71-1.11-7.76-4.38-8.33-8.77-.77-8-5.26-18.81,5.15-23.3C97.31-1,92.89-1,88.67,4q-11.3,13.34-22.54,26.7c-5,5.73-5.22,13,.87,18.15l7.28-8.73L70,45.31l4.83-5.75h0l0-.05h0C79.1,34.43,84,28.57,85,27.47c.25,1.66,4.42,28.15,4.75,30.37l-.21-.05v.08l-7.8-1.69C89.16,67.67,90,78.79,84,90.25c.38-.21.77-.44,1.14-.67a44.15,44.15,0,0,0,4.19-3.34c3.65-3.61,6.55-8.57,8.66-14.73,5.1-.17,10.16-.6,14-5l-.92-.17C104.5,65.83,102.93,61.63,102.27,56.66Z"/>
    <path d="M23.44,4.05C19.39-.73,15.14-1.2,9.31,2.24c10.38,4.46,5.93,15.24,5.15,23.3-.58,4.38-2.63,7.66-8.35,8.77,5.62,2.36,6.07,6.39,5.48,10.74-.53,3.88-1.25,7.73-1.76,11.61-.69,5.22-2.39,9.59-9.83,9.7,3.9,4.54,9,5,14.16,5.15,3.16,9.26,8.11,15.8,14.72,19.13-6.61-11.73-5.67-23,1.72-34.52l-8,1.75c1.5-10,3-19.88,4.54-30.4,11.19,13.2,22,26.18,33.07,39.43,5.66,6.84,4.08,14.18-3.75,18.28-7.56-4.47-9-10.71-4.14-17.61a4.69,4.69,0,0,0,1-2.15c.14-2.16-2.77-5.28-5.54-6.17a5.26,5.26,0,0,0-6.2,2C34.47,70.61,33.68,79,41,87.2c5.17,5.85,12,10.46,15.21,17.13,3.41-3.82,6.73-7.6,10.11-11.33,2.29-2.52,5-4.77,6.91-7.51A23.84,23.84,0,0,0,77.05,77c1.24-6.06-1.72-11.28-5.61-15.94Q47.55,32.48,23.44,4.05Z"/>
  </g>
</svg>
