<svg xmlns="http://www.w3.org/2000/svg" viewBox="0 0 434.25 407.38">
  <g>
    <path d="M241.56,394.36c5.93-6.2,12-11.5,16.8-17.8,13.69-12.42,4.76-56.27-13.19-36.78C149,496.48-79.37,351.87,28.15,198.9c5.81-7.32,13.62-13.06,20.52-19.52,2.56-2.4,4.91-1.46,6,1.22a137.55,137.55,0,0,1,9.87,37.76c13.13-7.85,35.52-31.75,50.71-23.61,5,6.62,10.69,15.46,5.44,23.57-4.74,7.82-9.43,15.66-14.27,23.41-19.24,32.34-10,80.63,20.78,102.58,36,27.16,84.52,9,96.06-34.27,2.66-7.92.11-15.67-5.89-21.51-14.73-15.88-39.31-23.65-34.87-49.82,26.38,20.43,48.84,45.55,73.07,68.46,18.64,18.78,33.68,44.33,19.4,70.3-1.44,3.71-3.55,7.37-3.5,11.46,23-2.08,19.8-31.12,40.11-12,81.53,56,157.67-59.79,74-111.68-8.1,37-30.65,65.28-71.24,49.51-13.28-5-24.71-13.17-34.61-23.12-23.87-25.09-49-47.88-70.49-75.25,6.39,0,11.69-.48,16.83.22,8.3,3.61,12.16,14.49,20.95,17.93,9.64-26.13,2.72-52-2.55-78l1.28-.91c13,12,19.2,29.26,30.89,42.27,26.42-13.34,51.87-28.11,83.37-13-38.47,9.94-71.32,30-83.81,69.31-9.63,26.67,31.48,45.73,52.24,50.66,24.48,5.56,56.71-28.37,37.72-51.88-3.7-4.33-6.16-7.8-9.91-12.86,46,3.52,79.21,46.3,78,91,.87,64.87-83.88,97.14-131.1,56.1C288.43,402.58,257.15,414.25,241.56,394.36Z"/>
    <path d="M150.12,0c71.68,1.07,97.57,86.84,57.09,138.93-3.89,6.41-6.46,7.78-13.52,3.35-8-5.84-18-9.9-24.45-17.45-14.68-16.61,14.22-17.35,20.69-43.93,5.8-20.28-14.91-42.52-35.26-34.7-32.16,13.91-5,43.38-16.9,53.28-6.38,2-17.62-19.65-20.48-7.61-2.21,6.7-4.52,19.42-14.17,14.21-8.46-4.18-16.72-8.85-24.74-13.83s-8.11-13.49-6.61-21.46C79.09,33.38,113.65,0,150.12,0Z"/>
    <path d="M290.55,366.15c-2.92-28.72-13.7-49.53-34.65-68.46-26.23-26.28-50.62-54.43-78.19-79.31-4.2-2.41-17.58-22.86-6.65-21,3.81,1.38,7.93,3.13,10.71,5.92,35.38,34.74,68.46,71.95,104,106.44,34.11,33.94,90.38,18.7,106.84-25.61,36.65,36.32,17.53,88.47-27.49,97-26.78,6.22-46-13-65.61-28Z"/>
    <path d="M145.22,196.52l-11.14,29.3-1.14-.13c-5.13-21.28-11.11-42.73-25.83-59.6a5.5,5.5,0,0,1-1.18-4c1.71-9.93,1-19.5-3.58-28.64-2.21-4.78,18.27-26.68,22.32-33.93,25,21.92,14,.68,32.71-16.71,0,10.17-.47,19.85.11,29.46-.14,39.23,51.72,30.65,40.49,52.5-11.11,2.75-16.51-16.57-28.51-14.72-2.39.22-3.68.87-4.17,3.74C159.9,181,194.7,165.47,207.49,183c3.89,3.67,11.2,3.87,16.24,5.42,3.37,1.76,9.55-.64,9.68,6.11.49,14.21-14.66,20.5-24.88,12.66-11.37-7.17-21.73-18-36.32-16.27-22.4,3.36-38.41-5.93-32.55-30.5,2.4-8.39,9.47,1.65,15.86-1.58C144.94,137,113.19,160.73,145.22,196.52Z"/>
    <path d="M34.74,64.91c14,11,27.67,22.17,41.85,32.63,4.83,5.84,36.81,15.38,23.91,23.69C92.4,127.53,91,133.78,96,143c9.65,20.23-6.43,19.87,13.46,39.79L68.89,203.89C66.51,191.14,60.61,177.67,54.1,166c-4.49-11.94,8.95-19.3-7.4-36.37C31.4,112,68.5,120.59,34.74,64.91Z"/>
    <path d="M159.64,268.2c.2-18.91,2.27-32-9.88-48.4-8.82-9.73,3.88-24.18,8.34-17.44,6.7,13.29,11.59,27.91,16.22,42.06C177.75,256.25,172.38,264,159.64,268.2Z"/>
    <path d="M170.8,153c4,5.23,5.89,6.89,12,9.17-.81,1.18-1.82,3.64-2.59,3.57C172.82,165.45,166.19,162.13,170.8,153Z"/>
  </g>
</svg>
