<svg xmlns="http://www.w3.org/2000/svg" viewBox="0 0 292.53 344.35">
  <g>
    <path d="M247,123.46c14.2-7.54,25.14-18.61,33.51-33.85,1.62,4.81,3.06,8.58,4.14,12.45a218.62,218.62,0,0,1,7.92,52.55c.11,3.53-1,5.25-4.13,6.78-19.87,9.71-38,21.87-52.12,39.21a92.84,92.84,0,0,0-15.47,27.66,13.43,13.43,0,0,1-5.26,6.64c-23.6,13.91-49.31,19-76.47,17.73-21.4-1-41.56-6.41-60.29-17a14.25,14.25,0,0,1-7-8.44c-6.47-18.81-18.43-33.88-34.2-45.5C27,173.87,15.18,167.62,3.71,161c-2.66-1.54-3.83-2.85-3.7-6,1.52-36.38,10-70.54,31.27-100.79,1-1.49,2.12-3,3.28-4.38,1.67-2,3.44-4,5.62-6.54,2.29,2.94,4.35,5.65,6.46,8.31C71.79,83.31,102.33,108,140.18,123a161.27,161.27,0,0,0,16,5.41c2.7.76,3.4,2,3.9,4.72,1.92,10.4,3.13,21.14,6.73,31,9.06,24.69,30.52,32.45,53.27,19.22,18-10.47,27.73-26.74,28.27-47.88C248.46,131.71,247.51,127.93,247,123.46ZM70.1,114.81c-17.13,8.74-21.72,29.25-9.56,43.85,14.54,17.44,44.55,18.69,60.66,2.54,6-6,9.25-13,9-21.63C105.34,142.4,83.33,139.32,70.1,114.81Zm80.61,53.66-2,.26c-9.52,19.74-17.93,39.87-21.95,61.46,8-1,15.35-2.66,22.73-2.7S164.13,229,172.73,230Z"/>
    <path d="M50.17,33.3a121.14,121.14,0,0,1,58-29.09c34.93-7.06,69.48-5.85,102.66,8.29,26.79,11.41,46.73,30.64,60.3,56.36a9.5,9.5,0,0,1,.34,6.92c-8.68,23.48-26.06,37.18-50,42.71-29.09,6.73-56.81.8-83.44-11C102.38,91.64,74.16,66.63,51.26,35.35A20.92,20.92,0,0,1,50.17,33.3Z"/>
    <path d="M55.75,319.81,70,293.44c51.8,26.62,103.34,26.54,155-1.06L239.79,319c-5.37,3.22-10.75,7-16.61,9.87-25.58,12.3-52.93,15.88-80.94,15.49-21.39-.3-42.47-3.08-62.32-11.46C71.48,329.3,63.7,324.16,55.75,319.81Z"/>
    <path d="M153.93,299.8V266.67l26.73-3.4c0,10,.06,19.94-.09,29.86,0,1-1.14,2.63-2,2.77C170.54,297.33,162.42,298.5,153.93,299.8Z"/>
    <path d="M77.23,250.74c6.68,2.62,13.17,5,19.5,7.78a5.32,5.32,0,0,1,2.72,3.8c.23,9.43.12,18.86.12,29.45-4.59-1.91-8.68-3.38-12.56-5.26s-9.19-3.44-11.29-6.76c-1.78-2.82.09-8,.36-12.07C76.45,262.08,76.84,256.48,77.23,250.74Z"/>
    <path d="M194.36,292.46c0-11.54-.06-21.3.09-31.06a4,4,0,0,1,2-2.85c6.53-2.75,13.15-5.27,19.46-7.75,1.41,8.59,2.9,17.3,4.15,26.05.13.9-1,2.45-1.89,3C210.72,283.91,203.13,287.84,194.36,292.46Z"/>
  </g>
</svg>
