<svg xmlns="http://www.w3.org/2000/svg" viewBox="0 0 651.31 472.12">
  <g>
    <path d="M393.52,43.1l84-36.31C486,27,490.34,48.17,495.78,68.05l95-4.36-22.91,66.69L650.78,152c.18.6.36,1.2.53,1.81l-60.7,60.81,33.28,30.11c3.3,4.8,26.6,18,13.76,21.46-27.11,11-54.18,22.14-82.19,33.6C560.1,320.65,564.63,341,569.3,362c-28.88,3.28-57.78,8.11-86.59,12.23-3.87.56-6.51,2.42-7.87,6-6.23,16.48-12.53,32.92-18.54,49.48-2.51,6.88-2.5,7.52-9.77,6.06-24-4.93-47.66-11.08-71.28-17.38-2.89-.78-4.78-.24-7,1.91q-24.58,23.82-49.51,47.3c-6.59,6.18-6.74,5.79-13.57.05-14.16-11.89-28.47-23.6-42.63-35.49-3-2.53-5.6-2.8-9.36-1.18-26,11-51.57,22.26-77.82,32.71-3.62-10.42-7.16-20.56-10.69-30.72-3-8.64-6.06-17.27-8.91-26-.86-2.65-2.06-3.67-5-3.44-27.56,2.23-55.13,4.28-82.69,6.46-8.06.64-8.85-.23-6.07-7.56C69.69,382.1,77.55,362,85.06,341.54,56.24,333.79,26.92,329.22,0,317.93l62.45-59.42L9.09,210.14c27.56-12.28,54-25.18,81.38-37.57,5.14-2.34,6.44-5,4.92-10.67-4.56-17.65-8.87-34.57-12.47-52.57,121.87-22,74.23,19.45,116.92-71,1.6-3.15,3.73-3.76,7.31-2.84,21.74,5.61,43.59,10.82,65.35,16.36,5.84,1.49,9.94.2,14.48-4.16,16.09-15.48,32.77-30.32,49.2-45.44,2.12-1.95,4-3.33,6.86-.95C359.53,15,376.09,28.67,393.52,43.1Zm236.4,114.75-76.23-21.29c8-21.58,15.5-42,23.16-62.74-27.77.92-55.37,4.38-83.11,6.43-3.9.35-5.85-.75-6.84-4.43-4.72-17.74-9.94-35-14-53-27.3,10-53.92,20.39-81.08,30.58-2.14.82-3.87,1.82-6.18-.51-13.86-14.12-29-26.8-44.3-39.31-18.47,15.76-36.63,31.52-55,47.4a11.19,11.19,0,0,1-11,2.72c-22.88-5.54-45.1-11-67.82-17.73-7.34,19.57-15.86,38.17-23.84,57.43-1.5,3.53-4.12,4.91-8.13,5.31-26.78,3.1-53,4.66-79.5,10.47l13.6,56.33c-26.39,12.63-53.48,24-79.7,38.34l48.32,42.95L23.56,313.35l75.32,22.32L75.32,399.43c28.51-2.94,55.51-4.61,83.84-7.16,3.5-.3,4.91,1,5.87,4.27,5.41,18,11.33,35.28,17.07,53.32,25.3-11.67,49.77-21.74,75.75-31,4.25-1.59,7.28-.65,10.94,2.7,14.29,13.12,29.16,25.61,44.31,38.76,17.23-18.63,35.12-33.75,53.23-51.08,2.65-2.48,5.3-3.1,9-2,23.13,6.57,46.28,11.84,69.78,17.34,6.87-19.86,15.41-37.93,24.38-56.71,1.72-3.63,4.55-5.57,9-5.91,26.56-2.12,51.52-4.47,78.19-8.63-4.89-19.95-9.53-38.94-14.35-58.63l81-35.23-48.76-45.07Z"/>
    <path d="M546.85,346.82C438.59,365.09,477.51,329.93,443,408.6c-3.53,6.9-3.56,6.89-11,5-83.07-18.5-49.16-30-111.71,27.44-8,7.46-8.19,7.2-16.45.5-12.54-10.19-25.2-20.23-37.6-30.59-2.75-2.29-4.85-2.28-7.95-1-23.62,9.48-47.31,18.78-71.71,28.43-6.45-16.52-10.21-33.67-14.64-50.76-.89-3.72-2.31-4.75-6-4.41q-35,3.22-70.12,6.05c-8.39.68-8.74-.08-5.79-8.08,6.08-17.25,12.94-33.84,18.27-51.38-24.19-6.34-48.31-12.22-71.18-21.85l52.43-49.19c-61.11-62.89-62.8-32.34,29.72-77.27-13.55-69.38-31.23-51.73,40.08-63,8.58-1.11,17.19-2,25.82-2.68,3.18-.24,4.59-1.52,5.65-4.38C197.3,93.63,204,75.91,211,57.25,307.47,72,263,92.74,335.89,28.09c4.27-3.89,6.37-3.86,10.74-.15C360,39.27,373.35,50.52,386.56,62c2.39,2.07,4.18,2.12,7,1,24.69-9.43,48.63-21.06,73.95-28.62l14.2,55,82.07-7.19c-6.75,21.23-12.91,40.62-19.18,60.33,23.22,6.49,46.82,11.15,69.47,20.59l-50.72,51.75L606.89,256c-22.11,13.35-46.2,22.18-69.59,32.94-3.11,1.13-3.87,2.67-3,6C538.48,311.68,542.44,328.51,546.85,346.82ZM407.52,151.7C402.16,179.32,397,205.76,392,232.24c-.57,3.08-1.53,3.52-4.24,2.55.37-26.23,1.23-52.37,2.08-78.58.18-4.93-1.85-7.23-6.22-7.78-9.41-1.18-18.83-2.23-28.28-3-1.11-.09-3.15,1.73-3.48,3-6.79,25.38-14.74,50.52-17.43,76.82-.36,3.5-1.8,3.75-4.07,2.56,1.18-28.49,2.34-56.58,3.51-85l-34.15-4.55c-3.28,47.75-2.49,95.11-1.82,142.9L343.47,288l17.28-66.12c3.17-1.18,3.63.84,3.62,3.85q-.09,24.74,0,49.47c0,10.62,2.56,14.25,12.89,17.17,8.51,2,34.45,8,36.47-4.44,9.59-42.7,20-85.2,30.74-127.62.59-2.36.76-4.47-2.35-4.82C430.92,154.18,419.72,153,407.52,151.7Zm-117,140.63h0c-.91-26.77,7.92-66.88-27.83-72.86-35-7.84-59.24,5-57.48,43.46-.16,21.3,0,42.61,0,63.92,0,11.77,3.2,22.32,13.1,29.37,26.2,20.62,75.67,9.59,72.35-31.92C290.13,313.67,290.56,303,290.56,292.33ZM133.23,148.9C139.46,197.68,145.49,245,151.5,292l35.85-4.15c-2.15-18.21-4.29-36.28-6.47-54.7,16.25-3.23,41.64-9,40.68-30,.33-15.85-3.26-31.38-8.9-46.06-2.92-7.33-9.47-12.08-17.71-11.75C174.71,146.2,154.5,147.65,133.23,148.9ZM500,177c-2.32,36.59-4.57,72.21-6.84,108l26.53,3.18,18.82-106.06Zm-20.45,71.84c8.91-33.38,13.46-67.77,16.24-102.21.14-1.48-1.22-4.34-2.21-4.5-10.58-1.68-21.23-2.95-32.53-4.41-2.37,36.1-4.67,71-7,106.06Zm39.34,74c.62-9.4,1.21-18.26,1.82-27.44-36.28,2-30.4-9.61-34.31,24.57Zm-36.49-66.56c-37.74,2-31.27-9.56-35,24.52h32.8Q481.3,268.81,482.41,256.34Z"/>
    <path d="M242,290.89c0-14.48-.1-29,.1-43.44,0-2.29.78-5.14,2.29-6.64,3.24-2.42,9,.38,8.92,4.76.18,30.11.13,60.23.14,90.35,0,3.75-1.82,5.32-5.54,5.4-4,.09-5.9-1.51-5.9-5.53q0-22.46,0-44.9Z"/>
    <path d="M188.91,193.64c2,7.15-5.93,18.12-10.29,7.93-1.92-9.07-3.32-18.26-5.24-27.33-.66-3.1.75-4.22,3.11-5.15,12.32-4.09,10.37,17,13.1,24.38Z"/>
  </g>
</svg>
