<?xml version="1.0" encoding="UTF-8"?>
<svg id="a" data-name="Layer 1" xmlns="http://www.w3.org/2000/svg" viewBox="0 0 469.67 430.92">
  <path d="M0,244.25c.5-37.77,6.57-68.99,23.43-97.5,18.95-32.07,47.22-52.76,81.09-66.69,13.27-5.46,26.67-10.49,41.05-12.21,1.82-.22,3.75-.71,5.46-.33,8.52,1.89,16.17-.74,24.03-3.58,7.27-2.63,14.88-3.76,22.35,.04,.86,.44,2.29,.3,3.24-.1,6.95-2.88,10.1-8.29,10.38-15.93,.37-10.31,.98-20.62,1.99-30.88,.4-4.06,1.93-8.08,3.39-11.95,1.52-4.04,4.4-5.87,9.07-4.85,2.63,.58,5.52,.02,8.29,0,1.16,0,2.71-.41,3.42,.17,4.49,3.67,10.09,3.28,15.2,4.69,6.71,1.85,8.67,7.13,6,13.55-.75,1.8-1.19,3.86-1.23,5.82-.15,7.16-.14,14.33-.05,21.49,.1,7.52,3.15,13.69,9.6,17.62,2.38,1.46,5.62,2.48,8.34,2.25,11.46-.97,22.63-1.7,34.17,1.27,10.54,2.71,21.9,2.09,32.61,4.33,47.32,9.88,85.44,33.3,108.69,77.04,17.11,32.18,22.36,66.57,17.31,102.69-4.43,31.69-13.14,61.85-30.19,89.21-19.53,31.34-46.79,53.31-81.04,66.87-12.51,4.95-24.63,11.03-37.37,15.23-15.35,5.06-31.08,5.64-46.42-1.11-1.11-.49-2.93-.35-4,.24-22.66,12.69-45.5,11.59-68.64,1.4-2.4-1.05-5.44-1.44-8.05-1.09-18.51,2.54-37.2,3.75-54.87-2.91-18.91-7.12-38.06-14.54-55.4-24.74C36.46,367.61,10.22,327.24,2.87,274.98c-1.67-11.86-2.25-23.87-2.87-30.73Zm53.3,16.79c-7.79-30.82-.08-60.31,8.16-89.76-35.54,61.34-32.03,130.22,.5,173.08-.7-2.92-1.39-5.31-1.82-7.73-.46-2.62-.79-5.28-.97-7.93-.16-2.28-.03-4.58-.03-8.23,6.77,18.07,18.59,37.49,27.61,45.65-1.84-8.39,1.71-14.1,8.02-19.11,4.46,19.92,22.72,41.12,39.61,46.47-2.99-15.17,2.2-26.95,12.71-29.59,5.99,21.1,23.84,28.84,41.61,38.13-3.51-9.68-2.22-14.01,5.31-19.44,1.25,1.48,2.51,2.98,3.78,4.47,18.81,22.13,40.63,24.47,63.57,6.6,4.55-3.55,8.58-7.78,13.04-11.87,6.54,5.53,5.66,12.82,4.57,20.45,19.42-7.01,30.92-21.16,39.12-38.75,13.26,6.31,15.4,18.05,15.92,31.12,20.46-9.64,30.57-26.95,37.81-46.94,6.17,5.49,9.52,11.64,9.59,20.78,14.26-15.57,19.67-34.34,27.73-51.75,.59,1.07,.97,2.06,.8,2.95-1.39,7.44-2.88,14.86-4.23,21.75,36.46-43.67,31.75-110.83,4.14-161.23,1.53,7.85,3.74,16.56,4.82,25.41,1.07,8.74,1.28,17.62,1.34,26.44,.05,8.8-.55,17.61-.87,26.41-4.35-14.07-10.47-26.15-15.92-29.76,4.3,33.18-1.3,64.16-19.23,91.9-4.47-12.95-8.2-26.22-13.61-38.76-5.48-12.68-14.3-23.12-26.93-30.82,2.43,30.43-17.25,74.51-37.98,86.29-2.59-32.64-13.34-53.42-29.49-56.56,4.66,26.33-3.92,48.35-22.58,68.77,2.79-22.73-4.33-41.09-16.63-58.34-8.72,7.48-11.15,17.23-12.73,27.11-1.59,9.9-2.32,19.95-3.51,30.7-20.91-19.3-23.94-43.48-21.33-70.02-21.52,13.88-28.48,33.93-28.56,58.13-29.68-22.09-38.62-52.6-39.71-87.46-25.08,17.89-36.41,42.09-39.46,71.44-4.88-8.05-9.51-15.96-12.72-24.41-8.55-22.45-9.28-45.76-6.34-69.49-9.97,9.12-11.94,21.67-15.09,33.91Zm127.95-90.2c-30.21-10.39-59.76-20.48-86.79-39.38-2.3,8.13-5.12,15.31-6.25,22.75-1.95,12.8,6.24,25.87,21.49,26.02,12.31,.12,24.65,.62,36.92-.11,11.79-.7,23.28-3.5,34.63-9.29Zm105.16-.15c.83,.6,1.31,1.08,1.89,1.33,1.82,.81,3.65,1.62,5.53,2.28,21.7,7.57,44.02,8.1,66.54,5.55,9.97-1.13,17.29-8.67,18.46-18.68,1.22-10.5-2.31-19.85-7.15-29.11-26.14,18.38-55.57,28.38-85.26,38.62Z"/>
</svg>