<svg xmlns="http://www.w3.org/2000/svg" viewBox="0 0 338.97 330.13">
  <path d="M14.66,90.76C3.59,83.11.33,72.47,6,62.89S22.35,51,34.22,56.76L60,29.57,42.55,27.1c-1.32-.19-2.85,0-3.9-.67-1.34-.82-2.3-2.28-3.43-3.47,1.5-.9,3.05-2.64,4.5-2.57,6,.31,11.91,1.19,17.87,1.83a10.2,10.2,0,0,0,5-.45c-5.7-3-11.5-5.82-17-9.09-1.46-.86-3.27-3.48-2.9-4.64,1-3,3.53-2,5.78-.92C55.91,10.78,63.35,14.55,71,17.88a8.34,8.34,0,0,0,6.16-.31c10.76-5.22,21.2-11.11,32.08-16C120.67-3.65,132,5,130.77,17.58c-.57,6-1.74,11.88-2,17.84a11.76,11.76,0,0,0,2.33,7.42c5.74,6.91,12,13.37,17.91,20.15,1.09,1.24,2.34,3.55,1.87,4.71-1.35,3.37-3.75,2.49-5.81.35A198.36,198.36,0,0,0,128.87,52.4c3.14,6.43,6.46,12.78,9.31,19.34.75,1.71.84,5.22-.15,5.9-2.92,2-4.26-.82-5.46-3.08a54.75,54.75,0,0,0-6.83-10.71c-.43,5.33-.69,10.68-1.31,16-1.61,13.85-3.5,27.67-5.05,41.52-2.29,20.37-.4,40.23,8,59.16.72,1.61,1.61,3.14,2,3.89-.73-15.82-1.48-32.29-2.23-48.62,1.71-.25,2.18-.44,2.29-.31,13.82,15.08,27.93,29.92,41.35,45.35,30.21,34.72,43.54,74.94,38.26,121-.11,1-.13,1.94-.29,4.26,7.5-2.64,14.51-4.5,21-7.5,51.63-23.88,81.95-64.05,89.85-120.38a92.18,92.18,0,0,0-14-63.62c-18.45-28.91-57.9-38.22-86.77-21a50.62,50.62,0,0,0-19.3,66.23c9.33,18.51,33.1,26.31,51.39,16.86a28.75,28.75,0,0,0,14.48-35.08c-.46-1.43-1-2.82-1.44-4.26-1.4-5.1.82-9.73,5.4-11.38,4.76-1.71,9.17.23,11.55,5.06,8.53,17.36,4.51,39.56-9.7,53.46-25.62,25.07-71.48,16.56-88-16.24-19.85-39.53.69-90.57,51.6-99.84,44.09-8,82.35,15.82,96.77,58.32,13.07,38.54,8.05,75.39-10.36,110.64-26.15,50.05-67.63,80.12-123.06,90.26C124,341.16,45.94,299.51,15.59,230.73c-20.22-45.84-20.83-91.91-1.5-138.19C14.28,92.09,14.39,91.6,14.66,90.76Z"/>
</svg>
