<?xml version="1.0" encoding="utf-8"?>
<!-- Generator: Adobe Illustrator 26.0.2, SVG Export Plug-In . SVG Version: 6.00 Build 0)  -->
<svg version="1.1" id="Layer_1" xmlns="http://www.w3.org/2000/svg" xmlns:xlink="http://www.w3.org/1999/xlink" x="0px" y="0px"
	 viewBox="0 0 298.1 298.9" style="enable-background:new 0 0 298.1 298.9;" xml:space="preserve">
<path d="M298.1,201.1c-13.6,5.4-26.1,10-38.1,15.4c-11.7,5-22,12.6-30.4,22.1c-12.5,14.6-15.2,31.6-12.1,51.2
	c-47.5,12.2-94.8,11.4-142.8,1.9c0.6-4.7,1.2-8.6,1.6-12.5c2.4-22.2-6.2-39.5-23.6-52.8c-14.4-10.9-30.9-17.3-48-22.5
	c-3.4-1-4.8-2.2-4.7-6c1.1-39.8,8-78.3,25.1-114.5C39.8,52,60.7,26.1,93.1,11.4c27.4-12.4,56-14,85.5-8.1
	c-41.6,14.4-76.6,37.4-101,75.8c18.7,6,37,12.6,52.6,23.7l-42.3,45.7c-4.6-2.1-9.6-5.2-15.1-6.8c-6.9-2.2-14.1-3.5-21.3-3.9
	c-4.1-0.1-8.9,1.9-12.3,4.3c-9.8,7.1-15.5,26-11.9,37.5c2.9,9.1,9.5,15.3,17.6,19.5c21.5,11.3,44.3,14.8,68,8.5
	c12.8-3.4,16-10.9,10.5-23.1c-4.4-9.8-11.8-17.2-19.7-24.1c-1.2-1.1-2.5-2.1-4.4-3.8c8.7-9.6,16.8-19.5,25.8-28.6
	c9-9.1,18.7-17.4,28.5-26.3c-16.7-11.5-33.9-22.4-54.7-29.8c5.3-5.7,10-11.2,15.2-16C138.9,33,168.6,19.5,201,11.7
	c1.9-0.3,3.8,0.1,5.5,1c20.2,9.8,36.3,24.5,49.1,42.8c22.4,32.1,33.6,68.3,38.8,106.6C296.2,175.2,297,188.5,298.1,201.1z
	 M202.3,211.8c19.7-1.2,37.5-6.1,50.9-15.1c18.8-12.6,20-40.4,2-54.3c-3.5-2.5-7.6-4.1-11.8-4.5c-4.6-0.5-9.3-0.1-13.8,1.1
	c-16,4-29.5,12.7-41.6,23.6c-7.6,6.8-14.3,14.3-18.2,24c-3.8,9.4-1.5,16.3,7.9,19.7C185.6,209,194.1,210,202.3,211.8L202.3,211.8z
	 M146,275.6c5.9-0.9,11.4-1.6,17-2.6c4.4-0.8,6.5-3.7,6.1-8.2c-1.3-17.3-7.3-33.9-17.4-48c-4.1-5.6-7.2-5.6-11.2,0.1
	c-10.2,14.4-15.3,30.8-17.3,48.1c-0.4,3.9,1.2,7,5.3,7.7C134.4,273.8,140.3,274.7,146,275.6z"/>
</svg>
