<?xml version="1.0" encoding="utf-8"?>
<!-- Generator: Adobe Illustrator 26.0.2, SVG Export Plug-In . SVG Version: 6.00 Build 0)  -->
<svg version="1.1" id="Layer_1" xmlns="http://www.w3.org/2000/svg" xmlns:xlink="http://www.w3.org/1999/xlink" x="0px" y="0px"
	 viewBox="0 0 269.7 276.8" style="enable-background:new 0 0 269.7 276.8;" xml:space="preserve">
<path d="M253.3,80.4c-10.3-25.2-25.5-47-48-62.9C193,8.9,179.1,2.9,164.4,0c4.5,20.8,8.9,41,13.4,61.8l-66-17.2
	c9.8,20.2,19.1,39.4,28.4,58.7l-0.9,0.6L39.1,40.3c-3.4,4.8-6.7,9-9.5,13.5C9.2,86.7,1.3,123.1,0,161.4c-0.1,3.1,1.2,4.3,3.6,5.6
	c12.8,6.4,25,13.8,35.4,23.8c11.5,11.1,20.5,23.6,17.8,40.6c-1,6.2-4.2,12-6.6,18.3C86.7,285,178,287,216.8,248.4
	c-6-7.6-10.1-15.5-9.5-25.3c0.8-11.4,6.9-19.9,14.7-27.4c12.7-12.3,27.9-20.8,43.7-28.3c3.1-1.5,4.1-3.4,4-6.9
	C268.9,132.8,263.8,106,253.3,80.4z M77.4,195.1c-19.9-0.4-35.9-16.5-36.1-36.4c-0.1-19.9,16.5-36.4,36.5-36.4
	c20,0,36.2,16.2,36.2,36.2c0,0.1,0,0.2,0,0.3C113.9,179,97.2,195.5,77.4,195.1z M150.6,251.8c-10.3,4.9-27.8,4.7-38-0.4
	c-1-0.5-2-1.6-1.8-2.3c5.1-14.3,12.3-27.8,21.2-40.1c9.4,13.1,16.9,25.9,20.9,39.5C153.2,249.5,151.9,251.2,150.6,251.8z M186,195.1
	c-20.1-0.1-36.3-16.5-36.2-36.6s16.5-36.3,36.6-36.2c20,0.1,36.2,16.4,36.2,36.3C222.5,178.7,205.8,195.3,186,195.1z"/>
</svg>
