<svg xmlns="http://www.w3.org/2000/svg" viewBox="0 0 130.87 177.7">
  <g>
    <path d="M130.24,52.88C121.92-17.62,9-17.63.64,52.88-3.76,77.22,15.22,92.77,36,100.21c4.74,2.31,2.82,8.35,5.89,11.9,4.49,6,15.92,3,15.73-4.56H58c-.18,9.66,15,9.66,14.79,0h.43c-.19,7.52,11.24,10.59,15.73,4.56,3.07-3.55,1.14-9.59,5.89-11.9C115.65,92.77,134.63,77.22,130.24,52.88ZM36.56,74.28c-20.07-2.89-20.36-39,1.33-41C63.24,31.82,62.9,77.57,36.56,74.28ZM66.12,91.91c-11.41,2.19-8.46-15.14-.68-15.74C72.33,76.36,76.52,92.8,66.12,91.91ZM94.31,74.28C68,77.57,67.64,31.82,93,33.28,114.67,35.25,114.39,71.39,94.31,74.28Z"/>
    <path d="M127.73,152c-1.25-4.4-5.47-6.63-10.3-5.22-2.05.6-3.93,1.74-5.94,2.52-1.17.46-2.62,1.27-3.62.93-7-2.36-13.82-5-20.71-7.53,10.32-3.24,19.08-11.67,31-5.75,5.12,2.54,9.53-1.66,9.85-7.23.35-5.94-3.77-7.55-8.77-8.61.74-1.11,1.27-1.88,1.78-2.68,2.42-3.8,2.1-7.26-1.44-10.17a8.06,8.06,0,0,0-11.27.82c-1.49,1.71-2.14,4.14-3.53,6s-3.06,4.29-5.14,5.13c-11,4.38-33.87,12.56-34.23,12.64-.37-.08-23.28-8.26-34.23-12.64-2.08-.84-3.67-3.21-5.15-5.13s-2-4.25-3.52-6a8.06,8.06,0,0,0-11.27-.82c-3.54,2.91-3.86,6.37-1.45,10.17.51.8,1,1.57,1.78,2.68-5,1.06-9.12,2.67-8.77,8.61.33,5.57,4.73,9.77,9.85,7.23,12-5.92,20.71,2.51,31,5.75C36.82,145.26,30,147.89,23,150.25c-1,.34-2.45-.47-3.62-.93-2-.78-3.89-1.92-5.94-2.52-4.83-1.41-9,.82-10.3,5.22-1.39,4.87.51,8.24,5.64,10,.78.26,1.6.4,2.57.64-1.66,3.87-5.61,7.31-.67,11.8S21.74,179.13,23.9,173c2.65-7.56,8.42-9.39,14.62-11.59,8.62-3,26.54-9.42,26.92-9.49s18.29,6.45,26.91,9.49c6.2,2.2,12,4,14.62,11.59,2.16,6.15,8.28,5.93,13.22,1.44s1-7.93-.67-11.8c1-.24,1.8-.38,2.57-.64C127.22,160.26,129.12,156.89,127.73,152Z"/>
  </g>
</svg>
