<?xml version="1.0" encoding="utf-8"?>
<!-- Generator: Adobe Illustrator 26.2.1, SVG Export Plug-In . SVG Version: 6.00 Build 0)  -->
<svg version="1.1" id="Layer_1" xmlns="http://www.w3.org/2000/svg" xmlns:xlink="http://www.w3.org/1999/xlink" x="0px" y="0px"
	 viewBox="0 0 358.6 466.2" style="enable-background:new 0 0 358.6 466.2;" xml:space="preserve">
<path d="M256.2,160c76.7,10.6,151.9-107.8,60.3-160.6c37.9,49.5,19.8,88.2-39.8,90.8c15.4-23.5,18.6-50.8-1.5-72.2
	c17,31.3-14.4,64.4-46.1,66c-15.6,1.4-31.4-5.3-47.4-4.3c-46.2,3.5-71.6,48.7-87.5,87.2c-8.4-35.4-10.2-74.5,9.9-108.2
	c-50.4,35-47.9,81.3-44.6,158L0,151.3L13.7,346l164.6,119.6l165.1-119.5l13.2-194.3l-80.4,84.9c-30.7-12.9-41-47.2,5.7-42.3
	c-25.2-23.5-55.8-22.8-66.8,4C209.5,170.6,224.2,155.6,256.2,160z M47.7,237.4L47.7,237.4l94.8,73.2L39.4,289.4l29.3-3L47.7,237.4z
	 M242.6,391.2l9.7-30L176,432.9l-47.6-55.1l3.2,27.5L57,327.7l61.2,30l6.5-33.8l0,0l0,0l0,0l42.3,62.5l11.2-44.1l17.8,32.6
	l56.6-48.5l-7.2,24.4l51.7-21.3L242.6,391.2z M306.3,237.4c0,0-20.9,48.9-20.9,48.9l29.3,3l-103.1,21.2L306.3,237.4z"/>
</svg>
