solid OpenSCAD_Model
  facet normal 0 0.982251 -0.187573
    outer loop
      vertex 4.48289 9.81861 14.1904
      vertex -4.10408 10.0373 15.3356
      vertex 4.10408 10.0373 15.3356
    endloop
  endfacet
  facet normal 0 0.982251 -0.187573
    outer loop
      vertex 4.48289 9.81861 14.1904
      vertex -4.48289 9.81861 14.1904
      vertex -4.10408 10.0373 15.3356
    endloop
  endfacet
  facet normal 1.30606e-06 0.982246 -0.187597
    outer loop
      vertex 0 7.66779 2.92883
      vertex 4.48289 9.81861 14.1904
      vertex 6.64052 8.57287 7.66781
    endloop
  endfacet
  facet normal 0 0.982246 -0.187597
    outer loop
      vertex 4.48289 9.81861 14.1904
      vertex 0 7.66779 2.92883
      vertex -4.48289 9.81861 14.1904
    endloop
  endfacet
  facet normal -1.30606e-06 0.982246 -0.187597
    outer loop
      vertex -4.48289 9.81861 14.1904
      vertex 0 7.66779 2.92883
      vertex -6.64052 8.57287 7.66781
    endloop
  endfacet
  facet normal 1.85075e-06 -0.982246 0.187596
    outer loop
      vertex -4.48289 -9.81861 8.81303
      vertex 0 -7.66779 20.0746
      vertex -6.64052 -8.57287 15.3357
    endloop
  endfacet
  facet normal 0 -0.982246 0.187597
    outer loop
      vertex 4.48289 -9.81861 8.81303
      vertex 0 -7.66779 20.0746
      vertex -4.48289 -9.81861 8.81303
    endloop
  endfacet
  facet normal -1.85075e-06 -0.982246 0.187596
    outer loop
      vertex 0 -7.66779 20.0746
      vertex 4.48289 -9.81861 8.81303
      vertex 6.64052 -8.57287 15.3357
    endloop
  endfacet
  facet normal 0 -0.98225 0.187576
    outer loop
      vertex -4.10408 -10.0373 7.66785
      vertex 4.48289 -9.81861 8.81303
      vertex -4.48289 -9.81861 8.81303
    endloop
  endfacet
  facet normal 0 -0.98225 0.187576
    outer loop
      vertex 4.48289 -9.81861 8.81303
      vertex -4.10408 -10.0373 7.66785
      vertex 4.10408 -10.0373 7.66785
    endloop
  endfacet
  facet normal -0.850651 0.491125 0.187588
    outer loop
      vertex -10.7446 0.319236 10.666
      vertex -6.64052 8.57287 7.66781
      vertex -10.7446 1.46441 7.66781
    endloop
  endfacet
  facet normal -0.85065 0.491125 0.18759
    outer loop
      vertex -6.64052 8.57287 7.66781
      vertex -10.7446 0.319236 10.666
      vertex -4.48289 9.81861 14.1904
    endloop
  endfacet
  facet normal -0.85065 0.491123 0.187597
    outer loop
      vertex -4.48289 9.81861 14.1904
      vertex -10.7446 0.319236 10.666
      vertex -10.7446 -0.319236 12.3375
    endloop
  endfacet
  facet normal -0.85065 0.491125 0.187592
    outer loop
      vertex -4.48289 9.81861 14.1904
      vertex -6.64053 3.83393 20.0746
      vertex -4.10408 10.0373 15.3356
    endloop
  endfacet
  facet normal -0.850651 0.491124 0.187591
    outer loop
      vertex -10.7446 -0.319236 12.3375
      vertex -6.64053 3.83393 20.0746
      vertex -4.48289 9.81861 14.1904
    endloop
  endfacet
  facet normal -0.850651 0.491122 0.187592
    outer loop
      vertex -6.64053 3.83393 20.0746
      vertex -10.7446 -0.319236 12.3375
      vertex -10.7446 -1.46441 15.3356
    endloop
  endfacet
  facet normal 0.850649 -0.491126 -0.187594
    outer loop
      vertex 6.64052 -8.57287 15.3357
      vertex 10.7446 -0.319236 12.3375
      vertex 10.7446 -1.46441 15.3356
    endloop
  endfacet
  facet normal 0.850651 -0.491125 -0.187588
    outer loop
      vertex 4.48289 -9.81861 8.81303
      vertex 10.7446 -0.319236 12.3375
      vertex 6.64052 -8.57287 15.3357
    endloop
  endfacet
  facet normal 0.850651 -0.491122 -0.187597
    outer loop
      vertex 10.7446 -0.319236 12.3375
      vertex 4.48289 -9.81861 8.81303
      vertex 10.7446 0.319236 10.666
    endloop
  endfacet
  facet normal 0.85065 -0.491126 -0.187588
    outer loop
      vertex 10.7446 0.319236 10.666
      vertex 6.64053 -3.83393 2.92885
      vertex 10.7446 1.46441 7.66781
    endloop
  endfacet
  facet normal 0.850651 -0.491123 -0.187591
    outer loop
      vertex 4.48289 -9.81861 8.81303
      vertex 6.64053 -3.83393 2.92885
      vertex 10.7446 0.319236 10.666
    endloop
  endfacet
  facet normal 0.850649 -0.491126 -0.187595
    outer loop
      vertex 6.64053 -3.83393 2.92885
      vertex 4.48289 -9.81861 8.81303
      vertex 4.10408 -10.0373 7.66785
    endloop
  endfacet
  facet normal -0.525723 -0.303538 0.794657
    outer loop
      vertex 0 2.01184e-05 23.0035
      vertex -6.64052 -8.57287 15.3357
      vertex 0 -7.66779 20.0746
    endloop
  endfacet
  facet normal -0.525735 -0.303529 0.794652
    outer loop
      vertex -10.7446 -1.46441 15.3356
      vertex 0 2.01184e-05 23.0035
      vertex -6.64053 3.83393 20.0746
    endloop
  endfacet
  facet normal -0.525737 -0.303524 0.794653
    outer loop
      vertex 0 2.01184e-05 23.0035
      vertex -10.7446 -1.46441 15.3356
      vertex -6.64052 -8.57287 15.3357
    endloop
  endfacet
  facet normal 0.525731 0.303529 -0.794655
    outer loop
      vertex 1.12611e-05 -2.662e-05 0
      vertex 10.7446 1.46441 7.66781
      vertex 6.64053 -3.83393 2.92885
    endloop
  endfacet
  facet normal 0.525731 0.303531 -0.794655
    outer loop
      vertex 10.7446 1.46441 7.66781
      vertex 1.12611e-05 -2.662e-05 0
      vertex 6.64052 8.57287 7.66781
    endloop
  endfacet
  facet normal 0.525732 0.30353 -0.794654
    outer loop
      vertex 0 -7.11512e-06 0
      vertex 6.64052 8.57287 7.66781
      vertex 1.12611e-05 -2.662e-05 0
    endloop
  endfacet
  facet normal 0.525732 0.30353 -0.794654
    outer loop
      vertex 6.64052 8.57287 7.66781
      vertex 0 -7.11512e-06 0
      vertex 0 7.66779 2.92883
    endloop
  endfacet
  facet normal 0.525735 -0.303529 0.794652
    outer loop
      vertex 0 2.01184e-05 23.0035
      vertex 10.7446 -1.46441 15.3356
      vertex 6.64053 3.83393 20.0746
    endloop
  endfacet
  facet normal 0.525737 -0.303524 0.794653
    outer loop
      vertex 10.7446 -1.46441 15.3356
      vertex 0 2.01184e-05 23.0035
      vertex 6.64052 -8.57287 15.3357
    endloop
  endfacet
  facet normal 0.525723 -0.303538 0.794657
    outer loop
      vertex 6.64052 -8.57287 15.3357
      vertex 0 2.01184e-05 23.0035
      vertex 0 -7.66779 20.0746
    endloop
  endfacet
  facet normal -0.525732 0.30353 -0.794654
    outer loop
      vertex -6.64052 8.57287 7.66781
      vertex 0 -7.11512e-06 0
      vertex -1.12611e-05 -2.662e-05 0
    endloop
  endfacet
  facet normal -0.525732 0.30353 -0.794654
    outer loop
      vertex 0 -7.11512e-06 0
      vertex -6.64052 8.57287 7.66781
      vertex 0 7.66779 2.92883
    endloop
  endfacet
  facet normal -0.525731 0.303529 -0.794655
    outer loop
      vertex -10.7446 1.46441 7.66781
      vertex -1.12611e-05 -2.662e-05 0
      vertex -6.64053 -3.83393 2.92885
    endloop
  endfacet
  facet normal -0.525731 0.303531 -0.794655
    outer loop
      vertex -1.12611e-05 -2.662e-05 0
      vertex -10.7446 1.46441 7.66781
      vertex -6.64052 8.57287 7.66781
    endloop
  endfacet
  facet normal 0.85065 0.491125 0.18759
    outer loop
      vertex 10.7446 0.319236 10.666
      vertex 6.64052 8.57287 7.66781
      vertex 4.48289 9.81861 14.1904
    endloop
  endfacet
  facet normal 0.850651 0.491125 0.187588
    outer loop
      vertex 6.64052 8.57287 7.66781
      vertex 10.7446 0.319236 10.666
      vertex 10.7446 1.46441 7.66781
    endloop
  endfacet
  facet normal 0.85065 0.491123 0.187597
    outer loop
      vertex 10.7446 0.319236 10.666
      vertex 4.48289 9.81861 14.1904
      vertex 10.7446 -0.319236 12.3375
    endloop
  endfacet
  facet normal 0.85065 0.491125 0.187592
    outer loop
      vertex 6.64053 3.83393 20.0746
      vertex 4.48289 9.81861 14.1904
      vertex 4.10408 10.0373 15.3356
    endloop
  endfacet
  facet normal 0.850651 0.491124 0.187591
    outer loop
      vertex 6.64053 3.83393 20.0746
      vertex 10.7446 -0.319236 12.3375
      vertex 4.48289 9.81861 14.1904
    endloop
  endfacet
  facet normal 0.850651 0.491122 0.187592
    outer loop
      vertex 10.7446 -0.319236 12.3375
      vertex 6.64053 3.83393 20.0746
      vertex 10.7446 -1.46441 15.3356
    endloop
  endfacet
  facet normal -0.85065 -0.491126 -0.187588
    outer loop
      vertex -6.64053 -3.83393 2.92885
      vertex -10.7446 0.319236 10.666
      vertex -10.7446 1.46441 7.66781
    endloop
  endfacet
  facet normal -0.850651 -0.491123 -0.187591
    outer loop
      vertex -6.64053 -3.83393 2.92885
      vertex -4.48289 -9.81861 8.81303
      vertex -10.7446 0.319236 10.666
    endloop
  endfacet
  facet normal -0.850649 -0.491126 -0.187595
    outer loop
      vertex -4.48289 -9.81861 8.81303
      vertex -6.64053 -3.83393 2.92885
      vertex -4.10408 -10.0373 7.66785
    endloop
  endfacet
  facet normal -0.850651 -0.491122 -0.187597
    outer loop
      vertex -4.48289 -9.81861 8.81303
      vertex -10.7446 -0.319236 12.3375
      vertex -10.7446 0.319236 10.666
    endloop
  endfacet
  facet normal -0.850649 -0.491126 -0.187594
    outer loop
      vertex -10.7446 -0.319236 12.3375
      vertex -6.64052 -8.57287 15.3357
      vertex -10.7446 -1.46441 15.3356
    endloop
  endfacet
  facet normal -0.850651 -0.491125 -0.187588
    outer loop
      vertex -10.7446 -0.319236 12.3375
      vertex -4.48289 -9.81861 8.81303
      vertex -6.64052 -8.57287 15.3357
    endloop
  endfacet
  facet normal -1.99596e-06 -0.607065 -0.794652
    outer loop
      vertex 4.10408 -10.0373 7.66785
      vertex 1.12611e-05 -2.662e-05 0
      vertex 6.64053 -3.83393 2.92885
    endloop
  endfacet
  facet normal 0 -0.607065 -0.794652
    outer loop
      vertex 4.10408 -10.0373 7.66785
      vertex -1.12611e-05 -2.662e-05 0
      vertex 1.12611e-05 -2.662e-05 0
    endloop
  endfacet
  facet normal 0 -0.607065 -0.794652
    outer loop
      vertex -4.10408 -10.0373 7.66785
      vertex -1.12611e-05 -2.662e-05 0
      vertex 4.10408 -10.0373 7.66785
    endloop
  endfacet
  facet normal 1.99596e-06 -0.607065 -0.794652
    outer loop
      vertex -1.12611e-05 -2.662e-05 0
      vertex -4.10408 -10.0373 7.66785
      vertex -6.64053 -3.83393 2.92885
    endloop
  endfacet
  facet normal 2.36381e-06 0.607066 0.794651
    outer loop
      vertex 4.10408 10.0373 15.3356
      vertex 0 2.01184e-05 23.0035
      vertex 6.64053 3.83393 20.0746
    endloop
  endfacet
  facet normal -0 0.607067 0.794651
    outer loop
      vertex -4.10408 10.0373 15.3356
      vertex 0 2.01184e-05 23.0035
      vertex 4.10408 10.0373 15.3356
    endloop
  endfacet
  facet normal -2.36381e-06 0.607066 0.794651
    outer loop
      vertex 0 2.01184e-05 23.0035
      vertex -4.10408 10.0373 15.3356
      vertex -6.64053 3.83393 20.0746
    endloop
  endfacet
  facet normal 0 0 -1
    outer loop
      vertex 1.12611e-05 -2.662e-05 0
      vertex -1.12611e-05 -2.662e-05 0
      vertex 0 -7.11512e-06 0
    endloop
  endfacet
endsolid OpenSCAD_Model
