solid OpenSCAD_Model
  facet normal -0.408249 0.707107 -0.57735
    outer loop
      vertex 0 0 0
      vertex -13.0639 0 9.2376
      vertex 6.53197 11.3137 9.2376
    endloop
  endfacet
  facet normal 0.816497 -1.44338e-06 -0.577349
    outer loop
      vertex 13.0639 0 18.4752
      vertex 0 0 0
      vertex 6.53197 11.3137 9.2376
    endloop
  endfacet
  facet normal -0.816497 1.44338e-06 0.577349
    outer loop
      vertex 0 0 27.7128
      vertex -13.0639 0 9.2376
      vertex -6.53197 -11.3137 18.4752
    endloop
  endfacet
  facet normal -0.408249 0.707106 -0.577351
    outer loop
      vertex 6.53197 11.3137 9.2376
      vertex -13.0639 0 9.2376
      vertex -6.53197 11.3137 18.4752
    endloop
  endfacet
  facet normal 0.408249 -0.707107 0.57735
    outer loop
      vertex 0 0 27.7128
      vertex -6.53197 -11.3137 18.4752
      vertex 13.0639 0 18.4752
    endloop
  endfacet
  facet normal 0.408249 0.707106 0.577351
    outer loop
      vertex 6.53197 11.3137 9.2376
      vertex -6.53197 11.3137 18.4752
      vertex 13.0639 0 18.4752
    endloop
  endfacet
  facet normal -0.408249 -0.707106 -0.577351
    outer loop
      vertex -6.53197 -11.3137 18.4752
      vertex -13.0639 0 9.2376
      vertex 6.53197 -11.3137 9.2376
    endloop
  endfacet
  facet normal -0.408249 -0.707107 -0.57735
    outer loop
      vertex 6.53197 -11.3137 9.2376
      vertex -13.0639 0 9.2376
      vertex 0 0 0
    endloop
  endfacet
  facet normal 0.408249 0.707107 0.57735
    outer loop
      vertex 13.0639 0 18.4752
      vertex -6.53197 11.3137 18.4752
      vertex 0 0 27.7128
    endloop
  endfacet
  facet normal -0.816497 -1.44338e-06 0.577349
    outer loop
      vertex -6.53197 11.3137 18.4752
      vertex -13.0639 0 9.2376
      vertex 0 0 27.7128
    endloop
  endfacet
  facet normal 0.408249 -0.707106 0.577351
    outer loop
      vertex 13.0639 0 18.4752
      vertex -6.53197 -11.3137 18.4752
      vertex 6.53197 -11.3137 9.2376
    endloop
  endfacet
  facet normal 0.816497 1.44338e-06 -0.577349
    outer loop
      vertex 6.53197 -11.3137 9.2376
      vertex 0 0 0
      vertex 13.0639 0 18.4752
    endloop
  endfacet
endsolid OpenSCAD_Model
