solid OpenSCAD_Model
  facet normal -0.894427 0.447215 0
    outer loop
      vertex -2.74546 12.4552 -2.49999
      vertex -8.52705 0.892055 -2.49999
      vertex -2.74546 12.4552 -2.49899
    endloop
  endfacet
  facet normal -0.776715 0.388358 0.495875
    outer loop
      vertex -5.78159 0 2.5
      vertex -2.74546 12.4552 -2.49899
      vertex -8.52705 0.892055 -2.49899
    endloop
  endfacet
  facet normal 0.776716 0.388359 0.495872
    outer loop
      vertex 0 11.5632 2.5
      vertex 8.52705 0.892055 -2.49899
      vertex 2.74546 12.4552 -2.49899
    endloop
  endfacet
  facet normal -0.894427 0.447215 0
    outer loop
      vertex -2.74546 12.4552 -2.49899
      vertex -8.52705 0.892055 -2.49999
      vertex -8.52705 0.892055 -2.49899
    endloop
  endfacet
  facet normal -0.809015 -0.587788 0
    outer loop
      vertex -8.52705 -0.892055 -2.49899
      vertex -7.47837 -2.33543 -2.49999
      vertex -7.47837 -2.33543 -2.49899
    endloop
  endfacet
  facet normal 0.809023 0.587777 0
    outer loop
      vertex 2.74546 12.4552 -2.49899
      vertex 1.69679 13.8986 -2.49999
      vertex 1.69679 13.8986 -2.49899
    endloop
  endfacet
  facet normal 0.809023 0.587777 -0
    outer loop
      vertex 2.74546 12.4552 -2.49999
      vertex 1.69679 13.8986 -2.49999
      vertex 2.74546 12.4552 -2.49899
    endloop
  endfacet
  facet normal 0.709118 0.515194 0.481379
    outer loop
      vertex 1.69679 13.8986 -2.49899
      vertex 0 11.5632 2.5
      vertex 2.74546 12.4552 -2.49899
    endloop
  endfacet
  facet normal -0 0 1
    outer loop
      vertex -5.78159 0 2.5
      vertex 0 -2.90393 2.5
      vertex 0 11.5632 2.5
    endloop
  endfacet
  facet normal 0.776715 0.388357 0.495875
    outer loop
      vertex 5.78159 0 2.5
      vertex 8.52705 0.892055 -2.49899
      vertex 0 11.5632 2.5
    endloop
  endfacet
  facet normal -0.776717 0.388358 0.495872
    outer loop
      vertex 0 11.5632 2.5
      vertex -2.74546 12.4552 -2.49899
      vertex -5.78159 0 2.5
    endloop
  endfacet
  facet normal -0.448838 -0.893613 0
    outer loop
      vertex -7.47837 -2.33543 -2.49899
      vertex -1.69679 -5.23936 -2.49999
      vertex -1.69679 -5.23936 -2.49899
    endloop
  endfacet
  facet normal -0.270856 -0.833611 0.481383
    outer loop
      vertex -1.69679 -5.23936 -2.49899
      vertex 0 -5.79068 -2.49899
      vertex 0 -2.90393 2.5
    endloop
  endfacet
  facet normal -0.270848 0.833617 0.481378
    outer loop
      vertex 0 14.4499 -2.49899
      vertex -1.69679 13.8986 -2.49899
      vertex 0 11.5632 2.5
    endloop
  endfacet
  facet normal 0.894427 0.447215 0
    outer loop
      vertex 2.74546 12.4552 -2.49999
      vertex 8.52705 0.892055 -2.49899
      vertex 8.52705 0.892055 -2.49999
    endloop
  endfacet
  facet normal 0.894427 0.447215 0
    outer loop
      vertex 2.74546 12.4552 -2.49899
      vertex 8.52705 0.892055 -2.49899
      vertex 2.74546 12.4552 -2.49999
    endloop
  endfacet
  facet normal 0.309007 0.95106 -0
    outer loop
      vertex 1.69679 13.8986 -2.49999
      vertex 0 14.4499 -2.49899
      vertex 1.69679 13.8986 -2.49899
    endloop
  endfacet
  facet normal 0.309007 0.95106 -0
    outer loop
      vertex 0 14.4499 -2.49999
      vertex 0 14.4499 -2.49899
      vertex 1.69679 13.8986 -2.49999
    endloop
  endfacet
  facet normal -0.448838 -0.893613 0
    outer loop
      vertex -7.47837 -2.33543 -2.49999
      vertex -1.69679 -5.23936 -2.49999
      vertex -7.47837 -2.33543 -2.49899
    endloop
  endfacet
  facet normal 0 -0 -1
    outer loop
      vertex -1.69679 13.8986 -2.49999
      vertex -1.69679 -5.23936 -2.49999
      vertex -2.74546 12.4552 -2.49999
    endloop
  endfacet
  facet normal 0 0 1
    outer loop
      vertex 0 11.5632 2.5
      vertex 0 -2.90393 2.5
      vertex 5.78159 0 2.5
    endloop
  endfacet
  facet normal 0 0 -1
    outer loop
      vertex 0 14.4499 -2.49999
      vertex -1.69679 -5.23936 -2.49999
      vertex -1.69679 13.8986 -2.49999
    endloop
  endfacet
  facet normal 0.309017 -0.951057 0
    outer loop
      vertex 1.69679 -5.23936 -2.49899
      vertex 0 -5.79068 -2.49899
      vertex 1.69679 -5.23936 -2.49999
    endloop
  endfacet
  facet normal -0.809023 0.587777 0
    outer loop
      vertex -2.74546 12.4552 -2.49999
      vertex -1.69679 13.8986 -2.49899
      vertex -1.69679 13.8986 -2.49999
    endloop
  endfacet
  facet normal -0.309007 0.95106 0
    outer loop
      vertex -1.69679 13.8986 -2.49999
      vertex -1.69679 13.8986 -2.49899
      vertex 0 14.4499 -2.49999
    endloop
  endfacet
  facet normal 0.270848 0.833617 0.481378
    outer loop
      vertex 1.69679 13.8986 -2.49899
      vertex 0 14.4499 -2.49899
      vertex 0 11.5632 2.5
    endloop
  endfacet
  facet normal -0.309007 0.95106 0
    outer loop
      vertex 0 14.4499 -2.49999
      vertex -1.69679 13.8986 -2.49899
      vertex 0 14.4499 -2.49899
    endloop
  endfacet
  facet normal 0 0 -1
    outer loop
      vertex 0 -5.79068 -2.49999
      vertex -1.69679 -5.23936 -2.49999
      vertex 1.69679 -5.23936 -2.49999
    endloop
  endfacet
  facet normal -1 0 0
    outer loop
      vertex -8.52705 0.892055 -2.49999
      vertex -8.52705 -0.892055 -2.49899
      vertex -8.52705 0.892055 -2.49899
    endloop
  endfacet
  facet normal -1 0 0
    outer loop
      vertex -8.52705 -0.892055 -2.49999
      vertex -8.52705 -0.892055 -2.49899
      vertex -8.52705 0.892055 -2.49999
    endloop
  endfacet
  facet normal 0.448838 -0.893613 0
    outer loop
      vertex 7.47837 -2.33543 -2.49999
      vertex 7.47837 -2.33543 -2.49899
      vertex 1.69679 -5.23936 -2.49999
    endloop
  endfacet
  facet normal -0 0 -1
    outer loop
      vertex 8.52705 0.892055 -2.49999
      vertex -1.69679 -5.23936 -2.49999
      vertex 2.74546 12.4552 -2.49999
    endloop
  endfacet
  facet normal 0.389969 -0.776409 0.495089
    outer loop
      vertex 1.69679 -5.23936 -2.49899
      vertex 7.47837 -2.33543 -2.49899
      vertex 0 -2.90393 2.5
    endloop
  endfacet
  facet normal 0.270856 -0.833611 0.481383
    outer loop
      vertex 0 -2.90393 2.5
      vertex 0 -5.79068 -2.49899
      vertex 1.69679 -5.23936 -2.49899
    endloop
  endfacet
  facet normal -0.809023 0.587777 0
    outer loop
      vertex -2.74546 12.4552 -2.49899
      vertex -1.69679 13.8986 -2.49899
      vertex -2.74546 12.4552 -2.49999
    endloop
  endfacet
  facet normal -0.709118 0.515194 0.481379
    outer loop
      vertex 0 11.5632 2.5
      vertex -1.69679 13.8986 -2.49899
      vertex -2.74546 12.4552 -2.49899
    endloop
  endfacet
  facet normal -0.809015 -0.587788 0
    outer loop
      vertex -8.52705 -0.892055 -2.49999
      vertex -7.47837 -2.33543 -2.49999
      vertex -8.52705 -0.892055 -2.49899
    endloop
  endfacet
  facet normal 0.448838 -0.893613 0
    outer loop
      vertex 1.69679 -5.23936 -2.49999
      vertex 7.47837 -2.33543 -2.49899
      vertex 1.69679 -5.23936 -2.49899
    endloop
  endfacet
  facet normal -0.389969 -0.776409 0.495088
    outer loop
      vertex -7.47837 -2.33543 -2.49899
      vertex -1.69679 -5.23936 -2.49899
      vertex -5.78159 0 2.5
    endloop
  endfacet
  facet normal -0 0 -1
    outer loop
      vertex 8.52705 -0.892055 -2.49999
      vertex -1.69679 -5.23936 -2.49999
      vertex 8.52705 0.892055 -2.49999
    endloop
  endfacet
  facet normal 1 0 0
    outer loop
      vertex 8.52705 0.892055 -2.49999
      vertex 8.52705 -0.892055 -2.49899
      vertex 8.52705 -0.892055 -2.49999
    endloop
  endfacet
  facet normal 0.809015 -0.587788 0
    outer loop
      vertex 8.52705 -0.892055 -2.49999
      vertex 7.47837 -2.33543 -2.49899
      vertex 7.47837 -2.33543 -2.49999
    endloop
  endfacet
  facet normal 0 -0 -1
    outer loop
      vertex -2.74546 12.4552 -2.49999
      vertex -1.69679 -5.23936 -2.49999
      vertex -8.52705 0.892055 -2.49999
    endloop
  endfacet
  facet normal 0.389969 -0.77641 0.495088
    outer loop
      vertex 0 -2.90393 2.5
      vertex 7.47837 -2.33543 -2.49899
      vertex 5.78159 0 2.5
    endloop
  endfacet
  facet normal -0.709111 -0.515202 0.481382
    outer loop
      vertex -5.78159 0 2.5
      vertex -8.52705 -0.892055 -2.49899
      vertex -7.47837 -2.33543 -2.49899
    endloop
  endfacet
  facet normal -0.876511 0 0.481382
    outer loop
      vertex -8.52705 0.892055 -2.49899
      vertex -8.52705 -0.892055 -2.49899
      vertex -5.78159 0 2.5
    endloop
  endfacet
  facet normal 0 0 -1
    outer loop
      vertex 1.69679 -5.23936 -2.49999
      vertex -1.69679 -5.23936 -2.49999
      vertex 7.47837 -2.33543 -2.49999
    endloop
  endfacet
  facet normal -0 0 -1
    outer loop
      vertex 7.47837 -2.33543 -2.49999
      vertex -1.69679 -5.23936 -2.49999
      vertex 8.52705 -0.892055 -2.49999
    endloop
  endfacet
  facet normal 0.309017 -0.951057 0
    outer loop
      vertex 1.69679 -5.23936 -2.49999
      vertex 0 -5.79068 -2.49899
      vertex 0 -5.79068 -2.49999
    endloop
  endfacet
  facet normal -0.389969 -0.776409 0.495089
    outer loop
      vertex -5.78159 0 2.5
      vertex -1.69679 -5.23936 -2.49899
      vertex 0 -2.90393 2.5
    endloop
  endfacet
  facet normal 1 0 0
    outer loop
      vertex 8.52705 0.892055 -2.49899
      vertex 8.52705 -0.892055 -2.49899
      vertex 8.52705 0.892055 -2.49999
    endloop
  endfacet
  facet normal 0.876511 0 0.481382
    outer loop
      vertex 5.78159 0 2.5
      vertex 8.52705 -0.892055 -2.49899
      vertex 8.52705 0.892055 -2.49899
    endloop
  endfacet
  facet normal 0 0 -1
    outer loop
      vertex -8.52705 -0.892055 -2.49999
      vertex -1.69679 -5.23936 -2.49999
      vertex -7.47837 -2.33543 -2.49999
    endloop
  endfacet
  facet normal 0 0 -1
    outer loop
      vertex -8.52705 0.892055 -2.49999
      vertex -1.69679 -5.23936 -2.49999
      vertex -8.52705 -0.892055 -2.49999
    endloop
  endfacet
  facet normal 0.809015 -0.587788 0
    outer loop
      vertex 8.52705 -0.892055 -2.49899
      vertex 7.47837 -2.33543 -2.49899
      vertex 8.52705 -0.892055 -2.49999
    endloop
  endfacet
  facet normal 0.709111 -0.515202 0.481382
    outer loop
      vertex 5.78159 0 2.5
      vertex 7.47837 -2.33543 -2.49899
      vertex 8.52705 -0.892055 -2.49899
    endloop
  endfacet
  facet normal -0 0 -1
    outer loop
      vertex 1.69679 13.8986 -2.49999
      vertex -1.69679 -5.23936 -2.49999
      vertex 0 14.4499 -2.49999
    endloop
  endfacet
  facet normal -0 0 -1
    outer loop
      vertex 2.74546 12.4552 -2.49999
      vertex -1.69679 -5.23936 -2.49999
      vertex 1.69679 13.8986 -2.49999
    endloop
  endfacet
  facet normal -0.309017 -0.951057 0
    outer loop
      vertex -1.69679 -5.23936 -2.49999
      vertex 0 -5.79068 -2.49899
      vertex -1.69679 -5.23936 -2.49899
    endloop
  endfacet
  facet normal -0.309017 -0.951057 0
    outer loop
      vertex 0 -5.79068 -2.49999
      vertex 0 -5.79068 -2.49899
      vertex -1.69679 -5.23936 -2.49999
    endloop
  endfacet
endsolid OpenSCAD_Model
