solid OpenSCAD_Model
  facet normal -0.876511 0 0.481382
    outer loop
      vertex -8.83225 -0.24529 -2.49899
      vertex -8.83225 -2.0294 -2.49899
      vertex -6.08679 -1.13734 2.5
    endloop
  endfacet
  facet normal 0.709112 -0.5152 0.481383
    outer loop
      vertex 7.78358 -3.47277 -2.49899
      vertex 8.83225 -2.0294 -2.49899
      vertex 6.08679 -1.13734 2.5
    endloop
  endfacet
  facet normal -0.709112 -0.5152 0.481383
    outer loop
      vertex -8.83225 -2.0294 -2.49899
      vertex -7.78358 -3.47277 -2.49899
      vertex -6.08679 -1.13734 2.5
    endloop
  endfacet
  facet normal -0.709116 0.515193 0.481384
    outer loop
      vertex 0 9.13734 2.5
      vertex -1.69679 11.4728 -2.49899
      vertex -2.74546 10.0294 -2.49899
    endloop
  endfacet
  facet normal 0 0 -1
    outer loop
      vertex 8.83225 -2.0294 -2.49999
      vertex 2.74546 10.0294 -2.49999
      vertex 8.83225 -0.24529 -2.49999
    endloop
  endfacet
  facet normal 0 -0.865982 0.500076
    outer loop
      vertex -6.08679 -1.13734 2.5
      vertex 6.08679 -4.02409 -2.49899
      vertex 6.08679 -1.13734 2.5
    endloop
  endfacet
  facet normal 0.749561 0.444045 0.490899
    outer loop
      vertex 8.83225 -0.24529 -2.49899
      vertex 2.74546 10.0294 -2.49899
      vertex 6.08679 -1.13734 2.5
    endloop
  endfacet
  facet normal 0 0 1
    outer loop
      vertex -6.08679 -1.13734 2.5
      vertex 6.08679 -1.13734 2.5
      vertex 0 9.13734 2.5
    endloop
  endfacet
  facet normal 0.749561 0.444045 0.4909
    outer loop
      vertex 6.08679 -1.13734 2.5
      vertex 2.74546 10.0294 -2.49899
      vertex 0 9.13734 2.5
    endloop
  endfacet
  facet normal -0.270847 0.833613 0.481385
    outer loop
      vertex 0 12.0241 -2.49899
      vertex -1.69679 11.4728 -2.49899
      vertex 0 9.13734 2.5
    endloop
  endfacet
  facet normal -0.749561 0.444045 0.490899
    outer loop
      vertex 0 9.13734 2.5
      vertex -8.83225 -0.24529 -2.49899
      vertex -6.08679 -1.13734 2.5
    endloop
  endfacet
  facet normal -0.749561 0.444045 0.4909
    outer loop
      vertex -2.74546 10.0294 -2.49899
      vertex -8.83225 -0.24529 -2.49899
      vertex 0 9.13734 2.5
    endloop
  endfacet
  facet normal 0.270856 -0.833611 0.481383
    outer loop
      vertex 6.08679 -1.13734 2.5
      vertex 6.08679 -4.02409 -2.49899
      vertex 7.78358 -3.47277 -2.49899
    endloop
  endfacet
  facet normal 0 -0.865982 0.500076
    outer loop
      vertex -6.08679 -4.02409 -2.49899
      vertex 6.08679 -4.02409 -2.49899
      vertex -6.08679 -1.13734 2.5
    endloop
  endfacet
  facet normal 0.709116 0.515193 0.481384
    outer loop
      vertex 0 9.13734 2.5
      vertex 2.74546 10.0294 -2.49899
      vertex 1.69679 11.4728 -2.49899
    endloop
  endfacet
  facet normal -0.860362 0.509684 0
    outer loop
      vertex -2.74546 10.0294 -2.49999
      vertex -8.83225 -0.24529 -2.49999
      vertex -2.74546 10.0294 -2.49899
    endloop
  endfacet
  facet normal 0.309007 0.95106 -0
    outer loop
      vertex 1.69679 11.4728 -2.49999
      vertex 0 12.0241 -2.49999
      vertex 1.69679 11.4728 -2.49899
    endloop
  endfacet
  facet normal 0.309007 0.95106 0
    outer loop
      vertex 1.69679 11.4728 -2.49899
      vertex 0 12.0241 -2.49999
      vertex 0 12.0241 -2.49899
    endloop
  endfacet
  facet normal -0.309017 -0.951057 0
    outer loop
      vertex -7.78358 -3.47277 -2.49899
      vertex -6.08679 -4.02409 -2.49999
      vertex -6.08679 -4.02409 -2.49899
    endloop
  endfacet
  facet normal 0.860362 0.509684 0
    outer loop
      vertex 8.83225 -0.24529 -2.49899
      vertex 2.74546 10.0294 -2.49999
      vertex 2.74546 10.0294 -2.49899
    endloop
  endfacet
  facet normal -0.860362 0.509684 0
    outer loop
      vertex -2.74546 10.0294 -2.49899
      vertex -8.83225 -0.24529 -2.49999
      vertex -8.83225 -0.24529 -2.49899
    endloop
  endfacet
  facet normal -0.809017 -0.587785 -0
    outer loop
      vertex -8.83225 -2.0294 -2.49899
      vertex -8.83225 -2.0294 -2.49999
      vertex -7.78358 -3.47277 -2.49899
    endloop
  endfacet
  facet normal -0.309017 -0.951057 0
    outer loop
      vertex -7.78358 -3.47277 -2.49999
      vertex -6.08679 -4.02409 -2.49999
      vertex -7.78358 -3.47277 -2.49899
    endloop
  endfacet
  facet normal -0.270856 -0.833611 0.481383
    outer loop
      vertex -6.08679 -1.13734 2.5
      vertex -7.78358 -3.47277 -2.49899
      vertex -6.08679 -4.02409 -2.49899
    endloop
  endfacet
  facet normal 0 0 -1
    outer loop
      vertex -8.83225 -2.0294 -2.49999
      vertex 2.74546 10.0294 -2.49999
      vertex -7.78358 -3.47277 -2.49999
    endloop
  endfacet
  facet normal 0.809023 0.587777 0
    outer loop
      vertex 1.69679 11.4728 -2.49899
      vertex 2.74546 10.0294 -2.49999
      vertex 1.69679 11.4728 -2.49999
    endloop
  endfacet
  facet normal 0 -0 -1
    outer loop
      vertex -2.74546 10.0294 -2.49999
      vertex 2.74546 10.0294 -2.49999
      vertex -8.83225 -0.24529 -2.49999
    endloop
  endfacet
  facet normal -1 -0 0
    outer loop
      vertex -8.83225 -0.24529 -2.49899
      vertex -8.83225 -2.0294 -2.49999
      vertex -8.83225 -2.0294 -2.49899
    endloop
  endfacet
  facet normal -1 0 0
    outer loop
      vertex -8.83225 -0.24529 -2.49999
      vertex -8.83225 -2.0294 -2.49999
      vertex -8.83225 -0.24529 -2.49899
    endloop
  endfacet
  facet normal 0.270847 0.833613 0.481385
    outer loop
      vertex 0 9.13734 2.5
      vertex 1.69679 11.4728 -2.49899
      vertex 0 12.0241 -2.49899
    endloop
  endfacet
  facet normal 0.809017 -0.587785 0
    outer loop
      vertex 7.78358 -3.47277 -2.49999
      vertex 8.83225 -2.0294 -2.49899
      vertex 7.78358 -3.47277 -2.49899
    endloop
  endfacet
  facet normal -0.809017 -0.587785 -0
    outer loop
      vertex -7.78358 -3.47277 -2.49899
      vertex -8.83225 -2.0294 -2.49999
      vertex -7.78358 -3.47277 -2.49999
    endloop
  endfacet
  facet normal -0.809023 0.587777 0
    outer loop
      vertex -2.74546 10.0294 -2.49899
      vertex -1.69679 11.4728 -2.49999
      vertex -2.74546 10.0294 -2.49999
    endloop
  endfacet
  facet normal -0.309007 0.95106 0
    outer loop
      vertex 0 12.0241 -2.49899
      vertex -1.69679 11.4728 -2.49999
      vertex -1.69679 11.4728 -2.49899
    endloop
  endfacet
  facet normal -0.809023 0.587777 0
    outer loop
      vertex -1.69679 11.4728 -2.49899
      vertex -1.69679 11.4728 -2.49999
      vertex -2.74546 10.0294 -2.49899
    endloop
  endfacet
  facet normal -0.309007 0.95106 0
    outer loop
      vertex 0 12.0241 -2.49999
      vertex -1.69679 11.4728 -2.49999
      vertex 0 12.0241 -2.49899
    endloop
  endfacet
  facet normal 1 0 0
    outer loop
      vertex 8.83225 -0.24529 -2.49899
      vertex 8.83225 -2.0294 -2.49899
      vertex 8.83225 -0.24529 -2.49999
    endloop
  endfacet
  facet normal 0.309017 -0.951057 0
    outer loop
      vertex 7.78358 -3.47277 -2.49999
      vertex 6.08679 -4.02409 -2.49899
      vertex 6.08679 -4.02409 -2.49999
    endloop
  endfacet
  facet normal -0 -0 -1
    outer loop
      vertex 1.69679 11.4728 -2.49999
      vertex 2.74546 10.0294 -2.49999
      vertex 0 12.0241 -2.49999
    endloop
  endfacet
  facet normal 0 -0 -1
    outer loop
      vertex 0 12.0241 -2.49999
      vertex 2.74546 10.0294 -2.49999
      vertex -1.69679 11.4728 -2.49999
    endloop
  endfacet
  facet normal 0 0 -1
    outer loop
      vertex -6.08679 -4.02409 -2.49999
      vertex 2.74546 10.0294 -2.49999
      vertex 6.08679 -4.02409 -2.49999
    endloop
  endfacet
  facet normal 0 0 -1
    outer loop
      vertex -7.78358 -3.47277 -2.49999
      vertex 2.74546 10.0294 -2.49999
      vertex -6.08679 -4.02409 -2.49999
    endloop
  endfacet
  facet normal 0 -0 -1
    outer loop
      vertex -1.69679 11.4728 -2.49999
      vertex 2.74546 10.0294 -2.49999
      vertex -2.74546 10.0294 -2.49999
    endloop
  endfacet
  facet normal 0 0 -1
    outer loop
      vertex -8.83225 -0.24529 -2.49999
      vertex 2.74546 10.0294 -2.49999
      vertex -8.83225 -2.0294 -2.49999
    endloop
  endfacet
  facet normal 0.809023 0.587777 0
    outer loop
      vertex 2.74546 10.0294 -2.49899
      vertex 2.74546 10.0294 -2.49999
      vertex 1.69679 11.4728 -2.49899
    endloop
  endfacet
  facet normal 0.860362 0.509684 -0
    outer loop
      vertex 8.83225 -0.24529 -2.49999
      vertex 2.74546 10.0294 -2.49999
      vertex 8.83225 -0.24529 -2.49899
    endloop
  endfacet
  facet normal 0.876511 0 0.481382
    outer loop
      vertex 6.08679 -1.13734 2.5
      vertex 8.83225 -2.0294 -2.49899
      vertex 8.83225 -0.24529 -2.49899
    endloop
  endfacet
  facet normal 0.309017 -0.951057 0
    outer loop
      vertex 7.78358 -3.47277 -2.49899
      vertex 6.08679 -4.02409 -2.49899
      vertex 7.78358 -3.47277 -2.49999
    endloop
  endfacet
  facet normal 0.809017 -0.587785 0
    outer loop
      vertex 8.83225 -2.0294 -2.49999
      vertex 8.83225 -2.0294 -2.49899
      vertex 7.78358 -3.47277 -2.49999
    endloop
  endfacet
  facet normal 1 0 0
    outer loop
      vertex 8.83225 -0.24529 -2.49999
      vertex 8.83225 -2.0294 -2.49899
      vertex 8.83225 -2.0294 -2.49999
    endloop
  endfacet
  facet normal 0 -1 0
    outer loop
      vertex -6.08679 -4.02409 -2.49999
      vertex 6.08679 -4.02409 -2.49899
      vertex -6.08679 -4.02409 -2.49899
    endloop
  endfacet
  facet normal 0 -1 0
    outer loop
      vertex 6.08679 -4.02409 -2.49999
      vertex 6.08679 -4.02409 -2.49899
      vertex -6.08679 -4.02409 -2.49999
    endloop
  endfacet
  facet normal 0 0 -1
    outer loop
      vertex 7.78358 -3.47277 -2.49999
      vertex 2.74546 10.0294 -2.49999
      vertex 8.83225 -2.0294 -2.49999
    endloop
  endfacet
  facet normal 0 0 -1
    outer loop
      vertex 6.08679 -4.02409 -2.49999
      vertex 2.74546 10.0294 -2.49999
      vertex 7.78358 -3.47277 -2.49999
    endloop
  endfacet
endsolid OpenSCAD_Model
