<?xml version="1.0" encoding="UTF-8"?>
<svg xmlns="http://www.w3.org/2000/svg" viewBox="0 0 191.07 117.29">
  <g id="a" data-name="Layer 1"/>
  <g id="b" data-name="Layer 2">
    <g id="c" data-name="Layer 1">
      <g>
        <path d="M57.89,49.22c1.02,.85,2.1,1.64,3.06,2.56,1.61,1.53,1.03,3.08-.35,4.3-1.47,1.29-2.3,.42-2.88-1.13-.38-1.02-1.36-1.43-2.39-1.57-1.61-.22-9.33,4.36-10.1,5.91-1.59,3.22-3.66,5.91-7.77,4.77-1.55-.43-2.16,.2-2.84,1.15-.58,.81-1.07,1.68-1.58,2.55-2.92,4.99-2.68,5.69,2.62,8.05,1.29,.57,2.99,.28,3.65,2.14,1,2.82,2.22,5.56,3.3,8.35,.07,.18-.22,.5-.34,.75-.22-.24-.5-.45-.65-.73-1.05-1.91-3.31-2.6-4.32-4.7-1-2.07-2.82-3.72-4.7-5.12-3.05-2.28-6.34-1.14-6.48,2.58-.22,5.91-.87,11.98,2.44,17.48,.48,.8,.73,1.73,1.59,.81,2.19-2.34,3.98-.67,4.84,.9,2.38,4.37,6.88,5.17,10.79,6.29,2.61,.75,5.16,1.54,7.72,2.5,6.25,2.34,12.51,2.65,18.92,.07,2.83-1.14,6.06-1.41,9.14-1.76,5.44-.62,10.21-2.94,14.7-5.78,2.83-1.79,6.31-3.33,6.18-7.69-.02-.52,.68-1.13,1.15-1.59,.89-.87,1.58-2.84,2.69-2.35,.84,.37-.66,1.92-.96,2.99-1.9,6.76-7.6,9.87-12.99,13.05-3.84,2.27-8.14,3.77-12.46,5.08-.56,.17-1.4,.05-1.36,.95,0,.13,.89,.31,1.36,.31,1.66,0,3.36,.12,4.99-.17,24.66-4.35,49.64-5.39,74.53-7.18,6.95-.5,13.93,.68,20.8,2.04,.46,.09,.88,.41,1.32,.63-.44,.71-1.1,.38-1.66,.28-16.35-2.73-32.58-.86-48.64,1.94-20.17,3.52-40.35,6.83-60.68,9.29-2.95,.36-5.6,.05-8.21-1.28-1.09-.56-2.25-1-1.61-2.53,1.05-2.52-1.1-2.49-2.33-2.66-8.85-1.22-17.16-3.78-24.31-9.37-.69-.54-1.49-.92-2.3-.47-3.73,2.04-5.38-.8-7.27-3.06-3.26-3.88-4.92-8.67-7.4-13-2.98-5.22-4.17-5.68-9.56-3.51-.46,.19-.9,.45-1.36,.64-1.12,.47-2.32,.88-2.93-.64-.52-1.3,.29-2.22,1.26-2.97,.26-.2,.61-.27,.89-.44,1.07-.66,3.59-.16,3.26-1.23-.54-1.75-2.76-1.01-4.37-.89-1.51,.12-3.73,1.65-4.24-.67-.46-2.1,2.04-2.91,3.67-3.39,2.75-.8,5.55-.48,8.08,1.13,.38,.24,1.11,.52,1.31,.35,.7-.61,.01-1.16-.34-1.65-.29-.4-.73-.69-1.04-1.08-.86-1.09-3.05-1.98-1.78-3.56,1.35-1.67,3.06-.01,4.39,.77,1.99,1.16,2.92,3.16,3.41,5.32,.78,3.44,2.37,6.56,3.7,9.79,.22,.54,.59,1.33,1.39,.92,.28-.14,.39-.86,.38-1.31-.09-4.24,.91-7.83,4.96-10.16,.98-.57,1.45-2.19,1.95-3.41,2.34-5.67,6.62-9.53,11.73-12.55,2.02-1.2,4.13-2.16,4.73-4.72,.04-.15,.15-.33,.28-.41,5.29-2.86,5.9-8.86,8.91-13.25,.81-1.18,1.18-2.38,.75-3.75-.35-1.12-.83-2.28-.47-3.41,1.14-3.49,0-4.92-3.71-5.14-2.82-.17-4.41-2.9-5-5.06-1.62-5.9-1.69-11.92,2.26-17.18,3.05-4.07,6.26-3.76,8.94,.66,1.39,2.3,2.49,4.71,3.2,7.3,.32,1.14,.59,2.32,1.67,2.96,.54,.32,1.29,.6,1.85,.48,.74-.16,.69-1.01,.64-1.65-.1-1.33-.18-2.67-.41-3.97-.27-1.51-.22-2.97,.12-4.45,1.06-4.57,3.66-5.94,7.64-3.38,5.18,3.32,8.95,8,10.43,14.1,1.13,4.66-.7,7.99-5.47,9.03-3.73,.81-3.57,2.09-2.81,5.3,.94,3.99,2.47,7.47,4.52,10.94,1.35,2.29,4.05,4.99-.24,7.57-1.21,.73,.17,2.3,1.31,2.48,6.56,1.08,11.43,5.05,16.37,9.04,3.26,2.64,6.47,5.24,8.59,8.94,.41,.72,.89,1.71,1.7,1.68,1.23-.05,1.23-1.43,1.56-2.29,.92-2.39,.86-4.89,.52-7.39-.47-3.4,.06-6.69,1.62-9.69,.86-1.65,2-3.98,4.4-1.19,1.3,1.52,3.16,.2,4.74,.53,1.17,.24,2.47,.36,2.79,1.68,.39,1.62-.81,2.42-2.1,2.95-1.23,.5-2.51,.89-3.77,1.34-.61,.22-1.44,.4-1.32,1.21,.13,.87,.99,.61,1.6,.59,2.27-.07,4.33,.33,5.63,2.46,.44,.72,.86,1.56,.42,2.35-.5,.91-1.38,.5-2.2,.36-5.53-1-5.65-1.01-6.81,4.56-1.02,4.88-2.41,9.68-2.78,14.7-.26,3.5-2.19,4.17-5.11,2.15-.56-.39-1.16-.83-.98-1.58,.19-.78,.97-.88,1.6-.76,3.28,.62,2.31-1.98,2.62-3.5,.33-1.64,.77-3.49-2.18-2.09-.76,.36-.94-1.09-1.12-1.86-.59-2.54-2.57-3.62-4.79-3.47-2.36,.16-3.6,2.01-4.23,4.33-1.25,4.61-2.68,9.17-4.04,13.75-.19,.66-.51,1.38-1.25,1.33-.66-.05-1.21-.66-1.25-1.36-.15-2.62-.42-4.89,1.35-7.6,2.28-3.5,3.38-7.88,5.42-11.68,.84-1.57,3.11-3.11,2.89-4.34-.4-2.31-3.22-3.09-5.08-4.45-2.75-2-5.94-3.22-7.97-6.44-1.19-1.89-4.21-2.66-6.78-2.65-1.84,0-2.95-.21-3.16-2.44-.08-.79-1.1-2.2-2.47-2.11-1.65,.11-1.21,1.72-1.63,2.7-.39,.91-.64,1.92-1.18,2.74-.87,1.3-2.25,1.49-3.54,.8-1.54-.82-.55-2.03-.14-3.03,1.75-4.25,4.6-6.26,9.36-5.8,2.45,.24,2.17-.45,1.37-1.93-1.11-2.05-2.27-4.07-3.45-6.08-1-1.71-2.08-1.38-3.05,0-.95,1.36-1.8,2.8-2.7,4.2-2.68,4.13-2.94,4.18-5.33,.06-1.08-1.87-2.51-2.92-4.6-3.44-1.65-.41-2.48,.06-3.13,1.5-1.52,3.39-2.95,6.74,.55,9.84-1.8,.09-3.64,0-5.4,.34-1.56,.29-4.16,1.09-3.66,2.47,.65,1.81,2.43-.22,3.56-.71,1.79-.77,4.6,.88,5.43-2.18ZM79.14,14.87c-.55,.96-.83,2.2-2.46,1.72-2.37-.7-3.47-.06-3.66,2.72-.1,1.55-1.57,2.93-3.64,1.52-.93-.64-2.13-1.5-2.35,.67-.28-.4-.61-.77-.84-1.19-1.41-2.59-2.66-2.57-3.92,.14-1.08,2.33-3.25,4.12-3.38,6.92l.08-.1c-1.8,6.36-1.36,7.23,4.79,8.99,.9,.26,1.43,.74,1.81,1.5,.88,1.75,2.93,1.38,3.13,.43,.62-2.94,5.58-3.19,4.14-7.08-.13-.36-.77-.59-1.22-.78-3.1-1.34-3.67-3.99-3.65-6.96,.67,.43,1.61,1.5,2.05,1.03,1.87-2.01,4.23-1.02,6.35-1.41,1.64-.3,3.1-1,4.23-2.28,2.28-2.57,1.93-5.51-.9-7.53-.13-4.37-3.17-6.68-6.38-8.79-1.34-.88-2.95-2.24-4.49-1.19-1.54,1.05-1.79,3.07-1.62,4.96,.06,.65,.18,1.31,.36,1.93,.46,1.59,.36,3.81,2.92,1.14,2.41-2.52,3-2.27,4.24,1.05,.85,2.29,2.05,3.27,4.44,2.59ZM53.36,2.91c-.29,.26-.64,.59-1,.91-4.92,4.4-4.31,10.02-3.1,15.54,.9,4.13,6,5.61,9.03,2.93,.63-.55,1.32-1.25,1.01-2.11-.38-1.05-1.34-.72-2.09-.41-1.78,.74-2.66-1.01-3.11-1.75-.77-1.26,1.45-.87,1.73-1.63,.58-1.57,2.31-3.13,.33-4.94-.73-.66-1.3-1.5-1.91-2.28-.29-.38-.65-.89-.21-1.29,.43-.39,.83,.14,1.25,.31,.91,.38,1.45,2.49,2.62,1.08,.79-.95-.59-2.03-1.34-2.87-.77-.86-1.69-1.59-2.07-2.75-.16-.49-.42-.86-1.13-.76Zm25.45,111.17c2.1-.3,3.59-.38,5.01-.75,1.91-.5,4.21,.5,5.73-1.47-1.83-.55-3.45,.68-5.25,.63-1.62-.04-3.27,.18-4.88,.45-.65,.11-1.58-.02-1.86,.94,.63,.1,1.25,.2,1.24,.2Z"/>
        <path d="M37.57,35.93c-2.48,.16-4.96,.23-7.38,.95-.6,.18-1.29,.45-1.84-.19,.41-.26,.79-.61,1.24-.76,5.11-1.67,10.35-2.18,15.7-1.6,.82,.09,1.81,.09,1.96,1.1,.13,.84-.46,1.61-1.09,2.13-2.6,2.13-5.99,2.73-8.81,4.48-.17,.11-.56-.13-.85-.21,.24-.41,.39-1.01,.75-1.21,1.6-.86,3.28-1.58,4.9-2.4,.68-.34,1.81-.62,1.54-1.55-.23-.82-1.37-.85-2.17-.88-1.32-.05-2.64,.09-3.96,.15Z"/>
        <path d="M26.14,23.25c7.1,.56,14.91,1.89,22.34,4.97,1.22,.5,2.37,1.19,3.49,1.87,.48,.29,1.29,.64,.71,1.42-.09,.13-.91-.14-1.29-.38-4.89-3.06-10.43-4.19-15.95-5.31-6.02-1.22-12.05-2.43-18.22-.88-.53,.13-1.21,.41-1.69-.25,.46-.17,.91-.34,1.37-.52,2.71-1.07,5.55-.79,9.24-.94Z"/>
        <path d="M160.63,115.63c.74-.08,1.39-.17,2.04-.22,7.57-.7,15.15-1.38,22.72-2.09,.99-.09,1.96-.35,2.94-.43,.96-.08,2.16-1.73,2.71-.26,.29,.76-1.59,1.4-2.67,1.77-4.78,1.65-9.84,.91-14.75,1.63-3.73,.55-7.6,.15-11.41,.14-.5,0-1.15,.28-1.58-.53Z"/>
        <path d="M86.67,31.75c-.72,.1-1.4,.25-1.54-.28-.15-.54,.48-.79,.98-.89,5.7-1.06,11.4-2.13,17.12-3.12,.66-.11,1.55-.53,2.08,.4-.57,.3-1.12,.72-1.73,.87-5.65,1.37-11.52,1.48-16.9,3.02Z"/>
        <path d="M92.6,36.06c-.73-.04-1.4-.01-2.04-.13-.24-.04-.57-.39-.58-.61-.01-.23,.28-.62,.51-.68,.63-.17,1.3-.28,1.95-.29,2.93-.05,5.87-1.27,8.79,.04-2.68,1.71-5.84,.83-8.63,1.66Z"/>
        <path d="M46.54,88.48c-.12,.28-.24,.56-.36,.85-.27-.16-.6-.27-.81-.5-.76-.84-2.56-7.65-2.14-7.98,.09-.07,.22-.14,.33-.14,.48,.03,3.06,6.76,2.99,7.77Z"/>
        <path d="M58.88,27.36c1.02-.65,1.62-2.33,3.25-1.47,.78,.41,.97,1.32,.8,2.15-.29,1.41-1.15,2.52-2.67,2.3-1.83-.26-1.57-1.75-1.3-3.09l-.08,.1Z"/>
      </g>
    </g>
  </g>
</svg>