<?xml version="1.0" encoding="UTF-8"?>
<svg xmlns="http://www.w3.org/2000/svg" viewBox="0 0 113.53 134.91">
  <g id="a" data-name="Layer 1"/>
  <g id="b" data-name="Layer 2">
    <g id="c" data-name="Layer 1">
      <g>
        <path d="M102.3,113.7c-.57,1.82-3.66,2.66-3.04,4.13,.59,1.38,3.26,.02,5.03,.41,2.6,.57,5.26,.83,7.76,1.82,.72,.28,1.73,.51,1.44,1.63-.25,.97-1.18,1.21-2,1.12-1.48-.16-2.93-.55-4.41-.77-1.72-.25-1.75,.35-.66,1.44,.46,.47,1.04,1.07,.56,1.67-.52,.66-1.22,.07-1.77-.22-6.65-3.52-13.75-3.11-20.95-2.74-7.84,.4-15.45,2.05-23.13,3.4-3.14,.55-4.72,2.87-6.81,4.69-.6,.52-1.17,1.38-2.08,.85-.77-.45,0-1.14,0-1.7-.02-1.37-.37-1.53-1.54-.49-1.86,1.66-3.58,3.47-5.38,5.2-.43,.41-.91,1.17-1.57,.54-.53-.5-.33-1.32,.02-1.86,.62-.97,1.41-1.82,2.1-2.75,.74-.99,2.86-1.66,2.17-2.77-.62-1.01-2.37,.47-3.67,.56-.33,.02-.66,.15-.99,.15-1.47-.01-3.84,1.62-4.05,.66-.44-2,2.19-2.33,3.59-3.22,1.69-1.08,3.74-1.33,5.7-1.69,.58-.11,1.5-.04,1.42-.92-.07-.76-.97-.74-1.57-.96-1.91-.71-3.56,.08-5.26,.81-12.24,5.24-25.01,7.76-38.34,7.35-.33-.01-.67,0-1-.02-1.5-.1-3.16-.05-3.76-1.8-.51-1.48,.6-2.46,1.46-3.49,3.56-4.25,8.35-6.53,13.49-8.09,4.77-1.45,9.46-3.2,14.39-4.08,1.89-.33,3.7-.73,3.09-3.4-.15-.64-.02-1.5,.64-1.74,1.06-.38,1.41,.63,1.74,1.33,1.69,3.6,4.27,6.31,7.82,8.09,.39,.2,1.11,.36,1.32,.17,.42-.39-.07-.84-.35-1.22-.59-.8-1.24-1.57-1.74-2.43-.21-.37-.32-1.1-.1-1.35,.41-.48,.79,.08,1.14,.37q6.61,5.39,12.72-.37c.57-.53,1.23-1.77,1.79-1.35,.85,.65-.37,1.35-.72,1.99-.8,1.46-1.8,2.76-3.07,3.89-2.83,2.5-2.74,2.57,.51,4.04,5.03,2.28,10.09,2.7,15.52,1.39,6.95-1.67,14.13-2.17,21.19-3.28,5.59-.87,8.29-3.59,8.8-8.97,.06-.65,.14-1.69,.78-1.67,.97,.03,.48,1,.43,1.58-.14,1.59,.37,2.93,1.39,4.12l-.07-.07Zm-82.96,10.06c6.12-.99,12.72-1.58,19.17-3.12,1.08-.26,2.92-.35,2.75-1.47-.22-1.45-2.01-1.37-3.36-1.27-.33,.02-.65,.12-.97,.19-6.14,1.34-12.3,2.61-18.41,4.09-1.32,.32-3.7,.09-3.63,1.63,.04,.87,2.59-.33,4.45-.06Zm1.85-7.07c-.9,.25-2.31,.6-3.7,1.06-.93,.31-1.99,.78-1.52,2.02,.44,1.19,1.59,.89,2.53,.71,1.28-.25,2.54-.57,3.8-.89,.93-.24,2.22-.42,2.11-1.58-.14-1.47-1.51-1.43-3.22-1.32Zm8.17-.08c-.03-.69-.34-1.42-1.29-1.5-.82-.07-1.71,.21-1.91,1.08-.25,1.07,.26,1.86,1.47,1.9,.87,.03,1.51-.37,1.73-1.48Z"/>
        <path d="M66.42,16.79c.48-.43,.9-1.09,1.46-1.25,2.99-.84,3.96-2.49,3.8-5.78-.36-7.2,6.45-11.63,13.25-9,8.17,3.15,12.04,16.49,6.94,23.61-1.88,2.63-4.65,2.27-7.24,2.44-4.77,.31-4.77,.23-2.94,4.76,.19,.46,.48,.9,.58,1.38,.58,2.97,1.94,3.77,4.92,2.48,4.74-2.05,9.9-2.85,14.88-4.18,.72-.19,1.85-.79,2.04,.28,.16,.91-1.11,1.02-1.91,1.17-5.26,1-10.17,3.12-15.28,4.63-.62,.18-1.91,.2-1.54,1.34,.2,.61,1.21,.29,1.85,.21,2.96-.38,5.85-1.4,8.89-1.08,.49,.05,.97,.14,1.46,.21-.28,.77-.99,.43-1.5,.54-2.61,.52-5.26,.91-7.85,1.5-1.03,.24-2.65,.32-2.39,1.94,.22,1.36,1.62,1.47,2.8,1.6,.17,.02,.33,.02,.5,.04,1.47,.2,2.94,.4,4.42,.59-1.22,1.11-2.67,.42-4.01,.49-1.79,.09-2.37,.91-1.95,2.58,.08,.32,.15,.65,.26,.96,5.42,14.43,8.4,29.43,10.56,44.63,.34,2.4,1.48,3,3.68,2.83,2.97-.23,5.76-.14,8.33,2.12,2.01,1.76,2.7,3.68,1.59,5.66-2.34,4.18-4.9,8.32-9.71,10.24l.07,.07c1.55-3.96,4.42-6.99,7.12-10.17,2.01-2.37,1.5-3.69-1.47-4.6-2.03-.62-4.19-.17-6.26-1.31-1.8-.99-2.46,.7-2.64,2.4-.1,.94,.74,2.58-1.43,2.39-1.93-.17-1.24-1.73-1.32-2.65-.82-9.79-2.47-19.44-4.3-29.07-1.53-8.05-4.42-15.68-6.99-23.42-.47-1.41-1.17-2.77-1.99-4.01-2.76-4.19-3.14-4.22-6.8-.64-1.7,1.66-2.85,1.98-4.03-.64-1.43-3.16-4.11-5.65-5.21-9.04-.15-.46-.46-1.07,.05-1.33,.47-.25,.81,.31,1.06,.71,1.19,2,2.35,4.02,3.57,6,.53,.86,1.23,1.7,2.36,1.55,1.34-.17,1.19-1.43,1.37-2.34,.75-3.68,1.32-7.35,2.71-10.93,.68-1.76,.99-2.48,2.82-2.22,.81,.11,1.67-.15,2.49-.06,5.92,.65,7.06-.21,7.61-5.87,.3-3.05-.36-5.96-1.44-8.79-1.1-2.88-3.38-4.55-6.15-5.44-2.98-.97-6.3-.99-8.39,1.42-1.94,2.24-.75,5.45-.51,8.22,.11,1.26,1.05,.85,1.75,.21,1.35-1.24,2.69-2.47,4.07-3.67,.37-.32,.94-.62,1.26-.09,.14,.23-.18,.9-.48,1.19-1.4,1.42-3.06,2.59-4.1,4.34-1,1.68-3.31,2.95-1.42,5.52,.56,.76,.04,2.04-1.17,2.31-1.4,.32-2.17-.45-2.44-1.81q-1.04-5.13-5.7-5.22l.08,.09Zm11.08,20.2c.23,.73-.42,2.01,.79,1.93,1.58-.09,2.87-1.09,2.5-2.88-.3-1.47,.04-4.3-1.53-4.02-1.74,.32-1.42,3.18-1.76,4.97Z"/>
        <path d="M66.34,16.7c-1.5,3.88-4.19,4.93-8.06,3.56-1.07-.38-2.3-.32-3.46-.37-2.23-.1-1.69-.04-.97-2.13,.79-2.29,.51-2.76,3-2.09,1.84,.5,.4-.91,.26-1.39-.17-.6-.8-1.19-.3-1.8,.61-.74,1.18-.13,1.66,.31,.48,.45,.95,1.23,1.61,.89,.61-.31,.5-1.2,.33-1.83-.55-2.09-.97-4.51-3.48-5-2.58-.5-5.04,.16-6.31,2.83-1.36,2.84-2.81,5.68-3.79,8.66-1.28,3.85,1.62,6.96,5.99,6.65,.97-.07,1.95-.41,2.86-.79,2.09-.9,4.77-.91,6.4-.54,2.2,.5,.03,3.58,.38,5.6,.41,2.37-.23,4.95-.55,7.42-.27,2.05-.61,3.93,1.97,4.9,1.55,.58,.77,1.45-.11,2.12-.26,.2-.57,.34-.85,.53-1.49,1.03-4.09,2.57-3.01,3.89,1.2,1.46,2.58-1.39,3.99-2.16,.62-.34,.94-1.6,1.93-.73,.08,.07-.53,1.2-1.02,1.55-4.79,3.48-6.27,8.45-7.32,14.05-2.59,13.81-8.86,26.44-13.6,39.57-.65,1.79-6.43,3.79-8,2.95-.7-.37-.32-.83,.02-1.19,.22-.23,.57-.54,.83-.51,5.34,.55,5.64-3.83,7.21-7.14,2.44-5.12,4.31-10.46,6.44-15.7,.37-.91,.77-1.91,.77-2.87,0-7.96,2.93-15.25,5.09-22.72,.14-.48,.24-.97,.33-1.46,.15-.79,.76-1.71,.02-2.35-.82-.7-1.42,.28-2.13,.6-1.12,.51-1.91,1.83-3.41,1.39,.38-1.24,1.59-1.63,2.44-2.4,.74-.67,1.48-1.34,2.23-2,1.06-.93,3.29-1.57,2.24-3.26-.87-1.41-2.79-.13-4.11,.29-2.21,.71-4.29,1.78-6.45,2.65-.72,.29-1.82,1.2-2.18,.41-.54-1.2,1.01-1.37,1.75-1.79,2.76-1.56,5.66-2.99,8.76-3.51,3.11-.53,4.15-2.35,4.46-5.07,.09-.83,.15-1.66,.26-2.48,.25-1.77,.46-3.54,.08-5.32-1.6,.38-3.15,.84-4.47,1.91-.68,.55-1.77,1-2.29,.47-2.49-2.56-6.68-2.18-8.84-5.26-.28-.4-.55-1.42-1.44-.68-.59,.5,.55,2.27-.99,1.82-.65-.19-.03-1.83-.02-2.81,.06-7.11,3.78-12.69,8.01-17.8,3.94-4.75,8.08-4.01,11.05,1.37,1.22,2.21,2.08,4.57,2.14,7.11,.05,2.1,1.38,1.86,2.73,1.75l-.08-.09Z"/>
        <path d="M88.68,70.27c-.15,2.11-.29,4.11-2.13,5.47-.45,.33-1.41,.52-.93,1.3,.15,.24,1.19-.04,1.82-.13,.79-.12,1.9-.5,2.09,.47,.17,.87-.96,1.2-1.76,1.44-.16,.05-.33,.07-.48,.13-4.51,1.88-4.84,2.79-1.51,6.16,4.44,4.49,5.91,9.89,5.63,15.97-.03,.67-.06,1.33-.14,1.99-.08,.64-.14,1.51-.96,1.5-.98,0-.58-.94-.65-1.51-.37-2.8-.78-5.6-1.06-8.41-.27-2.7-1.66-4.68-3.82-6.14-1.51-1.02-2.94-3.04-4.48,.41-1,2.24-3.31-.28-4.97,.23-1.59,.49-3.52,2.06-1.71-1.56,.99-1.98-.95-1.24-1.96-1.07-8.7,1.44-15-4.49-14.34-13.49,.06-.81,0-1.97,.85-2.13,1.22-.22,.9,1.09,1.1,1.78,.69,2.4,1.25,4.83,1.98,7.22,.6,1.97,1.84,3.54,3.5,4.75,.39,.28,1.03,.69,1.3,.55,.82-.41,.33-1.12,.02-1.63-2.37-3.96-1.81-8.37-1.96-12.67-.02-.6,.38-1.22,.59-1.83,.7,.34,.68,1.02,.75,1.64,.29,2.64,.47,5.3,.89,7.93,.65,4.08,1.46,4.7,5.41,5.1,4.24,.43,8.03,.44,9-5.11,.28-1.57,1.85-2.9,3.28-3.64,3.15-1.64,3.09-3.9,1.95-6.7-.88-2.15-1.59-4.37-2.4-6.56-.17-.47-.47-1,.02-1.35,.47-.33,.95,.06,1.23,.43,2.21,2.82,3.58,5.98,3.85,9.48Z"/>
        <path d="M83.35,15.94l.88,.23c-.16,.24-.27,.55-.49,.71-1.33,1.04-4.19,1.22-1.92,4.13,.49,.63-.82,.56-1.34,.41-1-.3-1.66-.97-2.08-1.97-.57-1.35-1.33-2.41,1.24-2.18,1.18,.11,2.46-.85,3.72-1.33Z"/>
        <path d="M67.49,24.92c-.1,.71-.45,1.84-1.92,1.67-1.19-.14-1.4-1.18-1.34-2.19,.06-1.07,.65-1.92,1.74-1.94,1.18-.02,1.59,.88,1.52,2.46Z"/>
      </g>
    </g>
  </g>
</svg>