<?xml version="1.0" encoding="UTF-8"?>
<svg xmlns="http://www.w3.org/2000/svg" viewBox="0 0 125.13 160.75">
  <g id="a" data-name="Layer 1"/>
  <g id="b" data-name="Layer 2">
    <g id="c" data-name="Layer 1">
      <path d="M124.97,153.52c-.4-.51-.83-.15-1.23,.11-2.95,1.89-2.13,.03-1.64-1.62,.23-.79,.32-1.63,.39-2.46,.05-.52-.2-1.01-.77-1.08-.2-.02-.54,.33-.64,.58-1.04,2.64-1.77,1.75-2.52-.17-.23-.58-.68-1.4-1.39-1.1-.81,.35-.17,1.15-.1,1.77,.51,4.54-.76,5.89-5.15,5.27-5.13-.73-9-4.2-13.41-6.46-1.72-.88-.8-2.32,.24-3.27,2.86-2.6,4-5.99,4.89-9.62,.79-3.22,2.04-6.34,3.07-9.51,1.2-3.69,.7,3.33,1.61,.26,.42-1.41,.3-2.97,.43-4.47,.11-1.33,.24-2.66,.34-3.98,.4-4.99,.77-9.97-.23-14.94-.3-1.5-.1-2.94,.35-4.42,2.65-8.74,2.04-17.39-.71-26.01-2.69-8.43-4.48-9.11-11.51-4.14-.65,.46-1.34,1.37-2.13,1-.79-.37-.64-1.48-.63-2.28,0-4.5-.08-8.99-.54-13.48-.33-3.17-1.7-5.37-4.85-6.2-1.66-.44-4.34-2.28-3.03,2.01,.39,1.27-.83,1.08-1.6,1.12-2.53,.11-4.97,.53-7.07,2.1-.38,.29-.74,.71-.41,1.21,.14,.22,.57,.39,.84,.36,.83-.07,1.64-.34,2.47-.37,1.33-.05,2.62,.06,1.15,1.84-.57,.69-1.98,1.22-1.17,2.31,.72,.97,1.82-.13,2.76-.18,4.57-.23,7.21,2.86,4.65,6.16-1.85,2.38-1.18,3.22-.07,5.12,1.65,2.83,.07,9.09-2.63,10.14-3.71,1.44-7.61,2.4-11.45,3.49-.62,.18-1.89-.32-3.19-.97-6.08-3.64-13.14-7.74-19.56-13.02-.81-.61-2.4-.94-3.41-1.86-.63-.57-.32-2.12-.78-2.51-8.45-7.94-13.7-15.91-15.78-24.57-2.2-8.9-1.97-16.15,2.28-22.33C39.71,7.22,52.35,1.78,63.5,3.44c7.08,1.07,13.81,5.74,18.15,13.57,3.44,6.76,7.35,15.77,3.91,23.03-1.54,3.1-5.06,6.89-8.89,7.4-3.36,.45-6.84-1.67-9.67-2.97-.78-.36-1.86-.83-2.42-1.44-.38-.09-.76-.29-.8,.1,.61,.68,1.65,1.02,2.39,1.56,4.06,3.06,9.19,4.2,14.03,2.38,5.4-2.02,8.52-6.77,8.7-12.7,.08-14.62-9.86-31.29-24.92-33.93-12.64-2.08-26.34,3.41-34.3,14.75-5.07,7.11-5.76,15.36-3.41,25.54,2.57,10.85,8.44,19.51,16.19,27.07,6,5.85,12.72,11.17,19.59,15.87-1.88,.83-4.88,2.04-5.89,2.7-.14,.09-.28,.19-.42,.26-6.94,3.68-7.66,3.51-11.81-2.76-.09-.14-.17-.29-.27-.42-2.63-3.69-6.05-4.18-9.29-1.05-2.01,1.94-3.79,4.08-5.35,6.51-5.31,8.3-6.51,8.2-12.06-.11-.37-.55-.67-1.15-1.06-1.69-2.2-3.03-7.09-4.21-10.27-2.44-.95,.53-1.77,1.5-.42,2.21,1.45,.76,1.72,.97,.11,1.83-1.3,.7-2.53,1.63-3.6,2.65-.74,.71-2.33,1.32-1.45,2.74,.74,1.19,1.75,.16,2.63-.15,.27-.09,.86-.05,.87,.02,.91,3.86,3.11,1.54,4.79,.93,3.95-1.43,5.33-1.11,7.41,2.44,1.44,2.45,3.14,4.7,4.73,7.03,1.59,2.33,2.95,2.91,4.99,.72,2.48-2.67,4.39-1.72,6.59,.65,3.96,4.27,8.19,8.29,12.35,12.36,3.61,3.53,6.43,7.62,8.6,12.15,.49,1.03,1.4,2.83,1.08,3.11-1.35,1.2-1.68-.86-2.62-1.27-.84-.37-1.54-.36-2.37-.07-6.1,2.14-9.13,11.85-5.07,16.95,1.17,1.47,1.05,2.34-.12,3.23-3.5,2.66-6.66,6.03-11.97,3.98-2.13-.82-4.39-1.32-6.46-2.44-3.39-1.84-6.99-3.15-10.86-3.52-.62-.06-1.59-.3-1.74,.36-.2,.87,.82,.87,1.41,.96,3.52,.51,6.67,2.09,9.89,3.43,1.21,.51,3.11,1.04,3.16,2.21,.15,3.72,2.55,3.2,4.83,3,5-.44,9.98,.01,14.96,.33,6.67,.42,13.33,.22,19.96-.49,12.43-1.33,24.91-2.04,37.39-1.55,5.75,.23,11.24-.94,16.84-1.53,1.41-.15,2.5-.87,3.23-2.1,.25-.42,.57-.89,.21-1.35ZM91.53,57.04c1.11-.04,.38,2.36,.55,3.67-.11,.97-.21,1.93-.36,2.89-.04,.28-.21,.54-.32,.8-.19-.24-.49-.46-.54-.73-.18-.94-.38-1.9-.38-2.86,0-1.41-.3-3.73,1.05-3.78Zm11.85,98.18c-.14,1.17-2.36,.63-3.6,.52-15.63-1.39-31.13,1.14-46.7,1.46-3.48,.07-6.96,.01-10.44,.02-.41,0-.98,.31-1.07-.38-.03-.21,.35-.55,.61-.71,3.07-1.88,6.72-2.56,9.58-5.06,.99-.87,3.29,.12,2.9,2.61-.18,1.15,.21,2.06,1.52,2,1.87-.08,3.03-1.34,3.78-2.88,.67-1.39-.64-1.37-1.46-1.89-2.82-1.76-5.93-2.15-9.12-2.55-5.16-.64-6.21-2.64-4.07-7.49,.6-1.36,1.19-2.86,2.21-3.87,1.06-1.04,1.59-3.76,3.94-2.27,2.21,1.39,3.43,5.91,2.38,7.59-.34,.54-.75,.7-1.18,.26-.46-.47-.73-1.11-1.17-1.59-.85-.93-1.65-3-2.76-2.25-1.06,.72,.8,2.08,1.23,3.21,.29,.76,1.2,1.54,.71,2.25-.62,.91-1.47-.04-2.2-.28-.62-.21-1.31-.65-1.72,.19-.32,.67,.1,1.32,.58,1.76,1.45,1.31,3.25,1.77,5.11,1.53,6.39-.82,8.4-3.79,6.91-10.2-1.36-5.81-3.59-11.35-5.4-17.01-1.05-3.3-2.52-5.22-5.74-5.97-3.39-1.33-5.37-4.23-7.61-6.85-3.26-3.16-7.98-4.3-10.95-7.89-.83-1-1.59-1.02-2.16,.38-.54,1.34-2.19,1.45-3.02,2.49-1.66,2.08-2.62,.36-3.37-.77-.81-1.22-.39-2.23,1.23-2.44,2.89-.37,3.88-2.95,5.42-4.81,2.55-3.07,4.75-6.43,7.33-9.47,2.76-3.26,5.2-2.93,7.47,.74,2.01,3.24,1.85,4.66-.77,6.78-.49,.4-1.33,.78-1,1.48,.36,.76,1.17,.25,1.77,.08,4.97-1.37,9.65-3.66,14.73-4.7,10.39-2.12,20.15-6.74,30.86-7.6,1.28-.1,2.61-.66,3.73-1.34,1.23-.74,3.69-1.02,3.45-2.35-.33-1.81-2.43-.81-3.76-.59-1.06,.17-1.66-.06-1.63-1.15,.03-1.26,.48-1.17,1.81-1.13,2.79,.09,4.55-2.51,6.52-4.11,5.9-4.81,5.64-4.92,8.06,2.69,1.49,4.69,2.02,9.42,1.72,14.27-.1,1.59,0,3.09-1.61,4.43-1.82,1.52-1.06,4.1-.73,6.11,2.53,15.64-.9,30.08-8.51,43.72-.81,1.45-1.73,2.84-2.65,4.22-1.05,1.57-4.6,3.89,1.17,3.03,1.16-.17,3.05,1.22,3.07,2.78,.02,1.41,.45,1.68,1.57,1.86,1.12,.19,3.2-.63,2.98,1.15Z"/>
    </g>
  </g>
</svg>