<?xml version="1.0" encoding="UTF-8"?>
<svg xmlns="http://www.w3.org/2000/svg" viewBox="0 0 159.06 125.58">
  <g id="a" data-name="Layer 1"/>
  <g id="b" data-name="Layer 2">
    <g id="c" data-name="Layer 1">
      <g>
        <path d="M29.77,24.5c.12,.27,.4,.63,.65,.66,.62,.08,.7-.46,.81-.93,.22-.92-.02-2.49,.9-2.54,.92-.06,.52,2.03,1.35,2.36,2.82,1.12,.34,3.59,1.43,5.07,.48-1.95,1.92-3.34,2.94-4.97,1.7-2.73,1.22-5.39-1.08-7.05-1.87-1.35-6.55-1.3-8,.14-.72,.71-1.26,1.6-.86,2.68,.58,1.54,1.21,3.07,1.87,4.59Z" style="fill: none;"/>
        <path d="M114.85,74.46c-11.34-8.16-22.98-15.87-34.83-23.28-6.09-3.81-12.83-6.88-16.84-13.42-1-1.63-2.06-4.9-3.46-4.36-1.97,.76,0,3.37,.12,5.19,.06,.81,.34,1.77-.66,2.17-.99,.4-1.5-.44-1.95-1.1-1.15-1.66-2.89-2.1-4.71-2.51-6.49-1.48-12.98-2.93-19.59-3.78-2.16-.28-5.21-2.46-4.8,2.49,.07,.83-1.16,1.55-2.12,1.94-.66,.27-1.36,.26-1.85-.25-.49-.5-.4-1.13-.16-1.83,.34-.99,2.7-1.08,1.43-2.54-.73-.84-2.19-.19-3.33,.1-2.43,.63-4.82,1.34-7.01,2.58-.99,.56-2.55,.83-2.68,2.03-.18,1.58,1.5,2.02,2.62,2.62,3.22,1.74,6.65,3.17,8.95,6.2,4.18,5.52,8.1,11.25,12.02,16.92,6.34,9.16,13.59,17.56,20.19,26.49,4.72,6.39,10.4,12.04,14.97,18.58,.27,.38,.58,.73,.86,1.08,1.25-.3,1.22-1.12,.97-1.94-.86-2.78,.47-4.54,2.31-6.54,2.11-2.3,4.51-3.86,7.26-5.07,2.38-1.05,4.77-2.01,7.18-2.89,.35-.46,.89-.64,1.56-.57,9.76-3.42,19.78-5.41,30.17-5.5,.8-2.11,1.38-4.38,1.78-6.75-2.8-2.01-5.6-4.02-8.4-6.04Z" style="fill: none;"/>
        <path d="M16.27,29.36c.64,.53,2.35,1.3,2.32-.06-.08-3.32,1.15-2.48,2.82-1.3,.38,.27,.78,.86,1.21,.48,.42-.37-.03-.88-.35-1.23-.44-.49-.98-.91-1.36-1.44-.59-.81-2.74-.59-1.79-2.31,.6-1.08,1.76-.49,2.67-.06,.58,.28,1.3,.71,1.67-.05,.33-.68-.38-1.24-.86-1.64-.62-.51-1.38-.86-1.7-1.05-2.92-.5-4.71,.4-5.64,2.74-.86,2.16-.93,4.29,1.02,5.92Z" style="fill: none;"/>
        <path d="M26.62,58.25c-1.11-.24-2.4-.18-3.68,.21,.58,1.39,2.07,.86,3.04,1.45,.83,.51,1.73,.92,2.62,1.31,.42,.18,1.07,.26,1.22-.24,.1-.34-.21-.92-.5-1.25-.66-.74-1.5-1.27-2.71-1.48Z" style="fill: none;"/>
        <path d="M128.56,87.47c.89,.07,2.21,.84,2.6-.33,.34-1-.97-1.62-1.74-2.18-1.02-.74-2.05-1.48-3.07-2.22-.38,1.55-.83,3.06-1.38,4.54,1.19,.04,2.39,.09,3.59,.18Z" style="fill: none;"/>
        <path d="M106.24,91.41c-4.45,.41-8.65,1.52-12.49,3.35,2.55,4.92,9.26,7.17,14.34,6.06,5.91-2.12,9.86-6.09,12.33-11.15-2.06,.19-4.13,.51-6.2,.98-2.51,.57-5.32,.06-7.98,.76Z" style="fill: none;"/>
        <path d="M89.73,93.32c-2.41,.88-4.8,1.84-7.18,2.89-2.75,1.21-5.16,2.78-7.26,5.07-1.83,2-3.17,3.76-2.31,6.54,.25,.82,.28,1.65-.97,1.94-.28-.35-.6-.7-.86-1.08-4.57-6.53-10.25-12.19-14.97-18.58-6.6-8.93-13.85-17.33-20.19-26.49-3.92-5.66-7.85-11.4-12.02-16.92-2.3-3.03-5.73-4.47-8.95-6.2-1.12-.6-2.8-1.04-2.62-2.62,.13-1.2,1.69-1.47,2.68-2.03,2.19-1.24,4.59-1.95,7.01-2.58,1.14-.29,2.6-.94,3.33-.1,1.27,1.46-1.09,1.55-1.43,2.54-.24,.7-.32,1.33,.16,1.83,.49,.51,1.19,.52,1.85,.25,.96-.39,2.19-1.11,2.12-1.94-.42-4.95,2.64-2.77,4.8-2.49,6.61,.86,13.1,2.3,19.59,3.78,1.82,.41,3.56,.85,4.71,2.51,.45,.66,.96,1.51,1.95,1.1,1-.41,.71-1.37,.66-2.17-.12-1.82-2.09-4.43-.12-5.19,1.4-.54,2.46,2.73,3.46,4.36,4.01,6.54,10.75,9.61,16.84,13.42,11.85,7.41,23.49,15.12,34.83,23.28,2.8,2.01,5.6,4.02,8.4,6.04,.21-1.26,.37-2.54,.48-3.85-2.94-2.3-5.83-4.68-8.8-6.94-13.04-9.9-27.84-16.93-41.92-25.12-1.91-1.11-3.97-2.12-4.84-4.15-3.13-7.34-8.36-13.46-11.72-20.66-.51-1.09-.58-1.79,.16-2.63,.66-.75,1.39-1.46,1.91-2.29,.47-.74,.53-1.94-.73-1.55-1.95,.6-3.38,1.54-4.66-1.26-.52-1.14-1.86,.49-2.35,1.53-.69,1.46-.86,3.32-3.1,3.38-.79,.02-1.89,.06-1.92,1.09-.04,1.21,1.2,1.41,2.08,1.84,1.3,.64,3.71,.15,3.84,1.77,.37,4.44,3.12,8.07,3.73,12.37,.27,1.89-.74,2.35-2.35,2.17-6.18-.71-12.01-2.68-17.76-4.93-1.15-.45-.6-1.31-.32-2.06,.84-.46,1.75-.83,2.48-1.43,2.51-2.07,4.75-4.29,3.68-8.04-.89-3.11-2.63-5.49-5.91-6.11-3.68-.69-7.09-.15-8.88,3.73-.97,2.09-2.15,1.73-4,1.17-3.25-.97-6.25-.27-8.34,2.8-1.91,2.82-2.34,7.66-.73,10.01,.3,.44,.54,1.14,.08,1.12-3.75-.16-5.62,5.5-10.14,3.17-1.06-.55-2.86-.19-3.16,1.53-.33,1.88,1.3,2.14,2.6,2.26,5.25,.48,9.8,2.9,14.59,4.81,4.8,1.92,6.09,6.31,8.58,9.91,.71,1.03,.37,2.07-1,2.08-5.55,.06-10.94,3.31-16.68,.54-1.65-.8-4.36-.79-1.71,2.34,.54,.64,.42,1.15-.13,1.69-.19,.19-.06,4.18-.05,4.46,.15,3.31,1.33,2.03,2.03,.34,1.46-3.5,4.34-4.35,7.64-4.56,3.69-.24,7.24,.32,10.82,1.38,4.42,1.3,7.48,3.78,9.75,7.82,3.52,6.28,8.3,11.67,13.28,16.82,6.15,6.36,11.48,13.39,17.17,20.12,1.77,2.09,1.5,2.93-.89,3.83-3.43,1.3-6.68,2.99-9.55,5.29-1.26,1.01-3.26,2.28-2.58,3.77,.36,.79,1.94-1.5,3.18-2.08,.58-.27,1.14-1.02,1.73-.68,.72,.41,.12,1.14-.07,1.71-.5,1.59-1.04,3.16-1.5,4.76-.18,.63-.28,1.47,.46,1.74,.77,.28,1.07-.52,1.37-1.07,1.09-2.06,2.12-4.14,3.24-6.18,.24-.43,.77-.72,1.27-.44,.19,.1,.24,.59,.22,.89-.04,.66-.22,1.32-.23,1.98,0,1.58-.93,4.3,.72,4.42,2.28,.17,1.73-2.75,1.89-4.34,.34-3.49,1.65-6.02,5.1-7.25,1.08-.39,2.11-1.01,3.05-1.7,1.38-1.02,2.29-1.99,1.39-4.15-1.48-3.54-.67-5,3.01-6.28,1.46-.51,2.66-1.34,3.96-2.05,3.07-1.71,5.23-2.79,7.05-3.27-.14-.3-.29-.6-.42-.91-.05-.85,.11-1.45,.42-1.86ZM28.76,17.24c1.45-1.44,6.14-1.49,8-.14,2.3,1.66,2.79,4.32,1.08,7.05-1.02,1.64-2.46,3.02-2.94,4.97-1.09-1.49,1.39-3.96-1.43-5.07-.83-.33-.44-2.42-1.35-2.36-.92,.06-.68,1.62-.9,2.54-.11,.47-.19,1.01-.81,.93-.24-.03-.53-.39-.65-.66-.65-1.52-1.29-3.04-1.87-4.59-.41-1.08,.14-1.97,.86-2.68Zm-13.52,6.2c.93-2.34,2.71-3.24,5.64-2.74,.32,.19,1.08,.54,1.7,1.05,.49,.4,1.2,.96,.86,1.64-.37,.76-1.09,.33-1.67,.05-.91-.43-2.07-1.02-2.67,.06-.95,1.71,1.2,1.5,1.79,2.31,.39,.53,.92,.95,1.36,1.44,.32,.35,.77,.86,.35,1.23-.42,.38-.83-.22-1.21-.48-1.67-1.18-2.9-2.02-2.82,1.3,.03,1.36-1.68,.59-2.32,.06-1.95-1.62-1.88-3.76-1.02-5.92Zm14.59,37.54c-.15,.5-.8,.42-1.22,.24-.9-.39-1.79-.8-2.62-1.31-.97-.59-2.47-.07-3.04-1.45,1.28-.38,2.57-.45,3.68-.21,1.21,.21,2.05,.74,2.71,1.48,.29,.33,.6,.9,.5,1.25Z"/>
        <path d="M93.17,93.43c.15,.47,.36,.91,.58,1.33,3.84-1.83,8.04-2.94,12.49-3.35,2.66-.71,5.47-.19,7.98-.76,2.08-.47,4.14-.79,6.2-.98,.38-.78,.73-1.59,1.04-2.42-10.39,.1-20.42,2.08-30.17,5.5,.55,.06,1.19,.28,1.88,.68Z"/>
        <path d="M155.96,68.29c-.83-.03-1.66-.08-2.5-.08-1.66,0-3.31,.14-1.69-2.33,1.5-2.3-.5-2.14-1.74-2.05-1.88,.13-2.84,1.41-3.38,3.18-1.47,4.76-2.99,9.52-4.59,14.24-1.96,5.76-2.14,5.79-7.43,2.87-2.65-1.47-5.15-3.14-7.57-4.92-.19,1.2-.43,2.39-.72,3.55,1.02,.74,2.05,1.47,3.07,2.22,.77,.56,2.08,1.18,1.74,2.18-.39,1.17-1.71,.39-2.6,.33-1.2-.09-2.4-.14-3.59-.18-.27,.74-.56,1.47-.88,2.19,4.64-.1,9.26,.38,13.9,1.22,1.87,.34,3.18,.23,3.66-2.09,.71-3.47,3.2-6.18,4.39-9.48,.77-2.12,2.67-2.86,4.86-2.74,1.33,.07,2.65,.31,3.97,.34,.41,0,.99-.31,1.21-.66,.41-.66-.04-1.18-.56-1.67-2.67-2.56-2.6-2.73,.75-4.12,.98-.41,2.94,.17,2.78-1.27-.14-1.24-1.96-.68-3.08-.72Z"/>
        <path d="M101.71,13.63c-8.08-9.46-27.42-21.7-35.58-6.35-.21,.45,.78,.71,1.08,.31,17.26-24,50.7,27.39,53.63,41.44,2.22,8.95,3.62,18.81,2.88,27.61,1.1,.86,2.21,1.72,3.34,2.55,3.85-24.32-10.97-54.83-25.35-65.56Z"/>
        <path d="M108.09,100.82c-5.09,1.12-11.79-1.14-14.34-6.06-.69,.33-1.37,.67-2.03,1.04-.63,0-1.29,.1-1.99,.29,6.33,13.22,25.4,10.55,31.88-2,.95-1.48,1.76-3.02,2.47-4.62-1.22,.03-2.44,.08-3.66,.2-2.48,5.06-6.42,9.02-12.33,11.15Z"/>
        <path d="M93.75,94.76c-.22-.43-.42-.87-.58-1.33-.69-.4-1.33-.61-1.88-.68-.52,.18-1.04,.37-1.56,.57-.3,.4-.47,1-.42,1.86,.13,.32,.28,.61,.42,.91,.7-.19,1.36-.29,1.99-.29,.66-.37,1.34-.71,2.03-1.04Z"/>
        <path d="M126.35,82.75c.28-1.17,.53-2.35,.72-3.55-1.13-.83-2.24-1.68-3.34-2.55-.11,1.31-.27,2.6-.48,3.85,1.04,.75,2.07,1.5,3.11,2.25Z"/>
        <path d="M121.47,87.25c-.31,.83-.66,1.64-1.04,2.42,1.22-.11,2.44-.17,3.66-.2,.32-.72,.61-1.45,.88-2.19-1.17-.04-2.34-.05-3.5-.04Z"/>
      </g>
    </g>
  </g>
</svg>