<?xml version="1.0" encoding="UTF-8"?>
<svg xmlns="http://www.w3.org/2000/svg" viewBox="0 0 167.04 100.4">
  <g id="a" data-name="Layer 1"/>
  <g id="b" data-name="Layer 2">
    <g id="c" data-name="Layer 1">
      <g>
        <path d="M70.35,35.26c-.91-.13-1.32-.96-1.99-1.41-.6-.4-.99-1.38-2-.88,.28,.56,.49,1.18,.87,1.66,2.29,2.95,2.27,5.97,1.85,9.73-1.08,9.64-4.74,18.76-5.21,28.46-.04,.88-.57,2.29,.81,2.44,.77,.08,.77-1.29,1.06-2.02,3.02-7.87,12.63-13.19,20.91-11.63,1.7,.32,3.79,.77,4.24,2.2,1.02,3.16,3.05,3.05,5.71,3.2,4.26,.24,7.96,1.92,10.49,5.81,2.81,4.31,2.81,5.94-.91,9.4-.73,.68-1.61,1.19-2.35,1.85-1.18,1.05-.73,1.71,.63,1.84,5.47,.52,10.99,.25,16.44,1.14,2.32,.38,2.78-2.09,4.29-2.96,.39-.22,1.01-.51,1.29-.35,.67,.37,.06,.81-.2,1.14-.61,.76-1.88,1.36-1.57,2.38,1.48,4.82-2,3.83-4.45,3.84-6.48,.02-13.02-.55-19.22,2.04-.68,.28-1.92,.14-1.61,1.35,.16,.61,1.11,.63,1.77,.56,1.65-.18,3.3-.48,4.95-.6,1.46-.1,3.69-.12,3.56,1.53-.15,1.83,2.15,2.88,1.32,3.93-1.21,1.53-2.63-1-3.89-.73-3.33,.71-5.66-1.02-8.25-2.55-1.37-.81-3.1-1.39-4.81-1.06-13.06,2.58-26.18,1.41-39.29,.68-5.3-.3-10.6,.3-15.91-.96-10.64-2.53-18.08-8.73-22.8-18.43-.58-1.2-1.02-2.46-1.56-3.68-.57-1.29-1.33-1.35-2.13-.21-4.21,6.02-6.55,12.33-3.47,19.68,.59,1.4,1.11,1.86,2.51,1.32,2.73-1.05,5.58-.86,8.4-.64,.99,.08,2.85-.21,2.4,1.53-.3,1.17-1.1,2.97-3.22,2.12-.92-.37-1.9-.77-2.87-.8-1.28-.04-3.35-.74-2.27,2.15,.62,1.65-.65,1.36-1.69,1-4.21-1.49-7.96-3.29-8.17-8.66-.06-1.61-.73-3.26-2.28-4.27-2.14-1.38-2.2-3.3-1-5.21,3.86-6.15,4.36-13.18,5.61-20.05,2.09-11.47,8.14-20.89,17.04-27.97,4.22-3.36,10.08-4.79,15.43-6.54,.82-.27,4.92,.36,1.31-2.54-.81-.65,.14-.68,.41-.68,2.11,0,2.59-1.86,3.58-3.11,7.72-9.64,17.94-15.46,29.77-17.9,14.45-2.98,29.09-3.47,43.63,.07,13.87,3.37,26.54,8.65,35.27,20.86,4.36,6.09,9.12,11.89,13.14,18.23,.5,.79,1.57,2.02,.77,2.59-1.02,.74-1.52-.81-1.96-1.53-1.33-2.17-3.19-3.83-4.92-5.64-1.72-1.8-3.61-3.48-3.65-6.29,0-.61-.37-1.31-.76-1.81-5.79-7.36-11.85-14.26-20.82-18.17-13.54-5.9-27.61-8.78-42.28-8.05-9.48,.47-18.72,2.75-27.37,6.84-5.07,2.4-8.89,6.45-12.34,10.74-2.72,3.38-2.16,4.69,2.06,5.81,3.87,1.03,7.83,1.8,11.2,4.09,1.88,1.28,4.05,2.43,4.51,5.04l-.06,.05Zm-5.97,59.76c6.83,.22,12.65,.49,18.48,.11,.6-.04,1.48,.06,1.54-.8,.06-.86-.8-.91-1.42-1.01-3.29-.52-6.58-.99-9.87-1.53-.78-.13-2.06-.19-2.02-1.04,.04-.89,1.29-.63,2.03-.67,5.89-.34,11.6,.75,17.24,2.32,1.92,.53,3.79,1.11,5.87,.52,4.48-1.27,8.99-2.4,13.49-3.59,.46-.12,1.09-.11,1.12-.73,0-.11-.84-.35-1.3-.38-2.49-.19-5-.2-7.47-.54-2.41-.32-4.83-1.51-6.75,1.2-.43,.6-1.83,.74-1.96-.37-.33-2.85-1.38-2.06-2.49-.6-.94,1.23-1.81,2.86-3.47,1.38-1.68-1.51-.62-2.98,.81-4.15,.56-.46,1.96-.11,1.65-1.32-.28-1.07-1.5-1.45-2.45-1.36-4.27,.42-9.59-.38-12.49,1.89-3.37,2.63-4.84,.09-6.97-.39-.93-.21-1.48-2.07-2.22-3.17-.27-.4-.61-.76-.91-1.14-.1,.47-.28,.94-.28,1.41,0,.66,.11,1.32,.2,1.98,.06,.48,.29,1.11-.3,1.24-.28,.06-.87-.49-1.03-.89-.43-1.07-.86-2.18-1.03-3.31-1.06-7-.97-14.06,1.27-20.74,2.09-6.23,2.06-12.41,1.47-18.74-.48-5.05-2.87-7.87-7.78-9.09-2.58-.64-5.33-.77-7.77-1.74-4.44-1.76-8.77-1.23-12.94,.29-11.51,4.18-20.2,11.41-24.17,23.46-.52,1.58-1.2,3.11-1.88,4.62-2.98,6.61-2.86,13.99-5.15,20.77-.28,.84-.57,2.21,.37,2.63,.46,.2,.58-1.35,.9-2.09,1.38-3.21,2.94-6.22,5.19-9.01,4.08-5.07,9.1-9.24,13.2-14.22,3.96-4.8,8.98-6.97,14.93-7.55,.51-.05,1.08,0,1.23,.55,.18,.67-.46,.8-.92,.92-9.02,2.38-14.86,9.22-21.28,15.22-1.28,1.19-3.29,2.45-2.2,4.55,2.8,5.38,3.85,11.73,8.97,15.86,4.81,3.88,9.6,6.44,16.25,7.27,7.77,.97,15.59,.83,22.3,1.99Zm4.71-19.83c-.06,1.68,.29,3.74,2.76,4.7,.59,.23,1.2,.8,1.81,.3,.64-.54,.06-1.18-.12-1.77-.22-.77-.85-1.99-.1-2.23,1.23-.4,1.1,1.23,1.68,1.89,.43,.49,.64,1.16,1.02,1.7,.36,.51,.82,1.18,1.52,.76,.27-.16,.34-.91,.27-1.36-.28-1.79-.72-3.56-.97-5.36-.1-.72,.61-1.13,1.17-1.48,.48-.31,1.17-.13,1.07,.36-.42,2.09,2.35,2.42,2.26,4.32-.03,.62,.22,1.78,.44,1.8,.98,.1,1.31-.87,1.68-1.57,.69-1.31,1.7-2.68,1.74-4.06,.08-2.29,3.44-4.3,1.58-6.06-1.55-1.46-4.58-1.53-7-1.85-6.01-.81-10.91,3.51-10.82,9.92Zm21.18,2.23c.08,.57,.19,1.73,.44,2.86,.2,.91,1.04,1.3,1.84,1.47,1.04,.23,1.4-.58,1.73-1.37,.5-1.2,.89-3.16,2.28-2.84,1.6,.37-.22,1.9,.06,2.96,.28,1.06,.77,.7,1.37,.37,.56-.32,1.42-.98,1.7-.81,3.21,2.11,3.51-.64,4.19-2.5,.91-2.47-.6-3.65-2.62-4.55-2.02-.9-4.17-1.25-6.32-1.2-3.49,.09-4.64,1.44-4.68,5.6Z"/>
        <path d="M70.41,35.21c3.03,3.56,3.24,7.8,2.92,12.17-.02,.32-.16,.9-.26,.9-.65,.02-.53-.61-.48-.91,.68-4.31-2.48-7.89-2.24-12.1l.06-.05Z"/>
      </g>
    </g>
  </g>
</svg>