<?xml version="1.0" encoding="UTF-8"?>
<svg xmlns="http://www.w3.org/2000/svg" viewBox="0 0 164.71 144.43">
  <g id="a" data-name="Layer 1"/>
  <g id="b" data-name="Layer 2">
    <g id="c" data-name="Layer 1">
      <g>
        <path d="M151.65,106.17c2.38-.49,3.02-2.6,3.63-4.4,2.59-7.71,5.88-15.23,6.45-23.49,.05-.66,.05-1.33,.07-1.99-.94,.17-1.84,.43-1.59-1.18,.18-1.14,.04-2.33,.05-3.49,.01-1.33-.01-2.67,.05-4,.77-15.64-2.54-30.59-9.66-44.32C139.54,1.91,115.11,1.89,102.53,12.04c-1.84,1.48-3.54,3.1-4.66,5.16-3.47,6.44-7.25,12.73-9.85,19.61-.82,2.18-1.67,4.26,1.94,4.63,.47,.05,1.02,.86,1.26,1.44,1.52,3.59,3.87,6.68,6.38,9.51,7.05,7.95,11.17,17.65,16.55,26.61,2.29,3.82,4.33,8.21,8.7,9.88,2.18,.83,3.68,2.05,5.2,3.5,.64,.61,2.1,1.17,1.18,2.25-.46,.54-1.84,.4-2.8,.4-1.53-.01-2.03-1.62-3.18-2.23-.6-.32-1.32-.48-1.89-.08-.88,.62-.08,1.14,.27,1.62,1.4,1.95,2.11,4.14,2.16,6.53,.02,.69-.25,1.34-.96,1.59-.77,.27-1.25-.22-1.58-.82-.8-1.46-1.53-2.96-2.37-4.39-.41-.69-.9-1.59-1.84-1.45-1.14,.17-.81,1.25-.81,2.01,0,1.82,1.33,4.86-1.72,4.55-2.26-.23-1.37-3.27-1.03-5.17,.64-3.64-.15-6.92-2.19-9.97-2.04-3.05-3.1-6.32-3.86-10.02-1.01-4.98-3.88-9.59-7.18-13.56-4.2-5.05-7.3-10.7-10.42-16.39-.32-.58-.63-1.17-1-1.72-2.4-3.56-3.06-3.48-5.32,.23-3.3,5.42-5.28,11.5-8.68,16.87-2.63,4.17-5.85,7.58-10.59,9.2-1.77,.6-1.85,4.1-4.46,2.74-1.9-.99-1.47-3.58-2.64-5.18-.79-1.07-1.74-2.07-2.26-3.27-.92-2.14-.93-4.26,1.31-5.74,1.97-1.31,3.66-1.67,5.74,.33,2.75,2.63,3.81,2.17,6.39-.68,2.66-2.93,3.79-6.61,5.42-10.03,1.5-3.15,2.64-6.48,4.97-9.18,1.59-1.84,1.76-3.69-.48-5.02-9.08-5.41-18.49-10.07-29.39-9.91-5.4,.08-13.68,8.33-15.18,14.51-.71,2.9-1.18,5.87-1.98,8.74-.58,2.06-.3,4.79-3.56,5.18-.77,.09-.98,1.24-1.24,2.05-3,9.5-6.02,18.99-9.03,28.49-1.47,4.64-1.56,9.52-2.51,14.25-.16,.82-.36,1.82,.37,2.34,1,.7,1.89-.13,2.65-.71,2.65-2,5.31-3.99,7.86-6.12,10.32-8.61,21.69-14.7,35.48-15.29,2.81-.12,5.62-.68,8.4-1.2,10.32-1.92,20.2,.05,29.95,3.28,.74,.24,1.98,.57,1.64,1.38-.37,.88-1.47,.18-2.21-.1-4.73-1.74-9.7-2.25-14.65-2.83-2.02-.24-3.24,.72-2.45,2.46,1.2,2.63,1.54,5.36,2.05,8.1,.08,.46,.39,1.13,.74,1.24,4.51,1.38,1.02,5.64,2.88,7.97,.08,.11-.25,.55-.39,.83-.4-.22-1.02-.34-1.17-.67-1.16-2.48-2.25-3.4-3.57-.09-.51,1.29-1.32,1.83-2.67,.81-1.05-.8-2.28-1.37-3.37-2.13-.34-.24-.77-1-.68-1.1,.42-.47,.82,.03,1.23,.22,1.33,.61,2.55,2.77,4.13,.43,1.33-1.98,.75-3.71-.83-5.36-2.85-2.97-5.97-5.75-7.28-9.89-.37-1.17-1.29-2-2.66-1.83-1.41,.18-1.78,1.32-2,2.52-.48,2.62-1.07,5.28-.13,7.88,.46,1.25,.48,2.23-.46,3.18-.58,.58-1.19,1.6-1.98,1.26-1-.44-.15-1.39-.06-2.15,.41-3.57-.72-7.13,.08-10.76,.26-1.19-1.5-1.31-2.14-.44-.97,1.31-1.59,2.89-2.28,4.4-.76,1.65-1.01,3.16,1.14,4.13,.6,.27,.68,1.18,.03,1.69-.64,.5-1.12,.04-1.69-.37-2.44-1.73-4.86-3.46-6.98-5.59-1.27-1.28-2.6-2.9-4.71-1.99-2,.86-1.24,2.87-1.34,4.43-.18,2.67,.38,5.3,.7,7.94,.23,1.91,.41,3.5,2.93,2.08,.4-.23,1.63-.71,.92,.48-2.01,3.41,1.6,2.48,2.57,3.56,.58,.65,1.51-1.88,1.74,.04,.06,.48-1.05,2.58-2.85,1.88-.76-.29-1.41-.89-2.18-1.17-2-.75-3.09-.54-1.82,1.91,.29,.55,.87,1.18,0,1.69-.2,.12-.73,0-.9-.19-1.95-2.34-3.6-1.6-5.23,.39-.25,.3-1.02,.55-1.29,.39-.78-.48-.22-1.11,.04-1.69,.86-1.89,3.14-3.23,2.39-5.74-1.16-3.89-3.43-7.18-5.97-10.27-1.09-1.32-2.37-.75-3.56,.06-8.48,5.76-14.94,13.12-17.94,23.11-.47,1.57-.54,3.28-.62,4.93-.07,1.49,.19,3,.12,4.49-.09,2.08,.5,5.44-1.94,5.48-2.39,.04-1.04-3.21-1.36-5.01-.27-1.51,.85-4.12-.98-4.27-1.9-.16-1.25,2.61-1.7,4.07-.68,2.25-1.29,4.49-2.93,6.26-.55,.59-1.1,1.47-2.03,.96-.82-.44-.89-1.36-.6-2.2,.8-2.36,1.65-4.71,2.47-7.07,.26-.76,.85-1.59,.09-2.3-.95-.89-1.85-.13-2.69,.34-.72,.41-1.37,.96-2.09,1.37-1.05,.6-2.18,2.28-3.32,.65-.79-1.13,.64-2.11,1.51-2.78,1.83-1.42,3.65-2.9,5.93-3.63,4.31-1.37,5.71-4.61,5.84-8.84,.15-5.15,.56-10.3,.8-15.45,.3-6.34,2.09-12.46,2.76-18.73,1.09-10.24,5.95-19.28,8.54-29.03,.29-1.1,.36-2.41,2.45-1.49,.81,.36,1.9-2.04,2.71-3.27,4.69-7.14,10.83-12.52,18.64-16.1,1.48-.68,2.67-.94,4.21-.58,9.07,2.12,18.11,4.26,26.27,9.03,3.4,1.99,4,1.77,5.71-2.29,4.15-9.8,10.84-17.32,19.71-23.14,10.25-6.74,20.75-5.79,31.5-1.7,9.81,3.73,15.23,11.68,18.97,20.76,5.29,12.86,8.58,26.32,8.91,40.27,.34,14.4-3.21,28.05-9.74,40.88-1.09,2.15-2.16,4.58-4.7,5.63,.75-1.44,2.08-2.71,1.41-4.59ZM79.43,48.43c.11-.87-.28-1.92-1.09-1.75-1.89,.4-2,2.34-2.51,3.83-.22,.63-.09,1.49,.76,1.48,2.24-.04,2.06-2.17,2.85-3.55Zm-3.49,6.56c-.04,.1-.21-.36-.71-.6-.53-.26-1,.04-1.14,.52-.48,1.69-2.1,3.04-1.5,5.02,.06,.2,.6,.46,.78,.38,1.83-.82,.79-3.12,2.13-4.23,.11-.09,.12-.3,.43-1.1Zm42.49,35.92c-.34-1.29-1.15-2.25-2.48-2.66-.62-.19-.96,.4-.72,.86,.63,1.19,.31,3.13,2.21,3.35,.68,.08,.9-.81,.98-1.54Z"/>
        <path d="M150.3,110.7c-1.73,5.11-6.46,7.88-9.35,12.07-3.15,4.55-7.86,7.27-11.83,10.86-1.05,.95-1.96,1.06-3.11,.87-2.51-.4-5.12,.36-6.32,2.17-3.31,4.96-8.72,5.65-13.56,7.3-2.4,.82-5.26,.29-7.91,.31-.83,0-1.77-.21-1.89-1.22-.13-1.04,.73-1.38,1.57-1.52,13.93-2.39,25.9-9.02,37.16-17.18,3.74-2.71,7.65-5.25,9.73-9.68,.39-.82,1.45-1.32,2.2-1.96,1.62,.18,2.28-1.22,3.3-2.02Z"/>
      </g>
    </g>
  </g>
</svg>