<?xml version="1.0" encoding="UTF-8"?>
<svg xmlns="http://www.w3.org/2000/svg" viewBox="0 0 196.9 172.73">
  <g id="a" data-name="Layer 1"/>
  <g id="b" data-name="Layer 2">
    <g id="c" data-name="Layer 1">
      <g>
        <path d="M81.17,149.73c-1.41-.28,.13-4.28-3.14-2.44-.61,.35-.83-.98-.76-1.7,1.13-11.2,2.63-22.33,5-33.36,1.52-7.05,3.01-14.09,5.13-20.97,1.64-5.32,3.85-10.45,5.27-15.87,.7-2.65-.18-5.42,1.38-8.07,.7-1.2,1.78-1.79,2.45-2.85,.14-.22,.61-.52,.66-.47,.39,.35,.07,.73-.07,1.08-.5,1.31-2.13,3.25-1.01,3.8,1.08,.53,1.56-2.03,2.32-3.21,1.67-2.59,3.14-5.32,5.17-7.68,.44-.51,1.22-1.25,.62-1.9-.49-.54-1.39-.07-2.08,.16-2.71,.91-5.21,2.59-6.98,4.49-5.38,5.79-12.45,8.8-19.16,12.22-6.53,3.33-13.49,5.85-19.5,10.16-2.79,2-6.28,.05-9.03,1.91-.12,.08-.56-.14-.72-.33-.36-.41-.14-.8,.18-1.14,.1-.11,.21-.21,.32-.3,1.11-.95,3.62-1.82,3.3-2.52-.72-1.58-2.77-.24-4.23-.55-.26-.05-.66-.27-.67-.44-.05-.49,.37-.75,.78-.82,2.01-.37,3.98-1.1,6.09-.72,.85,.16,1.76,.26,2.61,.16,3.43-.41,3.86-1.31,2.16-4.23-7.22-12.44-14.51-24.83-19.87-38.24-.46-1.14-.67-2.32-1.12-3.44-.27,1.14-.45,2.31-.85,3.4-.75,2.06-1.83,4.04-1.62,6.34,.07,.71,.04,1.64,.9,1.83,.68,.15,.75-.7,1.04-1.16,.35-.55,.9-.86,1.47-.53,.53,.31,.6,.94,.58,1.55-.07,1.91-.71,3.3-2.7,4.06-4.41,1.69-5.33,6.08-2.11,9.6,1.29,1.41,2.72,2.69,4.01,4.09,.44,.48,1.64,.78,1.19,1.52-.59,.97-1.53,.21-2.31-.14-1.07-.48-2.15-.92-2.92-1.89-.45-.57-1.07-1.22-1.81-.56-.59,.53-.43,1.38-.1,2.06,.38,.79,.97,1.48,1.3,2.28,.33,.79,.9,2.17,.6,2.43-1.17,1.02-1.1-.72-1.73-1.05-1.35-.7-1.06,.52-1.02,1.02,.32,3.66,.73,7.31,1.1,10.96,.06,.55,.46,1.23-.17,1.58-.59,.33-1.09-.21-1.5-.59-5.77-5.38-11.8-10.44-17.88-15.47-1.03-.85-2.11-1.71-2.63-2.93-1.13-2.64-3.07-3.34-5.7-2.73-2,.47-3.19-.41-3.41-2.36-.21-1.91,1.22-1.95,2.62-2.02,2.91-.14,.65-1.81,.75-2.77,.07-.65-.74-1.54,.32-1.86,.81-.25,1.4,.54,1.61,1.2,2.95,9.44,11.68,12.23,19.08,16.48,2.62,1.51,3.79,.65,3.77-2.31,0-1.94-.35-3.9-1.44-5.49-4.29-6.24-6.76-13.34-9.81-20.17-.92-2.07-2.01-4.23-4.19-4.83-2.75-.76-1.3-1.45-.91-3.13,.63-2.77,1.04-3.03,3.02-1.12,1.4,1.35,1.55-.22,2-1.02,.55-.97,1.38-1.72,2.48-1.07,.81,.48,.89,1.57,.54,2.41-3.42,8.42,2.09,14.13,6.13,20.27,1.07,1.62,2.33,1.42,2.78-.34,1.78-6.92,5.16-13.46,4.98-20.85-.07-2.7,1.31-5.07,1.99-7.6,.15-.56,.44-1.15,1.18-1.06,.65,.08,.94,.64,1.19,1.16,.54,1.12,.35,2.27,.16,3.45-1.35,8.58,2.72,15.71,6.29,22.95,.73,1.47,1.41,.39,1.63-.51,.9-3.77,2.63-7.17,4.56-10.48,1.57-2.68,2.74-2.62,4.22,.13,1.89,3.52,1.33,7.17,.27,10.73-.42,1.41-.63,2.28,1.11,2.41,4.31,.32,6.38,3.24,7.93,6.75,.83,1.88,1.71,3.76,2.3,5.72,1.09,3.63-.08,4.78-3.96,4.42-2.24-.21-3.72-1.6-5.34-2.86-1.04-.81-2.14-1.55-3.23-2.3-.37-.25-.83-.34-1.13,.06-.14,.19-.14,.62-.01,.83,2.42,4.19,4.27,8.78,7.74,12.26,1.79,1.79,3.87,.45,5.67-.48,9.56-4.93,18.7-10.55,27.56-16.63,2.06-1.41,4.22-2.67,6.36-3.96,1.38-.84,2.69-1.71,4.46-.59,1.22,.77,2.73,.3,3.71-.58,2.75-2.48,6.57-3.34,9.07-6.17,1.18-1.34,2.74-1.69,4.42-1.04,1.07,.42,2.72,.78,2.55,2.05-.24,1.77-1.83,.75-2.88,.69-1.05-.06-2.29-.24-2.49,1.08-.17,1.13,1.15,1.07,1.88,1.42,.66,.31,1.43,.46,2.02,.87,1.18,.84,3.13-.61,3.63,.67,.64,1.66-1.47,1.65-2.39,2.41-.99,.82,.2,1.12,.71,1.48,.58,.42,1.54,.86,1.15,1.57-.41,.76-1.27-.21-1.98-.11-1.53,.22-2.74-.31-4.02-1.27-4.44-3.33-6.99-3.1-11.42,.33-6.05,4.67-9.55,11.1-12.36,17.93-4.55,11.06-6.84,22.71-8.61,34.5-.77,5.13,1.43,9.43,4.06,13.12,5.87,8.24,11.45,16.76,18.76,23.89,5.39,5.26,12.16,8.21,18.92,11.08,11.27,4.79,22.87,8.65,35.2,9.32,10.58,.58,21.16,.4,31.23-3.69,.36-.15,.78-.58,1.05,.06,.04,.1-.32,.49-.55,.59-2.02,.83-3.4,2.75-5.75,3.1-12.24,1.86-24.54,3.12-36.83,1.08-9.4-1.56-19.13-2.57-27.56-7.36-14.93-8.48-30.02-16.9-40.11-31.6-.89-1.3-2.18-2.34-3.28-3.5-1.17,1.25-.2,2.85-.64,4.17-2.22,6.61-1.29,13.36-1.09,20.08h.09Zm-18.7-85.2c.83-.37,1.79,1.2,2.69,.11,.74-.9,.08-1.99-.22-2.94-.77-2.39-1.86-4.63-3.3-6.7-.96-1.39-2.23-2.34-3.92-2.62-1.99-.33-2.89,.7-1.75,2.36,1,1.45,.93,2.84-.15,3.43-2.7,1.48-.98,2.15,.27,3.05,1.92,1.38,3.94,2.56,6.39,3.31Zm-8.08-19.35c.16-1.29,.54-2.89,.48-4.47-.04-1.09-.17-2.73-1.28-3.06-1.37-.4-1.67,1.29-2.13,2.21-1.16,2.34-2.62,4.61-2.44,7.4,.03,.43-.12,1.06,.1,1.26,.37,.32,.63-.32,.97-.48,.85-.39,.96-1.91,2.32-1.5-.41,.91-.8,1.83-1.23,2.72-.25,.52-.6,1-.87,1.52-.2,.38-.43,.91,.02,1.14,.2,.1,.79-.31,1.05-.62,1.43-1.71,2.21-3.76,3.01-6.14Zm41.87,86.78c-.15-2.08-1.65-3.14-2.75-4.43-1.05-1.23-2.43-1.52-3.95-.96-.26,.09-.59,.3-.66,.53-.81,2.5,1.58,3.49,2.55,5.13,.66,1.12,1.57,2.27,3.13,1,.55-.45,1.14-.86,1.69-1.27Zm11.03,15.02c.4-.03,.68-.04,.96-.06-.06-.27-.04-.6-.2-.8-.43-.57-.86-1.2-1.43-1.61-1.54-1.13-1.93-3.66-4.4-3.61-.17,0-.48,.43-.47,.65,.2,2.57,2.53,3.28,4.12,4.63,.43,.36,.99,.57,1.41,.81ZM27.42,70.83c-.52-.06-.91,.03-.89,.61,.04,1.37,.66,2.48,1.68,3.34,.38,.32,.88,.11,.94-.38,.18-1.55-.42-2.76-1.73-3.57Z"/>
        <path d="M81.09,149.74c.68,1.99-.9,3.31-1.52,4.87-2.68,6.73-6.16,12.94-12.09,17.46-.61,.46-.75,.92-1.7,.48-2.45-1.14-4.71-2.88-7.8-2.19-1.19,.27-1.16-1.04-.62-1.86,.52-.79,1.44-.9,2.32-1.05,1.02-.17,2.17,.38,3.05-.54-1.04-.72-2.22-.57-3.39-.63-1.13-.06-2.95,.08-2.91-1.21,.06-1.78,1.86-1.32,3.14-1.19,.15,.02,.29,.07,.43,.09,1.26,.15,3.27,1.39,3.56,.57,.49-1.43-1.53-1.7-2.65-2.27-.38-.2-.79-.44-.36-.9,.16-.17,.57-.26,.81-.19,1.45,.41,2.57,1.36,3.72,2.27,3.27,2.61,3.96,2.45,5.35-1.56,2.18-6.26,1.81-12.41-1.13-18.38-.52-1.05-1.05-2.1-1.66-3.11-.88-1.47,2.56-.55,1.22-2.32-.79-1.04-1.33-2.28-2.03-3.4-.7-1.12-1.49-2.18-2.18-3.3-.2-.33-.37-1.06-.23-1.16,.72-.51,1.01,.27,1.32,.67,4.53,6,8.48,12.33,10.61,19.61,.63,2.17,1,3.13,2.73,.77,.49-.67,1.39-1.04,2.1-1.55h-.09Z"/>
        <path d="M60.6,124.85c-.51,2.66-.58,2.72,.49,3.99,1.24,1.48,2.1,3.11,2.53,4.98-2.23,.15-2.51-2.3-4.14-3.12-1.82-.92-2.84-2.94-3.9-4.68-6.75-11.01-14.39-21.42-21.31-32.31-.93-1.47-3.28-3.69-1.54-4.81,1.96-1.26,2.82,1.88,3.73,3.31,6.11,9.69,12.37,19.24,20.59,27.35,1.24,1.22,2.12,2.79,3.13,4.23,.23,.33,.31,.78,.41,1.06Z"/>
        <path d="M42.84,17.33c-.4,1.07-.31,2.34-1.51,2.14-1.33-.22-.6-1.37-.51-2.12,.64-5.34,1.47-10.67,1.2-16.09-.02-.4-.5-1.15,.38-1.26,.11-.01,.39,.72,.47,1.13,1.13,5.51,.46,11-.04,16.2Z"/>
        <path d="M35.34,12.85c-.22,.21-.42,.53-.59,.52-.25-.03-.56-.24-.7-.47-1.09-1.74-2.21-3.47-3.18-5.28-.49-.91-1.8-1.43-1.42-2.77,1.14,.49,1.78,1.49,2.45,2.45,1.01,1.44,2.01,2.89,2.98,4.36,.23,.35,.31,.81,.46,1.2Z"/>
        <path d="M39.83,13.97c-.18,.2-.35,.54-.55,.56-.21,.02-.59-.22-.66-.43-.76-2.35-1.51-4.71-2.18-7.09-.19-.67,.23-.69,.7-.35,.43,.3,2.81,6.76,2.69,7.31Z"/>
      </g>
    </g>
  </g>
</svg>