<?xml version="1.0" encoding="UTF-8"?>
<svg xmlns="http://www.w3.org/2000/svg" viewBox="0 0 209.1 126.48">
  <g id="a" data-name="Layer 1"/>
  <g id="b" data-name="Layer 2">
    <g id="c" data-name="Layer 1">
      <g>
        <path d="M162.61,118.89c-11.04-1.62-11.56-1.05-22.03-1.17-7.34-.08-2.66-.31-9.92-1.21-4.96-.62-9.97-.15-14.9-1.16-2.36-.49-3.81,.94-4.46,3.08-.58,1.91-.92,3.89-1.42,5.82-.16,.62-.44,1.44-1.28,1.22-.75-.19-.65-1.01-.62-1.65,.02-.5,.14-1,.09-1.49-.13-1.19,1-2.98-.48-3.43-1.14-.35-2.12,1.38-2.95,2.34-1.19,1.37-2.08,3.01-3.17,4.48-.39,.52-1.03,1.02-1.72,.66-.94-.48-.82-1.41-.42-2.15,.71-1.31,1.54-2.56,2.37-3.8,.36-.54,1.16-1.09,.81-1.66-.48-.77-1.48-.53-2.31-.42-2.5,.35-4,2.23-5.77,3.72-.35,.29-.98,.67-1.26,.54-.88-.42-.39-1.19-.02-1.62,2.74-3.19,.62-3.31-1.99-3.33-11.11-.1-22.22-.36-33.33-.33-4.16,.01-8.39,.45-11.23,4.27-.35,.48-.79,1.39-1.48,.98-.76-.45-.07-1.17,.22-1.7,.7-1.3,.52-1.94-1.07-1.41-2.05,.69-4.15,1.22-6.02,2.39-.36,.23-1.13,.34-1.36,.13-.73-.67,.14-1.07,.46-1.56,.42-.62,1.47-1.18,.62-2.02-.34-.34-1.25-.23-1.87-.14-.82,.12-1.6,.47-2.41,.64-1.31,.26-2.92,2.21-3.8,.36-.5-1.05,1.58-2.31,2.73-3.14,1.04-.74,2.41-1.19,3.69-1.39,2.96-.44,5.95-.65,8.93-.95,1.32-.13,3.65,.05,3.77-.39,.46-1.62-1.43-2.25-2.36-3.3-2.2-2.5-4.46-4.95-6.68-7.43-1.35-1.51-1.56-2.83,.49-4.02,.99-.57,1.84-1.43,2.65-2.27,5.79-5.94,14.43-6.4,21.01-1.13,.55,.44,1.05,.85,.57,1.57-.32,.48-.87,.43-1.35,.24-.92-.37-1.93-.65-2.73-1.21-5.62-3.95-10.65-1.81-15.69,1.31-2.21,1.37-1.92,2.9-.67,4.55,3.74,4.94,8.17,9.2,13.12,12.92,.84,.63,1.92,1.14,2.79,.87,5.6-1.77,11.09,.79,16.73,.24,5.79-.57,11.62-.89,17.37-1.78,3.26-.51,7.18,.6,9.65-1.56,2.34-2.04,.81-6,2.05-8.98,1.14-2.74,1.49-5.81,3.21-8.33,3.11-4.57,6.98-4.75,10.71-.71,1.15,1.25,1.72,4.07,3.42,3.44,1.1-.4,.04-3.33,.03-5.13-.05-10.56-4.71-19.97-7.67-29.78-1.46-4.82-5.38-8.35-8.75-12.04-7.02-7.69-14.87-14.3-24.48-18.61-5.68-2.54-11.5-4.39-17.83-3.95-3.87,.27-7.46-1.59-11.36-1.35-2.71,.16-5.39-.2-7.2,2.54-.37,.56-1.48,.66-2.27,.9-1.92,.58-4.22,.22-4.95,3.13-.27,1.09-2.23,1.56-3.47,.55-1.1-.9-.99-2.09,.21-2.92,1.25-.85,.85-1.16-.33-1.08-.81,.05-1.61,.37-2.4,.64-6.59,2.25-13.19,4.5-19.76,6.81-1.08,.38-2.07,1.04-3.05,1.66-.39,.25-.93,.78-.88,1.09,.12,.67,.75,.31,1.23,.29,10.19-.61,20.24,1.19,30.31,2.09,8,.72,15.15,4.64,22,8.79,.4,.24,.83,.67,.95,1.09,3.39,11.97,7.33,23.89,3.96,36.58-.4,1.52-.54,4.21-2.11,3.94-1.23-.21-.37-2.96-.03-4.48,2.37-10.63,.32-20.87-2.9-30.92-1.14-3.55-3.9-6.24-7.77-7.18-10.14-2.47-19.96-6.07-30.57-6.85-5.29-.39-10.52-1.07-15.85-.79-2.03,.11-3.96,.31-5.81,1.18-.77,.36-1.66,.59-2.26-.23-.78-1.08,.09-1.87,.72-2.59,1.12-1.29,2.63-2.02,4.18-2.66,4.61-1.91,9.21-3.86,13.86-5.69,2.01-.79,4.06-1.39,5.72-2.93,1.41-1.32,3.08-1.62,5.09-1.05,1.52,.43,2.5-.15,1.72-2.2-3.13-8.26,.88-14.62,6.17-20.18,3.76-3.95,6.85-2.9,8.98,2.12,1.83,4.32,3.15,8.76,3.73,13.42,.13,1.09-.05,2.69,1.66,2.51,2.24-.23,1.25-2.04,1-3.12-1-4.36-2.18-8.6-2.22-13.2-.04-4.55,3.28-6.09,6.04-7.75,2.21-1.33,4.79,.4,6.8,1.98,6.44,5.07,8.05,14.05,3.55,20.99-1.49,2.3-1.41,2.88,1.47,3.16,11.65,1.16,21.54,6.07,30.25,13.94,8.08,7.3,15.38,15.15,21.18,24.4,1.54,2.45,2.68,4.98,3.38,7.72,2.69,10.5,4.93,21.05,4.04,32.03-.38,4.75-.16,4.68,4.49,5.49,20.03,3.5,18.29,4.9,38.48,6.97,10.71,1.1,20.79-1.71,30.55-5.91,3.99-1.72,6.02-4.98,5.89-9.05-.13-4.13-2.08-7.6-6.09-9.58-1.71-.84-3.72-1.25-4.93-2.95,2.2-.7,3.71,1.07,5.53,1.65,4.66,1.5,6.68,5.7,7.42,9.87,.76,4.33-1.7,8.07-5.4,10.56-4.32,2.91-9.14,4.73-14.22,5.88-9.05,2.06-18.17,1.86-26.72,1.24Zm-48.6-5.49c.76-.03,2.24-.04,3.73-.14,2.82-.19,4.36-1.91,4.14-4.55-.33-3.98-1.67-7.79-3.94-11.07-1.89-2.74-4.12-2.54-5.82,.35-1.97,3.32-2.91,7.05-3.19,10.86-.24,3.14,1.17,4.39,5.09,4.56ZM37.12,26.92c.68-.42,2.67-.13,2.08-.69-2.83-2.67,2.25-5.59-.54-8.04-.26-.23-.03-1.1,.52-1.2,.38-.07,1.03,.17,1.24,.49,.83,1.23,1.5,2.57,2.32,3.81,.23,.34,.88,.78,1.1,.67,.51-.24,.31-.86,.16-1.32-.72-2.2-1.49-4.39-2.21-6.59-.19-.58-.77-1.36-.03-1.76,.69-.37,1.15,.41,1.43,.97,1.02,2.08,1.96,4.21,2.99,6.28,.41,.81,.75,2.31,1.8,1.85,.91-.4,.31-1.83,.01-2.74-1.09-3.3-2.15-6.63-3.45-9.85-1.23-3.04-3.29-3.42-5.65-.95-3.67,3.84-5.46,8.7-6.22,13.83-.5,3.32,1.24,5.01,4.46,5.23ZM56.84,6.05c-3.39-.42-3.79-.02-3.12,3.4,.45,2.28,1.06,4.53,1.59,6.8,.42,1.8,.43,1.84,2.2,.96,1.02-.51,1.65,.38,2.2,.72,1.74,1.07-.53,3.37,1.21,4.78,.36,.29-.78,1.19-1.72,1.17-.52-.01-1.05,.26-.83,.81,.12,.29,.82,.52,1.23,.48,.63-.06,1.3-.27,1.82-.61,3.69-2.4,5.69-6.64,4.85-10.13-1.1-4.59-4.71-7.8-9.42-8.38Z"/>
        <path d="M101.35,75.47c-.07,2.27-.62,3.56-1.94,4.07-1.72,.66-1.57-1.1-2.16-1.96-1.28-1.85-1.33,.26-1.79,.67-.91,.8-1.9,3.08-2.76,1.85-1.09-1.55-4.59-1.94-3.05-5.2,1.21-2.56,2.57-5.02,4.48-7.07,2.03-2.18,4.8-1.62,5.78,1.23,.8,2.32,1.1,4.8,1.45,6.41Z"/>
        <path d="M78.88,82.67c-3.78,1.78-3.64-1.07-3.86-3.31-.22-2.29-.54-4.63,.3-6.85,.84-2.22,2.32-2.71,4.18-1.11,3,2.58,3.94,6.18,3.77,9.82-.13,2.83-2.38,2.57-4.39,1.46Z"/>
      </g>
    </g>
  </g>
</svg>