<?xml version="1.0" encoding="UTF-8"?>
<svg xmlns="http://www.w3.org/2000/svg" viewBox="0 0 183.67 170.33">
  <g id="a" data-name="Layer 1"/>
  <g id="b" data-name="Layer 2">
    <g id="c" data-name="Layer 1">
      <g>
        <path d="M77.05,58.1c-.11,.13-.19,.35-.32,.38-6.35,1.29-7.03,5.52-6.21,11.05,.63,4.26,.44,8.64,.6,12.97,.21,5.58,2.34,7.94,8.93,10.35,7.18,2.62,14.26,5.53,21.47,8.07,2.95,1.04,5.09,3.67,8.35,3.94,.59-2.94,1.63-5.73,2.79-8.48,.39-.92,.79-1.84,1.25-2.72,.62-1.19,1.99-3.04,2.56-2.68,1.19,.76-.4,2.13-.49,3.31-.04,.56-.75,1.3,.21,1.61,.29,.09,.91-.38,1.18-.74,1.71-2.24,3.96-3.54,6.73-3.88,.58-.07,1.48-.29,1.56,.67,.05,.55-.64,.67-1.12,.79-.64,.17-1.33,.26-1.92,.54-.83,.39-2.25,.66-1.9,1.79,.26,.83,1.44,.02,2.21-.02,.5-.03,.99-.13,1.49-.11,.51,.03,1.01,.26,1.07,.82,.02,.14-.48,.43-.78,.5-.65,.15-1.33,.15-1.97,.31-5.17,1.32-9.2,7.09-7.98,12.37,.75,3.26-.34,3.45-2.99,3.44-15.25-.04-30.22,1.88-44.7,6.93-1.57,.55-3.17,1.06-4.68,1.74-4.97,2.23-5.89,4.8-3.44,9.84,3.14,6.46,8.08,10.88,14.96,13.1,8.79,2.84,17.93,3.77,27.05,4.31,13.14,.78,26.28,.49,39.39-1.13,14.32-1.78,28.24-.06,41.59,5.61,.75,.32,2,.64,1.66,1.44-.35,.82-1.43,.1-2.18-.21-13.71-5.66-27.85-6.98-42.54-4.93-17.61,2.46-35.14,6.08-53.12,4.33-10.68-1.04-20.49-4.09-28.83-11.18-3.4-2.9-5.56-6.57-7.39-10.48-1.06-2.27-2.52-2.81-4.16-1.08-5.68,6.01-13.99,8.97-18.6,16.27-1.16,1.84-2.34,3.61-3.08,5.64-2.44,6.65-7.21,11.53-12.39,16.06-1.12,.98-2.8,3.43-3.88-.23-.06-.22-.62-.53-.76-.45-3.72,1.97-4.26-1.45-5.93-3.27-1.33-1.45-.74-1.92,.53-2.47,1.27-.54,2.59-.38,3.94-.21,3.42,.44,6.53-.58,9.65-1.93,2.27-.98,3.44-2.63,3.92-4.81,1.03-4.71,2.17-9.38,2.64-14.21,1.16-11.92,2.2-23.86,4.67-35.61,.1-.48,.4-1.03,.27-1.44-3.18-9.81,2.05-18.19,4.71-26.96,1.49-4.92,3.78-9.59,5.67-14.39,.19-.49,.95-1.16,.07-1.61-.3-.15-.98,.15-1.34,.44-2.13,1.68-4.63,2.59-7.11,3.55-.57,.22-1.5,.9-1.44,1.12,.28,.94,1.06,.26,1.63,.21,.66-.07,1.31-.32,1.97-.32,.97,0,2.25,0,2.3,1.25,.04,1.04-1.21,.88-1.97,1.09-2.57,.71-5.14,1.41-7.7,2.13-.95,.27-1.97,.4-2.72,1.14-1.25,1.23,.15,3.63-1.71,4.38-.99,.4-2.1-2.56-3.51-.2-.34,.57-.97,1.05-1.64,.48-.61-.51-.25-1.21-.03-1.82,.23-.63,.57-1.22,.71-1.86,.33-1.43-.59-1.39-1.39-.93-1.15,.66-2.16,1.55-3.26,2.29-.61,.41-1.33,.41-1.78-.17-.45-.59-.22-1.34,.28-1.8,.85-.79,1.79-1.47,2.72-2.17,.65-.5,1.19-.84,1.05-1.95-.43-3.5-.23-3.8,3.07-2.6,4.01,1.45,7.48,.98,10.82-1.49,.53-.39,1.17-.63,1.76-.95q13.32-7.3,18.93-20.99c.7-1.71,1.13-3.04-1.74-3.26-7.01-.55-9.12-5.46-5.09-11.36,1.33-1.94,3.05-3.5,4.93-4.9,4.11-3.07,5.33-2.99,8.39,1.3,1.33,1.87,1.99,1.26,2.72-.23,2.93-5.97,5.37-12.19,9.72-17.4,.71-.85,.23-2.6,.64-3.82,.53-1.55,1.84-2.55,3.51-2.07,1.61,.47,1.66,2.02,1.19,3.33-1.04,2.91-1.12,5.87-.83,8.87,.04,.43,.39,1.21,.49,1.19,.59-.1,.58-.68,.61-1.16,.09-1.45,0-2.96,1.28-4.04,1.2,1.5,.35,3.19,.11,4.64-.75,4.4-1.85,8.74-2.91,13.08-.28,1.15-.83,2.43,.28,3.17,.94,.63,1.76-.49,2.59-1,1.13-.69,2.29-1.35,3.48-1.94,2.29-1.12,4.66-2.1,7.06-.37,2.04,1.47,3.16,5.85,2.37,8.67-1.94,6.85-6.55,9.54-13.14,7.37-1.98-.65-2.61-.42-2.9,1.68-.85,6.28,.71,8.48,7.09,9.38,2.96,.42,5.96,.61,8.93,.99,3.23,.42,5.9-.55,8.11-2.93,.45-.48,1.14-.87,1.72-.35,.25,.22,.28,1,.1,1.38-1.1,2.28-.07,2.98,2.07,3.09,.68,.03,1.27,.56,1.41,1.24,.23,1.08-.62,1.58-1.43,1.62-2.47,.11-2.06,1.4-1.45,2.98,.29,.76,.4,1.75-.62,2.11-1.03,.36-1.44-.57-1.86-1.25-.44-.71-.78-1.47-1.13-2.22-1.1-2.37-2.33-3.4-5.42-2.51-3.08,.88-6.43,1.9-9.82,.97,1-1.04,2.45-.8,3.63-1.31,.26-.11,.43-.41,.64-.63-.25-.18-.49-.52-.74-.53-3.11-.09-6.23-.14-9.27,.61-.67,.17-1.05,.76-.89,1.51,.16,.81,.82,1.06,1.48,.91,1.75-.4,3.44-1.15,5.29-.61Zm-10.06-46.73c-1.34-.3-1.5,.73-1.92,1.35-4.05,6.12-7.49,12.57-10.55,19.25-5.67,12.39-11.59,24.68-16.09,37.57-6.9,19.74-10.49,40.25-13.63,60.84-.67,4.43-.69,8.95-1,13.44-.04,.64-.13,1.41,.55,1.77,.75,.39,1.18-.27,1.64-.74,1.52-1.54,2.83-3.41,4.61-4.54,3.81-2.41,3.84-7.4,7.67-9.99,5.98-4.03,12.26-7.29,18.85-10.15,10.12-4.37,20.37-8.21,31.26-10.15,4.95-.88,9.96-.75,14.93-1.2,.77-.07,1.9,.21,2.14-.77,.26-1.05-.96-1.11-1.59-1.52-9.44-6.09-20.19-9.39-30.32-13.99-3.59-1.63-5.63-4.47-5.43-7.55,.58-9.07-1.76-17.86-1.73-26.83,.04-14.97-.08-29.94,.61-44.89,.03-.64,0-1.28-.01-1.9Zm42.71,139.93c-.48-1.13-1.18-1.1-1.83-1.11-5.31-.08-10.62,.18-15.89-.89-2.92-.6-5.89-.98-8.85-1.39-.94-.13-2.06-.39-2.63,.74-.29,.59-.28,1.32,.25,1.85,.81,.81,1.84,.67,2.8,.42,1.2-.31,2.03-1.5,3.65-.86,6.83,2.7,13.96,1.87,21.04,1.49,.48-.03,.96-.16,1.45-.25ZM77.28,33.18c-.85,.86-1.35,1.93-.69,2.63,.72,.76,1.9,.21,2.8-.21,2.08-.97,3.21-4.78,1.94-6.94-1.7-2.89-3.73-.85-5.59-.12-.55,.22-1.26,.81-1.34,1.32-.17,1.12,.86,1.19,1.67,1.28,1.51,.17,2.71,.45,1.22,2.04Zm-12.49,111.65c1.53,.6,2.77,1.64,3.46,.13,.48-1.05-.8-1.69-1.65-2.13-2.1-1.1-3.61-2.86-5.23-4.51-.91-.93-1.83-2.31-3.25-.98-1.72,1.62,0,2.75,1.01,3.58,1.91,1.55,4.05,2.83,5.66,3.92ZM46.49,29.07c1.01,.05,2.52,1.52,2.85-.07,.33-1.56,.06-3.9-1.39-4.83-1.65-1.05-3.13,.43-3.78,1.99-.85,2.07,1.18,2.2,2.31,2.9Zm7.6,97.15c-1.01,.21-2.31,.01-3,1.13-.77,1.24-.02,2.28,1.01,2.95,.83,.54,1.63,.09,2.07-.71,.57-1.03,1.05-2.11-.08-3.36Zm-5.35-90.84c.18-.65,.21-1.32-.33-1.34-1.44-.05-2.89,.35-3.89,1.34-.43,.43,.48,1.05,1.12,1.17,1.33,.26,2.63,.33,3.1-1.18Z"/>
        <path d="M64.29,29.67c-.61,1.41-1.35,2.81-3.13,2.69-1.5-.11-2.13-1.42-2.62-2.67-.3-.77-.68-1.9,0-2.3,1.14-.67,1.05,.85,1.54,1.35,1.29,1.28,1.88,.6,2.54-.66,.51-.96-.03-3.28,1.89-2.5,1.07,.43,.46,2.39-.04,3.64-.06,.15-.13,.3-.19,.46Z"/>
      </g>
    </g>
  </g>
</svg>