<?xml version="1.0" encoding="UTF-8"?>
<svg xmlns="http://www.w3.org/2000/svg" viewBox="0 0 155.94 103.45">
  <g id="a" data-name="Layer 1"/>
  <g id="b" data-name="Layer 2">
    <g id="c" data-name="Layer 1">
      <g>
        <path d="M30.75,92.36c1.06-4.1,3.54-7.55,5.67-11.05,4.29-7.06,7.09-14.47,8.06-22.65,.9-7.6,2.46-15.11,2.51-22.82,.03-3.85-.89-6.53-4.54-8.56-4.89-2.71-9.71-5.08-15.48-4.65-.96,.07-2.18,.21-2.53-.98-.38-1.28,.82-1.68,1.71-2.04,3.7-1.47,7.27-3.35,11.28-3.96,.16-.03,.34-.03,.49-.1,5.48-2.65,11.24-1.57,16.94-1.3,1.9,.09,3.88,.58,1.71-2.59-2.31-3.36-.91-8.51,2.25-10.67,1.9-1.3,3.8-1.59,5.09,.7,.85,1.51,1.37,2.72,2.9,.61,1.28-1.77,3.43-.87,5.11-1.46,1.85-.65,.55,.76,.76,1.25,.96,2.23,.89,4.57,1.04,6.91,.21,3.23-.19,5.99-3.93,7.07-2.56,.74-1.91,2.6-1.34,4.46,2.85,9.23,5.69,18.45,8.43,27.71,.85,2.87,1.54,5.81,1.94,8.76,1.23,9.03,5.91,16.52,10.49,24.07,.3,.49,.62,1.35,1.44,.92,.33-.17,.6-.83,.59-1.26-.1-3.78,1.96-7.03,2.56-10.64,.11-.65,.16-1.46,.56-1.89,1.2-1.29,3.52-2.46,4.44-2.05,1.67,.75-.59,1.95-.8,3.08-.12,.65-.37,1.28-.45,1.93-.03,.27,.23,.58,.36,.87,.26-.16,.6-.25,.75-.48,.75-1.1,1.31-2.36,2.2-3.32,.85-.92,2.3-2.26,3.3-1.22,1.19,1.24-.9,1.67-1.53,2.47-1.99,2.5-3.41,5.37-4.6,8.25-2.08,5.02,.2,8.07,5.55,7.13,14.24-2.5,28.58-1.1,42.86-1.47,2.53-.07,5.01,.25,7.37,1.11,2.36,.87,2.65,2.29,.89,4.14-2.02,2.13-4.74,3.1-7.44,3.91-13.41,3.99-26.9,7.75-40.79,9.51-8.89,1.13-17.92,1.56-26.91,1.29-5.29-.16-10.38-1.1-12.8-6.86-.7-1.67-2.26-1.21-3.48-1.03-6.59,.95-13.29,1.19-19.74,2.91-3.74,1-8.04,.08-11.19,3.46-1,1.07-2.9-.04-4.28-.47-4.61-1.45-9.17-3.04-14.15-2.38-1.17,.15-2.66-.09-2.99-1.32-.87-3.22-3.27-3.29-5.86-3.37-1.22-.04-3.75,.75-1.82-2.17,.4-.61-.48-.65-.9-.79-1.03-.32-2.74-.1-2.4-1.77,.3-1.46,1.87-1.88,3.23-1.76,4.81,.42,1.1-1.1,.46-1.92-.41-.51-1.01-1.03-.54-1.72,.41-.6,1.11-.58,1.8-.4,2.94,.75,4.9,2.82,6.48,5.18,4.87,7.29,10.19,8.4,17.95,3.65,.4-.25,.96-.24,1.44-.35-1.11,2.11-3.02,3.46-4.76,4.97-.31,.27-1.07,.28-.8,.87,.17,.38,.76,.6,1.2,.81,1.23,.57,2.24-.16,3.3-.61,2.91-1.25,5.86-2.37,8.98-3,8.33-1.69,16.67-3.26,25.22-3.22,1.63,0,3.52,.23,4.48-1.53,3.33-6.13,5.33-12.62,3.9-19.65-.77-3.76-5.34-6.71-8.16-5.7-2.86,1.03-6.64,6.78-6.43,9.94,.13,1.98,.14,4.01,1.39,5.74,.43,.59,1.46,1.37,.39,1.98-.7,.39-1.47-.56-2.01-1.19-2.57-3.03-2.04-6.5-1.34-9.98,.13-.64,.63-1.4,.11-1.86-.62-.53-1.08,.33-1.59,.63-2.66,1.56-5.19,1.37-7.15-1.02-1.49-1.82-2-.98-2.59,.54-2.29,5.93-5.3,11.49-8.9,16.71-1.48,2.15-2.6,4.69-5.33,5.69Zm21.77-35.47c.38-2.05-.78-4.22,.85-6.03,.98,1.72,.18,3.57,.4,5.35,.02,.16,.02,.33,.02,.5,.06,2.31,.84,3.44,3.42,2.45,1.93-.74,3.63-.12,4.69,1.75,1.01,1.78,1.75,1.61,2.59-.16,.98-2.05,2.34-3.38,4.64-1.47,1.75,1.45,1.74,.3,1.79-1.11,.09-2.45-1.34-4.42-1.93-6.65-.18-.68-.12-1.41,.59-1.65,.31-.11,.94,.29,1.23,.63,2.87,3.29,2.6,9.16-.81,12.34-1.03,.97-.59,1.4,.01,1.88,.76,.62,1.68,1.05,2.58,1.49,2.6,1.28,3.16,.82,3.61-2.04,.76-4.88-.16-9.53-1.19-14.25-2.31-10.64-7.82-20.18-10.36-30.73-.34-1.41-.53-3.37-2.25-3.53-1.74-.15-3.66,.35-4.53,2.35-.86,1.97-2.54,2.56-4.49,2.47-1.17-.05-1.82-.75-1.47-2.02,.69-2.47,.7-2.42-1.87-2.06-2.62,.37-5.22,.8-7.9,.72-2.69-.09-5.29,.57-7.81,1.49-.57,.21-1.35,.49-1.2,1.26,.07,.33,.74,.58,1.18,.79,3.48,1.59,6.92,3.27,10.46,4.72,3.39,1.39,5.45,3.37,5.2,7.43-.17,2.71-.5,5.35-.85,8.03-.9,6.91-1.03,13.92-1.45,20.89-.09,1.5-.15,3,.5,4.42,.78,1.68,1.45,3.55,3.91,2.93,1.06-.27,3.01-5.37,2.16-5.94-2.59-1.74-.91-4.28-1.71-6.26Zm37.48,44.3c19.49,.21,38.18-4.31,56.66-9.94,2.43-.74,5.17-1.19,6.64-3.74-2.47-1.12-5.09-1.3-7.72-1.12-6.79,.46-13.61,.48-20.38,.98-8.09,.59-16.25,1-24.16,3.14-1.36,.37-3.28,.21-2.24,2.67,1.54,3.62-1.01,3.3-2.95,2.64-8.14-2.77-16.42-.37-24.61-.88-.84-.05-1.79,.07-2.01,1.04-.2,.87,.43,1.57,1.08,2.09,2.26,1.82,4.84,2.99,7.74,3.08,3.98,.12,7.97,.03,11.95,.03Zm5.88-9.34c-.27-.62-.28-1.47-1.51-1.47-2.13,0-3.12-1.73-4.11-3.24-3.64-5.57-7.22-11.18-10.82-16.78-.65-1.01-.51-2.87-2.57-2.26-1.71,.51-2.28,1.67-2.19,3.41,.29,5.76-.91,11.2-3.21,16.51-1.37,3.17-.84,3.73,2.63,3.85,6.95,.24,13.98-.81,20.84,1.19,.83,.24,1.21-.26,.93-1.23ZM72.3,9.5c-.18-1.3-.29-2.61-.56-3.89-.28-1.36-1.12-2.8-2.45-2.72-1.88,.12-2.34,2.05-2.86,3.61-.45,1.37-.7,2.36,1.48,2.58,1.59,.16,1.94,1.56,.63,2.89-.54,.55-1.57,1.26-1.02,1.92,.7,.85,1.81,.18,2.69-.26,1.73-.86,2.14-2.36,2.09-4.13Zm-9.66-4.79c-.09-.95,.24-2.17-1.09-2.47-1.14-.26-1.82,.62-2.36,1.46-.82,1.27-1.4,2.65-1.45,4.19-.02,.69,.09,1.44,.94,1.49,.94,.05,.87-.74,.86-1.38,0-.5,.23-1.32,.55-1.14,2.86,1.59,2.34-.67,2.55-2.14Zm49.56,82.62c1.39-.67,3.86,.75,5.35-1.55-1.87-1.01-3.84-.37-5.77-.29-.98,.04-1.97,.26-2.92,.53-.4,.12-.71,.58-1.06,.89,.46,.14,.92,.36,1.39,.4,.82,.07,1.65,.02,3,.02Z"/>
        <path d="M22.89,19.4c-2.35-3.9-6.05-5.59-10.35-6-2.96-.28-5.93-.85-8.95-.49-.85,.1-2.45,.5-2.4-.75,.04-1.09,1.65-.54,2.54-.61,4.15-.31,8.29-.52,12.39,.58,2.86,.77,5.05,2.45,7.08,4.46,1.11,1.1,1.01,1.99-.39,2.71l.07,.09Z"/>
        <path d="M22.81,19.31c-3.93,2.4-8.63,1.73-12.81,3.21-1.62,.57-3.17,1.82-5.1,1.29,.91-2.13,3.14-1.98,4.83-2.65,4.22-1.67,8.65-2.07,13.16-1.77l-.07-.09Z"/>
        <path d="M18.86,22.76l.87,.35c-.14,.28-.2,.68-.42,.81-1.85,1.09-3.72,2.13-5.61,3.17-.44,.24-.99,.44-1.27-.16-.08-.18,.19-.64,.42-.83,1.79-1.51,3.85-2.53,6.01-3.35Z"/>
      </g>
    </g>
  </g>
</svg>