<?xml version="1.0" encoding="UTF-8"?>
<svg xmlns="http://www.w3.org/2000/svg" viewBox="0 0 207.72 151.41">
  <g id="a" data-name="Layer 1"/>
  <g id="b" data-name="Layer 2">
    <g id="c" data-name="Layer 1">
      <g>
        <path d="M164.9,120.16c-3.35-.61-6.11-2.47-8.92-4.22-4.8-2.99-9.2-6.56-14.35-9.03-5.05-2.42-7.03-6.63-6.52-12.25,1.41-15.64,11.12-33.39,28.67-38.39,.96-.27,2.01-.49,2.8-1.03,4.94-3.39,10.45-4.6,16.34-4.55,.59,0,1.7-.57,1.68-.76-.14-1.16-1.22-.6-1.86-.67-2.81-.3-5.98-1.38-8.37-.46-3.22,1.24-6.23-.31-9.3,.65-4.13,1.3-8.05-1.32-8.61-5.62-.16-1.2-.07-2.32-1.16-3.04-3.51-2.35-4-5.88-3.78-9.66,.11-1.91-.74-2.22-1.93-1.1-1.2,1.12-4.45,.74-3.07,4,.47,1.12-.61,.78-1.18,.61-.63-.18-1.47-.64-1.8-.01-.42,.8,.61,.87,1.09,1.19,1.16,.78,.82,1.58-.33,1.31-5.07-1.23-7.74,2.41-10.59,5.24-7.84,7.79-14.44,16.53-19.23,26.56-1.01,2.12-1.85,4.28-2.1,6.62-.07,.63,.16,1.29,.26,1.93,.75-.28,.65-1.03,.8-1.59,1.88-7.04,6.97-11.93,11.29-17.41,1.87-2.37,3.53-.56,5.21-1.01,.72-.19,.97,.63,.16,1.36-1.47,1.34-2.92,2.82-4.63,3.76-6.12,3.36-8.07,9.43-10.3,15.33-.52,1.37-.08,1.91,1.38,1.1,3.17-1.75,2.46,2.25,4.13,2.88,.93,.35,1.28,1.52,.56,2.56-1.06,1.52-2.5,1.2-4.04,.95-2.51-.42-5.22-.74-6.38-3.26-1.15-2.52-1.52-1.19-2.04,.14-4.14,10.69-8.62,21.25-11.65,32.34-1.67,6.1-3.7,12.09-6.15,17.94-.28,.68-1.27,1.42-.42,2.18,.51,.45,1.22-.1,1.78-.44,15.38-9.37,32.26-9.42,49.37-7.86,3.97,.36,7.95,.42,11.92,1.02,3.98,.6,6.58-2.7,9.73-4.38,.72-.38,1.33-1,1.98-1.51,.87,2.75-.96,3.88-2.92,5.02-.79,.46-2.23,.82-1.79,2,.38,1.01,1.76,.58,2.69,.58,5.5,.01,11-.17,16.44,.9,.82,.16,1.64,.26,2.46,.43,.5,.11,.98,.39,.99,.94,0,.96-.8,.9-1.41,.9-2.87-.02-5.91-1.13-8.07,2.12-.71,1.07-2.17-.03-3.25-.31-4.85-1.27-9.7-2.28-14.72-1.04-.63,.16-1.25,.34-1.88,.51,.4,.74,1.13,.52,1.76,.62,.63,.1,1.26,.18,1.9,.27-.48,.93-1.35,.4-2.02,.5-5.25,.76-10.65-.88-15.85,.95-.57,.2-1.43,.14-1.51-.74-.03-.36,.39-.89,.75-1.13,.69-.45,1.47-.77,2.24-1.09,.82-.33,1.56-.72,1.34-1.76-.18-.84-.66-1.62-1.54-1.79-1.3-.25-2.64-.45-3.96-.43-7.32,.14-14.65,.2-21.95,.99-2.28,.24-4.25,.89-5.76,2.58-4.82,5.41-11.32,7.35-18.05,8.73-4.56,.93-9.16,1.74-13.77,2.35-5.92,.79-11.31,2.61-15.72,6.83-.57,.55-1.45,1.26-2.19,.7-1.04-.78,.09-1.37,.53-1.98,.35-.49,1.1-1.02,.47-1.61-.58-.54-1.2,.14-1.76,.44-.84,.46-1.75,1.46-2.67,.69-1.15-.97,.13-1.73,.66-2.44,1.36-1.79,.02-1.86-1.22-1.98-17.82-1.84-34.62-8.04-51.92-12.14-.97-.23-1.91-.59-2.83-.96-.32-.13-1.01-.08-.74-.75,.05-.13,.61-.12,.92-.06,1.96,.37,3.95,.64,5.87,1.18,11.69,3.26,23.73,4.87,35.53,7.66,2.63,.62,5.4,3.93,7.21,2.46,2.98-2.4,5.98-1.26,8.9-1.76,3.57-.61,7.26-.47,10.88-.87,3.8-.41,7.64-.81,11.35-1.68,6.57-1.54,9.12-6.8,10.52-12.67,2.92-12.3,6.93-24.21,12.18-35.7,.81-1.77,1.65-3.4,.49-5.61-1.33-2.52,.5-4.98,1.71-6.98,6.8-11.21,13.03-22.87,22.67-32.08,1.32-1.27,2.68-2.5,3.99-3.78,.57-.56,1.52-1.23,1.07-2.02-.44-.77-1.48-.4-2.29-.16-5.43,1.59-10.87,3.14-16.29,4.75-1.59,.47-3.12,1.2-4.83,.55,1.28-1.09,2.85-1.63,4.4-2.07,4.95-1.42,9.96-2.67,14.93-4.04,.54-.15,1.44-.13,1.33-1.04-.02-.17-.89-.31-1.38-.33-5.21-.23-10.26,.9-15.34,1.78-.71,.12-1.79,1.05-2.08,.1-.21-.71,1.22-.85,1.96-1.14,5.52-2.2,11.32-2.54,17.17-2.46,2.16,.03,4.32,.2,6.48,.2,1,0,2.14-.28,2.39-1.38,.24-1.03-.89-1.32-1.59-1.62-6.25-2.7-12.36-5.81-19.25-6.71-.61-.08-1.21-.3-1.81-.46,.65-.11,1.29-.3,1.94-.3,5.84,0,10.93,2.68,16.24,4.56,1.88,.67,3.74,1.39,5.61,2.08,1.5,.55,2.94,.45,4.28-.47,1.51-1.04,2.24-1.85-.02-3.11-6.56-3.64-7.5-6.4-4.88-13.39,1.35-3.61,3.09-7.02,5.62-9.96,1.56-1.81,3.56-2.99,5.84-3.69,2.59-.8,4.2,.22,5.96,2.28,1.75,2.05,2.13,1.73,2.72,6.56,.06,.49,.11,.98,.17,1.47,.85-.16,.69-.93,.8-1.47,.33-1.63,.96-3.32,.77-4.9-.32-2.71,1.49-3.42,3.15-3.07,2.13,.45,.9,2.47,.59,3.71-.91,3.54-2.04,7.02-3.09,10.53-.18,.61-.76,1.35-.25,1.83,.63,.59,1.07-.34,1.57-.62,2.48-1.39,4.43-1.05,5.83,1.57,.29,.55,.57,1.37,1.3,1.32,1.1-.07,1.01-1.18,1.17-1.91,.76-3.41,1.4-6.85,2.17-10.26,.32-1.45,.8-2.88,1.27-4.29,.09-.26,.5-.63,.72-.6,.61,.08,.58,.64,.49,1.09-.49,2.6-1.02,5.19-1.48,7.8-.08,.44,.15,.93,.23,1.39,.26-.41,.61-.78,.78-1.23,.8-2.18,1.5-4.41,2.36-6.57,.15-.37,1.12-1.56,1.18-.72,.31,4.62,2.55,1.26,3.8,.97,3.57-.84,7.04,1.26,7.22,5.53,.28,6.42,.52,13.01-2.86,18.95-.25,.43-.49,.87-.75,1.3-1.23,2.03-.98,3.11,1.7,2.81,2.31-.26,4.64-.47,6.96-.64,.8-.06,2.21-.33,2.26,.33,.06,.82-1.26,.52-1.99,.63-3.45,.54-6.9,1.03-10.35,1.6-.79,.13-1.8,.44-1.71,1.44,.1,1.13,1.26,.89,2,.95,2.16,.16,4.32,.19,6.49,.3,.49,.02,.97,.16,1.46,.24-.38,.66-1.04,.39-1.56,.4-5.3,.12-10.64-.65-15.84,1.18-.98,.34-2.28-.19-3.42-.37-1.14-.17-2.28-.56-3.41-.57-1.53,0-3.47,.51-3.76,1.87-.37,1.71,1.74,2.02,3.02,2.59,.74,.33,1.61,.38,2.42,.57,.31,.07,.62,.18,.93,.28-.46,.13-.91,.27-1.38,.38-.6,.14-1.48-.08-1.47,.84,0,.17,1.18,.38,1.83,.45,10.88,1.19,21.69,3.18,32.71,2.67,.82-.04,1.66,.13,2.48,.27,.28,.05,.53,.3,.79,.46-.28,.16-.55,.4-.85,.45-.65,.13-1.32,.19-1.98,.23-1,.06-2.4-.33-2.93,.18-3.83,3.73-7.9,1.9-12.35,1.59-8.15-.57-15.85,1.99-23.28,5.95-5.78,3.08-11.2,6.33-16.09,10.71-7.36,6.61-10.17,15.27-11.85,24.51-.93,5.14,1.07,8.94,5.49,11.81,6.13,3.98,12.06,8.3,18.09,12.44,1.11,.76,2.17,1.54,2.93,2.67Zm-13.38-93.94c2.75-1.06,3.4-.13,1.97,2.82-.32,.66-.07,1.64,.04,2.46,.13,.95,.08,2.37,1.26,2.37,.73,0,.44-1.38,.53-2.16,.09-.76,0-1.87,1.21-1.69,.7,.11,.83,.98,.81,1.62-.09,2.73,.9,5.22,1.62,7.77,.65,2.28,1.63,2.31,3.58,1.05,3.16-2.03,3.12-6.61,6.83-8.1,.55-.22,.35-.82-.12-1.16-2.39-1.68-1.88-3.76-1.29-6.2,.49-2-1-4.08-2.36-5.26-1.09-.94-2.63,.79-3.76,1.74-.38,.32-.71,.7-1.05,1.07-.79,.86-1.68,1.98-2.89,1.31-1.02-.57-1.22-1.95-1.16-3.11,.06-1.15,.38-2.29,.57-3.44,.73-4.37,.13-8.6-1.28-12.76-.85-2.52-2.5-2.85-4.7-1.9-1.61,.69-2.66,1.99-3.49,3.45-2.32,4.05-3.95,8.42-5.8,12.69-.87,2-.27,3.65,1.28,4.89,2.24,1.79,4.71,3.16,8.19,2.55Zm37.77-11.52c0-1.37,.06-2.04-.01-2.7-.24-2.27-.97-4.26-3.39-5.01-2.3-.71-3.81,.72-5.14,2.22-1.9,2.15-2.95,4.78-3.86,7.46-.19,.56-.56,1.14,.41,1.56,1.34,.57,1.28,.64,.6,1.53-.68,.89-2.31,1.98-1.55,2.81,1.95,2.12-.15,3.22-.73,4.67-.54,1.36-1.2,2.64-2.54,3.58-1.05,.73-.84,2.17-.32,3.18,.58,1.13,1.38,.09,2.1-.1,.43-.12,.94-.03,1.41,.04,4.49,.69,6.86-.2,8.76-4.19,2.36-4.95,4.08-10.16,4.26-15.04Z"/>
        <path d="M153.41,17.92c-.29,1.04,.17,2.2-1.14,2.13-.79-.05-.85-.89-.85-1.55,.02-2.34-.37-4.63-.86-6.9-.1-.46-.11-1.12,.43-1.16,.3-.02,.84,.59,.95,1,.57,2.24,1.03,4.51,1.47,6.48Z"/>
      </g>
    </g>
  </g>
</svg>