<?xml version="1.0" encoding="UTF-8"?>
<svg xmlns="http://www.w3.org/2000/svg" viewBox="0 0 211.51 111.66">
  <g id="a" data-name="Layer 1"/>
  <g id="b" data-name="Layer 2">
    <g id="c" data-name="Layer 1">
      <path d="M211.49,38.63c-.48-16.71-10.42-30.94-24.24-36.65-16.57-6.65-37.21,4.45-46.64,19.64-3.68,6.27-3.69,13.12,.32,18.59,3.6,4.9,9.39,6.91,15.39,6.28,1.09-.1,2.33,.2,3.37-.13,.21-.43-.3-.46-.73-.6-.95,.28-2.33,.1-3.33-.02-3.63-.42-8.44-.38-11.46-2.94-3.45-2.92-4.46-9.03-3.96-13.21,1.33-9.67,11.04-16.57,18.83-21.43,9.37-5.42,19.05-6.06,26.72-2.76,12.07,5.23,21,18.74,21.18,33.52,.18,9.05-4.31,16.71-12.26,24.57-7.68,7.67-18.04,12.67-31.54,15.63-.72,.12-1.41,1.91-2.4,2.11-1.59,.32-3.37-.33-4.57-.2-.34,.05-.68,.09-1.02,.13-.49-.44-.89-1.09-1.23-2.02-5.42-14.78-12.21-28.77-23.64-40.03-6.32-6.22-12.64-11.99-22.71-10.29-3.9,.66-8.06,.67-11.62,2.27-7.89,3.55-15.91,7.14-22.59,12.7-5.82,4.84-10.95,10.52-16.21,15.98-1.35,1.4-2.99,2.18-4.61,2.46-1.15,.2-.94-1.85-1.48-2.84-2.87-5.2-8.33-5.54-11.59-.54-1.27,1.94-1.81,1.77-2.93-.03-1.57-2.52-4.03-2.65-5.98-.86-2.58,2.36-4.62,5.28-3.95,9.18,.54,3.13-.12,3.93-3.23,3.39-1.47-.26-2.8-.89-4.33-.2-4.6,2.08-9.51,2.81-14.5,3.1-1.77,.1-4.45-.28-4.55,1.8-.1,2,2.64,1.42,4.1,1.52,11.29,.77,21.82,4.36,32.26,8.33,8.45,3.22,9.89,6.56,6.7,14.97-1.83,4.83-2.79,5.46-8.14,5.35-4.41-.09-4.64,.41-4.62,4.48,0,1.94,.24,2.17,1.74,1.3,1.56-.9,3.68-3.21,4.6-2.38,2.41,2.15,3.32,0,4.96-.7,4.66-1.99,6.75-6.35,9.25-10.13,2.38-3.61,4.47-6.39,9.37-4.92,1.53,.46,3.31,.07,5.99,.07,3.75-.58,8.1,.12,12.27,2.91,2.51,1.67,3.93,4.42,6.73,5.72,.82,.38,1.08,1.6-.06,2.49-.67,.52-2.33,.52-1.62,1.94,.51,1.01,1.75,.55,2.73,.57,9.59,.21,17.67-4.07,25.67-8.58,.69-.39,1.76-1.16,.81-1.81-4.49-3.08-.32-4,1.36-5.03,3.09-1.9,6.26-3.66,9.92-4.48,2.93-.66,5.69-.51,8.14,1,6.52,4,13.6,6.1,21.16,6.84,1.32,.13,2.64,.36,3.96,.57,2.79,.43,2.59,2.17,1.61,4.02-.81,1.56-2.28,2.42-4,2.72-1.97,.34-3.96,.55-5.93,.88-3.31,.54-3.29,.56-2.45,3.78,.07,.27-.15,.63-.29,.92-.33,.7-1.35,1.57-.59,2.12,.98,.72,1.63-.66,2.43-1.12,.87-.49,1.67-1.09,2.51-1.63,.55-.35,1.24-.89,1.73-.23,.44,.59-.29,1.14-.59,1.7-.35,.64-1.41,1.29-.4,2.03,.37,.27,1.27,.01,1.86-.21,7.42-2.74,11.98-8.1,14.15-15.61,.25-.87,.04-2.21-.73-1.87-3.26,1.46-2.22-2.13-3.61-2.87-1.88-.99-.73-1.77,.52-2.18,2.37-.77,5.04-.98,7.11-2.22,3.19-1.93,6.44-3.77,9.67-5.64,5.34-2.51,10.36-5.72,15-9.82,.05-.04,.11-.08,.16-.12,0,0,0-.02,0-.02,.96-.85,1.9-1.72,2.82-2.65,8.93-9.09,13.61-18.07,13.24-28.6ZM40.44,63.56c.69-1.88,.63-4.65,3.69-5,2.56-.3,4.64,2.19,5.34,5.34,.6,2.71,.75,4.97-2.33,6.08-1.37,.49-3.24,1.83-4.11,.67-.76-1,1.76-1.36,2.32-2.54,.27-.57,.87-.99,1.32-1.48,.31-.34,.61-.69,.91-1.03-.57-.32-1.1-.76-1.71-.95-1.08-.34-1.85,.5-2.75,.88-2.44,1.04-2.97,.69-2.67-1.97Zm47.2,33.59c-.28,.63-.75,.49-1.19,.2-1.24-.81-2.55-1.55-3.68-2.49-.78-.65-2.33-.84-1.88-2.47,1.38,.44,2.41-.04,3.15-1.23,1.3,0,4.15,4.75,3.6,5.99Zm14.89-1.24c-.52,1.7-1.37,3.85-3.8,4.03-.97,.07-1.97-.09-2.12-.1-5.48,.16-9.07-4.52-7.53-8.74,.61-1.66,2.27-1.71,3.63-2.22,1.49-.56,2.08,.23,2.55,1.45,.8,2.05,2.67,2.78,4.54,3.48,1.16,.44,3.23,.46,2.73,2.09Zm54.9-2.75c-.17,.62-.72,.44-1.16,.31-5.24-1.58-10.98-1.26-15.88-4.06-1.46-.84-3.87-.37-3.64-3.81,.14-2.05-9.74-4.52-12.16-2.98-2.34,1.49-4.66,1.37-7.16,1.38-8.63,.05-17.3-.57-25.79,1.79-3.06,.85-5.91,.46-7.99-2.45-.65-.92-1.72-1.56-2.66-2.24-.93-.66-2.25-1.71-3.04-.58-.61,.88,1.11,1.22,1.77,1.82,.74,.67,1.58,1.23,2.28,1.94,.6,.62,1.16,1.56-.28,1.74-1.86,.24-2.39,.84-2.12,2.87,.18,1.4-1.54,1.57-2.68,1.06-3.07-1.38-6.45-1.5-9.61-2.47-.83-.25-1.77-.52-2.15,.42-.4,.99,.58,1.39,1.32,1.76,.71,.36,1.44,.68,2.16,1.02-.79,.04-1.57,.08-2.36,.11-.33,.01-.67,0-1,0-8.28-.12-16.11-2.31-23.59-5.59-7.43-3.25-15.4-5.25-22.33-9.63-.66-.42-2.06-.41-1.86-1.3,.3-1.33,1.64-.42,2.52-.56,1.49-.24,2.74-.18,4.11,.98,1.67,1.41,3.77,1.47,4.81-1.04,.86-2.06,2.48-1.35,3.78-1.11,2.42,.46,4.9,.81,7.23,1.36,5.8,1.38,9.85-.57,13.45-4.86,7.83-9.33,16.9-17.39,26.22-25.18,.63-.53,1.31-1.41,2.11-1.06,1.05,.46,.34,1.34,.08,2.11-.93,2.76,2.57,1.43,2.89,3.08,3.38-2.64,8.36-2.3,11.16-6.03,.3-.4,.86-.8,.53-1.24-.19-.25-.9-.21-1.36-.16-2.12,.24-4,1.63-6.25,1.25,1.39-2.19,3.94-2.59,5.95-3.81,4.42-2.69,9.15-4.73,13.97-6.59,4.69-1.81,8.71-1.5,12.03,2.73,2.05,2.61,4.03,5.51,6.68,7.34,2.04,1.4,.22,4.59,3.47,5.17,2.51,.45,3.9,3.13,5.11,5.22,4.48,7.7,10.44,14.56,13.13,23.3,.92,2.98,.43,5.59-1.49,7.57-1.21,1.25-.92,1.73,.21,1.82,5,.38,5.31,6.16,9.19,7.76,.22,.09,.44,.61,.37,.86Z"/>
    </g>
  </g>
</svg>