<?xml version="1.0" encoding="UTF-8"?>
<svg xmlns="http://www.w3.org/2000/svg" viewBox="0 0 148.84 181.02">
  <g id="a" data-name="Layer 1"/>
  <g id="b" data-name="Layer 2">
    <g id="c" data-name="Layer 1">
      <g>
        <path d="M125.57,131c-3.65-2.22-7.66-3.03-11.87-3.12-7.24-.16-10.39,3.65-8.86,10.73,.13,.62,.21,1.26,.31,1.89-.68-.43-1.38-.85-2.05-1.3-17.32-11.57-27.86-29.04-39.55-45.51-1.83-2.58-4.18-4.79-5.95-7.3-5.12-7.24-10.55-14.53-10.61-24.05-.01-2.05,1.54-3.63,2-5.56,.15-.63,.35-1.43-.23-1.83-.73-.51-1.22,.23-1.6,.73-2.08,2.79-4.36,5.45-5.56,8.82-2.35,6.61-6.83,11.82-11.66,16.63-2.94,2.93-6.46,5.39-11.12,2.6-1.58-.95-3.15,.64-2.37,2.76,2.77,7.51-1.46,13.14-4.81,18.97-1.23,2.14-2.89,4.12-4.7,5.81-4.37,4.07-4.58,9.35-4.73,14.7-.02,.62-.19,1.43,.69,1.6,.14,.03,.51-.77,.67-1.22,.51-1.4,.89-2.86,1.48-4.23,3.08-7.11,9.76-9.19,16.13-5.06,.98,.63,1.93,1.31,2.89,1.96-2.84,.12-5.56-.93-8.44-.65-5.04,.49-8.57,3.41-10.14,9.23-1.05,3.9-.68,7.63,3.15,10.2,.61,.4,1.92,.81,1.37,1.7-.45,.74-1.48-.08-2.19-.41-.6-.28-1.11-.73-1.69-1.06-.27-.15-.59-.2-.89-.3,.04,.32-.01,.69,.15,.93,.64,.97,1.37,1.88,2,2.85,.25,.39,.32,.89,.48,1.34-.45-.08-.93-.09-1.34-.26-.29-.11-.48-.44-.74-.66-.86-.74-1.68-2.5-2.53-2.05-1.25,.67,.37,1.92,.4,2.97,0,.29-.02,.76-.19,.85-.53,.29-.93-.1-1.22-.51-1.27-1.83-1.94-3.96-2.12-6.08-.44-5.12,.33-10.3,.25-15.34-.1-6.58,3.82-10.04,7.22-14.29,1.56-1.94,3.03-3.98,4.3-6.13,2.69-4.55,4.19-9.05,1.96-14.58-2.76-6.84-1.89-14.25-.31-21.17,3.64-15.96,11.32-29.98,23.66-40.84,8.9-7.83,19.3-13.63,30.48-17.76,6.39-2.36,12.62-5.23,19.34-6.65,.56-.12,1.41-.73,1.62-.05,.17,.56-.83,.9-1.44,1.13-3.56,1.36-7.12,2.73-10.71,4.04-10.26,3.75-19.41,9.4-27.98,16.09-.64,.5-1.87,1.35-2.11,.92-.41-.73,.89-1.08,1.38-1.67,.42-.51,.94-.94,1.37-1.45,.29-.34,.49-.76,.74-1.14-.47,.11-1.04,.1-1.4,.36-2.69,1.96-5.53,3.77-7.97,6.01-10.57,9.71-19.1,20.81-23.3,34.83-.46,1.53-.49,2.62,.17,4.18,.72,1.72,3.12,4.07-.5,5.76-.99,.46,.18,.94,.61,1.22,1.65,1.07,.66,2.32,.27,3.53-.4-1.05-.68-2.53-2.26-1.62-1.22,.71-1.48,4.79-.43,5.39,1.62,.93,2.41,0,2.68-1.59,.18,.46,.37,.93,.55,1.39,2.45,6.43,4.34,7.22,9.26,2.43,3.97-3.87,7.13-8.39,9.77-13.68,2.89-5.8,4.92-13.1,11.79-16.44,1.99-.97,3.26-2.86,4.46-4.61,1.98-2.89,5.19-4.05,7.79-6.05,1.48-1.14,1.3,.92,2.06,1.22-2.25,.56-4.46,1.19-6.35,2.62-.39,.3-.74,.7-.44,1.21,.13,.22,.61,.49,.77,.41,2.85-1.34,6.67-.51,8.65-3.81,1.17,.21,2.83-.28,2.66,1.85-.04,.47-.23,.96-.17,1.41,.18,1.26,3.03,1.18,1.85,2.82-1,1.39-2.97,.99-4.68,.87-10.69-.78-18.59,10.09-14.23,19.87,4.84,10.85,11.86,20.42,18.68,30.06,7.98,11.28,16.48,22.17,25.59,32.57,.88,1,1.76,2,2.69,2.95,1.54,1.59,2.27,1.57,3.51-.73,1.61-3.02,2.78-6.96,7.76-6.63,5.73,.38,11.81-.79,15.82,4.95Z"/>
        <path d="M24.67,119.33c9.1,2.57,16.45,8.66,24.97,12.43,10.19,4.51,19.91,10.04,30.56,13.53,2.74,.9,5.56,1.83,7.58,4.15,.87,.99,2.18,.6,3.28,.83,1.62,.35,3.28,.52,4.92,.8,.64,.11,1.54,.36,1.53,.97-.03,.97-.98,.55-1.58,.56-.33,0-.65-.13-.98-.16-7.17-.71-9.24,1.94-6.73,8.69,.58,1.55,1.33,3.06,2.15,4.51,2.22,3.93,3.36,4.07,6.63,.94,.33-.31,.49-1.08,1-.82,.47,.24,.13,.86-.08,1.29-.29,.6-.6,1.19-.88,1.79-.31,.66-.33,1.44,.2,1.86,.71,.57,1.07-.35,1.55-.69,3.49-2.47,4.64-6.62,3.21-11.54-.26-.88-1.41-1.77-.47-2.66,.69-.66,1.49,.22,2.23,.52,1.83,.74,3.42,1.74,4.36-1.49,.46-1.56,2.86,.04,2.83,.98-.14,3.64,2.36,3.16,4.52,3.36,1.66,.16,3.32,.32,4.97,.47,.82,.07,1.79,.3,2.27-.54,.48-.86-.13-1.6-.79-2.14-1.56-1.29-2.7-2.91-3.81-4.59-.85-1.3-1.79-3.11-2.97,.03-.48,1.28-2.01,.6-3.02-.13-1.13-.82-1.57-2.57-.75-2.99,3.16-1.61,.53-2.81-.13-3.98-.74-1.31-1.25-2.31,.92-1.93,3.34,.58,6.24-.81,9.16-1.92,5.31-2.01,6.49-5.23,4.16-10.54,4.17,4.03,4.15,6.62-.76,10.36-2.07,1.58-2.99,2.69-.5,4.2,7.77,4.71,13.9,11.87,22.69,15.05,.73,.26,2.38,.12,1.83,1.56-.27,.72-1.46,1.36-2.59,.91-.31-.12-.6-.28-.91-.4-.6-.24-1.33-.8-1.84-.3-.86,.86,.28,1.37,.63,2,.37,.67,1.39,1.5,.58,2.05-.65,.43-1.44-.63-1.77-1.38-1.46-3.36-4.34-4.67-7.54-5.95-3.96-1.58-7.88-3.41-11.23-6.19,3.6,.33,6.4,2.63,9.63,3.87,.51,.2,1.09,.89,1.61,.11,.07-.1-.56-.72-.92-1.03-4.28-3.68-8.68-7.18-13.45-10.22-1.5-.96-2.97-1.46-4.68-1.08-.74,.17-1.82-.1-2.09,.92-.25,.97,.71,1.37,1.25,1.95,2.43,2.63,6.21,3.11,8.77,5.53-.82,2.36,1.38,3.13,2.43,4.47,.82,1.05,1.81,1.94,1.71,3.45-.14,2.13-1.59,3.01-3.78,1.79-3.4-1.89-7.07-1.58-10.68-1.89-.61-.05-1.44-.28-1.61,.59-.07,.35,.37,.85,.67,1.21,2.78,3.3,5.56,6.61,8.7,9.59,1.39,1.32,2.96,2.07,4.88,2.16,.99,.04,2.11,.1,2.78,.9,1.23,1.48-2.56,1.38-1.05,3.01,.78,.84,1.77,1.49,2.55,2.34,.25,.27-.23,.74-.57,.47-1.48-1.16-3.87-.25-4.94-1.69-3.47-4.64-9.06-6.01-13.49-9.12-1.88-1.32-4.32-1.83-5.64-3.94,2.49,0,4.19,1.81,6.29,2.71,.85,.36,1.94,1.43,2.61,.48,.52-.73-.53-1.81-1.13-2.56-1.24-1.55-2.62-2.98-3.9-4.49-1.16-1.36-2.38-3.77-4.12-2.81-1.81,1-.83,3.54-.33,5.42,.12,.47,.46,.87,.7,1.31-1.03,.87-1.81,1.88-2.26,3.19-1.18,3.47-4.01,4.58-7.34,5.03-2.42,.33-4.2-.37-5.41-2.55-2.58-4.64-5.17-9.28-6.83-14.36-.25-.77-.64-1.82-.33-2.4,2.14-4.01-1.06-4.81-3.48-6.24-16.59-9.74-34.86-16.12-51.41-25.93-1.7-1.01-3.67-1.65-4.53-3.68Z"/>
      </g>
    </g>
  </g>
</svg>