<?xml version="1.0" encoding="UTF-8"?>
<svg xmlns="http://www.w3.org/2000/svg" viewBox="0 0 194.5 122.57">
  <g id="a" data-name="Layer 1"/>
  <g id="b" data-name="Layer 2">
    <g id="c" data-name="Layer 1">
      <g>
        <path d="M168.55,116.66c-4.71,2.58-10.07,1.74-15.07,2.85-7.16,1.59-14.41,2.44-21.81,1.63-2.95-.32-6.02-.2-8.98,.19-18.34,2.44-36.56,.89-54.78-1.28-1.15-.14-2.32-.32-3.43-.63-3.24-.9-5.69-2.65-6.6-6.13-.98-3.72,1.05-6.4,3-9.11,.32-.45,.78-.93,1.47-.05,1.55,1.98,1.71,2.01,3.35,.55,1.49-1.33,2.86-1.5,4.92-1.25,5.13,.63,10.23-.88,15.39-1.08,1.82-.07,3.66-.73,5.45-.59,5.13,.41,8.01-3.59,11.8-5.76,1.01-.58,1.06-1.68-.26-2.26-1.07-.47-2.23-.96-3.38-.56-3.96,1.39-4.55-1.23-5.01-4.07-.31-1.97-.8-3.94-.9-5.93-.93-20.19-9.44-38.34-15.44-57.15-.93-2.9-2.64-5.6-4.24-8.23-2.46-4.06-5.91-4.54-11.56-1.69-3.06,1.54-5.52,3.99-8.69,5.51-2.77,1.33-4.22,1.24-5.33-1.6-.12-.31-.31-.59-.5-.86-.54-.8-.7-2.4-1.67-2.23-1.31,.23-.83,1.9-1.15,2.93-.66,2.11-.02,4.7-2.81,5.95-1.6,.72-3.05,1.29-4.74,.64-1.09-.41-2.2-.8-3.22-1.34-5.19-2.75-8.01-7.26-7.23-11.46,.74-3.96,6.63-8.49,11.64-8.94,.66-.06,1.62-.29,1.95,.04,3.39,3.4,5.35,.13,7.71-1.51,1.09-.75,2.28-1.39,3.49-1.94,5.66-2.56,8.1-1.51,10.35,4.35,.48,1.26,.2,3.31,2.65,2.59,.51-.15,.75,.18,1.06,.65,.85,1.28-3.19,.21-.9,1.97,1.15,.89,2.19-.3,3.18-.3,2.46,.02,4.88,.38,7.34-.29,.35-.09,3.4-.33,1.45,2.4-1.21,1.68,.74,3.64,2.03,4.63,4.01,3.09,5.28,7.6,6.49,12,1.27,4.6,3.42,8.64,5.95,12.57,2.46,3.82,4.36,7.88,5.18,12.36,.49,2.67,.23,5.41-.99,7.83-1.48,2.93-1.21,5.79-.41,8.74,1.39,5.16,2.6,10.37,2.63,15.73,.01,3.04,1.42,4.06,4.24,4.23,1.83,.11,4.59-.75,5.09,1.85,.46,2.39-1.37,4.27-3.17,5.9-8.87,8.04-19.48,8.9-30.66,7.57-.98-.12-2.03-.25-2.95,0-1.81,.49-4.59-.24-5.05,2.28-.51,2.75,1.81,4.28,4.06,4.96,4.14,1.24,8.19,2.89,12.53,3.33,4.64,.47,9.29,1.07,13.93,1.04,7.68-.05,15.27,1.26,22.92,1.34,14.62,.16,29.27,.89,43.77-1.86,1.95-.37,3.98-.32,5.97-.46l-.06-.07ZM43.46,16.33c-.02-2.68-.57-5.26-1.41-7.79-.43-1.3-1.1-2.66-2.67-2.54-4.12,.3-6.95,2.81-9.31,5.94-2.01,2.67-.53,5.17,.8,7.38,1.67,2.76,4.51,4.31,7.41,5.61,.39,.18,1.07,.21,1.38-.02,.77-.56,.12-1.12-.23-1.63-1.03-1.48-2.68-2.56-3.14-4.4-.14-.55,.13-1.35,.49-1.84,.65-.88,1.06,.05,1.53,.39,2.2,1.59,1.48-.1,1.35-1.19-.09-.75-1.04-1.84-.13-2.14,.81-.27,.9,1.12,1.18,1.84,.3,.77,.54,1.56,.83,2.34,.21,.56,.21,1.49,1.14,1.22,.73-.22,.64-1.04,.69-1.68,.04-.5,.05-.99,.08-1.49Zm7.48-6.48c-.03,.33-.08,.66-.08,.99,0,.97-.42,2.33,.47,2.76,1.18,.56,1.5-.95,2.08-1.66,1.05-1.29,1.86-2.76,4.03-1.84,2.93,1.25,3.04-.98,3.01-2.84-.06-4.11-3.46-6.17-7.13-4.39-1.49,.72-2.88,1.64-4.32,2.47-2.55,1.47-3.25,3.61-2.36,6.36,.3,.93,.43,2.51,1.26,2.47,1.22-.06,.56-1.55,.66-2.39,.17-1.31,.05-2.66,.69-3.89,.33-.63,.89-1.09,1.57-.79,.27,.12,.38,.83,.39,1.28,.01,.49-.17,.98-.26,1.47Zm43.66,46.11c.16-2.18-.38-4.22-1.44-6.11-.22-.39-.69-.63-1.04-.94-.14,.44-.46,.91-.38,1.31,.51,2.56,1.08,5.11,1.68,7.66,.1,.44,.43,.82,.65,1.22,.18-.39,.45-.77,.51-1.18,.09-.64,.02-1.3,.02-1.96Z"/>
        <path d="M40.88,106.95c-6.43,.84-11.61-2.83-15.44-8.48-2.68-3.95-1.23-6.28,3.46-6.49,5.68-.26,5.65-.27,6.82-5.92,1.45-7.05,3.84-13.79,6.96-20.26,.9-1.86,1-3.38,.49-5.57-1.03-4.39-2.61-9.03,.27-13.53,.98-1.54,.02-2.17-1.57-1.58-3.11,1.16-6.29,2.2-8.82,4.55-1.27,1.18-2.84,3.31-4.51,1.46-1.37-1.52,.24-3.41,1.51-4.73,2.08-2.14,2.65-4.95,3.57-7.6,.26-.76,.4-1.52,.24-2.41-.61-3.4,.97-6.31,3.83-7.43,1.4-.54,1.77,.11,1.73,1.38-.04,1.23-.47,2.32-1.24,3.2-2.85,3.27-3.09,7.69-5.05,11.34-.32,.6-.5,1.3,.02,1.85,.57,.61,1.23,.16,1.8-.1,3.48-1.59,6.95-3.2,10.41-4.83,2.89-1.36,3.61-4.24,4.56-6.87,.61-1.69-.82-1.38-1.76-1.37-1.42,.02-2.4-.74-2.28-2.06,.22-2.36,1.14-4.52,3.28-5.84,1.08-.67,1.98-.47,3.06,.53,3.39,3.13,2.77,2.94,1.98,7.94-.95,6.09-5.5,10.11-7.36,15.56-.37,1.09-1.03,2.1-1.32,3.21-.24,.93-.36,2.29,.74,2.59,.79,.21,.92-1.18,1.43-1.78,1.27-1.51,1.36-5.22,3.82-4.09,1.46,.68-.61,3.91-1.52,5.64-5.63,10.58-8.55,21.97-10.61,33.64-.49,2.77-.39,5.64-.76,8.43-.14,1.07-.57,2.58-1.81,2.65-1.34,.07-1.02-1.43-1.16-2.33-.3-1.9-1.73-2.51-3.25-2.38-1.6,.14-3.47,.23-4.58,1.6-.79,.97,.24,1.9,.95,2.51,2.81,2.39,5.73,4.6,9.56,5.09,.99,.13,1.99,.27,2.98,.27,2.31,0,4.41,.72,6.46,1.67-1.99,.16-3.97,.32-6.9,.56Z"/>
        <path d="M168.6,116.73c4.85-1.66,9.7-3.31,14.55-4.98,.94-.32,1.91-.62,2.77-1.09,3.4-1.87,6.73-3.89,6.57-8.48-.17-4.92-3.65-9.76-7.93-11.12-.76-.24-1.62-.15-2.43-.25-.91-.11-2.51,1.64-2.57-.34-.04-1.27,1.93-.67,2.99-.61,5.68,.32,10.66,4.52,11.77,9.81,.9,4.33-1.65,8.97-6.91,11.42-5.98,2.79-12,5.69-18.87,5.56l.06,.07Z"/>
        <path d="M.75,30.12c.31,.12,.63,.21,.93,.35,7.28,3.62,14.87,6.61,21.85,10.83,.77,.47,2.2,.94,1.57,2.03-.65,1.12-1.78,.21-2.56-.33-6.58-4.57-13.99-7.59-21.01-11.36-.57-.31-1.09-.75-1.51-1.24-.12-.13,.34-.41,.74-.29Z"/>
        <path d="M9.61,55.64c-.52,.11-.77-.05-.75-.44,.02-.31,.13-.66,.31-.91,.6-.85,1.5-1.31,2.48-1.53,1.57-.35,2.75-1.9,4.57-1.43-.82,1.66-2.69,1.53-4.02,2.31-1.01,.59-1.95,1.23-2.59,2Z"/>
        <path d="M10.78,47.68c-1.34-.39-2.91-.85-4.47-1.3,1.69-1.04,3.36-.19,5.02,.11,.62,.11,1.2,.44,1.79,.67-.51,.95-1.37,.36-2.34,.53Z"/>
      </g>
    </g>
  </g>
</svg>