<?xml version="1.0" encoding="UTF-8"?>
<svg xmlns="http://www.w3.org/2000/svg" viewBox="0 0 195.93 91.44">
  <g id="a" data-name="Layer 1"/>
  <g id="b" data-name="Layer 2">
    <g id="c" data-name="Layer 1">
      <path d="M195.55,78.86c-7.22,1.44-15,.47-22.35,1.19-5.11,.5-10.27,.48-15.35,1.19-10.38,1.44-20.75,2.62-31.25,2.01-1.97-.11-3.06-.47-1.87-2.56,2.44-4.29,2.48-8.89,2.01-13.6-.17-1.66,0-3.34,.55-4.94,2.39-7.03,4.51-14.21,9.57-19.94,1.99-2.25,3.36-4.38,.66-7.07-.48-.48-1.15-1.73-.47-2.18,.85-.57,1.07,.85,1.67,1.28,.77,.55,1.09,2.05,2.21,1.71,1.47-.45,.93-1.92,.83-2.99-.51-5.34-2.02-10.47-3.82-15.47-1-2.79-1.99-5.29-.15-8.02,.26-.39,.57-.96,.06-1.31-.72-.5-1.11,.26-1.62,.61-.4,.27-.89,.41-1.34,.61-.73,3.4-.47,6.3,1.86,9.41,1.98,2.65,2.98,6.28,2.17,9.93-.1,.45,.03,1.31-.07,1.33-.9,.17-.9-.67-1.13-1.2-1.88-4.41-3.76-8.83-5.6-13.26-1.14-2.76-.32-4.8,2.4-6.05-.72-1-.14-1.88,.24-2.8,.36-.87,1.25-1.86,.18-2.67-1.31-.99-2.54-.21-3.58,.69-.9,.78-1.54,1.84-1.59,3.03-.17,4.35-1.53,2.49-2.93,.6-.2-.27-.42-.53-.66-.75-.75-.68-1.58-1.48-2.57-.59-.87,.78-.72,1.88-.03,2.71,.84,1.02,1.75,2.03,2.81,2.81,3.38,2.48,5.55,5.98,6.69,9.74,2.32,7.66,1.87,10.59-3.94,14.14-4.06,2.48-8.22,4.99-11.16,8.96-.69,.93-1.99,1.83-3.04,1.34-2.54-1.19-5.02-2.61-7.29-4.25-1.47-1.06-.98-3.07-1.15-4.69-.18-1.75,.71-3.73-1.16-5.07-4.55-3.26-6.04-8.64-8.93-13.04-1.56-2.37-2.49-4.81-1-7.93,1.23-2.59-.2-3.88-2.78-2.69-1.8,.83-1.9,.83-1.59-1.09,.25-1.56-.3-3.14-2.23-3.16-1.85-.02-2.39,1.54-2.71,3.06-.17,.8-.16,1.64-.29,2.45-.21,1.35,1.6,3.29-.25,3.9-1.53,.5-2.18-1.64-2.84-2.96-.22-.45-.37-.94-.66-1.34-.35-.5-.62-1.34-1.48-.86-.63,.35-.76,1.05-.74,1.73,.11,3.53,2.59,5.48,5.32,6.6,2.13,.88,3.76,2.14,5.15,3.74,3.09,3.56,4.71,8.02,7.07,12.03,.53,.9,.23,1.55-.36,2.22-1.65,1.9-3.21,3.91-6.25,3.03-2.88-.84-5.59,.26-8.32,.96-3.87,.99-7.75,1.96-11.57,3.1-1.82,.54-2.88,.26-3.29-1.7-.76-3.58-1.57-7.16-2.34-10.74-.18-.82-.27-2.09,.66-2.11,3.27-.06,1.51-2.62,1.89-3.87,.83-2.8-1.44-2.59-3.27-2.64-1.73-.05-1.33-1.63-1.75-2.6-.34-.77-.59-1.7-1.57-1.7-1,0-1.24,.93-1.47,1.73-.54,1.83-.42,4.35-3.66,2.22-.91-.6-.86,.95-.5,1.64,.98,1.89,3.14,3.21,3,5.61-.29,4.99-.68,9.97-1.11,14.94-.16,1.87-1.3,2.17-2.8,1.31-3.04-1.73-6.35-3.32-8.42-6.13-1.44-1.95-2.9-3.11-5-4.39-3.39-2.06-6.57-5.09-8.21-9.11-1.28-3.14-3.35-5.69-5.72-8.07C20.91,10.42,12.65,6.56,5.51,1.13c-.64-.49-1.5-.7-2.29-.95C1.97-.22,.92,.01,.26,1.27c-.75,1.41,.3,2.12,1.13,2.93,1.22,1.2,3.09,1.03,4.38,2.27,7.36,7.07,13.77,14.93,19.33,23.46,1.07,1.65,3.22,4.59-1.75,4.26-.97-.06-1.73,.87-2.39,1.66-1.47,1.78-1.92,5.38-5.73,3.24-.17-.1-2.22,1.33-2,2.41,.59,2.97-1.27,3.38-3.34,3.79-.84,.17-1.73,.42-1.49,1.52,.2,.94,1.21,1.44,1.92,1.3,2.32-.44,2.9,.32,2.31,2.52-.22,.82,.27,1.7,1.17,1.97,1.41,.42,1.58-.74,1.89-1.68,.94-2.87,1.37-1.59,1.81,.21,.27,1.09,1.21,1.59,1.35,.2,.46-4.42,2.22-2.42,3.99-1.01,3.51,2.81,6.28,6.36,9.88,9.14,7.47,5.74,12.09,13.56,14.63,22.59,.49,1.75,.28,3.77,1.05,5.34,1.35,2.79,3.18-.63,5.17,0,2.13,.69,4.07,1.97,6.56,2.02,14.09,.29,28.08,2.14,42.22,2.03,7.49-.06,14.92-.85,22.4-.9,4.79-.03,9.64,.07,14.45-.45,19.23-2.07,38.05-6.11,56.73-10.88-.41-.84-.19,.54-.38-.35Zm-60.78-43.64c1.85,.08,1.44,1.89,2.01,2.73,.05,1.06-.46,1.48-1.18,1.27-1.24-.35-1.81-1.36-1.9-2.59-.05-.71,.36-1.44,1.07-1.4Zm-42.29-15.01c-.78,0-3.76-3.52-3.56-4.29,.06-.23,.38-.39,.59-.58,.72-.04,3.57,3.58,3.49,4.38-.03,.36-.13,.49-.52,.49Zm32.7,24.65c-.16-.62,.97-3.18,2.71-3.99,.55-.26,.96-1.16,1.66-.66,1.22,.89,1.87,2.23,2.34,3.23,.08,1.29-.32,1.95-.88,2.61-.96,1.11-1.72,2.44-2.81,3.4-1.08,.95-1.02,3.76-2.97,2.89-1.86-.83-1.69-3.39-2.13-5.29,1.36-.06,2.69,.24,2.09-2.18Zm-3.77,7.46c.19-.35,.52-.5,.84-.27,1.45,1.09,3.05,2.13,2.87,4.29-.04,.47-.27,1-1.23,1-.36-.05-2.79-4.45-2.48-5.02Zm-62.19-8.63c.39-4.91,.83-10.37,1.28-15.83,.05-.61-.02-1.45,.82-1.52,.82-.07,1.08,.73,1.17,1.37,.32,2.47,.53,4.96,.84,7.43,.17,1.31,.31,2.67,.75,3.9,.55,1.53,2.17,2.94,1.54,4.56-.57,1.45-3.05,.65-3.98,2.33-.37,.68-1.37,1.18-2.17,.61-.74-.53-.56-1.48-.26-2.85ZM27.69,20.94c1.43-.3,3.68,2.5,3.63,4.49-.16,.32-.25,1.23-.58,.87-1.35-1.49-2.49-3.16-3.67-4.8-.02-.03,.37-.51,.61-.56Zm-2.25,5.29c-3.56-4.34-6.68-9-9.73-13.7-.24-.38-.53-1.05-.37-1.3,.55-.83,1.16-.1,1.66,.2,2.25,1.37,4.46,2.8,6.7,4.19,1.2,.75,2.11,1.62,1.59,3.32-1.38,2.39,.73,4.25,1.23,6.4,.14,.61,.47,1.69,.31,1.78-.74,.39-1.02-.44-1.39-.89Zm-3.74,14.61c-.28-1.85,.61-3.18,2.09-4.12,.36-.23,1.03-.28,1.4-.09,.74,.38,.58,1.12,.19,1.67-.83,1.19-1.73,2.33-2.53,3.4-.81,.08-1.08-.38-1.15-.86Zm97.41,41.71c-.32-.06-.74-.07-.98,.09-7.55,5.04-16.04,2.5-24.52,2.71-12.01,.3-24.49-.75-36.97-.18-5.92,.27-6.16-.3-8.11-5.74-3.19-8.87-7.25-17.1-15.78-22.33-2.93-1.8-5.26-4.57-7.83-6.94-.29-.26-.56-.96-.41-1.18,.3-.47,.9-.26,1.31,.02,3.32,2.18,7.59,3.39,9.88,6.53,2.13,2.92,4.09,.76,6.06,1,.84,.1,.79-.72,.12-1.31-4.88-4.23-5.65-10.74-8.78-15.95-.32-.53-.62-1.44,.05-1.81,.63-.35,1.13,.39,1.5,.91,.29,.4,.51,.85,.76,1.29,.72,1.25,.97,3.47,2.57,3.26,1.3-.17,1.56-2.23,1.85-3.72,.51-2.65,2.01-1.52,3.23-.61,4.26,3.17,8.11,6.92,12.92,9.33,1.3,.65,1.03,1.52,.2,2.37-4.06,4.08-3.76,9.21-3.5,14.34,.02,.42,.23,.83,.35,1.25,.21-.43,.34-.93,.66-1.26,4.99-5.24,8.23-11.92,14.22-16.4,6.18-4.63,13.16-6.16,20.55-6.63,1.65-.11,3.41,.52,1.96,2.57-1.85,2.62-.65,6.76-4.33,8.39-.2,.09-.26,.53-.38,.8,2.93,1.21,1.5,4.5,3.04,6.35,.29,.35,.79,.74,1.18,.73,.55,0,.7-.65,.56-1.1-1.95-6.27,.92-10.91,5.13-15.03,2.81-2.75,2.76-6.9,5.04-9.87,.43-.56-.09-1.92,1.23-1.7,1.03,.17,1.84,.89,1.99,1.97,.11,.8-.06,1.65-.18,2.47-.55,3.8-.56,7.61-.14,11.43,.07,.66,.06,1.33,.15,1.99,.09,.71,4.53,6.64,4.89,6.6-.73-2.17,.45-4.26,.27-6.4-.11-1.28-1.44-2.87-.36-3.71,1.41-1.1,2.65,.64,3.82,1.39,4.74,3.08,8.33,7.38,10.36,12.5,2.27,5.72,3.62,11.83,.97,17.96-.86,1.99-1.64,4.17-4.56,3.63Zm22.04,4.93c-3.1,.24-6.2,.42-10.27,.69,.03,0-1.31,.19-1.18-1.16,.08-.86,1.34-.51,2.09-.55,3.1-.18,6.21-.32,9.32-.48,.64-.03,1.48-.09,1.53,.69,.05,.89-.91,.77-1.49,.82Zm39.88-6.25c-1.72,.48-3.47,.85-5.21,1.27-.5-.18-1.3-.3-1.32-.52-.09-.73,.55-1.09,1.18-1.23,1.75-.38,3.53-.62,5.31-.21,.4,.09,.45,.57,.04,.69Z"/>
    </g>
  </g>
</svg>