<?xml version="1.0" encoding="UTF-8"?>
<svg xmlns="http://www.w3.org/2000/svg" viewBox="0 0 191.08 145.24">
  <g id="a" data-name="Layer 1"/>
  <g id="b" data-name="Layer 2">
    <g id="c" data-name="Layer 1">
      <g>
        <path d="M35.5,47.87c.82-2.43,2.8-2.05,4.57-1.71,1.77,.33,1.76-.35,1-1.45-1.12-1.64-2-3.52-3.65-4.72-4.25-3.1-6.75-7.78-10.39-11.42-1.06-1.07-1.56-2.29-.41-3.5,1.39-1.46,2.37-.23,3.26,.77,3.87,4.34,8.52,7.2,14.34,8.2,2.51,.43,4.28,2.46,6.18,4.08,2.15,1.84,4.26,3.74,6.48,5.5,1.63,1.29,2.49,.5,2.42-1.32-.07-1.82-.57-3.63-.57-5.44-.01-4.18,2.92-5.94,6.72-4.16,4.72,2.21,8.58,11.08,6.84,15.86-.64,1.77-1.79,3.3-3.59,3.97-2.43,.9-1.87,2.26-.85,3.82,2.61,3.97,5.25,7.06,11.05,6.59,6.23-.5,12.66-.46,18.87,1.19,2.52,.67,3.81-1.71,5.81-2.34,.73-.23,1.66-1.08,2.16-.03,.43,.89-.48,1.58-1.29,1.75-3,.65-2.23,1.67-.38,2.9,.55,.37,1.17,.72,1.56,1.23,.53,.71,1.89,1.37,1.02,2.41-.58,.69-1.52-.17-2.18-.57-1.81-1.09-2.83-1.17-2.25,1.44,.19,.86,0,1.82-.93,2.06-1.38,.35-1.47-.95-1.88-1.8-2.75-5.72-3.37-6.08-9.53-4.96-2.12,.39-4.19,1.05-6.3,1.51-1.05,.23-2.34,1.58-3.06,.4-.47-.78,1.25-1.25,2.02-1.81,.39-.28,.88-.6,.53-1.14-.12-.19-.61-.15-.94-.2-.16-.02-.34-.04-.5,0-1.77,.45-4.09-1.19-5.24,.34-1.42,1.89,.62,3.73,1.58,5.34,7.5,12.6,14.76,25.31,20.37,38.9,1.29,3.12,3.52,5.57,6.3,7.58,4.29,3.1,8.61,6.21,11.65,10.66,.88,1.29,2.03,.82,3.12,.91,10.52,.84,20.95-.56,31.42-1.14,12.99-.73,25.78-2.7,38.47-5.45,.58-.13,1.26-.42,1.77,.24-.59,.29-1.15,.69-1.77,.84-12.81,3.01-25.72,5.47-38.84,6.73-8.61,.83-17.19,2.07-25.85,2.29-.66,.02-1.34,.12-1.96,.33-.42,.14-1.01,.51-1.05,.84-.04,.36,.37,.94,.74,1.15,1,.57,2.2,.84,3.1,1.52,.76,.57,.29,2.14-.25,1.87-2.11-1.08-3.7,1.04-5.68,.51-1.99-.54-4.33-3.28-6.03,.51-.03,.06-.65-.05-.91-.22-5.13-3.16-11.31-2.24-16.77-4.35-2.65-1.03-5.93-.57-8.92-.52-5.8,.11-11.33-.63-15.94-4.54-1.83-1.54-3.97-1.79-6.12-1.51-7.93,1.05-16.08,.28-23.84,2.18-7.42,1.81-14.95,2.94-22.37,4.64-5.01,1.15-5.27,2.53-1.6,6.34,.44,.46,1.18,.82,.58,1.52-.26,.3-.92,.38-1.38,.33-.65-.06-1.43-.14-1.88-.52-2.6-2.21-3.28-1.27-2.98,1.67,.04,.37-.38,.97-.74,1.14-.77,.38-1.23-.28-1.54-.84-.32-.57-.48-1.23-.72-1.85q-1.28-3.27-4.1-.89c-.51,.43-.92,.96-1.44,1.37-.23,.18-.82,.33-.89,.24-.26-.38-.57-.87-.53-1.29,.15-1.43,1.21-2.34,2.18-3.24,3.45-3.21,7.27-5.94,11.7-7.52,6.43-2.3,12.84-4.84,19.48-6.28,17.65-3.83,24.54-19.83,24.42-33.4-.06-6.84-1.44-13.57-3.78-20.04-.66-1.84-1.26-3.93-3.59-4.32-1.29-.22-3.46-.13-3.58,.91-.16,1.35,1.65,.36,2.56,.59,.3,.07,.78,.17,.83,.34,.16,.62-.4,.76-.84,.89-3.18,.97-6.41,1.84-9.56,2.92-5.28,1.8-5.93,2.79-5.97,8.28,0,.99,.02,2-.14,2.97-.07,.4-.59,.72-.91,1.08-.34-.33-.81-.6-.99-1-.51-1.1-.3-2.28-.15-3.44,.08-.61,.31-1.44-.55-1.62-.73-.15-1.18,.55-1.48,1.13-.7,1.32-1.29,2.7-1.98,4.03-.4,.77-1.06,1.52-1.94,1.11-.84-.38-.8-1.41-.57-2.22,.37-1.27,.72-2.58,1.34-3.74,1.09-2.07,1.79-3.75-1.71-3.56-.53,.03-.93-.32-1.02-.86-.09-.57,.31-.94,.77-1.14,.6-.26,1.25-.58,1.89-.6,6.57-.21,11.9-3.78,17.6-6.37,1.51-.68,3.1-1.21,4.7-1.63,1.44-.38,2.61-.68,1.73-2.59-.73-1.58-1.55-1.57-3.14-.98-7.15,2.62-12.75-.1-14.74-7.13-.68-2.39-1.06-4.96,1.63-6.65-.18,1.14-.5,2.29-.51,3.43-.08,6.45,7.09,11.39,12.45,8.63,.61-.31,1.35-.79,1.19-1.41-.2-.78-1.03-.55-1.67-.34-2.91,.95-3.3,.65-2.94,.18,1.98-2.61-2.4-1.64-1.57-2.48,2.08-2.1,.63-2.65-1-3.43-.5-.24-.77-.86-.19-1.16,2.92-1.53,.53-2.01-.53-2.65-1.66-1.01-3.51-.82-5.33-.67ZM106.3,126.46c.84,.07,1.84,.15,2.28-.61,.72-1.21-.49-1.72-1.21-2.32-2.3-1.92-4.59-3.85-6.95-5.69-1.46-1.14-2.79-2.32-3.49-4.12-3.71-9.57-9.48-18.07-14.13-27.15-5.02-9.79-10.97-19.04-16.65-28.45-1.66-2.74-4.06-4.85-6.02-7.32-2.14-2.7-4.77-1.39-6.78-.54-2.11,.88-2.41,3.29-1.71,5.64,.52,1.78,1.19,3.47,2.12,5.05,3.94,6.7,5.77,14.14,7.17,21.64,1.16,6.21,1.75,12.53,.16,18.84-.44,1.74-.7,3.71,1.35,4.86,.82,.46,.85,1.17,.28,1.59-2.85,2.05-3.82,5.53-6.57,7.9-3.46,2.99-8.89,4.28-10.02,9.76-.09,.42-1.56,.09-1.31,.99,.18,.66,1.13,.36,1.75,.3,5.14-.44,10.26-1.19,15.44-1.17,14.77,.05,29.59-2.76,44.3,.82ZM70.55,45.05c-.34-2.77-.7-5.93-2.82-8.46-1.53-1.83-3.48-3.5-5.97-2.54-2.72,1.04-1.56,3.54-1.38,5.6,.2,2.14,.48,3.9,3.07,1.73,.52-.43,1.24-.81,1.79-.4,1.02,.77-.04,1.33-.34,2.02-.92,2.14-.35,3.38,2.1,4.28,1,.37,.77,.74,.41,1.38-.33,.58-1.76,.92-.71,1.79,.64,.53,1.55-.09,2.22-.6,1.5-1.13,1.71-2.73,1.62-4.81Zm26.6,82.69v.05c-1.83,0-3.66-.02-5.49,.02-.48,0-.95,.21-1.42,.33,.16,.56,.66,.51,1.07,.55,2.48,.3,4.95,.7,7.44,.8,1.45,.06,2.97-.12,4.28-.96-1.04-1.48-2.59-.5-3.88-.76-.64-.13-1.33-.02-1.99-.02Zm-6.64,4.06c1.23-.55,3.35,.66,3.43-.76,.06-.99-2.24-.52-3.5-.61-.66-.05-1.32-.08-1.98-.03-.48,.04-1,.28-.95,.84,.05,.6,.64,.68,1.12,.68,.66,0,1.31-.08,1.87-.12Z"/>
        <path d="M29.77,17.47c.31-5.63,.76-11.25,3.62-16.32,.3-.52,.73-1.44,1.34-1.06,.63,.39-.07,1.19-.33,1.71-2.18,4.41-2.61,9.22-3.34,13.96-.1,.64-.47,1.56,.16,1.85,1.01,.48,1.3-.64,1.76-1.26,.39-.53,.72-1.13,1.21-1.55,.51-.43,.88-.17,.72,.49-.67,2.85-4.18,4.17-4.06,7.58,.02,.45-1.02-.38-1.05-.94-.09-1.49-.03-2.98-.03-4.47Z"/>
        <path d="M22.61,33.75c-6.28,.84-11.77,3.45-16.57,7.52-1.65,1.4-3.18,2.93-4.79,4.36-.33,.3-.83,.74-1.22,.07-.1-.17,.11-.64,.31-.85,5.92-6.18,11.99-12.08,21.25-12.66,1.6-.1,.86,.96,.92,1.64l.1-.09Z"/>
        <path d="M22.51,33.83c.66,.34,2.07,.41,1.54,1.4-1.31,2.46-2.95,4.74-4.47,7.09-1.57-1.64,.47-2.51,.86-3.7,.35-1.07,1.18-1.97,1.69-3,.28-.56,.32-1.24,.47-1.87l-.1,.09Z"/>
      </g>
    </g>
  </g>
</svg>