<?xml version="1.0" encoding="UTF-8"?>
<svg xmlns="http://www.w3.org/2000/svg" viewBox="0 0 147.59 160.82">
  <g id="a" data-name="Layer 1"/>
  <g id="b" data-name="Layer 2">
    <g id="c" data-name="Layer 1">
      <g>
        <path d="M79.41,85.02c.33-7.61-.85-14.51-1.77-21.43-.53-3.98-.8-3.94-4.21-1.82-1.33,.83-2.33,2.34-4.16,2.26,.1-2.05,2.19-2.19,3.26-3.31,1.02-1.07,2.38-1.81,3.54-2.76,.63-.51,1.41-1.18,.82-2.05-.56-.84-1.51-.5-2.26-.15-3.91,1.84-7.97,3.4-11.5,5.97-.81,.59-1.68,1.09-2.53,1.6-.41,.25-.94,.59-1.32,.11-.35-.44,.04-.91,.37-1.23,1.9-1.88,3.99-3.52,6.37-4.78,8.87-4.68,18.3-7.89,27.97-10.39,2.32-.6,4.12-2.15,6.38-2.74,1.32-.34,2.66-.73,3.76,.38,1.17,1.18-.36,2.08-.47,3.14-.18,1.74-.48,1.85-2.02,.73-2.29-1.66-4.51-.6-4.44,2.12,.06,2.51-.59,2.29-2.04,1.06-2.7-2.29-5.35-1.03-7.9,.16-2.6,1.22-4.4,3.53-6.61,5.28-1.44,1.14-1.08,2.68-.98,4.15,.09,1.33,.25,2.66,.5,3.96,1.06,5.42,1.15,5.65,6.54,6.14,6.55,.59,12.89,1.76,18.36,5.66,1.34,.96,2.07-.17,3.08-.25,2.47-.19,5.26-2.04,7.35,.91,.35,.5,.53,1.74-.24,1.27-4.86-2.97-4.34,2.74-6.58,3.89-.11,.06-.11,.31-.2,.45-.73,1.05-.67,3.37-2.03,3.05-1.68-.39-.25-2.18-.21-3.35,.06-1.83-.83-2.77-2.53-3.12-6.21-1.28-12.26-.22-18.27,1.25-1.85,.45-1.97,1.99-1.9,3.58,.22,4.85-.74,9.6-1.13,14.39-.53,6.58-3.4,11.83-7.71,16.35-4.93,5.17-9.58,10.52-13.83,16.27-2.32,3.14-5.79,4.93-9.17,6.75-.73,.39-1.43,.86-2.12,1.32-.55,.36-1.41,.86-1.15,1.42,.35,.76,1.2,.17,1.75-.08,8.67-3.97,17.87-6.51,27.1-8.38,12.27-2.49,23.9-7.13,36.12-9.61,9.15-1.86,18.35-3.28,27.74-2.24,2.75,.31,5.31,.94,6.39,3.9,.14,.38-.02,1-.26,1.38-.34,.55-.84,.3-1.22-.06-5.05-4.85-11.37-3.85-17.41-3.53-9.19,.49-18.08,2.89-26.88,5.39-14.24,4.06-28.38,8.49-42.52,12.88-2.33,.72-4.81,1.32-6.54,3.4-1.13,1.36-2.88,1.56-4.56,1.74-3.17,.35-6.18,1.31-9.17,2.36-2.21,.78-2.58,2.38-1.92,4.4,1.19,3.61,3.78,4.97,7.48,3.99,3.56-.94,7.19-1.28,10.85-.83,.96,.12,2.18,.36,2.03,1.67-.16,1.4-1.28,1.25-2.29,.91-1.36-.47-2.56-.81-3.02,1.2-.21,.93-1.23,1.37-1.98,.83-2.53-1.81-5.17-.51-7.76-.46-4.51,.09-8.25-1.03-9.96-5.76-.88-2.46-2.32-3.01-5-2.27-5.35,1.48-10.78,2.04-15.99-.95-5.79-3.32-7.37-8.39-4.42-14.36,2.13-4.3,5.12-7.75,9.16-10.31,1.32-.84,2.43-1.62,1.06-3.5-3.78-5.18-2.93-11.04-2.14-16.85,.25-1.85,1.54-3.79-1.34-4.98-1.37-.57-.68-2.04-.08-3.05,1.54-2.61,1.33-5.17-.5-7.44-1.76-2.18-.7-4.71-1.26-7.01-.27-1.13-.59-2.26-.98-3.35-1.46-4.15-2.79-4.67-6.63-2.58-.58,.31-1.1,.75-1.62,1.16-.64,.51-1.28,1.25-2.15,.67-.91-.61-.41-1.47-.1-2.23,.55-1.37,2.09-2.36,.47-4.33-.91-1.1,.4-2.81,2.14-3.13,.8-.15,1.66,.07,2.49,.03,.98-.04,2.5,.18,2.84-.34,.78-1.18-.66-1.96-1.3-2.85-.53-.74-1.93-1.36-1.02-2.38,.99-1.11,2.24-.2,3.08,.53,1.77,1.53,3.49,3.38,3.96,5.61,.95,4.51,3.99,8.04,5.23,12.37,.63,2.21,1.63,1.54,2.71,.35,.78-.86,1.71-1.62,2.33-2.58,2.01-3.13,4.35-4.56,7.82-2.01,1.25,.92,2.48,.32,3.77-.17,3.88-1.48,7.57-3.49,11.64-4.46,1.8-.43,2.25-1.88,2.54-3.35,1.11-5.57,1.85-11.17,1.19-16.87-.07-.61,.15-1.49-.73-1.65-.72-.13-1.15,.52-1.55,1.05-1.42,1.87-2.99,3.61-4.89,4.97-1.67,1.19-3.54,2-5.61,1.03-2.24-1.06-2.91-3.1-2.95-5.38-.07-4.31,1.26-8.24,3.78-11.68,2.21-3.02,4.3-3.41,7.21-1.1,3.97,3.15,6.84,6.77,7.17,12.45,.41,6.93-1.49,13.49-1.83,20.26-.09,1.89-1.5,2.04-2.77,2.2-3.85,.47-7.39,1.99-11.04,3.1-3.72,1.13-4.36,2.36-1.63,5.11,2.94,2.97,2.62,6.09,2.41,9.49-.05,.73,.26,1.88-.8,1.97-.72,.06-.59-1.02-.81-1.61-1.64-4.51-3.18-9.02-6.35-12.83-1.81-2.18-2.91-1.77-4.1,.23-1.19,2-2.46,4-3.29,6.16-.98,2.51-2.05,4.83-4.3,6.47-1.57,1.15-1.5,2.29,.49,2.67,4.19,.81,2.81,5.03,4.6,7.32,.45,.58-.2,1.74-1.16,1.83-2.96,.29-4.53,2.03-4.93,4.77-.5,3.37-.24,6.66,1.99,9.5,1.24,1.58,2.62,3.02,4.3,4.15,7.56,5.08,15.59,8.09,24.88,5.8,.91-.23,2.41-1.16,2.68-.36,.32,.94-1.34,1.23-2.16,1.24-6.13,.1-8,5.47-11.34,9.01-.32,.34-.56,.87-.15,1.3,.15,.16,.71,.19,.83,.06,4.17-4.91,11.08-4.41,15.93-8.14,3.83-2.94,6.88-6.1,9.68-10.22,4.23-6.22,7.75-12.76,11.49-19.21,3.46-5.97,4.79-12.38,4.03-18.65Zm-56.81,63.88c1.05,0,1.73,.08,2.38-.02,2.35-.36,5.75,.55,4.23-4.14-.49-1.51,1.09-2.93,2.81-3.66,2.47-1.06,4.69-2.59,6.3-4.78,1.6-2.17,1.16-3.29-1.6-3.45-3.89-.23-7.62-.9-11.02-2.82-2.61-1.47-4.73-1.02-6.66,1.14-1,1.12-2.1,2.14-3.08,3.26-2.68,3.04-3.42,6.6-1.75,10.21,1.65,3.58,4.86,4.85,8.37,4.25Zm60.13-72.29c.02,2.07,.53,4,3.08,3.17,3.96-1.28,8.05-1.8,12.1-2.54,.45-.08,.86-.4,1.29-.61-.39-.28-.75-.67-1.19-.82-3.92-1.42-8.06-1.84-12.15-2.39-2.2-.29-3.5,.77-3.14,3.19Zm-45.95-23.93c-.27,3.1,1.26,5.12,3.47,4.49,2.13-.61,3.63-2.19,5.08-3.76,.18-.19,.28-.66,.17-.86-.29-.52-.87-.49-1.29-.25-.71,.39-1.32,.96-2.02,1.36-1.49,.86-1.69-1.07-2.74-1.42-1.03-.34,.08-1.25,.55-1.82,.64-.77,2.68-1.09,1.99-1.95-.72-.9-2.47,.06-3.56,.78-1.17,.78-1.55,2.07-1.65,3.43ZM9.03,140.9c-.8-.02-1.2,.42-1.26,1.17-.12,1.67-.19,3.34,1.1,4.67,1.18,1.22,2.75,2.65,4.25,1.68,1.41-.92-.65-2.15-.86-3.34-.17-.97-.53-1.91-.82-2.85-.38-1.21-1.43-1.21-2.41-1.32ZM40.34,46.63c1.65-.7,3.63-.69,5.61-.77,.58-.02,.77-.45,.7-.99-.2-1.4-3.31-3.49-4.59-2.93-1.76,.77-2.86,2.19-3.02,4.15-.04,.49,.53,.73,1.31,.55Zm-23.79,35.62c-1.06-2.17-2.1-4.38-3.23-6.53-.19-.35-.83-.78-1.13-.69-.54,.15-.45,.8-.27,1.25,.92,2.26,1.85,4.51,2.82,6.75,.19,.45,.7,.85,1.14,.58,.33-.2,.41-.8,.67-1.35Z"/>
        <path d="M50.47,35.26c-.12-4.37-2.84-9.03-5.39-13.63-2.03-3.66-3.45-7.92-8.01-9.76-1.67-.67-1.22-2.58,.03-3.78,1.2-1.14,2.57-.98,3.37,.42,2.48,4.39,6.89,6.22,11.08,8.05,4.47,1.95,6.05,6.49,9.48,9.31,.77,.63,.57,1.9,.33,2.87-1.27,5.32,2.31,8.69,5,12.36,1.24,1.7,1.57,.8,1.84-.81,.3-1.81,1.87-2.9,3.58-2.93,1.75-.03,2.18,1.78,2.79,3.12,.55,1.21,.99,2.47,1.62,3.64,.67,1.25,1.5,2.41-.62,3.04-.46,.14-.95,.19-.58,.94,.42,.85,2.89,.76,1.4,2.31-.77,.8-2.08-.55-3.18-.8-1.78-.4-3.53-.93-5.31-1.27-6.48-1.22-10.8-4.74-12.48-11.3-.58-2.24-1.46-4.41-2.27-6.59-.16-.42-.75-1.09-.91-1.03-.8,.3-.51,1.08-.3,1.59,.96,2.24,.38,4.61,.69,6.9,.14,1.01-.19,2.29-1.32,2.31-1.37,.03-1.13-1.32-1.1-2.28,.01-.5,.09-.99,.26-2.67Zm-5.99-18.98c.1,.31,.13,.66,.3,.92,1.17,1.76,2.78,3.2,3.64,5.19,.33,.76,.93,1,1.2-.09,.26-1.02,1.3-2.08,0-3.09-1.53-1.18-2.51-3.08-4.58-3.53-.13-.03-.36,.39-.55,.6Z"/>
        <path d="M29.44,11.1c-.24,.66-.71,.39-1.14,.28-3.27-.87-5.93-2.69-8.1-5.26-.33-.39-.49-.87-.12-1.29,.15-.16,.66-.25,.8-.13,2.63,2.21,5.36,4.27,8.35,5.98,.11,.07,.14,.28,.21,.42Z"/>
        <path d="M28.18,0c.25,.17,.59,.28,.74,.51,.45,.69,.93,1.38,1.22,2.14,.45,1.18,1.98,1.78,1.76,3.21-.05,.29-.85-.08-1.18-.42-1.41-1.42-2.61-2.98-2.82-5.06-.01-.12,.19-.26,.29-.38Z"/>
      </g>
    </g>
  </g>
</svg>