<?xml version="1.0" encoding="UTF-8"?>
<svg xmlns="http://www.w3.org/2000/svg" viewBox="0 0 194.34 118.77">
  <g id="a" data-name="Layer 1"/>
  <g id="b" data-name="Layer 2">
    <g id="c" data-name="Layer 1">
      <g>
        <path d="M107.6,10.37c-.48-.13-1.06-.12-1.41-.41C95.06,.96,82.36,.76,69.21,3.43c-4.56,.92-9.03,2.31-13.55,3.44-6.21,1.55-11.83,4.3-17.06,8.01-7.06,5-14.12,10.07-20.42,15.93-7.88,7.34-12.6,16.47-13.51,27.59-.75,9.14,1.45,17.46,4.88,25.69,2.37,5.7,6.85,9.61,11.99,12.26,4.44,2.3,9.46,1.12,13.8-1.4,1.88-1.09,2.64-2.85,1.39-5.12-8.33-15.07-3.02-27.74,6.75-39.86,7.99-9.91,18.45-13.39,30.75-13.74,5.27-.15,9.92-.31,13.21,4.52,.09,.13,.24,.24,.38,.32,.66,.34,1.23,1.42,2.08,.52,.51-.54,.08-1.28-.27-1.82-1.89-2.94-3.75-5.91-6.2-8.44-.32-.33-.78-.66-.45-1.21,.04-.06,.57,.15,.84,.29,2.9,1.53,5.66,2.96,7.23,6.3,2.62,5.56,5.83,10.85,8.8,16.24,.3,.54,.65,1.5,1.23,1.24,.62-.27,.2-1.19,.04-1.82-.04-.16-.12-.31-.15-.48-.19-1.09-1.06-2.77,.09-3.08,.86-.24,.91,1.85,1.37,2.87,.44,.98,.31,2.17,1.66,2.79,.77,.35,.58-3.17,1.29-.29,1.43,5.8,3.45,11.45,3.68,17.55,.23,6.18,3.63,9.33,9.76,9.83,1.98,.16,3.96,.44,5.94,.55,2.45,.13,3.82-.76,3.24-3.56-.52-2.48-.21-4.99,.23-7.45,.51-2.84,2.23-4.78,4.79-6,1.4-.67,2.2-.05,2.58,1.33-2.43-.03-4.24,1.04-4.95,3.36-.77,2.55-1.01,5.22-.62,7.89,.4,2.74,1.9,4.54,4.75,5.02,.94,.16,2.09,1.02,2.73,.05,.4-.62-.77-1.32-1.27-1.96-1.3-1.68,.23-3.28,.99-3.76,1.25-.8,1.22-1.4,.62-2.27-1.73-2.56-1.88-5.52-2.34-8.41,2.95,1.39,3.49,4.68,5.43,6.85,.3,.34,.77,.54,1.16,.8,.16-.43,.33-.85,.47-1.29,.05-.15,.03-.33,.02-.5-.25-3.03,.17-6.27,3.57-6.67,3.12-.36,4.6,2.77,5.88,5.3,.91,1.8,1.23,3.79,1.32,5.78,.2,4.48,1.26,5.56,5.84,5.78,.83,.04,1.66-.04,2.49-.06-3.35,2.28-7.15,2.49-11.01,2.37-2.87-.09-5.69-.37-6.27,3.71-.17,1.19-1.5,2.4-3.06,1.8-1.41-.54-1.19-1.86-.7-2.98,.65-1.47,.89-2.73-1.31-2.59-7.82,.48-15.44-1.65-23.22-1.79-4.46-.08-7.23-2.9-8.75-7.03-.48-1.32-.16-3.6-3.07-2.04-1.5,.81-1.77-1.47-2.26-2.58-.24-.55,.24-.98,.77-.58,1.14,.85,1.88,.85,1.55-.77-2.08-9.95-6.34-18.47-15.8-23.46-2.17-3.2-5.26-4.99-8.97-5.78-.72-.15-1.76-.57-2.16,.35-.29,.67,.6,1.09,1.12,1.47,1.87,1.39,4,2.52,5.58,4.18,1.86,1.94,3.06,.63,4.49-.3-.11,1.1,1.8,1.82,.64,3.08-.94,1.03-2.03,.8-3.16,.2-1.89-1-3.66-2.05-5.34-3.49-4.45-3.82-9.09-7.06-15.7-4.84-9.79,3.28-17.44,9.31-23.62,17.33-.99,1.29-2.96,3.06-1.84,4.6,.72,.99,2.33-1.23,3.72-1.59,.16-.04,.33-.19,.46-.16,.45,.11,.88,.27,1.32,.41-.31,.57-.62,1.14-.93,1.71l-1.35,.68c-3.28,.77-5.96,2.3-6.73,5.86-.67,3.12-.93,6.39,.18,9.39,2.1,5.72,4.69,11.26,7.84,16.48,1.8,2.99,3.93,5.64,2.72,9.63-.65,2.16-3.08,4.85-1.8,6.28,1.47,1.63,4.7,.03,7.17,.29,1.15,.12,2.33,0,3.49-.07,.38-.03,1.34-.02,1.06-.37-.89-1.11-3.33-.13-3.44-2.73-.03-.79-1.3,.01-1.92,.46-.63,.45-1.05,1.62-1.97,1.12-1.21-.65,.08-1.8-.23-2.72-.45-1.35,.62-1.75,1.56-2.07,2.36-.8,4.74-1.42,7.24-1.78,6.2-.89,8.67-6.23,5.79-11.84-2.21-4.3-4.7-8.41-7.68-12.23-.52-.66-.95-1.65-.2-2.24,.94-.75,1.36,.38,1.86,.95,6.31,7.01,12.1,14.28,12.38,24.36,.04,1.42,.85,1.94,2.16,2.25,7.88,1.84,15.73,1.4,22.95-1.99,3.05-1.43,4.67-1.07,6.99,.65,1.38,1.02,3.1,2.9,4.81,1.88,1.91-1.13-.6-2.91-.31-4.48,.09-.47-.13-1.18,.12-1.4,.5-.44,.71,.27,.95,.58,1.36,1.74,3.17,1.43,5.03,1.23,16.82-1.87,32.01-8.66,47.09-15.72,1-.47,1.86-1.43,2.54-2.35,.63-.85-.25-1.08-.9-1.28,2.76-1.75,5.88-1.85,9-1.94l-.08-.07c.9,3.04,.26,4.85-2.63,5.49-5.26,1.16-9.97,3.66-14.8,5.79-8.1,3.57-16.3,6.69-24.89,8.84-1.05,.26-2.89,.33-2.57,1.65,.34,1.44,2.04,2.19,3.63,1.5,1.41-.61,2.8-1.1,4.33-.89,1.15,.16,2.8,.35,2.92,1.5,.22,2.08-2.1,.37-2.48,1.13-1.75,3.51-3.78,.83-5.84,.58-4.93-.59-9.78-2.03-14.82-1.59-.64,.06-1.51-.17-1.78,.47-.4,.95,.5,1.5,1.14,1.97,2.97,2.19,6.38,2.76,9.95,2.38,1.4-.15,3.44-1.26,3.41,1.03-.01,1.03-1.59,3.46-3.74,2.81-1.85-.56-2.96-.78-4.03,1.27-.67,1.29-1.69,.07-2.34-.59-1.83-1.85-4.05-2.8-6.57-3.32-1.44-.3-3.15-.69-4.13-1.65-4.29-4.2-9.25-2.97-14.07-1.88-4.08,.92-8.12,1.91-12.32,1.69-3.19-.17-4.4,1.5-4.17,4.35,.15,1.92-.43,2.48-2.21,1.9-.47-.16-.91-.41-1.39-.56-3.29-1.04-3.31-1.04-2.92,2.3,.09,.78,.66,1.72-.26,2.18-.6,.29-1.13-.52-1.62-.96-3.4-3.03-7.02-4.52-11.85-3.38-3.64,.86-7.61-.06-11.35,1.02-.77,.22-1.77,.05-2.29-.66-.74-1-.07-1.88,.6-2.65,2.16-2.51,2.97-5.56,3.19-8.75,.13-1.98-.81-2.95-2.73-1.63-8.19,5.63-16.75,4.29-24.61,.1-8.72-4.65-14.46-12.33-15.95-22.37-1.54-10.41-2.74-21.03,2.06-30.94,4.65-9.58,9.91-18.85,19.26-24.91,2.79-1.81,5.44-3.83,8.08-5.87C45.67,6.18,63.03,1.14,81.39,.07c9.29-.54,18.49,2.05,25.65,8.98,.32,.31,.35,.9,.51,1.37l.05-.05Zm42.1,60.94c-1.64,2.49,1.61,5.31-.54,7.79-.41,.47-.61,1.35,.2,1.58,.63,.18,1.17-.54,1.46-1.12,1.47-3,.75-5.69-1.21-8.19-.51-2.38-1.87-4.2-4.38-3.47-2.06,.59-1.84,2.88-1.66,4.7,.11,1.14,.39,2.26,.67,3.38,.12,.46,.38,1.16,.68,1.23,.78,.16,1.03-.61,1.21-1.19,.63-2,.75-4.37,3.57-4.7ZM12.42,92.54c-.07-.96-3.15-5.72-3.73-6.08-.64-.39-1.26-.32-1.81,.14-.56,.47-.74,1.08-.44,1.77,.87,1.99,2.09,3.76,3.54,5.36,.44,.48,1.03,.95,1.63,.26,.41-.48,.64-1.11,.82-1.44Zm26.79,2.35c-1.92,.67-2.49,2.13-2.44,3.89,.04,1.55,.81,2.57,2.47,2.27,1.42-.26,3.21-.73,2.92-2.58-.24-1.56-1.32-2.94-2.94-3.57Zm-15.22,4.41c-1.17,.17-3.27-.73-2.87,1.84,.22,1.41,4.33,2.59,6.19,2.13,1.26-.32,1.65-1.25,1.42-2.22-.55-2.34-2.73-1.14-4.13-1.67-.15-.06-.33-.04-.61-.08ZM3.62,67.04c-.82-1.77,1.11-4.48-1.06-6.59-1.44,2.45-.93,5.15-.51,7.63,.35,2.04-.83,5.48,1.6,5.76,1.23,.14-.53-3.71-.04-5.76,.04-.16,0-.33,0-1.03Zm61.28,41.35c.6-.32,1.84,.25,1.9-.93,.05-.92-1-1.33-1.8-1.3-.98,.04-2.25,.45-2.23,1.51,.02,1.03,1.32,.45,2.13,.73Z"/>
        <path d="M170.62,80.46c.14-1.79,1.25-3.07,2.41-4.25,5.57-5.65,12.17-9.76,19.47-12.78,.57-.24,1.57-.81,1.76-.28,.42,1.17-.87,.94-1.5,1.25-7.34,3.61-14.2,7.87-19.39,14.39-.17,.21-.37,.38-.6,.51-.74,.36-1.48,.73-2.22,1.09l.08,.07Z"/>
        <path d="M172.76,79.29c.23-.13,.43-.3,.6-.51,5.2-3.23,10.61-6.02,16.53-7.7,1.09-.31,2.84-1.15,3.17-.28,.48,1.29-1.41,1.29-2.31,1.69-5.27,2.35-10.68,4.39-15.68,7.33-.91,.53-1.83,.9-2.31-.53Z"/>
        <path d="M118.63,31.32c-1.4-1.49-1.8-3.47-2.4-5.29-1.67-5.02-3.71-9.78-7.67-13.49-.6-.56-.99-1.3-.97-2.18l-.05,.05c3.35,1.48,5.33,4.37,6.87,7.42,2.14,4.24,3.69,8.75,4.15,13.54l.07-.06Z"/>
        <path d="M118.56,31.38c4.18,5.69,2.9,12.26,2.96,18.6,0,.41-.4,1.08-.74,1.17-.75,.22-.53-.42-.44-.82,1.38-6.51-.36-12.75-1.7-19.02l-.07,.06Z"/>
        <path d="M187.88,78.62c-.07,.69-.6,.64-.99,.77-2.66,.86-5.32,1.72-7.99,2.55-.48,.15-1.09,.15-1.3-.37-.23-.57,.31-.86,.76-1.02,2.64-.94,5.26-1.95,8.1-2.12,.47-.03,.95,.12,1.42,.19Z"/>
        <path d="M44.2,63.58c1.01,.18,3.22-.85,1.91,1.73-.58,1.14-1.49,2.14-2.35,3.11-.58,.66-1.17,1.86-2.3,1.01-.95-.71-.59-1.72-.05-2.62,.5-.83,.96-1.7,1.43-2.55l1.35-.68Z"/>
      </g>
    </g>
  </g>
</svg>