<?xml version="1.0" encoding="UTF-8"?>
<svg id="b" data-name="Layer 2" xmlns="http://www.w3.org/2000/svg" viewBox="0 0 17.78 47.77">
  <g id="c" data-name="Layer 1">
    <path d="M17.35,44.62c.26,.33,.44,.78,.42,1.22-.06,.49-.36,1.03-.8,1.27-.86,.68-2.02,.56-3.05,.56-2.83-.45-5.8-.5-8.62-.19h.09c-.65,.13-1.2,.22-1.88,.28-.99,.05-1.93-.47-2.44-1.31h.05c-.41-.73-.26-1.72,.19-2.39,.66-.55,1.28-.64,2.44-.75,1.57-.21,2.09-.75,2.11-2.34V11.62c.18-.67-.31-1.37-.89-1.69l-.05,.05c-.49,.18-.91,.4-1.36,.66h.05c-.44,.31-.95,.55-1.5,.61-.89,.07-1.81-.54-2.06-1.41-.24-1.01,.33-2.17,1.22-2.67,1.78-1.38,4.68-3.15,6.52-4.5l1.31-.8-.05,.05c1.09-.96,2.44-1.62,3.89-1.92,.78,.07,1.52,.48,1.64,1.64v.05c-.11,.92-.52,1.8-.89,2.62v-.05c-.6,1-.97,2.08-.94,3.28l.05,25.27v8.77c-.03,.47,.18,.95,.38,1.36,.59,.39,1.3,.68,2.02,.8,.91,.3,1.63,.28,2.16,.89Z"/>
  </g>
</svg>