<?xml version="1.0" encoding="UTF-8"?>
<svg id="b" data-name="Layer 2" xmlns="http://www.w3.org/2000/svg" viewBox="0 0 34.29 48.04">
  <g id="c" data-name="Layer 1">
    <path d="M29.9,37.63c3.22,.23,3.51,3.11,3.56,6.42,0,.74,.27,.69,.23,1.5-.1,1.36-1.27,2.52-2.67,2.48H3.04c-2.41-.12-3.27-1.15-2.6-3.07s1.46-3.68,2.37-5.27c3.07-5.07,10.23-8.17,14.81-12.14,2.66-2.09,4.78-4.47,6.38-7.12,2.26-3.49,1.98-11.12-2.3-13.92-4.44-2.85-11.28-2.03-14.72,2.02-1.9,2.1-3.13,8.73,.94,9.84,1.66-.62,2.94-.61,3.84,.05,1.9,1.22,2.09,3.54,.61,5.2-.75,.91-1.97,1.31-3.66,1.22h-.05c-2.5-.04-4.85-1.32-6.28-3.33C-6.76,7.12,12.5-3.57,24.74,1.12c6,2.35,9.95,8.88,9.52,15.23-.12,3.71-2.51,7.03-5.06,9.52-3.51,3.3-7.7,5.62-11.53,8.53-3.76,2.75-5.84,4-9.42,7.03H27.88c.16,0,.25-.09,.28-.26,.15-1.11-.22-3.64,1.73-3.54Z"/>
  </g>
</svg>