<?xml version="1.0" encoding="UTF-8"?>
<svg id="b" data-name="Layer 2" xmlns="http://www.w3.org/2000/svg" viewBox="0 0 33.59 48.16">
  <g id="c" data-name="Layer 1">
    <path d="M30.59,30.89h.09c-1.34,.7-2.78,1.15-4.31,1.27l-.89,.14v9.42c0,.91,.15,1.52,.45,1.83,.3,.31,.76,.47,1.38,.47,1.06,0,1.88,.26,2.44,.77,1.96,1.7,.18,3.61-2.06,3.35h.19c-3.62-.68-7.56-.68-11.16,0h-.42c-.94,.05-1.93-.46-2.39-1.27-.29-.68-.14-1.5,.33-2.06l.28-.19-.05,.05c.68-.31,1.46-.5,2.2-.56,1.78-.35,2.18-.35,2.2-2.44v-9.61c0-.12,0-.25,0-.38l.19,.05c-4.59-1.51-10.04-2.41-14.67-.52h-.05c-.47,.18-.91,.34-1.31,.61v-.05c-.75,.38-1.8,.51-2.48-.09-1.06-1.19-.36-2.13,.33-3.09L22.06,1.45v-.05c.5-.74,1.33-1.36,2.25-1.41,1.05,.05,1.77,.76,1.78,2.02,0,.51-.05,1.12-.19,1.59l.05-.05c-.13,.58-.24,1.12-.23,1.73V26.95h-.05c.44,.22,.87,.24,1.36,.23,1.7-.06,3.44-.29,4.97-.89h.47v.05c.6,.11,1.14,.75,1.12,1.36,.07,1.44-1.81,2.61-3,3.19Zm-11.81-5.44V12.7c-1.78,2.13-5.54,6.99-7.45,9.33-1.01,1.34-1.8,2.38-2.62,3.42l-.19,.05c3.33-.65,6.94-.74,10.27-.05Z"/>
  </g>
</svg>