<?xml version="1.0" encoding="UTF-8"?>
<svg id="b" data-name="Layer 2" xmlns="http://www.w3.org/2000/svg" viewBox="0 0 40.83 16.02">
  <g id="c" data-name="Layer 1">
    <g>
      <path d="M32.01,8.05C36.38,6.87,36.14,.31,31.59,0c-2.23-.11-3.52,2.02-2.85,3.94,.22,.65,.57,.98,1.04,.98,.54,0,.65-.68,.14-.97-.94-.4-1.02-1.63-.57-2.45,.81-1.36,3.09-1.45,4.12-.12,2.09,2.32,0,6.59-3.2,6.43h-6.52c-.09,0-.16,.07-.16,.16,0,.12-.02,.32,.16,.31h6.52c2.14-.08,4.07,1.87,4.04,3.92,.05,1.7-1.1,3.37-2.76,3.38-.9,0-1.8-.33-2.19-1.07-.46-.84-.38-2.05,.6-2.47,.47-.29,.36-.96-.17-.96-.43,0-.76,.29-1,.87-.77,1.91,.52,4.18,2.81,4.05,4.52-.3,4.82-6.83,.42-7.96Z"/>
      <path d="M40.67,7.81h-4c1.28-1.03-.54-2.31-.88-.61l-.05,.26c-.1,.29-.2,.35-.19,.35h-.42c-.09,0-.16,.07-.16,.16,0,.12-.01,.32,.16,.31h.37s.13,.06,.23,.34l.06,.27c.31,1.71,2.17,.4,.86-.6h4.01c.17,0,.16-.2,.16-.31,0-.09-.07-.16-.16-.16Z"/>
      <path d="M17.06,7.81h-6.52c-3.2,.16-5.29-4.12-3.2-6.44,1.03-1.33,3.32-1.24,4.12,.13,.46,.84,.37,2.05-.6,2.47-.47,.29-.36,.96,.17,.96,.47,0,.82-.33,1.04-.98,.28-.82,.23-1.63-.15-2.4-.86-1.9-3.64-2.02-5.13-.45-2.26,2.06-1,6.24,2.01,6.96-4.41,1.13-4.1,7.66,.42,7.96,2.29,.13,3.58-2.14,2.81-4.05-.24-.58-.57-.87-1-.87-.54,0-.65,.68-.14,.97,.94,.4,1.02,1.63,.57,2.45-.81,1.36-3.09,1.45-4.12,.12-2.09-2.33,0-6.53,3.2-6.36h6.52c.17,0,.16-.2,.16-.31,0-.09-.07-.16-.16-.16Z"/>
      <path d="M4.94,9.18c.02-.06,.05-.16,.09-.3l.05-.24c.1-.29,.2-.35,.19-.35h.42c.09,0,.16-.07,.16-.16,0-.12,.01-.32-.16-.31h-.37s-.13-.06-.23-.33l-.06-.3c-.35-1.68-2.14-.38-.87,.63H.16c-.17,0-.16,.2-.16,.31,0,.09,.07,.16,.16,.16H4.17c-.43,.31-.62,.85-.29,1.24,.35,.39,.97,.14,1.06-.34Z"/>
      <path d="M22.61,8.01c-.07,2.9-4.33,2.9-4.4,0,.07-2.9,4.33-2.9,4.4,0Z"/>
    </g>
  </g>
</svg>