<?xml version="1.0" encoding="UTF-8"?>
<svg id="b" data-name="Layer 2" xmlns="http://www.w3.org/2000/svg" viewBox="0 0 22.05 22.05">
  <g id="c" data-name="Layer 1">
    <g>
      <path d="M13.4,13.61c.49,.29,1.02,.44,1.6,.44,.68,0,1.28-.29,1.77-.87,.49-.57,.73-1.26,.73-2.06,0-.8-.25-1.49-.73-2.06-.05-.06-.11-.12-.17-.18-.46-.46-1-.69-1.61-.69-.57,0-1.13,.18-1.65,.53,.36-.54,.54-1.1,.54-1.68,0-.61-.23-1.15-.69-1.6-.06-.06-.12-.11-.18-.17-.57-.49-1.26-.73-2.06-.73-.8,0-1.49,.25-2.06,.73-.57,.49-.87,1.09-.87,1.77,0,.6,.16,1.16,.48,1.68-.53-.35-1.07-.53-1.62-.53-.69,0-1.28,.29-1.77,.87-.49,.57-.73,1.26-.73,2.06,0,.8,.25,1.49,.73,2.05,.05,.06,.1,.11,.15,.16,.46,.46,1,.69,1.62,.69,.55,.02,1.08-.12,1.57-.39-.28,.48-.42,1-.42,1.54,0,.61,.23,1.15,.69,1.61,.06,.06,.12,.11,.18,.17,.57,.49,1.26,.73,2.06,.73,.8,0,1.49-.25,2.06-.73,.58-.49,.87-1.08,.87-1.77,0-.53-.16-1.05-.49-1.55Zm-4.87-6.57c0-.52,.22-.93,.69-1.27,.47-.34,1.05-.51,1.74-.51,.69,0,1.27,.17,1.74,.51,.09,.07,.17,.14,.24,.21,.3,.3,.44,.65,.44,1.06,0,.78-.37,1.5-1.09,2.15-.14-.09-.26-.16-.37-.21l.77-1.05s.03-.07,.01-.11c0-.01-.01-.03-.03-.04-.02-.02-.04-.03-.06-.03l-.15-.03s-.07,0-.1,.03l-1.08,1.03h-.03l-.17-1.2s-.02-.05-.03-.06c-.02-.02-.05-.03-.08-.03h-.15c-.06,0-.1,.04-.11,.1l-.17,1.19s-.04,0-.06,0l-1.08-1.03s-.06-.04-.1-.03l-.15,.03s-.07,.03-.08,.07c-.01,.04,0,.08,.01,.11l.77,1.04c-.12,.05-.24,.11-.34,.18-.05-.04-.1-.09-.14-.13-.56-.56-.85-1.23-.85-1.98Zm-1.64,6.47c-.42,0-.78-.15-1.08-.45-.07-.07-.13-.14-.19-.23-.34-.46-.51-1.04-.51-1.72s.17-1.27,.51-1.74c.34-.46,.75-.69,1.27-.69,.7,0,1.39,.33,2.05,.99l.04,.04c-.07,.1-.15,.22-.23,.37l-.96-.72s-.07-.03-.11-.01c-.04,.01-.06,.05-.07,.08l-.03,.15s0,.07,.03,.1l.92,1.04s0,.07,0,.1l-1.09,.14c-.06,0-.1,.06-.1,.11v.15s.01,.06,.03,.08c.02,.02,.04,.03,.06,.03l1.09,.17,.03,.14-.94,1s-.04,.06-.03,.1l.03,.15s.02,.04,.03,.06c.01,.01,.02,.02,.04,.03,.04,.01,.08,0,.11-.01l.97-.72c.06,.09,.13,.2,.23,.32-.59,.66-1.29,.97-2.09,.93Zm8.12-4.83c.42,0,.77,.15,1.06,.44,.07,.07,.14,.15,.21,.24,.34,.47,.51,1.05,.51,1.74,0,.69-.17,1.27-.51,1.74-.34,.46-.75,.69-1.27,.69-.77,0-1.45-.29-2.02-.86-.04-.04-.09-.09-.13-.14,.06-.09,.13-.2,.2-.34l1.06,.78s.07,.03,.11,.01c.04-.01,.06-.05,.07-.08l.03-.15s0-.07-.03-.1l-1.03-1.08s0-.04,0-.06l1.19-.17c.06,0,.1-.06,.1-.11v-.15s-.01-.06-.03-.08c-.02-.02-.04-.03-.06-.03l-1.17-.17,1-1.12s.03-.06,.03-.1l-.03-.15s-.02-.04-.03-.06c-.01-.01-.02-.02-.04-.03-.04-.01-.08,0-.11,.01l-1.04,.77c-.05-.14-.12-.26-.21-.37,.67-.72,1.39-1.08,2.14-1.08Zm-2.3,7.74c-.47,.34-1.05,.51-1.74,.51-.69,0-1.27-.17-1.74-.51-.09-.07-.17-.13-.24-.21-.3-.3-.44-.65-.44-1.06,0-.77,.31-1.47,.94-2.06,.09,.06,.2,.12,.34,.2l-.72,.96s-.03,.07-.01,.11c0,.01,.01,.03,.03,.04,.02,.02,.04,.03,.06,.03l.15,.03s.07,0,.1-.03l1-.94,.14,.03,.17,1.09s.02,.05,.03,.06c.02,.02,.05,.03,.08,.03h.15c.06,0,.1-.04,.11-.1l.14-1.09s.06,0,.1,0l1.04,.92s.06,.03,.1,.03l.15-.03s.07-.03,.08-.07c.01-.04,0-.08-.01-.11l-.72-.96c.12-.06,.24-.14,.35-.23,.06,.05,.11,.1,.17,.16,.59,.59,.89,1.24,.89,1.93,0,.52-.23,.93-.69,1.27Z"/>
      <path d="M7.17,7.26l.09-.09s.02-.14-.02-.18c-.9-.9-1.4-1.92-1.47-3.04-.08-1.11,.19-1.97,.78-2.57,.04-.04,.13-.1,.25-.19,.14-.1,.25-.18,.34-.26,.1-.09,.18-.2,.21-.34,.03-.11,.02-.27-.16-.45s-.48-.28-.96,.19c-.7,.7-1.03,1.69-.98,2.93,.04,1.04,.33,2,.87,2.86-.87-.52-1.83-.81-2.86-.86-1.24-.06-2.22,.26-2.92,.96-.48,.48-.37,.79-.19,.96,.15,.15,.3,.2,.45,.16,.14-.03,.25-.11,.34-.21,.07-.09,.16-.2,.25-.34,.09-.13,.15-.21,.19-.26,.58-.58,1.42-.84,2.5-.78,1.09,.06,2.09,.52,2.97,1.34l.15,.15s.12,.04,.16,0Z"/>
      <path d="M7.54,21.12h-.01c-.09-.09-.2-.17-.34-.27-.13-.09-.21-.15-.25-.19-.58-.58-.84-1.42-.78-2.5,.06-1.09,.52-2.09,1.34-2.97l.15-.15s.04-.12,0-.16l-.09-.09s-.14-.02-.18,.02c-.9,.9-1.92,1.4-3.04,1.47-1.11,.08-1.97-.19-2.57-.78-.04-.04-.1-.13-.19-.25-.1-.14-.18-.25-.29-.39-.08-.08-.18-.14-.3-.17-.11-.03-.27-.02-.45,.16s-.28,.48,.2,.96c.7,.7,1.69,1.03,2.93,.98,1.04-.04,2-.33,2.86-.87-.52,.87-.81,1.83-.86,2.86-.06,1.24,.27,2.22,.96,2.92,.48,.48,.79,.37,.96,.2,.15-.15,.2-.3,.16-.45-.03-.11-.08-.21-.2-.33Z"/>
      <path d="M14.89,1.06h.01c.09,.09,.2,.17,.34,.27,.13,.09,.21,.15,.25,.19,.58,.58,.84,1.42,.78,2.5-.06,1.09-.52,2.09-1.34,2.97l-.15,.15s-.04,.12,0,.16l.09,.09s.14,.02,.18-.02c.9-.9,1.92-1.4,3.04-1.47,1.11-.08,1.97,.19,2.57,.78,.04,.04,.1,.13,.19,.25,.1,.14,.18,.25,.29,.39,.08,.08,.18,.14,.3,.17,.11,.03,.27,.02,.45-.16s.28-.48-.19-.96c-.7-.7-1.69-1.03-2.93-.98-1.04,.04-2,.33-2.86,.87,.52-.87,.81-1.83,.86-2.86,.06-1.24-.27-2.22-.96-2.92-.48-.48-.79-.37-.96-.2-.15,.15-.2,.3-.16,.45,.03,.11,.08,.21,.2,.33Z"/>
    </g>
  </g>
</svg>