<?xml version="1.0" encoding="UTF-8"?>
<svg id="b" data-name="Layer 2" xmlns="http://www.w3.org/2000/svg" viewBox="0 0 22.05 22.05">
  <g id="c" data-name="Layer 1">
    <g>
      <path d="M13.4,13.61c1.92,1.22,4.16-.25,4.1-2.49,.08-2.23-2.27-3.8-4.15-2.4,1.41-1.9-.14-4.26-2.39-4.18-2.3-.06-3.74,2.25-2.45,4.18-4.09-2.6-5.98,4.89-1.63,5.3,.55,.02,1.08-.12,1.57-.39-1.22,1.9,.34,4.12,2.51,4.04,2.17,.08,3.78-2.18,2.44-4.05Zm-4.87-6.57c0-1.19,1.29-1.8,2.43-1.79,2.54-.03,3.24,2.31,1.34,3.94-.14-.09-.26-.16-.37-.21,.01-.06,.88-1.1,.79-1.16-.01-.08-.29-.14-.34-.07l-1.08,1.03h-.03l-.17-1.2c-.01-.12-.18-.09-.26-.1-.06,0-.1,.04-.11,.1l-.17,1.19s-.04,0-.06,0c-.04-.01-1.14-1.15-1.18-1.05-.11,.01-.32,.05-.22,.21l.77,1.04c-.12,.05-.24,.11-.34,.18-.64-.56-1-1.31-.99-2.12Zm-1.64,6.47c-1.22-.02-1.79-1.24-1.79-2.4-.02-2.49,2.19-3.22,3.87-1.4-.07,.1-.15,.22-.23,.37l-.96-.72c-.16-.1-.2,.11-.21,.22,0,.04,0,.07,.03,.1l.92,1.04s0,.07,0,.1l-1.09,.14c-.13,.01-.1,.18-.1,.26,0,.06,.04,.1,.1,.11l1.09,.17,.03,.14s-1.06,1.06-.97,1.1c.01,.11,.05,.32,.21,.22l.97-.72c.06,.09,.13,.2,.23,.32-.59,.66-1.29,.97-2.09,.93Zm8.12-4.83c1.22,.02,1.79,1.28,1.79,2.43,.04,2.56-2.35,3.19-3.94,1.43,.06-.09,.13-.2,.2-.34l1.06,.78c.16,.1,.2-.11,.21-.22,.09-.04-1.05-1.15-1.05-1.18,0-.02,0-.04,0-.06,.54-.11,1.35-.11,1.29-.28,0-.09,.03-.25-.1-.27l-1.17-.17s1.13-1.2,1.02-1.21c-.01-.11-.05-.32-.21-.22l-1.04,.77c-.05-.14-.12-.26-.21-.37,.67-.72,1.39-1.08,2.14-1.08Zm-2.3,7.74c-2.53,1.62-5.84-.71-3.23-3.33,.09,.06,.2,.12,.34,.2l-.72,.96c-.1,.16,.11,.2,.22,.21,.04,.1,1.06-.96,1.1-.97l.14,.03,.17,1.09c.01,.12,.18,.09,.26,.1,.06,0,.1-.04,.11-.1l.14-1.09s.06,0,.1,0l1.04,.92s.06,.03,.1,.03c.11-.01,.32-.05,.22-.21l-.72-.96c.12-.06,.24-.14,.35-.23,1.02,.89,1.59,2.48,.36,3.36Z"/>
      <path d="M7.17,7.26c.09-.07,.16-.17,.06-.27-1.6-1.47-2.18-4.48-.44-5.79,.26-.19,.48-.29,.55-.6,.03-.11,.02-.27-.16-.45s-.48-.28-.96,.19c-1.41,1.34-1.16,4.17-.11,5.79-1.63-1.03-4.43-1.32-5.78,.1-.48,.48-.37,.79-.19,.96,.25,.27,.59,.19,.8-.05,1.16-2.05,4.33-1.65,5.92-.04,.07,.06,.2,.27,.31,.15Z"/>
      <path d="M7.54,21.12h-.01c-2.05-1.17-1.65-4.34-.04-5.93,.06-.07,.27-.2,.15-.31-.07-.09-.17-.16-.27-.07-1.62,1.76-4.86,2.19-6.09,.05-.23-.19-.46-.29-.76,0-.17,.17-.28,.48,.2,.96,1.34,1.41,4.17,1.16,5.79,.11-1.03,1.63-1.32,4.43,.1,5.78,.74,.82,1.49-.04,.92-.59Z"/>
      <path d="M14.89,1.06h.01c2.05,1.18,1.65,4.34,.04,5.93-.06,.07-.27,.2-.15,.31,.07,.09,.17,.16,.27,.06,1.62-1.76,4.86-2.19,6.09-.05,.23,.19,.46,.29,.76,0,.17-.17,.28-.48-.19-.96-1.34-1.41-4.17-1.16-5.79-.11,1.03-1.63,1.31-4.43-.1-5.78-.74-.82-1.49,.04-.92,.59Z"/>
    </g>
  </g>
</svg>