<?xml version="1.0" encoding="UTF-8"?>
<svg id="b" data-name="Layer 2" xmlns="http://www.w3.org/2000/svg" viewBox="0 0 69.49 84.65">
  <g id="c" data-name="Layer 1">
    <g>
      <g>
        <path d="M13.34,8.72c1.41-1.9-.14-4.26-2.39-4.18-2.3-.06-3.74,2.25-2.45,4.18-4.09-2.6-5.98,4.89-1.63,5.3,.55,.02,1.08-.12,1.57-.39-1.22,1.9,.34,4.12,2.51,4.04,2.17,.08,3.78-2.18,2.44-4.05,1.92,1.22,4.16-.25,4.1-2.49,.08-2.23-2.27-3.8-4.15-2.4Zm-2.39-3.46c2.54-.03,3.24,2.31,1.34,3.94-.14-.09-.26-.16-.37-.21,.01-.06,.88-1.1,.79-1.16-.01-.08-.29-.14-.34-.07l-1.08,1.03h-.03l-.17-1.2c-.01-.12-.18-.09-.26-.1-.06,0-.1,.04-.11,.1l-.17,1.19s-.04,0-.06,0c-.04-.01-1.14-1.15-1.18-1.05-.11,.01-.32,.05-.22,.21l.77,1.04c-.12,.05-.24,.11-.34,.18-1.77-1.59-1.1-3.94,1.44-3.9ZM6.88,13.51c-1.22-.02-1.79-1.24-1.79-2.4-.02-2.49,2.19-3.22,3.87-1.4-.07,.1-.15,.22-.23,.37l-.96-.72c-.16-.1-.2,.11-.21,.22,0,.04,0,.07,.03,.1l.92,1.04s0,.07,0,.1l-1.09,.14c-.13,.01-.1,.18-.1,.26,0,.06,.04,.1,.1,.11l1.09,.17,.03,.14s-1.06,1.06-.97,1.1c.01,.11,.05,.32,.21,.22l.97-.72c.06,.09,.13,.2,.23,.32-.59,.66-1.29,.97-2.09,.93Zm5.81,2.92c-2.53,1.61-5.84-.71-3.23-3.33,.09,.06,.2,.12,.34,.2l-.72,.96c-.1,.16,.11,.2,.22,.21,.04,.1,1.06-.96,1.1-.97l.14,.03,.17,1.09c.01,.12,.18,.09,.26,.1,.06,0,.1-.04,.11-.1l.14-1.09s.06,0,.1,0l1.04,.92s.06,.03,.1,.03c.11-.01,.32-.05,.22-.21l-.72-.96c.12-.06,.24-.14,.35-.23,1.02,.89,1.59,2.48,.36,3.36Zm.15-3.88c.06-.09,.13-.2,.2-.34l1.06,.78c.16,.1,.2-.11,.21-.22,.09-.04-1.05-1.15-1.05-1.18,0-.02,0-.04,0-.06,.54-.11,1.35-.11,1.29-.28,0-.09,.03-.25-.1-.27l-1.17-.17s1.13-1.2,1.02-1.21c-.01-.11-.05-.32-.21-.22l-1.04,.77c-.05-.14-.12-.26-.21-.37,.67-.72,1.39-1.08,2.14-1.08,1.22,.02,1.79,1.28,1.79,2.43,.04,2.56-2.35,3.19-3.94,1.43Z"/>
        <path d="M.94,7.14c1.16-2.05,4.33-1.65,5.92-.04,.07,.06,.2,.27,.31,.15,.09-.07,.16-.17,.06-.27-1.6-1.47-2.18-4.48-.44-5.79,.26-.19,.48-.29,.55-.6,.05-.5-.5-.92-1.12-.26-1.41,1.34-1.16,4.17-.11,5.79-1.63-1.03-4.43-1.32-5.78,.1-.48,.48-.37,.79-.19,.96,.25,.27,.59,.19,.8-.05Z"/>
        <path d="M7.52,21.1c-2.05-1.16-1.65-4.33-.04-5.92,.06-.07,.27-.2,.15-.31-.07-.09-.17-.16-.27-.07-1.62,1.76-4.86,2.19-6.09,.05-.23-.19-.46-.29-.76,0-.17,.17-.28,.48,.2,.96,1.34,1.41,4.17,1.16,5.79,.11-1.03,1.63-1.32,4.43,.1,5.78,.74,.82,1.49-.04,.92-.59h-.01Z"/>
        <path d="M21.71,6.36c-1.34-1.41-4.17-1.16-5.79-.11,1.03-1.63,1.31-4.43-.1-5.78-.75-.83-1.5,.06-.91,.6,2.05,1.16,1.65,4.33,.04,5.92-.06,.07-.27,.2-.15,.31,.07,.09,.17,.16,.27,.06,1.62-1.76,4.86-2.19,6.09-.05,.23,.19,.46,.29,.76,0,.17-.17,.28-.48-.2-.96Z"/>
      </g>
      <g>
        <path d="M51.99,11.12c-.06,2.25,2.18,3.72,4.1,2.49-1.34,1.87,.27,4.13,2.44,4.05,2.17,.08,3.73-2.14,2.51-4.04,.49,.28,1.01,.41,1.57,.39,4.35-.41,2.46-7.9-1.63-5.3,1.29-1.93-.15-4.23-2.45-4.18-2.25-.08-3.8,2.28-2.39,4.18-1.89-1.4-4.23,.16-4.15,2.4Zm7.98-1.95c-.1-.07-.21-.14-.34-.18l.77-1.04c.1-.16-.11-.19-.22-.21-.05-.09-1.14,1.04-1.18,1.05-.02,0-.04,0-.06,0l-.17-1.19c0-.06-.06-.1-.11-.1-.08,0-.25-.03-.26,.1l-.17,1.2h-.03l-1.08-1.02c-.05-.06-.32,0-.34,.07-.09,.06,.77,1.1,.79,1.16-.1,.05-.22,.12-.37,.21-1.9-1.63-1.2-3.97,1.34-3.94,2.53-.04,3.2,2.31,1.44,3.9Zm.55,3.42c.09-.12,.17-.23,.23-.32l.97,.72c.16,.1,.2-.11,.21-.22,.1-.04-.96-1.06-.97-1.1l.03-.14,1.09-.17c.05,0,.1-.06,.1-.11,0-.09,.03-.25-.1-.26l-1.09-.14s0-.06,0-.1l.92-1.04s.03-.06,.03-.1c-.01-.11-.05-.32-.21-.22l-.96,.72c-.08-.15-.16-.27-.23-.37,1.68-1.82,3.89-1.09,3.87,1.4,0,1.15-.57,2.38-1.79,2.4-.79,.04-1.49-.28-2.09-.93Zm-3.36,.49c.11,.09,.23,.17,.35,.23l-.72,.96c-.1,.16,.11,.2,.22,.21,.03,0,.07,0,.1-.03l1.04-.92s.07,0,.1,0l.14,1.09c0,.06,.06,.1,.11,.1,.08,0,.25,.03,.26-.1l.17-1.09,.14-.03s1.06,1.07,1.1,.97c.11-.01,.32-.05,.22-.21l-.72-.96c.14-.08,.26-.14,.34-.2,2.61,2.62-.7,4.95-3.23,3.33-1.23-.88-.66-2.47,.36-3.36Zm-4.45-1.96c0-1.15,.57-2.41,1.79-2.43,.75,0,1.48,.36,2.14,1.08-.09,.11-.16,.23-.21,.37l-1.04-.77c-.16-.1-.19,.11-.21,.22-.11,0,1.03,1.19,1.02,1.21l-1.17,.17c-.13,.01-.09,.18-.1,.27-.06,.17,.76,.18,1.29,.28,0,.02,0,.04,0,.06,0,.04-1.15,1.14-1.05,1.18,.01,.11,.05,.32,.21,.22l1.06-.78c.07,.14,.14,.26,.2,.34-1.59,1.76-3.98,1.12-3.94-1.43Z"/>
        <path d="M68.55,7.14c-1.16-2.05-4.33-1.65-5.92-.04-.07,.06-.2,.27-.31,.15-.09-.07-.16-.17-.06-.27,1.6-1.47,2.18-4.48,.44-5.79-.26-.19-.48-.29-.55-.6-.05-.5,.5-.92,1.12-.26,1.41,1.34,1.16,4.17,.11,5.79,1.63-1.03,4.43-1.32,5.78,.1,.48,.48,.37,.79,.19,.96-.25,.27-.59,.19-.8-.05Z"/>
        <path d="M61.97,21.1c2.05-1.16,1.65-4.33,.04-5.92-.06-.07-.27-.2-.15-.31,.07-.09,.17-.16,.27-.07,1.62,1.76,4.86,2.19,6.09,.05,.23-.19,.46-.29,.76,0,.17,.17,.28,.48-.2,.96-1.34,1.41-4.17,1.16-5.79,.11,1.03,1.63,1.32,4.43-.1,5.78-.74,.82-1.49-.04-.92-.59h.01Z"/>
        <path d="M47.78,6.36c1.34-1.41,4.17-1.16,5.79-.11-1.03-1.63-1.31-4.43,.1-5.78,.75-.83,1.5,.06,.91,.6-2.05,1.16-1.65,4.33-.04,5.92,.06,.07,.27,.2,.15,.31-.07,.09-.17,.16-.27,.06-1.62-1.76-4.86-2.19-6.09-.05-.23,.19-.46,.29-.76,0-.17-.17-.28-.48,.2-.96Z"/>
      </g>
    </g>
    <g>
      <path d="M46.34,76.68c4.38-1.17,4.13-7.74-.42-8.04-2.23-.11-3.52,2.02-2.85,3.94,.22,.65,.57,.98,1.04,.98,.54,0,.65-.68,.14-.97-.94-.4-1.02-1.63-.57-2.45,.81-1.36,3.09-1.45,4.12-.12,2.09,2.32,0,6.59-3.2,6.43h-6.52c-.09,0-.16,.07-.16,.16,0,.12-.02,.32,.16,.31h6.52c2.14-.08,4.07,1.87,4.04,3.92,.05,1.7-1.1,3.37-2.76,3.38-.9,0-1.8-.33-2.19-1.07-.46-.84-.38-2.05,.6-2.47,.47-.29,.36-.96-.17-.96-.43,0-.76,.29-1,.87-.77,1.91,.52,4.18,2.81,4.05,4.52-.3,4.82-6.83,.42-7.96Z"/>
      <path d="M55.16,76.6c0-.09-.07-.16-.16-.16h-4c1.28-1.03-.54-2.31-.88-.61l-.05,.26c-.1,.29-.2,.35-.19,.35h-.42c-.09,0-.16,.07-.16,.16,0,.12-.01,.32,.16,.31h.37s.13,.06,.23,.34l.06,.27c.31,1.71,2.17,.4,.86-.6h4.01c.17,0,.16-.2,.16-.31Z"/>
      <path d="M31.39,76.45h-6.52c-3.2,.16-5.29-4.12-3.2-6.44,1.03-1.33,3.32-1.24,4.12,.13,.46,.84,.37,2.05-.6,2.47-.47,.29-.36,.96,.17,.96,.47,0,.82-.33,1.04-.98,.28-.82,.23-1.63-.15-2.4-.86-1.9-3.64-2.02-5.13-.45-2.26,2.06-1,6.24,2.01,6.96-4.41,1.13-4.1,7.66,.42,7.96,2.29,.13,3.58-2.14,2.81-4.05-.24-.58-.57-.87-1-.87-.54,0-.65,.68-.14,.97,.94,.4,1.02,1.63,.57,2.45-.81,1.36-3.09,1.45-4.12,.12-2.09-2.33,0-6.53,3.2-6.36h6.52c.17,0,.16-.2,.16-.31,0-.09-.07-.16-.16-.16Z"/>
      <path d="M20.18,76.76c0-.12,.01-.32-.16-.31h-.37s-.13-.06-.23-.33l-.06-.3c-.35-1.68-2.14-.38-.87,.63h-4c-.17,0-.16,.2-.16,.31,0,.09,.07,.16,.16,.16h4.01c-.43,.31-.62,.85-.29,1.24,.35,.39,.97,.14,1.06-.34,.02-.06,.05-.16,.09-.3l.05-.24c.1-.29,.2-.35,.19-.35h.42c.09,0,.16-.07,.16-.16Z"/>
      <path d="M32.55,76.64c.07,2.9,4.32,2.9,4.4,0-.07-2.9-4.32-2.9-4.4,0Z"/>
    </g>
  </g>
</svg>