<?xml version="1.0" encoding="UTF-8"?>
<svg id="b" data-name="Layer 2" xmlns="http://www.w3.org/2000/svg" viewBox="0 0 72.94 30.38">
  <g id="c" data-name="Layer 1">
    <path d="M72.94,26.11c-.57-3.31-3.35-2.58-5.14-2.67-2.82-.23-7.66,.02-7.46-3.72,.02-.24-.19-.46-.42-.45h-.72c-.23,0-.43,.2-.43,.43,0,1.71-.69,3.37-1.98,4.66-3.19,3.13-7.04,2.09-6.95-2.77,20.61-16.39-7.52-20.88-3.3,.4-2.52,1.45-5.78,1.96-8.01,.11,3.9-3.89,4.88-11.77-.26-18.31,2.29-4.33,8.47-1.67,6.02,2.97-.1,.21-.02,.46,.18,.56,.14,.05,.67,.42,.82,.39,.16,0,.31-.09,.38-.23,.97-1.89,1.02-3.71,.15-5.13-1.78-3-6.89-3.06-9.3-.55-2.42-2.48-7.55-2.44-9.33,.55-.87,1.41-.82,3.24,.14,5.13,.07,.15,.22,.23,.38,.23,.14,.03,.73-.34,.86-.38,.1-.05,.18-.14,.21-.25,.04-.11,.02-.23-.03-.33-.72-1.37-.79-2.68-.19-3.68,1.43-2.29,5-1.79,6.16,.71-4.02,5.13-5.2,13.39-.26,18.31-2.22,1.85-5.49,1.34-8.01-.11,4.24-21.29-23.9-16.79-3.3-.4,.07,7.89-8.87,4.34-8.93-1.88,0-.23-.19-.43-.43-.43h-.72c-.24,0-.45,.22-.42,.46,.26,3.74-4.6,3.46-7.38,3.72-4.51-.76-6.4,2.2-4.63,6.66,.08,.24,.38,.35,.6,.23,.28-.18,.99-.37,.83-.83-2.99-9.11,7.75-.51,11.31-6.37,2.4,5.58,10.67,6.38,12.6,.41,3.28,1.72,7.36,1.92,10.53,.07,3.06,1.86,7.33,1.64,10.49-.06,1.93,5.97,10.21,5.16,12.6-.43,3.61,5.86,14.29-2.71,11.31,6.38-.06,.2,.03,.41,.22,.5,.12,.05,.73,.41,.86,.38,.15,0,.3-.08,.38-.23,.53-1.04,.56-2.62,.57-3.77v-.27ZM17.25,10.26c.05-.45,.25-.91,1.29-.92,4.18,.3,4.69,7.48,4.72,10.36-3.26-2.57-6.32-5.68-6.01-9.44Zm19.27,9.52c-2.4-3.57-1.79-8.64,0-12.65,1.56,3.76,2.61,8.68,0,12.65Zm17.93-10.44v0c1.05,0,1.25,.44,1.3,.9,.31,3.88-2.9,7.05-6,9.46,.08-4.11,.86-10.1,4.7-10.36Z"/>
  </g>
</svg>