<?xml version="1.0" encoding="UTF-8"?>
<svg id="b" data-name="Layer 2" xmlns="http://www.w3.org/2000/svg" viewBox="0 0 361.41 20.84">
  <g id="c" data-name="Layer 1">
    <g>
      <path d="M12.77,.37h-4.12L0,12.39v3.34H9.22v4.75h3.55v-4.75h2.12l.36-3.12h-2.48V.37Zm-3.55,8.16v4.09H3.45c1.98-2.82,5.04-7.18,5.85-8.81-.07,1.28-.08,2.76-.08,4.72Z"/>
      <path d="M42.4,7.42c1.89,0,2.71,1.06,3.02,2.45h3.72c-.12-1.86-1.63-5.47-6.67-5.47-4.71,0-7.43,3.69-7.47,8.22h-.02V.37h-4.12l-8.65,12.03v3.34h9.22v4.75h3.55v-4.75h.41c.88,3.13,3.24,5.11,6.87,5.11,4.45,0,6.29-2.71,6.87-5.35h-3.74c-.47,1.41-1.39,2.35-3.04,2.35-2.18,0-3.48-1.82-3.48-5.24,0-3.22,1.28-5.18,3.53-5.18Zm-10.97,1.1v4.09h-5.76c1.98-2.82,5.04-7.18,5.85-8.81-.07,1.28-.08,2.76-.08,4.72Z"/>
      <path d="M61.84,6.74c-2.45,0-3.9,1.01-4.74,2.18,.11-3.23,.95-5.98,3.88-5.98,1.85,0,2.55,1,2.85,2.15h3.7c-.22-2.37-2.1-5.09-6.38-5.09-5.97,0-7.8,5.34-7.8,10.68,0,5.68,1.83,10.17,7.57,10.17,4.58,0,7.18-3.25,7.18-7.43,0-3.93-2.5-6.68-6.25-6.68Zm-1,11.04c-2.67,0-3.47-2.53-3.47-4.17,0-2.57,1.36-3.87,3.49-3.87,2.65,0,3.41,1.95,3.41,3.98,0,2.2-1.04,4.06-3.43,4.06Z"/>
      <path d="M87.61,9.61c1.46-.6,2.64-1.82,2.64-4.09,0-3.34-2.58-5.52-6.6-5.52-4.4,0-6.79,2.26-6.79,5.57,0,2.03,.97,3.3,2.59,4.22-1.57,.67-3.41,2.27-3.41,4.93,0,3.9,3.27,6.12,7.3,6.12,4.45,0,7.65-2.2,7.65-6.24,0-2.67-1.78-4.43-3.38-4.99Zm-4.05-6.63c2.01,0,3.05,1.13,3.05,2.73s-1.01,2.53-3.01,2.53-3.09-1.09-3.09-2.56c0-1.68,.97-2.69,3.05-2.69Zm.02,14.86c-2.28,0-3.7-1.36-3.7-3.31s1.2-3.23,3.64-3.23c2.2,0,3.66,1.06,3.66,3.25s-1.5,3.29-3.6,3.29Z"/>
      <path d="M114.17,0c-5.05,0-7.11,3.98-7.5,8.66V.32h-2.73c-1.23,1.28-3.16,2.39-4.95,2.76v2.89c1.04-.12,2.86-.64,3.82-1.17v15.68h3.86V12.29c.38,4.66,2.31,8.55,7.41,8.55,5.85,0,7.49-5.21,7.49-10.55s-1.87-10.29-7.4-10.29Zm-.05,17.77c-3.08,0-3.59-3.64-3.59-7.38,0-4.38,.75-7.31,3.64-7.31s3.44,3.34,3.44,7.24-.45,7.46-3.5,7.46Z"/>
      <path d="M158.52,0c-3.81,0-5.91,2.27-6.89,5.39-.93-3.16-3-5.39-6.78-5.39-5.05,0-7.11,3.98-7.5,8.66V.32h-2.73c-1.23,1.28-3.16,2.39-4.95,2.76v2.89c1.04-.12,2.86-.64,3.82-1.17v15.68h3.86V12.29c.38,4.66,2.31,8.55,7.41,8.55,3.87,0,5.89-2.29,6.82-5.38,.93,3.12,2.97,5.38,6.84,5.38,5.85,0,7.49-5.21,7.49-10.55s-1.87-10.29-7.4-10.29Zm-13.71,17.77c-3.08,0-3.59-3.64-3.59-7.38,0-4.38,.75-7.31,3.64-7.31s3.44,3.34,3.44,7.24-.45,7.46-3.5,7.46Zm13.66,0c-3.08,0-3.59-3.64-3.59-7.38,0-4.38,.75-7.31,3.64-7.31s3.44,3.34,3.44,7.24-.45,7.46-3.5,7.46Z"/>
      <path d="M199,7.42c1.89,0,2.71,1.06,3.02,2.45h3.72c-.12-1.86-1.63-5.47-6.67-5.47-2.63,0-4.64,1.15-5.91,2.96-.61-4.17-2.68-7.36-7.2-7.36-5.05,0-7.11,3.98-7.5,8.66V.32h-2.73c-1.23,1.28-3.16,2.39-4.95,2.76v2.89c1.04-.12,2.86-.64,3.82-1.17v15.68h3.86V12.29c.38,4.66,2.31,8.55,7.41,8.55,3.38,0,5.35-1.74,6.41-4.24,1.05,2.62,3.29,4.24,6.58,4.24,4.45,0,6.29-2.71,6.87-5.35h-3.74c-.47,1.41-1.39,2.35-3.04,2.35-2.18,0-3.48-1.82-3.48-5.24,0-3.22,1.28-5.18,3.53-5.18Zm-13.08,10.35c-3.08,0-3.59-3.64-3.59-7.38,0-4.38,.75-7.31,3.64-7.31s3.44,3.34,3.44,7.24-.45,7.46-3.5,7.46Z"/>
      <path d="M251.71,7.42c1.89,0,2.71,1.06,3.02,2.45h3.72c-.12-1.86-1.63-5.47-6.67-5.47-2.63,0-4.64,1.16-5.91,2.96-.61-4.17-2.68-7.36-7.2-7.36-3.81,0-5.91,2.27-6.88,5.39-.93-3.16-3-5.39-6.78-5.39-5.05,0-7.11,3.98-7.5,8.66V.32h-2.73c-1.23,1.28-3.16,2.39-4.95,2.76v2.89c1.04-.12,2.86-.64,3.82-1.17v15.68h3.86V12.29c.38,4.66,2.31,8.55,7.41,8.55,3.87,0,5.89-2.28,6.82-5.37,.93,3.12,2.97,5.37,6.84,5.37,3.38,0,5.35-1.74,6.41-4.24,1.05,2.62,3.29,4.24,6.58,4.24,4.45,0,6.29-2.71,6.87-5.35h-3.74c-.47,1.41-1.39,2.35-3.04,2.35-2.18,0-3.48-1.82-3.48-5.24,0-3.22,1.28-5.18,3.53-5.18Zm-26.74,10.35c-3.08,0-3.59-3.64-3.59-7.38,0-4.38,.75-7.31,3.64-7.31s3.44,3.34,3.44,7.24-.45,7.46-3.5,7.46Zm13.66,0c-3.08,0-3.59-3.64-3.59-7.38,0-4.38,.75-7.31,3.64-7.31s3.44,3.34,3.44,7.24-.45,7.46-3.5,7.46Z"/>
      <path d="M278.86,12.96c3.71-2.69,4.98-4.03,4.98-7s-1.76-5.96-6.71-5.96c-4.13,0-6.35,2.4-6.9,5.51V.32h-2.73c-1.23,1.28-3.16,2.39-4.95,2.76v2.89c1.04-.12,2.86-.64,3.82-1.17v15.68h17.73l.49-3.21h-9.88c.4-1.12,1.56-2.42,4.14-4.3Zm-8.62,6.37V6.23h3.58c.33-1.99,1.19-3.22,3.31-3.22,1.94,0,2.86,1.17,2.86,3s-.87,2.65-3.83,4.86c-3.89,2.87-5.63,5.53-5.92,8.46Z"/>
      <path d="M309.18,0c-3.51,0-5.58,1.93-6.64,4.68-.47-2.48-2.36-4.68-6.58-4.68-4.45,0-6.68,2.78-6.99,6.23h3.68c.33-1.99,1.19-3.22,3.31-3.22,1.94,0,2.86,1.17,2.86,3s-.87,2.65-3.83,4.86c-4.28,3.16-5.97,6.06-5.97,9.36v.24h13.92l.39-2.59c1.16,1.8,2.99,2.96,5.76,2.96,5.85,0,7.49-5.21,7.49-10.55s-1.87-10.29-7.4-10.29Zm-15.63,17.27c.4-1.12,1.56-2.42,4.14-4.3,1.91-1.39,3.17-2.41,3.94-3.49-.01,.31-.02,.63-.02,.95,0,2.54,.38,4.97,1.36,6.84h-9.42Zm15.58,.5c-3.08,0-3.59-3.64-3.59-7.38,0-4.38,.75-7.31,3.64-7.31s3.44,3.34,3.44,7.24-.45,7.46-3.5,7.46Z"/>
      <path d="M354.63,17.84c-2.18,0-3.49-1.82-3.49-5.24,0-3.22,1.28-5.18,3.53-5.18,1.89,0,2.71,1.06,3.02,2.45h3.72c-.12-1.86-1.63-5.47-6.67-5.47-2.63,0-4.64,1.15-5.91,2.96-.61-4.17-2.68-7.36-7.2-7.36-3.51,0-5.58,1.93-6.64,4.68-.47-2.48-2.36-4.68-6.58-4.68-4.45,0-6.68,2.78-6.99,6.23h3.68c.33-1.99,1.19-3.22,3.31-3.22,1.94,0,2.86,1.17,2.86,3s-.87,2.65-3.83,4.86c-4.28,3.16-5.97,6.06-5.97,9.36v.24h13.92l.39-2.59c1.16,1.8,2.99,2.96,5.76,2.96,3.38,0,5.35-1.74,6.41-4.24,1.05,2.62,3.29,4.24,6.58,4.24,4.45,0,6.29-2.71,6.87-5.35h-3.74c-.47,1.41-1.39,2.35-3.04,2.35Zm-28.62-.58c.4-1.12,1.56-2.42,4.14-4.3,1.91-1.39,3.17-2.41,3.94-3.49-.01,.31-.02,.63-.02,.95,0,2.54,.38,4.97,1.36,6.84h-9.42Zm15.58,.5c-3.08,0-3.59-3.64-3.59-7.38,0-4.38,.75-7.31,3.64-7.31s3.44,3.34,3.44,7.24-.45,7.46-3.5,7.46Z"/>
    </g>
  </g>
</svg>