<?xml version="1.0" encoding="UTF-8"?>
<svg id="b" data-name="Layer 2" xmlns="http://www.w3.org/2000/svg" viewBox="0 0 49.62 11.94">
  <g id="c" data-name="Layer 1">
    <g>
      <path d="M45.6,.87c-.32-.67-1.39-1.2-1.95-.59-.24,.36,.08,.84,.51,.81,2.1,0,1.64,2.99,.39,3.79-.72,.57-1.7,.86-2.84,.85,1.07-.42,1.95-1.04,2.65-1.85l-.29-.29c-.26,.29-.55,.55-.92,.82-.49,.26-1.74-.03-2.24,.19-.32,.13-.66,.41-.48,1.03-.31,.07-.54,.1-.74,.1-.2-.8-1.45-.75-1.6,.06-.68,.01-1.63-.41-2.62-1.11-1.09,1.03-4.84,1.13-6.95,1.06,.33-.37,.76-.52,1.24-.5v-.35h-.21c-2.72-.11-2.63-4.2,.08-4.21,1.34-.09,2.5,1.4,1.44,2.49-1,1.06-2.95-.12-1.97-1.47,.44-.38-.31-.86-.56-.27-.57,1.09,.31,2.54,1.56,2.49,1.72,.06,2.27-2.28,1.09-3.29-2.26-2.04-5.27,1.35-3.57,3.61-.06,0-.14,.02-.19,.13-.06,.09-.07,.22-.03,.36-.35,.67-.85,.92-1.59,1.01-.12,0-1.86,0-1.93,0-.77-.08-1.27-.33-1.62-1.01,.04-.14,.03-.26-.02-.35-.08-.15-.16-.16-.26-.14,1.72-2.26-1.29-5.66-3.56-3.62-.74,.67-.91,2.05-.13,2.79,1.34,1.37,3.64-.26,2.79-1.98-.24-.6-1-.13-.58,.25,1.01,1.35-.97,2.54-1.97,1.48-1.06-1.08,.1-2.57,1.44-2.48,2.71,0,2.8,4.09,.09,4.2h-.22v.35c.49-.03,.92,.13,1.24,.5-2.12,.07-5.83-.03-6.93-1.06-.99,.71-1.94,1.13-2.62,1.11-.15-.81-1.39-.85-1.59-.06-.25,0-.5-.02-.74-.08,.17-.6-.16-.9-.49-1.06-.53-.17-1.73,.1-2.22-.18-.39-.29-.67-.54-.94-.83l-.29,.29c.7,.82,1.57,1.44,2.61,1.85-2.1,.01-3.87-1.02-3.86-3.21-.02-.87,.63-1.44,1.46-1.43,.78,.01,.78-1.11-.03-1.07-1.31-.04-1.85,1.47-1.86,2.58-.03,1.73,1.18,2.97,2.79,3.37-1.6,.43-2.82,1.62-2.79,3.36,0,1.11,.55,2.62,1.86,2.58,.81,.04,.81-1.07,.03-1.07-2.1,0-1.64-2.99-.39-3.79,.72-.57,1.7-.86,2.84-.85-1.07,.42-1.95,1.04-2.65,1.85l.29,.29c.26-.29,.55-.55,.92-.82,.49-.26,1.74,.03,2.24-.19,.32-.13,.66-.41,.48-1.03,.31-.07,.55-.1,.74-.1,.2,.8,1.45,.75,1.59-.06,.68-.01,1.63,.41,2.62,1.11,1.09-1.03,4.84-1.13,6.95-1.06-.33,.37-.76,.52-1.24,.5v.35h.21c3.68,.44,1.78,5.76-1.38,3.78-1.07-.73-.44-2.53,.84-2.46,.96-.02,1.67,1.01,.99,1.87-.44,.38,.31,.86,.56,.27,.86-1.71-1.44-3.36-2.78-1.99-1.25,1.27-.02,3.5,1.68,3.39,2,.06,3.25-2.66,2.02-4.22,.06,0,.14-.03,.19-.13,.06-.09,.07-.22,.03-.36,.35-.67,.85-.92,1.6-1.01,.4,0,1.55,0,1.93,0,.76,.08,1.26,.33,1.61,1.01-.04,.14-.03,.26,.02,.35,.08,.15,.16,.16,.26,.14-1.72,2.26,1.29,5.67,3.56,3.62,1.18-1.01,.63-3.34-1.09-3.29-1.25-.05-2.12,1.39-1.56,2.48,.24,.6,1,.13,.58-.25-1-1.35,.96-2.54,1.97-1.48,1.06,1.08-.1,2.57-1.44,2.49-2.71,0-2.8-4.09-.09-4.21h.22v-.35c-.49,.03-.92-.13-1.24-.5,2.12-.07,5.83,.03,6.93,1.06,.99-.71,1.94-1.13,2.62-1.11,.15,.81,1.39,.85,1.6,.06,.25,0,.49,.02,.74,.08-.17,.6,.16,.9,.49,1.06,.53,.17,1.73-.1,2.22,.18,.39,.29,.67,.54,.94,.83l.29-.29c-.7-.82-1.57-1.44-2.6-1.85,2.1-.01,3.87,1.02,3.86,3.21,.02,.87-.63,1.44-1.46,1.43-.78-.01-.78,1.11,.03,1.07,1.31,.04,1.85-1.47,1.86-2.58,.03-1.73-1.18-2.97-2.79-3.37,2.28-.48,3.52-3.05,2.34-5.1Z"/>
      <path d="M46.27,5.97c-.01,.35,.54,.28,.51,0,.03-.28-.52-.35-.51,0Z"/>
      <path d="M49.24,5.62c-.47-.03-.47,.74,0,.7,.5,.03,.5-.74,0-.7Z"/>
      <path d="M47.94,6.42c-.39-.03-.48,.66,0,.65,.48,0,.39-.68,0-.65Z"/>
      <path d="M47.94,4.87c-.39-.03-.48,.66,0,.65,.48,0,.39-.68,0-.65Z"/>
      <path d="M3.35,5.97c.01-.35-.54-.28-.51,0-.03,.28,.52,.35,.51,0Z"/>
      <path d="M.38,6.32c.47,.03,.47-.74,0-.7-.5-.03-.5,.74,0,.7Z"/>
      <path d="M1.69,4.87c-.48,0-.39,.68,0,.65,.39,.03,.48-.65,0-.65Z"/>
      <path d="M1.69,6.43c-.48,0-.39,.68,0,.65,.39,.03,.48-.65,0-.65Z"/>
    </g>
  </g>
</svg>