<?xml version="1.0" encoding="UTF-8"?>
<svg id="Layer_2" data-name="Layer 2" xmlns="http://www.w3.org/2000/svg" viewBox="0 0 22 33">
  <g id="Layer_1-2" data-name="Layer 1">
    <path d="m21.85,30.63c-.04-.19-.05-.42-.02-.7.04-.27.05-.47.02-.6-.07-.31-.17-.7-.31-1.15.01-.03.05-.08.1-.14.07-.07.11-.12.12-.16-.25-.15-.39-.36-.44-.62-.01-.05-.03-.18-.04-.37-.01-.18-.04-.34-.06-.47-.01-.06,0-.13.04-.23l.04-.14s-.03-.05-.1-.12c-.08-.06-.13-.1-.13-.12.2-.71.2-1.44,0-2.2-.15-.57.19-.91.24-1.11.33-1.25.28-2.24-.15-3-.18.03-.71.04-.8.12-.46.2-.77,1-.94,2.4-.04.42-.08.98-.13,1.66-.04.66-.08,1.06-.1,1.21l-.06,1.52s-.07.12-.17.25c-.08.11-.13.19-.15.23v.68c-.04.11-.17.31-.38.6-.18.26-.29.49-.33.7l-1.85-.49-.54.04c-.35,0-.6.08-.75.23-.06.06-.12.14-.19.25l-.77.14c-.15-.04-.31-.02-.46.06-.18.11-.28.16-.31.16-.1.01-.31-.01-.62-.08-.31-.07-.51-.09-.62-.06-.04-.08-.28-.3-.71-.66-.43-.37-.69-.56-.77-.57-.07-.01-.24,0-.5.04-.2.03-.36-.01-.5-.12l.29-1.25c.53-.51.82-.8.88-.88.15-.22.33-.63.52-1.23.2-.57.38-.98.56-1.21.12-.16.43-.4.92-.7.47-.29.76-.51.87-.68.1-.15.17-.37.21-.66.07-.36.12-.6.17-.72.03-.05.08-.14.17-.25.07-.1.12-.19.15-.29.15.01.26.04.31.08.35-.01.6-.12.75-.31.06-.06.13-.15.21-.29.08-.15.15-.26.21-.33.13-.16.37-.43.75-.8.33-.33.58-.6.73-.8.08-.14.19-.4.33-.78.14-.38.26-.64.35-.76.22-.29.56-.59,1.02-.9.05-.03.15-.06.29-.08.03-.03.07-.12.12-.29.04-.18.08-.29.13-.33.05-.08.19-.18.39-.31.19-.12.32-.23.38-.31.04-.05.07-.14.08-.27.01-.12.03-.21.06-.27.04-.07.14-.18.29-.35.14-.15.22-.26.25-.33.14-.26.2-.62.19-1.07-.01-.52,0-.88.04-1.09.07-.23.15-.56.25-.98.11-.52.19-.88.23-1.07l-.08-1.15c.04-.38.07-.56.08-.53.03.1-.36-.36-1.17-1.38-.1-.12-.3-.36-.6-.7-.25-.27-.44-.5-.56-.68l-.08-.31-.23-.08c-.05-.08-.12-.24-.21-.47-.08-.19-.17-.34-.25-.43-.14-.15-.38-.32-.73-.51-.36-.19-.61-.36-.75-.49-.25.01-.43.07-.54.16-.26.2-.44.49-.54.84-.1-.03-.18-.06-.25-.08-.08-.04-.15-.07-.21-.08-.03-.52-.13-.9-.31-1.15-.21-.3-.74-.61-1.58-.92-.9-.34-1.59-.44-2.06-.29-.08.03-.23.1-.44.23-.21.14-.35.21-.42.23-.42-.03-.73-.06-.94-.08-.04.01-.13.05-.25.12-.13.07-.2.11-.21.12-.18-.01-.44-.03-.77-.04-.35-.03-.61-.04-.79-.04-.13.04-.3.16-.52.37-.13.12-.33.15-.62.08-.04.11-.07.21-.08.31-.24.04-.42.19-.54.45-.04.05-.05.18-.02.37.04.19.08.3.1.33-.03.07-.05.12-.08.14-.11.06-.31.05-.6-.02-.32-.07-.55-.08-.71-.04-.18.03-.41.12-.69.29-.26.14-.48.22-.65.25.1.36-.07.79-.5,1.29-.1.11-.28.3-.54.57-.21.22-.35.38-.44.49-.03.06-.05.14-.06.27-.01.12-.04.21-.08.27-.04.06-.13.1-.27.12-.14.03-.23.06-.27.1-.08.1-.17.34-.25.72-.07.36-.17.57-.29.66-.06.05-.16.1-.31.14-.17.04-.27.08-.31.1,0,.12.18.71.54,1.74.26.74.37,1.07.31,1.01.82,1.18.89,1.94.9,2.13h.23c.01.06.1.36.27.92.14.44.26.72.35.84.01.01.06.03.15.06.08.03.14.06.17.08l.15.47s.13.05.27.06c.14.01.23.04.27.08.5.52.71.76.65.72.22.15.95.11,1.49.04.14-.46.21-.72.23-.76l-.71-.78c-.72-1.48-.98-2.65-.77-3.51.01-.08.07-.23.17-.43.08-.22.13-.36.15-.41.01-.04.01-.14,0-.31-.01-.15.01-.27.08-.37.11-.21.4-.46.87-.78.53-.36.85-.61.98-.76l1.5-1.48c.14.03.24.04.29.04.86-.18,1.45-.38,1.77-.62.15-.12.27-.37.35-.74l.67-.31c.03.4.05.62.06.66.01.19.07.37.17.53.79.16,1.2.24,1.23.23.03,0,.16-.05.4-.16.19-.08.35-.1.46-.06.06.03.14.1.25.23.11.14.19.22.23.25.15-.1.33-.08.54.06.19.14.32.29.37.47h.08c.1.03.05.05-.15.06.04.07.13.15.27.25.14.1.23.17.27.23,0,.05.01.14.04.27.01.11.02.2.02.27.03.04.08.09.15.14.1.07.15.12.17.16.8-.01,1.25,0,1.33.06h.15c-.06.33-.22.72-.48,1.17-.33.59-.53.96-.6,1.13-.08.96-.16,1.49-.23,1.6-.03.06-.09.08-.19.08-.1.01-.17.04-.21.08-.07.06-.12.17-.17.35-.05.21-.1.34-.15.41-.08.12-.26.27-.54.45-.28.18-.46.34-.54.47.03-.04-.26.51-.85,1.66-.03.07-.1.15-.23.25-.13.1-.2.17-.23.23-.07.12-.11.31-.12.55,0,.25-.04.44-.1.6-.76.85-1.15,1.28-1.17,1.29-.05.04-.18.11-.37.2-.15.08-.26.16-.33.25-.25.33-.55.78-.89,1.35-.43.71-.72,1.18-.87,1.4-.06.08-.33.29-.83.62-.6.38-.92.59-.96.62-.14.11-.33.37-.56.78-.22.4-.42.64-.6.74-.06.04-.21.1-.46.16-.18.06-.31.13-.4.23-.05.07-.1.21-.15.43-.03.2-.08.34-.17.41-.04.01-.12.03-.23.04-.1.01-.17.03-.23.04-.36.19-.59.62-.69,1.29h-.25s-.32.45-1,1.38c-.43.59-.67,1.22-.71,1.91-.18.01-.3.04-.37.08-.1.11-.16.31-.19.6-.03.26-.1.44-.21.55.11.23.46.36,1.04.39.64.03,1.04.12,1.21.29.4-.34.89-.49,1.48-.45.21.04.34.06.4.06.03-.01.1-.08.21-.18.1-.11.18-.17.25-.18.1-.03.24-.02.44.02.21.04.32.06.33.06l.27-.12c.08.01.15.03.19.04.01,0,.05-.04.12-.12.06-.07.1-.1.13-.1.18.01.46.03.85.06.11-.01.26-.06.44-.14.22-.08.36-.13.42-.14.14.14.31.21.5.23.26.03.46.08.58.14.03.01.05.07.08.16.03.08.05.13.06.14l.85.08c1.05.4,3.56.42,7.51.06.19-.01.65.14,1.35.47.67.3,1.04.42,1.12.37.05-.01.19-.16.39-.45.46-.64.69-1,.69-1.07.01-.06-.04-.34-.15-.84Z"/>
  </g>
</svg>