<?xml version="1.0" encoding="UTF-8"?>
<svg id="Layer_2" data-name="Layer 2" xmlns="http://www.w3.org/2000/svg" viewBox="0 0 22 33.58">
  <defs>
    <style>
      .cls-1 {
        fill: #231f20;
      }
    </style>
  </defs>
  <g id="Layer_1-2" data-name="Layer 1">
    <path class="cls-1" d="m21.07,20.73c.03-.19.08-.32.16-.39.03-.32.28-.5.77-.52-.01-.06-.03-.37-.06-.92-.01-.52-.04-.81-.08-.86.03,0-.04-.02-.2-.07-.01-.05-.03-.12-.04-.22-.01-.11-.03-.19-.04-.24-.01-.04-.07-.1-.18-.19-.09-.1-.15-.17-.16-.21-.08-.12-.14-.3-.16-.54-.05-.27-.1-.47-.14-.58-.31-.88-1.92-1.9-1.92-1.9v-.34c-.23-.04-.44-.14-.63-.3-.27-.25-.44-.39-.51-.43-.04,0-.11,0-.2-.02-.1-.01-.17-.02-.22-.04-.05-.02-.14-.08-.24-.17-.09-.09-.18-.14-.26-.17-.19.06-.26.09-.2.07-.08-.04-.2-.13-.37-.28-.15-.14-.27-.22-.36-.24,0-.01-.05-.01-.16,0-.09.03-.18.03-.26,0-.01-.01-.03-.04-.04-.07-.03-.04-.06-.06-.1-.06-.19.1-.3.14-.34.13-.03-.04-.05-.08-.08-.13-.03-.06-.05-.11-.06-.13-.12-.07-.29-.12-.51-.15-.19-.02-.33-.09-.43-.19h-.01v-.07c.32-.15.53-.37.64-.67.03-.07.08-.22.14-.45.05-.21.11-.39.17-.52.11-.26.31-.61.6-1.05.33-.5.54-.85.64-1.05-.21-.16-.43-.49-.66-.99-.01-.04-.03-.08-.06-.13.04-.03.13-.06.27-.09.14-.04.24-.07.31-.11l.29-.32c.1-.05.21-.07.35-.06.15.01.25,0,.31-.02.33-.02.57-.17.72-.45.03-.06.08-.19.17-.39.07-.17.14-.31.21-.41.04-.02.1-.07.17-.13.08-.06.14-.11.19-.13-.04.06.15-.33.58-1.18.1-.17.15-.4.17-.67,0-.27.04-.49.12-.65.03-.05.1-.16.23-.32.11-.19.2-.34.27-.45.22-.39.28-.65.17-.8-.01-.14-.11-.29-.29-.47-.19.01-.35.06-.47.13-.15.11-.26.18-.33.21-.07.01-.17-.01-.29-.07-.32.03-.58.09-.78.21-.04.05-.1.14-.17.26l-.87-.07c-.07.03-.19.07-.35.13-.18.07-.3.12-.37.13-.19-.01-.48-.03-.87-.06-1.24.27-1.87.42-1.9.45-.14-.03-.28-.11-.43-.26-.14-.14-.21-.24-.23-.32-.19,0-.48.11-.87.32-.17.43-.27.68-.29.77.04-.19-.22-.49-.8-.9-.04-.03-.1-.04-.19-.06s-.14-.04-.17-.07c-.33.01-.87.12-1.61.34-.12.04-.28.01-.47-.07-.21-.09-.39-.11-.54-.06-.1.03-.25.08-.48.17-.19.09-.32.14-.39.15-.1.02-.27-.02-.52-.13-.28-.12-.42-.19-.43-.19-.07-.01-.21.03-.41.13-.18.09-.33.11-.45.06v-.05s.05-.08-.22.02c-.3.1-.55.12-.77.06-.01-.01-.03-.04-.04-.07-.01-.02-.03-.04-.04-.06-.05-.01-.2-.02-.43-.02-.2.01-.37,0-.51-.06-.03-.05-.05-.09-.06-.13-.05,0-.15.03-.28.09-.16.06-.26.1-.28.11-.47.09-.93.02-1.36-.2-.34,0-.65.07-.93.2C-.07,1.68,0,2.29.3,2.92c-.04.22-.07.42-.08.58.03.09.1.26.22.5.11.25.18.41.2.49.05.14.06.31.02.52-.03.22-.03.38-.02.47,0,.01-.16.68.32,1.98-.03.26-.05.45-.06.58.01.05.07.12.16.22.09.11.55.19.57.24.42-.03.64-.15.65-.37.04-.54.07-.81.08-.82.03-.07.15-.26.38-.56.16-.22.24-.45.24-.67.15-.02.28-.07.41-.13.18-.09.28-.14.32-.15.04-.01.64-.06,1.78-.13l.08-.07c.05-.05.12-.07.2-.06.08.03.28.09.61.19.34.11.56.18.67.2.14-.12.28-.21.43-.26.04-.01.09-.03.14-.06.15.24.24.44.28.6.83.04,1.3.01,1.44-.07,0-.02.01-.06.04-.09.01-.05.02-.09.02-.11.22-.07.49-.06.81.04.34.1.55.14.63-.38h.28c.03.54.05.59.06.62.01-.05-.18.12-.57.52l.04.19c.01.12-.07.24-.24.34.05.46.53.81,1.42,1.05,0,.2-.02.35-.06.47-.16,0-.51.02-1.06.06-.39.04-.69.04-.89,0-.04.07-.14.14-.28.2-.13.07-.23.14-.28.21-.18.24-.28.52-.28.52v.39s-.22.26-.39.45c-.18.2-.28.34-.32.41-.05.09-.09.22-.1.41-.03.16-.07.29-.12.37-.12.19-.36.52-.71,1.01-.32.44-.56.78-.71,1.03-.08.14-.17.36-.26.67-.09.29-.2.5-.3.65-.04.04-.13.11-.26.22-.12.1-.2.17-.24.22.08.14.15.33.22.58.08.26.15.44.2.54.17-.04.29-.11.34-.22.09-.16.17-.26.22-.3.38-.24.81-.41,1.3-.52.12-.04.28-.03.49.02.2.04.37.03.51-.02.05-.02.11-.08.18-.17.08-.1.14-.16.18.08h.2c.01-.24.06-.22.14-.17.08.04.13.06.14.06.03,0,.12-.02.28-.07.15-.05.25-.07.3-.06.01.01.05.07.12.17.07.1.12.16.16.17.03,0,.24,0,.63.02.39.01.61.03.65.04,1.65.45,2.77.98,3.37,1.59.11.05.39-.04.83-.28.41-.21.81-.45.81-.45h.13c-.01.23-.08.5-.2.79-.11.28-.16.58-.16.89.65.55,1.01.92,1.06,1.11.09.31.11.74.06,1.29-.01.23-.03.33-.06.28.39.85.43,1.45.14,1.81.2.39.01,1.11-.56,2.14-.05.09-.1.23-.14.44-.04.18-.09.32-.14.41-.11.15-.27.26-.5.33-.27.09-.43.15-.5.18-.04.04-.07.11-.1.22-.04.12-.07.2-.1.24-.09.12-.25.24-.46.35-.28.14-.45.23-.52.3-.08.06-.15.19-.22.39-.08.2-.15.33-.22.39-.19.2-.39.35-.62.46h-.79c-.11.07-.22.23-.32.48-.12.3-.22.48-.28.55-.16.21-.4.37-.71.48-.14.02-.27.05-.39.07-.04.02-.09.08-.17.17-.06.09-.12.15-.17.19-.41.21-.91.39-1.51.55-.16.03-.46.03-.89,0-.39-.03-.66-.02-.82.05-.03.01-.06.06-.09.16-.04.09-.07.14-.09.15-.11.06-.29.04-.52-.05-.27-.1-.45-.15-.54-.14.01,0-.07.06-.26.19-.37-.19-.56-.9-.57-.91-.11-.01-.27-.02-.47-.03-.2-.01-.35-.02-.47-.02-.1-.03-.27-.53-.46-.64-.2-.11-.34-.18-.41-.21-.05.01-.13.63-.21.65-.39-.1-.62-.76-.72-.78-.11.02-.22.04-.32.05-.14-.02-.35-.09-.65-.21-.26-.1-.48-.17-.67-.21-.1-.02-.2-.01-.32.03-.16.05-.25,1.09-.32,1.11.05.08.09.14.13.17.2.34.77.65,1.72.91.07.01.19.02.35.03.16.01.28.02.35.03.09.03.2.11.35.24.14.13.24.21.32.24.09.03.23.05.43.05.19,0,.32.02.41.07,1.09.49,2.04.67,2.83.55h.85s.05.38.1.33c.04-.06.07-.11.1-.13.03-.02.09,0,.18.07.11.07.18.73.18.73h.71s.6-.62,1.36-.58c.57.04.99,0,1.28-.09.07-.02.16-.08.26-.17.11-.09.19-.14.24-.17.09-.04.22-.04.39-.02.16.02.27.03.32.02.12-.16.17-.23.14-.21l.57-.06c.04-.06.09-.13.14-.2.08-.04.22-.09.41-.15.17-.06.3-.12.38-.17.12-.09.24-.29.36-.6.12-.31.24-.51.34-.61h.28c.2-.1.37-.25.51-.44.03-.05.05-.12.06-.22.01-.09.04-.15.08-.19.07-.04.2-.09.39-.15.15-.04.26-.09.32-.17.04-.07.09-.17.14-.3.08-.15.13-.25.14-.3.07-.03.17-.04.3-.04.13.01.23,0,.28-.02.09-.06.18-.16.26-.28.11-.17.18-.28.22-.32.05-.05.18-.11.36-.19.18-.07.29-.14.34-.2.08-.09.13-.25.16-.49.03-.25.07-.42.14-.5,0-.01.03-.03.1-.06.05-.02.09-.05.03-.07v-.34c.68-1.31,1.09-2.16,1.29-2.56.05-.1.09-.24.1-.43.03-.19.07-.33.12-.43.11-.06.18-.11.2-.13.03-.06.02-.22-.02-.47-.03-.2.03-.37.16-.52-.04-.54-.3-.88-.79-1.05Z"/>
  </g>
</svg>