<?xml version="1.0" encoding="UTF-8"?>
<svg id="Layer_2" data-name="Layer 2" xmlns="http://www.w3.org/2000/svg" viewBox="0 0 21.78 32.83">
  <defs>
    <style>
      .cls-1 {
        fill: #231f20;
      }
    </style>
  </defs>
  <g id="Layer_1-2" data-name="Layer 1">
    <path class="cls-1" d="m21.78,21.68s-.07-.14-.2-.57c-.01-.05,0-.11.02-.18.03-.07.04-.1.04-.07.01-.23-.03-.54-.14-.92-.19-.7-.38-1.24-.57-1.61-.08-.17-.11-.43-.1-.79.01-.35-.02-.61-.1-.75-.07-.1-.23-.23-.49-.39-.26-.16-.41-.27-.45-.33-.01-.16-.04-.37-.08-.64,0-.01-.12-.12-.34-.31-.03-.06-.02-.12.02-.16.04-.05.05-.08.04-.09-.07-.17-.36-.51-.87-1.03-.43-.44-.66-.83-.69-1.17-.28-.05-.49-.18-.63-.39l-.37-.59c-.23-.15-.53-.18-.91-.09-.61.15-.93.22-.95.22-.04-.82-.13-1.31-.28-1.49-.12-.28-.76-.56-1.93-.83h-1.56c-.07-.01-.2-.06-.39-.13-.21-.07-.36-.12-.46-.13-.1.01-.25.03-.44.06-.18.02-.31.05-.42.07,0-.01-.09-.08-.28-.2-.15-.11-.28-.15-.39-.13-.13.03-.31.1-.53.22-.2.13-.37.21-.48.24-.1.01-.25,0-.44-.02-.16-.02-.27-.02-.33.02h-.39c-.25-1-.25-1.69,0-2.07-.09-.18-.12-.51-.11-.99.03-.45.1-.75.2-.88.04-.02.14-.04.29-.04.15.01.26,0,.33-.02.04-.02.17-.09.37-.2.18-.1.31-.16.39-.18.1.01.3.07.59.16.28.09.47.13.57.15.09.01.31,0,.68-.06.35-.04.61-.04.77,0l.31.13s.15-.04.39-.11c.22-.06.4-.07.55-.02.99.33,1.64.43,1.93.31.19-.05.4-.23.64-.55.28-.39.45-.62.5-.68v.07s.17.28.29.55c.1.26.2.44.31.55.16.09.28.06.28.06.03,0,.1.03.2.09.12.06.18.1.2-1.27h.61c.09,1.42.22,1.52.4,1.69.1-.02.18-.07.22-.13.34.04.54.23.61.57.12.55.2.86.24.92.01.03.07.07.15.13.09.06.14.1.15.13.12.2.26.54.42,1.05.15.48.14.95.29,1.16.03.05.12.13.28.26.16.11.24.17.24.18.06.06.08.14.07.24,0,.06.06.13.18.22.04.03.32-.08.52-.07.03-.09.08-.21.15-.37.1-.18.15-.29.15-.33.06-.16.04-.32-.07-.5-.12-.18-.17-.34-.15-.48.06-.44-.02-1.06-.24-1.87-.04-.17-.04-.4,0-.7.03-.29.03-.49,0-.59-.02-.1-.12-.38-.31-.84l-.07-.59s-.07-.07-.15-.13-.14-.1-.15-.13c-.07-.1-.31-.64-.7-1.61.38-1.49.53-2.29.46-2.38l-.07-.18c.1,0-.23.09-1.01.26-.13.03-.39.02-.79-.02-.31-.04-.53.01-.68.15-.18-.02-.3-.11-.37-.26.07-.01-.19.13-.79.44-.09.06.19.09.12.13-.07.1-.12.16-.15.2-.22-.01-.56-.02-1.01-.04-.44-.01-.77-.02-.99-.02-.03-.01-.06-.06-.09-.13-.03-.09-.05-.13-.07-.15-.15-.07-.45-.11-.92-.11-.4,0-.63-.09-.7-.28-.06.03-.18.06-.35.11-.15.04-.26.07-.35.09-.06.15-.15.34-.28.59-.12.26-.2.45-.26.57-.19,0-.31-.02-.37-.06-.17-.07-.56-.44-1.16-1.1-.37.1-.65.27-.85.51-.06-.01-.18-.06-.37-.15-.17-.09-.32-.15-.44-.18-.38-.11-.67-.07-.88.13-.1,0-.44-.15-1.01-.44-.13-.06-.3-.04-.5.06-.19.1-.33.21-.42.33-.34-.04-.62-.19-.85-.46-.34.01-.67.07-.99.16-.32.1-.61.15-.85.16C1.81.3,1.48.08,1.18.01c-.13-.05-.36.06-.68.31-.03.25.04.5.22.77.23.34.37.58.39.72.01.1,0,.17-.04.22l-.11.11c.01.15.04.36.07.64-.12.43-.19.75-.22.97-.01.04,0,.11.04.22.04.11.05.21.02.29-.15.49-.22,1.23-.22,1.23H.08h.27s.14.27.46.64c.28.33.51.52.7.57-.06.09-.17.16-.33.22-.19.07-.31.13-.37.18-.18.15-.31.4-.39.77-.03.17,0,.64.11,1.39.1.71.09,1.21-.02,1.5-.28.67-.38,1.08-.31,1.23.31.6.46.86.46.77-.01.22-.13.69-.35,1.41-.2.61-.27,1.02-.2,1.23,0,.72.08,1.28.24,1.69.15,0,.32-.02.53-.07.28-.07.46-.12.2-.13v-.2c1.28-.4,1.69-.59,1.57-.57.03-.01.37-.01.43,0v-.2c1.36-.33,1.82-.59,1.96-.77.6.16.85.25.77.26.07-.01.24-.08.5-.2.22-.11.42-.15.59-.11-.04-.01.31.1,1.05.33.45.15.8.16,1.03.05.2-.08.33-.17.37-.26.04-.09.04-.18,0-.29-.04-.11-.04-.21,0-.29.04-.06.17-.23.37-.5.18-.22.28-.4.33-.53.1-.04.18-.06.22-.07.29.48.42.84.39,1.1,1.08.05,2.44.56,4.08,1.54.16.1.3.32.42.68.13.35.15.56.04.62.03.09.07.14.13.17.06.02.09.05.11.09.06.12.05.32-.02.61-.04.21.07.39.33.55.06.05.29-.02.7-.2.44-.2.99-.2.99-.2h.1c-.47.92-.7,1.54-.68,1.87.35.24.71.87,1.08,1.87.04.13.04.31,0,.53-.06.2-.06.34,0,.44.24.45.05,1.2-.55,2.26-.04.1-.09.26-.13.48-.04.2-.1.34-.18.42-.46.57-.71.88-.77.92-.06.04-.18.09-.37.16-.15.07-.25.15-.31.22-.23.24-.42.5-.55.77v.26c-.1.15-.32.32-.64.51-.35.22-.58.39-.68.51l-1.63-.05c-.23.06-.45.2-.64.42-.19.23-.34.37-.44.4-.1.05-.22.06-.35.02-.13-.03-.22-.03-.26-.02-.06.03-.15.1-.29.24-.12.13-.23.21-.33.22-.03,0-.07-.02-.13-.05l-.11-.07s-.77.03-1.17.08c-.35.04-.57.04-.66,0-.06-.01-.18-.09-.38-.22-.18-.12-.31-.2-.4-.22-.16-.05-.37-.04-.62.02-.26.09-.44.12-.53.11-.07-.01-.51.03-1.32.13-.06,0-.12-.02-.2-.06-.06-.04-.12-.04-.2-.02-.25-.01-.36-.27-.43-.37-.15-.16-.24-.25-.29-.28-.06-.04-.23-.09-.51-.16-.25-.07-.42-.15-.51-.22-.04-.05-.08-.13-.11-.26-.04-.12-.08-.21-.11-.26-.62-.83-.97-1.45-1.6-1.61-.04.04-.44.4-.54.45,0,.06.21.4.62,1.03.01.05.03.12.04.2.01.09.03.15.04.18.01.04.08.11.2.22.1.11.16.19.18.24v.22s.49.46,1.43,1.3c.08-.1.21-.1.36,0,.07.06.17.16.3.31.17.07.46.13.86.16.5.05.79.08.88.09.07.01.19,0,.36-.02.16-.02.24-.04.26-.04.1.04.25.13.45.28.23.17.38.27.45.29.19-.07.46-.06.81.04.37.11.65.14.83.09v-.06h.34s.08.09.16.16c.06.07.11.13.16.17.71-.05,1.77-.29,2.11-.68-.15.01.3.16,1.36.46.47.13.97.06,1.5-.24.12-.06.33-.18.61-.37.23-.16.4-.26.52-.29.05-.02.12-.05.23-.07v-.18c.18-.01.55-.09,1.09-.24.55-.16.85-.28.91-.35v-.28c.08-.15.2-.32.36-.51.07-.09.22-.22.47-.4.23-.18.38-.32.47-.42.04-.09.09-.21.16-.37.05-.15.11-.26.18-.35.04-.06.13-.12.28-.16.15-.06.24-.12.28-.16.01-.05.04-.13.08-.26.03-.11.05-.2.06-.26.04-.06.16-.18.34-.37.15-.17.25-.31.3-.4v-.39c.04-.09.13-.23.28-.42.15-.21.24-.35.28-.42.01-.11.04-.28.08-.51.04-.09.15-.22.34-.4.19-.2.31-.34.36-.44.03-.05.05-.13.06-.24.01-.09.04-.15.08-.2-.07-.45-.28-.86-.65-1.23,0-.39.28-.72.85-.97Z"/>
  </g>
</svg>