<?xml version="1.0" encoding="UTF-8"?>
<svg id="Layer_2" data-name="Layer 2" xmlns="http://www.w3.org/2000/svg" viewBox="0 0 22 33">
  <defs>
    <style>
      .cls-1 {
        fill: #231f20;
      }
    </style>
  </defs>
  <g id="Layer_1-2" data-name="Layer 1">
    <path class="cls-1" d="m21.44,22.73c.26-1.1.45-1.75.56-1.98-.11-.29-.21-.77-.28-1.45-.06-.62-.16-1.05-.28-1.29-.06-.05-.16-.13-.28-.22-.06-.11-.18-.36-.36-.77-.14-.33-.27-.57-.41-.71l-.28-.06v-.24s-.08-.06-.17-.1c-.1-.04-.16-.08-.17-.12-.05-.07-.14-.22-.28-.46-.1-.19-.19-.32-.28-.42-.05-.05-.14-.1-.26-.14-.11-.05-.19-.11-.23-.16-.03-.04-.05-.11-.08-.2-.01-.08-.04-.14-.08-.18-.1-.11-.25-.18-.45-.24-.26-.08-.44-.15-.52-.2-.06-.04-.09-.09-.09-.16,0-.09-.01-.17-.04-.22-.03.04-.18-.02-.47-.18-.29-.15-.48-.26-.58-.34-.44,0-.72.25-.84.73-.04.05-.06.15-.08.3-.4-.08-.86-.72-1.39-1.92-.98-.2-1.86-.12-2.64.24-.19-.07-.28-.09-.28-.08-.04.01-.09.09-.17.22-.08.12-.14.19-.19.22-.11.05-.28.06-.51.02-.23-.03-.36-.03-.39-.02-.05.03-.1.1-.15.22-.05.13-.09.21-.13.24-.1.05-.26.1-.49.14-.24.04-.4.09-.49.14-.09.05-.19.17-.3.36-.12.21-.21.34-.26.4l-.77.51c-.06.03-.2.03-.41,0-.19-.01-.36.03-.51.14h-.13c.26-.65.52-1.09.77-1.33.04-.03.11-.05.21-.08-.04-.46.27-1.04.92-1.74.65-.7,1.18-1.02,1.59-.97.26-1.04.22-1.76-.13-2.14v-.08c.98.12,1.63-.12,1.95-.73.08-.13.14-.34.21-.61.06-.25.13-.44.21-.57.11-.16.28-.35.51-.57.3-.28.48-.46.54-.53h.08s-.03-.03-.04-.06c-.01-.04-.02-.07-.04-.08.09-.05.26-.17.53-.36.22-.16.4-.26.52-.32.13-.04.34-.09.66-.14.25-.05.45-.12.6-.22.16-.12.36-.33.58-.63.22-.32.41-.53.54-.63-.05.04.25-.13.9-.51l.08-.22c.06-.04.17-.03.32.02l.23.06s.11-.07.19-.18c.09-.11.14-.17.17-.2.06-.04.15-.07.26-.08.14-.01.24-.03.3-.06.06-.03.17-.11.32-.24.14-.11.26-.17.37-.2-.04-.29-.04-.49,0-.59-.11-.09-.23-.24-.36-.46-.43.03-.82-.05-1.18-.22-.13.05-.31.06-.56.02-.26-.04-.47-.05-.62-.02-.03.01-.1.05-.23.12-.14.07-.23.1-.26.1-.06.01-.14,0-.23-.06l-.13-.08c-.23.18-.36.28-.41.3-.59-.13-.96-.18-1.13-.16-.11.04-.31.14-.58.3-.25.15-.42.22-.53.24.1-.01-.32-.19-1.26-.54-.09-.03-.19-.01-.32.04-.12.04-.21.05-.24.04-.02-.01-.1-.11-.23-.28-.09-.12-.22-.15-.41-.08-.3,0-.48.08-.52.24-.01.01-.03.11-.06.28-.03.13-.06.25-.11.36l-.34.3c-.04.07-.06.17-.08.3-.01.13-.04.23-.08.3-.06.12-.18.24-.36.36-.23.15-.36.24-.41.3-.04.04-.07.13-.09.26-.04.13-.08.22-.11.26-.39.4-.59.62-.62.67-.06.09-.12.25-.17.48-.06.22-.13.38-.19.48-.05.08-.18.18-.39.3-.2.12-.33.22-.37.3-.06.11-.11.24-.15.42-.04.17-.08.3-.13.4-.08.13-.23.3-.45.5-.24.2-.39.36-.45.48-.36.55-.97,1.68-1.82,3.39-.12.25-.37.59-.73,1.01-.38.44-.62.76-.73.97-.05.08-.11.25-.19.52-.08.2-.16.35-.24.46-.01.01-.06.03-.13.06-.08.03-.13.05-.15.08l-.06.38-.28.22c-.1.2-.17.46-.21.77-.06.4-.11.65-.15.77.19.15.38.25.56.3-.01.45-.21.88-.6,1.31-.45.47-.71.88-.79,1.21,0,.07,0,.16.02.28.02.13.04.23.04.3-.39,1.15-.5,2.43-.34,3.84,0,.08.05.23.15.46.11.25.17.42.19.5,0,.12-.01.29-.04.51-.01.24-.02.41-.02.51.02.15.07.44.13.87.05.37.09.62.13.75.11.3.26.6.43.89.03.04.09.1.21.18.11.08.18.15.21.2.06.12.16.34.3.67.1.25.21.47.34.65.42-.07.7-.14.82-.22.11.07.21.27.28.61.08.33.17.54.28.63.08.05.25.15.53.3.21.11.36.22.45.36.3.44.42.63.36.59.06.04.38.17.94.38.29.11.53.32.73.65.29,0,.59-.05.92-.14.06.07.21.17.43.32.19.11.32.22.39.34.33-.08.73-.03,1.2.16.1.04.42-.01.98-.16-.02.01.23.07.77.16.11.01.25,0,.41-.02.23-.04.36-.06.41-.06.09,0,.26.01.51.04.21.04.35.05.41.04,1.06-.3,1.99-.67,2.8-1.11.06-.04.18-.09.36-.14.15-.04.26-.09.34-.16.02-.03.05-.09.07-.18.01-.09.03-.16.06-.2.09-.08.29-.2.6-.38.3-.16.5-.3.6-.44.03-.03.06-.12.11-.28.05-.12.1-.2.15-.24l.36-.06c.17-.13.38-.4.62-.79.27-.45.46-.73.56-.83.03-.03.09-.05.19-.08.1-.03.16-.05.17-.08.01-.07.02-.17.04-.3.01-.13.03-.22.04-.28.02-.08.16-.37.39-.87.24-.5.42-.92.54-1.25.41-1.11.45-1.85.11-2.24.02-.17.16-.3.41-.38Zm-4.05-3.6s-.05.11-.08.22h-.21c-.15.42-.27.67-.36.73.01.16.06.35.13.57.06.2.09.4.09.61.19.07.44.21.77.44,0,.17.03.39.09.65.05.2.06.42.04.67h-.08s-.11.05-.21.08v.22c-.55.45-.9.72-1.05.81-.11,1.73-.25,2.71-.41,2.95-.08.11-.2.17-.38.18-.23.03-.38.07-.47.12v.08c-.24.2-.47.46-.69.79h-.21v.24c-.06.03-.23.2-.49.51-.04.01-.13.01-.26,0-.15-.03-.25-.03-.3,0-.02.01-.33.3-.9.87-.01,0-.23-.07-.64-.22-.13-.04-.28-.03-.45.02-.17.05-.28.07-.32.06-.05-.01-.17-.08-.38-.2-.2-.13-.35-.21-.45-.24-.83-.28-1.2-.38-1.13-.3-.45-.01-.78.13-.98.44h-.15c-.23-.95-.43-1.52-.62-1.7-.06-.05-.17-.11-.34-.16-.19-.04-.31-.08-.36-.12l-.15-.24h-.34c-.05-.04-.09-.13-.13-.26-.04-.17-.07-.28-.09-.32-.16-.16-.33-.31-.49-.46-.06-.11-.15-.33-.26-.67-.1-.26-.22-.46-.36-.57.01-1.72.78-3.12,2.31-4.2,0-.74-.08-1.21-.23-1.41v-.38c.09.05.22.16.39.32.16.15.29.24.37.28.11.08.28.12.51.12.19-.01.33-.05.41-.12-.1.03.16-.39.77-1.25.05-.08.16-.16.32-.24.2-.11.33-.17.38-.2.02-.03.05-.08.08-.16.02-.08.05-.12.08-.14.11-.11.37-.18.77-.22.39-.04.64-.12.75-.24.16.07.39.21.69.44.27.21.49.34.64.38.2-.03.51-.06.92-.1.4-.05.7-.09.9-.12.05.03.15.11.3.24.11.11.24.17.39.2.09.44.21.79.36,1.05.03-.01.7-.26,2.03-.75v.08h.06s-.18.17-.62.59Z"/>
  </g>
</svg>