<?xml version="1.0" encoding="UTF-8"?>
<svg id="Layer_2" data-name="Layer 2" xmlns="http://www.w3.org/2000/svg" viewBox="0 0 298.21 287.56">
  <defs>
    <style>
      .cls-1 {
        fill: #231f20;
      }
    </style>
  </defs>
  <g id="Layer_1-2" data-name="Layer 1">
    <path class="cls-1" d="m286.65,174.42l10,.08s-8.12-15.67-8.86-16.71c-.14-2.44,10.43-.9,10.43-.9,0,0-9.95-5.12-15.09-5.27-1.45-1.8-2.94-3.58-4.5-5.3l8.88,1.08s-9.3-6.98-15.55-7.81c-2.96.4-1.76-1.08,3.92-.81.49-1.16-5-3.26-4.6-4.33,8.25,3.51,15.84,8.22,23.32,13.48-.45-5.69-14.46-11.46-21.45-16.22.89-3.42,49.73,12.1.71-7.98-29.29-11.92,10.69-.53,10.69-.53-.66-3.01-13.53-7.77-17.94-12.24,11.7.33,15.45-.53,26.99,5.4-4.53-8.38-26.59-17.43-42.17-21.6,11-2.42,13.65-4.85,24-3.03-10.74-6.76-15.71-8.86-27.82-12.1-2.87-4.1,9.16-7.71,8.45-7.99-8.6-3.28-27.38-6.25-33.71-11.27,21.21-.19,21.28-2.95,41.65,1.88-27.15-15.37-36.11-14.4-67.24-12.84,14.68-9,31.28-10.92,48.05-12.48-20.31-7.08-40.41-5.86-60.47,2.42,11.88-14.42,21.26-19.44,36.34-29.59-86.99,19.58-27.88,55.08-70.49-9.78,4.31,13.53,4.26,17.05,5.04,31.57-7.21-9.02-15.08-17.08-25.52-22.45,6.48,9.93,13.74,19.4,12.43,32.59-18.98-24.49-31.94-23.71-61.99-28.61,20.46,9.05,27.17,6.01,40.57,24.78-29.55-16.32-42.96-13.14-73.6-7.36,15.76,1.23,14.52,1.06,30.06,4.87.06.44.13.87.19,1.31-7.79,1.34-15.57,2.68-23.35,4.03,0,.38,0,.76,0,1.15,16.56-.27,32.93.57,47.9,8.48-.07.56-.14,1.12-.21,1.68-11.14-1.39-22.29-2.78-33.45-4.17-.1.44-.21.88-.31,1.32,4.39,2.49,8.77,4.98,13.15,7.47-.1.49-.2.97-.31,1.46-32.64-7.01-25.01-3.4-49.2,5.07,25.98.76,26.26-1.71,43.8,5.42-33.92,3.27-39.48,3.66-60.22,26.95,19.23-14.19,22.1-7.13,46.91-10.9-22.57,8.32-41.38,15.21-54.32,35.64,11.48-8.83,23.6-10.77,37.18-15.96-1.68,1.43-2.42,2.52-2.19,3.25l2,1.23c-6.16,4.16-11.95,6.58-17.66,11.78,3.13.04,5.43.06,7.59.09l-2.28,2.08c.13.41.62.53,1.47.37-15.66,7.93-30.72,14.26-30.52,14.61,7.62-3.63,9.21,4.28,16.99.95l.2,1C7.9,152.8-.53,167.16.03,169.96c0,0,9.4-8.23,14.89-11.3l.76.74-5.17,4.04c-1.04,3.5-2.59,6.03-4.66,7.6l1.47,2.14c-.23.3-.46.59-.68.89.29.36.57.71.86,1.07-1.5,1.28-2.81,2.91-3.9,4.95l.18.56c2.95-.09,4.52.15,4.7.71-.04.06-.2.46-.28.47.02,0,.03,0,.05,0l-.56,1.09c.24.74,2.26.4,6.07-1.02-4.63,5.3-6.66,10.55-6.06,11.88,2.38-.87,5.83-2.19,7.08-.57,0,0,2.85,1.1,3.55,3.35-4.54,3.13-6.67,5.1-6.41,5.93l1.49.72c.38-.02,2.88-1.52,3.27-1.73l.17.56.75.37c-4.69,1.59-7.83,5.71-9.46,12.33l.34,1.1.74.36c.28-.15,4.66-2.93,4.82-2.77.28.27.04,3.85.05,4.25.87.43,3.34.27,7.42-.49l.17.56c-12.81,7.72-9.84,8.77-3.96,7.75-1.9,1.85-2.7,3.36-2.34,3.87.68-.15,1.45-.32,2.24-.46l-2.48,2.8s4.12-1.29,7.2-2.55c.36.11.93.3,1.49.58-1.31,1.38-3.07,2.67-4.81,3.4l1.09.17c-.72.43-1.03.75-.93.94,1.03.38,1.55.48,2.7.05l.17.09c-.13.23-.26.45-.38.67-2.88,1.19-4.94,3.2-6.18,6.05l.3.62c1,.46,1.73-.3,3.6-.85-.54,2.22-.47,3.55-.47,3.55,0,0,.84-.85,2.12-2.08-.02.2-.03.35-.03.41.61.19,2.11.17,4.48-.03-.23.27-.49.54-.77.79l.69.27c-9.84,3.78-5.48,3.93.54,3.16-.42.62-.77,1.28-1.03,1.99l.31.25c2.78-.81,4.34-1.08,4.65-.83-.02.04-.07.3-.15.32.01,0,.03-.01.04-.02l-.25.73c.34.28,1.67-.16,3.96-1.31.1.06.18.13.22.22-4.55,1.8-6.56,2.58-5.83,3.71l1.39.44-.63,1.12.3.62c.57.29,2.15-.12,3.72-.59-1.15.95-1.54,1.7-1.14,2.69l.59.33c-1.58.88-1.13,1.72,1.18,2.93.11-.02.26-.05.42-.08.05.29.16.62.31,1.02l4.06-.95.17.56-.83,1.39.17.56.75.43c.14-.06.31-.15.52-.25-.04.09-.08.17-.12.26-2.81.92-2.47,2.38-.53,2.04-.08.55-.11,1.13-.09,1.73l.61.5c.64.04,3.47-.51,4.18-.56l.15.31-.79.78.15.31c1.5.57,4.99-1.31,6.78-1.28-1.1.93-2.22,1.07-3.44,2.17l.15.32.23.08c-2.72,2.67.14,2.06,4.13.51l.07.14c-.24.6-.27,1.2-.1,1.79,1.87-.39,3.19.13,3.99,1.53h1.64c.45.46,1.42,0,1.84.57l-.09.9.61.5h.82c.95-.9,2.76-.62,4.04-.65.07.09.16.17.3.26.49-.38,1.71-.24,1.94-.26l.06.13c-2.43,1.53-3.61,2.18-3.25,2.97,0,0,0,0,0,0h.01c.46,1.05,2.79,1.7,3.7,1.09l3.02.89c1.96-1.67,2.76-1.55,4.81-.43-2.94,2.09-3.85,3.43-1.65,3.41,2.1-.83,2.87-1.09,3.56-.37-2,.88-1.95,1.18-.9,1.91l3.71-1.58.31.25-.45.96c1.66,1.07,4.91-2.59,6.81-2.88l.1.1s.08-.02.12-.03l.19.16c-1.16.49-2.17,1.42-3.04,2.81.93,1.23,4.44-2.14,5.34-2.23l-.37,1.7.62.51c2.25-.4,4.98-1.82,7.46-3.01.14.35.28.64.43.89-1.68,1.48-3.36,3.23-2.66,3.81,5.48-3.11,10.03-2.48,12.3-1.7.16.37.58,1.51.42,2.84,1.32.14,8.37-2.56,9.63.2,1.13.25,9.95-.2,10.46,1l6.81-1.07c2.04.19,3.91.37,4.31.07.01.51,2.44.02,4.83-.59,2.48.56,5.17,1.28,5.63.99-.01.27.48-.02,1.08-.47.59.45,1.07.73,1.06.47.45.3,3.16-.43,5.67-.99,2.37.6,4.78,1.09,4.81.59.39.31,2.27.12,4.31-.06l6.78,1.06c.52-1.19,9.4-.75,10.5-1,1.38-2.74,8.29-.06,9.64-.2-.12-1.31.34-2.45.52-2.82,2.29-.78,6.87-1.4,12.24,1.69.72-.58-.89-2.31-2.52-3.78.16-.25.31-.54.47-.88,2.44,1.18,5.12,2.59,7.35,2.99l.64-.51-.31-1.68c.92.1,4.27,3.42,5.26,2.21-.82-1.37-1.8-2.3-2.94-2.79l.2-.16s.08.02.12.03l.11-.1c1.9.29,5.01,3.91,6.71,2.86l-.42-.95.31-.25,3.66,1.56c1.07-.72,1.13-1.02-.83-1.89.72-.71,1.48-.45,3.55.37,2.2.02,1.33-1.3-1.53-3.37,2.1-1.11,2.9-1.22,4.8.43l3.05-.87c.89.61,3.24-.03,3.74-1.07h.01s0,0,0,0c.39-.78-.77-1.42-3.14-2.94l.07-.13c.23.02,1.46-.11,1.93.26.14-.09.24-.17.31-.26,1.28.04,3.09-.24,4.01.66h.82s.63-.51.63-.51l-.05-.89c.44-.57,1.4-.11,1.86-.56h.07s-.01-.04-.02-.06c.01-.02.03-.03.05-.05.47-.03.98-.02,1.55.05.12-.14.16-.28.17-.42.15.16.3.32.45.48h3.5s-.01-.98-.01-.98l1.75-.04c.42-.44.57-.94.49-1.55,2.6.83,3.94.77,1.86-1.31l.24-.08.16-.31c-1.18-1.08-2.3-1.22-3.36-2.15,1.79-.03,5.21,1.83,6.73,1.28l.16-.31-.76-.77.16-.31c2.03-.48,8.71,4.24,5.37-1.58,1.68-.14,1.09-1.28-1.07-2.05-.51-1.78-2.16-3-3.42-4.48,1.09.12,2.78.16,3.69.79.01-.01.02-.03.03-.04,1.19.64,2.04.96,2.54.95.03-.08.1-.31.18-.61,1.13.23,2.06.42,2.53.51.53-.26.95-.51,1.29-.74.68.87,1.25,1.62,1.33,1.72h.86s.69-.87.69-.87c.13-1.87.09-3.62-.12-5.26.19,0,.36-.03.48-.08l.32-.61-.59-1.1,1.4-.43c.58-.83-.39-1.47-2.81-2.5-.03-.08-.07-.17-.1-.25.71.25,1.17.31,1.35.17l-.22-.72s.03.01.04.02c-.07-.02-.11-.28-.13-.32.32-.25,1.86.03,4.62.84l.32-.25c-.24-.69-.56-1.34-.96-1.96,5.98.8,10.36.67.65-3.09l.7-.26c-.27-.25-.52-.51-.74-.78,2.36.22,3.85.24,4.48.06,0-.05,0-.2-.02-.4,1.23,1.21,2.05,2.05,2.05,2.05,0,0,.12-1.31-.34-3.49,1.85.55,2.54,1.29,3.56.85l.32-.6c-1.09-2.66-2.95-4.59-5.57-5.79-.06-.23-.14-.5-.24-.81.9.29,1.42.17,2.35-.15.1-.19-.2-.51-.9-.93l1.1-.16c-1.56-.82-3.59-1.68-4.38-3.51.46-.2.9-.34,1.2-.42,3.03,1.26,7.11,2.56,7.11,2.56l-2.38-2.77c.77.15,1.54.32,2.22.47.08-.1.09-.26.07-.45.15.07.3.14.46.22l.36-.44c-.42-2.4-1.19-4.53-2.27-6.41.4-.2.8-.4,1.2-.6-.13-.38-.26-.76-.39-1.15l2.16-1.32c-1.03-1.62-1.69-3.53-1.98-5.74.26.04.53.07.79.12,0-1.91.01-3.55.01-4.85,3.69,5.59,7.3,12.15,7.3,12.15,0,0,.7-7.82-2.79-18.87l3.74-.9c-2.79-1.99-5.5-6.34-6.45-9.97,1.28,2.44,10.75,7.52,10.75,7.52l-8.89-18.18,10,1.88-11.53-9.09Zm-151.98,39.13c-4.81,25.36-29.6,35.24-55.38,22.08-25.77-13.17-42.77-44.4-37.96-69.76.53-2.8,1.32-5.39,2.31-7.8l36.25,14.81c-2.67,4.68-4.23,10.71-4.21,17.49.06,16.98,10.05,32.24,22.3,34.09,12.25,1.84,22.13-10.43,22.07-27.41-.01-2.76-.29-5.46-.78-8.08l15.38,6.29c1.07,6.21,1.14,12.41.02,18.29Zm84.25,22.08c-25.77,13.17-50.57,3.28-55.38-22.08-1.12-5.88-1.04-12.08.02-18.29l15.38-6.29c-.5,2.61-.77,5.32-.78,8.08-.06,16.98,9.82,29.25,22.07,27.41,12.25-1.84,22.24-17.11,22.3-34.09.02-6.78-1.54-12.81-4.21-17.49l36.25-14.81c.99,2.41,1.78,5.01,2.31,7.8,4.81,25.36-12.19,56.59-37.96,69.76Z"/>
  </g>
</svg>