<?xml version="1.0" encoding="UTF-8"?>
<svg id="Layer_2" data-name="Layer 2" xmlns="http://www.w3.org/2000/svg" viewBox="0 0 845.26 815.24">
  <g id="Layer_1-2" data-name="Layer 1">
    <path d="m812.6,494.54l-.09-.07,8.49.07,19.81.16-.08-.16-.91-1.75-2.64-5.07-3.76-7.22-4.38-8.37-4.48-8.51-4.06-7.64-3.13-5.76-1.23-2.12-.45-.77.39-.7.05-.09.72-1.3.41-.15,2.89-1.07,4.73-.53,5.45-.02,5.47.3,4.78.45,3.39.4,1.29.17-1.24-.62-3.39-1.65-5.06-2.34-6.23-2.7-6.92-2.72-5.16-1.74-1.94-.66-6.81-1.75-6.01-.76h-.01s-1.55-1.91-1.55-1.91l-1.56-1.9-.96-1.15-.62-.74-1.58-1.89-1.6-1.88-1.62-1.86-1.63-1.85-1.65-1.84h.04s.05.01.05.01h.1s.1.02.1.02h.09s24.79,3.03,24.79,3.03l-1.17-.86-3.23-2.27-4.88-3.25-6.12-3.8-6.95-3.91-4.37-2.13-3.01-1.46-2.35-.9-5.03-1.92-6.98-1.63h0s-2.59.2-2.59.2l-1.48-.18-.35-.44.79-.58,1.94-.6,1.69-.27,1.41-.22,4.26-.27,5.45.07-.06-.41-.14-.93-1.4-1.53-.7-.52-1.51-1.13-2.61-1.7-2.62-1.69-.31-.22-1.76-1.27-.17-.12-1.46-1.47-.29-1.26,1.92.86,6.76,3.03,8.53,4.18,1.51.8,4.41,2.35,2.01,1.07.46.24,8.27,4.71,5.34,3.24,2.82,1.71,6.33,4.04,1.75,1.12,8.02,5.35,7.97,5.51-2.17-6.05-5.09-6.04-6.89-5.64-.43-.35-3.16-2.1-5.71-3.8-9.75-5.77-7.77-4.39-2.16-1.22-9.43-5.42-.25-.16-8-5.03,6.51-1.42,14.41,1.8,17.46,3.21,4.68.84,11,1.97,9.05.6-2.43-3.43-17.61-8.7-1.14-.56-29.47-12.49-10.45-4.43-5.39-2.34-17.14-7.43-7.76-4.73,3.39-.83,10.91,1.9,10.59,2.49,4.22.99,15.07,3.92,11.7,3.19,4.71,1.32-2.21-3.42-4.77-3.82-6.64-4.15-7.82-4.41-2.71-1.5-5.62-3.11-5.93-3.45-2.2-1.28-7.26-4.79-5.7-4.78,11.47.24,3.69.07,6.19.12,8.81.4,8.27.88,8.25,1.62,8.75,2.63,6.19,2.47,3.59,1.43,11.32,5.45-7.01-8.97-7.89-6.5-2.98-2.46-5.08-3.2-8.85-5.57-16.2-8.4-13.33-5.91-4.35-1.93-18.34-7.09-18.22-6.16-16.73-4.89-.55-.16,10.67-2.55,8.99-2.41,5.06-1.38,2.77-.75,7.21-1.71,7.13-1.15,7.57-.44,8.55.41.23.03,9.84,1.36-9.84-6.06-.88-.54-9.62-5.55-8.94-4.7-8.69-4.04-8.88-3.57-9.43-3.28-.05-.02-10.53-3.21-12-3.33-.11-.37-.3-1.06-.82-2.85,1.82-4.05,1.65-1.56,2.29-2.17,5.14-3.32,5.43-2.81,4.8-2.21,3.25-1.51.79-.73-10.37-3.46-12.32-3.46-13.52-3.53-11.6-3.06-2.37-.62-13.67-3.91-12.62-4.22-10.81-4.61-8.26-5.08,19.97-.49,15.72-.83,12.04-.79.82-.05,11.37-.51,11.26.16,8.37.78,4.16.39,15.17,2.5,19.18,4.18-13.22-7.07-13.44-7.19-23.18-10.43-20.49-6.96-.53-.18-20.21-4.37-20.74-2.12-22.61-.39-25.82.81-2.98.15-27.39,1.35,15.85-8.66,11.54-4.96,2.74-1.18,2.03-.87,4.33-1.45,12.36-4.12,17.03-4.36,17.31-3.37,17.53-2.6,17.69-2.06,17.79-1.74-21.56-6.43-21.51-4.27-21.47-2.14-21.43-.06-21.4,1.98-1.45.27-19.92,3.71-21.34,5.94-21.33,7.86,2.21-2.54,3.87-4.44,6.26-7.18,11.95-12.15,11.83-10.61,11.98-9.56,12.41-8.99,2.08-1.42,7.53-5.12,3.49-2.37,14.07-9.31,15.32-10.19-40.42,12.1-34.01,10.18-43.83,22.65-15.04,13.42-6.43,5.74-6.91,11.09-.44.71-1.45.58-3.78-14.5-5.64-13.14-8.71-20.3-15.4-26.14-15.15-25.72-1.75-2.97-.84-1.43,4.03,13.17,3.04,11.21,1.29,5.74.94,4.2,1.59,9.38,1.12,9.51.82,10.34.7,11.87.06,1.16.69,12.93-7.76-9.45-3.05-3.48-4.95-5.66-8.3-8.77-8.67-8.34-7.92-6.84-1.18-1.02-9.59-7.31-9.93-6.57-.21-.14-3.19-1.79-7.58-4.26,2.81,4.26,4.13,6.25,6.84,10.54,6.42,10.69,5.7,10.98,3.26,7.98,1.4,3.44,1.12,4.04,2.2,7.95,1.66,12.7-.31,13.55-3.55-4.16-15.95-18.68-18.67-17.16-2.49-1.67-16.12-10.83-19.31-8.87-20.35-6.14-.43-.13-23.02-4.69-10.85-1.73-15.17-2.42-2.85-.44-20.84-3.24-6.11-.95,20.04,8.2,17.06,6.11,14.77,5.15,3,1.21,10.15,4.11,12.21,6.61,2.07,1.56,8.56,6.46,1.33,1,12.37,12.57,9.67,12.38,3.8,4.86-29.45-14.85-6.27-2.44-1.89-.74-18.11-7.05-22.5-5.74-1.7-.43-23.24-2.67-23.38.27-2.07.22-22.56,2.42-1.22.2-22.66,3.74-3.11.51-28.38,5.31-1.74.33-.35.07,14.68,1.15,11.28.96,7.61.8,1.4.15,7.86,1.11,7.83,1.45,8.92,1.97,11.14,2.67,9.29,2.28,5.19,1.27.04.29.02.12v.06s.08.46.08.46l.07.46.14.92.07.46.07.46v.06s.03.12.03.12l.04.29h-.02s-5.71.99-5.71.99l-2.55.44-8.28,1.42-16.55,2.85-16.54,2.86-2.52.44-5.75,1-8.27,1.43v3.26l14.02-.09,3.55-.02,17.48.39,17.35,1.08,8.06.92,9.12,1.04,5.35.96,11.62,2.09,16.72,4.34,3.64,1.29,12.78,4.53,16.09,7.5-.07.6-.08.6-.22,1.79-.08.6-.15,1.19h0s0,0,0,0l-11.83-1.48-11.85-1.48-4.59-.57-7.26-.9-23.7-2.95-4.72-.59-7.14-.89-3.62-.45-8.23-1.03-11.86-1.48h0s-.11.47-.11.47l-.66,2.81-.1.46h0s0,.01,0,.01l4.67,2.65,4.66,2.64,1.78,1.01,7.54,4.29,2.33,1.32,2.33,1.32,4.66,2.64,4.65,2.65,4.66,2.65h0s-.11.52-.11.52l-.1.52-.22,1.03-.05.25-.17.78-.11.52-.12.52-15.42-3.15-14.32-2.92-10.69-1.72-.11-.02-10.64-1.71-15.53-1-12.01,1.25-10.89,3.3-12.15,5.17-6.55,2.83-9.27,4.01-21.88,8.33,24.44.45h6.72s12.32.02,12.32.02h15.06s.06.01.06.01l12.45.43,11.39,1.28,11.7,2.55,13.43,4.25,16.47,6.33.11.04h-.11s-32.42,3.24-32.42,3.24l-26.44,3.33-21.8,4.27-12.23,4-6.36,2.08-8.65,4.48-8.2,4.25-16.54,12.25-12.8,12.04-1.36,1.28-3.53,3.32-1.24,1.33-6.55,7.06-4.56,4.91-7.93,8.55,12.7-8.55,5.78-3.89,15.4-7.85,13.6-4.34,13.07-1.89,13.81-.51,3.34-.04,12.49-.15,19.11-.93,23.67-2.75-23.48,8.74-22.41,8.86-9.38,4.17-1.31.58-10.58,4.71-20.06,10.58-18.78,12.19-17.43,14.3-4.42,4.67-11.59,12.23-5.73,7.9-1.88,2.59-1.08,1.49-5.82,8.02,5.82-4.04,6.47-4.49,12.49-7.03,12.71-5.88,12.97-5.05,1.8-.62,11.44-3.95,3.6-1.17,9.96-3.25,13.88-4.61,7.56-2.73,6.43-2.32.25-.09-1.66,1.47-1.41,1.38-1.16,1.29-.9,1.2-.65,1.11-.4,1.01-.14.92.12.82,5.67,3.49-.47.31-5.67,3.68-.35.23-6.41,3.9-6.33,3.74-6.26,3.73-6.2,3.87-1.58,1.07-4.45,3.01-.13.09-6.11,4.59-6.08,5.18h0s2.28.03,2.28.03h.94s.32.02.32.02l2.71.03,2.85.03,2.7.03,2.57.03,2.46.03,2.38.03,1.5.02h.82s-.82.76-.82.76l-.81.74-4.83,4.41.19.4.28.32.38.24.47.17.57.09.66.02.76-.06.86-.13-.16.08-.28.14-.37.19-.99.49-.57.28-.6.3-8.7,4.32-.71.35-4.1,2.04-15.84,7.62-14.71,6.91-13.09,6.05-8.07,3.7-2.9,1.33-7.6,3.52-.79.36-2.76,1.35-2.54,1.24-1.73,1.14,7.37-2.45,6.17-.14,4.79,1.26.59.16,4.99,2.21,5.01,2.25,5.45,1.53,6.28.06,7.51-2.17.45,2.24.12.59-2.41,2.64-1.89,2.07-.87.95-7.67,8.38-11.57,13.95-5.98,7.92-4.16,5.5-7.32,10.69-1.22,1.79-6.79,11.11-4.88,9.31-.4,1.02-2.4,6.07-.56,4.34v.08s-.01.02-.01.02l1.18-1.02,3.23-2.76.1-.09,4.74-3.97,3.27-2.67,2.75-2.24,6.75-5.32,5.72-4.3,1.31-.99,6.88-4.8,6.28-3.87,2.15,2.1-14.31,11.18-.34.27-1.17,3.59-.8,2.03-.51,1.3-.49,1.05-.95,2.03-1.58,2.82-1.72,2.56-1.86,2.31-1.83,1.89-.16.16-2.13,1.8,4.17,6.07-.24.32-.73.94-.24.31-.4.53-.08.1-.24.32.31.38.31.38.24.3.06.08.61.75.3.38.25.3.06.07.1.12.14.18.07.08-1.57,1.41-1.52,1.5-1.47,1.6-1.41,1.7-1.36,1.8-1.11,1.63-.19.27-1.24,2.01-1.19,2.11.48,1.5.03.09,2.95-.05,2.54.03h.05s2.22.12,2.22.12l1.85.21,1.48.3.21.07.9.31.74.47.37.55h0s-.06.11-.06.11l-.08.17-.1.21-.08.16-.04.07-.12.22-.12.19-.11.14-.09.06h.14l-1.17,2.28-.41.81.49.64.97.36,1.44.07,1.91-.22,1.21-.26,1.17-.25,2.86-.79,3.34-1.08,3.03-1.08.79-.28-4.58,5.61-3.89,5.46-2.72,4.44-.46.76-2.5,4.8-1.8,4.25v.02s-1.11,3.61-1.11,3.61l-.41,2.83.25,1.63.03.23v.05s2.66-.97,2.66-.97l2.83-.97.51-.15,2.39-.72,2.86-.65,2.7-.32,2.45.12,2.08.68,1.24,1.05.31.26.04.04.35.15.94.44,1.37.74,1.62,1.03,1.72,1.33,1.18,1.17.47.46,1.41,1.94.09.19.92,2.05-.92.65-3.59,2.53-3.86,2.87-1.18.94-2.05,1.62-.93.81-1.66,1.44-1.95,1.94-1.32,1.64-.67,1.34-.04,1.03,3.67,1.77.55.27.66-.2.14-.07.61-.29.33-.15,1.37-.71,1.51-.83,1.51-.86,1.37-.79.49-.29.6-.34.67-.38.48,1.59,2.13,1.05-4.72,2-.06.03-4.37,2.7-3.96,3.37-3.55,4.04-.99,1.48-2.15,3.22-2.26,4.44-.48.93-2.34,6.04-1.93,6.7.96,3.12,2.1,1.02.8-.48.89-.55.72-.45,1.28-.79.87-.54,2.41-1.46,2.39-1.42,2.1-1.2,1.53-.79.69-.19.23.69.12,1.35.03,1.8-.02,1.75v.29s-.07,2.06-.07,2.06l-.08,1.85-.06,1.44-.02.81,1.14.38,1.56.22,1.99.06,2.42-.09,2.84-.25,1.15-.14,2.11-.26,3.69-.57,4.12-.73.03.09.07.22.39,1.28-10.41,6.6-1.18.75-7.83,5.73-3.69,3.5-.8.76-1.58,2.95.91,1.78,2.97.77,4.59-.08,5.79-.78-1.87,1.92-1.58,1.8-1.28,1.67-.53.82-.45.7-.68,1.34-.38,1.14-.08.92.2.58v.04s.03.03.03.03v.02s0,0,0,0l.73-.16.76-.16.77-.17.3-.06.49-.1.81-.16.82-.16.83-.16.84-.15-2.08,2.35-4.95,5.58.52-.16,1.44-.46,2.19-.72,2.78-.93,1.19-.41,1.99-.69,3.42-1.22,3.49-1.3,2.71-1.07.67-.27.41.13.46.15.5.17.53.19.56.22.58.24.59.26.6.29-1.45,1.45-1.56,1.41-1.64,1.36-.25.19-1.46,1.1-.44.29-1.34.9-1.81,1.1-1.84.98-1.85.85.2.03.33.05,2.56.4-.71.44-.6.41-.49.38-.28.26-.11.1-.28.32-.16.29-.06.26.05.22,1.03.37.94.28.51.11.37.08.85.09.87-.02.92-.13,1.01-.26,1.15-.39.13.07.35.19v.02s-.14.23-.14.23l-.14.24-.05.09-.09.15-.14.24-.27.47-.13.23-.13.24h0s-2.94,1.37-2.94,1.37l-1.63.95h-.02s-1.08.64-1.08.64l-2.52,1.81-2.18,1.93-.12.1-2.08,2.25-1.86,2.47-1.47,2.41-.17.29-1.43,2.92.85,1.76,1.03.33,1.01.06,1.03-.17,1.1-.35,1.22-.49.89-.37.49-.2,1.59-.62,1.85-.6-.5,2.24-.18,1.01-.17.97-.24,1.72-.15,1.44-.07,1.15-.02.52v.32s0,.51,0,.51v.17s.12-.11.12-.11l.32-.32.52-.52.06-.06.64-.64.87-.86.7-.69.33-.32,1.17-1.14,1.27-1.22h.01s.02-.03.02-.03l-.02.19v.02s-.02.19-.02.19v.18s-.03.16-.03.16v.08s-.01.06-.01.06v.12s-.01.1-.01.1v.08l.77.17,1,.12,1.24.07h.09s1.38.01,1.38.01l1.71-.04,1.94-.09,2.17-.14,2.4-.19-.03.04-.22.25-.26.29-.26.29-.27.28-.28.28-.28.28-.29.27-.29.27,1.96.77-1.97.81-6.67,2.74-.73.37-4.55,2.3-2.35,1.89.18,1.2,2.29.59,3.98.08.45-.03,4.8-.32,6.08-.68h.03s-.44.66-.44.66l-.42.68-.4.69-.38.7-.36.71v.03s-.33.69-.33.69l-.31.73-.29.75.88.71,2.74-.77h.05s2.47-.66,2.47-.66l2.14-.5,1.15-.23.67-.13,1.49-.22.75-.05.41-.03.82.06.22.09.28.11-.03.07-.03.11-.04.14-.03.09-.02.07-.06.15-.07.13h0s-.07.1-.07.1l-.08.05h.04s.02-.02.02-.02h.02s.01-.02.01-.02h.01s.01-.02.01-.02h0s0,.02,0,.02l-.02.04-.5,1.45-.19.55.49.2h.75s.95-.15.95-.15h.07s1.28-.38,1.28-.38l1.53-.56,1.79-.75,2.05-.94,1.77-.87.53-.26.1.07.1.07.09.07.06.06.02.02.08.08.07.08.06.09.03.05.02.04-4.5,1.79-3.82,1.56-1.34.59-1.79.79-1.4.72-1.03.53-1.73,1.16-1.02,1.11-.31,1.11.41,1.16,2.31.73,1.63.52-1.79,3.17.85,1.76.73.22.97.05,1.17-.09.99-.16.34-.05,1.47-.31,1.57-.39,1.63-.45,1.66-.49-.05.04-.13.11-.95.83-.92.95-.71.92-.51.91-.3.92-.1.94.11.97.32,1.02.38.21.94.53.35.2-1.41.93-.88.94-.35.95.17.98.69,1.03.28.25.92.83,1.26.85.45.31,1.63.92.58.32.12-.02.12-.02h.01s.14-.03.14-.03h.01s.14-.03.14-.03l.16-.03.16-.03.3-.06h.04s.06.31.06.31l.07.32.09.34.1.35.12.37.13.38.14.4.12.33.03.09.36-.09.71-.17,10.43-2.44.48,1.59-.61,1.02-1.74,2.92.48,1.59,2.13,1.22.15-.07.16-.07.13-.06.04-.02.18-.09.19-.09.2-.1.21-.1.04-.02.18-.09-.09.19-.17.36-.09.19h0s-.69.28-.69.28l-.07.03-1.81.73-1.79,1.1-1.06,1.09-.37,1,.26.83.84.59,1.05.2.32.06.84-.06,1-.07v.07s-.08.52-.08.52l-.07.6-.05.6-.04.61-.02.62v.62s-.01.63-.01.63v.64s1.08.87,1.08.87l.38.32.28.23.95-.03h.09s1.29-.15,1.29-.15l1.68-.23,1.52-.23.32-.05,1.84-.29,1.71-.27,1.43-.21h.11s.9-.11.9-.11l.43.88-1.33,1.31-.91.9.43.88.49.08,1.35.22,1.55-.14.69-.06,2.07-.46.46-.1,2.69-.78,2.73-.85.07-.02,2.57-.76,2.44-.56,2.11-.2-1.17.89-1.18.74-1.19.65-1.2.61-1.22.63-1.15.67-.09.05-1.26.85-1.28,1.05.22.46.14.29.07.16.65.23-.36.4-1.82,2.02-.84,1.62.35.9,1.39.27,2.28-.29.55-.14,2.47-.63,3.62-1.18,4.07-1.51.16.33.03.07-.23.64-.17.64-.12.64-.06.64v.63s.04.63.04.63l.1.63.15.63,1.54-.24.37-.06,1.77-.05,1.62.19,1.48.43,1.34.66,1.2.9,1.06,1.14.71,1.05.21.32h4.65l.54.38.64.2.5.06.21.02.74.03.74.05.7.13.62.27.51.48-.26,2.55,1.73,1.42h2.32l1.12-.81,1.3-.54,1.43-.33,1.53-.16,1.57-.05,1.56.02,1.52.03h1.42l.08.09.09.09.09.09.1.09.11.09.12.09.13.09.14.09.61-.34.74-.22.65-.1.18-.03.84-.06h.81s.72,0,.72,0h.34s.23.01.23.01h.37s.17.37.17.37l-.77.48-1.43.9-.22.14-2.07,1.32-1.72,1.15-.36.27-1,.75-.99.92-.61.85-.11.41-.11.41.18.82h0s.03.01.03.01l.72,1.06,1.11.92,1.39.76,1.55.57,1.62.35,1.56.1,1.41-.18,1.14-.48.8.24,2.78.82.16.05,3.34.98,1.16.34.33.1,1.94-1.54,1.71-1.09,1.57-.67,1.5-.27,1.51.1,1.6.44,1.77.76,2.03,1.05-2.85,2.12-2.28,1.9-1.66,1.66-.22.3-.8,1.09-.33,1.12.39.82.9.39.24.1,1.29.1.52.04h.12s2.06-.8,2.06-.8l1.75-.64,1.48-.46,1.25-.27,1.06-.06.92.16.81.39.1.08.65.55-.65.3-1.21.56-1.35.74-.88.66-.43.6v.3s-.03.28-.03.28l.34.6.68.64.98.73,1.9-.81,8.62-3.67.88.71-1.28,2.72,1.96.55,1.43-.27.85-.16,2.51-1.15,1.6-.97,1.04-.63,2.67-1.78,2.61-1.7.32-.18,1.3-.71.04-.02.43-.23.36-.2,2.18-.71.28.28h0s.01,0,.01,0h.03s.02-.01.02-.01h.02s.03-.01.03-.01h.03s.05-.02.05-.02h.06s.05-.03.05-.03h.05s.54.44.54.44l-1.07.51-.14.07-1.17.7-1.13.82-1.1.94-.85.84-.21.21-1.02,1.17-.98,1.3-.94,1.42,1.3.74,1.81-.22h.03s2.12-.92,2.12-.92l2.32-1.36,2.32-1.53,2.15-1.45.57-.35,1.22-.75.9-.34.37-.14-.37,1.72-.67,3.1.67.55,1.08.89,2.45-.55,2.55-.79,2.63-.97,2.69-1.12.2-.09,2.52-1.13,2.73-1.29,2.71-1.31.32-.16,2.34-1.13h0s.15.36.15.36l.15.35.15.33.04.09.11.24.15.31.15.29.09.16.07.12.16.27h0s-.22.21-.22.21l-1.54,1.4-1.7,1.62-1.14,1.19-.39.41-1.3,1.53-.98,1.41-.59,1.24-.11,1.03.07.13.03.06.33.58,1.16-.58,4.53-2.25,1.62-.59,3.78-1.37,5.06-1.2,2.76-.33,1.92-.23,4.26-.05,3.78.35,3.27.63,2.71.79.2.49.24.68.25.84.24.99.2,1.12.12,1.22.03,1.32-.1,1.39,2.1-.18,3.24-.66.75-.16.94-.2,2.31-.5,3.05-.55,1.32-.24,4.36-.45,3.97.18,3.2,1.08.68.75,1.1,1.22.26.29,1.66.15.47.04,3.65.08,4.63.05,5.07.1,2.54.11,2.45.11,4.38.43.38.08,2.86.63,1.56,1.07,18.81-2.95.5-.08,2.14.2,2.05.18,1.92.15,1.74.1,1.53.03,1.27-.05.96-.14.05-.02.56-.24.32.41.57.12.31.06,1.36-.03,1.76-.21,2.07-.36,2.31-.48,1.81-.42.65-.15,2.53-.63.1.02,2.56.59,2.62.62,2.52.58.63.14,1.7.37,2.06.39,1.72.24,1.28.05.77-.18.05.21h0s.17.08.17.08l.28-.04.04-.02.33-.13.46-.25.42-.27.1-.07.58-.4.6-.44h.02s.61.44.61.44l.41.28.16.11.07.05.44.28.45.24.37.15.27.05.17-.08.05-.21.26.07.5.12,1.28-.05,1.72-.24,2.07-.39,2.35-.51,1.42-.33,1.12-.26,2.65-.62,2.68-.61,2.51.62,2.44.56.21.04,2.09.43,2.06.36,1.75.21,1.36.03.89-.17.21-.25.13-.15.6.27.96.15,1.26.05,1.53-.03,1.75-.1,1.92-.14,2.05-.18,2.14-.19h.03s.19.03.19.03l.6.09,1.7.27h0s11.55,1.81,11.55,1.81l3.21.5,1.93.3,1.57-1.06,3.26-.71,1.7-.16,2.71-.26,5.02-.22,5.1-.1,4.64-.05h.32s3.33-.08,3.33-.08l2.11-.19,2.14-2.24,3.24-1.07,3.97-.18,4.34.44,4.33.79,3.96.86,1.22.25,2,.41h.04s.4.04.4.04l.37.03.35.03.33.03.28.02.22.02h.12s-.05-1.36-.05-1.36l.07-1.3.17-1.22.24-1.11.28-.99.29-.84.27-.68.22-.49,2.73-.79,3.29-.63,3.8-.35,4.26.05,3.56.43,1.11.13,5.03,1.19.05.02.2.07,5.08,1.85.14.07,5.45,2.74.47-.76-.07-1.02-.54-1.23-.93-1.4-1.24-1.52-1.48-1.59-1.64-1.61-.03-.03-1.68-1.56h0s.17-.28.17-.28l.16-.28.17-.29.16-.3.16-.32.02-.03.15-.29h0s.16-.35.16-.35l.17-.35h.02s2.02.99,2.02.99l.59.29,2.66,1.3,2.68,1.28,2.68,1.22,1.33.56,1.32.55,2.6.97,2.52.78,2.43.55,1.81-1.45-.88-4.76,1.28.49.53.33,1.23.76,2.09,1.43,2.26,1.51,2.26,1.34,2.12.91,1.66.2.15.02,1.34-.73-.89-1.4-.6-.82-.34-.46-.98-1.17-1.02-1.05-1.06-.93-1.11-.81-1.15-.7-.43-.21-.76-.37.57-.45h.01s.03,0,.03,0h.02s.02.01.02.01h.03s.03.01.03.01h.05s.06.03.06.03h.05s.05.03.05.03l.31-.28,2.17.71.57.31,1.83,1.01,1.06.7,1.49.98,2.61,1.77,2.58,1.59,2.47,1.15,2.27.43.19-.05,1.79-.49-1.19-2.69.88-.71,4.5,1.92,5.64,2.4.24.1,1-.71.69-.64.36-.59v-.36s0-.22,0-.22l-.41-.6-.85-.65-1.02-.57-.29-.16-1.82-.85.12-.1.66-.53.83-.38.51-.08.42-.07,1.06.06.74.16.5.11,1.46.46,1.73.63,2.03.79,1.94-.15.31-.13.85-.36.41-.81-.3-1.1-.87-1.24-.1-.14-1.6-1.64-2.21-1.88-2.77-2.1.19-.1.53-.27,1.35-.68,1.81-.75,1.62-.44,1.51-.09,1.49.27,1.54.67,1.67,1.08,1.89,1.53,6-1.71,2.64-.75,1.12.49,1.4.18,1.57-.09,1.62-.34,1.58-.56,1.41-.75,1.14-.91.75-1.04h0s.03-.01.03-.01l.21-.82-.18-.76v-.05s-.59-.84-.59-.84l-.96-.91-.14-.11-1.18-.89-1.68-1.14-2.02-1.3-.87-.55-.06-.04-1.43-.92.19-.35h0s0-.01,0-.01h.2s.17,0,.17,0h.58s.29-.02.29-.02h.43s.81.01.81.01l.84.06.82.13.74.22.59.33.14-.09.13-.09.12-.09.11-.09.1-.09.1-.09.09-.09v-.02s.08-.08.08-.08h.69s.73,0,.73,0l1.52-.03h1.56s1.56.04,1.56.04l1.51.17,1.42.33,1.28.54,1.09.81h2.32l.68-.55,1.11-.9-.14-2.52.53-.48.64-.27.71-.12.74-.05h.16s.21-.01.21-.01h.37s.71-.09.71-.09l.15-.04.5-.15.55-.37h.2s0-.02,0-.02v-.02s-.01-.02-.01-.02h0s0-.03,0-.03v-.03s-.02-.03-.02-.03v-.02s0,0,0,0h0s.01-.03.01-.03l.03-.03.04-.03.02-.02.02-.02h0s.11,0,.11,0l.39-.02.52-.02h.53s.54,0,.54,0l.55.02.38.02h.19s.58.07.58.07l.6.07h0s.11-.15.11-.15l.1-.15.08-.15.06-.15v-.03s.05-.12.05-.12l.04-.15.03-.15v-.15s.02.01.02.01l.02.02.02.02.11.12.16.17.21.22.43.46.16.17.16.17h9.92v-.8s-.03-1.98-.03-1.98l4.96-.11.41-.48.34-.49.27-.51.2-.53.14-.56.07-.58v-.61s-.05-.64-.05-.64l.06.02.13.04.2.06.28.08,1.91.56,1.26.28.91.2,1.7.17,1.15-.18.53-.56-.17-.99-.93-1.45-1.41-1.55-.36-.4.68-.23.45-.88-.37-.31-.88-.73-1.23-.84-.08-.05-1.13-.66-1.2-.63-1.18-.61-.26-.15-.91-.5-1.15-.74-1.13-.89,2.1.2,2.42.56,2.45.72.16.05,2.7.84,2.66.78,2.51.56.73.07,1.51.14,1.35-.21.5-.08.45-.88-.95-.96-1.2-1.22.45-.88.75.03,1.95.07,3.44.95,3.7,1.29,3.48,1.1,2.76.39,1.56-.84-.11-2.38v-.21s-2.31-4.87-2.31-4.87l1.49-.27.91-.49.14-.26.21-.41-.14-.6-.05-.2-.69-.88-.98-.76-.2-.16-1.64-.91-1.67-.69-.41-.17-.69-1.82-.94-1.7-1.14-1.6-1.29-1.54-.15-.16-1.24-1.34-1.44-1.49-1.43-1.5-1.38-1.54h.05s1.18.12,1.18.12l1.34.12,1.41.15.2.03,1.23.16,1.41.26,1.34.35,1.22.46.47.26.58.32h.02s.01,0,.01,0h0s0-.01,0-.01h0s.02-.05.02-.05h0s0-.02,0-.02h0s.01-.02.01-.02l1.22.64,1.13.55,1.04.46.95.38.79.27.06.02.77.21.67.12.58.03.04-.1.05-.14v-.02s.05-.16.05-.16l.06-.21.05-.16.02-.07.07-.26.08-.29.08-.31h0s.01,0,.01,0l1.15.23,1.11.23.94.19.1.02.94.19h.03s.88.18.88.18l.78.16.67.13.56.11.55-.27.52-.27.49-.27.29-.16.18-.1.44-.26.42-.26.39-.25.37-.25h0s.01.02.01.02l.69.89.66.86.61.79.17.22.37.49.13.17.31.4.02.03.37.48.27.35.15.19h2.44l1.15-1.45.81-1.02.12-1.97.07-1.94.03-1.91-.02-1.88-.06-1.85-.06-1.04-.05-.77-.16-1.79-.2-1.73v-.02s0,0,0,0h.2s.19-.01.19-.01l.19-.02.18-.03.17-.03.16-.04.15-.05.13-.05.66-1.26.25-.47-1.67-3.12,3.97-1.22.41-.86v-.14s0-.69,0-.69l-.4-.82-.81-.82-1.2-.85-1.6-.9-1.99-.96-1.73-.76-.64-.28-.03-.09-.03-.09-.04-.09-.04-.09-.04-.09-.04-.09-.03-.09-.03-.09h.02s.7.24.7.24l.65.19.59.14.52.09.29.02h.16s.37,0,.37,0l.3-.07.23-.12-.29-.94-.22-.73-.06-.18-.06-.18h0s0,0,0,0h.01s0,0,0,0h0s.01,0,.01,0h.01s0,0,0,0h0s-.04-.07-.04-.07l-.05-.11h0s-.02-.06-.02-.06l-.03-.07-.02-.06-.03-.08-.03-.14-.03-.12-.03-.1-.02-.06.5-.2.83-.05,1.15.09.24.04,1.23.19,1.8.37,2.12.51.65.17,1.8.48,2.77.79.91-.71-.27-.73-.29-.72-.31-.71-.33-.7-.35-.69-.29-.54-.08-.14-.39-.67-.23-.37-.18-.29,6.07.71,2.78.2,2.45.18,3.98-.05,2.31-.57.22-1.17-2.27-1.87-3.42-1.75-1.77-.9-1.51-.62-2.06-.85-.12-.05-4.83-2,1.98-.74h0s-.28-.27-.28-.27l-.28-.27-.1-.1-.17-.17-.27-.27-.26-.28-.26-.28-.24-.28-.24-.29,2.39.21,2.16.16,1.93.1.64.02,1.06.03h1.47s1.24-.06,1.24-.06l1.01-.11.79-.16v-.21s0-.06,0-.06v-.14s-.01-.16-.01-.16v-.17s-.02-.19-.02-.19l-.02-.21h0s.02.02.02.02l.27.26.96.95,1.13,1.12.18.18.81.81.84.85.68.68.17.17.33.34.31.32.11.11h0s.01-.17.01-.17l.02-.5v-.82s-.03-1.13-.03-1.13l-.04-.64-.05-.78-.18-1.69-.28-1.95-.26-1.38-.15-.82,1.25.41.57.19,1.56.61,1.35.57,1.19.48,1.08.35,1.02.17,1.01-.05,1.05-.32.91-1.7-1.26-2.73-1.47-2.54-.31-.43-1.36-1.91-1.87-2.15-2.08-1.96-1.41-1.09-.87-.67-2.48-1.57-2.68-1.37-.06-.23v-.02s-.08-.26-.08-.26l-.08-.27-.03-.11-.05-.17-.05-.17-.04-.12-.09-.3-.1-.31-.1-.32h0s.9.26.9.26h0s.83.15.83.15l.79.06.77-.03.77-.11.8-.19.86-.25.94-.31.05-.22-.05-.25-.16-.29-.27-.32h0s-.37-.35-.37-.35l-.48-.38-.58-.41-.69-.43h.06s.12-.03.12-.03l2.43-.35.51-.07-.51-.26-1.2-.62h-.02s-1.76-.92-1.76-.92l-1.79-.99-1.75-1.1-1.64-1.23-1.49-1.4-.13-.16-1.14-1.43-.99-1.82.48-.2.48-.19.46-.17.45-.16.43-.14.4-.12.37-.11h.04s.29-.09.29-.09l3.33,1.34,3.44,1.3,1.73.63,1.65.6,1.65.58,1.5.52,2.74.93,2.17.72,1.43.47.51.16-2.42-2.81-2.49-2.9-.93-1.09-.9-1.05.82.16.08.02.73.15.81.17.8.17.56.12.23.05.44.1.33.07.75.17.73.16.08-.11.06-.13.04-.14.03-.16.02-.17v-.18s0-.19,0-.19l-.02-.2h.03s.05.04.05.04l.08.04.06.03.1.05.16.07.16.08.49.24.17.09h0s1.02-1.25,1.02-1.25l-.49-2.51-.58-2.45-.3-1.04-.38-1.33-.76-2.3-.85-2.23-.94-2.17-1.02-2.1-.8-1.48-.3-.56,3.4-1.7-.14-.41-.14-.4-.28-.81-.14-.41-.14-.41-.14-.41-.14-.41h0s6.01-3.68,6.01-3.68l.11-.07-1.05-1.76-.3-.59-.64-1.25-.85-1.91-.75-2-.65-2.07-.55-2.15-.46-2.23h0s-.36-2.31-.36-2.31h.03s.24.04.24.04l.28.04.28.04.28.04.28.04.12.02.16.02.28.05.27.05h0s0,0,0,0v-3.91s0-1.84,0-1.84v-1.77s.01-1.68.01-1.68v-.44s0-1.16,0-1.16v-1.52s0-1.43,0-1.43h0s2.64,4.1,2.64,4.1l1.24,1.92,3.75,6.04,2.2,3.65,1.01,1.68.28.46,3.13,5.3,2.63,4.56,2.03,3.57,1.3,2.32.46.83.02-.35.04-.66.09-2.94-.05-4.71-.35-6.33-.82-7.8-1.44-9.12-2.17-10.03-.05-.25-3.18-11.29.7-.17,6.59-1.59,1.15-.28.94-.23.74-.18.48-.11-2.95-2.41-2.87-2.94-2.74-3.36-2.55-3.68-1.43-2.41-.88-1.48-2-4.01-1.65-4.03-1.23-3.94,2.35,2.9,3.41,2.89.53.45,4.94,3.54,5.36,3.47,5.19,3.14,4.43,2.56,3.09,1.73,1.16.63-12.42-25.4-12.78-26.13,28.35,5.33-32.52-25.64Zm-428.76,91.76l-.07,1.12-.35,5.31-.72,6.37-1.03,6.29-7.66,24.86-12.34,20.49-16.39,15.88-19.81,11.01-10.23,2.67h-.04s-8.8,2.3-8.8,2.3l-3.53.92-24.75.52-19.26-3.74-7.01-1.36-27.17-10.97-11.17-6.95-14.99-9.32-23.39-20.27-20.2-23.48-13.14-20.54-3.43-5.36-12.5-27.52-5.24-18.56-2.76-9.77-3.08-28.37.27-3.3,2.01-24.3.6-2.95.66-2.89.73-2.84.79-2.79.77-2.45.09-.29.91-2.68.97-2.64,1.03-2.59,89.89,36.72,12.87,5.26-2.31,4.43-.37.72-2.38,5.49-2.05,5.81-1.71,6.11-1.35,6.39-.98,6.64-.59,6.89-.19,7.1,1.34,17.76,3.72,16.91,4.88,13.07.97,2.6,7.73,14.06,9.35,12.04,10.71,9.65,11.82,6.86,12.68,3.68,12.67.13,11.78-3.31,4.29-2.59,6.36-3.84,9.27-9.24,7.63-11.74,5.75-13.93,1-4.37,2.61-11.43,1.22-17.37-.05-2.93-.12-2.91-.18-2.89-.25-2.87-.31-2.86-.37-2.83-.05-.35-.38-2.47-.49-2.79.07.03,12.81,5.24,30.72,12.56,1,6.6.73,6.58.45,6.56.17,6.53-.12,6.48Zm343.46-60.09l-8.01,28.34-12.5,27.52-3.43,5.36-13.13,20.54-20.2,23.48-23.39,20.27-26.16,16.27-27.16,10.98-6.97,1.35-1.3.25-18,3.49-24.75-.52-12.37-3.23h0s-10.22-2.67-10.22-2.67l-19.81-11.02-7.73-7.49-8.66-8.39-12.34-20.5-7.66-24.86-1.03-6.29-.72-6.37-.34-5.31-.07-1.12-.12-6.48.17-6.53.45-6.56.73-6.58.99-6.6,28.61-11.7,14.98-6.13-.5,2.79-.44,2.81-.38,2.84-.31,2.86-.25,2.88-.18,2.89-.11,2.91-.05,2.93,1.22,17.37,2.61,11.43,1,4.37,5.75,13.93,7.63,11.74,9.27,9.24,10.65,6.43,11.78,3.31,12.67-.13,12.68-3.68,4.87-2.82,6.95-4.03,10.71-9.65,9.35-12.04,7.73-14.06.97-2.61,4.88-13.07,3.72-16.91,1.34-17.76-.19-7.1-.59-6.89-.98-6.64-1.35-6.39-1.71-6.11-2.05-5.81-2.38-5.49-.37-.72-2.31-4.43,102.76-41.98,1.03,2.59.97,2.64.91,2.69.86,2.74.79,2.79.73,2.84.66,2.89.6,2.94,2.01,24.3.27,3.3-3.08,28.37Z"/>
  </g>
</svg>