<?xml version="1.0" encoding="UTF-8"?>
<svg id="Layer_2" data-name="Layer 2" xmlns="http://www.w3.org/2000/svg" viewBox="0 0 29.21 35">
  <defs>
    <style>
      .cls-1 {
        fill: #231f20;
      }
    </style>
  </defs>
  <g id="Layer_1-2" data-name="Layer 1">
    <path class="cls-1" d="m14.21,3.29c-.03-.29-.22-.56-.51-.73-.2-.12-.44-.18-.68-.18-.11,0-.21.01-.32.04l-.97.22-1.98-1.35c-.13-.09-.29-.16-.45-.19L4.39.03c-.1-.02-.2-.03-.3-.03-.31,0-.62.1-.85.29L1.23,1.96c-.23.19-.35.44-.35.71v3.1c0,.28.14.54.38.73l.97,3.35c-.04.32.11.62.39.83l1.98-1.65c.45-.38,1.05-.58,1.69-.58.05,0,.08,0,6.24.33l.12-.04c.35-.1.62-.33.73-.62l1.01-2.51c.05-.13.07-.27.06-.41l-.22-1.91ZM2.75,6.12l-.09-1.99.97-.8,3.75.84.26,1.51-4.9.44Zm9.78-.59l-3.75.16.75-1.39,3.04.48-.04.76Z"/>
    <path class="cls-1" d="m28.85,5.99l-.11-3.46c-.01-.41-.32-.77-.78-.91l-3.8-1.19c-.14-.04-.28-.06-.42-.06-.2,0-.39.04-.57.12l-5.17,2.32-1.66-.37c-.1-.02-.21-.03-.31-.03-.52,0-.99.28-1.15.71l-.56,1.55c-.06.18-.07.36-.01.54l.78,2.51c.1.33.39.59.78.7l1.28.36c6.71-.3,6.74-.3,6.77-.3.82,0,1.57.34,2.01.91l1.08,1.39s.05-.02.08-.04c.32-.23.47-.58.4-.92l1.05-3.11c.2-.19.31-.44.3-.69Zm-11.6-.16l-.4-.76,3.4-.48.75,1.39-3.75-.16Zm5.03.2l.25-1.51,3.47-.84.69.76.12,2.03-4.53-.44Z"/>
    <path class="cls-1" d="m29.01,14.94l-3.97-5.03c-.23-.29-.61-.46-1.02-.46-.02,0-9.75.43-9.75.43,0,0-8.15-.43-8.17-.43-.32,0-.63.1-.86.29l-2.61,2.14c-.15.12-.25.27-.31.43l-1.19,3.37-.9,1.04c-.23.26-.29.59-.16.89l1.76,4.36.22,5.95c0,.12.03.23.09.34l1.82,3.75c.1.22.3.39.54.51l5.22,2.35c.18.08.38.12.59.12.03,0,8.49-.54,8.49-.54.14,0,.27-.04.39-.08l4.76-1.71c.39-.14.66-.43.72-.78l1.79-10.55,2.3-3.93c.05-.08.08-.16.1-.25l.34-1.5c.06-.25,0-.51-.18-.73Zm-6.58,14.06l-1.96,1.61-3.12.96-2.89.11-3.93-.11-2.77-.96-2.08-1.07-1.04-1.39-.23-2.35,1.27-.64,1.24,1.33,1.2-1.62.48,1.6.42-.88.82,1.33,1.01-.52.13,1.49.74-1.62.84,1.18.87-1.56.88,1.24,1.07-.72.37,1.59.22-.62.9.38.8-.99.89.75.88-1.84,1.46,1.3h0s.81-1.07.81-1.07l1.04-.11-.35,3.21Zm3.78-12.55l-1.01,2.39-1.69-1.72-1.35-.48-2.7,6.12-.9-6.02-2.25-.67-1.99-.19-1.95.19-2.7.19-1.35,6.21-1.91-5.35-1.46.29-1.12,1.43-1.24-.76.23-1.43,1.12-2.29,2.02-1.24,2.36-.57h4.61l6.86-.29,3.26.19,1.57,1.53,1.57,1.43v1.05Z"/>
  </g>
</svg>