<?xml version="1.0" encoding="utf-8"?>
<!-- Generator: Adobe Illustrator 27.2.0, SVG Export Plug-In . SVG Version: 6.00 Build 0)  -->
<svg version="1.1" id="Layer_1" xmlns="http://www.w3.org/2000/svg" xmlns:xlink="http://www.w3.org/1999/xlink" x="0px" y="0px"
	 viewBox="0 0 850.9 820.9" style="enable-background:new 0 0 850.9 820.9;" xml:space="preserve">
<style type="text/css">
	.st0{stroke:#000000;stroke-miterlimit:10;}
	.st1{opacity:0.5;}
	.st2{fill:none;stroke:#000000;stroke-miterlimit:10;}
</style>
<rect x="-2737.7" y="-239.7" width="648.8" height="151.3"/>
<path d="M815.4,497.4L815.4,497.4h8.4l19.8,0.2l-0.1-0.2l-0.9-1.8l-2.6-5.1l-3.8-7.2l-4.4-8.4l-4.5-8.5l-4.1-7.6l-3.1-5.8l-1.2-2.1
	l-0.4-0.8l0.4-0.7l0.1-0.1l0.7-1.3l0.4-0.2l2.9-1.1l4.7-0.5l5.5,0l5.5,0.3l4.8,0.4l3.4,0.4l1.3,0.2l-1.2-0.6l-3.4-1.6l-5.1-2.3
	l-6.2-2.7l-6.9-2.7l-5.2-1.7l-1.9-0.7l-6.8-1.7l-6-0.8l0,0l-1.5-1.9l-1.6-1.9l-1-1.2l-0.6-0.7l-1.6-1.9l-1.6-1.9l-1.6-1.9l-1.6-1.9
	l-1.6-1.8l0,0l0.1,0l0.1,0l0.1,0l0.1,0l24.8,3l-1.2-0.9l-3.2-2.3l-4.9-3.3l-6.1-3.8l-7-3.9l-4.4-2.1l-3-1.5l-2.3-0.9l-5-1.9l-7-1.6
	l0,0l-2.6,0.2l-1.5-0.2l-0.3-0.4l0.8-0.6l1.9-0.6l1.7-0.3l1.4-0.2l4.3-0.3l5.4,0.1l-0.1-0.4l-0.1-0.9l-1.4-1.5l-0.7-0.5l-1.5-1.1
	l-2.6-1.7l-2.6-1.7l-0.3-0.2l-1.8-1.3l-0.2-0.1l-1.5-1.5l-0.3-1.3l1.9,0.9l6.8,3l8.5,4.2l1.5,0.8l4.4,2.3l2,1.1l0.5,0.2l8.3,4.7
	l5.3,3.2l2.8,1.7l6.3,4l1.8,1.1l8,5.3l8,5.5l-2.2-6.1l-5.1-6l-6.9-5.6l-0.4-0.4l-3.2-2.1l-5.7-3.8l-9.7-5.8l-7.8-4.4l-2.2-1.2
	l-9.4-5.4l-0.3-0.2l-8-5l6.5-1.4l14.4,1.8l17.5,3.2l4.7,0.8l11,2l9,0.6l-2.4-3.4l-17.6-8.7l-1.1-0.6L789.5,358l-10.4-4.4l-5.4-2.3
	l-17.1-7.4l-7.8-4.7l3.4-0.8l10.9,1.9l10.6,2.5l4.2,1l15.1,3.9l11.7,3.2l4.7,1.3l-2.2-3.4l-4.8-3.8l-6.6-4.1l-7.8-4.4l-2.7-1.5
	l-5.6-3.1l-5.9-3.4l-2.2-1.3l-7.3-4.8l-5.7-4.8l11.5,0.2l3.7,0.1l6.2,0.1l8.8,0.4l8.3,0.9l8.2,1.6l8.7,2.6l6.2,2.5l3.6,1.4l11.3,5.4
	l-7-9l-7.9-6.5l-3-2.5l-5.1-3.2l-8.9-5.6l-16.2-8.4l-13.3-5.9l-4.3-1.9l-18.3-7.1l-18.2-6.2l-16.7-4.9l-0.6-0.2l10.7-2.6l9-2.4
	l5.1-1.4l2.8-0.8l7.2-1.7l7.1-1.1l7.6-0.4l8.6,0.4l0.2,0l9.8,1.4l-9.8-6.1l-0.9-0.5l-9.6-5.6l-8.9-4.7l-8.7-4l-8.9-3.6l-9.4-3.3
	l-0.1,0l-10.5-3.2l-12-3.3l-0.1-0.4l-0.3-1.1l-0.8-2.8l1.8-4.1l1.6-1.6l2.3-2.2l5.1-3.3l5.4-2.8l4.8-2.2l3.3-1.5l0.8-0.7l-10.4-3.5
	l-12.3-3.5l-13.5-3.5l-11.6-3.1l-2.4-0.6l-13.7-3.9l-12.6-4.2l-10.8-4.6L633,174l20-0.5l15.7-0.8l12-0.8l0.8-0.1l11.4-0.5l11.3,0.2
	l8.4,0.8l4.2,0.4l15.2,2.5l19.2,4.2l-13.2-7.1l-13.4-7.2l-23.2-10.4l-20.5-7l-0.5-0.2l-20.2-4.4l-20.7-2.1l-22.6-0.4l-25.8,0.8
	l-3,0.1l-27.4,1.3l15.9-8.7l11.5-5l2.7-1.2l2-0.9l4.3-1.4l12.4-4.1l17-4.4l17.3-3.4l17.5-2.6l17.7-2.1l17.8-1.7l-21.6-6.4l-21.5-4.3
	l-21.5-2.1l-21.4-0.1l-21.4,2l-1.4,0.3l-19.9,3.7l-21.3,5.9l-21.3,7.9l2.2-2.5l3.9-4.4l6.3-7.2l11.9-12.1l11.8-10.6l12-9.6l12.4-9
	l2.1-1.4l7.5-5.1l3.5-2.4l14.1-9.3l15.3-10.2l-40.4,12.1l-34,10.2L510,75.5l-15,13.4l-6.4,5.7l-6.9,11.1l-0.4,0.7l-1.4,0.6L476,92.5
	l-5.6-13.1l-8.7-20.3L446.2,33L431.1,7.2l-1.8-3l-0.8-1.4l4,13.2l3,11.2l1.3,5.7l0.9,4.2l1.6,9.4l1.1,9.5l0.8,10.3l0.7,11.9l0.1,1.2
	l0.7,12.9l-7.8-9.5l-3-3.5l-5-5.7l-8.3-8.8l-8.7-8.3l-7.9-6.8l-1.2-1l-9.6-7.3l-9.9-6.6l-0.2-0.1L378,33l-7.6-4.3l2.8,4.3l4.1,6.3
	l6.8,10.5l6.4,10.7l5.7,11l3.3,8l1.4,3.4l1.1,4l2.2,7.9l1.7,12.7l-0.3,13.5l-3.6-4.2l-15.9-18.7l-18.7-17.2l-2.5-1.7l-16.1-10.8
	l-19.3-8.9l-20.3-6.1l-0.4-0.1l-23-4.7L274.9,47l-15.2-2.4l-2.9-0.4l-20.8-3.2l-6.1-0.9l20,8.2l17.1,6.1l14.8,5.2l3,1.2l10.1,4.1
	l12.2,6.6l2.1,1.6l8.6,6.5l1.3,1L331.5,93l9.7,12.4l3.8,4.9l-29.5-14.9l-6.3-2.4l-1.9-0.7l-18.1-7.1l-22.5-5.7L265,79l-23.2-2.7
	l-23.4,0.3l-2.1,0.2l-22.6,2.4l-1.2,0.2l-22.7,3.7l-3.1,0.5L138.4,89l-1.7,0.3l-0.4,0.1l14.7,1.2l11.3,1l7.6,0.8l1.4,0.1l7.9,1.1
	L187,95l8.9,2l11.1,2.7l9.3,2.3l5.2,1.3l0,0.3l0,0.1l0,0.1l0.1,0.5l0.1,0.5l0.1,0.9l0.1,0.5l0.1,0.5l0,0.1l0,0.1l0,0.3l0,0l-5.7,1
	l-2.6,0.4l-8.3,1.4l-16.5,2.9l-16.5,2.9l-2.5,0.4l-5.7,1l-8.3,1.4v3.3l14-0.1l3.6,0l17.5,0.4l17.4,1.1l8.1,0.9l9.1,1l5.4,1l11.6,2.1
	l16.7,4.3l3.6,1.3l12.8,4.5l16.1,7.5l-0.1,0.6l-0.1,0.6l-0.2,1.8l-0.1,0.6l-0.1,1.2l0,0l0,0l-11.8-1.5l-11.8-1.5l-4.6-0.6l-7.3-0.9
	l-23.7-3l-4.7-0.6l-7.1-0.9l-3.6-0.5l-8.2-1l-11.9-1.5l0,0l-0.1,0.5l-0.7,2.8l-0.1,0.5l0,0l0,0l4.7,2.6l4.7,2.6l1.8,1l7.5,4.3
	l2.3,1.3l2.3,1.3l4.7,2.6l4.7,2.6l4.7,2.6l0,0l-0.1,0.5l-0.1,0.5l-0.2,1l-0.1,0.2l-0.2,0.8l-0.1,0.5l-0.1,0.5l-15.4-3.1l-14.3-2.9
	l-10.7-1.7l-0.1,0l-10.6-1.7l-15.5-1l-12,1.2l-10.9,3.3l-12.2,5.2l-6.6,2.8l-9.3,4L92.3,182l24.4,0.5l6.7,0l12.3,0l15.1,0l0.1,0
	l12.4,0.4l11.4,1.3l11.7,2.6l13.4,4.2l16.5,6.3l0.1,0l-0.1,0l-32.4,3.2l-26.4,3.3l-21.8,4.3l-12.2,4l-6.4,2.1l-8.6,4.5l-8.2,4.3
	l-16.5,12.3l-12.8,12l-1.4,1.3l-3.5,3.3l-1.2,1.3l-6.6,7.1l-4.6,4.9l-7.9,8.5l12.7-8.5l5.8-3.9l15.4-7.9l13.6-4.3l13.1-1.9l13.8-0.5
	l3.3,0l12.5-0.1l19.1-0.9l23.7-2.7l-23.5,8.7l-22.4,8.9l-9.4,4.2l-1.3,0.6l-10.6,4.7l-20.1,10.6l-18.8,12.2l-17.4,14.3l-4.4,4.7
	l-11.6,12.2l-5.7,7.9l-1.9,2.6l-1.1,1.5l-5.8,8l5.8-4l6.5-4.5l12.5-7l12.7-5.9l13-5.1l1.8-0.6l11.4-4l3.6-1.2l10-3.2l13.9-4.6
	l7.6-2.7l6.4-2.3l0.3-0.1l-1.7,1.5l-1.4,1.4l-1.2,1.3L125,304l-0.7,1.1l-0.4,1l-0.1,0.9l0.1,0.8l5.7,3.5l-0.5,0.3l-5.7,3.7l-0.4,0.2
	l-6.4,3.9l-6.3,3.7l-6.3,3.7l-6.2,3.9l-1.6,1.1l-4.4,3l-0.1,0.1l-6.1,4.6l-6.1,5.2l0,0l2.3,0l0.9,0l0.3,0l2.7,0l2.8,0l2.7,0l2.6,0
	l2.5,0l2.4,0l1.5,0l0.8,0l-0.8,0.7l-0.8,0.7l-4.8,4.4l0.2,0.4l0.3,0.3l0.4,0.2l0.5,0.2l0.6,0.1l0.7,0l0.8-0.1l0.9-0.1l-0.2,0.1
	l-0.3,0.1l-0.4,0.2l-1,0.5l-0.6,0.3l-0.6,0.3l-8.7,4.3l-0.7,0.4l-4.1,2l-15.8,7.6l-14.7,6.9l-13.1,6l-8.1,3.7l-2.9,1.3l-7.6,3.5
	l-0.8,0.4l-2.8,1.3l-2.5,1.2l-1.7,1.1l7.4-2.5l6.2-0.1l4.8,1.3l0.6,0.2l5,2.2l5,2.3l5.4,1.5l6.3,0.1l7.5-2.2l0.4,2.2l0.1,0.6
	l-2.4,2.6l-1.9,2.1l-0.9,1l-7.7,8.4l-11.6,13.9l-6,7.9l-4.2,5.5l-7.3,10.7l-1.2,1.8l-6.8,11.1l-4.9,9.3l-0.4,1l-2.4,6.1l-0.6,4.3
	l0,0.1l0,0l1.2-1l3.2-2.8l0.1-0.1l4.7-4l3.3-2.7l2.7-2.2l6.7-5.3l5.7-4.3l1.3-1l6.9-4.8l6.3-3.9l2.2,2.1l-14.3,11.2l-0.3,0.3
	l-1.2,3.6l-0.8,2l-0.5,1.3l-0.5,1l-1,2L27,479l-1.7,2.6l-1.9,2.3l-1.8,1.9l-0.2,0.2l-2.1,1.8l4.2,6.1l-0.2,0.3l-0.7,0.9l-0.2,0.3
	l-0.4,0.5l-0.1,0.1l-0.2,0.3l0.3,0.4l0.3,0.4l0.2,0.3l0.1,0.1l0.6,0.8l0.3,0.4l0.2,0.3l0.1,0.1l0.1,0.1l0.1,0.2l0.1,0.1l-1.6,1.4
	l-1.5,1.5l-1.5,1.6l-1.4,1.7l-1.4,1.8l-1.1,1.6l-0.2,0.3l-1.2,2l-1.2,2.1l0.5,1.5l0,0.1l3-0.1l2.5,0l0,0l2.2,0.1l1.9,0.2l1.5,0.3
	l0.2,0.1l0.9,0.3l0.7,0.5l0.4,0.5l0,0l-0.1,0.1l-0.1,0.2l-0.1,0.2l-0.1,0.2l0,0.1l-0.1,0.2l-0.1,0.2l-0.1,0.1l-0.1,0.1h0.1l-1.2,2.3
	l-0.4,0.8L25,522l1,0.4l1.4,0.1l1.9-0.2l1.2-0.3l1.2-0.2l2.9-0.8l3.3-1.1l3-1.1l0.8-0.3l-4.6,5.6l-3.9,5.5l-2.7,4.4l-0.5,0.8
	l-2.5,4.8l-1.8,4.2l0,0l-1.1,3.6l-0.4,2.8l0.2,1.6l0,0.2l0,0.1l2.7-1l2.8-1l0.5-0.2l2.4-0.7l2.9-0.6l2.7-0.3l2.4,0.1l2.1,0.7l1.2,1
	l0.3,0.3l0,0l0.4,0.1l0.9,0.4l1.4,0.7l1.6,1l1.7,1.3l1.2,1.2l0.5,0.5l1.4,1.9l0.1,0.2l0.9,2l-0.9,0.6l-3.6,2.5l-3.9,2.9l-1.2,0.9
	l-2,1.6l-0.9,0.8l-1.7,1.4l-2,1.9l-1.3,1.6l-0.7,1.3l0,1l3.7,1.8l0.6,0.3l0.7-0.2l0.1-0.1l0.6-0.3l0.3-0.2l1.4-0.7l1.5-0.8l1.5-0.9
	l1.4-0.8l0.5-0.3l0.6-0.3L50,574l0.5,1.6l2.1,1l-4.7,2l-0.1,0l-4.4,2.7l-4,3.4l-3.6,4l-1,1.5l-2.2,3.2l-2.3,4.4l-0.5,0.9l-2.3,6
	l-1.9,6.7l1,3.1l2.1,1l0.8-0.5l0.9-0.5l0.7-0.4l1.3-0.8l0.9-0.5l2.4-1.5l2.4-1.4l2.1-1.2l1.5-0.8l0.7-0.2l0.2,0.7l0.1,1.4l0,1.8
	l0,1.7l0,0.3l-0.1,2.1l-0.1,1.9l-0.1,1.4l0,0.8l1.1,0.4l1.6,0.2l2,0.1l2.4-0.1l2.8-0.3l1.2-0.1l2.1-0.3l3.7-0.6l4.1-0.7l0,0.1
	l0.1,0.2l0.4,1.3l-10.4,6.6l-1.2,0.7l-7.8,5.7l-3.7,3.5l-0.8,0.8l-1.6,2.9l0.9,1.8l3,0.8l4.6-0.1l5.8-0.8l-1.9,1.9l-1.6,1.8
	l-1.3,1.7l-0.5,0.8l-0.5,0.7l-0.7,1.3l-0.4,1.1l-0.1,0.9l0.2,0.6l0,0l0,0l0,0l0,0l0.7-0.2l0.8-0.2l0.8-0.2l0.3-0.1l0.5-0.1l0.8-0.2
	l0.8-0.2l0.8-0.2l0.8-0.2l-2.1,2.4l-4.9,5.6l0.5-0.2l1.4-0.5l2.2-0.7l2.8-0.9l1.2-0.4l2-0.7l3.4-1.2l3.5-1.3l2.7-1.1l0.7-0.3
	l0.4,0.1l0.5,0.2l0.5,0.2l0.5,0.2l0.6,0.2l0.6,0.2l0.6,0.3l0.6,0.3l-1.4,1.5l-1.6,1.4l-1.6,1.4l-0.3,0.2l-1.5,1.1l-0.4,0.3l-1.3,0.9
	l-1.8,1.1l-1.8,1l-1.9,0.8l0.2,0l0.3,0.1l2.6,0.4l-0.7,0.4l-0.6,0.4l-0.5,0.4l-0.3,0.3l-0.1,0.1l-0.3,0.3l-0.2,0.3l-0.1,0.3l0.1,0.2
	l1,0.4l0.9,0.3l0.5,0.1l0.4,0.1l0.9,0.1l0.9,0l0.9-0.1l1-0.3l1.1-0.4l0.1,0.1l0.4,0.2l0,0l-0.1,0.2l-0.1,0.2l-0.1,0.1l-0.1,0.1
	l-0.1,0.2l-0.3,0.5l-0.1,0.2l-0.1,0.2l0,0l-2.9,1.4l-1.6,0.9l0,0l-1.1,0.6L56,674l-2.2,1.9l-0.1,0.1l-2.1,2.3l-1.9,2.5l-1.5,2.4
	l-0.2,0.3l-1.4,2.9l0.9,1.8l1,0.3l1,0.1l1-0.2l1.1-0.4l1.2-0.5l0.9-0.4l0.5-0.2l1.6-0.6l1.8-0.6l-0.5,2.2l-0.2,1l-0.2,1l-0.2,1.7
	l-0.1,1.4l-0.1,1.1l0,0.5l0,0.3l0,0.5l0,0.2l0.1-0.1l0.3-0.3l0.5-0.5l0.1-0.1l0.6-0.6l0.9-0.9l0.7-0.7l0.3-0.3l1.2-1.1l1.3-1.2l0,0
	l0,0l0,0.2l0,0l0,0.2l0,0.2l0,0.2l0,0.1l0,0.1l0,0.1l0,0.1v0.1l0.8,0.2l1,0.1l1.2,0.1l0.1,0l1.4,0l1.7,0l1.9-0.1l2.2-0.1l2.4-0.2
	l0,0l-0.2,0.2l-0.3,0.3l-0.3,0.3l-0.3,0.3l-0.3,0.3l-0.3,0.3l-0.3,0.3l-0.3,0.3l2,0.8l-2,0.8l-6.7,2.7l-0.7,0.4l-4.5,2.3l-2.3,1.9
	l0.2,1.2l2.3,0.6l4,0.1l0.5,0l4.8-0.3l6.1-0.7l0,0l-0.4,0.7l-0.4,0.7l-0.4,0.7l-0.4,0.7l-0.4,0.7l0,0l-0.3,0.7l-0.3,0.7l-0.3,0.7
	l0.9,0.7l2.7-0.8l0,0l2.5-0.6l2.1-0.5l1.1-0.2l0.7-0.1l1.5-0.2l0.8-0.1l0.4,0l0.8,0.1l0.2,0.1l0.3,0.1l0,0.1l0,0.1l0,0.1l0,0.1
	l0,0.1l-0.1,0.2l-0.1,0.1l0,0l-0.1,0.1l-0.1,0.1h0h0l0,0l0,0l0,0l0,0l0,0l0,0l0,0l0,0l0,0l-0.5,1.5l-0.2,0.5l0.5,0.2l0.8,0l0.9-0.2
	l0.1,0l1.3-0.4l1.5-0.6l1.8-0.8l2-0.9l1.8-0.9l0.5-0.3l0.1,0.1l0.1,0.1l0.1,0.1l0.1,0.1l0,0l0.1,0.1l0.1,0.1l0.1,0.1l0,0.1l0,0
	l-4.5,1.8l-3.8,1.6l-1.3,0.6l-1.8,0.8l-1.4,0.7l-1,0.5l-1.7,1.2l-1,1.1l-0.3,1.1l0.4,1.2l2.3,0.7l1.6,0.5l-1.8,3.2l0.9,1.8l0.7,0.2
	l1,0.1l1.2-0.1l1-0.2l0.3-0.1l1.5-0.3l1.6-0.4l1.6-0.5l1.7-0.5l0,0l-0.1,0.1l-0.9,0.8l-0.9,0.9l-0.7,0.9l-0.5,0.9l-0.3,0.9l-0.1,0.9
	l0.1,1l0.3,1l0.4,0.2l0.9,0.5l0.4,0.2l-1.4,0.9l-0.9,0.9l-0.3,1l0.2,1l0.7,1l0.3,0.3l0.9,0.8l1.3,0.9l0.5,0.3l1.6,0.9l0.6,0.3l0.1,0
	l0.1,0l0,0l0.1,0l0,0l0.1,0l0.2,0l0.2,0l0.3-0.1l0,0l0.1,0.3l0.1,0.3l0.1,0.3l0.1,0.4l0.1,0.4l0.1,0.4l0.1,0.4l0.1,0.3l0,0.1
	l0.4-0.1l0.7-0.2l10.4-2.4l0.5,1.6l-0.6,1l-1.7,2.9l0.5,1.6l2.1,1.2l0.2-0.1l0.2-0.1l0.1-0.1l0,0l0.2-0.1l0.2-0.1l0.2-0.1l0.2-0.1
	l0,0l0.2-0.1l-0.1,0.2l-0.2,0.4l-0.1,0.2l0,0l-0.7,0.3l-0.1,0L110,748l-1.8,1.1l-1.1,1.1l-0.4,1l0.3,0.8l0.8,0.6l1,0.2l0.3,0.1
	l0.8-0.1l1-0.1l0,0.1l-0.1,0.5l-0.1,0.6l-0.1,0.6l0,0.6l0,0.6l0,0.6l0,0.6l0,0.6l1.1,0.9l0.4,0.3l0.3,0.2l0.9,0l0.1,0l1.3-0.1
	l1.7-0.2l1.5-0.2l0.3,0l1.8-0.3l1.7-0.3l1.4-0.2l0.1,0l0.9-0.1l0.4,0.9l-1.3,1.3l-0.9,0.9l0.4,0.9l0.5,0.1l1.4,0.2l1.5-0.1l0.7-0.1
	l2.1-0.5l0.5-0.1l2.7-0.8l2.7-0.9l0.1,0l2.6-0.8l2.4-0.6l2.1-0.2l-1.2,0.9l-1.2,0.7l-1.2,0.6l-1.2,0.6l-1.2,0.6l-1.2,0.7l-0.1,0.1
	l-1.3,0.9l-1.3,1.1l0.2,0.5l0.1,0.3l0.1,0.2l0.7,0.2l-0.4,0.4l-1.8,2l-0.8,1.6l0.3,0.9l1.4,0.3l2.3-0.3l0.6-0.1l2.5-0.6l3.6-1.2
	l4.1-1.5l0.2,0.3l0,0.1l-0.2,0.6l-0.2,0.6l-0.1,0.6l-0.1,0.6l0,0.6l0,0.6l0.1,0.6l0.2,0.6l1.5-0.2l0.4-0.1l1.8-0.1l1.6,0.2l1.5,0.4
	l1.3,0.7l1.2,0.9l1.1,1.1l0.7,1.1l0.2,0.3h4h0.7l0.5,0.4l0.6,0.2l0.5,0.1l0.2,0l0.7,0l0.7,0l0.7,0.1l0.6,0.3l0.5,0.5l-0.3,2.6
	l1.7,1.4h2.1h0.2l1.1-0.8l1.3-0.5l1.4-0.3l1.5-0.2l1.6,0l1.6,0l1.5,0h1.4h0h0l0.1,0.1l0.1,0.1l0.1,0.1l0.1,0.1l0.1,0.1l0.1,0.1
	l0.1,0.1l0.1,0.1l0.6-0.3l0.7-0.2l0.6-0.1l0.2,0l0.8-0.1l0.8,0l0.7,0l0.3,0l0.2,0l0.4,0l0.2,0.4l-0.8,0.5l-1.4,0.9l-0.2,0.1
	l-2.1,1.3l-1.7,1.2l-0.4,0.3l-1,0.7l-1,0.9l-0.6,0.9l-0.1,0.4l-0.1,0.4l0.2,0.8l0,0h0l0.7,1.1l1.1,0.9l1.4,0.8l1.6,0.6l1.6,0.3
	l1.6,0.1l1.4-0.2l1.1-0.5l0.8,0.2l2.8,0.8l0.2,0l3.3,1l1.2,0.3l0.3,0.1l1.9-1.5l1.7-1.1l1.6-0.7l1.5-0.3l1.5,0.1l1.6,0.4l1.8,0.8
	l2,1.1l-2.8,2.1l-2.3,1.9l-1.7,1.7l-0.2,0.3l-0.8,1.1l-0.3,1.1l0.4,0.8l0.9,0.4l0.2,0.1l1.3,0.1l0.5,0l0.1,0l2.1-0.8l1.7-0.6
	l1.5-0.5l1.3-0.3l1.1-0.1l0.9,0.2l0.8,0.4l0.1,0.1l0.7,0.6l-0.7,0.3l-1.2,0.6l-1.3,0.7l-0.9,0.7l-0.4,0.6l0,0.3l0,0.3l0.3,0.6
	l0.7,0.6l1,0.7l1.9-0.8l8.6-3.7l0.9,0.7l-1.3,2.7l2,0.6l1.4-0.3l0.9-0.2l2.5-1.2l1.6-1l1-0.6l2.7-1.8l2.6-1.7l0.3-0.2l1.3-0.7l0,0
	l0.4-0.2l0.4-0.2l2.2-0.7l0.3,0.3l0,0l0,0l0,0l0,0l0,0l0,0l0,0l0.1,0l0.1,0l0.1,0l0,0l0.5,0.5l-1.1,0.5l-0.1,0.1l-1.2,0.7l-1.1,0.8
	l-1.1,0.9l-0.8,0.8l-0.2,0.2l-1,1.2l-1,1.3l-0.9,1.4l1.3,0.7l1.8-0.2l0,0l2.1-0.9l2.3-1.4l2.3-1.5l2.1-1.4l0.6-0.4l1.2-0.7l0.9-0.3
	l0.4-0.1l-0.4,1.7l-0.7,3.1l0.7,0.6l1.1,0.9l2.5-0.6l2.6-0.8l2.6-1l2.7-1.1l0.2-0.1l2.5-1.1l2.7-1.3l2.7-1.3l0.3-0.2l2.3-1.1l0,0
	l0.2,0.4l0.1,0.4l0.2,0.3l0,0.1l0.1,0.2l0.2,0.3l0.2,0.3l0.1,0.2l0.1,0.1l0.2,0.3l0,0l-0.2,0.2l-1.5,1.4l-1.7,1.6l-1.1,1.2l-0.4,0.4
	l-1.3,1.5l-1,1.4l-0.6,1.2l-0.1,1l0.1,0.1l0,0.1l0.3,0.6l1.2-0.6l4.5-2.3l1.6-0.6l3.8-1.4l5.1-1.2l2.8-0.3l1.9-0.2l4.3,0l3.8,0.4
	l3.3,0.6l2.7,0.8l0.2,0.5l0.2,0.7l0.3,0.8l0.2,1l0.2,1.1l0.1,1.2l0,1.3l-0.1,1.4l2.1-0.2l3.2-0.7l0.7-0.2l0.9-0.2l2.3-0.5l3.1-0.6
	l1.3-0.2l4.4-0.4l4,0.2l3.2,1.1l0.7,0.7l1.1,1.2l0.3,0.3l1.7,0.1l0.5,0l3.6,0.1l4.6,0l5.1,0.1l2.5,0.1l2.5,0.1l4.4,0.4l0.4,0.1
	l2.9,0.6l1.6,1.1l18.8-3l0.5-0.1l2.1,0.2l2.1,0.2l1.9,0.1l1.7,0.1l1.5,0l1.3-0.1l1-0.1l0.1,0l0.6-0.2l0.3,0.4l0.6,0.1l0.3,0.1l1.4,0
	l1.8-0.2l2.1-0.4l2.3-0.5l1.8-0.4l0.7-0.2l2.5-0.6l0.1,0l2.6,0.6l2.6,0.6l2.5,0.6l0.6,0.1l1.7,0.4l2.1,0.4l1.7,0.2l1.3,0.1l0.8-0.2
	l0.1,0.2l0,0l0.2,0.1l0.3,0l0,0l0.3-0.1l0.5-0.2l0.4-0.3l0.1-0.1l0.6-0.4l0.6-0.4l0,0l0.6,0.5l0.4,0.3l0.2,0.1l0.1,0l0.4,0.3
	l0.4,0.2l0.4,0.2l0.3,0l0.2-0.1l0.1-0.2l0.3,0.1l0.5,0.1l1.3,0l1.7-0.2l2.1-0.4l2.4-0.5l1.4-0.3l1.1-0.3l2.7-0.6l2.7-0.6l2.5,0.6
	l2.4,0.6l0.2,0l2.1,0.4l2.1,0.4l1.8,0.2l1.4,0l0.9-0.2l0.2-0.3l0.1-0.2l0.6,0.3l1,0.2l1.3,0.1l1.5,0l1.7-0.1l1.9-0.1l2.1-0.2
	l2.1-0.2l0,0l0.2,0l0.6,0.1l1.7,0.3l0,0l11.5,1.8l3.2,0.5l1.9,0.3l1.6-1.1l3.3-0.7l1.7-0.2l2.7-0.3l5-0.2l5.1-0.1l4.6-0.1l0.3,0
	l3.3-0.1l2.1-0.2l2.1-2.2l3.2-1.1l4-0.2l4.3,0.4l4.3,0.8l4,0.9l1.2,0.2l2,0.4l0,0l0.4,0l0.4,0l0.3,0l0.3,0l0.3,0l0.2,0l0.1,0
	l-0.1-1.4l0.1-1.3l0.2-1.2l0.2-1.1l0.3-1l0.3-0.8l0.3-0.7l0.2-0.5l2.7-0.8l3.3-0.6l3.8-0.3l4.3,0l3.6,0.4l1.1,0.1l5,1.2l0,0l0.2,0.1
	l5.1,1.9l0.1,0.1l5.5,2.7l0.5-0.8l-0.1-1l-0.5-1.2l-0.9-1.4l-1.2-1.5l-1.5-1.6l-1.6-1.6l0,0l-1.7-1.6l0,0l0.2-0.3l0.2-0.3l0.2-0.3
	l0.2-0.3l0.2-0.3l0,0l0.1-0.3l0,0l0.2-0.3l0.2-0.4l0,0l2,1l0.6,0.3l2.7,1.3l2.7,1.3l2.7,1.2l1.3,0.6l1.3,0.6l2.6,1l2.5,0.8l2.4,0.6
	l1.8-1.4l-0.9-4.8l1.3,0.5l0.5,0.3l1.2,0.8l2.1,1.4l2.3,1.5l2.3,1.3l2.1,0.9l1.7,0.2l0.2,0l1.3-0.7l-0.9-1.4l-0.6-0.8l-0.3-0.5
	l-1-1.2l-1-1l-1.1-0.9l-1.1-0.8l-1.1-0.7l-0.4-0.2l-0.8-0.4l0.6-0.5l0,0l0,0l0,0l0,0l0,0l0,0l0.1,0l0.1,0l0.1,0l0,0l0.3-0.3l2.2,0.7
	l0.6,0.3l1.8,1l1.1,0.7l1.5,1l2.6,1.8l2.6,1.6l2.5,1.1l2.3,0.4l0.2-0.1l1.8-0.5l-1.2-2.7l0.9-0.7l4.5,1.9l5.6,2.4l0.2,0.1l1-0.7
	l0.7-0.6l0.4-0.6l0-0.4l0-0.2l-0.4-0.6l-0.8-0.7l-1-0.6l-0.3-0.2l-1.8-0.9l0.1-0.1l0.7-0.5l0.8-0.4l0.5-0.1l0.4-0.1l1.1,0.1l0.7,0.2
	l0.5,0.1l1.5,0.5l1.7,0.6l2,0.8l1.9-0.2l0.3-0.1l0.9-0.4l0.4-0.8l-0.3-1.1l-0.9-1.2l-0.1-0.1l-1.6-1.6l-2.2-1.9l-2.8-2.1l0.2-0.1
	l0.5-0.3l1.3-0.7l1.8-0.8l1.6-0.4l1.5-0.1l1.5,0.3l1.5,0.7l1.7,1.1l1.9,1.5l6-1.7l2.6-0.8l1.1,0.5l1.4,0.2l1.6-0.1l1.6-0.3l1.6-0.6
	l1.4-0.7l1.1-0.9l0.8-1l0,0h0l0.2-0.8l-0.2-0.8l0-0.1l-0.6-0.8l-1-0.9l-0.1-0.1l-1.2-0.9l-1.7-1.1l-2-1.3l-0.9-0.6l-0.1,0l-1.4-0.9
	l0.2-0.4l0,0l0,0l0.2,0l0.2,0l0.6,0l0.3,0l0.4,0l0.8,0l0.8,0.1l0.8,0.1l0.7,0.2l0.6,0.3l0.1-0.1l0.1-0.1l0.1-0.1l0.1-0.1l0.1-0.1
	l0.1-0.1l0.1-0.1l0,0l0.1-0.1l0.7,0l0.7,0l1.5,0l1.6,0l1.6,0.1l1.5,0.2l1.4,0.3l1.3,0.5l1.1,0.8h0.8h0.1h1.4l0.7-0.5l1.1-0.9
	l-0.1-2.5l0.5-0.5l0.6-0.3l0.7-0.1l0.7,0l0.2,0l0.2,0l0.4,0l0.7-0.1l0.2,0l0.5-0.1l0.5-0.4h0.2v0l0,0l0,0l0,0l0,0l0,0l0,0l0,0l0,0
	l0,0l0,0l0,0l0,0l0,0l0,0l0,0l0,0l0.1,0l0.4,0l0.5,0l0.5,0l0.5,0l0.6,0l0.4,0l0.2,0l0.6,0.1l0.6,0.1l0,0l0.1-0.1l0.1-0.2l0.1-0.1
	l0.1-0.2l0,0l0-0.1l0-0.1l0-0.1l0-0.2l0,0l0,0l0,0l0.1,0.1l0.2,0.2l0.2,0.2l0.4,0.5l0.2,0.2l0.2,0.2h0h8.5h1.4l0-0.8l0-2l5-0.1
	l0.4-0.5l0.3-0.5l0.3-0.5l0.2-0.5l0.1-0.6l0.1-0.6l0-0.6l-0.1-0.6l0.1,0l0.1,0l0.2,0.1l0.3,0.1l1.9,0.6l1.3,0.3l0.9,0.2l1.7,0.2
	l1.1-0.2l0.5-0.6l-0.2-1l-0.9-1.4l-1.4-1.6l-0.4-0.4l0.7-0.2l0.5-0.9l-0.4-0.3l-0.9-0.7l-1.2-0.8l-0.1,0l-1.1-0.7l-1.2-0.6l-1.2-0.6
	l-0.3-0.1l-0.9-0.5l-1.2-0.7l-1.1-0.9l2.1,0.2l2.4,0.6l2.5,0.7l0.2,0l2.7,0.8l2.7,0.8l2.5,0.6l0.7,0.1l1.5,0.1l1.3-0.2l0.5-0.1
	l0.5-0.9l-1-1l-1.2-1.2l0.5-0.9l0.7,0l1.9,0.1l3.4,1l3.7,1.3l3.5,1.1l2.8,0.4l1.6-0.8l-0.1-2.4l0-0.2l-2.3-4.9l1.5-0.3l0.9-0.5
	l0.1-0.3l0.2-0.4l-0.1-0.6l0-0.2l-0.7-0.9l-1-0.8l-0.2-0.2l-1.6-0.9l-1.7-0.7l-0.4-0.2l-0.7-1.8l-0.9-1.7l-1.1-1.6l-1.3-1.5
	l-0.1-0.2l-1.2-1.3l-1.4-1.5l-1.4-1.5l-1.4-1.5l0.1,0l1.2,0.1l1.3,0.1l1.4,0.1l0.2,0l1.2,0.2l1.4,0.3l1.3,0.3l1.2,0.5l0.5,0.3
	l0.6,0.3l0,0l0,0l0,0l0,0l0,0l0,0l0,0l0,0l0,0l0,0l1.2,0.6l1.1,0.6l1,0.5l0.9,0.4l0.8,0.3l0.1,0l0.8,0.2l0.7,0.1l0.6,0l0-0.1l0-0.1
	l0,0l0-0.2l0.1-0.2l0-0.2l0-0.1l0.1-0.3l0.1-0.3l0.1-0.3l0,0l0,0l1.2,0.2l1.1,0.2l0.9,0.2l0.1,0l0.9,0.2l0,0l0.9,0.2l0.8,0.2
	l0.7,0.1l0.6,0.1l0.5-0.3l0.5-0.3l0.5-0.3l0.3-0.2l0.2-0.1l0.4-0.3l0.4-0.3l0.4-0.3l0.4-0.2l0,0l0,0l0.7,0.9l0.7,0.9l0.6,0.8
	l0.2,0.2l0.4,0.5l0.1,0.2l0.3,0.4l0,0l0.4,0.5l0.3,0.3l0.1,0.2h2.4l1.1-1.4l0.8-1l0.1-2l0.1-1.9l0-1.9l0-1.9l-0.1-1.8l-0.1-1l0-0.8
	l-0.2-1.8l-0.2-1.7l0,0l0,0l0.2,0l0.2,0l0.2,0l0.2,0l0.2,0l0.2,0l0.1,0l0.1-0.1l0.7-1.3l0.2-0.5l-1.7-3.1l4-1.2l0.4-0.9l0-0.1l0-0.7
	l-0.4-0.8l-0.8-0.8l-1.2-0.9l-1.6-0.9l-2-1l-1.7-0.8l-0.6-0.3l0-0.1l0-0.1l0-0.1l0-0.1l0-0.1l0-0.1l0-0.1l0-0.1l0,0l0.7,0.2l0.7,0.2
	l0.6,0.1l0.5,0.1l0.3,0l0.2,0l0.4,0l0.3-0.1l0.2-0.1l-0.3-0.9l-0.2-0.7l-0.1-0.2l-0.1-0.2l0,0l0,0h0l0,0l0,0l0,0l0,0l0,0l0,0l0,0
	l0-0.1l-0.1-0.1l0,0l0-0.1l0-0.1l0-0.1l0-0.1l0-0.1l0-0.1l0-0.1l0-0.1l0.5-0.2l0.8-0.1l1.2,0.1l0.2,0l1.2,0.2l1.8,0.4l2.1,0.5
	l0.6,0.2l1.8,0.5l2.8,0.8l0.9-0.7l-0.3-0.7l-0.3-0.7l-0.3-0.7l-0.3-0.7l-0.4-0.7l-0.3-0.5l-0.1-0.1l-0.4-0.7l-0.2-0.4l-0.2-0.3
	l6.1,0.7l2.8,0.2l2.5,0.2l4-0.1l2.3-0.6l0.2-1.2l-2.3-1.9l-3.4-1.8l-1.8-0.9l-1.5-0.6l-2.1-0.9l-0.1,0l-4.8-2l2-0.7l0,0l-0.3-0.3
	l-0.3-0.3l-0.1-0.1l-0.2-0.2l-0.3-0.3l-0.3-0.3l-0.3-0.3l-0.2-0.3l-0.2-0.3l2.4,0.2l2.2,0.2l1.9,0.1l0.6,0l1.1,0l1.5,0l1.2-0.1
	l1-0.1l0.8-0.2v-0.2l0-0.1l0-0.1l0-0.1l0-0.2l0-0.2l0-0.2l0-0.2l0,0l0,0l0.3,0.3l1,0.9l1.1,1.1l0.2,0.2l0.8,0.8l0.8,0.8l0.7,0.7
	l0.2,0.2l0.3,0.3l0.3,0.3l0.1,0.1l0,0l0-0.2l0-0.5l0-0.8l0-1.1l0-0.6l0-0.8l-0.2-1.7l-0.3-2l-0.3-1.4l-0.2-0.8l1.2,0.4l0.6,0.2
	l1.6,0.6l1.4,0.6l1.2,0.5l1.1,0.3l1,0.2l1-0.1l1-0.3l0.9-1.7l-1.3-2.7l-1.5-2.5l-0.3-0.4l-1.4-1.9l-1.9-2.1l-2.1-2l-1.4-1.1
	l-0.9-0.7l-2.5-1.6l-2.7-1.4l-0.1-0.2l0,0l-0.1-0.3l-0.1-0.3l0-0.1l0-0.2l-0.1-0.2l0-0.1l-0.1-0.3l-0.1-0.3l-0.1-0.3l0,0l0.9,0.3
	l0,0l0.8,0.2l0.8,0.1l0.8,0l0.8-0.1l0.8-0.2l0.9-0.3l0.9-0.3l0.1-0.2l-0.1-0.3l-0.2-0.3l-0.3-0.3l0,0l-0.4-0.3l-0.5-0.4l-0.6-0.4
	l-0.7-0.4l0.1,0l0.1,0l2.4-0.4l0.5-0.1l-0.5-0.3l-1.2-0.6l0,0l-1.8-0.9l-1.8-1l-1.7-1.1l-1.6-1.2l-1.5-1.4l-0.1-0.2l-1.1-1.4l-1-1.8
	l0.5-0.2l0.5-0.2l0.5-0.2l0.4-0.2l0.4-0.1l0.4-0.1l0.4-0.1l0,0l0.3-0.1l3.3,1.3l3.4,1.3l1.7,0.6l1.6,0.6l1.7,0.6l1.5,0.5l2.7,0.9
	l2.2,0.7l1.4,0.5l0.5,0.2l-2.4-2.8l-2.5-2.9l-0.9-1.1l-0.9-1l0.8,0.2l0.1,0l0.7,0.2l0.8,0.2l0.8,0.2l0.6,0.1l0.2,0l0.4,0.1l0.3,0.1
	l0.8,0.2l0.7,0.2l0.1-0.1l0.1-0.1l0-0.1l0-0.2l0-0.2l0-0.2l0-0.2l0-0.2l0,0l0,0l0.1,0l0.1,0l0.1,0l0.2,0.1l0.2,0.1l0.5,0.2l0.2,0.1
	l0,0l1-1.2l-0.5-2.5l-0.6-2.4l-0.3-1l-0.4-1.3l-0.8-2.3l-0.9-2.2l-0.9-2.2l-1-2.1l-0.8-1.5l-0.3-0.6l3.4-1.7l-0.1-0.4l-0.1-0.4
	l-0.3-0.8l-0.1-0.4l-0.1-0.4l-0.1-0.4l-0.1-0.4l0,0l6-3.7l0.1-0.1l-1-1.8l-0.3-0.6l-0.6-1.2l-0.9-1.9l-0.8-2l-0.7-2.1l-0.6-2.2
	l-0.5-2.2l0,0l-0.4-2.3l0,0l0.2,0l0.3,0l0.3,0l0.3,0l0.3,0l0.1,0l0.2,0l0.3,0l0.3,0l0,0l0,0v-2l0-1.9l0-1.8l0-1.8l0-1.7l0-0.4l0-1.2
	l0-1.5v-1.4l0,0l2.6,4.1l1.2,1.9l3.8,6l2.2,3.6l1,1.7l0.3,0.5l3.1,5.3l2.6,4.6l2,3.6l1.3,2.3l0.5,0.8l0-0.4l0-0.7l0.1-2.9l-0.1-4.7
	l-0.3-6.3l-0.8-7.8l-1.4-9.1l-2.2-10l-0.1-0.3l-3.2-11.3l0.7-0.2l6.6-1.6l1.2-0.3l0.9-0.2l0.7-0.2l0.5-0.1l-2.9-2.4l-2.9-2.9
	l-2.7-3.4l-2.5-3.7l-1.4-2.4l-0.9-1.5l-2-4l-1.6-4l-1.2-3.9l2.3,2.9l3.4,2.9l0.5,0.5l4.9,3.5l5.4,3.5l5.2,3.1l4.4,2.6l3.1,1.7
	l1.2,0.6l-12.4-25.4l-12.8-26.1L848,523L815.4,497.4z M386.7,589.1l-0.1,1.1l-0.3,5.3l-0.7,6.4l-1,6.3l-7.7,24.9l-12.3,20.5
	l-16.4,15.9l-19.8,11l-10.2,2.7l0,0l-8.8,2.3l-3.5,0.9l-24.7,0.5l-19.3-3.7l-7-1.4l-27.2-11l-11.2-6.9l-15-9.3L178,634.3l-20.2-23.5
	l-13.1-20.5l-3.4-5.4l-12.5-27.5l-5.2-18.6l-2.8-9.8l-3.1-28.4l0.3-3.3l2-24.3l0.6-2.9l0.7-2.9l0.7-2.8l0.8-2.8l0.8-2.4l0.1-0.3
	l0.9-2.7l1-2.6l1-2.6l89.9,36.7l12.9,5.3l-2.3,4.4l-0.4,0.7l-2.4,5.5l-2.1,5.8l-1.7,6.1l-1.4,6.4l-1,6.6l-0.6,6.9l-0.2,7.1l1.3,17.8
	l3.7,16.9l4.9,13.1l1,2.6l7.7,14.1l9.3,12l10.7,9.6l11.8,6.9l12.7,3.7l12.7,0.1l11.8-3.3l4.3-2.6l6.4-3.8l9.3-9.2l7.6-11.7l5.7-13.9
	l1-4.4l2.6-11.4l1.2-17.4l0-2.9l-0.1-2.9l-0.2-2.9l-0.2-2.9l-0.3-2.9l-0.4-2.8l-0.1-0.3l-0.4-2.5l-0.5-2.8l0.1,0l12.8,5.2l30.7,12.6
	l1,6.6l0.7,6.6l0.5,6.6l0.2,6.5L386.7,589.1z M730.1,529l-8,28.3l-12.5,27.5l-3.4,5.4l-13.1,20.5l-20.2,23.5l-23.4,20.3l-26.2,16.3
	l-27.2,11l-7,1.4l-1.3,0.3l-18,3.5l-24.7-0.5l-12.4-3.2l0,0l-10.2-2.7l-19.8-11L495,662l-8.7-8.4L474,633.1l-7.7-24.9l-1-6.3
	l-0.7-6.4l-0.3-5.3l-0.1-1.1l-0.1-6.5l0.2-6.5l0.5-6.6l0.7-6.6l1-6.6l28.6-11.7l15-6.1l-0.5,2.8l-0.4,2.8l-0.4,2.8l-0.3,2.9
	l-0.2,2.9l-0.2,2.9l-0.1,2.9l0,2.9l1.2,17.4l2.6,11.4l1,4.4l5.7,13.9l7.6,11.7l9.3,9.2l10.6,6.4l11.8,3.3l12.7-0.1l12.7-3.7l4.9-2.8
	l7-4l10.7-9.6l9.3-12l7.7-14.1l1-2.6l4.9-13.1l3.7-16.9l1.3-17.8l-0.2-7.1l-0.6-6.9l-1-6.6l-1.4-6.4l-1.7-6.1l-2.1-5.8l-2.4-5.5
	l-0.4-0.7l-2.3-4.4l102.8-42l1,2.6l1,2.6l0.9,2.7l0.9,2.7l0.8,2.8l0.7,2.8l0.7,2.9l0.6,2.9l2,24.3l0.3,3.3L730.1,529z"/>
<path d="M-1486.6-488.1c0-0.7,0-1.3,0-2c-0.3-3.9-2-7.5-5.2-10.8c-1.5-1.6-3.4-2.8-5.8-3.6c-2.4-0.8-4.7-1.2-7-1.2
	c-2.6,0-4.9,0.4-7,1.3c-2.1,0.9-3.5,2.2-4.1,4.1c-0.4,0.8-0.5,1.5-0.3,2.1c-0.1,0.4-0.1,0.7,0,1c-0.1,0.6,0,1.1,0.3,1.5
	c0.5,0.7,1,0.7,1.7,0c0.7-0.7,1.5-1.2,2.6-1.6c1.1-0.4,2.6-0.9,4.4-1.4c3.1-0.8,5.7-0.4,7.8,1.2c2.1,1.6,3.4,3.6,4,6
	c0.1,0.5,0.2,1.1,0.3,1.6c-0.1,1.2-0.4,2.4-1,3.6c-1.1,2.4-3.2,4.1-6.3,5c-1.3,0.4-2.8,0.6-4.4,0.6c-2.3,0-4.8-0.4-7.6-1.3
	c-2.8-0.9-6.2-2.3-10.4-4.3c-4-2-7.4-3.4-10-4.2c-2.6-0.8-5.3-1.3-8-1.6l-1.3-0.1l0.3-0.4c0.4-0.5,1.1-1.4,2.1-2.6s2-2.5,3.1-3.9
	c1.1-1.4,2.1-2.8,3.1-4.1c1-1.3,1.8-2.3,2.3-3c0.5-0.7,1.6-1.9,3.1-3.7c1.5-1.8,3.1-3.6,4.5-5.3c0.4-0.7,0.8-1.2,1.3-1.7
	c0.5-0.5,0.8-0.8,0.9-0.9c0.1-0.3,0.6-0.9,1.4-1.8c0.8-0.9,1.7-2,2.8-3.2c2.7-3.1,5.2-6.1,7.7-9c2.4-2.9,4.2-5.1,5.4-6.6
	c0.5-0.7,1-1.3,1.5-1.9c0.5-0.6,0.8-1,1.1-1.3c3.2-3.9,6-8,8.2-12.4c2.2-4.4,3.9-8.8,5.1-13.2c1.2-4.4,1.8-8.7,1.8-12.8
	c0-0.2,0-0.4,0-0.5c0-0.1,0-0.2,0-0.3c0-0.2,0-0.5,0-0.7c0-0.1,0-0.3,0-0.4c0-4.1-0.7-7.8-2-11c-1.9-4.8-4.4-8.5-7.6-11.1
	c-3.2-2.6-7.2-4.6-12-5.9c-0.5-0.1-1.4-0.3-2.6-0.4c-1.2-0.1-2.5-0.2-3.7-0.2c-1.3,0-2.5,0-3.5,0.1c-1.1,0.1-1.9,0.2-2.4,0.3
	c-0.1,0-0.5,0.1-1.2,0.2c-0.7,0.1-1.4,0.3-2.1,0.5c-0.7,0.2-1.4,0.4-2,0.6c-0.6,0.2-1,0.4-1.1,0.5l-0.4,0.2c-0.3,0-1.2,0.4-2.8,1.2
	c-1.6,0.8-3,1.5-4.2,2.2c-5.2,3.1-9.6,7.1-12.9,12c-3.4,4.9-5.7,10.1-6.9,15.3c-0.7,2.8-0.9,5.6-0.9,8.3c0,0.3,0,0.7,0,1
	c0,2.7,0.3,5.3,0.9,7.8c1.2,4.8,3.8,8.8,7.7,11.8c3.8,2.9,7.1,4.4,9.9,4.4c2.3,0,4-0.7,5-2.2c1.1-1.2,1.5-2.2,1.3-3.1
	c0.1-0.3,0.1-0.7,0-1c0.2-0.7,0-1.3-0.4-1.9c-0.9-1.1-2.6-1.5-5.1-1.2c-2.6,0.3-4.8-0.2-6.9-1.4c-2-1.2-3.6-2.9-4.8-5
	c-1.2-2.1-1.9-4.6-2-7.5c0.1-2.3,0.6-4.6,1.4-7c1.2-3.5,3-6.6,5.5-9.4c2.4-2.8,5.1-5.2,8.1-7.2c3-2,6.1-3.5,9.3-4.6
	c3.2-1.1,6.3-1.6,9.3-1.6c2.8,0,5.4,0.6,7.7,1.7c2.3,1.1,4,2.9,5.2,5.3c1.2,2.5,1.9,5.2,2,8.1c-0.1,1.2-0.2,2.3-0.4,3.5
	c-0.9,4.9-3.4,10.7-7.5,17.5c-0.4,0.7-1,1.6-1.8,2.9c-0.8,1.3-1.6,2.5-2.4,3.7c-0.8,1.2-1.5,2.3-2.2,3.3c-0.7,1-1.1,1.5-1.2,1.5
	c-0.1,0.3-0.3,0.5-0.6,0.8c-0.3,0.5-0.7,1.1-1.2,1.6c-0.4,0.7-1.1,1.7-2.1,3c-1,1.3-2,2.7-2.9,4c-3.1,4-5.7,7.3-7.7,9.9
	s-3.7,4.8-5,6.7c-1.3,1.9-2.5,3.5-3.5,4.9c-1,1.4-2.1,2.9-3.1,4.5c-0.7,0.9-1.2,1.7-1.7,2.4c-0.5,0.7-0.9,1.4-1.3,2.1
	c-0.4,0.7-0.9,1.6-1.4,2.6c-0.5,1-1.3,2.4-2.4,4.3c-0.3,0.3-0.7,0.9-1.2,2c-0.5,1.1-1.1,2.3-1.8,3.6c-0.7,1.3-1.4,2.7-2.2,4.2
	c-0.8,1.5-1.4,2.5-1.8,3.2c-2,3.2-3.3,5.5-3.7,6.8c-0.3,0.8-0.4,1.6-0.3,2.3c0,0.3,0,0.7,0,1c-0.1,0.8,0,1.6,0.4,2.2
	c0.8,1.3,1.9,2,3.2,2c2,0,4-1.4,6.1-4.2c1.3-1.7,3.2-2.6,5.5-2.6c3.4,0,8.3,1.9,14.9,5.6c2.8,1.6,5.3,3,7.4,4.1
	c2.1,1.1,3.9,2,5.6,2.7c1.6,0.7,3.1,1.1,4.5,1.4c1.4,0.3,2.9,0.5,4.3,0.6c4.8,0.5,9.1-0.2,12.9-2.1c3.8-1.9,6.6-4.5,8.4-7.6
	c1.7-2.9,2.4-6,2.4-9.5C-1486.6-487.4-1486.6-487.7-1486.6-488.1z"/>
<path d="M-1373.4-519c-0.1-6.1-1.4-11.8-3.8-17.2c-2.4-5.4-5.6-10.1-9.5-14c-3.9-4-8.4-7.1-13.6-9.4c-5.2-2.3-10.7-3.4-16.7-3.4
	h-2.4c0.3-0.5,0.8-1.1,1.4-1.8c1.4-1.7,3.2-3.7,5.3-6c2.2-2.2,4.5-4.5,7-7c2.5-2.4,4.8-4.5,7-6.3c2.3-2.3,4.7-4.4,7.2-6.5
	c2.5-2,5-3.9,7.6-5.7c3-2.1,4.5-4.3,4.6-6.5c0.3-0.8,0.3-1.5,0.2-2.3c-0.3-2.5-2.4-3.7-6.2-3.7c-0.5,0-1.3,0-2.3,0s-2-0.1-2.9-0.2
	c-0.9-0.1-2.4-0.3-4.3-0.4c-2-0.1-3.9-0.3-5.8-0.4c-1.9-0.1-3.8-0.2-5.9-0.3c-2-0.1-3.5-0.2-4.4-0.3c-9.8-0.9-17.8-0.7-23.8,0.7
	c-6.1,1.4-10.6,4.1-13.5,8c-0.9,1.2-1.7,2.4-2.4,3.7c-0.6,1.1-1.1,2.2-1.4,3.3c-0.6,1.9-0.9,3.8-0.9,5.6c0,0.6,0,1.1,0,1.6
	c0.1,2,0.7,3.9,1.7,5.6c1,1.7,2.4,3,4.1,3.9c1.1,0.5,2,0.7,2.7,0.6c0.7-0.1,1.3-0.5,1.7-1c0.4-0.5,0.5-1,0.4-1.6
	c0.3-0.5,0.4-1,0.3-1.7c-0.1-0.7-0.7-1.4-1.6-2.1c-2.3-1.7-3.3-4.2-3-7.3c0-0.2,0.1-0.4,0.1-0.5c0.6-2.3,2-4.3,4.1-6.1
	c1.9-1.6,4-2.8,6.3-3.5c2.3-0.7,5.2-1.1,8.9-1.1c1.6,0,3.4,0.1,5.3,0.2c1.9,0.1,4.1,0.3,6.4,0.6c1.7,0.3,3.6,0.5,5.6,0.6
	c1.9,0.1,3.5,0.3,4.7,0.4c1.1,0.1,2.2,0.2,3.4,0.3c1.2,0.1,2.2,0.1,2.8,0.1l0.7,0.1l-1.1,0.8c-3.5,2.3-7.1,4.8-10.7,7.7
	c-3.6,2.8-7.1,5.8-10.4,8.8c-3.3,3-6.4,6-9.2,9c-2.8,3-5.1,5.7-6.9,8.1c-1.9,2.7-3.4,4.9-4.3,6.9c-1,1.9-1.6,3.5-1.8,4.7
	c-0.1,0.5-0.1,0.9,0,1.3c-0.2,2.2,1,3.3,3.5,3.3c0.8,0,1.8-0.1,2.9-0.3c1.1-0.2,2.5-0.6,3.9-1.3c2.2-0.8,4.6-1.4,7.4-1.8
	c2.8-0.4,5.5-0.6,8.2-0.6c8.3,0,15,2,20.1,6.1c5,4,8.3,10.4,9.8,19c0.2,1.1,0.3,2.3,0.3,3.5c-0.1,2.3-0.4,4.7-1.2,7.3
	c-0.9,3.1-2.1,6.3-3.6,9.3c-0.5,1-1.1,2-1.7,3c-2.5,4.2-5.5,8.2-9,11.9c-3.5,3.7-7.2,6.6-11.1,8.6c-4.2,2.3-8.5,3.4-13.1,3.4
	c-3.8,0-7.3-0.8-10.5-2.5c-3.2-1.7-5.9-3.9-7.9-6.8c-2-2.8-3.3-6.1-3.7-9.8c-0.2-1.9-0.2-3.9,0.2-5.9c0.3-1.5,0.8-3,1.5-4.5
	c1.7-4.3,4.5-7.7,8.3-10.1c3.8-2.4,7.6-3.6,11.5-3.6c3.6,0,6.7,1.2,9.1,3.6c0.8,0.8,1.2,2.1,1.3,3.7c0,0.2,0,0.3,0,0.5
	c0,1.3-0.2,2.6-0.5,4c-0.4,1.8-1,3.5-1.8,5.1c-0.8,1.6-1.8,2.9-2.8,3.8c-0.6,0.5-1,0.9-1,1.3c-0.3,0.4-0.4,0.8-0.1,1.1
	c-0.3,0.6-0.1,1,0.7,1.3c1.6,0.7,3.3,0.3,5-1c1.7-1.3,3.2-3.2,4.4-5.6c1.2-2.4,2.1-4.9,2.5-7.7c0-0.1,0-0.1,0-0.2
	c0.1-0.4,0.2-0.8,0.3-1.2c0.5-2.8,0.2-5.2-0.7-7.4c-1.3-3.2-3.4-5.7-6.3-7.3c-2.8-1.6-6-2.4-9.5-2.4c-4.3,0-8.6,1.1-13,3.4
	c-4.4,2.3-8,5.7-11,10.1c-0.8,1.2-1.5,2.4-2.1,3.7c-1.8,3.7-2.9,7.5-3.2,11.6c-0.1,0.8-0.1,1.7-0.1,2.5c-0.1,4.6,0.7,9.1,2.5,13.3
	c1.9,4.7,4.8,8.8,8.7,12.3c3.8,3.5,8.4,5.9,13.8,7.1c0.7,0.1,1.2,0.3,1.7,0.4c0.5,0.1,0.8,0.2,1.1,0.2c0.3,0,0.9,0,2,0
	c1.1,0,2.3,0,3.6,0c1.3,0,2.6,0,3.6-0.1c1.1-0.1,1.7-0.2,2-0.3c0.3,0,0.7-0.1,1.2-0.2c0.5-0.1,1.1-0.3,1.8-0.4
	c5.8-1.3,11.2-3.6,16.1-6.7c5-3.1,9.3-6.8,12.8-11.2c3.6-4.4,6.3-9.1,8.3-14.3c0.9-2.3,1.5-4.6,1.9-6.9
	C-1373.6-511.9-1373.2-515.4-1373.4-519z"/>
<path d="M-1146.8-519.1c0.1-4-0.3-8.1-1.2-12.2c-0.9-4.8-2.4-9.1-4.4-12.8c-2-3.7-4.4-6.8-7.3-9.4c-2.8-2.6-5.9-4.5-9.3-5.9
	c-3.4-1.3-6.9-2-10.5-2c-4.3,0-8.7,1-13.1,3c-4.4,2-8.6,5.2-12.5,9.5c-0.8,0.8-1.3,1.4-1.6,1.7c0.3-1.3,0.5-2.8,0.8-4.4
	c0.3-1.3,0.5-2.6,0.7-3.6c0.2-1.1,0.5-2.3,0.8-3.6c0.3-1.3,0.8-3,1.3-4.9c0.5-1.9,1.2-4.4,2-7.4c0.9-3.9,1.7-7.3,2.2-10.1
	c0.5-2.8,0.8-5,0.8-6.7c0-1.5,0.1-2.3,0.2-2.4c0.1-0.1,0.9-0.3,2.4-0.4c2.3-0.4,5.6-1.3,9.9-2.6c8.7-2.8,15.7-4.2,21-4.2
	c6.6,0,10.6,2.2,11.9,6.5c0.1,0.9,0.5,1.4,1.2,1.4c0.7,0,1.3-0.5,1.9-1.4c0.6-0.9,0.9-2.1,0.9-3.4c0-0.2,0-0.3,0-0.5
	c0-0.2,0-0.4,0-0.6c0-0.3,0-0.5-0.1-0.7c0-0.3,0.1-0.6,0.1-0.9c0-1.9-0.5-3.6-1.6-5.2c-1.1-1.6-2.4-3-4-4.2
	c-1.6-1.2-3.4-2.2-5.2-2.9c-1.9-0.7-3.7-1.1-5.5-1.1c-2.4,0-5.4,0.4-9.1,1.2s-8.4,2.2-14.3,4c-2.6,0.8-5,1.2-7.3,1.2
	c-2.8,0-4.8-0.6-6.1-1.8c-1.8-1.5-3.2-2.2-4.4-2.2c-0.7,0-1.3,0.2-2,0.6c-0.8,0.5-1.8,2.1-2.9,4.7c-1.1,2.6-2.3,6-3.3,10
	c-1.1,4-2.2,8.6-3.2,13.7c-1.1,5.1-2,10.4-2.8,15.9c-0.5,3.6-0.8,7.4-0.9,11.4c0,1.2,0,2.3,0,3.5c0,0.5,0,1,0,1.5
	c0,3.2,0.1,6.2,0.3,9c0.3,3.5,0.7,6.5,1.3,9c0.6,2.5,1.3,4.1,2.1,4.9c1.2,0.9,2.2,1.4,3,1.4c1.5,0,2.7-0.8,3.7-2.4
	c1-1.6,1.6-3.8,1.9-6.7c0.3-2.8,1.3-5.5,3.1-7.9c1.8-2.4,4-4.6,6.7-6.5c2.6-1.9,5.4-3.4,8.4-4.4c3-1.1,5.7-1.6,8.3-1.6
	c5.4,0,10.2,1.9,14.3,5.6c4.2,3.7,6.9,9.1,8.3,16c0.3,1.8,0.5,3.7,0.6,5.7c-0.1,2.5-0.4,5.1-0.9,7.8c-1.1,5.7-3,11.1-5.5,16
	c-2.5,5-5.6,9.3-9.3,12.8c-3.7,3.6-7.6,5.8-11.6,6.6c-3.4,0.7-6.3,0.3-8.9-1.2c-2.6-1.5-4.5-3.5-5.8-6.2c-0.9-1.8-1.4-3.7-1.5-5.7
	c0-0.1,0-0.1,0-0.2c0.3-3.2,1.5-6.1,3.8-8.8c1.5-1.6,3.4-2.4,5.7-2.4c2.3,0,4.4,0.8,6.4,2.5c1.9,1.7,2.9,3.9,2.7,6.6
	c0,1.2,0.3,1.8,1,1.8c1.2,0,2.2-0.9,2.8-2.8c0.4-1,0.5-2,0.5-3.1c0-0.5,0-1,0-1.5c0.1-1.2,0-2.4-0.5-3.7c-0.7-1.9-1.9-3.6-3.3-5
	c-1.5-1.5-3.3-2.6-5.3-3.4c-2.1-0.8-4.1-1-6.2-0.6c-3.6,0.7-6.6,2.2-8.8,4.4c-2.2,2.3-3.8,4.9-4.7,8c-0.8,2.6-1.2,5.4-1.1,8.4
	c0,0.4,0,0.8,0,1.3c0,0.9,0,1.9,0.1,2.9c0.3,3.5,1.1,6.8,2.6,9.9c1.5,3.1,3.6,5.8,6.3,8.2c2.7,2.4,5.9,3.9,9.5,4.7
	c2,0.4,3.9,0.6,5.7,0.6c5.9,0,11.5-1.8,16.8-5.3c5.2-3.6,9.7-8.3,13.3-14.1s6.2-12.4,7.8-19.8c0.8-3.8,1.2-7.7,1.1-11.5
	C-1146.8-518.2-1146.8-518.6-1146.8-519.1z"/>
<path d="M-1036.5-518.2c0-6.3-1.4-11.7-4.2-16.5c-2.6-4-5.7-7-9.4-9c-3.7-1.9-7.5-2.9-11.4-2.9c-2.4,0-4.6,0.3-6.8,0.9
	c-3.7,0.9-7.3,2.6-10.5,5.2c-4.9,3.9-7.9,9.4-9,16.6c-0.1,0.7-0.2,1.4-0.2,2.1c0,0.2-0.1,0.3-0.1,0.5c-0.4,2.6-0.2,5.1,0.5,7.7
	c0.7,2.6,1.8,4.8,3.1,6.9c1.3,2,3,3.7,4.8,4.9c1.9,1.3,3.8,1.9,5.9,1.7c0.9,0,1.6-0.2,2.3-0.4c1.7-0.3,2.7-1,3-2.2
	c0.1-0.3,0.1-0.5,0-0.8c0.1-0.2,0.2-0.4,0.2-0.6c0.1-0.4,0.1-0.7,0-1.1c0,0,0,0,0,0c0.3-1.4-0.6-2.7-2.7-3.7c-3.4-1.9-5.3-4.5-6-7.9
	c-0.2-0.9-0.3-1.8-0.3-2.7c0-0.8,0.1-1.5,0.2-2.3c0.2-0.8,0.5-1.7,0.8-2.5c1.3-3.3,3.3-6.2,6.1-8.7c1.7-1.5,3.5-2.6,5.5-3.2
	c0.8-0.2,1.7-0.3,2.6-0.3c1.3,0,2.7,0.2,4,0.6c5.1,1.6,8.7,4.6,10.9,9.1c2,4.2,2.9,8.8,2.5,13.8c-0.7,4.8-2.5,9.5-5.3,14.2
	c-3.2,5.2-7.5,9.5-13,12.7c-2.4,1.4-4.8,2.5-7.1,3.1c-1.4,0.3-2.8,0.5-4.1,0.5c-6.1,0-11.1-3.2-15.1-9.7c-3.4-5.4-5.6-12-6.6-19.9
	c-0.5-3.9-0.8-7.8-0.8-11.8c0-3.8,0.2-7.8,0.6-11.8c0.4-4.3,1.1-8.5,1.9-12.8c0.8-3.8,1.7-7.6,2.7-11.3c2.4-8.4,5.3-15.8,8.8-22.2
	c3.5-6.4,7.4-11.4,11.6-14.9c2-1.7,4-2.8,6.1-3.4c2-0.4,4-0.4,6,0.2c2,0.5,3.8,1.7,5.4,3.5c1.6,1.8,2.9,4,3.8,6.5
	c0.9,2.5,1.5,5.1,1.7,7.9c0.1,0.7,0.1,1.4,0,2c-0.2,1.1-0.5,2.2-0.9,3.2c-0.3,0.3-0.4,0.9-0.5,1.8c0,0.4,0,0.8,0,1.2
	c-0.1,0.3-0.2,0.8-0.3,1.4c-0.1,0.9,0,1.7,0.1,2.2c0,0.4,0.2,0.7,0.6,0.9c0.4,0.2,0.8,0.2,1.2,0.1c0.1,0,0.3-0.1,0.4-0.2
	c0.2,0,0.5,0,0.7-0.1c0.8-0.3,1.5-1.6,2.2-4c0.3-1,0.5-2,0.7-3.1c0.5-2,0.8-4.3,1-6.8c0-1,0-1.9,0-2.8c0-6.9-1.8-12.6-5.5-17
	c-3.9-4.8-9.3-7.2-16.1-7.2c-1.8,0-3.6,0.3-5.5,0.8c-2.8,0.6-5.8,1.8-8.8,3.6c-4.6,2.8-9.1,6.5-13.2,11.1c-4.2,4.6-8,10-11.4,16.1
	c-3.4,6.1-6,12.5-7.8,19.1c-0.9,3.6-1.8,7.4-2.4,11.3c-0.6,3.4-1,6.7-1.4,10c-0.2,1.3-0.3,2.7-0.4,4c-0.3,3.7-0.5,7.2-0.5,10.4
	s0.2,6,0.6,8.3c0,0.5,0.1,1.3,0.2,2.2c0.1,0.9,0.3,1.8,0.6,2.6c1.1,6.2,2.7,11.9,4.7,17.1c2.1,5.2,4.6,9.7,7.7,13.4
	c3,3.8,6.4,6.8,10.2,9c3.8,2.2,7.8,3.5,12.1,3.9h1.8c0.3,0,0.8,0,1.5-0.1c0.7-0.1,1.6-0.1,2.5-0.1c1.7-0.1,3.1-0.3,3.9-0.5
	c0.3-0.1,0.6-0.1,0.9-0.2c0.1,0,0.1,0,0.2,0c0.9-0.2,2.3-0.6,4.3-1.3c5.5-2,10.4-5.5,14.5-10.5c4.2-5,7.4-10.5,9.7-16.6
	c1.2-3.1,2-6.3,2.6-9.4c0.7-3.4,1.1-6.9,1.1-10.4c0-0.2,0-0.3,0-0.5C-1036.6-517.8-1036.5-518-1036.5-518.2z"/>
<path d="M-922.4-608.4c-0.9-0.9-2.1-1.4-3.4-1.4c-0.2,0-0.3,0-0.5,0c-0.1,0-0.2,0-0.4,0c-1.9,0-3.8,1-5.7,3c-1.1,1.2-2.5,2-4.2,2.4
	c-0.7,0.2-1.5,0.2-2.4,0.2c-1.1,0-2.3-0.2-3.6-0.4c-0.7-0.3-1.5-0.5-2.6-0.6c-1.1-0.1-2.2-0.3-3.2-0.4c-0.9-0.1-2.3-0.4-4.1-0.7
	c-1.8-0.3-3.5-0.6-5.1-0.9c-1.5-0.4-3.1-0.8-4.7-1.1c-1.7-0.3-2.9-0.6-3.5-0.7c-0.7-0.1-1.4-0.3-2.2-0.4c-0.8-0.1-1.4-0.3-1.8-0.4
	c-1.6-0.3-3.2-0.5-4.7-0.7c-1.5-0.2-3.1-0.3-4.5-0.3c-0.1,0-0.3,0-0.4,0c-0.1,0-0.3,0-0.4,0c-7.1,0-12.9,1.8-17.4,5.3
	c-4.4,3.6-7.1,8.7-7.9,15.4c-0.2,1.1-0.2,2.1-0.2,3.2c0,0.3,0,0.7,0,1c-0.1,2.2,0.3,4.3,1.1,6.3c1,2.7,2.4,5,4.1,7.1
	c1.7,2,3.8,3.6,6.2,4.8c2.4,1.2,4.7,1.8,7.2,1.8c0.1,0,0.3,0,0.4,0c0.1,0,0.3,0,0.4,0c2.8,0,5.2-0.7,7.3-2.2
	c1.2-0.8,1.9-1.7,2.2-2.6c0.2-0.5,0.2-1,0.1-1.4c0.1-0.4,0-0.8-0.1-1.1c0.2-0.8,0.1-1.5-0.3-2c-0.4-0.6-1.1-1-2.1-1.1
	c-0.3,0-0.6,0-0.9,0c-1-0.1-2.1,0.2-3.3,0.8c-1.8,0.9-3.5,1.3-5.3,1.4c-3.3-0.1-5.9-1.5-7.9-4.1c-1.2-1.6-1.9-3.5-2.1-5.7
	c0.1-0.9,0.2-1.7,0.4-2.7c1.3-6.1,5.5-9.1,12.6-9.3c3.3,0,6.8,0.5,10.5,1.4c3,0.7,5.4,1.2,7.3,1.7c1.9,0.5,3.4,0.8,4.6,1.1
	c1.2,0.3,2.3,0.5,3.2,0.6c0.9,0.1,1.9,0.3,2.8,0.4c1.7,0.2,3.5,0.3,5.6,0.3c0.9,0,1.8,0,2.8-0.1c2.4-0.1,4.2-0.3,5.4-0.6
	c-0.1,0.2-0.2,0.4-0.4,0.6c-2.2,3.1-4.2,6.3-6.3,9.5s-3.9,6.5-5.7,9.9c-0.3,0.5-0.6,1-0.9,1.5c-0.3,0.5-0.6,0.8-0.7,0.9
	c-0.3,0.5-0.9,1.8-2,3.8c-1.1,2-2.2,4.2-3.4,6.7c-1.2,2.4-2.4,4.8-3.5,7.1c-1.1,2.3-1.9,4-2.3,5c-3.2,7.3-5.9,14.4-8.1,21.3
	c-2.2,6.9-3.6,14.4-4.4,22.3c0,0.3,0,0.8,0,1.4c0,0.2,0,0.5,0,0.8c0,0,0,0.1,0,0.2c0,0.3,0,0.8,0,1.4c0,0.3,0,0.5,0,0.8
	c0,1.2,0,2.5,0.1,3.7c0.1,1.3,0.2,2.5,0.3,3.7c0.1,1.2,0.2,2,0.2,2.4c0.4,1.8,0.8,3.6,1.3,5.7c0.5,2,1.1,4,2,5.9
	c0.9,1.9,1.9,3.6,3.2,5c1.3,1.5,2.9,2.6,4.7,3.2c0.5,0.2,1.1,0.3,1.7,0.2c0.9,0.1,1.8-0.1,2.8-0.6c1.3-0.7,2.3-1.5,2.8-2.6
	c0.2-0.7,0.3-1.2,0.2-1.6c0.1-0.4,0-0.8-0.1-1.1c0.4-1.6-0.3-2.4-2.2-2.6c-0.8-0.1-1.6-1.1-2.3-3c-0.7-1.9-1.3-4.1-1.7-6.8
	c-0.3-2.2-0.5-4.6-0.6-7c0.1-2.5,0.3-4.7,0.8-6.6c0.7-4,1.8-8.3,3.5-12.9c1.7-4.6,3.6-9.2,5.7-13.8c2.1-4.6,4.3-9.1,6.8-13.5
	c2.4-4.4,4.6-8.2,6.7-11.6c0.7-1.1,1.7-2.8,3.1-5.1c1.4-2.4,2.9-4.8,4.3-7.4c1.5-2.6,2.9-5,4.2-7.3c1.3-2.3,2.3-3.8,2.8-4.6
	c0.7-1.3,1.7-3.2,3-5.6c1.3-2.4,2.4-4.1,3-5.1c2.3-4,3.6-7.9,3.9-11.5c0.1-0.7,0.1-1.4,0.1-2c0-0.5,0-0.9,0-1.3
	C-920.3-604.7-921-606.9-922.4-608.4z"/>
<path d="M-814.7-523.6c-0.6-2.1-1.3-4.2-2.1-6.3c-2.6-6.5-6.9-13.6-12.8-21.1c-0.5-0.7-1-1.2-1.3-1.5c-0.3-0.3-0.7-0.7-1.1-1.2
	c-0.4-0.5-1-1.2-1.7-2.1c-0.7-0.9-1.9-2.2-3.3-3.8c-3.2-3.6-5.9-6.8-7.9-9.5c-2-2.7-3.6-5-4.7-7.1c-0.8-1.4-1.4-2.7-1.8-4
	c-0.3-1.5-0.5-3.1-0.5-4.6c0.1-2.3,0.8-4.4,1.9-6.4c1.1-1.9,2.6-3.6,4.4-5c1.8-1.4,3.8-2.5,6-3.2c1.9-0.6,3.7-1,5.5-1.1
	c1.9,0.1,3.7,0.5,5.2,1.4c1.7,0.9,3.2,2.4,4.2,4.2c0.1,0.3,0.3,0.6,0.4,0.9c0.3,1.4,0.3,2.8,0.1,4.4c-0.4,2.7-1.2,5.2-2.5,7.5
	c-1.3,2.3-2.9,4.1-4.9,5.4c-1.3,0.9-2.7,1.4-4,1.5c-0.2,0-0.5-0.1-0.7-0.1c-0.8-0.2-1.4-0.2-1.9-0.1c-0.9-0.1-1.7-0.1-2.1,0.3
	c-0.5,0.4-0.8,0.9-0.8,1.6c0,0.4,0.1,0.7,0.3,1.1c0,0,0,0,0,0c0,0.4,0.1,0.8,0.3,1.2c0.1,0.6,0.4,1.1,0.9,1.7
	c0.6,0.7,1.5,1.2,2.7,1.6c1.3,0.4,2.6,0.5,3.8,0.4c1.6,0.1,3.2-0.1,4.7-0.7c2.4-0.9,4.5-2.3,6.5-4.3c1.9-2,3.5-4.4,4.7-7.2
	c1.2-2.8,1.8-5.8,1.8-9c0-2.8-0.4-5.2-1.2-7.4c-0.3-1.2-0.6-2.3-1.1-3.4c-1.1-2.6-2.7-4.7-4.6-6.4c-2-1.7-4.2-2.9-6.7-3.7
	c-2.5-0.8-5.1-1.2-8-1.2c-0.2,0-0.5,0-0.7,0c-0.2,0-0.5,0-0.7,0c-2.8,0-5.7,0.4-8.6,1.3c-2.9,0.9-5.6,2.2-8.2,3.8
	c-2.6,1.7-4.8,3.8-6.9,6.5s-3.6,5.7-4.6,9.2c-1.9,5.8-2,11.6-0.4,17.5c0.3,1.1,0.6,2.2,0.9,3.3c1.5,4.8,4.1,9.6,7.8,14.4
	c-0.3,0.3-0.9,0.5-1.7,0.8c-2.8,0.9-5.6,2.4-8.3,4.4c-2.7,2-5.2,4.4-7.7,7.2c-2.4,2.8-4.6,5.8-6.5,9c-1.9,3.2-3.4,6.6-4.4,10.1
	c-2,6.1-2.8,11.9-2.4,17.7c0.2,2.9,0.7,5.7,1.4,8.3c0.3,1.2,0.6,2.3,1,3.4c0.6,2,1.4,4,2.4,5.8c2.4,4.7,5.8,8.8,10.1,12.2
	c4.3,3.4,9.4,5.9,15.1,7.4c0.9,0.3,2,0.5,3.1,0.6c1.1,0.1,2.3,0.2,3.5,0.2c0.3,0,0.5,0,0.8,0c0.2,0,0.4,0,0.6,0c5.7,0,10.9-1,15.6-3
	c4.8-2,8.9-4.8,12.3-8.4c3.4-3.6,6.1-7.8,8.1-12.7c1.9-4.9,2.9-10.2,2.9-15.8C-812.3-513.2-813.1-518.5-814.7-523.6z M-853.1-548.3
	c0.1,0.1,0.2,0.1,0.2,0.2c0.1,0.1,0.6,0.7,1.3,1.6c0.7,0.9,1.6,2,2.7,3.2c2.8,3.2,5.2,6.2,7.3,9c2,2.8,3.7,5.3,5.1,7.8
	c1.4,2.4,2.6,4.8,3.4,7.1c0.2,0.4,0.3,0.9,0.5,1.4c0.3,0.9,0.5,1.7,0.8,2.6c0.1,0.4,0.2,0.9,0.3,1.3c0.8,3.5,0.9,7,0.2,10.6
	c-0.7,3.6-1.9,6.9-3.6,9.9c-1.8,3-4,5.6-6.7,7.8c-2.7,2.2-5.7,3.6-8.9,4.4c-0.5,0.1-1.1,0.3-1.7,0.4c-0.6,0.1-1,0.2-1.3,0.2
	c-0.7,0.2-1.5,0.2-2.3,0.3c-0.9,0-1.8-0.1-2.8-0.3c-2.6-0.4-4.8-1.1-6.9-2.2c-3.2-1.7-6-4-8.3-6.9c-2.3-2.8-4-5.9-5.1-9.4
	c-0.8-3-1.2-6.1-1.2-9.3c0-4,0.7-8,2-12c1.2-3.8,2.9-7.3,5-10.7c2.2-3.4,4.6-6.3,7.3-8.9c1.3-1.3,2.8-2.6,4.3-3.6
	c1.5-1.1,3-2,4.3-2.7c1.3-0.7,2.5-1.3,3.5-1.6C-853.2-548.2-853.2-548.2-853.1-548.3z"/>
<path d="M-698.7-560c-0.7-8.3-2.3-15.7-4.7-22.4c-2.5-6.7-5.8-12.3-9.9-16.9c-4.1-4.6-8.9-7.7-14.4-9.5c-4.2-1.3-8.5-2-12.9-2
	c-0.1,0-0.2,0-0.4,0c-0.2,0-0.3,0-0.5,0c-4.8,0-9.4,0.9-13.6,2.7c-4.2,1.8-8,4.4-11.4,7.9c-3.4,3.4-6.3,7.6-8.7,12.6
	c-2.4,5-4.2,10.6-5.4,17c-0.4,2.1-0.6,4.1-0.6,6.1c0,0.3,0,0.6,0,0.8c-0.1,1.8,0,3.6,0.3,5.4c0.5,3.5,1.4,6.8,2.7,9.8
	c1.3,3,3.1,5.8,5.3,8.2c2.2,2.4,4.8,4.4,7.8,5.9c3.5,1.6,7.1,2.4,10.9,2.4c0.2,0,0.3,0,0.5,0c0.1,0,0.3,0,0.4,0
	c3.6,0,7.1-0.7,10.5-2c3.4-1.3,6.4-3.2,9-5.6c2.6-2.4,4.7-5.1,6.3-8.3c1.5-3.2,2.3-6.6,2.3-10.2c0-0.1,0-0.2,0-0.3
	c0-0.2,0-0.3,0-0.5c0-0.1,0-0.2,0-0.3c0-0.2,0-0.3,0-0.5c0-2.4-0.4-4.7-1.2-7c-0.8-2.2-1.9-4.2-3.3-6.1c-1.4-1.8-3-3.3-4.8-4.3
	c-1.8-1.1-3.7-1.7-5.6-1.8c-0.4,0-0.7,0-1,0c-2.6-0.1-4.2,0.7-4.8,2.3c-0.2,0.5-0.2,0.9-0.1,1.4c-0.1,0.3,0,0.6,0,0.8
	c-0.3,1.4,0.7,2.7,2.9,3.6c3.5,1.5,5.7,3.9,6.5,7.4c0.3,1.1,0.4,2.2,0.5,3.4c-0.1,1.8-0.4,3.6-1.1,5.3c-1.2,3.5-3.3,6.6-6.2,9.3
	c-2.8,2.6-6.1,3.9-10,4c-4.8-0.1-8.7-1.7-11.8-4.9c-3.2-3.3-5.2-7.4-6.2-12.2c-0.3-1.6-0.5-3.2-0.5-4.8c0.1-2.9,0.5-5.9,1.4-9
	c1.5-5.4,4.4-10.3,8.6-14.6c3.5-3.5,7.1-6.1,10.7-7.9c3.5-1.7,6.9-2.5,10.2-2.6c5,0.1,9.4,1.9,13.3,5.4c4,3.6,6.9,9.1,8.8,16.3
	c1.5,5.9,2.3,12.6,2.3,19.9c0,1.1,0,2.2-0.1,3.3c-0.4,9.4-1.7,18.5-3.8,27.6c-2.2,9-5,17.3-8.7,24.8c-3.6,7.5-7.7,13.1-12.1,16.6
	c-4.7,3.8-9.2,5.7-13.5,5.8c-4.5-0.1-7.9-2.3-10.3-6.4c-1.4-2.5-2.1-5.5-2.2-8.9c0.1-2.1,0.3-4.3,0.8-6.7c0.4-1.9,0.6-3.1,0.6-3.7
	c0-0.1,0-0.2,0-0.3c0-0.2,0-0.4,0-0.6c0-0.1,0-0.2,0-0.3c0-0.2,0-0.4,0-0.6c0-0.6-0.3-1-1-1.3c-0.4-0.2-0.7-0.2-1.1-0.1
	c-0.7-0.2-1.4,0.1-2.1,1.1c-0.7,1.1-1.3,2.5-1.8,4.3c-0.5,1.8-0.8,3.9-1.1,6.2c-0.2,1.3-0.2,2.6-0.2,3.8c0,0.3,0,0.6,0,0.8
	c0,1.3,0,2.5,0.2,3.7c0.7,5,2.2,8.8,4.6,11.5c2.4,2.7,6,4.5,10.7,5.4c2.4,0.5,4.9,0.6,7.3,0.6c4.2,0,8.4-0.9,12.5-2.6
	c6.1-2.6,11.8-6.6,17-12.2c5.2-5.6,9.6-12.5,13.3-20.8c3.7-8.3,6.4-17.5,8-27.6c1.1-6.9,1.6-13.5,1.5-19.9c0-0.3,0-0.6,0-0.8
	C-698.4-555.3-698.5-557.7-698.7-560z"/>
<path d="M-1935.6-201.9c-16.6,0.6-32.7-12.8-39.5-27.6c-11.4-24.5-10.1-54.9-3.9-80.6c1.5-6.3,3.3-12.8,5.9-18.8
	c2-4.7,5.2-9.6,10.6-10.6c3.6,0,5,3.3,5,6.5c-0.3,10.9-3.6,21.8-4.8,32.5c-1.6,13.9-2.8,27.9-1.5,41.8c1.2,12.1,3.8,27,12.8,36
	c4.2,4.2,9.8,7.1,15.9,7.1c7.2,0,13.1-3.9,17-9.7c6.7-10,9.1-23.4,10.4-35.1c1.4-12.4,1.4-25-0.1-37.3c-0.7-6.4-1.8-12.9-3.6-19.2
	c-7.1-23.7-27.8-26.2-33.9-0.5c-0.7,3-0.5,6.3,0.5,9.2c1.1,2.9,4.6,7.1,8,4.7c0.6-0.4,1.1-1.1,1.7-1.5c2.5-1.8,2.2,1.8,1.9,3.3
	c-0.7,3.5-3,6-6.7,6.2c-2.3,0.1-4.5-0.8-6.4-2.1c-7.5-5.1-9.3-14.4-7.3-22.9c2.7-11.1,11.4-23.8,23.7-24.9c9.8-0.9,17.5,6.5,22.6,14
	c7.7,11.4,10.1,26.7,11.4,40.1c1.5,16.9,0.7,34.3-3.7,50.7c-3.6,13.4-10.1,28.1-22.8,35.1C-1926.7-203.2-1931.2-202.1-1935.6-201.9z
	"/>
<g>
	<path d="M-1209.4,1133.9c-16.6,0.6-32.7-12.8-39.5-27.6c-11.4-24.5-10.1-54.9-3.9-80.6c1.5-6.3,3.3-12.8,5.8-18.8
		c2-4.7,5.2-9.6,10.6-10.6c3.6,0,5,3.3,5,6.5c-0.3,10.9-3.6,21.8-4.8,32.5c-1.6,13.9-2.8,27.9-1.5,41.8c1.2,12.1,3.8,27,12.8,36
		c4.2,4.2,9.8,7.1,15.9,7.1c7.2,0,13.1-3.9,17-9.7c6.7-10,9.1-23.4,10.4-35.1c1.4-12.4,1.4-25-0.1-37.3c-0.7-6.4-1.8-12.9-3.6-19.2
		c-7.1-23.7-27.8-26.2-33.9-0.5c-0.7,3-0.5,6.3,0.5,9.2c1.1,2.9,4.6,7.1,8,4.7c0.6-0.4,1.1-1.1,1.7-1.5c2.5-1.8,2.2,1.8,1.9,3.3
		c-0.7,3.5-3,6-6.7,6.2c-2.3,0.1-4.5-0.8-6.4-2.1c-7.5-5.1-9.3-14.4-7.3-22.9c2.7-11.1,11.4-23.8,23.7-24.9
		c9.8-0.9,17.5,6.5,22.6,14c7.7,11.4,10.1,26.7,11.4,40.1c1.5,16.9,0.7,34.3-3.7,50.7c-3.6,13.4-10.1,28.1-22.8,35.1
		C-1200.6,1132.5-1205,1133.7-1209.4,1133.9z"/>
	<path d="M-1209.4,1134.1c-14.4,0.4-27.4-8.7-35.5-20c-4.1-5.7-6.8-12.4-8.9-19.2c-7.9-27.1-4.6-56.7,3.5-83.5
		c2.3-6.8,5.6-15.2,13.6-16.8c1.1-0.1,2.2,0.1,3.3,0.7c5.7,3.5,3.4,11.5,3,17c-1,7.8-2.8,15.2-3.6,22.8c-0.4,4.4-0.9,9.4-1.2,13.8
		c-1.5,20-1.1,64.6,24.8,67.9c25.1,1.5,26.6-48.1,26.2-65.8c-0.4-10.5-1.5-21.1-4.3-31.2c-0.3-1-1-3.1-1.4-4
		c-3.8-10-14.1-18.5-22-6.9c-1.9,2.8-3.2,6.3-4.1,9.6c-0.7,2.4-0.7,5.1,0,7.5c0.5,1.6,1.7,3.7,3.2,4.1c0.4,0,0.7-0.3,1.1-0.8
		c0.4-0.4,1.2-1,1.8-1.3c1.6-0.9,3.8-0.6,4.9,0.9c2.4,3.7-0.2,10.5-3.9,12.6c-9,4.9-18.7-4.4-20.8-12.9c-2.2-8.2,0.2-16.8,4.2-24
		c4.7-8.5,13.2-16.1,23.4-16.1c10.2,0.2,17.9,8.3,22.9,16.4c6.6,10.9,8.7,23.6,9.9,36c1.1,12.4,1.3,24.9-0.3,37.2
		C-1172.6,1100.8-1182.1,1132.4-1209.4,1134.1L-1209.4,1134.1z M-1209.4,1133.7c19.7-0.8,31-20.4,35.4-37.6
		c6.4-23.8,6-49.4,0.5-73.3c-3.3-13.3-13.1-31.8-28.6-32.2c-9.5,0.1-17.1,7.3-21.3,15.2c-4.3,7.9-6.5,18.1-1.9,26.3
		c3.1,6.1,13.8,12.2,17.5,3.4c0.5-1.3,0.8-3,0.5-4.3c-0.1-0.3-0.2-0.6-0.4-0.6c-1.1,0.1-1.7,1.1-2.6,1.8c-1.3,1.1-3.3,1.2-4.7,0.3
		c-5.6-3.7-5.7-11.5-3.7-17.3c1.8-5.9,4.9-12.1,10.8-14.7c6.1-2.8,12.9,0.7,16.7,5.6c4,4.9,6.1,10.9,7.5,17
		c2.1,9.1,3.1,18.4,3.5,27.6c0.6,20.3-1.7,71.3-30.4,69.5c-29-3.8-29-49.4-27.2-71.7c0.6-6.2,1.1-12.3,2.1-18.5
		c1-6.1,2.4-12.1,3.3-18.2c0.5-3,0.8-6.1,0.9-9.2c0-1.5-0.3-3-1.1-4.3c-3.3-4.8-9.4,0.3-11.6,3.9c-5.3,9.1-7.4,19.7-9.6,29.8
		c-4.1,20.5-4.9,42.2,1,62.4c2,6.7,4.6,13.3,8.7,19C-1236.4,1124.9-1223.6,1134-1209.4,1133.7L-1209.4,1133.7z"/>
</g>
<path d="M-1712.6-158.2c-16.6,0.6-32.7-12.8-39.5-27.6c-11.4-24.5-10.1-54.9-3.9-80.6c1.5-6.3,3.3-12.8,5.9-18.8
	c2-4.7,5.2-9.6,10.6-10.6c3.6,0,5,3.3,5,6.5c-0.3,10.9-3.6,21.8-4.8,32.5c-1.6,13.9-2.8,27.9-1.5,41.8c1.2,12.1,3.8,27,12.8,36
	c4.2,4.2,9.8,7.1,15.9,7.1c7.2,0,13.1-3.9,17-9.7c6.7-10,9.1-23.4,10.4-35.1c1.4-12.4,1.4-25-0.1-37.3c-0.7-6.4-1.8-12.9-3.6-19.2
	c-2.2-7.4-7.6-19.5-17.1-19c-9.5,0.4-14.8,14.7-14.5,22.6c0.1,2.9,1,5.8,2.9,8.1c1.4,1.6,3.8,2.8,5.6,1.7c0.6-0.4,1.1-1,1.6-1.4
	c0.5-0.5,1.3-0.8,2-0.6c1.3,0.4,0.7,2.7,0.5,3.6c-0.7,3.5-3,6-6.7,6.2c-2.3,0.1-4.5-0.8-6.4-2.1c-13.3-9-8.1-30,0.8-40.2
	c11.5-13.4,27.3-5.4,35.6,6.8c7.7,11.4,10.1,26.7,11.4,40.1c1.5,16.9,0.7,34.3-3.7,50.7c-3.6,13.4-10.1,28.1-22.8,35.1
	C-1703.7-159.5-1708.2-158.4-1712.6-158.2z"/>
<path d="M-1682.3-470.9c-16.6,0.6-32.7-12.8-39.5-27.6c-11.4-24.5-10.1-54.9-3.9-80.6c1.5-6.3,3.3-12.8,5.8-18.8
	c2-4.7,5.2-9.6,10.6-10.6c3.6,0,5,3.3,5,6.5c-0.3,10.9-3.6,21.8-4.8,32.5c-1.6,13.9-2.8,27.9-1.5,41.8c1.2,12.1,3.8,27,12.8,36
	c4.2,4.2,9.8,7.1,15.9,7.1c7.2,0,13.1-3.9,17-9.7c6.7-10,9.1-23.4,10.4-35.1c1.4-12.4,1.4-25-0.1-37.3c-0.7-6.4-1.8-12.9-3.6-19.2
	c-7.1-23.7-27.8-26.2-33.9-0.5c-0.7,3-0.5,6.3,0.5,9.2c1.1,2.9,4.6,7.1,8,4.7c0.6-0.4,1.1-1.1,1.7-1.5c2.5-1.8,2.2,1.8,1.9,3.3
	c-0.7,3.5-3,6-6.7,6.2c-2.3,0.1-4.5-0.8-6.4-2.1c-7.5-5.1-9.3-14.4-7.3-22.9c2.7-11.1,11.4-23.8,23.7-24.9c9.8-0.9,17.5,6.5,22.6,14
	c7.7,11.4,10.1,26.7,11.4,40.1c1.5,16.9,0.7,34.3-3.7,50.7c-3.6,13.4-10.1,28.1-22.8,35.1C-1673.5-472.2-1677.9-471-1682.3-470.9z"
	/>
<path d="M-2187.1-622.7c-0.6-7.3-1.4-14.6-2.8-21.9c-0.6-2.9-1.4-5.8-2.3-8.6c-1.5-4.5-3.6-8.7-6.2-12.5c-2.6-3.8-5.6-7-9.2-9.6
	c-3.6-2.6-7.5-3.8-11.8-3.8c-3.9,0-7.3,1.1-10.3,3.2c-8.9,6.5-14.5,19.1-13.7,30.1c0.2,2.1,0.4,3.9,1.2,5.8c0.6,1.5,1.4,2.8,2.4,4
	c0.4,0.5,0.8,0.9,1.3,1.4c1.8,1.7,3.7,2.7,5.7,3.1c1.8,0.4,3.6,0.3,5.2-0.4c1.6-0.7,2.8-2,3.7-4c0.7-1.8,0.8-2.9,0.3-3.3
	c-0.5-0.4-1.3,0-2.6,1.4c-1.1,1-2.4,1.3-3.9,1c-1.6-0.4-3-1.3-4.3-2.8c-2.9-3.4-2.9-8.6-2.2-12.8c0.9-5,3.4-9.7,6.5-13.7
	c4-5,8.5-6.8,13.3-5.3c2.8,0.8,5.2,2.2,7.3,4.2s3.7,4.3,5.1,7c1.4,2.6,2.6,5.3,3.5,8.2c2.3,7.1,3.7,14.3,4,21.7
	c0.1,3,0.2,6.1,0.3,9.1c0.1,4.2,0.2,8.4,0.2,12.6s-0.1,7.8-0.4,10.8c-0.5,6.6-1.5,12.8-2.9,18.5c-1.4,5.7-3.2,10.7-5.3,14.9
	c-2.2,4.2-4.6,7.6-7.3,10.2c-2.7,2.6-5.6,4-8.7,4.4c-5.5,0.7-13.5-0.3-18-4c-4.5-3.7-8.2-9.4-11.2-17.1c-0.3-0.8-0.6-1.9-1.1-3.4
	c-0.5-1.5-0.9-3-1.3-4.6c-0.4-1.6-0.7-3.1-1-4.3c-0.3-1.3-0.4-2.1-0.4-2.5c0-0.4-0.1-1.1-0.4-2.2c-0.4-1.5-0.7-3.6-0.9-6.5
	c-0.2-2.8-0.3-6-0.3-9.4c0-3.4,0.1-6.9,0.2-10.5c0.1-3.6,0.3-6.8,0.6-9.6c0.4-3.9,0.6-7.8,1.2-11.6c1-6.6,2-13.1,3.3-19.7
	c0.8-4.2,1.6-8.4,1.5-12.7c-0.1-2.5-1.1-5.5-4-5.5c-2,0-3.9,1.1-5.6,3.2c-1.7,2.2-3.1,4.7-4.3,7.6c-1.2,2.9-2.2,5.8-3,8.6
	c-0.8,2.8-1.4,5-1.8,6.5c-1.2,4.8-2.2,9.9-3,15c-0.8,5.2-1.4,10.3-1.7,15.4c-0.3,5.1-0.4,10-0.3,14.7c0.2,7.2,1.3,14.5,2.9,21.5
	c0.5,2.2,1.1,4.4,1.8,6.5c2.2,6.5,5.3,12.9,9.1,18.6c1.9,2.8,4.1,5.5,6.5,7.9c1.1,1.1,2.4,2.2,3.5,3.2c1.2,1.1,3.1,1.8,4.6,2.4
	c2.8,1.3,5.8,2.4,8.8,3.1c3.6,0.9,7.4,1.5,11.2,1.3c4.3-0.2,8.2-1.6,11.9-3.7c2.3-1.3,4.6-3.2,6.9-5.8c3.8-4.3,7-9,9.4-14.3
	c2.8-6,4.7-12.4,6-18.9c0.7-3.4,1.3-6.8,1.9-10.3c0.5-3.2,1.1-6.5,1.1-9.7c0.3-3.7,0.4-7.5,0.4-11.3
	C-2186.6-615.4-2186.8-619.1-2187.1-622.7z"/>
<path d="M-1252.6-523.1c-0.2-2.6-1.2-4.1-2.9-4.5c-0.5-0.1-1-0.1-1.4,0c-0.3,0-0.6,0-0.8,0.1c-1.5-0.1-2.6,1-3.2,3.3
	c-1,3.7-3.2,6.1-6.5,7.4c-1,0.4-2,0.6-3,0.8c1.3-12,3.2-24,4.9-36c0.2-1.3,0.4-2.7,0.6-4c0.2-1.5,0.4-3.1,0.7-4.9
	c0-0.2,0.1-0.3,0.1-0.5c0.2-1.6,0.5-3.2,0.7-4.8c0.3-1.8,0.5-3.4,0.6-4.9c0.4-3,0.6-6,0.7-9.1c0.1-3.1,0-6.1-0.2-8.9
	c-0.2-2.8-0.5-5.4-1-7.8c-0.5-2.4-1-4.2-1.7-5.6c-1.2-2.4-2.7-4.3-4.6-5.5c-1.8-1.2-3.5-1.8-5.2-1.8c-1.9,0-3.3,0.7-4.4,2.2
	c-0.5,0.7-0.7,1.5-0.8,2.5c0,0,0,0,0,0c-1,1.5-1.1,3.6-0.3,6.3c0.7,1.9,1.1,3.9,1.4,6c0.3,2.1,0.4,4.6,0.3,7.6
	c-0.1,3-0.3,6.5-0.7,10.6c-0.6,5.8-1.3,11.6-2.1,17.5c-0.5,3.7-0.9,7.3-1.3,11c-0.2,2-0.4,3.9-0.6,5.9c-0.2,1.9-0.4,3.9-0.5,5.8
	c-0.1,2.6-0.6,5-0.8,7.6c-0.3,3.1-0.5,6.2-0.7,9.3c0,0.3,0,0.5-0.1,0.8c-0.1,0.5-0.1,0.9-0.1,1.3c-0.4,0-0.9,0-1,0
	c-0.5,0-1,0.1-1.5,0.1c-2.4,0.2-4.8,0-7.2-0.3c-2.4-0.3-4.8-0.6-7.2-1c-2.4-0.4-5.1-0.7-8.2-1c-2.7-0.4-5.6-0.6-8.6-0.6
	c-3,0-5.3,0.1-6.8,0.4c-0.8,0.1-1.5,0.3-1.9,0.4c-0.5,0.1-0.6,0-0.6-0.4c0-0.1,0-0.1,0.1-0.2c0.5-1.3,1.3-3.2,2.4-5.8
	c1.3-3,2.5-5.6,3.4-7.9c0.9-2.3,1.8-4.5,2.5-6.5c0.7-2,1.4-4,2-5.9c0.3-0.8,0.6-1.7,0.8-2.5c0.6-1.9,1.2-3.9,1.7-6.1
	c0.1-0.4,0.3-0.9,0.4-1.6c0.1-0.7,0.3-1.3,0.6-2c0.1-0.7,0.3-1.3,0.4-2c0.1-0.7,0.3-1.1,0.4-1.4c0.1-0.7,0.5-2.2,1.1-4.6
	c0.6-2.4,1.2-4.6,1.9-6.8c0.3-1.1,0.6-2.3,0.9-3.5c0.3-1.3,0.6-2.3,0.7-2.9c0.5-1.9,1.1-3.9,1.6-5.9c0.5-2,1.1-4.3,1.8-6.7
	c0.3-1.2,0.5-2.3,0.8-3.2c0.3-0.9,0.5-1.6,0.6-1.8c0.1-0.5,0.3-1.1,0.5-1.8c0.1-0.4,0.3-0.8,0.5-1.3c0.8-2.2,1.5-3.8,2-4.8
	c0.7-1.2,1-2,1.1-2.4c0-0.1,0-0.3-0.1-0.5c0.5-1,0.8-1.7,0.9-2c0.1-0.4-0.2-0.9-0.7-1.4c-0.8-1.1-1.8-1.6-3-1.6
	c-1.6,0-3.4,0.9-5.4,2.8c-2,1.9-3.7,4.5-5.2,7.9c-2,4.3-3.9,8.9-5.5,13.7c-0.2,0.6-0.4,1.2-0.6,1.8c-0.1,0.3-0.2,0.5-0.3,0.8
	c-1.6,4.8-3.2,10.2-4.7,16.1c-0.7,2.4-1.2,4.3-1.5,5.6c-0.3,1.3-0.8,3.1-1.5,5.4c-0.9,3.1-1.8,6.3-2.6,9.4c-0.5,1.9-1.1,4.1-1.7,6.7
	c-0.4,1.6-0.9,3.2-1.4,5c-0.1,0.2-0.1,0.4-0.1,0.6c-0.8,3.2-1.5,5.9-2.1,7.9c-0.1,0.2-0.1,0.3-0.2,0.5c-0.4,1.1-0.8,2.3-1.3,3.4
	c-0.9,2-1.8,4.1-2.4,6.3c-0.1,0.3-0.1,0.5-0.2,0.8c-0.2,0.6-0.4,1.2-0.6,1.8c-0.7,2.2-1.3,4.3-1.8,6.5c-0.4,1.6-0.2,2.9,0.7,3.7
	c0.9,0.9,2.2,1.3,4,1.3c1.8,0,3.4-0.3,4.9-1c6.1-2.4,13.2-3.2,21.5-2.2c5.7,0.7,11.4,1.4,17.1,2.1c2.8,0.3,5.5,0.8,8.2,1.3l0.4,3.1
	c0.1,1.4,0.5,3.8,1.1,7.3c0.6,3.5,1.5,7.1,2.5,10.8c0.8,2.8,1.7,5.4,2.8,7.7c0.3,0.8,0.7,1.6,1.1,2.3c1.5,3,3.1,4.7,4.9,5.1
	c2.6,0.6,5.6-2.3,4.5-4.9c-0.1-0.2-0.2-0.4-0.3-0.6c-0.5-0.9-0.5-1.8-0.6-2.8c-0.1-0.9-0.3-1.8-0.4-2.8c0,0,0-0.1,0-0.1
	c-0.2-1.3-0.6-3.8-1.3-7.6c-0.1-1.1-0.3-2.6-0.4-4.5c-0.1-1.9-0.2-3.9-0.3-5.9c0-0.1,0-0.2,0-0.3c-0.1-2.1,0-4.2,0.1-6.3
	c0.2,0,0.3,0,0.5,0c0.1,0,0.2,0,0.3-0.1c0.2,0,0.3,0,0.5-0.1c2.4-0.3,4.7-1,6.8-2.1c2.1-1.1,4-2.5,5.6-4.1c1.6-1.6,2.9-3.4,3.7-5.4
	c0.3-0.8,0.6-1.6,0.8-2.4c0,0,0-0.1,0.1-0.1c0.8-2,1.2-3.9,1.1-5.8C-1252.5-522.4-1252.5-522.8-1252.6-523.1z"/>
<g>
	<path d="M-1615.6-596.8c-1.7,2.2-3,3.3-3.9,3.3c-1.1,0-1.6-1.2-1.5-3.5c0.1-2.3,1-5.2,2.8-8.5c1.9-3.6,4.8-5.4,8.7-5.4
		c2.3,0,4.7,0.8,7.1,2.3c2.4,1.5,4.4,3.7,5.9,6.6c0.7,1.4,1.2,2.8,1.7,4.2c0.4,1.4,0.8,3.1,1,4.8c0.3,1.8,0.5,3.9,0.6,6.3
		c0.1,2.4,0.2,5.3,0.2,8.6c0,2.9,0,5.2-0.1,7c-0.1,1.8-0.1,3.4-0.2,5c-0.1,1.5-0.2,3.2-0.4,5c-0.2,1.8-0.5,4.1-0.9,7
		c-0.1,1.4-0.3,3-0.5,4.8c-0.2,1.9-0.4,3.8-0.7,5.9c-0.3,2.1-0.5,4.1-0.7,6c-0.2,1.9-0.4,3.6-0.5,5c0,0.7-0.1,1.8-0.2,3.3
		c-0.1,1.5-0.3,3-0.6,4.5c-0.7,4.8-1.1,8.3-1.2,10.5c-0.1,2.2-0.3,4.3-0.6,6.4c-0.3,3.2-0.3,7.6-0.2,13.4c0.1,5.8,0.5,12.4,1,20
		c0.1,1.5,0.2,2.5,0.3,2.9c0.1,0.4,0.2,0.7,0.5,0.8c0.7,0.3,1,0.7,0.9,1.3c-0.1,0.6-0.4,1.3-1.1,2c-0.4,0.3-1,0.5-1.7,0.7
		c-0.7,0.2-1.2,0.2-1.4-0.1c-2.3-1.1-4.4-3.9-6.2-8.5c-1.8-4.5-3.2-10-4.1-16.5c-0.4-3.7-0.8-6.9-1.1-9.7c-0.3-2.7-0.6-5.4-0.6-7.8
		c-0.1-2.5-0.1-4.9,0-7.3c0.1-2.4,0.2-5,0.3-7.7c0.1-2.1,0.3-4.4,0.4-7.1c0.1-2.7,0.2-5.5,0.3-8.4c0.1-2.9,0.2-5.7,0.3-8.5
		c0.1-2.7,0.3-5.2,0.4-7.2c0.1-2.2,0.2-4.5,0.3-6.9c0.1-2.4,0.2-4.2,0.3-5.3c0.3-3.3,0.3-6.9,0.2-10.7c-0.1-3.8-0.3-7.4-0.6-10.5
		c-0.3-3.2-0.7-5.7-1.1-7.7c-0.5-2-0.9-2.7-1.3-2.2l-0.4,0.6C-1615-597.6-1615.3-597.2-1615.6-596.8z"/>
</g>
<path d="M-1470.2-178.1c0.6-15.1-28.7-23.6-30.2-5.8c-1,6.7,14.9-11.5,20.9,5.7c1.8,9.6-11.2,11-18.2,8.2
	c-8.9-2.9-19.8-10.1-29.4-10.2c10-13,21-25.8,31.7-38.3c11-12.8,22.1-27.7,23.9-45.1c1.1-10.6-2.2-21.2-10.4-28.3
	c-7.4-6.3-17.6-9-27.2-7.8c-10.6,1.3-20.2,7.1-26.2,15.9c-3.3,4.8-5.4,10.2-6.7,15.8c-1.7,7.4-3.3,17.8,0.8,24.5
	c3.1,5.2,11.8,14.1,18.7,11.5c3.1-1.2,7.2-7.2,2.8-9.4c-2.9-1.4-6.5,0.1-9.6-1.4c-2.8-1.4-4.7-4-5.5-7c-2.6-9.8,5.3-20.4,12.2-26.5
	c7.1-6.3,17-10.6,26.4-7.2c17.2,6.1,7,28.5,0.2,38.5c-1.6,2.4-3.5,4.7-5.2,7c-13,18.3-27.3,33.9-36.9,53.9
	c-2.5,6.5-9.9,12.8-7.7,19.8c5.1,7,8.8-5.4,14.7-4.8c8.6-0.2,22.9,12,32.4,13.8C-1483.9-150.9-1468.1-162.3-1470.2-178.1z"/>
<path d="M-1355.8-207.2c-0.3-24.1-21.3-45.5-45.7-44c10.5-13.7,26.7-24.3,38.5-36.3c3.8-5.9,0.4-10.4-7-9.4
	c-6-0.4-12.6-1.1-18.9-1.3c-16.1-1-32.1-3.2-41.8,8.4c-5.8,6.9-9,19.7,0.4,25c2,1.1,4.3,0.8,4.8-1.4c0.6-0.5,0.9-1.2,0.8-2.1
	c1.4-4-5.8-5.4-4.4-11.1c7.4-17.3,31.9-7.1,46.4-7.7c-7.4,3.1-56.9,46.1-39.8,50.7c39.5-14.7,68.9,13.1,42.4,49.5
	c-13.1,20.7-47.9,25.7-50.8-4.2c-2.2-18.4,34-31.5,29.9-8.3c-1.9,5-8.4,7.2-13.3,6.8c-2.1-0.4-1.3,1.7-0.6,2.7
	c5.6,7.5,16.2,2.4,20.6-4c15.7-34.4-36.4-37.4-43.6-1.6C-1444.2-129.4-1351.7-154.1-1355.8-207.2z"/>
<path d="M-2273.7-532c-0.2-5.5-1.3-10.9-3.4-15.9c-2.1-5-5-9.7-8.7-13.7c-4.1-4.5-9.2-8.3-14.8-10.8c-5.5-2.5-11.6-3.7-17.6-3.9
	c-3-0.1-6.1,0.1-9,0.5c-1.5,0.2-2.9,0.5-4.3,0.9c-0.7,0.2-3.9,1.1-3.9,1.9c0.1-1.4,0.5-2.9,0.7-4.3c0.3-1.3,0.5-2.6,0.7-3.6
	c0.2-1.1,0.5-2.3,0.8-3.6c0.3-1.3,0.8-3,1.3-4.9c0.5-1.9,1.2-4.4,2-7.4c0.9-3.9,1.7-7.3,2.2-10.1c0.5-2.8,0.8-5,0.8-6.7
	c0-0.5,0-0.9,0-1.2c0.4-0.1,1-0.1,1.8-0.2c2.3-0.4,5.6-1.3,9.9-2.6c8.7-2.8,15.7-4.2,21-4.2c6.6,0,10.6,2.2,11.9,6.5
	c0.3,2.3,2.4,1.2,3.2-0.1c0.5-0.7,0.9-1.5,1.2-2.3c1.1-3.1,0.7-7.6-1.2-10.4c-1.1-1.6-2.4-3-4-4.2c-1.6-1.2-3.4-2.2-5.2-2.9
	c-1.9-0.7-3.7-1.1-5.5-1.1c-2.4,0-5.4,0.4-9.1,1.2s-8.4,2.2-14.3,4c-2.6,0.8-5,1.2-7.3,1.2c-2.8,0-4.8-0.6-6.1-1.8
	c-1.8-1.5-3.2-2.2-4.4-2.2c-0.7,0-1.3,0.2-2,0.6c-0.6,0.4-1.2,1.3-2,2.7c-0.5,0.8-1.1,1.9-1.7,3.4c-1.1,2.6-2.3,6-3.3,10
	c-1.1,4-2.2,8.6-3.2,13.7c-1.1,5.1-2,10.4-2.8,15.9c-0.5,3.6-0.8,7.4-0.9,11.4c0,1.2,0,2.3,0,3.5c0,0.5,0,1,0,1.5
	c0,3.2,0.1,6.2,0.3,9c0.3,3.5,0.7,6.5,1.3,9c0.6,2.5,1.3,4.1,2.1,4.9c1.2,0.9,2.2,1.4,3,1.4c1.5,0,2.7-0.8,3.7-2.4
	c0.2-0.3,0.3-0.6,0.5-0.9c0.1-0.1,0.2-0.3,0.3-0.5c2-3.3,1.6-7.3,2.9-10.8c0.1-0.2,0.1-0.3,0.3-0.4c0.1-0.1,0.3-0.1,0.5-0.2
	c11-2.6,24.4-5.2,34.8,0.8c1.2,0.7,2.3,1.5,3.3,2.3c8.5,6.8,11,18.3,9.1,28.7c-1.2,6.3-4.1,12-7.8,17.2c-3.2,4.5-6.8,8.8-11.4,12
	c-6.6,4.6-15.1,7.5-23.2,6.3c-9.1-1.3-16.2-9-17.4-18.1c-1.1-8.5,3.1-16,10.4-20.2c1.3-0.7,2.6-1.4,4-1.9c4.4-1.7,10.5-2.5,13.7,1.7
	c2.3,3,2.4,8.1,0.5,11.2c-2.4,3.9-8,5.4-12.3,5.1c-2.1-0.4-1.3,1.7-0.6,2.7c3.3,4.5,8.9,4.5,13.5,2.1c5.2-2.7,8.4-7.4,9.5-13.1
	c1-5.2,0.4-11.4-3.5-15.3c-2.2-2.2-5.1-3.6-8.1-4.3c-7.1-1.6-14.9,0.3-20.9,4.3c-7.1,4.7-11.8,12.3-13.4,20.6
	c-2.7,11.7,1.4,24.5,10.4,32.5c7.7,6.2,17.6,8.9,27.4,7.5c9.8-1.3,18.9-6.1,26.3-12.6c7.5-6.6,13.5-15.1,16.4-24.7
	C-2274.1-522.1-2273.5-527.1-2273.7-532z"/>
<path d="M-253.3-425.7c-12.5-21.3-45.8-11.4-47.9,12.1c-3.6,10.2,8.8,31.6,19.3,21c0.6-0.5,0.9-1.3,0.8-2.1
	c2.3-5.7-8.4-6.6-8.4-13.3c2-35.4,46.1-13.7,26.9,18.1c-17.9,26.6-42.5,18.7-45.9-13.3c-2.8-23.2,2.5-49.7,13.1-69.9
	c5.7-10.3,17.5-24.3,28.4-13.3c11.5,12-0.7,29.3,6.2,26.9c8.1-5.5,6.5-28.6,0-35.1c-29.9-27.1-63.7,29.4-66.1,56.2
	c-7.2,30.9,2.6,88,44.5,79.9C-256.4-364.9-241.2-402.5-253.3-425.7z"/>
<path class="st0" d="M-1485.5,366c-12.5-21.3-45.8-11.4-47.9,12.1c-3.6,10.2,8.8,31.6,19.3,21c0.6-0.5,0.9-1.3,0.8-2.1
	c2.3-5.7-8.4-6.6-8.4-13.3c2-35.4,46.1-13.7,26.9,18.1c-17.9,26.6-42.5,18.7-45.9-13.3c-2.8-23.2,2.5-49.7,13.1-69.9
	c5.7-10.3,17.5-24.3,28.4-13.3c11.5,12-0.7,29.3,6.2,26.9c8.1-5.4,6.5-28.6,0-35.1c-29.9-27.1-63.7,29.4-66.1,56.2
	c-7.2,30.9,2.6,88,44.5,79.9C-1488.5,426.9-1473.3,389.2-1485.5,366z"/>
<path d="M-905.9-296.6c-5.2-4.7-9.1,2.5-14.2,4c-6.8,0.5-14.1-2-21.2-2.8c-12.6-3.1-29.4-7-39.8,1.7c-9.5,7.9-12.4,24.8-3.6,34.4
	c5.8,9,27.1,9.7,24.2-4.1c-3.1-3.3-7.9,1.4-11.6,1.1c-13.9-0.7-12.7-21.8,2.2-20.4c14,0.5,28.1,8,42.1,4.8
	c-18,28.4-58.4,94.9-25.7,122.9c2.7,2.3,6.6-1.6,7.8-3.8c2.3-4.2-1.9-6.3-4-9.3c-2.6-3.6-2.1-9.2-2-13.4c0.2-5.3,1-10.7,2.5-15.8
	c2.3-7.7,5.7-14.9,9.3-22c2.5-4.9,5.2-9.8,7.8-14.7C-925.4-248.5-896.1-282.8-905.9-296.6z"/>
<path d="M-798.6-217.6c-4.6-13-19.1-27.9-28.2-39.3c-23.6-24.3,14.1-39.1,20.5-19c5.2,16.2-8.6,14.2-10.3,18.9
	c-3.6,6.7,7.1,9.2,12,6.9c10.6-4.3,11.9-22.9,8.1-33.7c-13.2-36.4-78-1.3-45,41.9c-36.5,14.2-43.4,76.6-0.4,87
	C-805.5-147.3-784.2-186.8-798.6-217.6z M-823.3-173.5c-13.2,11.5-32.9,2.2-37.2-13.4c-5.1-18.8,6.9-40.8,24.9-47.6
	C-820.6-218.7-801.5-191.6-823.3-173.5z"/>
<path d="M-682.3-248.2c-1.7-20-9.3-42-29.1-48.7c-10.9-3.7-22.6-2.5-32.4,3.6c-10.8,6.7-16.6,18.1-19.8,30.1
	c-1.9,7.1-2.7,14.3-1.2,21.5c1.8,8.6,7.3,16.5,15.1,20.5c8.4,4.3,18.7,2.7,26.3-2.5c6.9-4.7,12-12.3,12.7-20.6
	c0.7-8.3-3.3-17.1-10.5-21.2c-2.3-1.3-5-2.1-7.5-1.5c-2.5,0.7-4.6,3.3-4.1,5.8c0.6,2.8,3.6,3.9,5.7,5.4c2.4,1.8,3.7,4.4,3.9,7.5
	c0.3,6-2.4,13-7.8,16.3c-5.9,3.6-14.2,1.8-19-3.2c-9.2-9.5-6.4-25.5,0.7-35.3c8.1-11.2,25.3-19.1,36.9-8.3
	c10.2,9.5,11.2,26.9,11,39.9c-0.3,17.1-3.9,34.9-11.5,50.3c-5.3,10.7-15.3,24.5-29.1,22.5c-3.2-0.5-6.2-2-8.3-4.4
	c-5.2-6.3,0.2-13.1-0.2-19.8c-0.1-1.5-0.9-3.2-2.4-3.7c-1.6-0.5-3.3,0.3-4.5,1.4c-1.8,1.8-2.8,4.3-3.5,6.8c-1.4,4.9-1.8,10.2-0.2,15
	c1.8,5.5,6.2,9.9,11.5,12.4c19,9,40.5-5.1,50.9-20.7c10.7-16,15.5-36,16.4-55C-681.9-238.8-681.9-243.6-682.3-248.2z"/>
<path d="M-1099.2-205.4c1.7,20,9.3,42,29.1,48.7c10.9,3.7,22.6,2.5,32.4-3.6c10.8-6.7,16.6-18.1,19.8-30.1
	c1.9-7.1,2.7-14.3,1.2-21.5c-1.8-8.6-7.3-16.5-15.1-20.5c-8.4-4.3-18.7-2.7-26.3,2.5c-6.9,4.7-12,12.3-12.7,20.6
	c-0.7,8.3,3.3,17.1,10.5,21.2c2.3,1.3,5,2.1,7.5,1.5c2.5-0.7,4.6-3.3,4.1-5.8c-0.6-2.8-3.6-3.9-5.7-5.4c-2.4-1.8-3.7-4.4-3.9-7.5
	c-0.3-6,2.4-13,7.8-16.3c5.9-3.6,14.2-1.8,19,3.2c9.2,9.5,6.4,25.5-0.7,35.3c-8.1,11.2-25.3,19.1-36.9,8.3
	c-10.2-9.5-11.2-26.9-11-39.9c0.3-17.1,3.9-34.9,11.5-50.3c5.3-10.7,15.3-24.5,29.1-22.5c3.2,0.5,6.2,2,8.3,4.4
	c5.2,6.3-0.2,13.1,0.2,19.8c0.1,1.5,0.9,3.2,2.4,3.7c1.6,0.5,3.3-0.3,4.5-1.4c1.8-1.8,2.8-4.3,3.5-6.8c1.4-4.9,1.8-10.2,0.2-15
	c-1.8-5.5-6.2-9.9-11.5-12.4c-19-9-40.5,5.1-50.9,20.7c-10.7,16-15.5,36-16.4,55C-1099.5-214.7-1099.6-210-1099.2-205.4z"/>
<path d="M-2060.6-619.1c-0.5-11.8-2.5-23.4-6.8-34c-3.4-8.3-8.8-15.7-16.7-20.2c-19.5-9.9-35.3,15.2-33.9,32.5
	c-0.3,13.8,21.2,21.4,21.4,7.1c-0.4-2.2-2-2-3.5-3.1c-5.9-3.6-7-11.8-3.5-17.4c5.8-6.2,14.9-12.1,21.6-3.8
	c7.2,8.9,8.5,21.3,8.9,32.3c0.6,13.4-1.3,26.8-3.1,40.1c-0.9,6.4-1.7,12.7-3.5,18.9c-1.7,5.9-4.3,12.9-8.9,17.1
	c-4.7,4.2-10.8,4.5-16.6,2.5c-6.4-2.3-11.7-7-15.5-12.6c-3.8-5.6-6.2-12-8.1-18.5c-6-21.2-5.9-44.2,1.2-65.1
	c2.4-7.1,5.7-14.2,4.9-21.7c-0.2-1.9-0.9-4.1-2.8-4.6c-1-0.3-2.1,0-3,0.5c-3.4,1.7-5.5,5.2-7.3,8.6c-8.3,16.1-13.1,34.1-13.1,52.3
	c0,18.1,4.7,36.3,14.2,51.8c4.8,7.8,10.9,14.9,18.7,19.5c5.5,3.2,12,5,18.4,4.6c5.8-0.4,10.4-2.9,14.6-6.8
	c7.9-7.4,12.5-18.1,15.7-28.3c0.8-2.5,1.5-5,2-7.6C-2061.9-588.9-2060-604.1-2060.6-619.1z"/>
<path d="M-1239-215.8c-8.1-0.8-4.6,11.2-15,11.7c1.9-26.8,11.2-54,7-80.8c-0.2-9.5-14.6-19.5-17.4-6.8c-2.5,5.9,2.8,12.9,1.4,19.9
	c-1.3,22.5-5.5,45.8-6.8,68.5c-11.3,0.8-21.6-2.9-33.1-2.8c-2.8-0.6-9.9,1.7-9.3,0.2c13.9-27.5,17.3-59.6,28.4-87.9
	c0.8-1.8,1.5-2.1,0.2-3.5c-5.8-5.6-12.1,5.4-14.4,10.5c-12,26.3-15.6,56.8-26.2,83.9c-10.3,25.2,14.2,5.6,28.6,10.1
	c8.4,1.1,17,1.8,25.4,3.4c1.9,10.5,2.9,29.9,12.7,36.3c3.1,0.7,6.2-3.4,5.3-6.3c-2.4-8.6-3.7-19.7-3.3-29.4
	c8.5-0.8,16.1-7.2,18.3-15.4C-1235.5-207.8-1235-214.7-1239-215.8z"/>
<path d="M-1577.4-281c-0.1-0.7-0.2-1.5-0.3-2.2c-0.9-4.6-2.8-8.3-6.2-11.5c-2.5-2.4-6-4.2-9.5-4.1c-8.3,0.2-11.1,3.4-12.8,10.1
	c-0.5,1.9-0.7,7.8,2.4,8.4c1.3,0.3,4.1-3.4,5.4-5.2c2.8,9.4,3.4,19.2,3.3,28.9c-0.1,10.4-1.1,20.7-1.9,31
	c-0.8,10.2-1.5,20.4-0.8,30.6c0.7,9.1,1.2,18.6,3.7,27.4c0.8,2.8,1.8,5.5,3.2,8c1.1,2,2.9,5,5.1,6c1.3,0.8,2.9-0.2,3.8-1.1
	c1.6-1.7,0.3-3.8,0-5.7c-0.9-4.6-1.3-9.3-1.5-13.9c-0.3-5.4-0.3-10.8,0-16.2c0.5-10.8,1.8-21.5,3.2-32.2c1.4-10.7,2.8-21.4,3.4-32.2
	c0.3-4.7,0.4-9.4,0.3-14C-1577-272.9-1576.9-277-1577.4-281z"/>
<path d="M-2389.9-535.9c-3.1-4.5-7-8.3-11.5-11.5c-5-3.5-10.8-6.1-16.8-7.3c-5.9-1.2-12.1-1.1-18.1,0c-3,0.6-5.9,1.4-8.7,2.5
	c-1.4,0.5-2.7,1.1-4,1.8c-0.4,0.2-2,1.1-2.9,1.9l0.8,12.1c0-0.1,0.1-0.3,0.1-0.4c0.1-0.1,0.3-0.2,0.4-0.3
	c10.2-4.9,22.6-10.5,34.1-6.8c1.3,0.4,2.5,0.9,3.7,1.6c9.8,4.8,14.8,15.4,15.2,26c0.2,6.4-1.3,12.6-3.8,18.5
	c-2.2,5.1-4.7,10.1-8.5,14.2c-5.4,6-13.1,10.6-21.2,11.2c-9.2,0.7-17.8-5.2-21-13.8c-3-8.1-0.5-16.3,5.7-22c1.1-1,2.3-1.9,3.5-2.7
	c3.9-2.6,9.6-4.8,13.7-1.4c2.9,2.4,4.2,7.4,2.9,10.8c-1.5,4.3-6.6,7-10.9,7.7c-2.1,0.1-0.9,1.9,0,2.8c4.2,3.6,9.7,2.4,13.6-0.9
	c4.5-3.8,6.6-9.1,6.4-14.9c-0.2-5.3-2.2-11.2-6.8-14.1c-2.6-1.7-5.8-2.4-8.9-2.4c-7.3,0-14.5,3.6-19.5,8.8
	c-5.9,6.2-8.8,14.6-8.6,23.1c0,12,6.7,23.6,17.3,29.4c8.9,4.4,19.1,4.8,28.4,1.3c9.2-3.5,17.1-10.1,22.9-18.1
	c5.9-8.1,9.8-17.7,10.5-27.7c0.3-4.8-0.2-9.8-1.4-14.6C-2384.5-526.4-2386.8-531.5-2389.9-535.9z"/>
<path d="M-2391.8-601.1c-1.1-1.6-2.4-3-4-4.2c-1.6-1.2-3.4-2.2-5.2-2.9c-1.9-0.7-3.7-1.1-5.5-1.1c-2.4,0-5.4,0.4-9.1,1.2
	s-8.4,2.2-14.3,4c-2.6,0.8-5,1.2-7.3,1.2c-2.8,0-4.8-0.6-6.1-1.8c-1.8-1.5-3.2-2.2-4.4-2.2c-0.7,0-1.3,0.2-2,0.6
	c-0.6,0.4-1.2,1.3-2,2.7c-0.5,0.8-1.1,1.9-1.7,3.4c-1.1,2.6-2.3,6-3.3,10c-1.3,4.9-1.1,9.8-1.4,14.8c-0.3,3.9-0.4,7.9-0.3,12.1
	c0,2.7,0.3,5.5,0.9,8.4c0.2,0.9,0.3,1.7,0.5,2.5c0.1,0.4,0.1,0.7,0.2,1.1c0.5,2.3,1,4.4,1.7,6.5c0.8,2.5,1.7,4.5,2.7,6.2
	c1,1.7,1.9,2.7,2.8,3.1c1.4,0.6,3.7,0.6,5-0.4c0.5-0.4,0.9-0.9,1.2-1.4c1.1-1.8,1.4-3.5,1.6-5.3c0.2-1.8,0.3-3.6,0.3-5.4
	c0-2.3-0.2-4.5-0.3-6.8c0-0.2,0-0.5,0-0.7c0-2,0.1-4,0.2-6c0-0.8,0.1-1.7,0.2-2.8c0.1-1,0.3-2.3,0.5-3.8c0.2-1.5,0.5-3.4,0.8-5.7
	c0.3-3,0.5-5.6,0.6-7.7c0.1-2,0.1-3.7-0.1-4.9c0-0.4,0-0.7,0-1c0.4-0.1,1-0.1,1.8-0.2c2.3-0.4,5.6-1.3,9.9-2.6
	c8.7-2.8,15.7-4.2,21-4.2c6.6,0,10.6,2.2,11.9,6.5c0.3,2.3,2.4,1.2,3.2-0.1c0.5-0.7,0.9-1.5,1.2-2.3
	C-2389.5-593.9-2390-598.3-2391.8-601.1z"/>
<path d="M-1127.9-211.9c-5.7-24-32.8-38.8-56-30.5c-0.9-10.6,3-22.3,2.1-32.9c12.6-1.2,35.7-14.6,42.5-0.6c0.9,3.4,3.8-0.7,4.2-2.3
	c3.3-9.3-6.5-17.6-15.2-17.8c-7.4,0.3-13.5,2.3-22.3,5c-11.8,4.6-13-4.4-18.9-2.1c-11.1,15.3-11.7,50.4-1.3,66.4l0,0.4
	c0-0.1,0-0.2,0.1-0.3c3.2,3.3,8.1,0,8.4-4c53-22.9,55.5,58.3,10.7,65.2c-17.9,1.7-28.8-22.5-14.6-34.1c4.2-3.7,11.2-8,16.5-4
	c7.4,6.5,1.1,17.1-7.6,17.6c-2,0.1-0.8,1.9,0,2.6c9.4,7.1,20.2-5.5,19.1-15.1c-3.7-31.9-44.7-10.5-41.7,14.7
	c-0.6,22,23.4,37.8,43.6,29.3C-1136.5-162.9-1121.7-188.8-1127.9-211.9z"/>
<path d="M-2730.3-525.7c-2.1-5-5-9.7-8.7-13.7c-4.1-4.5-9.2-8.3-14.8-10.8c-5.5-2.5-11.6-3.7-17.6-3.9c-3-0.1-6.1,0.1-9,0.5
	c-1.5,0.2-2.9,0.5-4.3,0.9c-0.5,0.1-2.2,0.6-3.2,1.2l-1.9,12c0.1-0.1,0.1-0.3,0.2-0.4c0.1-0.1,0.3-0.1,0.5-0.2
	c11-2.6,24.4-5.2,34.8,0.8c1.2,0.7,2.3,1.5,3.3,2.3c8.5,6.8,11,18.3,9.1,28.7c-1.2,6.3-4.1,12-7.8,17.2c-3.2,4.5-6.8,8.8-11.4,12
	c-6.6,4.6-15.1,7.5-23.2,6.3c-9.1-1.3-16.2-9-17.4-18.1c-1.1-8.5,3.1-16,10.4-20.2c1.3-0.7,2.6-1.4,4-1.9c4.4-1.7,10.5-2.5,13.7,1.7
	c2.3,3,2.4,8.1,0.5,11.2c-2.4,3.9-8,5.4-12.3,5.1c-2.1-0.4-1.3,1.7-0.6,2.7c3.3,4.5,8.9,4.5,13.5,2.1c5.2-2.7,8.4-7.4,9.5-13.1
	c1-5.2,0.4-11.4-3.5-15.3c-2.2-2.2-5.1-3.6-8.1-4.3c-7.1-1.6-14.9,0.3-20.9,4.3c-7.1,4.7-11.8,12.3-13.4,20.6
	c-2.7,11.7,1.4,24.5,10.4,32.5c7.7,6.2,17.6,8.9,27.4,7.5c9.8-1.3,18.9-6.1,26.3-12.6c7.5-6.6,13.5-15.1,16.4-24.7
	c1.4-4.6,2-9.6,1.8-14.6C-2727.1-515.3-2728.2-520.8-2730.3-525.7z"/>
<path d="M-2795.1-576.4c-1.1,4-2,8.3-2.8,12.6c-0.5,2.9-0.8,5.9-0.9,9c0,0.9,0,1.8,0,2.7c0,0.4,0,0.8,0,1.2c0,2.5,0.1,4.9,0.3,7.2
	c0.3,2.8,0.7,5.1,1.3,7.1c0.6,2,1.3,3.3,2.1,3.9c1.3,1,3.5,1.5,5,0.7c0.6-0.3,1.1-0.8,1.5-1.2c1.5-1.6,2.1-3.4,2.6-5.3
	c0.5-1.9,1-3.7,1.4-5.6c0.5-2.4,0.7-4.8,1.1-7.2c0-0.3,0.1-0.5,0.1-0.8c0.4-2.1,0.9-4.2,1.4-6.3c0.2-0.9,0.5-1.8,0.8-2.9
	c0.3-1.1,0.8-2.4,1.3-3.9c0.5-1.5,1.2-3.5,2-5.8c0.9-3.1,1.7-5.8,2.2-8c0.5-2.2,0.8-4,0.8-5.3c0-0.1,0-0.1,0-0.2h-18.1
	C-2793.5-582-2794.3-579.3-2795.1-576.4z"/>
<path d="M-2772.9-585.6c2.3-0.4,5.6-1.3,9.9-2.6c8.7-2.8,15.7-4.2,21-4.2c6.6,0,10.6,2.2,11.9,6.5c0.3,2.3,2.4,1.2,3.2-0.1
	c0.5-0.7,0.9-1.5,1.2-2.3c1.1-3.1,0.7-7.6-1.2-10.4c-1.1-1.6-2.4-3-4-4.2c-1.6-1.2-3.4-2.2-5.2-2.9c-1.9-0.7-3.7-1.1-5.5-1.1
	c-2.4,0-5.4,0.4-9.1,1.2s-8.4,2.2-14.3,4c-2.6,0.8-5,1.2-7.3,1.2c-2.8,0-4.8-0.6-6.1-1.8c-1.8-1.5-3.2-2.2-4.4-2.2
	c-0.7,0-1.3,0.2-2,0.6c-0.6,0.4-1.2,1.3-2,2.7c-0.5,0.8-1.1,1.9-1.7,3.4c-1.1,2.6-2.3,6-3.3,10c-0.3,1.1-0.6,2.4-0.9,3.6h18.1
	c0-0.4,0-0.7,0-1C-2774.3-585.5-2773.7-585.6-2772.9-585.6z"/>
<path class="st1" d="M-2772.9-585.6c2.3-0.4,5.6-1.3,9.9-2.6c8.7-2.8,15.7-4.2,21-4.2c6.6,0,10.6,2.2,11.9,6.5
	c0.3,2.3,2.4,1.2,3.2-0.1c0.5-0.7,0.9-1.5,1.2-2.3c1.1-3.1,0.7-7.6-1.2-10.4c-1.1-1.6-2.4-3-4-4.2c-1.6-1.2-3.4-2.2-5.2-2.9
	c-1.9-0.7-3.7-1.1-5.5-1.1c-2.4,0-5.4,0.4-9.1,1.2s-8.4,2.2-14.3,4c-2.6,0.8-5,1.2-7.3,1.2c-2.8,0-4.8-0.6-6.1-1.8
	c-1.8-1.5-3.2-2.2-4.4-2.2c-0.7,0-1.3,0.2-2,0.6c-0.6,0.4-1.2,1.3-2,2.7c-0.5,0.8-1.1,1.9-1.7,3.4c-1.1,2.6-2.3,6-3.3,10
	c-0.3,1.1-0.6,2.4-0.9,3.6h18.1c0-0.4,0-0.7,0-1C-2774.3-585.5-2773.7-585.6-2772.9-585.6z"/>
<path d="M-668.2-152.9L-668.2-152.9c-6.9,0-12.5-5.6-12.5-12.5v0c0-6.9,5.6-12.5,12.5-12.5h0c6.9,0,12.5,5.6,12.5,12.5v0
	C-655.7-158.5-661.3-152.9-668.2-152.9z"/>
<path d="M-226.7,2242.1c-1.2-13.5-3.6-28.8-11.3-40.3c-8.2-12.3-23.9-20.3-35.4-6.8c-8.8,10.3-14,31.4-0.8,40.4
	c1.9,1.3,4.1,2.1,6.3,2.1c3.7-0.1,5.9-2.7,6.7-6.2c0.2-0.9,0.8-3.2-0.5-3.6c-0.7-0.2-1.4,0.2-2,0.6c-0.5,0.5-1,1.1-1.6,1.4
	c-1.8,1.1-4.2-0.1-5.6-1.7c-1.9-2.2-2.8-5.2-2.9-8.1c-0.3-7.9,5-22.2,14.5-22.7c9.4-0.4,14.8,11.7,17,19.1
	c1.8,6.2,2.9,12.8,3.6,19.2c1.4,12.4,1.5,25.1,0.1,37.5c-1.3,11.8-3.7,25.2-10.4,35.3c-3.9,5.9-9.8,9.7-16.9,9.8
	c-6,0-11.6-2.9-15.8-7.1c-8.9-9-11.6-23.9-12.7-36.1c-1.3-14-0.1-28.1,1.5-42c1.2-10.8,4.6-21.7,4.8-32.7c-0.1-3.1-1.5-6.5-5-6.5
	c-5.4,0.9-8.5,5.9-10.5,10.6c-2.6,6-4.3,12.6-5.8,18.9c-6.2,25.8-7.4,56.4,3.9,81c6.8,14.9,22.8,28.4,39.3,27.8
	c4.4-0.2,8.8-1.3,13.1-3.7c12.6-7.1,19.1-21.8,22.7-35.3C-226,2276.5-225.2,2259-226.7,2242.1z"/>
<path d="M28.8,2307.4c0.6-14.9-33-23.3-34.8-5.7c-1.2,6.7,17.1-11.4,24,5.6c2,9.5-12.8,10.9-20.9,8.1c-10.2-2.8-22.8-10-33.8-10.1
	c11.6-12.8,24.1-25.5,36.5-37.9c12.7-12.7,25.4-27.4,27.5-44.6c1.3-10.5-2.5-21-12-27.9c-8.5-6.3-20.2-8.9-31.3-7.7
	c-12.2,1.2-23.2,7-30.1,15.7c-3.7,4.7-6.2,10.1-7.7,15.6c-2,7.3-3.8,17.6,0.9,24.2c3.6,5.1,13.6,13.9,21.5,11.4
	c3.5-1.2,8.3-7.1,3.2-9.2c-3.4-1.4-7.5,0.1-11.1-1.4c-3.2-1.4-5.4-3.9-6.4-6.9c-3-9.7,6.1-20.2,14-26.2c8.2-6.2,19.5-10.4,30.4-7.1
	c19.7,6.1,8,28.1,0.2,38c-1.9,2.4-4,4.6-6,6.9c-15,18-31.4,33.5-42.5,53.2c-2.8,6.4-11.4,12.6-8.8,19.6c5.9,6.9,10.1-5.3,17-4.8
	c9.9-0.2,26.3,11.9,37.3,13.7C13,2334.3,31.2,2323.1,28.8,2307.4z"/>
<path d="M156.9,2280.2c-0.3-24.2-22.7-45.7-48.7-44.2c11.1-13.8,28.4-24.4,41-36.4c4.1-5.9,0.5-10.4-7.4-9.4
	c-6.4-0.4-13.5-1.1-20.1-1.3c-17.1-1-34.2-3.2-44.5,8.4c-6.1,6.9-9.5,19.8,0.4,25.1c2.1,1.1,4.6,0.8,5.2-1.4c0.6-0.5,1-1.2,0.9-2.1
	c1.5-4-6.2-5.4-4.7-11.1c7.9-17.4,33.9-7.1,49.5-7.8c-7.8,3.1-60.6,46.3-42.4,50.9c42.1-14.8,73.4,13.1,45.1,49.8
	c-13.9,20.8-51,25.8-54.1-4.2c-2.4-18.4,36.3-31.6,31.8-8.3c-2,5-8.9,7.2-14.1,6.9c-2.2-0.4-1.4,1.7-0.7,2.7c6,7.6,17.2,2.4,21.9-4
	c16.8-34.6-38.7-37.6-46.4-1.6C62.8,2358.3,161.2,2333.5,156.9,2280.2z"/>
<path d="M707,2190.4c-5.4-4.7-9.3,2.5-14.5,4c-7,0.5-14.4-2-21.7-2.8c-12.9-3-30-6.9-40.7,1.7c-9.7,7.8-12.6,24.6-3.7,34.2
	c5.9,9,27.8,9.6,24.8-4.1c-3.2-3.3-8.1,1.4-11.8,1.1c-14.2-0.7-13-21.7,2.3-20.3c14.3,0.5,28.8,8,43.1,4.8
	c-18.4,28.3-59.8,94.5-26.3,122.3c2.8,2.3,6.7-1.6,8-3.8c2.3-4.2-2-6.3-4.1-9.2c-2.7-3.6-2.2-9.1-2-13.3c0.2-5.3,1-10.6,2.6-15.7
	c2.3-7.6,5.8-14.8,9.5-21.9c2.6-4.9,5.3-9.8,7.9-14.7C687,2238.2,717,2204,707,2190.4z"/>
<path d="M833,2260.5c-7.8-11.4-27.1-22.3-39.6-31c-31.4-17.7,7.6-40.7,19-22.9c9.2,14.3-6.7,15.5-7.6,20.4
	c-2.7,7.2,9.8,7.1,14.8,3.8c10.9-6.6,8.5-24.7,2-34.1c-22.2-31.7-87.4,16.8-41.6,50.4c-37.8,22-32.6,83.3,17.6,83.2
	C839.9,2329.3,855.5,2286.5,833,2260.5z M814.5,2308.3c-12.4,14-36.3,9.7-44.4-4.2c-9.6-16.8-0.7-40.6,17.9-51.3
	C808.3,2264.5,835.2,2286,814.5,2308.3z"/>
<path d="M973.7,2239c-1.8-20.1-9.8-42.2-30.6-49c-11.4-3.7-23.8-2.5-34.1,3.6c-11.4,6.8-17.5,18.2-20.9,30.2
	c-2,7.1-2.9,14.4-1.3,21.6c1.9,8.6,7.7,16.6,15.9,20.6c8.8,4.3,19.7,2.7,27.7-2.5c7.3-4.7,12.6-12.3,13.4-20.6
	c0.8-8.3-3.4-17.1-11.1-21.3c-2.4-1.3-5.2-2.2-7.9-1.5c-2.7,0.7-4.9,3.3-4.3,5.8c0.7,2.8,3.8,3.9,6,5.4c2.6,1.8,3.9,4.4,4.1,7.5
	c0.3,6.1-2.6,13.1-8.2,16.3c-6.3,3.6-15,1.8-20.1-3.3c-9.7-9.5-6.8-25.6,0.7-35.5c8.5-11.2,26.7-19.2,38.9-8.3
	c10.7,9.5,11.8,27,11.6,40c-0.3,17.2-4.1,35.1-12.2,50.5c-5.6,10.7-16.2,24.6-30.6,22.5c-3.3-0.5-6.6-2-8.7-4.4
	c-5.5-6.3,0.2-13.1-0.2-19.9c-0.1-1.6-1-3.2-2.5-3.7c-1.6-0.5-3.5,0.3-4.7,1.4c-1.9,1.8-3,4.3-3.7,6.8c-1.5,4.9-1.9,10.2-0.2,15.1
	c1.9,5.5,6.6,9.9,12.1,12.4c20,9,42.6-5.1,53.7-20.8c11.3-16.1,16.3-36.1,17.3-55.3C974,2248.5,974.1,2243.7,973.7,2239z"/>
<path d="M479.3,2281c1.8,20.1,9.8,42.2,30.6,49c11.4,3.7,23.8,2.5,34.1-3.6c11.4-6.8,17.5-18.2,20.9-30.2c2-7.1,2.9-14.4,1.3-21.6
	c-1.9-8.6-7.7-16.6-15.9-20.6c-8.8-4.3-19.7-2.7-27.7,2.5c-7.3,4.7-12.6,12.3-13.4,20.6c-0.8,8.3,3.4,17.1,11.1,21.3
	c2.4,1.3,5.2,2.2,7.9,1.5c2.7-0.7,4.9-3.3,4.3-5.8c-0.7-2.8-3.8-3.9-6-5.4c-2.6-1.8-3.9-4.4-4.1-7.5c-0.3-6.1,2.6-13.1,8.2-16.3
	c6.3-3.6,15-1.8,20.1,3.3c9.7,9.5,6.8,25.6-0.7,35.5c-8.5,11.2-26.7,19.2-38.9,8.3c-10.7-9.5-11.8-27-11.6-40
	c0.3-17.2,4.1-35.1,12.2-50.5c5.6-10.7,16.2-24.6,30.6-22.5c3.3,0.5,6.6,2,8.7,4.4c5.5,6.3-0.2,13.1,0.2,19.9c0.1,1.6,1,3.2,2.5,3.7
	c1.6,0.5,3.5-0.3,4.7-1.4c1.9-1.8,3-4.3,3.7-6.8c1.5-4.9,1.9-10.2,0.2-15.1c-1.9-5.5-6.6-9.9-12.1-12.4c-20-9-42.6,5.1-53.7,20.8
	c-11.3,16.1-16.3,36.1-17.3,55.3C479,2271.5,478.9,2276.3,479.3,2281z"/>
<path d="M282,2270.2c-7.9-0.8-4.5,11-14.6,11.5c1.9-26.5,10.9-53.3,6.8-79.9c-0.2-9.4-14.2-19.2-16.9-6.7
	c-2.4,5.9,2.7,12.7,1.4,19.7c-1.3,22.2-5.3,45.3-6.6,67.6c-10.9,0.8-21-2.9-32.2-2.8c-2.7-0.6-9.6,1.6-9,0.2
	c13.5-27.2,16.8-58.9,27.6-86.9c0.8-1.8,1.4-2,0.2-3.4c-5.7-5.6-11.7,5.4-13.9,10.3c-11.7,26-15.2,56.2-25.4,82.8
	c-10,24.9,13.8,5.5,27.8,9.9c8.2,1.1,16.5,1.7,24.6,3.4c1.8,10.3,2.8,29.5,12.4,35.9c3,0.6,6-3.4,5.2-6.2
	c-2.3-8.5-3.6-19.4-3.2-29.1c8.3-0.7,15.6-7.2,17.7-15.2C285.4,2278.1,285.9,2271.2,282,2270.2z"/>
<path d="M-128.7,2201.6c-0.1-0.7-0.2-1.4-0.3-2.2c-0.9-4.6-2.8-8.2-6.3-11.4c-2.6-2.3-6-4.1-9.6-4.1c-8.4,0.2-11.2,3.4-12.9,10
	c-0.5,1.9-0.7,7.7,2.4,8.3c1.3,0.3,4.1-3.3,5.4-5.1c2.8,9.3,3.4,19,3.3,28.6c-0.1,10.2-1.1,20.4-1.9,30.6c-0.8,10-1.6,20.2-0.8,30.3
	c0.7,9,1.2,18.4,3.7,27.1c0.8,2.7,1.8,5.4,3.2,7.9c1.1,2,2.9,4.9,5.1,6c1.3,0.7,2.9-0.2,3.9-1.1c1.6-1.7,0.3-3.8,0-5.7
	c-0.9-4.5-1.3-9.2-1.5-13.8c-0.3-5.3-0.3-10.7,0-16c0.5-10.7,1.8-21.3,3.2-31.8c1.4-10.6,2.8-21.2,3.4-31.8
	c0.3-4.6,0.5-9.2,0.3-13.9C-128.2,2209.7-128.2,2205.6-128.7,2201.6z"/>
<path d="M435.3,2272.1c-6.6-24-38.2-38.8-65.2-30.5c-1-10.6,3.5-22.3,2.5-32.9c14.6-1.2,41.5-14.6,49.5-0.6c1,3.4,4.4-0.7,4.9-2.3
	c3.8-9.3-7.6-17.6-17.6-17.8c-8.6,0.3-15.7,2.3-26,5c-13.8,4.6-19.3-8.8-21.9-2.1c-9.4,24-10.4,47-1.5,66.4l0,0.4
	c0-0.1,0.1-0.2,0.1-0.3c3.7,3.3,9.4,0,9.7-4c61.7-22.9,64.6,58.3,12.4,65.1c-20.8,1.7-33.5-22.5-16.9-34.1c4.9-3.7,13-8,19.1-4
	c8.6,6.5,1.3,17.1-8.9,17.6c-2.3,0.1-1,1.9,0,2.6c10.9,7.1,23.5-5.5,22.2-15.1c-4.3-31.9-52.1-10.5-48.5,14.6
	c-0.7,22,27.2,37.8,50.7,29.2C425.3,2321.1,442.6,2295.2,435.3,2272.1z"/>
<path d="M1052.3,2317.9l-6.4,6.4c-4.9,4.9-12.9,4.9-17.8,0l-6.4-6.4c-4.9-4.9-4.9-12.9,0-17.8l6.4-6.4c4.9-4.9,12.9-4.9,17.8,0
	l6.4,6.4C1057.2,2305,1057.2,2313,1052.3,2317.9z"/>
<path d="M999.1,2323l-5.1,5.1c-3.9,3.9-10.2,3.9-14.1,0l-5.1-5.1c-3.9-3.9-3.9-10.2,0-14.1l5.1-5.1c3.9-3.9,10.2-3.9,14.1,0l5.1,5.1
	C1003,2312.8,1003,2319.2,999.1,2323z"/>
<text transform="matrix(1 0 0 1 -1838.0728 98.189)" style="font-family:'BlackMagic'; font-size:209.7127px;">0 1 2 3 4 5 6 7 8 9.</text>
<g>
	<path d="M-2872.1-175.7c35.8-27.5,89.4-41.3,133.8-39.8c9.6,0.6,19.4,2.8,28.7,5.9c30,10.6,52.9,25.3,86,23.9
		c6.4-0.2,12.7-0.7,19.1-1.7c25.8-3.8,51.3-16.8,76.5-23.5c12.6-3.5,25.4-5.1,38.2-7c25.3-3.8,50.8-7.9,76.5-6.2
		c51.2,3.6,109.9,19.6,153,48.5c0,0,0,10,0,10c-11.9,8.3-25.1,14.9-38.2,20.7c-36.7,15.7-75.3,25-114.7,27.7
		c-25.7,1.7-51.1-2.4-76.5-6.2c-12.9-1.9-25.6-3.5-38.2-7c-25.2-6.6-50.7-19.7-76.5-23.5c-12.7-2-25.5-2.5-38.2-0.7
		c-22.8,2.8-45,15.4-66.9,22.9c-12.4,4.2-25.3,6.5-38.2,6.1c-36.4-1.3-72.7-9.7-105.2-27.5c-6.6-3.7-13-7.6-19.1-12.6
		C-2872.1-165.7-2872.1-175.7-2872.1-175.7L-2872.1-175.7z"/>
</g>
<rect x="-2887.3" y="-244.7" width="648.8" height="151.3"/>
<path d="M-2091,222.7c-0.2-1.7-1.1-3.4-2.3-4.7c-3.3-3.8-7.9-6-12.3-8.1c-4.7-2.2-9.1-4.8-13.7-7.2c-6.2-3.2-12.6-6.1-19-8.9
	c-12.9-5.4-26.2-9.9-39.8-13.4c-19.2-5-39-8.2-58.8-9.7c-41.8-3.1-84.1,1.1-124.7,11.6c-25.2,6.6-50.7,19.7-76.5,23.5
	c-40.2,8.5-72.7-10.6-109-23.3c-53.3-13.6-110.3,3.2-155.4,32.6c-6,1.7-8.7,10.5-0.6,14.7c9.8,6.3,19.5,12.4,30.2,17.3
	c129.6,55.7,141-19,234.8-7.7c27.5,5.8,53.4,16.6,80.3,24.3c27.6,6.2,55.8,10.4,84,12c27.8,1.4,55.8-1.5,82.9-7.9
	c27.7-6.6,54.7-17.3,80.3-29.9c5.5-2.7,11.1-5.2,16.1-8.9c1.3-0.9,2.5-2,3.1-3.4C-2091,224.7-2090.9,223.7-2091,222.7z"/>
<path d="M-2873.9,478.4c-6,1.7-8.7,10.5-0.6,14.7c9.8,6.3,19.5,12.4,30.2,17.3c32,13.8,56.9,19.6,77.5,20.7v-89.8
	C-2804.8,443.4-2842.2,457.8-2873.9,478.4z"/>
<path d="M-2262.5,486.1c-0.2-1.7-1.1-3.4-2.3-4.7c-3.3-3.8-7.9-6-12.3-8.1c-4.7-2.2-9.1-4.8-13.7-7.2c-6.2-3.2-12.6-6.1-19-8.9
	c-12.9-5.4-26.2-9.9-39.8-13.4c-19.2-5-39-8.2-58.8-9.7c-7.8-0.6-15.6-0.9-23.4-1v106.2c23.4,0,46.7-2.9,69.4-8.2
	c27.7-6.6,54.7-17.3,80.3-29.9c5.5-2.7,11.1-5.2,16.1-8.9c1.3-0.9,2.5-2,3.1-3.4C-2262.4,488-2262.3,487-2262.5,486.1z"/>
<path class="st0" d="M-2253,672.2c0-27.8-21.4-50.6-48.7-52.9v-0.2c-81.8-3.7-158.4,20.2-237.2,36c-53.7,8.5-97-10.6-145.5-23.3
	c-21.1-4-42.6-5.4-64-4.5c-55.9,2.3-56.4,87-0.4,89.8v0c83.8,3.3,115.7-36.9,209.9-28.4c78.8,16.5,155.8,38.1,237.2,36.6v-0.3
	C-2274.5,722.8-2253,700-2253,672.2z"/>
<path d="M-2318.6,849.8c0-25-21.4-45.6-48.7-47.6V802c-81.8-3.4-158.4,18.2-237.2,32.4c-53.7,7.7-97-9.5-145.5-20.9
	c-21.1-3.6-42.6-4.8-64-4.1c-55.9,2-56.4,78.3-0.4,80.8v0c83.8,3,115.7-33.2,209.9-25.6c78.8,14.9,155.8,34.3,237.2,33v-0.2
	C-2340,895.4-2318.6,874.9-2318.6,849.8z"/>
<g>
	<path d="M-2892.3,990c22.8,2.3,45.6,3.3,68.4,3.9c57.1,1.2,114.2,0.1,171-7.1c22.8-3,45.6-7.9,68.4-10.8c34.1-4.9,68.3-4,102.6-4.7
		c22.9-0.8,45.7-3.3,68.4-5.9c22.9-2.8,45.7-6.1,68.4-10.9c0,0,0,112.8,0,112.8c-11.4-2.5-22.8-4.4-34.2-6.2
		c-34-5-68.2-9.2-102.6-10.6c-22.8-0.7-45.6,0.1-68.4-1.4c-22.9-1.3-45.7-4.6-68.4-8.6c-22.7-4.1-45.5-7.2-68.4-9
		c-45.5-4.1-91.1-4.4-136.8-3.5c-22.8,0.6-45.6,1.5-68.4,3.9C-2892.3,1031.9-2892.3,990-2892.3,990L-2892.3,990z"/>
</g>
<line class="st2" x1="-2975.5" y1="708.4" x2="-2974.7" y2="708.4"/>
<g>
	<path d="M-2997.1,1156.6c19.5,2.1,39,2.9,58.6,3.4c48.9,1.1,97.9,0.1,146.6-6.3c19.5-2.6,39.1-7,58.6-9.6
		c29.2-4.3,58.6-3.5,87.9-4.1c19.6-0.7,39.1-2.9,58.6-5.2c19.7-2.5,39.2-5.4,58.6-9.7c27.6-6.2,55.1,11.1,61.3,38.7
		c8.6,36.4-25.1,69.8-61.3,61.3c-29-6.3-58.4-10-87.9-12.9c-29.3-3.4-58.6-1.5-87.9-3.3c-29.6-1.5-58.7-8.2-87.9-12.4
		c-48.6-6.4-97.6-7.4-146.6-6.3c-19.6,0.5-39.1,1.4-58.6,3.4c-10.2,1.1-19.5-6.3-20.6-16.5
		C-3019.1,1165.5-3008.7,1155.2-2997.1,1156.6L-2997.1,1156.6z"/>
</g>
<g>
	<path d="M-2989.2,1313.5c19.2,3.6,39.4,6,58.9,8.1c117.4,11.5,235.9,11.4,353.4,0.6c19.7-2,39.3-4.2,58.9-7.7
		c14.8-2.6,28.8,7.2,31.5,22c2.6,14.8-7.2,28.8-22,31.5c-3.2,0.6-6.5,0.5-9.6,0c-9.8-1.8-19.6-3.2-29.4-4.5
		c-107.4-13.1-215.9-14.6-323.9-8.9c-39.3,2.5-78.9,5.8-117.8,12.6c-14.9,2.7-29.1-7.1-31.8-22
		C-3024.8,1326.8-3007.7,1309.8-2989.2,1313.5L-2989.2,1313.5z"/>
</g>
<g>
	<path d="M-1414.8,1230.3c74.7,66.1,184.5,78.4,277.4,49.4c15.4-4.9,30.8-11.3,46.2-19.4c16.5-8.8,31.8-18.4,46.2-31.7
		c117.8-101.2,269.1,61.1,159.5,171.5c-45.2,42-115,41.2-159.5,0c-7.7-7.2-15.4-12.8-23.1-18c-21.5-14.3-45.7-25.5-69.3-33.1
		c-61.5-18.9-123.2-20.1-184.9-1.7c-23.7,7.3-47.9,18.4-69.3,32.9c-7.7,5.2-15.4,10.9-23.1,18.2c-46.4,44.1-119.8,42.2-163.8-4.2
		C-1678,1281.5-1527.1,1131.3-1414.8,1230.3L-1414.8,1230.3z"/>
</g>
<g>
	<path d="M-1432.3,944.5c0.4,29.3-22.5,56.8-52.3,60.8c-36.6,5.6-69.5-23.9-69.3-60.8c-0.2-37,32.7-66.2,69.3-60.7
		C-1454.8,887.8-1431.8,915.3-1432.3,944.5L-1432.3,944.5z M-1434.3,944.5c0.1-19.8-12.6-38.9-31.1-46.1
		c-32.5-13.2-68.5,11.1-68.4,46.1c-0.2,35.1,35.9,59.3,68.4,46.1C-1446.9,983.5-1434.2,964.4-1434.3,944.5L-1434.3,944.5z"/>
</g>
<path d="M1118.5,2400.9c-1.7,0-2.9,1-4.3,1.8c0.7-1.4,1.8-2.6,1.8-4.3c0-5.5-4.5-10-10-10c-5.5,0-10,4.5-10,10c0,1.7,1,2.9,1.8,4.3
	c-1.4-0.7-2.6-1.8-4.3-1.8c-5.5,0-10,4.5-10,10c0,5.5,4.5,10,10,10c1.7,0,2.9-1,4.3-1.8c-0.7,1.4-1.8,2.6-1.8,4.3
	c0,5.5,4.5,10,10,10c5.5,0,10-4.5,10-10c0-1.7-1-2.9-1.8-4.3c1.4,0.7,2.6,1.8,4.3,1.8c5.5,0,10-4.5,10-10
	C1128.5,2405.4,1124,2400.9,1118.5,2400.9z"/>
<path d="M1050.8,2394c-1.2,1.2-1.3,2.8-1.8,4.3c-0.5-1.5-0.6-3.1-1.8-4.3c-3.9-3.9-10.2-3.9-14.1,0s-3.9,10.2,0,14.1
	c1.2,1.2,2.8,1.3,4.3,1.8c-1.5,0.5-3.1,0.6-4.3,1.8c-3.9,3.9-3.9,10.2,0,14.1s10.2,3.9,14.1,0c1.2-1.2,1.3-2.8,1.8-4.3
	c0.5,1.5,0.6,3.1,1.8,4.3c3.9,3.9,10.2,3.9,14.1,0c3.9-3.9,3.9-10.2,0-14.1c-1.2-1.2-2.8-1.3-4.3-1.8c1.5-0.5,3.1-0.6,4.3-1.8
	c3.9-3.9,3.9-10.2,0-14.1C1061,2390.1,1054.7,2390.1,1050.8,2394z"/>
<text transform="matrix(1 0 0 1 1015.3018 2526.2129)" style="font-family:'BlackMagic'; font-size:12px;">0123456789.</text>
<path d="M1022.6,2505.5c0,0.4,0.1,0.7,0.1,1.1c0,0.4,0,0.7,0,1.1s-0.1,0.7-0.1,1.1c-0.1,0.4-0.1,0.7-0.2,1.1
	c-0.1,0.6-0.4,1.1-0.7,1.7s-0.7,1-1.2,1.3c-0.2,0.1-0.3,0.2-0.5,0.2s-0.4,0.1-0.6,0.1c-0.3,0-0.7,0-1-0.2s-0.6-0.3-0.9-0.5
	s-0.6-0.5-0.8-0.8c-0.2-0.3-0.4-0.6-0.6-0.9c-0.2-0.5-0.4-1-0.5-1.6c-0.1-0.6-0.2-1.1-0.2-1.7s0-1.2,0.1-1.7s0.2-1.1,0.3-1.7
	c0.1-0.3,0.1-0.5,0.2-0.8s0.2-0.5,0.3-0.8c0.1-0.2,0.2-0.4,0.3-0.6s0.3-0.3,0.5-0.3c0.1,0,0.3,0.1,0.3,0.2s0.1,0.2,0.1,0.4
	c0,0.5-0.1,0.9-0.2,1.4s-0.2,0.9-0.2,1.4c-0.1,0.6-0.1,1.2-0.2,1.7s0,1.2,0,1.8c0,0.5,0.1,1,0.3,1.6s0.4,1,0.8,1.4
	c0.2,0.2,0.4,0.3,0.6,0.4s0.5,0.2,0.7,0.2c0.3,0,0.6-0.1,0.8-0.2s0.4-0.3,0.6-0.6c0.3-0.4,0.5-0.9,0.6-1.4s0.2-1,0.3-1.5
	c0.1-0.5,0.1-1,0.1-1.6s0-1-0.1-1.6c0-0.3-0.1-0.5-0.1-0.8s-0.1-0.5-0.2-0.8c-0.1-0.3-0.3-0.7-0.5-1s-0.5-0.6-0.9-0.5
	c-0.4,0-0.7,0.3-0.9,0.7s-0.3,0.8-0.3,1.2c0,0.1,0,0.2,0.1,0.4s0.1,0.2,0.2,0.3c0.1,0.1,0.1,0.1,0.2,0.2s0.2,0,0.2,0
	c0,0,0.1,0,0.1-0.1s0,0,0.1-0.1c0,0,0,0,0.1-0.1s0.1,0,0.1,0c0.1,0,0.1,0.1,0.1,0.1s0,0.1,0,0.2c0,0.1-0.1,0.3-0.2,0.4
	s-0.2,0.2-0.4,0.2c-0.1,0-0.2,0-0.3,0s-0.2-0.1-0.3-0.1c-0.3-0.2-0.5-0.4-0.6-0.7c-0.1-0.3-0.1-0.6-0.1-0.9s0.1-0.6,0.2-0.9
	c0.1-0.3,0.3-0.6,0.5-0.8c0.5-0.6,1-0.7,1.6-0.5s1,0.6,1.4,1.1c0.3,0.5,0.5,1,0.7,1.6S1022.5,2504.9,1022.6,2505.5z"/>
<path d="M1025.1,2502.4c0,0.2,0,0.3,0,0.5s0,0.3,0,0.5c0,0.2,0,0.4,0,0.6s0,0.4,0,0.6c0,0.4-0.1,0.9-0.1,1.3s-0.1,0.9-0.2,1.3
	c-0.1,0.4-0.1,0.9-0.2,1.3s-0.1,0.9-0.1,1.3c0,0.2,0,0.5,0,0.7s0,0.4,0,0.7c0,0.2,0,0.4,0,0.6s0,0.4,0.1,0.6c0,0.1,0,0.2,0.1,0.2
	s0,0.2-0.1,0.2c0,0-0.1,0.1-0.1,0.1s-0.1,0-0.2,0c-0.1,0-0.2-0.1-0.2-0.2s-0.1-0.2-0.2-0.3c-0.1-0.1-0.1-0.2-0.2-0.3
	s-0.1-0.2-0.1-0.3c-0.1-0.4-0.2-0.7-0.2-1.1s-0.1-0.8-0.1-1.1c0-0.4,0-0.8,0-1.2s0-0.8,0.1-1.3c0-0.4,0.1-0.8,0.1-1.3
	s0.1-0.9,0.1-1.3c0-0.4,0-0.8,0-1.2s-0.1-0.8-0.2-1.2c-0.1,0.1-0.1,0.2-0.2,0.3s-0.2,0.2-0.2,0.1c-0.1,0-0.2-0.1-0.2-0.3
	s0-0.3,0-0.4c0.1-0.3,0.2-0.5,0.3-0.6s0.4-0.2,0.8-0.2c0.1,0,0.3,0,0.4,0.1s0.3,0.1,0.4,0.2c0.1,0.1,0.3,0.3,0.3,0.4
	s0.1,0.3,0.2,0.5C1025.1,2502.3,1025.1,2502.3,1025.1,2502.4C1025.1,2502.4,1025.1,2502.4,1025.1,2502.4z"/>
<path d="M1032.4,2511c0.1,0.3,0,0.6-0.1,0.9c-0.1,0.3-0.3,0.5-0.6,0.7s-0.6,0.3-0.9,0.4s-0.7,0.1-1.1,0c-0.2,0-0.5-0.1-0.8-0.2
	s-0.6-0.3-0.8-0.4s-0.6-0.3-0.8-0.4c-0.3-0.1-0.5-0.2-0.7-0.2c-0.3,0-0.5,0.1-0.7,0.4s-0.4,0.3-0.7,0c-0.1-0.3,0-0.6,0.2-0.8
	s0.4-0.5,0.5-0.8c0.2-0.4,0.5-0.8,0.8-1.2s0.6-0.7,0.9-1.1s0.6-0.7,0.9-1.1c0.3-0.4,0.6-0.7,0.9-1.1c0.1-0.1,0.2-0.2,0.3-0.3
	s0.2-0.2,0.2-0.3c0.2-0.2,0.3-0.5,0.5-0.8c0.2-0.3,0.3-0.6,0.3-0.9s0-0.6-0.1-0.9c-0.1-0.3-0.4-0.5-0.8-0.6c-0.4-0.1-0.9-0.1-1.3,0
	s-0.8,0.3-1.2,0.6c-0.3,0.2-0.6,0.6-0.9,1s-0.4,0.8-0.2,1.2c0,0.1,0.1,0.2,0.2,0.3s0.2,0.2,0.3,0.2c0.1,0.1,0.3,0.1,0.5,0.1
	s0.3,0,0.5,0c0.2,0.1,0.3,0.2,0.1,0.4s-0.3,0.3-0.4,0.4c-0.3,0.1-0.7,0-1-0.2s-0.6-0.5-0.8-0.7c-0.2-0.3-0.3-0.6-0.2-1
	s0.1-0.7,0.2-1c0.1-0.2,0.1-0.5,0.2-0.7s0.2-0.4,0.4-0.6c0.3-0.4,0.7-0.7,1.1-0.9s0.9-0.4,1.4-0.4c0.5,0,0.9,0,1.4,0.1
	s0.9,0.3,1.2,0.6c0.4,0.3,0.7,0.6,0.8,1.1s0.2,0.8,0.2,1.3c0,0.4-0.1,0.7-0.3,1c-0.1,0.3-0.3,0.7-0.5,1s-0.4,0.6-0.7,0.9
	c-0.2,0.3-0.5,0.6-0.8,0.8c-0.3,0.3-0.5,0.5-0.8,0.8s-0.5,0.5-0.8,0.8s-0.5,0.5-0.8,0.8s-0.5,0.5-0.7,0.8c0.5,0,0.9,0.1,1.4,0.3
	s1,0.4,1.4,0.5c0.3,0.1,0.7,0.1,1.2,0s0.6-0.3,0.6-0.7c-0.1-0.4-0.3-0.6-0.6-0.6s-0.5,0-0.7,0s-0.4,0.1-0.6,0.2
	c-0.1,0.1-0.2,0-0.2-0.1c0-0.4,0.2-0.6,0.5-0.7c0.3-0.1,0.6-0.1,1-0.1s0.7,0.2,1,0.5C1032.3,2510.4,1032.5,2510.7,1032.4,2511z"/>
<path d="M1039.8,2508.7c0.1,1.1-0.3,2-1.1,2.8s-1.7,1.2-2.6,1.4s-1.8,0-2.6-0.4c-0.8-0.5-1.1-1.4-1-2.8c0.2-0.8,0.5-1.3,1.1-1.6
	c0.5-0.4,1.1-0.5,1.6-0.5s0.9,0.2,1.3,0.6c0.3,0.4,0.3,0.9-0.1,1.7c-0.2,0.3-0.5,0.5-0.9,0.6s-0.7,0-0.9-0.3c0,0-0.1-0.1-0.1-0.2
	s0-0.1,0.1-0.1c0.2,0,0.4,0,0.7-0.1s0.4-0.2,0.5-0.5c0.1-0.5,0-0.8-0.3-0.9c-0.3-0.1-0.6-0.1-1,0s-0.7,0.3-1,0.6
	c-0.3,0.3-0.4,0.6-0.4,1c0.1,0.6,0.3,1.1,0.7,1.3c0.4,0.3,0.8,0.4,1.3,0.4s1-0.1,1.4-0.4s0.9-0.6,1.2-1c0.6-0.8,0.9-1.5,0.9-2.1
	c0-0.6-0.2-1.2-0.6-1.6s-1-0.7-1.7-0.8c-0.7-0.1-1.5,0-2.4,0.3c-0.4-0.1-0.4-0.4-0.2-0.8s0.6-0.9,1.1-1.4s1-0.9,1.5-1.4
	s0.9-0.7,1-0.7c-0.3,0-0.7,0-1.1-0.1c-0.4-0.1-0.8-0.1-1.2-0.1s-0.8,0-1.1,0.1s-0.6,0.3-0.7,0.7c-0.1,0.2,0,0.4,0.2,0.5
	s0.3,0.2,0.2,0.4c0,0,0,0.1,0,0.1s0,0.1-0.1,0.1c0,0.1-0.1,0.1-0.2,0.2s-0.2,0-0.3,0c-0.4-0.2-0.6-0.5-0.5-1s0.2-0.8,0.5-1.1
	c0.2-0.2,0.5-0.4,0.7-0.5c0.3-0.1,0.6-0.2,0.9-0.2s0.7,0,1,0c0.3,0,0.7,0,1.1,0.1c0.3,0,0.6,0,0.8,0s0.6,0,0.8,0.1
	c0.3,0,0.6,0,0.7,0.2s0.1,0.4-0.1,0.6c-0.3,0.2-0.5,0.5-0.8,0.7c-0.3,0.2-0.6,0.5-0.9,0.7s-0.6,0.5-0.9,0.8
	c-0.3,0.3-0.6,0.5-0.8,0.8c0.5,0,1.1,0.1,1.5,0.2c0.5,0.2,0.9,0.5,1.3,0.8s0.7,0.7,0.9,1.2
	C1039.7,2507.7,1039.8,2508.1,1039.8,2508.7z"/>
<path d="M1046.9,2507.8c0.2,0,0.2,0.2,0.3,0.4s0,0.4-0.1,0.5c-0.1,0.3-0.3,0.6-0.5,0.9s-0.6,0.4-0.9,0.4c0,0.4,0,0.8,0.1,1.2
	s0.1,0.8,0.2,1.2c0,0.1,0,0.2-0.1,0.4s-0.2,0.2-0.3,0.2c-0.2-0.1-0.4-0.3-0.5-0.6s-0.2-0.5-0.3-0.8s-0.1-0.6-0.2-0.9
	s-0.1-0.5-0.1-0.8c-0.3-0.1-0.7-0.1-1-0.1s-0.7-0.1-1-0.1c-0.3-0.1-0.6-0.1-1,0c-0.4,0.1-0.7,0.2-0.9,0.2s-0.5,0-0.6-0.1
	c-0.1-0.1-0.1-0.4,0.2-0.9c0.2-0.6,0.4-1.1,0.6-1.7s0.3-1.2,0.5-1.8s0.3-1.2,0.5-1.8s0.4-1.1,0.6-1.7c0.1-0.2,0.3-0.5,0.5-0.8
	s0.5-0.3,0.7-0.1c0.1,0.1,0.1,0.1,0.1,0.1s0,0.1-0.1,0.2c-0.2,0.6-0.4,1.2-0.6,1.8c-0.2,0.6-0.3,1.2-0.5,1.8s-0.3,1.2-0.5,1.8
	c-0.2,0.6-0.4,1.2-0.7,1.8c0,0.1,0.1,0.1,0.3,0s0.4-0.1,0.5,0c0.5,0,0.9,0,1.4,0.1s0.9,0.1,1.3,0.1c0-0.5,0.1-0.9,0.1-1.4
	c0-0.5,0.1-1,0.2-1.4s0.1-0.9,0.2-1.4c0.1-0.5,0.1-0.9,0.1-1.4c0.1-0.3,0-0.6-0.1-0.9s-0.1-0.5,0-0.8c0.1-0.5,0.4-0.7,0.8-0.4
	s0.6,0.6,0.6,1c0.1,0.5,0.1,1.1,0.1,1.7s-0.1,1.1-0.2,1.7s-0.2,1.1-0.3,1.7s-0.2,1.1-0.2,1.7c0.4,0,0.6-0.2,0.7-0.5
	S1046.6,2507.8,1046.9,2507.8z"/>
<path d="M1054.4,2509.4c-0.1,0.5-0.3,1-0.6,1.4s-0.6,0.8-1.1,1.2c-0.4,0.3-0.9,0.6-1.4,0.8c-0.5,0.2-1,0.2-1.5,0.2
	c-0.5-0.1-1-0.2-1.4-0.4s-0.7-0.5-1-0.9c-0.2-0.4-0.4-0.8-0.4-1.3c-0.1-0.5,0.1-1,0.5-1.4c0.4-0.4,0.8-0.8,1.3-0.9s1-0.2,1.4,0
	c0.5,0.1,0.7,0.6,0.8,1.2c0.1,0.4-0.1,0.8-0.5,1.1s-0.9,0.4-1.3,0.1c0,0-0.1-0.1-0.1-0.1s0-0.1,0.1-0.1c0.4,0,0.7-0.2,0.9-0.5
	s0.1-0.6-0.2-0.9c-0.3-0.2-0.5-0.2-0.8-0.1s-0.6,0.3-0.8,0.4c-0.3,0.2-0.5,0.5-0.6,0.9c-0.1,0.3,0,0.7,0.1,1s0.4,0.6,0.7,0.8
	c0.3,0.2,0.7,0.3,1.1,0.2c1.1-0.1,1.9-0.6,2.4-1.3c0.5-0.8,0.7-1.5,0.7-2.3s-0.5-1.4-1.1-1.8c-0.7-0.5-1.7-0.4-2.9,0
	c0,0.2-0.1,0.3-0.3,0.4s-0.4,0.1-0.5-0.1c0,0,0,0,0,0s0,0,0,0l0,0c-0.2-0.4-0.3-0.8-0.4-1.3s-0.1-0.9-0.1-1.4s0.1-0.9,0.2-1.4
	c0.1-0.5,0.3-1,0.5-1.5c0.1-0.3,0.3-0.3,0.6,0s0.7,0.3,1.3,0.2c0.4-0.1,0.8-0.2,1.1-0.3s0.7-0.1,1-0.1c0.4,0,0.8,0.2,1.2,0.5
	s0.5,0.6,0.3,1c0,0.1-0.1,0.1-0.2,0.2s-0.2,0.1-0.2-0.1c-0.2-0.3-0.4-0.5-0.8-0.5c-0.3,0-0.7,0-1.1,0s-0.8,0.2-1.2,0.3
	s-0.8,0.2-1.1,0.2c0,0.4,0,0.9-0.1,1.4s-0.1,0.9-0.1,1.4c0.6-0.2,1.1-0.2,1.7-0.2s1.1,0.2,1.6,0.4s0.9,0.6,1.3,0.9
	c0.4,0.4,0.6,0.8,0.8,1.3C1054.5,2508.4,1054.5,2508.9,1054.4,2509.4z"/>
<path d="M1054.5,2508.7c0-0.2,0-0.4,0-0.6s0-0.4,0-0.6c0-0.4,0.1-0.8,0.1-1.2s0.2-0.8,0.3-1.2s0.3-0.8,0.4-1.1
	c0.2-0.4,0.4-0.7,0.6-1.1c0.2-0.3,0.5-0.6,0.9-0.9c0.3-0.3,0.7-0.5,1.1-0.7s0.8-0.3,1.2-0.3c0.4,0,0.9,0,1.3,0.2
	c0.2,0.1,0.4,0.2,0.6,0.4s0.3,0.4,0.4,0.6c0.1,0.2,0.1,0.4,0.1,0.6s0,0.4-0.1,0.6c0,0.1-0.1,0.2-0.1,0.3s-0.1,0.2-0.2,0.3
	c-0.1,0-0.1,0.1-0.2,0.1s-0.1,0-0.2,0c-0.1,0-0.1-0.1-0.1-0.1s-0.1-0.1-0.1-0.2c0-0.3,0-0.6,0.2-0.8s0.1-0.6-0.2-0.8
	c-0.1-0.1-0.2-0.2-0.3-0.3s-0.3-0.1-0.4-0.1c-0.6-0.1-1.1,0.1-1.5,0.5s-0.8,0.9-1,1.3c-0.2,0.3-0.3,0.7-0.4,1s-0.2,0.7-0.3,1
	s-0.1,0.7-0.2,1.1c0,0.4-0.1,0.7-0.1,1.1c0,0.3,0,0.6,0,0.9c0,0.3,0.1,0.6,0.1,0.9s0.2,0.6,0.3,0.8c0.1,0.3,0.3,0.5,0.5,0.7
	c0.2,0.2,0.5,0.4,0.8,0.4c0.3,0,0.6,0,0.9-0.1s0.6-0.2,0.8-0.4s0.5-0.4,0.7-0.6c0.3-0.4,0.5-0.9,0.6-1.5s-0.1-1.1-0.5-1.5
	c-0.2-0.2-0.5-0.3-0.8-0.4s-0.6,0-0.9,0.1c-0.2,0.1-0.4,0.3-0.5,0.6s-0.2,0.5-0.2,0.8c0,0.1,0,0.2,0.1,0.4s0.1,0.2,0.2,0.3
	c0.1,0.1,0.2,0.1,0.3,0.2s0.2,0.1,0.2,0.3c0,0.1,0,0.2-0.1,0.3s-0.2,0.2-0.3,0.2c-0.1,0-0.2,0-0.3,0s-0.2-0.1-0.3-0.1
	c-0.3-0.2-0.6-0.4-0.7-0.8s-0.2-0.7-0.2-1c0-0.3,0.2-0.7,0.4-1s0.5-0.5,0.8-0.7c0.3-0.2,0.7-0.4,1.1-0.4s0.8,0,1.2,0.2
	c0.3,0.2,0.6,0.4,0.9,0.7s0.4,0.6,0.5,1c0.1,0.3,0.1,0.6,0.1,0.9s-0.1,0.6-0.2,0.9c-0.1,0.5-0.3,1-0.6,1.4s-0.6,0.8-1.1,1.1
	c-0.4,0.3-0.9,0.4-1.4,0.5s-1,0-1.5-0.2c-0.4-0.1-0.8-0.4-1.1-0.6c-0.3-0.3-0.6-0.6-0.8-1s-0.4-0.8-0.5-1.2
	S1054.5,2509.1,1054.5,2508.7z"/>
<path d="M1069,2501.2c0.2,0.3,0.2,0.7,0.1,1.1c-0.1,0.5-0.4,1-0.7,1.5s-0.6,1-0.9,1.5c-0.3,0.5-0.6,0.9-0.7,1.2
	c-0.1,0.2-0.2,0.4-0.3,0.6s-0.2,0.4-0.3,0.6c-0.2,0.3-0.3,0.6-0.4,0.9s-0.3,0.6-0.4,0.9c-0.1,0.2-0.1,0.4-0.1,0.6s-0.1,0.4-0.1,0.7
	c0,0.2,0,0.4,0,0.6s0.1,0.4,0.2,0.5c0.1,0.1,0.2,0.2,0.3,0.4s0.1,0.2,0,0.4c-0.1,0.1-0.2,0.2-0.3,0.3s-0.3,0.1-0.4,0
	c-0.7-0.6-1-1.3-1.1-2.2c0-0.9,0.2-1.9,0.5-2.8s0.8-1.9,1.3-2.9c0.5-0.9,1-1.7,1.4-2.3c-0.3,0.1-0.6,0.1-0.9,0.1
	c-0.3,0-0.6-0.1-0.9-0.1s-0.6-0.1-0.9-0.2s-0.6-0.1-0.9-0.1c-0.6-0.1-1,0.2-1,0.8s0.2,0.9,0.8,0.9c0.2,0,0.3,0,0.5-0.1
	s0.3-0.1,0.5,0.1c0.1,0.3,0,0.5-0.2,0.6s-0.4,0.2-0.6,0.2s-0.5,0-0.7-0.1c-0.3-0.1-0.4-0.2-0.6-0.4c-0.4-0.4-0.5-0.9-0.4-1.5
	s0.3-1,0.7-1.4c0.2-0.2,0.5-0.3,0.8-0.4c0.3-0.1,0.6-0.1,0.9-0.1s0.6,0,0.9,0.1c0.3,0.1,0.6,0.1,0.9,0.2c0.3,0,0.6,0.1,0.9,0.2
	s0.6,0.1,0.9,0.1c0.2-0.1,0.4-0.2,0.6-0.4S1068.8,2501,1069,2501.2z"/>
<path d="M1075.6,2507.1c0.5,0.5,0.7,1.2,0.8,1.8c0.1,0.7,0,1.3-0.3,1.9s-0.7,1.1-1.3,1.5s-1.3,0.6-2.2,0.6c-1,0-1.9-0.3-2.4-0.8
	c-0.6-0.6-0.9-1.2-1-2s0-1.5,0.3-2.3s0.9-1.4,1.7-1.9c-1-0.7-1.4-1.4-1.3-2.2c0.1-0.8,0.4-1.4,0.9-1.9s1.2-0.8,2-0.9
	c0.8-0.1,1.4,0.2,1.9,0.8c0.3,0.4,0.4,0.9,0.5,1.5s-0.2,1.1-0.6,1.3c-0.2,0.1-0.5,0.2-0.9,0.2s-0.5-0.2-0.4-0.5
	c0-0.2,0.2-0.4,0.6-0.6s0.4-0.5,0-1.1c-0.2-0.4-0.6-0.5-1-0.5c-0.4,0-0.8,0.1-1.1,0.4s-0.4,0.5-0.4,0.9c0,0.4,0.3,0.8,1,1.1
	c0.3,0.2,0.6,0.4,0.9,0.6s0.6,0.4,0.9,0.6s0.6,0.4,0.9,0.7C1075.3,2506.7,1075.5,2506.9,1075.6,2507.1z M1074.1,2511.1
	c0.4-0.5,0.6-0.9,0.6-1.4c0-0.4-0.2-0.9-0.4-1.3s-0.6-0.8-1.1-1.1s-0.9-0.6-1.3-0.9c-0.4,0.2-0.7,0.5-1,0.8
	c-0.3,0.3-0.5,0.7-0.6,1.1s-0.2,0.8-0.2,1.2s0.1,0.8,0.3,1.1c0.2,0.3,0.4,0.5,0.7,0.7c0.3,0.2,0.6,0.3,1,0.3s0.7,0,1.1-0.1
	S1073.8,2511.4,1074.1,2511.1z"/>
<path d="M1083.8,2505.2c0,0.2,0,0.4,0,0.6s0,0.4,0,0.6c0,0.4-0.1,0.8-0.1,1.2c-0.1,0.4-0.2,0.8-0.3,1.2s-0.3,0.8-0.4,1.1
	c-0.2,0.4-0.4,0.7-0.6,1.1c-0.2,0.3-0.5,0.6-0.9,0.9c-0.3,0.3-0.7,0.5-1.1,0.7s-0.8,0.3-1.2,0.3c-0.4,0-0.9,0-1.3-0.2
	c-0.2-0.1-0.4-0.2-0.6-0.4s-0.3-0.4-0.4-0.6c-0.1-0.2-0.1-0.4-0.1-0.6s0-0.4,0.1-0.6c0-0.1,0.1-0.2,0.1-0.3s0.1-0.2,0.2-0.3
	c0.1,0,0.1-0.1,0.2-0.1s0.1,0,0.2,0c0.1,0,0.1,0.1,0.1,0.1s0.1,0.1,0.1,0.2c0,0.3,0,0.6-0.2,0.8s-0.1,0.6,0.2,0.8
	c0.1,0.1,0.2,0.2,0.3,0.3s0.3,0.1,0.4,0.1c0.6,0.1,1.1-0.1,1.6-0.5s0.8-0.9,1-1.3c0.2-0.3,0.3-0.7,0.4-1c0.1-0.3,0.2-0.7,0.3-1
	s0.1-0.7,0.2-1.1c0-0.4,0.1-0.7,0.1-1.1c0-0.3,0-0.6,0-0.9c0-0.3-0.1-0.6-0.1-0.9s-0.2-0.6-0.3-0.8c-0.1-0.3-0.3-0.5-0.5-0.7
	c-0.3-0.2-0.5-0.4-0.8-0.4c-0.3,0-0.6,0-0.9,0.1s-0.6,0.2-0.8,0.4s-0.5,0.4-0.7,0.6c-0.3,0.4-0.5,0.9-0.6,1.5s0.1,1.1,0.5,1.5
	c0.2,0.2,0.5,0.3,0.8,0.4s0.6,0,0.9-0.1c0.2-0.1,0.4-0.3,0.5-0.6s0.2-0.5,0.2-0.8c0-0.1,0-0.2-0.1-0.4s-0.1-0.2-0.3-0.3
	c-0.1-0.1-0.2-0.1-0.3-0.2s-0.2-0.1-0.2-0.3c0-0.1,0-0.2,0.1-0.3s0.2-0.2,0.3-0.2c0.1,0,0.2,0,0.3,0s0.2,0.1,0.3,0.1
	c0.3,0.2,0.6,0.4,0.7,0.8s0.2,0.7,0.2,1c0,0.3-0.2,0.7-0.4,1s-0.5,0.5-0.8,0.7c-0.3,0.2-0.7,0.4-1.1,0.4s-0.8,0-1.2-0.2
	c-0.3-0.2-0.6-0.4-0.9-0.7s-0.4-0.6-0.5-1c-0.1-0.3-0.1-0.6-0.1-0.9s0.1-0.6,0.2-0.9c0.1-0.5,0.3-1,0.6-1.4s0.6-0.8,1.1-1.1
	c0.4-0.3,0.9-0.4,1.4-0.5s1,0,1.5,0.2c0.4,0.1,0.8,0.4,1.1,0.6c0.3,0.3,0.6,0.6,0.8,1s0.4,0.8,0.5,1.2S1083.8,2504.8,1083.8,2505.2z
	"/>
<path d="M1084.7,2509.9c0.2-0.2,0.5-0.3,0.8-0.3s0.6,0.1,0.8,0.3l0.6,0.6c0.2,0.2,0.3,0.5,0.3,0.8s-0.1,0.6-0.3,0.8l-0.6,0.6
	c-0.2,0.2-0.5,0.3-0.8,0.3s-0.6-0.1-0.8-0.3l-0.6-0.6c-0.2-0.2-0.3-0.5-0.3-0.8s0.1-0.6,0.3-0.8L1084.7,2509.9z"/>
<path d="M1027,2482.3c-0.1-1.1-0.3-2.4-0.9-3.4c-1-1.4-2.7-1.7-3.4,0.2c-0.4,0.9-0.4,2,0.4,2.6c0.3,0.2,0.7,0.3,0.9,0
	c0.2-0.2,0.4-1-0.2-0.5c-0.1,0-0.2,0.1-0.2,0c-0.7-0.4-0.5-1.3-0.2-2c0.2-0.5,0.5-0.7,0.9-0.7c1.4,0.1,1.6,2.2,1.7,3.2
	c0.1,2.2,0.4,5.1-1.5,6.7c-2,1-3-1.7-3.1-3.2c-0.2-1.3,0-2.8,0.2-4.1c0.2-1.1,1.8-4.6-0.4-1.9c-1.9,2.6-2.1,6.5-0.3,9.2
	c0.8,1,2,1.7,3.3,1.3c0,0,0,0,0,0C1027,2488.7,1027.1,2484.9,1027,2482.3z"/>
<path d="M1036.2,2482.7c-0.2-1.1-0.5-2.4-1.2-3.3c-1.1-1.4-2.8-1.4-3.4,0.5c-0.3,0.9-0.3,2,0.6,2.6c0.3,0.2,0.7,0.2,0.9-0.1
	c0.2-0.3,0.3-1-0.2-0.5c-0.1,0.1-0.1,0.1-0.2,0c-0.7-0.4-0.6-1.2-0.3-2c0.2-0.5,0.5-0.7,0.9-0.8c1.4,0,1.7,2,2,3
	c0.3,2.2,0.7,5.1-0.9,6.7c-1.9,1.2-3.1-1.5-3.4-3c-0.3-1.3-0.3-2.8-0.1-4.1c0.1-1.1,1.4-4.7-0.5-1.9c-1.6,2.7-1.6,6.7,0.4,9.2
	c0.8,0.9,2.1,1.5,3.4,1.1c0,0,0,0,0,0C1036.8,2489,1036.5,2485.2,1036.2,2482.7z"/>
<ellipse cx="1034.9" cy="2484.2" rx="4.1" ry="7.2"/>
</svg>
