<?xml version="1.0" encoding="UTF-8"?>
<svg id="Layer_2" data-name="Layer 2" xmlns="http://www.w3.org/2000/svg" viewBox="0 0 24.37 35">
  <defs>
    <style>
      .cls-1 {
        fill: #231f20;
      }
    </style>
  </defs>
  <g id="Layer_1-2" data-name="Layer 1">
    <g>
      <path class="cls-1" d="m11.86,3.29c-.03-.29-.19-.56-.43-.73-.17-.12-.37-.18-.57-.18-.09,0-.18.01-.26.04l-.81.22-1.65-1.35c-.11-.09-.24-.16-.38-.19L3.66.03c-.08-.02-.17-.03-.25-.03-.26,0-.52.1-.71.29l-1.68,1.67c-.19.19-.29.44-.29.71v3.1c0,.28.11.54.32.73l.81,3.35c-.03.32.1.62.33.83l1.65-1.65c.38-.38.88-.58,1.41-.58.04,0,.07,0,5.21.33l.1-.04c.29-.1.51-.33.61-.62l.84-2.51c.04-.13.06-.27.05-.41l-.19-1.91ZM2.3,6.12l-.07-1.99.81-.8,3.13.84.22,1.51-4.09.44Zm8.17-.59l-3.13.16.63-1.39,2.54.48-.04.76Z"/>
      <path class="cls-1" d="m24.08,5.99l-.09-3.46c-.01-.41-.27-.77-.65-.91l-3.17-1.19c-.11-.04-.23-.06-.35-.06-.16,0-.33.04-.47.12l-4.31,2.32-1.39-.37c-.09-.02-.17-.03-.26-.03-.43,0-.83.28-.96.71l-.47,1.55c-.05.18-.06.36-.01.54l.65,2.51c.08.33.33.59.65.7l1.07.36c5.6-.3,5.62-.3,5.65-.3.68,0,1.31.34,1.68.91l.9,1.39s.04-.02.06-.04c.27-.23.39-.58.34-.92l.88-3.11c.17-.19.26-.44.25-.69Zm-9.68-.16l-.33-.76,2.83-.48.63,1.39-3.13-.16Zm4.2.2l.2-1.51,2.89-.84.58.76.1,2.03-3.78-.44Z"/>
      <path class="cls-1" d="m24.21,14.94l-3.31-5.03c-.19-.29-.51-.46-.85-.46-.02,0-8.14.43-8.14.43,0,0-6.8-.43-6.82-.43-.27,0-.53.1-.72.29l-2.18,2.14c-.12.12-.21.27-.26.43l-.99,3.37-.75,1.04c-.19.26-.24.59-.14.89l1.47,4.36.18,5.95c0,.12.03.23.07.34l1.51,3.75c.09.22.25.39.45.51l4.35,2.35c.15.08.32.12.49.12.03,0,7.08-.54,7.08-.54.11,0,.22-.04.33-.08l3.98-1.71c.32-.14.55-.43.6-.78l1.49-10.55,1.92-3.93c.04-.08.07-.16.08-.25l.28-1.5c.05-.25,0-.51-.15-.73Zm-5.49,14.06l-1.64,1.61-2.6.96-2.41.11-3.28-.11-2.31-.96-1.73-1.07-.87-1.39-.19-2.35,1.06-.64,1.04,1.33,1-1.62.4,1.6.35-.88.68,1.33.84-.52.11,1.49.62-1.62.7,1.18.72-1.56.74,1.24.9-.72.31,1.59.18-.62.75.38.67-.99.74.75.73-1.84,1.22,1.3h0s.67-1.07.67-1.07l.87-.11-.29,3.21Zm3.15-12.55l-.85,2.39-1.41-1.72-1.13-.48-2.25,6.12-.75-6.02-1.88-.67-1.66-.19-1.63.19-2.25.19-1.13,6.21-1.6-5.35-1.22.29-.94,1.43-1.03-.76.19-1.43.94-2.29,1.69-1.24,1.97-.57h3.85l5.73-.29,2.72.19,1.31,1.53,1.31,1.43v1.05Z"/>
    </g>
  </g>
</svg>