<?xml version="1.0" encoding="UTF-8"?>
<svg id="Layer_2" data-name="Layer 2" xmlns="http://www.w3.org/2000/svg" viewBox="0 0 293.87 306.61">
  <defs>
    <style>
      .cls-1 {
        fill: #231f20;
      }
    </style>
  </defs>
  <g id="Layer_1-2" data-name="Layer 1">
    <path class="cls-1" d="m282.47,185.98l9.85.09s-8.01-16.7-8.73-17.81c-.13-2.6,10.27-.96,10.27-.96,0,0-9.8-5.45-14.87-5.61-1.43-1.92-2.89-3.81-4.43-5.65l8.75,1.15s-9.17-7.44-15.33-8.33c-2.91.43-1.74-1.15,3.86-.86.48-1.24-4.93-3.48-4.53-4.61,8.13,3.74,15.61,8.76,22.98,14.37-.44-6.07-14.25-12.22-21.14-17.3.88-3.65,49,12.9.7-8.51-28.87-12.71,10.53-.56,10.53-.56-.65-3.21-13.33-8.28-17.68-13.05,11.53.35,15.22-.57,26.59,5.76-4.47-8.94-26.2-18.59-41.56-23.03,10.84-2.58,13.45-5.18,23.65-3.23-10.59-7.21-15.48-9.45-27.42-12.9-2.83-4.37,9.03-8.22,8.33-8.52-8.47-3.5-26.98-6.67-33.22-12.01,20.9-.2,20.97-3.14,41.05,2-26.76-16.39-35.58-15.36-66.26-13.69,14.46-9.6,30.83-11.64,47.35-13.3-20.02-7.55-39.82-6.24-59.59,2.58,11.71-15.37,20.95-20.73,35.81-31.56-85.72,20.88-27.47,58.73-69.46-10.43,4.24,14.43,4.2,18.18,4.97,33.67-7.1-9.61-14.86-18.21-25.15-23.94,6.38,10.59,13.54,20.68,12.24,34.75-18.7-26.11-31.48-25.28-61.09-30.51,20.16,9.65,26.77,6.41,39.98,26.43-29.11-17.4-42.34-14.01-72.52-7.84,15.53,1.32,14.31,1.13,29.62,5.19.06.47.12.93.19,1.4-7.68,1.43-15.35,2.86-23.01,4.29,0,.41,0,.81,0,1.22,16.32-.29,32.45.6,47.21,9.04-.07.6-.14,1.2-.2,1.8-10.98-1.48-21.97-2.96-32.96-4.44-.1.47-.2.94-.3,1.41,4.33,2.66,8.64,5.31,12.95,7.97-.1.52-.2,1.04-.3,1.56-32.16-7.47-24.65-3.62-48.49,5.4,25.6.81,25.88-1.83,43.16,5.78-33.42,3.48-38.9,3.9-59.35,28.73,18.95-15.13,21.78-7.6,46.22-11.63-22.24,8.87-40.78,16.22-53.53,38,11.32-9.42,23.25-11.48,36.64-17.02-1.66,1.53-2.38,2.68-2.16,3.47l1.97,1.31c-6.07,4.44-11.78,7.02-17.4,12.56,3.08.04,5.35.07,7.48.1l-2.25,2.22c.12.43.61.56,1.45.39-15.43,8.45-30.27,15.2-30.07,15.57,7.5-3.87,9.08,4.56,16.74,1.01l.19,1.07C7.79,162.93-.53,178.24.03,181.22c0,0,9.26-8.78,14.68-12.05l.75.79-5.09,4.3c-1.02,3.74-2.55,6.43-4.6,8.1l1.45,2.28c-.22.32-.45.63-.67.95.28.38.57.76.85,1.14-1.48,1.36-2.77,3.1-3.85,5.27l.17.59c2.91-.1,4.46.16,4.63.75-.04.06-.2.49-.28.5.02,0,.03,0,.05,0l-.55,1.17c.23.79,2.22.43,5.98-1.09-4.56,5.65-6.56,11.25-5.97,12.67,2.34-.93,5.75-2.34,6.98-.6,0,0,2.8,1.17,3.5,3.57-4.47,3.33-6.57,5.44-6.32,6.33l1.47.77c.37-.02,2.84-1.63,3.22-1.84l.17.6.74.39c-4.62,1.69-7.72,6.09-9.32,13.15l.34,1.17.73.39c.27-.16,4.59-3.12,4.75-2.95.28.28.04,4.11.05,4.53.86.46,3.29.29,7.31-.53l.17.6c-12.63,8.23-9.7,9.35-3.9,8.26-1.87,1.97-2.66,3.59-2.3,4.12.67-.16,1.43-.34,2.2-.49l-2.44,2.99s4.06-1.38,7.09-2.72c.36.11.92.32,1.47.62-1.29,1.47-3.02,2.85-4.74,3.62l1.08.18c-.71.46-1.01.8-.92,1.01,1.02.4,1.53.51,2.66.05l.16.09c-.13.24-.26.48-.37.72-2.83,1.27-4.87,3.41-6.09,6.45l.3.66c.99.49,1.7-.32,3.54-.9-.53,2.37-.46,3.79-.46,3.79,0,0,.83-.91,2.09-2.22-.02.21-.03.38-.03.43.61.2,2.08.19,4.41-.03-.23.29-.48.57-.76.84l.68.29c-9.7,4.03-5.4,4.19.53,3.36-.42.66-.76,1.37-1.02,2.12l.31.27c2.74-.86,4.27-1.16,4.58-.89-.02.04-.07.32-.14.34.01,0,.03-.01.04-.02l-.24.77c.34.3,1.65-.18,3.9-1.39.1.06.18.14.22.23-4.49,1.92-6.46,2.76-5.74,3.96l1.37.47-.62,1.19.3.66c.56.31,2.11-.13,3.67-.63-1.14,1.01-1.52,1.81-1.12,2.87l.58.35c-1.56.93-1.12,1.83,1.16,3.12.11-.02.26-.05.42-.08.05.31.16.67.3,1.09l4-1.01.16.6-.81,1.49.16.6.74.46c.13-.07.31-.16.51-.26-.04.09-.08.18-.11.27-2.77.98-2.43,2.54-.52,2.18-.07.59-.11,1.2-.09,1.84l.6.53c.63.04,3.42-.54,4.12-.59l.15.34-.78.83.15.34c1.48.61,4.92-1.4,6.68-1.36-1.08.99-2.19,1.15-3.39,2.31l.15.34.23.09c-2.68,2.84.13,2.2,4.07.54l.06.15c-.24.64-.27,1.27-.1,1.91,1.84-.42,3.15.14,3.93,1.63h1.62c.44.49,1.4,0,1.82.61l-.08.96.6.54.81.02c.94-.98,2.72-.67,3.98-.71.07.09.16.19.29.28.48-.4,1.69-.26,1.91-.28l.06.14c-2.39,1.63-3.56,2.32-3.2,3.17,0,0,0,0,0,0h.01c.45,1.12,2.74,1.81,3.65,1.16l2.98.95c1.93-1.78,2.72-1.65,4.74-.45-2.89,2.23-3.79,3.66-1.63,3.64,2.06-.89,2.83-1.17,3.51-.4-1.97.94-1.92,1.26-.89,2.04l3.66-1.68.3.27-.44,1.02c1.63,1.14,4.83-2.76,6.71-3.07l.1.1s.08-.02.12-.04l.19.17c-1.14.52-2.14,1.52-2.99,3,.92,1.31,4.37-2.28,5.26-2.38l-.36,1.81.61.55c2.21-.43,4.91-1.94,7.35-3.21.14.37.28.68.43.95-1.66,1.58-3.31,3.44-2.62,4.06,5.4-3.32,9.88-2.65,12.12-1.81.16.4.58,1.61.41,3.02,1.3.15,8.25-2.73,9.49.21,1.12.27,9.8-.21,10.31,1.07l6.71-1.14c2.01.2,3.85.4,4.25.07.01.54,2.41.02,4.76-.63,2.45.6,5.09,1.37,5.55,1.05-.01.29.47-.02,1.06-.5.58.48,1.05.78,1.05.5.45.32,3.12-.45,5.58-1.05,2.33.64,4.71,1.16,4.74.63.39.33,2.23.13,4.25-.07l6.68,1.13c.52-1.27,9.26-.8,10.35-1.06,1.36-2.92,8.17-.06,9.5-.21-.12-1.4.34-2.61.51-3,2.26-.83,6.77-1.49,12.06,1.8.71-.62-.88-2.47-2.49-4.03.16-.26.31-.57.46-.94,2.4,1.26,5.05,2.76,7.25,3.19l.63-.54-.3-1.79c.91.11,4.21,3.65,5.19,2.36-.81-1.47-1.77-2.46-2.89-2.97l.19-.17s.08.02.12.04l.11-.1c1.88.31,4.94,4.17,6.61,3.05l-.41-1.01.31-.27,3.61,1.66c1.06-.77,1.12-1.09-.82-2.02.71-.76,1.46-.48,3.49.4,2.16.03,1.31-1.39-1.51-3.6,2.07-1.18,2.86-1.3,4.73.46l3.01-.93c.88.65,3.2-.04,3.68-1.14h.01s0,0,0-.01c.39-.84-.76-1.52-3.1-3.13l.06-.14c.22.02,1.44-.12,1.9.28.14-.09.23-.18.3-.27,1.26.04,3.05-.26,3.96.71h.81s.62-.54.62-.54l-.05-.95c.44-.61,1.38-.11,1.83-.59h.07s-.01-.04-.02-.06c.01-.02.03-.03.05-.05.46-.04.97-.02,1.53.06.11-.15.16-.3.16-.45.15.17.3.34.44.51h3.45s-.01-1.05-.01-1.05l1.72-.04c.41-.46.56-1,.48-1.66,2.56.88,3.88.82,1.84-1.4l.23-.09.16-.33c-1.16-1.15-2.26-1.31-3.31-2.29,1.77-.03,5.13,1.95,6.64,1.36l.16-.33-.75-.82.16-.33c2-.51,8.58,4.52,5.29-1.68,1.65-.15,1.07-1.37-1.06-2.19-.51-1.9-2.12-3.2-3.37-4.78,1.07.13,2.74.17,3.64.85.01-.01.02-.03.03-.04,1.17.68,2.01,1.02,2.5,1.02.03-.09.1-.33.18-.65,1.11.24,2.03.45,2.5.54.52-.28.94-.54,1.27-.79.67.93,1.23,1.73,1.31,1.83h.85s.68-.92.68-.92c.13-2,.09-3.87-.11-5.61.19,0,.35-.03.47-.09l.32-.65-.58-1.17,1.38-.45c.57-.88-.38-1.57-2.77-2.67-.03-.09-.07-.18-.1-.27.7.26,1.15.33,1.33.18l-.22-.76s.03.01.04.02c-.07-.02-.11-.29-.13-.34.32-.26,1.84.03,4.55.9l.31-.26c-.24-.74-.56-1.43-.95-2.08,5.9.85,10.21.71.64-3.3l.69-.28c-.27-.26-.51-.54-.73-.83,2.32.23,3.8.25,4.41.06,0-.05,0-.22-.02-.42,1.22,1.29,2.02,2.19,2.02,2.19,0,0,.12-1.39-.34-3.72,1.83.59,2.5,1.38,3.51.91l.32-.64c-1.07-2.84-2.91-4.89-5.49-6.17-.06-.25-.13-.54-.23-.87.89.3,1.4.18,2.31-.16.1-.21-.19-.54-.88-1l1.08-.17c-1.54-.88-3.54-1.79-4.32-3.75.45-.21.89-.36,1.18-.45,2.99,1.35,7,2.73,7,2.73l-2.35-2.95c.76.16,1.52.34,2.19.51.08-.11.09-.28.07-.48.15.08.29.15.45.24l.35-.47c-.42-2.56-1.18-4.83-2.23-6.84.39-.21.79-.43,1.19-.64-.13-.41-.25-.81-.38-1.22l2.13-1.41c-1.02-1.72-1.66-3.77-1.95-6.13.26.04.52.08.78.12,0-2.04.01-3.79.01-5.18,3.63,5.97,7.19,12.96,7.19,12.96,0,0,.69-8.34-2.75-20.12l3.68-.96c-2.75-2.12-5.42-6.76-6.35-10.63,1.26,2.6,10.59,8.02,10.59,8.02l-8.76-19.38,9.85,2-11.36-9.7Zm-149.79,53.71c-8.81,24.26-34.87,30.04-58.2,12.91-23.33-17.13-35.09-50.68-26.28-74.94.97-2.67,2.16-5.11,3.53-7.33l33.4,20.44c-3.38,4.19-5.89,9.89-6.96,16.59-2.66,16.77,4.74,33.44,16.54,37.22,11.8,3.79,23.52-6.74,26.18-23.51.43-2.72.59-5.44.52-8.1l14.17,8.67c.06,6.31-.87,12.43-2.91,18.06Zm83.02,12.91c-23.33,17.13-49.39,11.35-58.2-12.91-2.04-5.63-2.97-11.75-2.91-18.06l14.17-8.67c-.07,2.66.09,5.38.52,8.1,2.66,16.77,14.39,27.3,26.18,23.51,11.8-3.79,19.2-20.45,16.54-37.22-1.06-6.7-3.58-12.4-6.96-16.59l33.4-20.44c1.36,2.22,2.56,4.66,3.53,7.33,8.81,24.26-2.95,57.81-26.28,74.94Z"/>
  </g>
</svg>