<?xml version="1.0" encoding="UTF-8"?>
<svg id="Layer_2" data-name="Layer 2" xmlns="http://www.w3.org/2000/svg" viewBox="0 0 360 320">
  <defs>
    <style>
      .cls-1 {
        fill: #231f20;
      }
    </style>
  </defs>
  <g id="Layer_1-2" data-name="Layer 1">
    <path class="cls-1" d="m359.65,225.71l-12.36-19.45,12.18,1.93-14.65-9.66h11.99s-11.09-16.74-12.05-17.85c-.37-2.62,12.33-1.07,12.33-1.07,0,0-12.27-5.39-18.39-5.49-1.87-1.92-3.78-3.8-5.76-5.63l10.61,1.06s-11.59-7.38-19.04-8.2c-3.46.46-2.16-1.13,4.57-.91.49-1.25-6.16-3.43-5.76-4.58,10.02,3.66,19.37,8.63,28.68,14.19-1.03-6.1-18.07-16.13-26.69-21.15.79-3.68,59.8,12.41.22-8.56-35.17-12.38,12.51-.7,12.51-.7-1.02-3.22-16.47-8.15-21.97-12.88,14.77,4.58,29.94,13.21,43.92,19.42-6.02-8.96-44.49-32.37-62.9-36.59l-.47.18c13.17-2.8,23.54-2.3,35.89-.47-12.94-7.08-26.42-12.51-40.64-15.79-3.57-4.33,10.07-8.4,9.23-8.68-10.1-3.37-31.87-6.23-39.4-11.48,24.32-.57,48.11,4.38,71.77,9.19-32.03-15.96-66.07-22.66-101.56-20.44,16.36-9.86,35.17-12.21,54.15-14.19-23.45-7.18-46.19-5.49-68.69,3.7,12.97-15.58,32.17-22.4,48.71-33.53-97.75,22.54-43.78,50.13-94-18.08,5.11,14.29,10.78,28.43,11.96,43.85-8.34-9.44-17.37-17.85-29.22-23.34,7.42,10.41,15.78,20.32,14.5,34.36-21.82-25.63-51.07-38.17-85-42.77,23.08,9.18,45.27,19.45,60.55,39.1-33.56-16.74-68.29-12.21-103.18-5.52,17.9,1.01,35.99-.06,53.61,3.68.07.46.13.92.2,1.38-8.9,1.56-17.79,3.12-26.69,4.68-.01.4-.02.81-.03,1.21,18.91-.58,37.58.01,54.66,8.13-.08.6-.16,1.19-.24,1.79-12.75-1.28-25.5-2.55-38.25-3.83-.12.47-.25.93-.37,1.4,4.99,2.56,9.98,5.12,14.97,7.68-.12.52-.24,1.03-.37,1.55-37.31-6.85-59.8-.13-91.72,16.42,28.58-6.1,56.36-16.4,85.38-5.24-39.19,3.99-65.66,26.47-90.53,51.32,22.84-15.23,46-29.8,74.88-34.16-26.42,9.12-48.27,23.64-64.26,45.33,13.84-9.45,27.8-18.64,43.85-24.3-2,1.53-2.9,2.69-2.65,3.46l2.31,1.27c-7.33,4.47-14.2,7.1-21.08,12.65h8.93l-2.75,2.22c.14.43.71.55,1.72.37C24.52,151.23-.23,175.37,0,175.74c9.17-3.91,17.39-8.91,26.74-12.5l.19,1.05c-15.48,13.92-26.23,29.11-25.69,32.05,0,0,11.63-8.75,18.32-12.03l.88.77-6.34,4.3c-1.4,3.7-3.37,6.37-5.93,8.04l1.66,2.24c-.29.31-.57.63-.86.94.33.37.66.74.98,1.11-1.86,1.36-3.51,3.09-4.92,5.24l.19.58c3.56-.12,5.44.12,5.62.71-.05.06-.26.49-.36.49.02,0,.04,0,.06,0l-.72,1.15c.25.78,2.7.41,7.35-1.13-5.81,5.62-8.5,11.16-7.84,12.55,2.92-.93,7.15-2.35,8.59-.65,0,0,3.4,1.13,4.15,3.5-5.63,3.32-8.3,5.41-8.03,6.29l1.78.75c.46-.02,3.57-1.62,4.04-1.84l.19.59.89.38c-5.76,1.7-9.77,6.06-12.05,13.03l.37,1.15.89.38c.34-.16,5.81-3.11,6.01-2.94.33.28-.11,4.05-.12,4.47,1.04.45,4.07.26,9.08-.56l.19.59c-16,8.19-12.41,9.28-5.16,8.18-2.41,1.95-3.45,3.55-3.03,4.08.84-.16,1.8-.35,2.76-.5l-3.16,2.96s5.11-1.38,8.94-2.72c.44.11,1.13.31,1.8.61-1.66,1.46-3.87,2.83-6.05,3.6l1.34.18c-.9.46-1.3.79-1.18,1,1.25.39,1.89.5,3.31.04l.2.09c-.17.24-.34.48-.49.71-3.59,1.26-6.21,3.39-7.86,6.39l.35.65c1.22.48,2.14-.32,4.47-.9-.76,2.34-.73,3.74-.73,3.74,0,0,1.08-.9,2.7-2.2-.03.21-.06.37-.06.43.75.19,2.59.18,5.52-.05-.3.29-.62.57-.98.83l.84.28c-12.31,4.01-6.92,4.16.54,3.32-.55.66-1,1.35-1.36,2.09l.37.26c3.47-.86,5.4-1.16,5.78-.89-.03.04-.1.32-.19.34.02,0,.04-.01.05-.02l-.33.77c.41.29,2.07-.18,4.94-1.39.12.06.21.14.27.23-5.69,1.91-8.21,2.74-7.34,3.93l1.7.46-.82,1.18.35.66c.7.3,2.66-.13,4.63-.64-1.46,1.01-1.98,1.8-1.51,2.84l.71.34c-1.99.93-1.47,1.81,1.36,3.08.14-.02.32-.05.53-.08.05.31.18.66.35,1.07l5.08-1.01.19.59-1.07,1.47.19.59.91.45c.17-.07.39-.16.65-.26-.05.09-.11.18-.15.27-3.52.97-3.15,2.52-.73,2.15-.11.58-.17,1.19-.17,1.82l.74.52c.79.04,4.34-.54,5.23-.59l.18.33-1.01.82.18.33c1.85.6,6.26-1.39,8.48-1.36-1.39.99-2.79,1.14-4.34,2.29l.18.33.29.09c-3.47,2.82.11,2.18,5.13.53l.08.14c-.32.63-.38,1.26-.18,1.89,2.34-.42,3.98.13,4.94,1.61h2.05c.55.48,1.77-.01,2.28.6l-.13.95.75.53h1.03c1.21-.95,3.45-.65,5.06-.69.08.09.2.18.36.28.62-.4,2.14-.25,2.43-.28l.07.14c-3.06,1.62-4.56,2.3-4.12,3.14,0,0,0,0,0,0h.01c.55,1.11,3.45,1.8,4.6,1.15l3.76.94c2.48-1.76,3.47-1.63,6.03-.45-3.71,2.21-4.88,3.63-2.12,3.61,2.64-.88,3.61-1.16,4.46-.4-2.51.93-2.46,1.25-1.16,2.02l4.68-1.67.38.27-.58,1.01c2.06,1.13,6.18-2.74,8.57-3.05l.13.1c.05-.01.1-.02.15-.04l.24.17c-1.45.51-2.73,1.51-3.83,2.98,1.15,1.3,5.58-2.26,6.71-2.36l-.48,1.79.77.54c2.82-.42,6.26-1.92,9.37-3.19.18.37.35.68.54.94-2.11,1.57-4.22,3.42-3.35,4.04,6.88-3.3,12.58-2.63,15.42-1.8.2.39.73,1.6.52,3,1.66.15,10.49-2.72,12.08.21,1.42.26,12.48-.21,13.14,1.06l8.54-1.13c2.56.2,4.91.4,5.41.07.03.54,3.07.02,6.05-.62,3.13.59,6.51,1.36,7.08,1.05,0,.29.6-.02,1.35-.49.75.48,1.35.78,1.35.49.57.32,3.96-.45,7.08-1.05,2.99.64,6.03,1.16,6.05.62.5.33,2.85.13,5.41-.07l8.54,1.13c.62-1.27,11.76-.8,13.14-1.06,1.62-2.92,10.4-.06,12.08-.21-.21-1.4.32-2.61.52-3,2.84-.83,8.54-1.5,15.42,1.8.87-.62-1.24-2.47-3.35-4.04.19-.26.36-.58.54-.94,3.11,1.26,6.55,2.76,9.37,3.19l.77-.54-.48-1.79c1.16.11,5.54,3.65,6.71,2.36-1.1-1.47-2.38-2.46-3.83-2.98l.24-.17c.05.01.1.02.15.04l.13-.1c2.4.31,6.49,4.18,8.57,3.05l-.58-1.01.38-.27,4.68,1.67c1.3-.77,1.36-1.09-1.16-2.02.86-.76,1.83-.48,4.46.4,2.75.03,1.58-1.39-2.12-3.61,2.56-1.18,3.56-1.31,6.03.45l3.76-.94c1.16.65,4.05-.04,4.6-1.14h.01s0,0,0-.01c.44-.84-1.06-1.52-4.12-3.14l.07-.14c.28.02,1.81-.12,2.43.28.17-.09.28-.18.36-.28,1.6.04,3.85-.26,5.06.71h1.03s.75-.54.75-.54l-.13-.95c.51-.61,1.74-.12,2.28-.6h.09s-.02-.04-.03-.06c.02-.02.04-.03.06-.05.58-.04,1.23-.02,1.94.06.13-.15.18-.3.18-.45.2.17.4.35.59.51h4.37l-.08-1.05,2.18-.05c.49-.47.64-1.01.5-1.67,3.3.88,4.97.82,2.22-1.41l.29-.09.18-.33c-1.55-1.16-2.95-1.31-4.34-2.29,2.23-.03,6.62,1.95,8.48,1.36l.18-.33-1.01-.82.18-.33c2.49-.52,11.18,4.53,6.56-1.7,2.07-.15,1.25-1.38-1.49-2.2-.78-1.91-2.91-3.22-4.6-4.79,1.36.13,3.46.17,4.64.84.02-.01.02-.03.03-.04,1.53.68,2.6,1.02,3.22,1.02.03-.09.1-.33.18-.65,1.42.24,2.59.45,3.18.54.63-.28,1.14-.55,1.54-.8.91.94,1.68,1.73,1.79,1.84h1.07s.79-.93.79-.93c0-2.01-.19-3.89-.58-5.64.24,0,.44-.03.59-.09l.35-.66-.82-1.18,1.7-.46c.65-.89-.61-1.58-3.68-2.68-.05-.09-.1-.18-.14-.27.9.26,1.47.33,1.68.17l-.33-.77s.04.01.05.02c-.09-.02-.16-.29-.19-.34.38-.27,2.31.03,5.78.89l.37-.26c-.35-.74-.81-1.44-1.36-2.09,7.46.84,12.85.69.54-3.32l.84-.28c-.36-.26-.68-.54-.98-.83,2.93.22,4.77.24,5.52.05,0-.05-.03-.22-.06-.43,1.63,1.3,2.7,2.2,2.7,2.2,0,0,.03-1.4-.73-3.74,2.33.58,3.24,1.38,4.47.9l.35-.65c-1.57-2.86-4.03-4.91-7.35-6.19-.09-.25-.21-.54-.36-.87,1.13.3,1.76.18,2.87-.17.11-.21-.29-.54-1.18-1l1.34-.18c-1.99-.88-4.55-1.79-5.68-3.75.55-.21,1.07-.37,1.43-.46,3.83,1.34,8.94,2.72,8.94,2.72l-3.16-2.96c.96.15,1.92.34,2.76.5.09-.11.09-.28.05-.48.2.08.38.15.58.24l.4-.47c-.73-2.58-1.86-4.86-3.34-6.87.47-.22.94-.43,1.42-.65-.19-.41-.38-.82-.57-1.23l2.52-1.43c-1.4-1.73-2.37-3.78-2.91-6.15.32.04.65.08.98.12-.16-2.05-.3-3.81-.41-5.21,4.98,5.98,9.98,13.01,9.98,13.01,0,0,.13-8.4-5.1-20.25l4.45-.99c-3.56-2.12-7.22-6.77-8.68-10.65,1.76,2.6,13.67,8,13.67,8Zm-195.45,34.32c-11.23,21.74-44.42,26.91-74.13,11.56-29.71-15.35-44.7-45.41-33.47-67.15,1.24-2.4,2.76-4.58,4.49-6.57l42.55,18.31c-4.31,3.76-7.51,8.86-8.86,14.87-3.39,15.03,6.04,29.96,21.07,33.35,15.03,3.39,29.96-6.04,33.35-21.07.55-2.44.76-4.87.66-7.26l18.05,7.77c.07,5.65-1.1,11.14-3.71,16.18Zm105.74,11.56c-29.72,15.35-62.91,10.17-74.13-11.56-2.6-5.04-3.78-10.53-3.71-16.18l18.05-7.77c-.09,2.38.11,4.82.66,7.26,3.39,15.03,18.32,24.46,33.35,21.07,15.03-3.39,24.46-18.32,21.07-33.35-1.35-6-4.55-11.11-8.86-14.87l42.55-18.31c1.74,1.99,3.26,4.17,4.49,6.57,11.23,21.74-3.76,51.8-33.47,67.15Z"/>
  </g>
</svg>