solid OpenSCAD_Model
  facet normal 0 0 -1
    outer loop
      vertex 1.67998 -5.17046 13
      vertex 1.67998 5.17046 13
      vertex 5.43654 0 13
    endloop
  endfacet
  facet normal 0 0 -1
    outer loop
      vertex -4.39825 -3.19551 13
      vertex 1.67998 5.17046 13
      vertex 1.67998 -5.17046 13
    endloop
  endfacet
  facet normal 0 0 -1
    outer loop
      vertex 1.67998 5.17046 13
      vertex -4.39825 -3.19551 13
      vertex -4.39825 3.19551 13
    endloop
  endfacet
  facet normal 0.809017 -0.587785 0
    outer loop
      vertex 1.67998 -5.17046 19
      vertex 5.43654 0 13
      vertex 5.43654 0 19
    endloop
  endfacet
  facet normal 0.809017 -0.587785 0
    outer loop
      vertex 5.43654 0 13
      vertex 1.67998 -5.17046 19
      vertex 1.67998 -5.17046 13
    endloop
  endfacet
  facet normal 0 0 1
    outer loop
      vertex 1.67998 5.17046 19
      vertex 1.67998 -5.17046 19
      vertex 5.43654 0 19
    endloop
  endfacet
  facet normal -0 0 1
    outer loop
      vertex -4.39825 3.19551 19
      vertex 1.67998 -5.17046 19
      vertex 1.67998 5.17046 19
    endloop
  endfacet
  facet normal 0 0 1
    outer loop
      vertex 1.67998 -5.17046 19
      vertex -4.39825 3.19551 19
      vertex -4.39825 -3.19551 19
    endloop
  endfacet
  facet normal -0.309019 0.951056 0
    outer loop
      vertex 1.67998 5.17046 13
      vertex -4.39825 3.19551 19
      vertex 1.67998 5.17046 19
    endloop
  endfacet
  facet normal -0.309019 0.951056 0
    outer loop
      vertex -4.39825 3.19551 19
      vertex 1.67998 5.17046 13
      vertex -4.39825 3.19551 13
    endloop
  endfacet
  facet normal -1 0 0
    outer loop
      vertex -4.39825 -3.19551 13
      vertex -4.39825 3.19551 19
      vertex -4.39825 3.19551 13
    endloop
  endfacet
  facet normal -1 -0 0
    outer loop
      vertex -4.39825 3.19551 19
      vertex -4.39825 -3.19551 13
      vertex -4.39825 -3.19551 19
    endloop
  endfacet
  facet normal -0.309019 -0.951056 0
    outer loop
      vertex -4.39825 -3.19551 13
      vertex 1.67998 -5.17046 19
      vertex -4.39825 -3.19551 19
    endloop
  endfacet
  facet normal -0.309019 -0.951056 -0
    outer loop
      vertex 1.67998 -5.17046 19
      vertex -4.39825 -3.19551 13
      vertex 1.67998 -5.17046 13
    endloop
  endfacet
  facet normal 0.809017 0.587785 0
    outer loop
      vertex 5.43654 0 19
      vertex 1.67998 5.17046 13
      vertex 1.67998 5.17046 19
    endloop
  endfacet
  facet normal 0.809017 0.587785 0
    outer loop
      vertex 1.67998 5.17046 13
      vertex 5.43654 0 19
      vertex 5.43654 0 13
    endloop
  endfacet
endsolid OpenSCAD_Model
