solid OpenSCAD_Model
  facet normal 0 0 -1
    outer loop
      vertex -4.756 -6.31999 13
      vertex 4.756 6.31999 13
      vertex 4.756 -6.31999 13
    endloop
  endfacet
  facet normal -0 0 -1
    outer loop
      vertex 4.756 6.31999 13
      vertex -4.756 -6.31999 13
      vertex -4.756 6.31999 13
    endloop
  endfacet
  facet normal 1 -0 0
    outer loop
      vertex 4.756 -6.31999 19
      vertex 4.756 6.31999 13
      vertex 4.756 6.31999 19
    endloop
  endfacet
  facet normal 1 0 0
    outer loop
      vertex 4.756 6.31999 13
      vertex 4.756 -6.31999 19
      vertex 4.756 -6.31999 13
    endloop
  endfacet
  facet normal 0 -1 0
    outer loop
      vertex -4.756 -6.31999 13
      vertex 4.756 -6.31999 19
      vertex -4.756 -6.31999 19
    endloop
  endfacet
  facet normal 0 -1 -0
    outer loop
      vertex 4.756 -6.31999 19
      vertex -4.756 -6.31999 13
      vertex 4.756 -6.31999 13
    endloop
  endfacet
  facet normal -0 0 1
    outer loop
      vertex -4.756 6.31999 19
      vertex 4.756 -6.31999 19
      vertex 4.756 6.31999 19
    endloop
  endfacet
  facet normal 0 0 1
    outer loop
      vertex 4.756 -6.31999 19
      vertex -4.756 6.31999 19
      vertex -4.756 -6.31999 19
    endloop
  endfacet
  facet normal -1 0 0
    outer loop
      vertex -4.756 -6.31999 13
      vertex -4.756 6.31999 19
      vertex -4.756 6.31999 13
    endloop
  endfacet
  facet normal -1 -0 0
    outer loop
      vertex -4.756 6.31999 19
      vertex -4.756 -6.31999 13
      vertex -4.756 -6.31999 19
    endloop
  endfacet
  facet normal 0 1 -0
    outer loop
      vertex 4.756 6.31999 13
      vertex -4.756 6.31999 19
      vertex 4.756 6.31999 19
    endloop
  endfacet
  facet normal 0 1 0
    outer loop
      vertex -4.756 6.31999 19
      vertex 4.756 6.31999 13
      vertex -4.756 6.31999 13
    endloop
  endfacet
endsolid OpenSCAD_Model
