<?xml version="1.0" encoding="UTF-8"?>
<svg id="Layer_2" data-name="Layer 2" xmlns="http://www.w3.org/2000/svg" viewBox="0 0 22 33">
  <defs>
    <style>
      .cls-1 {
        fill: #231f20;
      }
    </style>
  </defs>
  <g id="Layer_1-2" data-name="Layer 1">
    <g>
      <path class="cls-1" d="m1.62,8.95l1.96-.96,3.08-.36,2.33-.84.84-2.51-.19-1.91-1.31.36-2.05-1.67L2.17,0,.5,1.67v3.1l1.4,1.31-.28,2.86ZM6.96,3.9l2.14.48-.03.76-2.64.16.53-1.39Zm-3.67-.92l2.64.84.19,1.51-3.45.44-.06-1.99.68-.8Z"/>
      <path class="cls-1" d="m14.11,7.04l3.36.84,3.26,1.07-.37-2.27,1.49-1.67-.09-3.46-3.17-1.19-4.66,2.51-1.77-.48-.47,1.55.65,2.51,1.77.6Zm2.33-3.14l2.64-.84.53.76.09,2.03-3.45-.44.19-1.51Zm-1.03.08l.53,1.39-2.64-.16-.28-.76,2.39-.48Z"/>
      <path class="cls-1" d="m18.74,9.45l-8.02.43-6.71-.43-2.14,2.14-1.03,3.53-.84,1.18,1.49,4.5.19,6.1,1.49,3.75,4.29,2.35,6.9-.54,3.92-1.71,1.49-10.7,1.96-4.07.28-1.5-3.26-5.03Zm-2.32,18.03l-1.38,1.61-2.2.96-2.03.11-2.77-.11-1.95-.96-1.46-1.07-.73-1.39-.16-2.35.89-.64.88,1.33.85-1.62.34,1.6.3-.88.58,1.33.71-.52.09,1.49.52-1.62.59,1.18.61-1.56.62,1.24.76-.72.26,1.59.15-.62.63.38.57-.99.63.75.62-1.84,1.03,1.3h0s.57-1.07.57-1.07l.73-.11-.24,3.21Zm2.66-11.55l-.71,2.39-1.19-1.72-.95-.48-1.9,6.12-.63-6.02-1.58-.67-1.4-.19-1.37.19-1.9.19-.95,6.21-1.35-5.35-1.03.29-.79,1.43-.87-.76.16-1.43.79-2.29,1.43-1.24,1.66-.57h3.25l4.83-.29,2.3.19,1.11,1.53,1.11,1.43v1.05Z"/>
    </g>
  </g>
</svg>