<?xml version="1.0" encoding="UTF-8"?>
<svg id="Layer_2" data-name="Layer 2" xmlns="http://www.w3.org/2000/svg" viewBox="0 0 22 33">
  <defs>
    <style>
      .cls-1 {
        fill: #231f20;
      }
    </style>
  </defs>
  <g id="Layer_1-2" data-name="Layer 1">
    <path class="cls-1" d="m21.07,20.65c.03-.19.08-.32.16-.39.03-.32.28-.5.77-.52-.01-.06-.03-.37-.06-.92-.01-.52-.04-.81-.08-.86.03,0-.04-.02-.2-.07-.01-.05-.03-.12-.04-.22-.01-.11-.03-.19-.04-.24-.01-.04-.07-.1-.18-.19-.09-.1-.15-.17-.16-.21-.08-.12-.14-.3-.16-.54-.05-.27-.1-.47-.14-.58-.31-.88-.81-1.52-1.5-1.9v-.26c-.23-.04-.44-.14-.63-.3-.27-.25-.44-.39-.51-.43-.04,0-.11,0-.2-.02-.1-.01-.17-.02-.22-.04-.05-.02-.14-.08-.24-.17-.09-.09-.18-.14-.26-.17-.19.06-.26.09-.2.07-.08-.04-.2-.13-.37-.28-.15-.14-.27-.22-.36-.24,0-.01-.05-.01-.16,0-.09.03-.18.03-.26,0-.01-.01-.03-.04-.04-.07-.03-.04-.06-.06-.1-.06-.19.1-.3.14-.34.13-.03-.04-.05-.08-.08-.13-.03-.06-.05-.11-.06-.13-.12-.07-.29-.12-.51-.15-.19-.02-.33-.09-.43-.19h-.08v-.07c.31-.15.52-.37.63-.67.03-.07.07-.22.14-.45.05-.21.11-.39.16-.52.11-.26.3-.61.59-1.05.32-.5.53-.85.63-1.05-.2-.16-.42-.49-.65-.99-.01-.04-.03-.08-.06-.13.04-.03.13-.06.26-.09.13-.04.24-.07.3-.11l.28-.32c.09-.05.21-.07.34-.06.15.01.25,0,.3-.02.32-.02.56-.17.71-.45.03-.06.08-.19.16-.39.07-.17.13-.31.2-.41.04-.02.09-.07.16-.13.08-.06.14-.11.18-.13-.04.06.15-.33.57-1.18.09-.17.15-.4.16-.67,0-.27.04-.49.12-.65.03-.05.1-.16.22-.32.11-.19.2-.34.26-.45.22-.39.27-.65.16-.8-.01-.14-.11-.29-.28-.47-.19.01-.34.06-.47.13-.15.11-.26.18-.32.21-.07.01-.16-.01-.28-.07-.31.03-.57.09-.77.21-.04.05-.1.14-.16.26l-.85-.07c-.07.03-.18.07-.34.13-.18.07-.3.12-.37.13-.19-.01-.47-.03-.85-.06-1.22.27-1.84.42-1.87.45-.13-.03-.28-.11-.43-.26-.13-.14-.21-.24-.22-.32-.19,0-.47.11-.85.32-.17.43-.26.68-.29.77.04-.19-.21-.49-.79-.9-.04-.03-.1-.04-.18-.06s-.14-.04-.16-.07c-.32.01-.85.12-1.58.34-.12.04-.28.01-.47-.07-.2-.09-.38-.11-.53-.06-.09.03-.25.08-.47.17-.19.09-.32.14-.38.15-.09.02-.26-.02-.51-.13-.27-.12-.41-.19-.43-.19-.07-.01-.2.03-.41.13-.18.09-.32.11-.45.06v-.13c-.22-.09-.46-.08-.73.02-.3.1-.55.12-.77.06-.01-.01-.03-.04-.04-.07-.01-.02-.03-.04-.04-.06-.05-.01-.2-.02-.43-.02-.2.01-.37,0-.51-.06-.03-.05-.05-.09-.06-.13-.05,0-.15.03-.28.09-.16.06-.26.1-.28.11-.47.09-.93.02-1.36-.2-.34,0-.65.07-.93.2C-.07,1.6,0,2.22.3,2.84c-.04.22-.07.42-.08.58.03.09.1.26.22.5.11.25.18.41.2.49.05.14.06.31.02.52-.03.22-.03.38-.02.47,0,.01-.16.68.32,1.98-.03.26-.05.45-.06.58.01.05.07.12.16.22.09.11.55.19.57.24.42-.03.64-.15.65-.37.04-.54.07-.81.08-.82.03-.07.15-.26.38-.56.16-.22.24-.45.24-.67.15-.02.28-.07.41-.13.18-.09.28-.14.32-.15.04-.01.64-.06,1.78-.13l.08-.07c.05-.05.12-.07.2-.06.08.03.28.09.61.19.34.11.56.18.67.2.14-.12.28-.21.43-.26.04-.01.09-.03.14-.06.15.24.24.44.28.6.83.04,1.3.01,1.44-.07,0-.02.01-.06.04-.09.01-.05.02-.09.02-.11.22-.07.49-.06.81.04.34.1.55.14.63.11h.28c.03.05.05.09.06.13.01-.05-.18.12-.57.52l.04.19c.01.12-.07.24-.24.34.05.46.53.81,1.42,1.05,0,.2-.02.35-.06.47-.16,0-.51.02-1.06.06-.39.04-.69.04-.89,0-.04.07-.14.14-.28.2-.13.07-.23.14-.28.21-.18.24-.29.41-.34.52v.39c-.05.11-.16.26-.32.45-.18.2-.28.34-.32.41-.05.09-.09.22-.1.41-.03.16-.07.29-.12.37-.12.19-.36.52-.71,1.01-.32.44-.56.78-.71,1.03-.08.14-.17.36-.26.67-.09.29-.2.5-.3.65-.04.04-.13.11-.26.22-.12.1-.2.17-.24.22.08.14.15.33.22.58.08.26.15.44.2.54.17-.04.29-.11.34-.22.09-.16.17-.26.22-.3.38-.24.81-.41,1.3-.52.12-.04.28-.03.49.02.2.04.37.03.51-.02.05-.02.11-.08.18-.17.08-.1.14-.16.18-.17h.2s.06.02.14.07c.08.04.13.06.14.06.03,0,.12-.02.28-.07.15-.05.25-.07.3-.06.01.01.05.07.12.17.07.1.12.16.16.17.03,0,.24,0,.63.02.39.01.61.03.65.04,1.65.45,2.77.98,3.37,1.59.11.05.39-.04.83-.28.41-.21.68-.38.81-.5h.14c-.01.24-.08.5-.2.8-.11.29-.16.59-.16.9.66.56,1.02.93,1.07,1.12.09.31.11.75.06,1.31-.01.24-.03.33-.06.28.39.86.44,1.47.14,1.83.2.4.01,1.12-.57,2.17-.05.09-.1.24-.14.45-.04.19-.09.32-.14.41-.11.15-.28.26-.51.34-.27.09-.44.15-.51.19-.04.04-.07.11-.1.22-.04.12-.07.2-.1.24-.1.12-.25.24-.47.35-.28.14-.46.24-.53.3-.08.06-.16.19-.22.39-.08.2-.16.33-.22.39-.19.2-.4.36-.63.47h-.22c-.12.07-.24.25-.34.52-.14.32-.24.52-.3.6-.18.22-.43.4-.77.52-.15.02-.29.05-.43.07-.04.02-.1.09-.18.19-.07.1-.13.17-.18.2-.45.22-.99.42-1.64.6-.18.04-.5.04-.97,0-.42-.04-.72-.02-.89.06-.03.01-.06.07-.1.17-.04.1-.07.16-.1.17-.12.06-.31.04-.57-.06-.3-.11-.49-.16-.59-.15.01,0-.08.07-.28.21-.41-.21-.61-.98-.62-.99-.12-.01-.29-.02-.51-.04-.22-.01-.39-.02-.51-.02-.11-.04-.29-.57-.5-.7-.22-.12-.36-.2-.45-.22-.05.01-.14.69-.23.71-.42-.11-.68-.83-.78-.84-.12.02-.24.04-.34.06-.15-.03-.38-.1-.71-.22-.28-.11-.53-.19-.73-.22-.11-.02-.22-.01-.34.04-.18.05-.28,1.19-.34,1.2.05.09.1.15.14.19.22.37.84.7,1.87.99.08.01.21.02.38.04.18.01.3.03.39.04.09.04.22.12.38.26.15.14.26.22.34.26.09.04.25.06.47.06.2,0,.35.02.45.07,1.19.54,2.22.73,3.08.6h.79s.05-.08.1-.13c.04-.06.07-.11.1-.13.03-.02.09,0,.18.07.11.07.17.11.18.11h.71c.15-.01.6,0,1.36.04.57.04.99,0,1.28-.09.07-.02.16-.08.26-.17.11-.09.19-.14.24-.17.09-.04.22-.04.39-.02.16.02.27.03.32.02.12-.16.17-.23.14-.21l.57-.06c.04-.06.09-.13.14-.2.08-.04.22-.09.41-.15.17-.06.3-.12.38-.17.12-.09.24-.29.36-.6.12-.31.24-.51.34-.6h.28c.2-.11.37-.26.51-.45.03-.05.05-.12.06-.22.01-.09.04-.15.08-.19.07-.04.2-.09.39-.15.15-.04.26-.09.32-.17.04-.07.09-.17.14-.3.08-.15.13-.25.14-.3.07-.03.17-.04.3-.04.13.01.23,0,.28-.02.09-.06.18-.16.26-.28.11-.17.18-.28.22-.32.05-.05.18-.11.36-.19.18-.07.29-.14.34-.2.08-.09.13-.25.16-.49.03-.25.07-.42.14-.5,0-.01.03-.03.1-.06.05-.02.09-.05.1-.07v-.34c.61-1.31,1.01-2.16,1.22-2.56.05-.1.09-.24.1-.43.03-.19.07-.33.12-.43.11-.06.18-.11.2-.13.03-.06.02-.22-.02-.47-.03-.2.03-.37.16-.52-.04-.54-.3-.88-.79-1.05Z"/>
  </g>
</svg>