<?xml version="1.0" encoding="UTF-8"?>
<svg id="Layer_2" data-name="Layer 2" xmlns="http://www.w3.org/2000/svg" viewBox="0 0 22 33">
  <defs>
    <style>
      .cls-1 {
        fill: #231f20;
      }
    </style>
  </defs>
  <g id="Layer_1-2" data-name="Layer 1">
    <path class="cls-1" d="m21.64.66s-.14-.01-.36,0v-.37c-.05-.01-.16,0-.3.02-.14.01-.24,0-.32-.02-.01,0-.06-.05-.14-.15-.07-.07-.14-.09-.22-.06-.01,0-.05.03-.1.1l-.1.1c-.27.11-.75.09-1.44-.06-.15-.04-.3-.03-.47.04-.13.05-.24.06-.32.02-.13.04-.34.24-.63.58v.08c-.32-.11-.53-.33-.64-.66-.07.03-.61.15-1.64.36-.12.03-.32,0-.59-.06-.22-.06-.4-.04-.55.06-.04.01-.26.23-.65.64.01.39.08.66.2.81.05.03.17,0,.36-.06.09.18.32.45.69.81.32.33.53.62.61.87-.05.31-.08.45-.08.44.38.78.57,1.19.57,1.25s-.02.33-.06.83c-.04.4-.04.69,0,.85.16.79.21,1.35.14,1.68-.03.14,0,.39.06.75.07.32.05.58-.06.79.01.04.06.1.14.19.08.07.13.13.14.17.05.15,0,.62-.14,1.39-.04.22,0,.64.12,1.27.09.54.07.92-.06,1.14-.07.06-.21.05-.42-.02-.3-.07-.53-.11-.71-.13-.04.06-.13.13-.26.23-.12.08-.2.16-.24.23-.04.07-.08.19-.12.37-.04.17-.09.28-.16.35v.06c-.23-.08-.54-.42-.93-1.02.07,0-.24.12-.91.37-.05.01-.43-.08-1.13-.29-.7-.21-1.08-.33-1.15-.37-.12.03-.2.08-.22.17-.04.1-.09.16-.14.19-.04.04-.28.1-.73.19-.46.11-.74.15-.83.12-.04-.01-.17-.08-.38-.21-.18-.1-.36-.15-.55-.17.08-.9.13-1.36.14-1.39.12-.08.2-.13.22-.15-.05-.33-.08-.48-.08-.44.05-.69.13-1.14.22-1.33.01-.04.08-.12.2-.23.12-.11.2-.2.22-.27-.04-.14.05-.48.28-1.04.27-.65.17-1.26-.28-1.83.07-.17.11-.26.14-.29h.34c.09-.04.21-.13.34-.27.15-.17.25-.27.3-.31.12-2.55.48-4.06,1.07-4.53.03-.03.11-.01.24.04.15.05.26.06.32.02.12-.06.29-.27.51-.64-.04.03-.07-.17-.08-.6-.09-.04-.36-.13-.81-.25-.36-.1-.61-.21-.75-.33-.07.04-.12.1-.16.19-.04.1-.08.16-.12.19-.16.08-.38.15-.67.21-.34.05-.57.11-.69.17-.03-.03-.27-.17-.73-.44-.3-.18-.41-.43-.34-.75-.22-.1-.36-.19-.42-.29-.32,0-.59.08-.79.23-.24.17-.43.26-.57.29-.01,0-.07-.02-.18-.06-.09-.03-.18-.03-.24-.02-.8.19-1.27.32-1.44.37-.15.33-.17.58-.06.73.01.28.1.46.26.54.03.03.1.07.22.13.12.04.22.09.3.15.2.3.28.68.24,1.12-.01.07-.05.27-.1.6-.04.26-.07.49-.08.69h-.22c.19.51.03,1.46-.48,2.85.01.12.03.3.06.52.01.22-.05.71-.2,1.46.07.36.09.48.06.37,0,.03-.05.08-.14.15-.08.08-.13.13-.14.14-.05.14-.08.33-.08.56,0,.28-.02.48-.06.6-.16.53-.26.78-.28.75,0,.11-.03.28-.08.5-.07.25-.11.43-.12.54-.07.42.05.73.34.94-.07.19-.26.34-.57.44-.35.11-.57.24-.65.37-.04.06-.05.14-.02.25.03.11.03.17.02.19-.07.04-.14.09-.2.15-.03.08,0,.26.1.54.09.27.1.49.04.68-.04.05-.31.61-.83,1.71-.4.83-.53,1.36-.38,1.6v.15c.24.07.66.14,1.25.21.59.1,1.03.17,1.31.23.09.03.21.02.34-.02.15-.04.24-.05.28-.04.98.22,1.6.29,1.86.21.22-.05.45,0,.69.17.24.17.42.24.53.21.12-.03.3-.11.55-.25.24-.14.42-.23.53-.27.18-.06.42-.06.75-.02.3.03.5.01.61-.04.03-.01.07-.06.14-.15.07-.08.11-.13.14-.15.66.31,1.32.08,1.98-.66v-.08h.08c.11.22.18.35.2.37.42.32.76.44,1.01.37l.1-.12c.07-.08.13-.12.18-.1.36.08.57.11.63.08.28-.17.45-.24.51-.23.92.15,1.62.34,2.1.56-.11.56-.17.83-.2.79.09.02.17.03.22.04v.36s.13.07.28.14c.07.11.11.28.12.5,0,.22,0,.34.02.36.13.23.2.35.2.36.04.22.04.64,0,1.28-.03.62-.03,1.02,0,1.22.03.12.01.31-.04.57-.04.24-.05.38-.02.43.04.08.14.16.3.24.19.1.3.17.34.21-.03-.02.04-.17.2.92v.85c.05.13.15.32.3.55.19.29-.16,1.1-.12,1.16.16.3.12.5-.14.6.57,1.74,1.32,1.93,1.32,1.84.16.02.28.05.36.1.15-.04.26-.12.34-.24.13-.15.13-.47,0-.95-.14-.45-.28-.74-.42-.85.01-.1.07-.21.18-.31.11-.1.17-.2.18-.3.05-.3.03-.64-.08-1-.03-.1-.02-.28.02-.51.05-.27.07-.45.06-.54-.09-.62-.14-.91-.14-.9.16-1.08.13-1.28-.08-1.97-.01-.05,0-.16.04-.33.04-.17.05-.28.04-.33-.08-.31.01-.86.28-1.65-.14-.67-.23-1.16-.28-1.45.04-.12.28-.36.71-.71.12-.12.13-.32.04-.58h0c-.09-.4-.13-.71-.09-.9.08-.4.18-.77.3-1.1-.01,0-.05-.09-.1-.27-.05-.19-.07-.32-.04-.39.03-.11.06-.49.1-1.12.04-.61.1-1.04.18-1.29v-1.39s.14-.28.47-.93c.22-.42.25-.73.1-.96.01.04-.25-.18-.79-.67-.05-.15,0-.33.14-.52.07-.08.24-.19.51-.31.23-.11.37-.27.42-.48.01-.08-.01-.28-.08-.6-.08-.39-.13-.6-.14-.64,0-.07.03-.26.1-.56.07-.29.08-.47.04-.54.05.01-.01-.01-.2-.08v-.15c.01-.05,0-.21-.04-.46-.04-.29-.05-.48-.04-.56l.14-.23s-.05-.15-.14-.58c-.26-1.27-.21-2.2.14-2.78.01-.35.12-.59.32-.73.05-.03.28-.1.69-.21.04-.18.09-.31.14-.37,0-.42-.12-.71-.36-.87Z"/>
  </g>
</svg>