<?xml version="1.0" encoding="UTF-8"?>
<svg id="Layer_2" data-name="Layer 2" xmlns="http://www.w3.org/2000/svg" viewBox="0 0 22 33">
  <defs>
    <style>
      .cls-1 {
        fill: #231f20;
      }
    </style>
  </defs>
  <g id="Layer_1-2" data-name="Layer 1">
    <path class="cls-1" d="m22,21.8s-.07-.14-.22-.57c-.02-.05,0-.11.02-.18.03-.07.04-.1.04-.07.01-.23-.04-.54-.15-.92-.21-.7-.41-1.24-.61-1.61-.09-.17-.12-.43-.11-.79.01-.35-.02-.61-.11-.75-.07-.1-.25-.23-.53-.39-.28-.16-.44-.27-.48-.33-.02-.16-.04-.37-.09-.64,0-.01-.12-.12-.37-.31-.03-.06-.02-.12.02-.16.04-.05.06-.08.04-.09-.07-.17-.39-.51-.94-1.03-.47-.44-.72-.83-.75-1.17-.31-.05-.53-.18-.68-.39l-.4-.59c-.25-.15-.58-.18-.99-.09-.66.15-1,.22-1.03.22-.04-.82-.15-1.31-.31-1.49-.13-.28-.83-.56-2.08-.83h-1.14c-.07-.01-.2-.06-.39-.13-.21-.07-.36-.12-.46-.13-.1.01-.25.03-.44.06-.18.02-.31.05-.42.07,0-.01-.09-.08-.28-.2-.15-.11-.28-.15-.39-.13-.13.03-.31.1-.53.22-.2.13-.37.21-.48.24-.1.01-.25,0-.44-.02-.16-.02-.27-.02-.33.02h-.39c-.25-1-.25-1.69,0-2.07-.09-.18-.12-.51-.11-.99.03-.45.1-.75.2-.88.04-.02.14-.04.29-.04.15.01.26,0,.33-.02.04-.02.17-.09.37-.2.18-.1.31-.16.39-.18.1.01.3.07.59.16.28.09.47.13.57.15.09.01.31,0,.68-.06.35-.04.61-.04.77,0l.31.13s.15-.04.39-.11c.22-.06.4-.07.55-.02.99.33,1.64.43,1.93.31.19-.05.4-.23.64-.55.28-.39.45-.62.5-.68v-.05c.09.1.19.28.31.55.1.26.2.44.31.55.16.09.28.06.28.06.03,0,.1.03.2.09.12.06.18.1.2.11h.61c.09.04.22.14.4.31.1-.02.18-.07.22-.13.34.04.54.23.61.57.12.55.2.86.24.92.01.03.07.07.15.13.09.06.14.1.15.13.12.2.26.54.42,1.05.15.48.14.95.29,1.16.03.05.12.13.28.26.16.11.24.17.24.18.06.06.08.14.07.24,0,.06.06.13.18.22.04.03.32-.08.52-.07.03-.09.08-.21.15-.37.1-.18.15-.29.15-.33.06-.16.04-.32-.07-.5-.12-.18-.17-.34-.15-.48.06-.44-.02-1.06-.24-1.87-.04-.17-.04-.4,0-.7.03-.29.03-.49,0-.59-.02-.1-.12-.38-.31-.84l-.07-.59s-.07-.07-.15-.13-.14-.1-.15-.13c-.07-.1-.31-.64-.7-1.61.38-1.49.53-2.29.46-2.38l-.07-.18c.1,0-.23.09-1.01.26-.13.03-.39.02-.79-.02-.31-.04-.53.01-.68.15-.18-.02-.3-.11-.37-.26.07-.01-.19.13-.79.44-.09.06.19.09.12.13-.07.1-.12.16-.15.2-.22-.01-.56-.02-1.01-.04-.44-.01-.77-.02-.99-.02-.03-.01-.06-.06-.09-.13-.03-.09-.05-.13-.07-.15-.15-.07-.45-.11-.92-.11-.4,0-.63-.09-.7-.28-.06.03-.18.06-.35.11-.15.04-.26.07-.35.09-.06.15-.15.34-.28.59-.12.26-.2.45-.26.57-.19,0-.31-.02-.37-.06-.17-.07-.56-.44-1.16-1.1-.37.1-.65.27-.85.51-.06-.01-.18-.06-.37-.15-.17-.09-.32-.15-.44-.18-.38-.11-.67-.07-.88.13-.1,0-.44-.15-1.01-.44-.13-.06-.3-.04-.5.06-.19.1-.33.21-.42.33-.34-.04-.62-.19-.85-.46-.34.01-.67.07-.99.16-.32.1-.61.15-.85.16C1.73.3,1.4.08,1.1.01c-.13-.05-.36.06-.68.31-.03.25.04.5.22.77.23.34.37.58.39.72.01.1,0,.17-.04.22l-.11.11c.01.15.04.36.07.64-.12.43-.19.75-.22.97-.01.04,0,.11.04.22.04.11.05.21.02.29-.15.49-.22.77-.22.84h-.24v.06h-.07c-.01.28.14.61.46.97.28.33.51.52.7.57-.06.09-.17.16-.33.22-.19.07-.31.13-.37.18-.18.15-.31.4-.39.77-.03.17,0,.64.11,1.39.1.71.09,1.21-.02,1.5-.28.67-.38,1.08-.31,1.23.31.6.46.86.46.77-.01.22-.13.69-.35,1.41-.2.61-.27,1.02-.2,1.23,0,.72.08,1.28.24,1.69.15,0,.32-.02.53-.07.28-.07.46-.12.55-.13v-.2c.93-.4,1.34-.59,1.23-.57.03-.01.37-.01,1.01,0v-.2c.77-.33,1.23-.59,1.38-.77.6.16.85.25.77.26.07-.01.24-.08.5-.2.22-.11.42-.15.59-.11-.04-.01.31.1,1.05.33.45.15.8.16,1.03.05.2-.08.33-.17.37-.26.04-.09.04-.18,0-.29-.04-.11-.04-.21,0-.29.04-.06.17-.23.37-.5.18-.22.28-.4.33-.53.1-.04.18-.06.22-.07.29.48.42.84.39,1.1,1.08.05,2.44.56,4.08,1.54.16.1.3.32.42.68.13.35.15.56.04.62.03.09.07.14.13.17.06.02.09.05.11.09.06.12.05.32-.02.61-.04.21.07.39.33.55.06.05.29-.02.7-.2.44-.2.77-.24.99-.13h.31c-.47.92-.69,1.54-.68,1.87.35.24.71.87,1.07,1.87.04.13.04.31,0,.53-.06.2-.06.34,0,.44.23.45.05,1.2-.55,2.26-.04.1-.09.26-.13.48-.04.2-.1.34-.18.42-.45.57-.71.88-.77.92-.06.04-.18.09-.37.16-.15.07-.25.15-.31.22-.23.24-.42.5-.55.77v.26c-.1.15-.31.32-.64.51-.35.22-.58.39-.68.51l-1.62-.05c-.23.06-.45.2-.63.42-.19.23-.34.37-.44.4-.1.05-.22.06-.35.02-.13-.03-.22-.03-.26-.02-.06.03-.15.1-.28.24-.12.13-.23.21-.33.22-.03,0-.07-.02-.13-.05l-.11-.07s-.77.03-1.16.08c-.35.04-.57.04-.66,0-.06-.01-.18-.09-.37-.22-.17-.12-.31-.2-.39-.22-.16-.05-.37-.04-.61.02-.26.09-.44.12-.53.11-.07-.01-.51.03-1.32.13-.06,0-.12-.02-.2-.06-.06-.04-.12-.04-.2-.02-.25-.01-.36-.27-.43-.37-.15-.16-.24-.25-.28-.28-.06-.04-.23-.09-.5-.16-.25-.07-.42-.15-.5-.22-.04-.05-.08-.13-.11-.26-.04-.12-.08-.21-.11-.26-.61-.83-.96-1.45-1.59-1.61-.04.04-.44.4-.54.45,0,.06.2.4.61,1.03.01.05.03.12.04.2.01.09.03.15.04.18.01.04.08.11.2.22.1.11.16.19.18.24v.31s.5.46,1.47,1.3c.09-.1.21-.1.37,0,.07.06.17.16.31.31.18.07.47.13.88.16.51.05.81.08.9.09.07.01.2,0,.37-.02.16-.02.25-.04.26-.04.1.04.26.13.46.28.23.17.39.27.46.29.19-.07.47-.06.83.04.38.11.66.14.85.09v-.06h.09s.08.09.15.16c.06.07.11.13.15.17.69-.05,1.7-.29,2.04-.68-.15.01.29.16,1.32.46.45.13.94.06,1.45-.24.12-.06.31-.18.59-.37.22-.16.39-.26.5-.29.04-.02.12-.05.22-.07v-.18c.18-.01.53-.09,1.05-.24.53-.16.82-.28.88-.35v-.33c.09-.15.22-.32.39-.51.07-.09.24-.22.5-.4.25-.18.42-.32.5-.42.04-.09.1-.21.18-.37.06-.15.12-.26.2-.35.04-.06.15-.12.31-.16.16-.06.26-.12.31-.16.01-.05.04-.13.09-.26.03-.11.05-.2.07-.26.04-.06.17-.18.37-.37.16-.17.27-.31.33-.4v-.39c.04-.09.15-.23.31-.42.16-.21.26-.35.31-.42.01-.11.04-.28.09-.51.04-.09.17-.22.37-.4.2-.2.34-.34.39-.44.03-.05.05-.13.07-.24.01-.09.04-.15.09-.2-.07-.45-.31-.86-.7-1.23,0-.39.31-.72.92-.97Z"/>
  </g>
</svg>