<?xml version="1.0" encoding="UTF-8"?>
<svg id="Layer_2" data-name="Layer 2" xmlns="http://www.w3.org/2000/svg" viewBox="0 0 88 144">
  <g id="Layer_1-2" data-name="Layer 1">
    <path d="m84.43,34.08c-1.82-6.96-4.48-13.7-8.24-19.63C70.96,6.21,62.66-1.39,52.53.22c-.35.05-.69.12-1.04.19-16.01,4.92-25.59,35.71-10.3,46.95,2.82,2.07,7.15,2.68,10.05.46,1.59-1.21,2.26-3.02,2.47-5,.16-1.48.22-4.3-1.94-2.89-.49.32-.87.79-1.31,1.18-2.34,2.03-6.27-.75-7.5-2.95-1.5-2.67-1.62-6.05-1.32-9.05.64-6.56,3.53-14.41,8.93-18.28,1.44-1.03,3.13-1.72,4.91-1.67,23.28,3.12,21.39,57.32,19.85,75.8-2.85,58.51-49.32,61.09-53.51,1.9-.68-7.66-.64-15.38-.22-23.06.41-7.5,1.2-15,1.85-22.47.41-4.61,1.64-9.03,2.72-13.49,1.06-4.32,1.7-8.86,1.68-13.32,0-1.95.25-7.48-2.31-8.01-4.16-.58-10.4,10.32-13.97,16.72s-6.29,13.71-8.15,21.04C1.48,52.02.39,60.04.09,68.06s.18,16.19,1.55,24.14,3.41,15.05,6.56,22.03c2.92,6.45,6.76,12.51,11.7,17.47s10.57,8.47,16.94,10.47c3.02.95,6.63,1.96,9.81,1.81,7-.33,13.67-2.94,19.09-7.58,10.06-8.61,15.45-22.6,18.4-35.49,3.35-14.61,4.43-30.09,3.59-45.07-.14-2.44-.34-4.88-.63-7.3-.56-4.81-1.42-9.69-2.67-14.47Z"/>
  </g>
</svg>