<?xml version="1.0" encoding="UTF-8"?>
<svg id="Layer_2" data-name="Layer 2" xmlns="http://www.w3.org/2000/svg" viewBox="0 0 30 144">
  <g id="Layer_1-2" data-name="Layer 1">
    <path d="m29.33,17.58c-.09-.72-.2-1.44-.34-2.15-.86-4.56-2.82-8.24-6.27-11.38C20.16,1.72,16.71-.07,13.16,0,4.78.18,1.95,3.4.27,10.01c-.47,1.86-.65,7.68,2.43,8.31,1.26.26,4.1-3.32,5.4-5.1,2.79,9.26,3.44,19.01,3.33,28.61-.11,10.23-1.09,20.43-1.9,30.63s-1.56,20.19-.78,30.25c.7,9.02,1.22,18.37,3.72,27.12.78,2.74,1.79,5.43,3.21,7.92,1.13,1.97,2.94,4.91,5.09,5.97,1.31.75,2.95-.16,3.87-1.1,1.63-1.66.35-3.75-.03-5.66-.89-4.51-1.29-9.17-1.54-13.75-.3-5.33-.28-10.66-.04-15.99.47-10.66,1.82-21.25,3.19-31.83,1.38-10.58,2.8-21.17,3.44-31.83.28-4.61.45-9.25.26-13.86-.17-4.04-.08-8.1-.59-12.11Z"/>
  </g>
</svg>