<?xml version="1.0" encoding="UTF-8"?>
<svg id="Layer_2" data-name="Layer 2" xmlns="http://www.w3.org/2000/svg" viewBox="0 0 88 144">
  <g id="Layer_1-2" data-name="Layer 1">
    <path d="m87.78,120.43c.65-14.91-33.05-23.29-34.77-5.73-1.16,6.66,17.1-11.39,24.01,5.62,2.02,9.53-12.84,10.88-20.94,8.13-10.2-2.82-22.78-9.99-33.81-10.08,11.56-12.83,24.15-25.48,36.51-37.86,12.67-12.69,25.42-27.38,27.49-44.57,1.26-10.46-2.54-20.99-12-27.94C65.72,1.73,54.03-.87,42.97.25c-12.21,1.24-23.2,7.04-30.11,15.75-3.74,4.71-6.24,10.09-7.71,15.63-1.95,7.35-3.84,17.57.87,24.25,3.6,5.1,13.6,13.94,21.47,11.36,3.54-1.16,8.31-7.14,3.17-9.24-3.36-1.38-7.49.13-11.1-1.38-3.25-1.36-5.44-3.94-6.37-6.9-3.02-9.67,6.07-20.2,14.01-26.21,8.17-6.18,19.54-10.42,30.36-7.09,19.73,6.07,8.01,28.12.22,38.03-1.88,2.4-4.04,4.6-5.99,6.95-14.99,18.05-31.37,33.49-42.47,53.24-2.83,6.4-11.41,12.63-8.83,19.55,5.89,6.9,10.11-5.3,16.96-4.75,9.87-.2,26.33,11.87,37.28,13.67,17.32,4.23,35.5-7.03,33.07-22.67Z"/>
  </g>
</svg>