<?xml version="1.0" encoding="UTF-8"?>
<svg id="Layer_2" data-name="Layer 2" xmlns="http://www.w3.org/2000/svg" viewBox="0 0 88 144">
  <g id="Layer_1-2" data-name="Layer 1">
    <path d="m87.86,92.19c-.29-24.17-22.73-45.7-48.71-44.2,11.15-13.78,28.43-24.4,40.96-36.41,4.05-5.88.47-10.43-7.41-9.41-6.37-.41-13.45-1.15-20.1-1.32C35.46-.16,18.45-2.34,8.11,9.26c-6.15,6.93-9.55,19.81.38,25.07,2.08,1.11,4.63.83,5.15-1.36.65-.51.95-1.24.86-2.06,1.45-4.02-6.23-5.41-4.67-11.11,7.93-17.35,33.95-7.13,49.45-7.78C51.46,15.13-1.29,58.31,16.87,62.92c42.07-14.82,73.38,13.12,45.14,49.76-13.93,20.79-51.02,25.78-54.15-4.18-2.36-18.44,36.26-31.62,31.79-8.34-1.98,4.99-8.92,7.23-14.15,6.88-2.19-.39-1.36,1.71-.67,2.71,5.99,7.58,17.24,2.43,21.9-4.03,16.75-34.56-38.73-37.56-46.43-1.64-6.54,66.24,91.93,41.45,87.55-11.89Z"/>
  </g>
</svg>