<?xml version="1.0" encoding="UTF-8"?>
<svg id="Layer_2" data-name="Layer 2" xmlns="http://www.w3.org/2000/svg" viewBox="0 0 88 144">
  <g id="Layer_1-2" data-name="Layer 1">
    <path d="m85,82.17c-7.86-.79-4.47,11.04-14.56,11.54,1.87-26.48,10.88-53.32,6.85-79.85-.15-9.43-14.19-19.22-16.91-6.72-2.39,5.86,2.7,12.7,1.35,19.66-1.26,22.19-5.31,45.29-6.59,67.64-10.94.82-21-2.91-32.19-2.79-2.74-.59-9.59,1.64-8.99.19,13.51-27.2,16.85-58.89,27.6-86.87.8-1.78,1.44-2.04.19-3.42-5.66-5.57-11.71,5.35-13.95,10.35-11.65,26-15.16,56.16-25.42,82.85-10,24.93,13.75,5.54,27.75,9.95,8.21,1.12,16.5,1.73,24.63,3.37,1.85,10.34,2.81,29.51,12.38,35.88,2.99.64,6-3.38,5.16-6.2-2.34-8.46-3.58-19.42-3.22-29.09,8.26-.75,15.65-7.15,17.74-15.22,1.58-3.32,2.03-10.17-1.84-11.25Z"/>
  </g>
</svg>