<?xml version="1.0" encoding="UTF-8"?>
<svg id="Layer_2" data-name="Layer 2" xmlns="http://www.w3.org/2000/svg" viewBox="0 0 88 144">
  <g id="Layer_1-2" data-name="Layer 1">
    <path d="m86.35,84.09c-6.62-23.98-38.18-38.78-65.21-30.51-1.02-10.6,3.49-22.34,2.5-32.86,14.61-1.24,41.55-14.6,49.49-.6,1.02,3.39,4.39-.72,4.85-2.32C81.78,8.53,70.39.19,60.33,0c-8.62.26-15.66,2.31-25.98,5C20.6,9.58,15.03-3.79,12.41,2.88,3,26.91,2,49.91,10.89,69.28l.03.4c.02-.1.05-.2.1-.29,3.71,3.32,9.41-.02,9.74-3.97,61.65-22.85,64.61,58.28,12.41,65.15-20.79,1.73-33.49-22.46-16.94-34.08,4.88-3.74,12.98-8.01,19.15-3.96,8.56,6.5,1.25,17.06-8.86,17.63-2.32.07-.97,1.85-.02,2.64,10.92,7.12,23.51-5.51,22.19-15.05C44.4,65.86-3.39,87.28.19,112.38c-.67,22.04,27.22,37.83,50.71,29.24,25.41-8.57,42.66-34.46,35.45-57.53Z"/>
  </g>
</svg>