<?xml version="1.0" encoding="UTF-8"?>
<svg id="Layer_2" data-name="Layer 2" xmlns="http://www.w3.org/2000/svg" viewBox="0 0 88 144">
  <g id="Layer_1-2" data-name="Layer 1">
    <path d="m.3,92.96c1.8,20.07,9.8,42.21,30.63,48.95,11.43,3.7,23.82,2.5,34.1-3.63,11.36-6.77,17.5-18.16,20.87-30.2,1.99-7.11,2.88-14.37,1.27-21.64-1.9-8.59-7.68-16.55-15.94-20.61-8.84-4.35-19.66-2.73-27.73,2.46-7.28,4.68-12.64,12.31-13.42,20.64s3.43,17.15,11.05,21.3c2.39,1.3,5.23,2.15,7.89,1.49s4.89-3.27,4.27-5.83c-.67-2.79-3.81-3.89-5.98-5.43-2.58-1.83-3.94-4.45-4.08-7.52-.28-6.07,2.57-13.09,8.19-16.32,6.27-3.61,14.97-1.77,20.06,3.25,9.68,9.54,6.79,25.6-.7,35.49-8.49,11.2-26.66,19.15-38.89,8.3-10.74-9.53-11.85-27.05-11.59-40.05.34-17.19,4.06-35.06,12.16-50.5,5.63-10.73,16.16-24.59,30.61-22.55,3.33.47,6.57,1.97,8.72,4.44,5.46,6.28-.22,13.14.22,19.88.1,1.56,1,3.17,2.54,3.69,1.64.55,3.47-.29,4.72-1.45,1.95-1.8,2.99-4.3,3.73-6.79,1.46-4.91,1.92-10.24.22-15.08-1.93-5.5-6.58-9.94-12.08-12.42C51.13-6.21,28.49,7.95,17.47,23.6,6.15,39.68,1.19,59.73.2,78.87c-.24,4.67-.32,9.42.1,14.09Z"/>
  </g>
</svg>