<?xml version="1.0" encoding="UTF-8"?>
<svg id="Layer_2" data-name="Layer 2" xmlns="http://www.w3.org/2000/svg" viewBox="0 0 88 144">
  <g id="Layer_1-2" data-name="Layer 1">
    <path d="m85.96,2.35c-5.36-4.71-9.35,2.48-14.49,4.02-7,.51-14.44-1.98-21.66-2.81C36.94.52,19.76-3.36,9.07,5.26-.67,13.11-3.57,29.89,5.38,39.47c5.91,8.95,27.77,9.65,24.8-4.08-3.19-3.32-8.1,1.4-11.84,1.08-14.23-.67-12.97-21.69,2.29-20.28,14.28.51,28.8,7.96,43.06,4.82-18.39,28.27-59.79,94.46-26.29,122.29,2.77,2.3,6.73-1.58,7.97-3.82,2.32-4.17-1.97-6.27-4.13-9.22-2.66-3.62-2.17-9.12-2.01-13.34.2-5.32,1.02-10.62,2.58-15.72,2.33-7.62,5.83-14.83,9.55-21.89,2.59-4.91,5.33-9.75,7.94-14.65,6.69-14.47,36.71-48.65,26.66-62.31Z"/>
  </g>
</svg>