<?xml version="1.0" encoding="UTF-8"?>
<svg id="Layer_2" data-name="Layer 2" xmlns="http://www.w3.org/2000/svg" viewBox="0 0 88 144">
  <g id="Layer_1-2" data-name="Layer 1">
    <path d="m77.75,74c-7.8-11.41-27.14-22.27-39.6-31C6.7,25.29,45.77,2.34,57.15,20.12c9.16,14.32-6.66,15.51-7.57,20.41-2.66,7.22,9.84,7.15,14.79,3.83,10.94-6.59,8.52-24.68,2.02-34.05C44.15-21.41-21.03,27.11,24.75,60.76c-37.82,22.04-32.57,83.28,17.61,83.24,42.23-1.19,57.85-43.96,35.39-70Zm-18.48,47.87c-12.4,14.04-36.26,9.71-44.38-4.23-9.62-16.75-.73-40.58,17.94-51.26,20.18,11.63,47.1,33.12,26.44,55.49Z"/>
  </g>
</svg>