solid OpenSCAD_Model
  facet normal 0 1 -0
    outer loop
      vertex 5.62 5.62 12.1022
      vertex -5.62 5.62 26.042
      vertex 5.62 5.62 26.042
    endloop
  endfacet
  facet normal 0 1 0
    outer loop
      vertex 5.62 5.62 12.1022
      vertex -5.62 5.62 12.1022
      vertex -5.62 5.62 26.042
    endloop
  endfacet
  facet normal 0 1 -0
    outer loop
      vertex 5.4824 5.62 11.992
      vertex -5.62 5.62 12.1022
      vertex 5.62 5.62 12.1022
    endloop
  endfacet
  facet normal 0 1 0
    outer loop
      vertex -5.62 5.62 12.1022
      vertex 5.4824 5.62 11.992
      vertex -5.4824 5.62 11.992
    endloop
  endfacet
  facet normal -1 0 0
    outer loop
      vertex -5.62 5.4824 11.992
      vertex -5.62 5.62 26.042
      vertex -5.62 5.62 12.1022
    endloop
  endfacet
  facet normal -1 0 0
    outer loop
      vertex -5.62 -5.4824 11.992
      vertex -5.62 5.62 26.042
      vertex -5.62 5.4824 11.992
    endloop
  endfacet
  facet normal -1 0 0
    outer loop
      vertex -5.62 -5.62 12.1022
      vertex -5.62 5.62 26.042
      vertex -5.62 -5.4824 11.992
    endloop
  endfacet
  facet normal -1 -0 0
    outer loop
      vertex -5.62 5.62 26.042
      vertex -5.62 -5.62 12.1022
      vertex -5.62 -5.62 26.042
    endloop
  endfacet
  facet normal 0 -1 0
    outer loop
      vertex -5.62 -5.62 12.1022
      vertex 5.62 -5.62 26.042
      vertex -5.62 -5.62 26.042
    endloop
  endfacet
  facet normal 0 -1 0
    outer loop
      vertex -5.62 -5.62 12.1022
      vertex 5.62 -5.62 12.1022
      vertex 5.62 -5.62 26.042
    endloop
  endfacet
  facet normal 0 -1 0
    outer loop
      vertex -5.4824 -5.62 11.992
      vertex 5.62 -5.62 12.1022
      vertex -5.62 -5.62 12.1022
    endloop
  endfacet
  facet normal 0 -1 0
    outer loop
      vertex 5.62 -5.62 12.1022
      vertex -5.4824 -5.62 11.992
      vertex 5.4824 -5.62 11.992
    endloop
  endfacet
  facet normal 1 0 0
    outer loop
      vertex 5.62 5.62 26.042
      vertex 5.62 5.4824 11.992
      vertex 5.62 5.62 12.1022
    endloop
  endfacet
  facet normal 1 0 0
    outer loop
      vertex 5.62 5.62 26.042
      vertex 5.62 -5.4824 11.992
      vertex 5.62 5.4824 11.992
    endloop
  endfacet
  facet normal 1 -0 0
    outer loop
      vertex 5.62 -5.62 26.042
      vertex 5.62 -5.4824 11.992
      vertex 5.62 5.62 26.042
    endloop
  endfacet
  facet normal 1 0 0
    outer loop
      vertex 5.62 -5.4824 11.992
      vertex 5.62 -5.62 26.042
      vertex 5.62 -5.62 12.1022
    endloop
  endfacet
  facet normal 0 0 -1
    outer loop
      vertex -3.05176e-05 -3.05176e-05 3
      vertex 3.05176e-05 3.05176e-05 3
      vertex 3.05176e-05 -3.05176e-05 3
    endloop
  endfacet
  facet normal -0 0 -1
    outer loop
      vertex 3.05176e-05 3.05176e-05 3
      vertex -3.05176e-05 -3.05176e-05 3
      vertex -3.05176e-05 3.05176e-05 3
    endloop
  endfacet
  facet normal 0 0.847999 -0.529997
    outer loop
      vertex 1.42071 1.54912 5.47856
      vertex -5.4824 5.62 11.992
      vertex 5.4824 5.62 11.992
    endloop
  endfacet
  facet normal 0 0.847999 -0.529997
    outer loop
      vertex 1.42071 1.54912 5.47856
      vertex -1.42071 1.54912 5.47856
      vertex -5.4824 5.62 11.992
    endloop
  endfacet
  facet normal 5.10482e-05 0.847986 -0.530019
    outer loop
      vertex 0.0176713 0.123737 3.19793
      vertex 1.42071 1.54912 5.47856
      vertex 1.43188 1.53795 5.46069
    endloop
  endfacet
  facet normal 0 0.848 -0.529996
    outer loop
      vertex 1.42071 1.54912 5.47856
      vertex 0.0176713 0.123737 3.19793
      vertex -1.42071 1.54912 5.47856
    endloop
  endfacet
  facet normal 0 0.848 -0.529996
    outer loop
      vertex -0.0176713 0.123737 3.19793
      vertex -1.42071 1.54912 5.47856
      vertex 0.0176713 0.123737 3.19793
    endloop
  endfacet
  facet normal -5.10482e-05 0.847986 -0.530019
    outer loop
      vertex -1.42071 1.54912 5.47856
      vertex -0.0176713 0.123737 3.19793
      vertex -1.43188 1.53795 5.46069
    endloop
  endfacet
  facet normal 0 0.847991 -0.53001
    outer loop
      vertex 0.0707042 0.0707042 3.11308
      vertex -0.0176713 0.123737 3.19793
      vertex 0.0176713 0.123737 3.19793
    endloop
  endfacet
  facet normal 0 0.847991 -0.53001
    outer loop
      vertex 0.0707042 0.0707042 3.11308
      vertex -0.0707042 0.0707042 3.11308
      vertex -0.0176713 0.123737 3.19793
    endloop
  endfacet
  facet normal 0 0.848003 -0.529992
    outer loop
      vertex 3.05176e-05 3.05176e-05 3
      vertex -0.0707042 0.0707042 3.11308
      vertex 0.0707042 0.0707042 3.11308
    endloop
  endfacet
  facet normal 0 0.848003 -0.529992
    outer loop
      vertex -0.0707042 0.0707042 3.11308
      vertex 3.05176e-05 3.05176e-05 3
      vertex -3.05176e-05 3.05176e-05 3
    endloop
  endfacet
  facet normal 0 -0.847999 -0.529997
    outer loop
      vertex -1.42071 -1.54912 5.47856
      vertex 5.4824 -5.62 11.992
      vertex -5.4824 -5.62 11.992
    endloop
  endfacet
  facet normal 0 -0.847999 -0.529997
    outer loop
      vertex -1.42071 -1.54912 5.47856
      vertex 1.42071 -1.54912 5.47856
      vertex 5.4824 -5.62 11.992
    endloop
  endfacet
  facet normal -5.10482e-05 -0.847986 -0.530019
    outer loop
      vertex -0.0176713 -0.123737 3.19793
      vertex -1.42071 -1.54912 5.47856
      vertex -1.43188 -1.53795 5.46069
    endloop
  endfacet
  facet normal 0 -0.848 -0.529996
    outer loop
      vertex -1.42071 -1.54912 5.47856
      vertex -0.0176713 -0.123737 3.19793
      vertex 1.42071 -1.54912 5.47856
    endloop
  endfacet
  facet normal -0 -0.848 -0.529996
    outer loop
      vertex 0.0176713 -0.123737 3.19793
      vertex 1.42071 -1.54912 5.47856
      vertex -0.0176713 -0.123737 3.19793
    endloop
  endfacet
  facet normal 5.10482e-05 -0.847986 -0.530019
    outer loop
      vertex 1.42071 -1.54912 5.47856
      vertex 0.0176713 -0.123737 3.19793
      vertex 1.43188 -1.53795 5.46069
    endloop
  endfacet
  facet normal 0 -0.847991 -0.53001
    outer loop
      vertex -0.0707042 -0.0707042 3.11308
      vertex 0.0176713 -0.123737 3.19793
      vertex -0.0176713 -0.123737 3.19793
    endloop
  endfacet
  facet normal 0 -0.847991 -0.53001
    outer loop
      vertex -0.0707042 -0.0707042 3.11308
      vertex 0.0707042 -0.0707042 3.11308
      vertex 0.0176713 -0.123737 3.19793
    endloop
  endfacet
  facet normal 0 -0.848003 -0.529992
    outer loop
      vertex -3.05176e-05 -3.05176e-05 3
      vertex 0.0707042 -0.0707042 3.11308
      vertex -0.0707042 -0.0707042 3.11308
    endloop
  endfacet
  facet normal 0 -0.848003 -0.529992
    outer loop
      vertex 0.0707042 -0.0707042 3.11308
      vertex -3.05176e-05 -3.05176e-05 3
      vertex 3.05176e-05 -3.05176e-05 3
    endloop
  endfacet
  facet normal 0.848003 0 -0.529992
    outer loop
      vertex 0.0707042 0.0707042 3.11308
      vertex 3.05176e-05 -3.05176e-05 3
      vertex 3.05176e-05 3.05176e-05 3
    endloop
  endfacet
  facet normal 0.847991 0 -0.53001
    outer loop
      vertex 0.0707042 -0.0707042 3.11308
      vertex 0.123737 0.0176713 3.19793
      vertex 0.123737 -0.0176713 3.19793
    endloop
  endfacet
  facet normal 0.848 0 -0.529996
    outer loop
      vertex 1.54912 1.42071 5.47856
      vertex 0.123737 -0.0176713 3.19793
      vertex 0.123737 0.0176713 3.19793
    endloop
  endfacet
  facet normal 0.847999 0 -0.529997
    outer loop
      vertex 1.54912 -1.42071 5.47856
      vertex 1.54912 1.42071 5.47856
      vertex 5.62 5.4824 11.992
    endloop
  endfacet
  facet normal 0.848 0 -0.529996
    outer loop
      vertex 1.54912 1.42071 5.47856
      vertex 1.54912 -1.42071 5.47856
      vertex 0.123737 -0.0176713 3.19793
    endloop
  endfacet
  facet normal 0.847999 0 -0.529997
    outer loop
      vertex 1.54912 -1.42071 5.47856
      vertex 5.62 5.4824 11.992
      vertex 5.62 -5.4824 11.992
    endloop
  endfacet
  facet normal 0.847986 5.10482e-05 -0.530019
    outer loop
      vertex 1.53795 1.43188 5.46069
      vertex 1.54912 1.42071 5.47856
      vertex 0.123737 0.0176713 3.19793
    endloop
  endfacet
  facet normal 0.847991 0 -0.53001
    outer loop
      vertex 0.0707042 -0.0707042 3.11308
      vertex 0.0707042 0.0707042 3.11308
      vertex 0.123737 0.0176713 3.19793
    endloop
  endfacet
  facet normal 0.848003 0 -0.529992
    outer loop
      vertex 0.0707042 0.0707042 3.11308
      vertex 0.0707042 -0.0707042 3.11308
      vertex 3.05176e-05 -3.05176e-05 3
    endloop
  endfacet
  facet normal 0.847986 -5.10482e-05 -0.530019
    outer loop
      vertex 0.123737 -0.0176713 3.19793
      vertex 1.54912 -1.42071 5.47856
      vertex 1.53795 -1.43188 5.46069
    endloop
  endfacet
  facet normal -0.848003 0 -0.529992
    outer loop
      vertex -0.0707042 -0.0707042 3.11308
      vertex -0.0707042 0.0707042 3.11308
      vertex -3.05176e-05 3.05176e-05 3
    endloop
  endfacet
  facet normal -0.847986 5.10482e-05 -0.530019
    outer loop
      vertex -1.53795 1.43188 5.46069
      vertex -0.123737 0.0176713 3.19793
      vertex -1.54912 1.42071 5.47856
    endloop
  endfacet
  facet normal -0.848003 0 -0.529992
    outer loop
      vertex -0.0707042 -0.0707042 3.11308
      vertex -3.05176e-05 3.05176e-05 3
      vertex -3.05176e-05 -3.05176e-05 3
    endloop
  endfacet
  facet normal -0.847991 -0 -0.53001
    outer loop
      vertex -0.0707042 0.0707042 3.11308
      vertex -0.0707042 -0.0707042 3.11308
      vertex -0.123737 0.0176713 3.19793
    endloop
  endfacet
  facet normal -0.848 0 -0.529996
    outer loop
      vertex -0.123737 -0.0176713 3.19793
      vertex -1.54912 1.42071 5.47856
      vertex -0.123737 0.0176713 3.19793
    endloop
  endfacet
  facet normal -0.848 0 -0.529996
    outer loop
      vertex -1.54912 -1.42071 5.47856
      vertex -1.54912 1.42071 5.47856
      vertex -0.123737 -0.0176713 3.19793
    endloop
  endfacet
  facet normal -0.847999 -0 -0.529997
    outer loop
      vertex -1.54912 1.42071 5.47856
      vertex -1.54912 -1.42071 5.47856
      vertex -5.62 5.4824 11.992
    endloop
  endfacet
  facet normal -0.847999 -0 -0.529997
    outer loop
      vertex -5.62 5.4824 11.992
      vertex -1.54912 -1.42071 5.47856
      vertex -5.62 -5.4824 11.992
    endloop
  endfacet
  facet normal -0.847986 -5.10482e-05 -0.530019
    outer loop
      vertex -0.123737 -0.0176713 3.19793
      vertex -1.53795 -1.43188 5.46069
      vertex -1.54912 -1.42071 5.47856
    endloop
  endfacet
  facet normal -0.847991 -0 -0.53001
    outer loop
      vertex -0.123737 0.0176713 3.19793
      vertex -0.0707042 -0.0707042 3.11308
      vertex -0.123737 -0.0176713 3.19793
    endloop
  endfacet
  facet normal -0.848 0 0.529997
    outer loop
      vertex -5.62 5.62 26.042
      vertex -3.05176e-05 -3.05176e-05 35.034
      vertex -3.05176e-05 3.05176e-05 35.034
    endloop
  endfacet
  facet normal -0.848 0 0.529997
    outer loop
      vertex -3.05176e-05 -3.05176e-05 35.034
      vertex -5.62 5.62 26.042
      vertex -5.62 -5.62 26.042
    endloop
  endfacet
  facet normal 0 0.848 0.529997
    outer loop
      vertex 5.62 5.62 26.042
      vertex -3.05176e-05 3.05176e-05 35.034
      vertex 3.05176e-05 3.05176e-05 35.034
    endloop
  endfacet
  facet normal 0 0.848 0.529997
    outer loop
      vertex -3.05176e-05 3.05176e-05 35.034
      vertex 5.62 5.62 26.042
      vertex -5.62 5.62 26.042
    endloop
  endfacet
  facet normal -0 0 1
    outer loop
      vertex -3.05176e-05 3.05176e-05 35.034
      vertex 3.05176e-05 -3.05176e-05 35.034
      vertex 3.05176e-05 3.05176e-05 35.034
    endloop
  endfacet
  facet normal 0 0 1
    outer loop
      vertex 3.05176e-05 -3.05176e-05 35.034
      vertex -3.05176e-05 3.05176e-05 35.034
      vertex -3.05176e-05 -3.05176e-05 35.034
    endloop
  endfacet
  facet normal 0.848 -0 0.529997
    outer loop
      vertex 3.05176e-05 -3.05176e-05 35.034
      vertex 5.62 5.62 26.042
      vertex 3.05176e-05 3.05176e-05 35.034
    endloop
  endfacet
  facet normal 0.848 0 0.529997
    outer loop
      vertex 5.62 5.62 26.042
      vertex 3.05176e-05 -3.05176e-05 35.034
      vertex 5.62 -5.62 26.042
    endloop
  endfacet
  facet normal 0 -0.848 0.529997
    outer loop
      vertex -5.62 -5.62 26.042
      vertex 3.05176e-05 -3.05176e-05 35.034
      vertex -3.05176e-05 -3.05176e-05 35.034
    endloop
  endfacet
  facet normal 0 -0.848 0.529997
    outer loop
      vertex 3.05176e-05 -3.05176e-05 35.034
      vertex -5.62 -5.62 26.042
      vertex 5.62 -5.62 26.042
    endloop
  endfacet
  facet normal -0.707108 0.707106 0
    outer loop
      vertex 0.0176713 0.123737 3.19793
      vertex 1.43188 1.53795 4.45214
      vertex 0.0176713 0.123737 2.21199
    endloop
  endfacet
  facet normal -0.707108 0.707106 0
    outer loop
      vertex 1.43188 1.53795 4.45214
      vertex 0.0176713 0.123737 3.19793
      vertex 1.43188 1.53795 5.46069
    endloop
  endfacet
  facet normal 0.707107 0.707107 0
    outer loop
      vertex 5.55045 5.69187 12.1041
      vertex 5.69187 5.55045 12.1041
      vertex 5.55045 5.69187 10.0041
    endloop
  endfacet
  facet normal 0.707107 0.707107 0
    outer loop
      vertex 5.47974 5.76258 10.0041
      vertex 5.55045 5.69187 10.0041
      vertex 5.47974 5.76258 9.00406
    endloop
  endfacet
  facet normal 0.707107 0.707107 0
    outer loop
      vertex 5.40903 5.83329 9.00406
      vertex 5.47974 5.76258 9.00406
      vertex 5.40903 5.83329 8.00406
    endloop
  endfacet
  facet normal 0.707107 0.707107 0
    outer loop
      vertex 5.33832 5.904 8.00406
      vertex 5.40903 5.83329 8.00406
      vertex 5.33832 5.904 7.00406
    endloop
  endfacet
  facet normal 0.707157 0.707057 0
    outer loop
      vertex 5.26761 5.97472 7.00406
      vertex 5.33832 5.904 7.00406
      vertex 5.26761 5.97472 6.00406
    endloop
  endfacet
  facet normal 0.707107 0.707107 0
    outer loop
      vertex 5.26761 5.97472 6.00406
      vertex 5.1969 6.04543 1
      vertex 5.1969 6.04543 6.00406
    endloop
  endfacet
  facet normal 0.707107 0.707107 7.07107e-06
    outer loop
      vertex 5.97472 5.26761 6.00406
      vertex 5.26761 5.97472 6.00406
      vertex 5.33832 5.904 7.00406
    endloop
  endfacet
  facet normal 0.707107 0.707107 6.24506e-16
    outer loop
      vertex 5.904 5.33832 7.00406
      vertex 5.33832 5.904 7.00406
      vertex 5.40903 5.83329 8.00406
    endloop
  endfacet
  facet normal 0.707107 0.707107 0
    outer loop
      vertex 5.83329 5.40903 8.00406
      vertex 5.40903 5.83329 8.00406
      vertex 5.47974 5.76258 9.00406
    endloop
  endfacet
  facet normal 0.707107 0.707107 0
    outer loop
      vertex 5.76258 5.47974 9.00406
      vertex 5.47974 5.76258 9.00406
      vertex 5.55045 5.69187 10.0041
    endloop
  endfacet
  facet normal 0.707107 0.707107 -0
    outer loop
      vertex 5.69187 5.55045 10.0041
      vertex 5.55045 5.69187 10.0041
      vertex 5.69187 5.55045 12.1041
    endloop
  endfacet
  facet normal 0.707107 0.707107 0
    outer loop
      vertex 5.76258 5.47974 9.00406
      vertex 5.55045 5.69187 10.0041
      vertex 5.69187 5.55045 10.0041
    endloop
  endfacet
  facet normal 0.707107 0.707107 -0
    outer loop
      vertex 5.76258 5.47974 9.00406
      vertex 5.69187 5.55045 10.0041
      vertex 5.76258 5.47974 10.0041
    endloop
  endfacet
  facet normal 0.707107 0.707107 0
    outer loop
      vertex 5.47974 5.76258 9.00406
      vertex 5.76258 5.47974 9.00406
      vertex 5.83329 5.40903 8.00406
    endloop
  endfacet
  facet normal 0.707107 0.707107 -0
    outer loop
      vertex 5.83329 5.40903 8.00406
      vertex 5.76258 5.47974 9.00406
      vertex 5.83329 5.40903 9.00406
    endloop
  endfacet
  facet normal 0.707107 0.707107 6.01377e-16
    outer loop
      vertex 5.40903 5.83329 8.00406
      vertex 5.83329 5.40903 8.00406
      vertex 5.904 5.33832 7.00406
    endloop
  endfacet
  facet normal 0.707107 0.707107 -0
    outer loop
      vertex 5.904 5.33832 7.00406
      vertex 5.83329 5.40903 8.00406
      vertex 5.904 5.33832 8.00406
    endloop
  endfacet
  facet normal 0.707107 0.707107 7.07107e-06
    outer loop
      vertex 5.33832 5.904 7.00406
      vertex 5.904 5.33832 7.00406
      vertex 5.97472 5.26761 6.00406
    endloop
  endfacet
  facet normal 0.707057 0.707157 -0
    outer loop
      vertex 5.97472 5.26761 6.00406
      vertex 5.904 5.33832 7.00406
      vertex 5.97472 5.26761 7.00406
    endloop
  endfacet
  facet normal 0.707107 0.707107 0
    outer loop
      vertex 5.26761 5.97472 6.00406
      vertex 5.97472 5.26761 6.00406
      vertex 5.1969 6.04543 1
    endloop
  endfacet
  facet normal 0.707107 0.707107 -0
    outer loop
      vertex 6.04543 5.1969 1
      vertex 5.97472 5.26761 6.00406
      vertex 6.04543 5.1969 6.00406
    endloop
  endfacet
  facet normal 0.707107 0.707107 0
    outer loop
      vertex 5.97472 5.26761 6.00406
      vertex 6.04543 5.1969 1
      vertex 5.1969 6.04543 1
    endloop
  endfacet
  facet normal -0.707106 -0.707107 -0
    outer loop
      vertex 0.0176713 0.123737 3.19793
      vertex 0.0176713 0.123737 2.21199
      vertex 0.0707042 0.0707042 3.11308
    endloop
  endfacet
  facet normal -0.707107 -0.707107 7.84724e-08
    outer loop
      vertex 0.123737 0.0176713 2.21199
      vertex 0.0707042 0.0707042 3.11308
      vertex 0.0176713 0.123737 2.21199
    endloop
  endfacet
  facet normal -0.707107 -0.707106 0
    outer loop
      vertex 0.0707042 0.0707042 3.11308
      vertex 0.123737 0.0176713 2.21199
      vertex 0.123737 0.0176713 3.19793
    endloop
  endfacet
  facet normal -0.707101 -0.707113 0
    outer loop
      vertex 0 0.141408 1
      vertex 0.0176713 0.123737 2.21199
      vertex 0 0.141408 2.21199
    endloop
  endfacet
  facet normal -0.707107 -0.707107 1.75028e-07
    outer loop
      vertex 0.0176713 0.123737 2.21199
      vertex 0 0.141408 1
      vertex 0.123737 0.0176713 2.21199
    endloop
  endfacet
  facet normal -0.707107 -0.707107 1.75028e-07
    outer loop
      vertex 0.141408 0 1
      vertex 0.123737 0.0176713 2.21199
      vertex 0 0.141408 1
    endloop
  endfacet
  facet normal -0.707113 -0.707101 0
    outer loop
      vertex 0.123737 0.0176713 2.21199
      vertex 0.141408 0 1
      vertex 0.141408 0 2.21199
    endloop
  endfacet
  facet normal 0.707106 -0.707108 0
    outer loop
      vertex 0.123737 0.0176713 3.19793
      vertex 1.53795 1.43188 4.45214
      vertex 1.53795 1.43188 5.46069
    endloop
  endfacet
  facet normal 0.707106 -0.707108 0
    outer loop
      vertex 1.53795 1.43188 4.45214
      vertex 0.123737 0.0176713 3.19793
      vertex 0.123737 0.0176713 2.21199
    endloop
  endfacet
  facet normal -0.707106 -0.707108 -0
    outer loop
      vertex -0.123737 0.0176713 3.19793
      vertex -1.53795 1.43188 4.45214
      vertex -0.123737 0.0176713 2.21199
    endloop
  endfacet
  facet normal -0.707106 -0.707108 0
    outer loop
      vertex -1.53795 1.43188 4.45214
      vertex -0.123737 0.0176713 3.19793
      vertex -1.53795 1.43188 5.46069
    endloop
  endfacet
  facet normal -0.707107 0.707107 0
    outer loop
      vertex -5.1969 6.04543 1
      vertex -5.26761 5.97472 6.00406
      vertex -5.1969 6.04543 6.00406
    endloop
  endfacet
  facet normal -0.707157 0.707057 0
    outer loop
      vertex -5.26761 5.97472 6.00406
      vertex -5.33832 5.904 7.00406
      vertex -5.26761 5.97472 7.00406
    endloop
  endfacet
  facet normal -0.707107 0.707107 0
    outer loop
      vertex -5.97472 5.26761 6.00406
      vertex -5.26761 5.97472 6.00406
      vertex -5.1969 6.04543 1
    endloop
  endfacet
  facet normal -0.707107 0.707107 0
    outer loop
      vertex -5.33832 5.904 7.00406
      vertex -5.40903 5.83329 8.00406
      vertex -5.33832 5.904 8.00406
    endloop
  endfacet
  facet normal -0.707107 0.707107 7.07107e-06
    outer loop
      vertex -5.26761 5.97472 6.00406
      vertex -5.97472 5.26761 6.00406
      vertex -5.33832 5.904 7.00406
    endloop
  endfacet
  facet normal -0.707107 0.707107 0
    outer loop
      vertex -5.40903 5.83329 8.00406
      vertex -5.47974 5.76258 9.00406
      vertex -5.40903 5.83329 9.00406
    endloop
  endfacet
  facet normal -0.707107 0.707107 7.07107e-06
    outer loop
      vertex -5.904 5.33832 7.00406
      vertex -5.33832 5.904 7.00406
      vertex -5.97472 5.26761 6.00406
    endloop
  endfacet
  facet normal -0.707107 0.707107 0
    outer loop
      vertex -5.47974 5.76258 9.00406
      vertex -5.55045 5.69187 10.0041
      vertex -5.47974 5.76258 10.0041
    endloop
  endfacet
  facet normal -0.707107 0.707107 6.24506e-16
    outer loop
      vertex -5.33832 5.904 7.00406
      vertex -5.904 5.33832 7.00406
      vertex -5.40903 5.83329 8.00406
    endloop
  endfacet
  facet normal -0.707107 0.707107 0
    outer loop
      vertex -5.55045 5.69187 10.0041
      vertex -5.69187 5.55045 10.0041
      vertex -5.55045 5.69187 12.1041
    endloop
  endfacet
  facet normal -0.707107 0.707107 0
    outer loop
      vertex -5.76258 5.47974 9.00406
      vertex -5.47974 5.76258 9.00406
      vertex -5.83329 5.40903 8.00406
    endloop
  endfacet
  facet normal -0.707107 0.707107 0
    outer loop
      vertex -5.55045 5.69187 10.0041
      vertex -5.76258 5.47974 9.00406
      vertex -5.69187 5.55045 10.0041
    endloop
  endfacet
  facet normal -0.707107 0.707107 0
    outer loop
      vertex -5.47974 5.76258 9.00406
      vertex -5.76258 5.47974 9.00406
      vertex -5.55045 5.69187 10.0041
    endloop
  endfacet
  facet normal -0.707107 0.707107 0
    outer loop
      vertex -5.40903 5.83329 8.00406
      vertex -5.83329 5.40903 8.00406
      vertex -5.47974 5.76258 9.00406
    endloop
  endfacet
  facet normal -0.707107 0.707107 6.30289e-16
    outer loop
      vertex -5.83329 5.40903 8.00406
      vertex -5.40903 5.83329 8.00406
      vertex -5.904 5.33832 7.00406
    endloop
  endfacet
  facet normal -0.707107 0.707107 0
    outer loop
      vertex -6.04543 5.1969 1
      vertex -5.97472 5.26761 6.00406
      vertex -5.1969 6.04543 1
    endloop
  endfacet
  facet normal -0.707107 0.707107 0
    outer loop
      vertex -5.97472 5.26761 6.00406
      vertex -6.04543 5.1969 1
      vertex -6.04543 5.1969 6.00406
    endloop
  endfacet
  facet normal -0.707107 0.707107 0
    outer loop
      vertex -5.55045 5.69187 12.1041
      vertex -5.69187 5.55045 10.0041
      vertex -5.69187 5.55045 12.1041
    endloop
  endfacet
  facet normal -0.707107 0.707107 0
    outer loop
      vertex -5.69187 5.55045 10.0041
      vertex -5.76258 5.47974 9.00406
      vertex -5.76258 5.47974 10.0041
    endloop
  endfacet
  facet normal -0.707107 0.707107 0
    outer loop
      vertex -5.76258 5.47974 9.00406
      vertex -5.83329 5.40903 8.00406
      vertex -5.83329 5.40903 9.00406
    endloop
  endfacet
  facet normal -0.707107 0.707107 0
    outer loop
      vertex -5.83329 5.40903 8.00406
      vertex -5.904 5.33832 7.00406
      vertex -5.904 5.33832 8.00406
    endloop
  endfacet
  facet normal -0.707057 0.707157 0
    outer loop
      vertex -5.904 5.33832 7.00406
      vertex -5.97472 5.26761 6.00406
      vertex -5.97472 5.26761 7.00406
    endloop
  endfacet
  facet normal 0.707106 -0.707107 0
    outer loop
      vertex -0.0176713 0.123737 3.19793
      vertex -0.0707042 0.0707042 3.11308
      vertex -0.0176713 0.123737 2.21199
    endloop
  endfacet
  facet normal 0.707101 -0.707113 0
    outer loop
      vertex -0.0176713 0.123737 2.21199
      vertex 0 0.141408 1
      vertex 0 0.141408 2.21199
    endloop
  endfacet
  facet normal 0.707107 -0.707107 7.84724e-08
    outer loop
      vertex -0.123737 0.0176713 2.21199
      vertex -0.0176713 0.123737 2.21199
      vertex -0.0707042 0.0707042 3.11308
    endloop
  endfacet
  facet normal 0.707107 -0.707106 0
    outer loop
      vertex -0.123737 0.0176713 2.21199
      vertex -0.0707042 0.0707042 3.11308
      vertex -0.123737 0.0176713 3.19793
    endloop
  endfacet
  facet normal 0.707107 -0.707107 1.75028e-07
    outer loop
      vertex -0.0176713 0.123737 2.21199
      vertex -0.123737 0.0176713 2.21199
      vertex 0 0.141408 1
    endloop
  endfacet
  facet normal 0.707113 -0.707101 0
    outer loop
      vertex -0.141408 0 1
      vertex -0.123737 0.0176713 2.21199
      vertex -0.141408 0 2.21199
    endloop
  endfacet
  facet normal 0.707107 -0.707107 1.75028e-07
    outer loop
      vertex -0.123737 0.0176713 2.21199
      vertex -0.141408 0 1
      vertex 0 0.141408 1
    endloop
  endfacet
  facet normal 0.707108 0.707106 0
    outer loop
      vertex -0.0176713 0.123737 3.19793
      vertex -1.43188 1.53795 4.45214
      vertex -1.43188 1.53795 5.46069
    endloop
  endfacet
  facet normal 0.707108 0.707106 0
    outer loop
      vertex -1.43188 1.53795 4.45214
      vertex -0.0176713 0.123737 3.19793
      vertex -0.0176713 0.123737 2.21199
    endloop
  endfacet
  facet normal 0.707108 -0.707106 0
    outer loop
      vertex -1.43188 -1.53795 4.45214
      vertex -0.0176713 -0.123737 3.19793
      vertex -1.43188 -1.53795 5.46069
    endloop
  endfacet
  facet normal 0.707108 -0.707106 0
    outer loop
      vertex -0.0176713 -0.123737 3.19793
      vertex -1.43188 -1.53795 4.45214
      vertex -0.0176713 -0.123737 2.21199
    endloop
  endfacet
  facet normal -0.707106 0.707108 0
    outer loop
      vertex -1.53795 -1.43188 4.45214
      vertex -0.123737 -0.0176713 3.19793
      vertex -0.123737 -0.0176713 2.21199
    endloop
  endfacet
  facet normal -0.707106 0.707108 0
    outer loop
      vertex -0.123737 -0.0176713 3.19793
      vertex -1.53795 -1.43188 4.45214
      vertex -1.53795 -1.43188 5.46069
    endloop
  endfacet
  facet normal -0.707107 -0.707107 0
    outer loop
      vertex -6.04543 -5.1969 1
      vertex -5.97472 -5.26761 6.00406
      vertex -6.04543 -5.1969 6.00406
    endloop
  endfacet
  facet normal -0.707057 -0.707157 0
    outer loop
      vertex -5.97472 -5.26761 6.00406
      vertex -5.904 -5.33832 7.00406
      vertex -5.97472 -5.26761 7.00406
    endloop
  endfacet
  facet normal -0.707107 -0.707107 0
    outer loop
      vertex -5.26761 -5.97472 6.00406
      vertex -5.97472 -5.26761 6.00406
      vertex -6.04543 -5.1969 1
    endloop
  endfacet
  facet normal -0.707107 -0.707107 0
    outer loop
      vertex -5.904 -5.33832 7.00406
      vertex -5.83329 -5.40903 8.00406
      vertex -5.904 -5.33832 8.00406
    endloop
  endfacet
  facet normal -0.707107 -0.707107 7.07107e-06
    outer loop
      vertex -5.97472 -5.26761 6.00406
      vertex -5.26761 -5.97472 6.00406
      vertex -5.904 -5.33832 7.00406
    endloop
  endfacet
  facet normal -0.707107 -0.707107 0
    outer loop
      vertex -5.83329 -5.40903 8.00406
      vertex -5.76258 -5.47974 9.00406
      vertex -5.83329 -5.40903 9.00406
    endloop
  endfacet
  facet normal -0.707107 -0.707107 7.07107e-06
    outer loop
      vertex -5.33832 -5.904 7.00406
      vertex -5.904 -5.33832 7.00406
      vertex -5.26761 -5.97472 6.00406
    endloop
  endfacet
  facet normal -0.707107 -0.707107 0
    outer loop
      vertex -5.76258 -5.47974 9.00406
      vertex -5.69187 -5.55045 10.0041
      vertex -5.76258 -5.47974 10.0041
    endloop
  endfacet
  facet normal -0.707107 -0.707107 6.24506e-16
    outer loop
      vertex -5.904 -5.33832 7.00406
      vertex -5.33832 -5.904 7.00406
      vertex -5.83329 -5.40903 8.00406
    endloop
  endfacet
  facet normal -0.707107 -0.707107 0
    outer loop
      vertex -5.69187 -5.55045 10.0041
      vertex -5.55045 -5.69187 10.0041
      vertex -5.69187 -5.55045 12.1041
    endloop
  endfacet
  facet normal -0.707107 -0.707107 0
    outer loop
      vertex -5.47974 -5.76258 9.00406
      vertex -5.76258 -5.47974 9.00406
      vertex -5.40903 -5.83329 8.00406
    endloop
  endfacet
  facet normal -0.707107 -0.707107 0
    outer loop
      vertex -5.69187 -5.55045 10.0041
      vertex -5.47974 -5.76258 9.00406
      vertex -5.55045 -5.69187 10.0041
    endloop
  endfacet
  facet normal -0.707107 -0.707107 0
    outer loop
      vertex -5.76258 -5.47974 9.00406
      vertex -5.47974 -5.76258 9.00406
      vertex -5.69187 -5.55045 10.0041
    endloop
  endfacet
  facet normal -0.707107 -0.707107 0
    outer loop
      vertex -5.83329 -5.40903 8.00406
      vertex -5.40903 -5.83329 8.00406
      vertex -5.76258 -5.47974 9.00406
    endloop
  endfacet
  facet normal -0.707107 -0.707107 6.30289e-16
    outer loop
      vertex -5.40903 -5.83329 8.00406
      vertex -5.83329 -5.40903 8.00406
      vertex -5.33832 -5.904 7.00406
    endloop
  endfacet
  facet normal -0.707107 -0.707107 0
    outer loop
      vertex -5.1969 -6.04543 1
      vertex -5.26761 -5.97472 6.00406
      vertex -6.04543 -5.1969 1
    endloop
  endfacet
  facet normal -0.707107 -0.707107 0
    outer loop
      vertex -5.26761 -5.97472 6.00406
      vertex -5.1969 -6.04543 1
      vertex -5.1969 -6.04543 6.00406
    endloop
  endfacet
  facet normal -0.707107 -0.707107 0
    outer loop
      vertex -5.69187 -5.55045 12.1041
      vertex -5.55045 -5.69187 10.0041
      vertex -5.55045 -5.69187 12.1041
    endloop
  endfacet
  facet normal -0.707107 -0.707107 0
    outer loop
      vertex -5.55045 -5.69187 10.0041
      vertex -5.47974 -5.76258 9.00406
      vertex -5.47974 -5.76258 10.0041
    endloop
  endfacet
  facet normal -0.707107 -0.707107 0
    outer loop
      vertex -5.47974 -5.76258 9.00406
      vertex -5.40903 -5.83329 8.00406
      vertex -5.40903 -5.83329 9.00406
    endloop
  endfacet
  facet normal -0.707107 -0.707107 0
    outer loop
      vertex -5.40903 -5.83329 8.00406
      vertex -5.33832 -5.904 7.00406
      vertex -5.33832 -5.904 8.00406
    endloop
  endfacet
  facet normal -0.707157 -0.707057 0
    outer loop
      vertex -5.33832 -5.904 7.00406
      vertex -5.26761 -5.97472 6.00406
      vertex -5.26761 -5.97472 7.00406
    endloop
  endfacet
  facet normal 0.707106 0.707107 0
    outer loop
      vertex -0.0176713 -0.123737 3.19793
      vertex -0.0176713 -0.123737 2.21199
      vertex -0.0707042 -0.0707042 3.11308
    endloop
  endfacet
  facet normal 0.707107 0.707107 7.84724e-08
    outer loop
      vertex -0.123737 -0.0176713 2.21199
      vertex -0.0707042 -0.0707042 3.11308
      vertex -0.0176713 -0.123737 2.21199
    endloop
  endfacet
  facet normal 0.707107 0.707106 0
    outer loop
      vertex -0.0707042 -0.0707042 3.11308
      vertex -0.123737 -0.0176713 2.21199
      vertex -0.123737 -0.0176713 3.19793
    endloop
  endfacet
  facet normal 0.707101 0.707113 -0
    outer loop
      vertex 0 -0.141408 1
      vertex -0.0176713 -0.123737 2.21199
      vertex 0 -0.141408 2.21199
    endloop
  endfacet
  facet normal 0.707107 0.707107 1.75028e-07
    outer loop
      vertex -0.0176713 -0.123737 2.21199
      vertex 0 -0.141408 1
      vertex -0.123737 -0.0176713 2.21199
    endloop
  endfacet
  facet normal 0.707107 0.707107 1.75028e-07
    outer loop
      vertex -0.141408 0 1
      vertex -0.123737 -0.0176713 2.21199
      vertex 0 -0.141408 1
    endloop
  endfacet
  facet normal 0.707113 0.707101 0
    outer loop
      vertex -0.123737 -0.0176713 2.21199
      vertex -0.141408 0 1
      vertex -0.141408 0 2.21199
    endloop
  endfacet
  facet normal 0.707106 0.707108 -0
    outer loop
      vertex 1.53795 -1.43188 4.45214
      vertex 0.123737 -0.0176713 3.19793
      vertex 1.53795 -1.43188 5.46069
    endloop
  endfacet
  facet normal 0.707106 0.707108 0
    outer loop
      vertex 0.123737 -0.0176713 3.19793
      vertex 1.53795 -1.43188 4.45214
      vertex 0.123737 -0.0176713 2.21199
    endloop
  endfacet
  facet normal -0.707108 -0.707106 0
    outer loop
      vertex 1.43188 -1.53795 4.45214
      vertex 0.0176713 -0.123737 3.19793
      vertex 0.0176713 -0.123737 2.21199
    endloop
  endfacet
  facet normal -0.707108 -0.707106 0
    outer loop
      vertex 0.0176713 -0.123737 3.19793
      vertex 1.43188 -1.53795 4.45214
      vertex 1.43188 -1.53795 5.46069
    endloop
  endfacet
  facet normal 0.707107 -0.707107 0
    outer loop
      vertex 5.69187 -5.55045 12.1041
      vertex 5.55045 -5.69187 12.1041
      vertex 5.69187 -5.55045 10.0041
    endloop
  endfacet
  facet normal 0.707107 -0.707107 0
    outer loop
      vertex 5.76258 -5.47974 10.0041
      vertex 5.69187 -5.55045 10.0041
      vertex 5.76258 -5.47974 9.00406
    endloop
  endfacet
  facet normal 0.707107 -0.707107 0
    outer loop
      vertex 5.83329 -5.40903 9.00406
      vertex 5.76258 -5.47974 9.00406
      vertex 5.83329 -5.40903 8.00406
    endloop
  endfacet
  facet normal 0.707107 -0.707107 0
    outer loop
      vertex 5.904 -5.33832 8.00406
      vertex 5.83329 -5.40903 8.00406
      vertex 5.904 -5.33832 7.00406
    endloop
  endfacet
  facet normal 0.707057 -0.707157 0
    outer loop
      vertex 5.97472 -5.26761 7.00406
      vertex 5.904 -5.33832 7.00406
      vertex 5.97472 -5.26761 6.00406
    endloop
  endfacet
  facet normal 0.707107 -0.707107 0
    outer loop
      vertex 5.97472 -5.26761 6.00406
      vertex 6.04543 -5.1969 1
      vertex 6.04543 -5.1969 6.00406
    endloop
  endfacet
  facet normal 0.707107 -0.707107 7.07107e-06
    outer loop
      vertex 5.26761 -5.97472 6.00406
      vertex 5.97472 -5.26761 6.00406
      vertex 5.904 -5.33832 7.00406
    endloop
  endfacet
  facet normal 0.707107 -0.707107 6.24506e-16
    outer loop
      vertex 5.33832 -5.904 7.00406
      vertex 5.904 -5.33832 7.00406
      vertex 5.83329 -5.40903 8.00406
    endloop
  endfacet
  facet normal 0.707107 -0.707107 0
    outer loop
      vertex 5.40903 -5.83329 8.00406
      vertex 5.83329 -5.40903 8.00406
      vertex 5.76258 -5.47974 9.00406
    endloop
  endfacet
  facet normal 0.707107 -0.707107 0
    outer loop
      vertex 5.47974 -5.76258 9.00406
      vertex 5.76258 -5.47974 9.00406
      vertex 5.69187 -5.55045 10.0041
    endloop
  endfacet
  facet normal 0.707107 -0.707107 0
    outer loop
      vertex 5.55045 -5.69187 10.0041
      vertex 5.69187 -5.55045 10.0041
      vertex 5.55045 -5.69187 12.1041
    endloop
  endfacet
  facet normal 0.707107 -0.707107 0
    outer loop
      vertex 5.47974 -5.76258 9.00406
      vertex 5.69187 -5.55045 10.0041
      vertex 5.55045 -5.69187 10.0041
    endloop
  endfacet
  facet normal 0.707107 -0.707107 0
    outer loop
      vertex 5.47974 -5.76258 9.00406
      vertex 5.55045 -5.69187 10.0041
      vertex 5.47974 -5.76258 10.0041
    endloop
  endfacet
  facet normal 0.707107 -0.707107 0
    outer loop
      vertex 5.76258 -5.47974 9.00406
      vertex 5.47974 -5.76258 9.00406
      vertex 5.40903 -5.83329 8.00406
    endloop
  endfacet
  facet normal 0.707107 -0.707107 0
    outer loop
      vertex 5.40903 -5.83329 8.00406
      vertex 5.47974 -5.76258 9.00406
      vertex 5.40903 -5.83329 9.00406
    endloop
  endfacet
  facet normal 0.707107 -0.707107 6.01377e-16
    outer loop
      vertex 5.83329 -5.40903 8.00406
      vertex 5.40903 -5.83329 8.00406
      vertex 5.33832 -5.904 7.00406
    endloop
  endfacet
  facet normal 0.707107 -0.707107 0
    outer loop
      vertex 5.33832 -5.904 7.00406
      vertex 5.40903 -5.83329 8.00406
      vertex 5.33832 -5.904 8.00406
    endloop
  endfacet
  facet normal 0.707107 -0.707107 7.07107e-06
    outer loop
      vertex 5.904 -5.33832 7.00406
      vertex 5.33832 -5.904 7.00406
      vertex 5.26761 -5.97472 6.00406
    endloop
  endfacet
  facet normal 0.707157 -0.707057 0
    outer loop
      vertex 5.26761 -5.97472 6.00406
      vertex 5.33832 -5.904 7.00406
      vertex 5.26761 -5.97472 7.00406
    endloop
  endfacet
  facet normal 0.707107 -0.707107 0
    outer loop
      vertex 5.97472 -5.26761 6.00406
      vertex 5.26761 -5.97472 6.00406
      vertex 6.04543 -5.1969 1
    endloop
  endfacet
  facet normal 0.707107 -0.707107 0
    outer loop
      vertex 5.1969 -6.04543 1
      vertex 5.26761 -5.97472 6.00406
      vertex 5.1969 -6.04543 6.00406
    endloop
  endfacet
  facet normal 0.707107 -0.707107 0
    outer loop
      vertex 5.26761 -5.97472 6.00406
      vertex 5.1969 -6.04543 1
      vertex 6.04543 -5.1969 1
    endloop
  endfacet
  facet normal -0.707113 0.707101 0
    outer loop
      vertex 0.141408 0 1
      vertex 0.123737 -0.0176713 2.21199
      vertex 0.141408 0 2.21199
    endloop
  endfacet
  facet normal -0.707107 0.707106 0
    outer loop
      vertex 0.123737 -0.0176713 2.21199
      vertex 0.0707042 -0.0707042 3.11308
      vertex 0.123737 -0.0176713 3.19793
    endloop
  endfacet
  facet normal -0.707107 0.707107 1.75028e-07
    outer loop
      vertex 0.0176713 -0.123737 2.21199
      vertex 0.123737 -0.0176713 2.21199
      vertex 0.141408 0 1
    endloop
  endfacet
  facet normal -0.707107 0.707107 7.84724e-08
    outer loop
      vertex 0.123737 -0.0176713 2.21199
      vertex 0.0176713 -0.123737 2.21199
      vertex 0.0707042 -0.0707042 3.11308
    endloop
  endfacet
  facet normal -0.707107 0.707107 1.75028e-07
    outer loop
      vertex 0 -0.141408 1
      vertex 0.0176713 -0.123737 2.21199
      vertex 0.141408 0 1
    endloop
  endfacet
  facet normal -0.707101 0.707113 0
    outer loop
      vertex 0.0176713 -0.123737 2.21199
      vertex 0 -0.141408 1
      vertex 0 -0.141408 2.21199
    endloop
  endfacet
  facet normal -0.707106 0.707107 0
    outer loop
      vertex 0.0707042 -0.0707042 3.11308
      vertex 0.0176713 -0.123737 2.21199
      vertex 0.0176713 -0.123737 3.19793
    endloop
  endfacet
  facet normal -0.707107 0.707107 0
    outer loop
      vertex 1.41421 1.55563 5.47856
      vertex 5.55045 5.69187 10.0041
      vertex 1.41421 1.55563 4.45214
    endloop
  endfacet
  facet normal -0.707108 0.707105 1.99491e-06
    outer loop
      vertex 0 0.141421 2.19943
      vertex 1.41421 1.55563 4.45214
      vertex 5.55045 5.69187 10.0041
    endloop
  endfacet
  facet normal -0.707107 0.707107 0
    outer loop
      vertex 1.41421 1.55563 4.45214
      vertex 0 0.141421 2.19943
      vertex 0 0.141421 2.212
    endloop
  endfacet
  facet normal -0.707107 0.707107 0
    outer loop
      vertex 5.55045 5.69187 10.0041
      vertex 1.41421 1.55563 5.47856
      vertex 5.55045 5.69187 12.1041
    endloop
  endfacet
  facet normal -0.707307 -0.706907 0
    outer loop
      vertex 1.43188 1.53795 5.46069
      vertex 1.41421 1.55563 5.47856
      vertex 1.41421 1.55563 4.45214
    endloop
  endfacet
  facet normal -0.707307 -0.706907 -0
    outer loop
      vertex 1.43188 1.53795 5.46069
      vertex 1.41421 1.55563 4.45214
      vertex 1.43188 1.53795 4.45214
    endloop
  endfacet
  facet normal -0.70765 -0.706563 -0.000679463
    outer loop
      vertex 1.41421 1.55563 5.47856
      vertex 1.43188 1.53795 5.46069
      vertex 1.42071 1.54912 5.47856
    endloop
  endfacet
  facet normal -0.706907 -0.707307 0
    outer loop
      vertex 1.55563 1.41421 4.45214
      vertex 1.53795 1.43188 5.46069
      vertex 1.53795 1.43188 4.45214
    endloop
  endfacet
  facet normal -0.706907 -0.707307 -0
    outer loop
      vertex 1.55563 1.41421 5.47856
      vertex 1.53795 1.43188 5.46069
      vertex 1.55563 1.41421 4.45214
    endloop
  endfacet
  facet normal -0.706563 -0.70765 -0.000679463
    outer loop
      vertex 1.53795 1.43188 5.46069
      vertex 1.55563 1.41421 5.47856
      vertex 1.54912 1.42071 5.47856
    endloop
  endfacet
  facet normal -0.535213 -0.535213 0.653524
    outer loop
      vertex 5.55045 5.69187 12.1041
      vertex 5.62 5.62 12.1022
      vertex 5.69187 5.55045 12.1041
    endloop
  endfacet
  facet normal -0.529957 -0.530344 0.661725
    outer loop
      vertex 5.55045 5.69187 12.1041
      vertex 5.4824 5.62 11.992
      vertex 5.62 5.62 12.1022
    endloop
  endfacet
  facet normal -0.523786 -0.536329 0.661816
    outer loop
      vertex 1.41421 1.55563 5.47856
      vertex 5.4824 5.62 11.992
      vertex 5.55045 5.69187 12.1041
    endloop
  endfacet
  facet normal -0.530484 -0.529669 0.661844
    outer loop
      vertex 5.4824 5.62 11.992
      vertex 1.41421 1.55563 5.47856
      vertex 1.42071 1.54912 5.47856
    endloop
  endfacet
  facet normal -0.530344 -0.529957 0.661725
    outer loop
      vertex 5.62 5.4824 11.992
      vertex 5.69187 5.55045 12.1041
      vertex 5.62 5.62 12.1022
    endloop
  endfacet
  facet normal -0.536329 -0.523786 0.661816
    outer loop
      vertex 5.62 5.4824 11.992
      vertex 1.55563 1.41421 5.47856
      vertex 5.69187 5.55045 12.1041
    endloop
  endfacet
  facet normal -0.529669 -0.530484 0.661844
    outer loop
      vertex 1.55563 1.41421 5.47856
      vertex 5.62 5.4824 11.992
      vertex 1.54912 1.42071 5.47856
    endloop
  endfacet
  facet normal 0.707107 -0.707107 0
    outer loop
      vertex 1.55563 1.41421 5.47856
      vertex 5.69187 5.55045 10.0041
      vertex 5.69187 5.55045 12.1041
    endloop
  endfacet
  facet normal 0.707107 -0.707107 0
    outer loop
      vertex 1.55563 1.41421 4.45214
      vertex 5.69187 5.55045 10.0041
      vertex 1.55563 1.41421 5.47856
    endloop
  endfacet
  facet normal 0.707107 -0.707107 0
    outer loop
      vertex 0.141421 0 2.19943
      vertex 1.55563 1.41421 4.45214
      vertex 0.141421 0 2.212
    endloop
  endfacet
  facet normal 0.707105 -0.707108 1.99491e-06
    outer loop
      vertex 1.55563 1.41421 4.45214
      vertex 0.141421 0 2.19943
      vertex 5.69187 5.55045 10.0041
    endloop
  endfacet
  facet normal -0.707107 -0.707107 -0
    outer loop
      vertex -1.55563 1.41421 5.47856
      vertex -5.69187 5.55045 10.0041
      vertex -1.55563 1.41421 4.45214
    endloop
  endfacet
  facet normal -0.707105 -0.707108 1.99491e-06
    outer loop
      vertex -0.141421 0 2.19943
      vertex -1.55563 1.41421 4.45214
      vertex -5.69187 5.55045 10.0041
    endloop
  endfacet
  facet normal -0.707107 -0.707107 0
    outer loop
      vertex -1.55563 1.41421 4.45214
      vertex -0.141421 0 2.19943
      vertex -0.141421 0 2.212
    endloop
  endfacet
  facet normal -0.707107 -0.707107 0
    outer loop
      vertex -5.69187 5.55045 10.0041
      vertex -1.55563 1.41421 5.47856
      vertex -5.69187 5.55045 12.1041
    endloop
  endfacet
  facet normal 0.706563 -0.70765 -0.000679463
    outer loop
      vertex -1.55563 1.41421 5.47856
      vertex -1.53795 1.43188 5.46069
      vertex -1.54912 1.42071 5.47856
    endloop
  endfacet
  facet normal 0.706907 -0.707307 0
    outer loop
      vertex -1.53795 1.43188 5.46069
      vertex -1.55563 1.41421 5.47856
      vertex -1.55563 1.41421 4.45214
    endloop
  endfacet
  facet normal 0.706907 -0.707307 0
    outer loop
      vertex -1.53795 1.43188 5.46069
      vertex -1.55563 1.41421 4.45214
      vertex -1.53795 1.43188 4.45214
    endloop
  endfacet
  facet normal 0.70765 -0.706563 -0.000679463
    outer loop
      vertex -1.43188 1.53795 5.46069
      vertex -1.41421 1.55563 5.47856
      vertex -1.42071 1.54912 5.47856
    endloop
  endfacet
  facet normal 0.707307 -0.706907 0
    outer loop
      vertex -1.41421 1.55563 5.47856
      vertex -1.43188 1.53795 5.46069
      vertex -1.41421 1.55563 4.45214
    endloop
  endfacet
  facet normal 0.707307 -0.706907 0
    outer loop
      vertex -1.41421 1.55563 4.45214
      vertex -1.43188 1.53795 5.46069
      vertex -1.43188 1.53795 4.45214
    endloop
  endfacet
  facet normal 0.530484 -0.529669 0.661844
    outer loop
      vertex -1.41421 1.55563 5.47856
      vertex -5.4824 5.62 11.992
      vertex -1.42071 1.54912 5.47856
    endloop
  endfacet
  facet normal 0.523786 -0.536329 0.661816
    outer loop
      vertex -5.55045 5.69187 12.1041
      vertex -5.4824 5.62 11.992
      vertex -1.41421 1.55563 5.47856
    endloop
  endfacet
  facet normal 0.529957 -0.530344 0.661725
    outer loop
      vertex -5.55045 5.69187 12.1041
      vertex -5.62 5.62 12.1022
      vertex -5.4824 5.62 11.992
    endloop
  endfacet
  facet normal 0.530344 -0.529957 0.661725
    outer loop
      vertex -5.62 5.62 12.1022
      vertex -5.69187 5.55045 12.1041
      vertex -5.62 5.4824 11.992
    endloop
  endfacet
  facet normal 0.535213 -0.535213 0.653524
    outer loop
      vertex -5.69187 5.55045 12.1041
      vertex -5.62 5.62 12.1022
      vertex -5.55045 5.69187 12.1041
    endloop
  endfacet
  facet normal 0.529669 -0.530484 0.661844
    outer loop
      vertex -5.62 5.4824 11.992
      vertex -1.55563 1.41421 5.47856
      vertex -1.54912 1.42071 5.47856
    endloop
  endfacet
  facet normal 0.536329 -0.523786 0.661816
    outer loop
      vertex -1.55563 1.41421 5.47856
      vertex -5.62 5.4824 11.992
      vertex -5.69187 5.55045 12.1041
    endloop
  endfacet
  facet normal 0.707107 0.707107 0
    outer loop
      vertex -1.41421 1.55563 5.47856
      vertex -5.55045 5.69187 10.0041
      vertex -5.55045 5.69187 12.1041
    endloop
  endfacet
  facet normal 0.707107 0.707107 -0
    outer loop
      vertex -1.41421 1.55563 4.45214
      vertex -5.55045 5.69187 10.0041
      vertex -1.41421 1.55563 5.47856
    endloop
  endfacet
  facet normal 0.707107 0.707107 -0
    outer loop
      vertex 0 0.141421 2.19943
      vertex -1.41421 1.55563 4.45214
      vertex 0 0.141421 2.212
    endloop
  endfacet
  facet normal 0.707108 0.707105 1.99491e-06
    outer loop
      vertex -1.41421 1.55563 4.45214
      vertex 0 0.141421 2.19943
      vertex -5.55045 5.69187 10.0041
    endloop
  endfacet
  facet normal 0.707107 -0.707107 0
    outer loop
      vertex -5.55045 -5.69187 10.0041
      vertex -1.41421 -1.55563 5.47856
      vertex -5.55045 -5.69187 12.1041
    endloop
  endfacet
  facet normal 0.707107 -0.707107 0
    outer loop
      vertex -1.41421 -1.55563 4.45214
      vertex 0 -0.141421 2.19943
      vertex 0 -0.141421 2.212
    endloop
  endfacet
  facet normal 0.707108 -0.707105 1.99491e-06
    outer loop
      vertex -1.41421 -1.55563 4.45214
      vertex -5.55045 -5.69187 10.0041
      vertex 0 -0.141421 2.19943
    endloop
  endfacet
  facet normal 0.707107 -0.707107 0
    outer loop
      vertex -1.41421 -1.55563 5.47856
      vertex -5.55045 -5.69187 10.0041
      vertex -1.41421 -1.55563 4.45214
    endloop
  endfacet
  facet normal -0.707107 0.707107 0
    outer loop
      vertex -0.141421 0 2.19943
      vertex -1.55563 -1.41421 4.45214
      vertex -0.141421 0 2.212
    endloop
  endfacet
  facet normal -0.707105 0.707108 1.99491e-06
    outer loop
      vertex -5.69187 -5.55045 10.0041
      vertex -1.55563 -1.41421 4.45214
      vertex -0.141421 0 2.19943
    endloop
  endfacet
  facet normal -0.707107 0.707107 0
    outer loop
      vertex -5.69187 -5.55045 10.0041
      vertex -1.55563 -1.41421 5.47856
      vertex -1.55563 -1.41421 4.45214
    endloop
  endfacet
  facet normal -0.707107 0.707107 0
    outer loop
      vertex -1.55563 -1.41421 5.47856
      vertex -5.69187 -5.55045 10.0041
      vertex -5.69187 -5.55045 12.1041
    endloop
  endfacet
  facet normal 0.70765 0.706563 -0.000679463
    outer loop
      vertex -1.41421 -1.55563 5.47856
      vertex -1.43188 -1.53795 5.46069
      vertex -1.42071 -1.54912 5.47856
    endloop
  endfacet
  facet normal 0.707307 0.706907 0
    outer loop
      vertex -1.43188 -1.53795 5.46069
      vertex -1.41421 -1.55563 5.47856
      vertex -1.41421 -1.55563 4.45214
    endloop
  endfacet
  facet normal 0.707307 0.706907 0
    outer loop
      vertex -1.43188 -1.53795 5.46069
      vertex -1.41421 -1.55563 4.45214
      vertex -1.43188 -1.53795 4.45214
    endloop
  endfacet
  facet normal 0.706563 0.70765 -0.000679463
    outer loop
      vertex -1.53795 -1.43188 5.46069
      vertex -1.55563 -1.41421 5.47856
      vertex -1.54912 -1.42071 5.47856
    endloop
  endfacet
  facet normal 0.706907 0.707307 0
    outer loop
      vertex -1.55563 -1.41421 5.47856
      vertex -1.53795 -1.43188 5.46069
      vertex -1.55563 -1.41421 4.45214
    endloop
  endfacet
  facet normal 0.706907 0.707307 0
    outer loop
      vertex -1.55563 -1.41421 4.45214
      vertex -1.53795 -1.43188 5.46069
      vertex -1.53795 -1.43188 4.45214
    endloop
  endfacet
  facet normal 0.529669 0.530484 0.661844
    outer loop
      vertex -1.55563 -1.41421 5.47856
      vertex -5.62 -5.4824 11.992
      vertex -1.54912 -1.42071 5.47856
    endloop
  endfacet
  facet normal 0.530344 0.529957 0.661725
    outer loop
      vertex -5.62 -5.4824 11.992
      vertex -5.69187 -5.55045 12.1041
      vertex -5.62 -5.62 12.1022
    endloop
  endfacet
  facet normal 0.536329 0.523786 0.661816
    outer loop
      vertex -5.69187 -5.55045 12.1041
      vertex -5.62 -5.4824 11.992
      vertex -1.55563 -1.41421 5.47856
    endloop
  endfacet
  facet normal 0.530484 0.529669 0.661844
    outer loop
      vertex -5.4824 -5.62 11.992
      vertex -1.41421 -1.55563 5.47856
      vertex -1.42071 -1.54912 5.47856
    endloop
  endfacet
  facet normal 0.523786 0.536329 0.661816
    outer loop
      vertex -5.4824 -5.62 11.992
      vertex -5.55045 -5.69187 12.1041
      vertex -1.41421 -1.55563 5.47856
    endloop
  endfacet
  facet normal 0.529957 0.530344 0.661725
    outer loop
      vertex -5.62 -5.62 12.1022
      vertex -5.55045 -5.69187 12.1041
      vertex -5.4824 -5.62 11.992
    endloop
  endfacet
  facet normal 0.535213 0.535213 0.653524
    outer loop
      vertex -5.55045 -5.69187 12.1041
      vertex -5.62 -5.62 12.1022
      vertex -5.69187 -5.55045 12.1041
    endloop
  endfacet
  facet normal 0.707107 0.707107 -0
    outer loop
      vertex 5.69187 -5.55045 10.0041
      vertex 1.55563 -1.41421 5.47856
      vertex 5.69187 -5.55045 12.1041
    endloop
  endfacet
  facet normal 0.707107 0.707107 0
    outer loop
      vertex 1.55563 -1.41421 4.45214
      vertex 0.141421 0 2.19943
      vertex 0.141421 0 2.212
    endloop
  endfacet
  facet normal 0.707105 0.707108 1.99491e-06
    outer loop
      vertex 1.55563 -1.41421 4.45214
      vertex 5.69187 -5.55045 10.0041
      vertex 0.141421 0 2.19943
    endloop
  endfacet
  facet normal 0.707107 0.707107 0
    outer loop
      vertex 1.55563 -1.41421 5.47856
      vertex 5.69187 -5.55045 10.0041
      vertex 1.55563 -1.41421 4.45214
    endloop
  endfacet
  facet normal -0.707107 -0.707107 0
    outer loop
      vertex 0 -0.141421 2.19943
      vertex 1.41421 -1.55563 4.45214
      vertex 0 -0.141421 2.212
    endloop
  endfacet
  facet normal -0.707108 -0.707105 1.99491e-06
    outer loop
      vertex 5.55045 -5.69187 10.0041
      vertex 1.41421 -1.55563 4.45214
      vertex 0 -0.141421 2.19943
    endloop
  endfacet
  facet normal -0.707107 -0.707107 0
    outer loop
      vertex 5.55045 -5.69187 10.0041
      vertex 1.41421 -1.55563 5.47856
      vertex 1.41421 -1.55563 4.45214
    endloop
  endfacet
  facet normal -0.707107 -0.707107 0
    outer loop
      vertex 1.41421 -1.55563 5.47856
      vertex 5.55045 -5.69187 10.0041
      vertex 5.55045 -5.69187 12.1041
    endloop
  endfacet
  facet normal -0.706907 0.707307 0
    outer loop
      vertex 1.53795 -1.43188 5.46069
      vertex 1.55563 -1.41421 5.47856
      vertex 1.55563 -1.41421 4.45214
    endloop
  endfacet
  facet normal -0.706907 0.707307 0
    outer loop
      vertex 1.53795 -1.43188 5.46069
      vertex 1.55563 -1.41421 4.45214
      vertex 1.53795 -1.43188 4.45214
    endloop
  endfacet
  facet normal -0.706563 0.70765 -0.000679463
    outer loop
      vertex 1.55563 -1.41421 5.47856
      vertex 1.53795 -1.43188 5.46069
      vertex 1.54912 -1.42071 5.47856
    endloop
  endfacet
  facet normal -0.707307 0.706907 0
    outer loop
      vertex 1.41421 -1.55563 4.45214
      vertex 1.43188 -1.53795 5.46069
      vertex 1.43188 -1.53795 4.45214
    endloop
  endfacet
  facet normal -0.707307 0.706907 0
    outer loop
      vertex 1.41421 -1.55563 5.47856
      vertex 1.43188 -1.53795 5.46069
      vertex 1.41421 -1.55563 4.45214
    endloop
  endfacet
  facet normal -0.70765 0.706563 -0.000679463
    outer loop
      vertex 1.43188 -1.53795 5.46069
      vertex 1.41421 -1.55563 5.47856
      vertex 1.42071 -1.54912 5.47856
    endloop
  endfacet
  facet normal -0.536329 0.523786 0.661816
    outer loop
      vertex 1.55563 -1.41421 5.47856
      vertex 5.62 -5.4824 11.992
      vertex 5.69187 -5.55045 12.1041
    endloop
  endfacet
  facet normal -0.529669 0.530484 0.661844
    outer loop
      vertex 5.62 -5.4824 11.992
      vertex 1.55563 -1.41421 5.47856
      vertex 1.54912 -1.42071 5.47856
    endloop
  endfacet
  facet normal -0.530344 0.529957 0.661725
    outer loop
      vertex 5.62 -5.62 12.1022
      vertex 5.69187 -5.55045 12.1041
      vertex 5.62 -5.4824 11.992
    endloop
  endfacet
  facet normal -0.535213 0.535213 0.653524
    outer loop
      vertex 5.62 -5.62 12.1022
      vertex 5.55045 -5.69187 12.1041
      vertex 5.69187 -5.55045 12.1041
    endloop
  endfacet
  facet normal -0.529957 0.530344 0.661725
    outer loop
      vertex 5.4824 -5.62 11.992
      vertex 5.55045 -5.69187 12.1041
      vertex 5.62 -5.62 12.1022
    endloop
  endfacet
  facet normal -0.530484 0.529669 0.661844
    outer loop
      vertex 1.41421 -1.55563 5.47856
      vertex 5.4824 -5.62 11.992
      vertex 1.42071 -1.54912 5.47856
    endloop
  endfacet
  facet normal -0.523786 0.536329 0.661816
    outer loop
      vertex 5.4824 -5.62 11.992
      vertex 1.41421 -1.55563 5.47856
      vertex 5.55045 -5.69187 12.1041
    endloop
  endfacet
  facet normal -0.527324 -0.527622 0.665992
    outer loop
      vertex 1.53795 1.43188 4.45214
      vertex 0.141421 0 2.212
      vertex 1.55563 1.41421 4.45214
    endloop
  endfacet
  facet normal -0.527473 -0.527475 0.66599
    outer loop
      vertex 0.123737 0.0176713 2.21199
      vertex 0.141421 0 2.212
      vertex 1.53795 1.43188 4.45214
    endloop
  endfacet
  facet normal -0.520582 -0.520573 0.676756
    outer loop
      vertex 0.141421 0 2.212
      vertex 0.123737 0.0176713 2.21199
      vertex 0.141408 0 2.21199
    endloop
  endfacet
  facet normal -0.527623 -0.527324 0.66599
    outer loop
      vertex 1.41421 1.55563 4.45214
      vertex 0.0176713 0.123737 2.21199
      vertex 1.43188 1.53795 4.45214
    endloop
  endfacet
  facet normal -0.527474 -0.527472 0.665992
    outer loop
      vertex 0 0.141421 2.212
      vertex 0.0176713 0.123737 2.21199
      vertex 1.41421 1.55563 4.45214
    endloop
  endfacet
  facet normal -0.520573 -0.520582 0.676756
    outer loop
      vertex 0.0176713 0.123737 2.21199
      vertex 0 0.141421 2.212
      vertex 0 0.141408 2.21199
    endloop
  endfacet
  facet normal -0.707107 0.707107 0
    outer loop
      vertex 0 0.282842 2.29885
      vertex 5.47974 5.76258 9.00406
      vertex 0 0.282842 2.27369
    endloop
  endfacet
  facet normal -0.707107 0.707107 0
    outer loop
      vertex 5.47974 5.76258 9.00406
      vertex 0 0.282842 2.29885
      vertex 5.47974 5.76258 10.0041
    endloop
  endfacet
  facet normal -0.498566 -0.498566 0.709129
    outer loop
      vertex 0 0.282842 2.29885
      vertex 5.55045 5.69187 10.0041
      vertex 5.47974 5.76258 10.0041
    endloop
  endfacet
  facet normal -0.498607 -0.498523 0.70913
    outer loop
      vertex 5.55045 5.69187 10.0041
      vertex 0 0.282842 2.29885
      vertex 0 0.141421 2.19943
    endloop
  endfacet
  facet normal -0.498566 -0.498566 0.709129
    outer loop
      vertex 5.69187 5.55045 10.0041
      vertex 0.282842 0 2.29885
      vertex 5.76258 5.47974 10.0041
    endloop
  endfacet
  facet normal -0.498523 -0.498607 0.70913
    outer loop
      vertex 0.282842 0 2.29885
      vertex 5.69187 5.55045 10.0041
      vertex 0.141421 0 2.19943
    endloop
  endfacet
  facet normal 0.707107 -0.707107 0
    outer loop
      vertex 0.282842 0 2.29885
      vertex 5.76258 5.47974 9.00406
      vertex 5.76258 5.47974 10.0041
    endloop
  endfacet
  facet normal 0.707107 -0.707107 0
    outer loop
      vertex 5.76258 5.47974 9.00406
      vertex 0.282842 0 2.29885
      vertex 0.282842 0 2.27369
    endloop
  endfacet
  facet normal -0.707107 0.707107 0
    outer loop
      vertex 0 0.424263 2.36053
      vertex 5.40903 5.83329 8.00406
      vertex 0 0.424263 2.3228
    endloop
  endfacet
  facet normal -0.707107 0.707107 0
    outer loop
      vertex 5.40903 5.83329 8.00406
      vertex 0 0.424263 2.36053
      vertex 5.40903 5.83329 9.00406
    endloop
  endfacet
  facet normal -0.463661 -0.463661 0.755007
    outer loop
      vertex 0 0.424263 2.36053
      vertex 5.47974 5.76258 9.00406
      vertex 5.40903 5.83329 9.00406
    endloop
  endfacet
  facet normal -0.463707 -0.463615 0.755008
    outer loop
      vertex 5.47974 5.76258 9.00406
      vertex 0 0.424263 2.36053
      vertex 0 0.282842 2.27369
    endloop
  endfacet
  facet normal -0.463661 -0.463661 0.755007
    outer loop
      vertex 5.76258 5.47974 9.00406
      vertex 0.424263 0 2.36053
      vertex 5.83329 5.40903 9.00406
    endloop
  endfacet
  facet normal -0.463615 -0.463707 0.755008
    outer loop
      vertex 0.424263 0 2.36053
      vertex 5.76258 5.47974 9.00406
      vertex 0.282842 0 2.27369
    endloop
  endfacet
  facet normal 0.707107 -0.707107 0
    outer loop
      vertex 0.424263 0 2.36053
      vertex 5.83329 5.40903 8.00406
      vertex 5.83329 5.40903 9.00406
    endloop
  endfacet
  facet normal 0.707107 -0.707107 0
    outer loop
      vertex 5.83329 5.40903 8.00406
      vertex 0.424263 0 2.36053
      vertex 0.424263 0 2.3228
    endloop
  endfacet
  facet normal -0.707106 0.707107 0
    outer loop
      vertex 0 0.565685 2.39707
      vertex 5.33832 5.904 7.00406
      vertex 0 0.565685 2.34676
    endloop
  endfacet
  facet normal -0.707106 0.707107 0
    outer loop
      vertex 5.33832 5.904 7.00406
      vertex 0 0.565685 2.39707
      vertex 5.33832 5.904 8.00406
    endloop
  endfacet
  facet normal -0.421605 -0.421605 0.802806
    outer loop
      vertex 0 0.565685 2.39707
      vertex 5.40903 5.83329 8.00406
      vertex 5.33832 5.904 8.00406
    endloop
  endfacet
  facet normal -0.421604 -0.421606 0.802806
    outer loop
      vertex 5.40903 5.83329 8.00406
      vertex 0 0.565685 2.39707
      vertex 0 0.424263 2.3228
    endloop
  endfacet
  facet normal -0.421605 -0.421605 0.802806
    outer loop
      vertex 5.83329 5.40903 8.00406
      vertex 0.565685 0 2.39707
      vertex 5.904 5.33832 8.00406
    endloop
  endfacet
  facet normal -0.421606 -0.421604 0.802806
    outer loop
      vertex 0.565685 0 2.39707
      vertex 5.83329 5.40903 8.00406
      vertex 0.424263 0 2.3228
    endloop
  endfacet
  facet normal 0.707107 -0.707106 0
    outer loop
      vertex 0.565685 0 2.39707
      vertex 5.904 5.33832 7.00406
      vertex 5.904 5.33832 8.00406
    endloop
  endfacet
  facet normal 0.707107 -0.707106 0
    outer loop
      vertex 5.904 5.33832 7.00406
      vertex 0.565685 0 2.39707
      vertex 0.565685 0 2.34676
    endloop
  endfacet
  facet normal -0.707107 0.707107 0
    outer loop
      vertex 0 0.707107 2.40845
      vertex 5.26761 5.97472 6.00406
      vertex 0 0.707107 2.34554
    endloop
  endfacet
  facet normal -0.707107 0.707107 0
    outer loop
      vertex 5.26761 5.97472 6.00406
      vertex 0 0.707107 2.40845
      vertex 5.26761 5.97472 7.00406
    endloop
  endfacet
  facet normal 0.707107 -0.707107 0
    outer loop
      vertex 0.707107 0 2.40845
      vertex 5.97472 5.26761 6.00406
      vertex 5.97472 5.26761 7.00406
    endloop
  endfacet
  facet normal 0.707107 -0.707107 0
    outer loop
      vertex 5.97472 5.26761 6.00406
      vertex 0.707107 0 2.40845
      vertex 0.707107 0 2.34554
    endloop
  endfacet
  facet normal -0.37128 -0.371228 0.851082
    outer loop
      vertex 0 0.707107 2.40845
      vertex 5.33832 5.904 7.00406
      vertex 5.26761 5.97472 7.00406
    endloop
  endfacet
  facet normal -0.371256 -0.371252 0.851082
    outer loop
      vertex 5.33832 5.904 7.00406
      vertex 0 0.707107 2.40845
      vertex 0 0.565685 2.34676
    endloop
  endfacet
  facet normal -0.371228 -0.37128 0.851082
    outer loop
      vertex 5.904 5.33832 7.00406
      vertex 0.707107 0 2.40845
      vertex 5.97472 5.26761 7.00406
    endloop
  endfacet
  facet normal -0.371252 -0.371256 0.851082
    outer loop
      vertex 0.707107 0 2.40845
      vertex 5.904 5.33832 7.00406
      vertex 0.565685 0 2.34676
    endloop
  endfacet
  facet normal -0.707107 0.707107 0
    outer loop
      vertex 0 0.848527 2.39465
      vertex 5.1969 6.04543 1
      vertex 0 0.848527 1
    endloop
  endfacet
  facet normal -0.707107 0.707107 0
    outer loop
      vertex 5.1969 6.04543 1
      vertex 0 0.848527 2.39465
      vertex 5.1969 6.04543 6.00406
    endloop
  endfacet
  facet normal -0.311705 -0.311705 0.897597
    outer loop
      vertex 0 0.848527 2.39465
      vertex 5.26761 5.97472 6.00406
      vertex 5.1969 6.04543 6.00406
    endloop
  endfacet
  facet normal -0.311706 -0.311703 0.897597
    outer loop
      vertex 5.26761 5.97472 6.00406
      vertex 0 0.848527 2.39465
      vertex 0 0.707107 2.34554
    endloop
  endfacet
  facet normal -0.311705 -0.311705 0.897597
    outer loop
      vertex 5.97472 5.26761 6.00406
      vertex 0.848527 0 2.39465
      vertex 6.04543 5.1969 6.00406
    endloop
  endfacet
  facet normal -0.311703 -0.311706 0.897597
    outer loop
      vertex 0.848527 0 2.39465
      vertex 5.97472 5.26761 6.00406
      vertex 0.707107 0 2.34554
    endloop
  endfacet
  facet normal 0.707107 -0.707107 0
    outer loop
      vertex 0.848527 0 2.39465
      vertex 6.04543 5.1969 1
      vertex 6.04543 5.1969 6.00406
    endloop
  endfacet
  facet normal 0.707107 -0.707107 0
    outer loop
      vertex 6.04543 5.1969 1
      vertex 0.848527 0 2.39465
      vertex 0.848527 0 1
    endloop
  endfacet
  facet normal 0.520573 -0.520582 0.676756
    outer loop
      vertex 0 0.141421 2.212
      vertex -0.0176713 0.123737 2.21199
      vertex 0 0.141408 2.21199
    endloop
  endfacet
  facet normal 0.527474 -0.527472 0.665992
    outer loop
      vertex -1.41421 1.55563 4.45214
      vertex -0.0176713 0.123737 2.21199
      vertex 0 0.141421 2.212
    endloop
  endfacet
  facet normal 0.527623 -0.527324 0.66599
    outer loop
      vertex -0.0176713 0.123737 2.21199
      vertex -1.41421 1.55563 4.45214
      vertex -1.43188 1.53795 4.45214
    endloop
  endfacet
  facet normal 0.520582 -0.520573 0.676756
    outer loop
      vertex -0.123737 0.0176713 2.21199
      vertex -0.141421 0 2.212
      vertex -0.141408 0 2.21199
    endloop
  endfacet
  facet normal 0.527473 -0.527475 0.66599
    outer loop
      vertex -1.53795 1.43188 4.45214
      vertex -0.141421 0 2.212
      vertex -0.123737 0.0176713 2.21199
    endloop
  endfacet
  facet normal 0.527324 -0.527622 0.665992
    outer loop
      vertex -0.141421 0 2.212
      vertex -1.53795 1.43188 4.45214
      vertex -1.55563 1.41421 4.45214
    endloop
  endfacet
  facet normal -0.707107 -0.707107 -0
    outer loop
      vertex -0.282842 0 2.29885
      vertex -5.76258 5.47974 9.00406
      vertex -0.282842 0 2.27369
    endloop
  endfacet
  facet normal -0.707107 -0.707107 0
    outer loop
      vertex -5.76258 5.47974 9.00406
      vertex -0.282842 0 2.29885
      vertex -5.76258 5.47974 10.0041
    endloop
  endfacet
  facet normal 0.498523 -0.498607 0.70913
    outer loop
      vertex -5.69187 5.55045 10.0041
      vertex -0.282842 0 2.29885
      vertex -0.141421 0 2.19943
    endloop
  endfacet
  facet normal 0.498566 -0.498566 0.709129
    outer loop
      vertex -0.282842 0 2.29885
      vertex -5.69187 5.55045 10.0041
      vertex -5.76258 5.47974 10.0041
    endloop
  endfacet
  facet normal 0.498566 -0.498566 0.709129
    outer loop
      vertex -5.55045 5.69187 10.0041
      vertex 0 0.282842 2.29885
      vertex -5.47974 5.76258 10.0041
    endloop
  endfacet
  facet normal 0.498607 -0.498523 0.70913
    outer loop
      vertex 0 0.282842 2.29885
      vertex -5.55045 5.69187 10.0041
      vertex 0 0.141421 2.19943
    endloop
  endfacet
  facet normal 0.707107 0.707107 0
    outer loop
      vertex 0 0.282842 2.29885
      vertex -5.47974 5.76258 9.00406
      vertex -5.47974 5.76258 10.0041
    endloop
  endfacet
  facet normal 0.707107 0.707107 0
    outer loop
      vertex -5.47974 5.76258 9.00406
      vertex 0 0.282842 2.29885
      vertex 0 0.282842 2.27369
    endloop
  endfacet
  facet normal -0.707107 -0.707107 -0
    outer loop
      vertex -0.424263 0 2.36053
      vertex -5.83329 5.40903 8.00406
      vertex -0.424263 0 2.3228
    endloop
  endfacet
  facet normal -0.707107 -0.707107 0
    outer loop
      vertex -5.83329 5.40903 8.00406
      vertex -0.424263 0 2.36053
      vertex -5.83329 5.40903 9.00406
    endloop
  endfacet
  facet normal 0.463615 -0.463707 0.755008
    outer loop
      vertex -5.76258 5.47974 9.00406
      vertex -0.424263 0 2.36053
      vertex -0.282842 0 2.27369
    endloop
  endfacet
  facet normal 0.463661 -0.463661 0.755007
    outer loop
      vertex -0.424263 0 2.36053
      vertex -5.76258 5.47974 9.00406
      vertex -5.83329 5.40903 9.00406
    endloop
  endfacet
  facet normal 0.463661 -0.463661 0.755007
    outer loop
      vertex -5.47974 5.76258 9.00406
      vertex 0 0.424263 2.36053
      vertex -5.40903 5.83329 9.00406
    endloop
  endfacet
  facet normal 0.463707 -0.463615 0.755008
    outer loop
      vertex 0 0.424263 2.36053
      vertex -5.47974 5.76258 9.00406
      vertex 0 0.282842 2.27369
    endloop
  endfacet
  facet normal 0.707107 0.707107 0
    outer loop
      vertex 0 0.424263 2.36053
      vertex -5.40903 5.83329 8.00406
      vertex -5.40903 5.83329 9.00406
    endloop
  endfacet
  facet normal 0.707107 0.707107 0
    outer loop
      vertex -5.40903 5.83329 8.00406
      vertex 0 0.424263 2.36053
      vertex 0 0.424263 2.3228
    endloop
  endfacet
  facet normal -0.707107 -0.707106 -0
    outer loop
      vertex -0.565685 0 2.39707
      vertex -5.904 5.33832 7.00406
      vertex -0.565685 0 2.34676
    endloop
  endfacet
  facet normal -0.707107 -0.707106 0
    outer loop
      vertex -5.904 5.33832 7.00406
      vertex -0.565685 0 2.39707
      vertex -5.904 5.33832 8.00406
    endloop
  endfacet
  facet normal 0.421606 -0.421604 0.802806
    outer loop
      vertex -5.83329 5.40903 8.00406
      vertex -0.565685 0 2.39707
      vertex -0.424263 0 2.3228
    endloop
  endfacet
  facet normal 0.421605 -0.421605 0.802806
    outer loop
      vertex -0.565685 0 2.39707
      vertex -5.83329 5.40903 8.00406
      vertex -5.904 5.33832 8.00406
    endloop
  endfacet
  facet normal 0.421605 -0.421605 0.802806
    outer loop
      vertex -5.40903 5.83329 8.00406
      vertex 0 0.565685 2.39707
      vertex -5.33832 5.904 8.00406
    endloop
  endfacet
  facet normal 0.421604 -0.421606 0.802806
    outer loop
      vertex 0 0.565685 2.39707
      vertex -5.40903 5.83329 8.00406
      vertex 0 0.424263 2.3228
    endloop
  endfacet
  facet normal 0.707106 0.707107 0
    outer loop
      vertex 0 0.565685 2.39707
      vertex -5.33832 5.904 7.00406
      vertex -5.33832 5.904 8.00406
    endloop
  endfacet
  facet normal 0.707106 0.707107 0
    outer loop
      vertex -5.33832 5.904 7.00406
      vertex 0 0.565685 2.39707
      vertex 0 0.565685 2.34676
    endloop
  endfacet
  facet normal -0.707107 -0.707107 -0
    outer loop
      vertex -0.707107 0 2.40845
      vertex -5.97472 5.26761 6.00406
      vertex -0.707107 0 2.34554
    endloop
  endfacet
  facet normal -0.707107 -0.707107 0
    outer loop
      vertex -5.97472 5.26761 6.00406
      vertex -0.707107 0 2.40845
      vertex -5.97472 5.26761 7.00406
    endloop
  endfacet
  facet normal 0.707107 0.707107 0
    outer loop
      vertex 0 0.707107 2.40845
      vertex -5.26761 5.97472 6.00406
      vertex -5.26761 5.97472 7.00406
    endloop
  endfacet
  facet normal 0.707107 0.707107 0
    outer loop
      vertex -5.26761 5.97472 6.00406
      vertex 0 0.707107 2.40845
      vertex 0 0.707107 2.34554
    endloop
  endfacet
  facet normal 0.371252 -0.371256 0.851082
    outer loop
      vertex -5.904 5.33832 7.00406
      vertex -0.707107 0 2.40845
      vertex -0.565685 0 2.34676
    endloop
  endfacet
  facet normal 0.371228 -0.37128 0.851082
    outer loop
      vertex -0.707107 0 2.40845
      vertex -5.904 5.33832 7.00406
      vertex -5.97472 5.26761 7.00406
    endloop
  endfacet
  facet normal 0.37128 -0.371228 0.851082
    outer loop
      vertex -5.33832 5.904 7.00406
      vertex 0 0.707107 2.40845
      vertex -5.26761 5.97472 7.00406
    endloop
  endfacet
  facet normal 0.371256 -0.371252 0.851082
    outer loop
      vertex 0 0.707107 2.40845
      vertex -5.33832 5.904 7.00406
      vertex 0 0.565685 2.34676
    endloop
  endfacet
  facet normal -0.707107 -0.707107 -0
    outer loop
      vertex -0.848527 0 2.39465
      vertex -6.04543 5.1969 1
      vertex -0.848527 0 1
    endloop
  endfacet
  facet normal -0.707107 -0.707107 0
    outer loop
      vertex -6.04543 5.1969 1
      vertex -0.848527 0 2.39465
      vertex -6.04543 5.1969 6.00406
    endloop
  endfacet
  facet normal 0.311703 -0.311706 0.897597
    outer loop
      vertex -5.97472 5.26761 6.00406
      vertex -0.848527 0 2.39465
      vertex -0.707107 0 2.34554
    endloop
  endfacet
  facet normal 0.311705 -0.311705 0.897597
    outer loop
      vertex -0.848527 0 2.39465
      vertex -5.97472 5.26761 6.00406
      vertex -6.04543 5.1969 6.00406
    endloop
  endfacet
  facet normal 0.311705 -0.311705 0.897597
    outer loop
      vertex -5.26761 5.97472 6.00406
      vertex 0 0.848527 2.39465
      vertex -5.1969 6.04543 6.00406
    endloop
  endfacet
  facet normal 0.311706 -0.311703 0.897597
    outer loop
      vertex 0 0.848527 2.39465
      vertex -5.26761 5.97472 6.00406
      vertex 0 0.707107 2.34554
    endloop
  endfacet
  facet normal 0.707107 0.707107 0
    outer loop
      vertex 0 0.848527 2.39465
      vertex -5.1969 6.04543 1
      vertex -5.1969 6.04543 6.00406
    endloop
  endfacet
  facet normal 0.707107 0.707107 0
    outer loop
      vertex -5.1969 6.04543 1
      vertex 0 0.848527 2.39465
      vertex 0 0.848527 1
    endloop
  endfacet
  facet normal 0.520582 0.520573 0.676756
    outer loop
      vertex -0.141421 0 2.212
      vertex -0.123737 -0.0176713 2.21199
      vertex -0.141408 0 2.21199
    endloop
  endfacet
  facet normal 0.527473 0.527475 0.66599
    outer loop
      vertex -0.141421 0 2.212
      vertex -1.53795 -1.43188 4.45214
      vertex -0.123737 -0.0176713 2.21199
    endloop
  endfacet
  facet normal 0.527324 0.527622 0.665992
    outer loop
      vertex -1.53795 -1.43188 4.45214
      vertex -0.141421 0 2.212
      vertex -1.55563 -1.41421 4.45214
    endloop
  endfacet
  facet normal 0.520573 0.520582 0.676756
    outer loop
      vertex -0.0176713 -0.123737 2.21199
      vertex 0 -0.141421 2.212
      vertex 0 -0.141408 2.21199
    endloop
  endfacet
  facet normal 0.527474 0.527472 0.665992
    outer loop
      vertex -0.0176713 -0.123737 2.21199
      vertex -1.41421 -1.55563 4.45214
      vertex 0 -0.141421 2.212
    endloop
  endfacet
  facet normal 0.527623 0.527324 0.66599
    outer loop
      vertex -1.41421 -1.55563 4.45214
      vertex -0.0176713 -0.123737 2.21199
      vertex -1.43188 -1.53795 4.45214
    endloop
  endfacet
  facet normal 0.707107 -0.707107 0
    outer loop
      vertex -5.47974 -5.76258 9.00406
      vertex 0 -0.282842 2.29885
      vertex -5.47974 -5.76258 10.0041
    endloop
  endfacet
  facet normal 0.707107 -0.707107 0
    outer loop
      vertex 0 -0.282842 2.29885
      vertex -5.47974 -5.76258 9.00406
      vertex 0 -0.282842 2.27369
    endloop
  endfacet
  facet normal 0.498607 0.498523 0.70913
    outer loop
      vertex -5.55045 -5.69187 10.0041
      vertex 0 -0.282842 2.29885
      vertex 0 -0.141421 2.19943
    endloop
  endfacet
  facet normal 0.498566 0.498566 0.709129
    outer loop
      vertex 0 -0.282842 2.29885
      vertex -5.55045 -5.69187 10.0041
      vertex -5.47974 -5.76258 10.0041
    endloop
  endfacet
  facet normal 0.498523 0.498607 0.70913
    outer loop
      vertex -0.282842 0 2.29885
      vertex -5.69187 -5.55045 10.0041
      vertex -0.141421 0 2.19943
    endloop
  endfacet
  facet normal 0.498566 0.498566 0.709129
    outer loop
      vertex -5.69187 -5.55045 10.0041
      vertex -0.282842 0 2.29885
      vertex -5.76258 -5.47974 10.0041
    endloop
  endfacet
  facet normal -0.707107 0.707107 0
    outer loop
      vertex -5.76258 -5.47974 9.00406
      vertex -0.282842 0 2.29885
      vertex -0.282842 0 2.27369
    endloop
  endfacet
  facet normal -0.707107 0.707107 0
    outer loop
      vertex -0.282842 0 2.29885
      vertex -5.76258 -5.47974 9.00406
      vertex -5.76258 -5.47974 10.0041
    endloop
  endfacet
  facet normal 0.707107 -0.707107 0
    outer loop
      vertex -5.40903 -5.83329 8.00406
      vertex 0 -0.424263 2.36053
      vertex -5.40903 -5.83329 9.00406
    endloop
  endfacet
  facet normal 0.707107 -0.707107 0
    outer loop
      vertex 0 -0.424263 2.36053
      vertex -5.40903 -5.83329 8.00406
      vertex 0 -0.424263 2.3228
    endloop
  endfacet
  facet normal 0.463707 0.463615 0.755008
    outer loop
      vertex -5.47974 -5.76258 9.00406
      vertex 0 -0.424263 2.36053
      vertex 0 -0.282842 2.27369
    endloop
  endfacet
  facet normal 0.463661 0.463661 0.755007
    outer loop
      vertex 0 -0.424263 2.36053
      vertex -5.47974 -5.76258 9.00406
      vertex -5.40903 -5.83329 9.00406
    endloop
  endfacet
  facet normal 0.463615 0.463707 0.755008
    outer loop
      vertex -0.424263 0 2.36053
      vertex -5.76258 -5.47974 9.00406
      vertex -0.282842 0 2.27369
    endloop
  endfacet
  facet normal 0.463661 0.463661 0.755007
    outer loop
      vertex -5.76258 -5.47974 9.00406
      vertex -0.424263 0 2.36053
      vertex -5.83329 -5.40903 9.00406
    endloop
  endfacet
  facet normal -0.707107 0.707107 0
    outer loop
      vertex -5.83329 -5.40903 8.00406
      vertex -0.424263 0 2.36053
      vertex -0.424263 0 2.3228
    endloop
  endfacet
  facet normal -0.707107 0.707107 0
    outer loop
      vertex -0.424263 0 2.36053
      vertex -5.83329 -5.40903 8.00406
      vertex -5.83329 -5.40903 9.00406
    endloop
  endfacet
  facet normal 0.707106 -0.707107 0
    outer loop
      vertex -5.33832 -5.904 7.00406
      vertex 0 -0.565685 2.39707
      vertex -5.33832 -5.904 8.00406
    endloop
  endfacet
  facet normal 0.707106 -0.707107 0
    outer loop
      vertex 0 -0.565685 2.39707
      vertex -5.33832 -5.904 7.00406
      vertex 0 -0.565685 2.34676
    endloop
  endfacet
  facet normal 0.421604 0.421606 0.802806
    outer loop
      vertex -5.40903 -5.83329 8.00406
      vertex 0 -0.565685 2.39707
      vertex 0 -0.424263 2.3228
    endloop
  endfacet
  facet normal 0.421605 0.421605 0.802806
    outer loop
      vertex 0 -0.565685 2.39707
      vertex -5.40903 -5.83329 8.00406
      vertex -5.33832 -5.904 8.00406
    endloop
  endfacet
  facet normal 0.421606 0.421604 0.802806
    outer loop
      vertex -0.565685 0 2.39707
      vertex -5.83329 -5.40903 8.00406
      vertex -0.424263 0 2.3228
    endloop
  endfacet
  facet normal 0.421605 0.421605 0.802806
    outer loop
      vertex -5.83329 -5.40903 8.00406
      vertex -0.565685 0 2.39707
      vertex -5.904 -5.33832 8.00406
    endloop
  endfacet
  facet normal -0.707107 0.707106 0
    outer loop
      vertex -5.904 -5.33832 7.00406
      vertex -0.565685 0 2.39707
      vertex -0.565685 0 2.34676
    endloop
  endfacet
  facet normal -0.707107 0.707106 0
    outer loop
      vertex -0.565685 0 2.39707
      vertex -5.904 -5.33832 7.00406
      vertex -5.904 -5.33832 8.00406
    endloop
  endfacet
  facet normal 0.707107 -0.707107 0
    outer loop
      vertex -5.26761 -5.97472 6.00406
      vertex 0 -0.707107 2.40845
      vertex -5.26761 -5.97472 7.00406
    endloop
  endfacet
  facet normal 0.707107 -0.707107 0
    outer loop
      vertex 0 -0.707107 2.40845
      vertex -5.26761 -5.97472 6.00406
      vertex 0 -0.707107 2.34554
    endloop
  endfacet
  facet normal -0.707107 0.707107 0
    outer loop
      vertex -5.97472 -5.26761 6.00406
      vertex -0.707107 0 2.40845
      vertex -0.707107 0 2.34554
    endloop
  endfacet
  facet normal -0.707107 0.707107 0
    outer loop
      vertex -0.707107 0 2.40845
      vertex -5.97472 -5.26761 6.00406
      vertex -5.97472 -5.26761 7.00406
    endloop
  endfacet
  facet normal 0.371256 0.371252 0.851082
    outer loop
      vertex -5.33832 -5.904 7.00406
      vertex 0 -0.707107 2.40845
      vertex 0 -0.565685 2.34676
    endloop
  endfacet
  facet normal 0.37128 0.371228 0.851082
    outer loop
      vertex 0 -0.707107 2.40845
      vertex -5.33832 -5.904 7.00406
      vertex -5.26761 -5.97472 7.00406
    endloop
  endfacet
  facet normal 0.371252 0.371256 0.851082
    outer loop
      vertex -0.707107 0 2.40845
      vertex -5.904 -5.33832 7.00406
      vertex -0.565685 0 2.34676
    endloop
  endfacet
  facet normal 0.371228 0.37128 0.851082
    outer loop
      vertex -5.904 -5.33832 7.00406
      vertex -0.707107 0 2.40845
      vertex -5.97472 -5.26761 7.00406
    endloop
  endfacet
  facet normal 0.707107 -0.707107 0
    outer loop
      vertex -5.1969 -6.04543 1
      vertex 0 -0.848527 2.39465
      vertex -5.1969 -6.04543 6.00406
    endloop
  endfacet
  facet normal 0.707107 -0.707107 0
    outer loop
      vertex 0 -0.848527 2.39465
      vertex -5.1969 -6.04543 1
      vertex 0 -0.848527 1
    endloop
  endfacet
  facet normal 0.311706 0.311703 0.897597
    outer loop
      vertex -5.26761 -5.97472 6.00406
      vertex 0 -0.848527 2.39465
      vertex 0 -0.707107 2.34554
    endloop
  endfacet
  facet normal 0.311705 0.311705 0.897597
    outer loop
      vertex 0 -0.848527 2.39465
      vertex -5.26761 -5.97472 6.00406
      vertex -5.1969 -6.04543 6.00406
    endloop
  endfacet
  facet normal 0.311703 0.311706 0.897597
    outer loop
      vertex -0.848527 0 2.39465
      vertex -5.97472 -5.26761 6.00406
      vertex -0.707107 0 2.34554
    endloop
  endfacet
  facet normal 0.311705 0.311705 0.897597
    outer loop
      vertex -5.97472 -5.26761 6.00406
      vertex -0.848527 0 2.39465
      vertex -6.04543 -5.1969 6.00406
    endloop
  endfacet
  facet normal -0.707107 0.707107 0
    outer loop
      vertex -6.04543 -5.1969 1
      vertex -0.848527 0 2.39465
      vertex -0.848527 0 1
    endloop
  endfacet
  facet normal -0.707107 0.707107 0
    outer loop
      vertex -0.848527 0 2.39465
      vertex -6.04543 -5.1969 1
      vertex -6.04543 -5.1969 6.00406
    endloop
  endfacet
  facet normal -0.527324 0.527622 0.665992
    outer loop
      vertex 0.141421 0 2.212
      vertex 1.53795 -1.43188 4.45214
      vertex 1.55563 -1.41421 4.45214
    endloop
  endfacet
  facet normal -0.520582 0.520573 0.676756
    outer loop
      vertex 0.123737 -0.0176713 2.21199
      vertex 0.141421 0 2.212
      vertex 0.141408 0 2.21199
    endloop
  endfacet
  facet normal -0.527473 0.527475 0.66599
    outer loop
      vertex 0.141421 0 2.212
      vertex 0.123737 -0.0176713 2.21199
      vertex 1.53795 -1.43188 4.45214
    endloop
  endfacet
  facet normal -0.527623 0.527324 0.66599
    outer loop
      vertex 0.0176713 -0.123737 2.21199
      vertex 1.41421 -1.55563 4.45214
      vertex 1.43188 -1.53795 4.45214
    endloop
  endfacet
  facet normal -0.520573 0.520582 0.676756
    outer loop
      vertex 0 -0.141421 2.212
      vertex 0.0176713 -0.123737 2.21199
      vertex 0 -0.141408 2.21199
    endloop
  endfacet
  facet normal -0.527474 0.527472 0.665992
    outer loop
      vertex 0.0176713 -0.123737 2.21199
      vertex 0 -0.141421 2.212
      vertex 1.41421 -1.55563 4.45214
    endloop
  endfacet
  facet normal 0.707107 0.707107 -0
    outer loop
      vertex 5.76258 -5.47974 9.00406
      vertex 0.282842 0 2.29885
      vertex 5.76258 -5.47974 10.0041
    endloop
  endfacet
  facet normal 0.707107 0.707107 0
    outer loop
      vertex 0.282842 0 2.29885
      vertex 5.76258 -5.47974 9.00406
      vertex 0.282842 0 2.27369
    endloop
  endfacet
  facet normal -0.498566 0.498566 0.709129
    outer loop
      vertex 0.282842 0 2.29885
      vertex 5.69187 -5.55045 10.0041
      vertex 5.76258 -5.47974 10.0041
    endloop
  endfacet
  facet normal -0.498523 0.498607 0.70913
    outer loop
      vertex 5.69187 -5.55045 10.0041
      vertex 0.282842 0 2.29885
      vertex 0.141421 0 2.19943
    endloop
  endfacet
  facet normal -0.498607 0.498523 0.70913
    outer loop
      vertex 0 -0.282842 2.29885
      vertex 5.55045 -5.69187 10.0041
      vertex 0 -0.141421 2.19943
    endloop
  endfacet
  facet normal -0.498566 0.498566 0.709129
    outer loop
      vertex 5.55045 -5.69187 10.0041
      vertex 0 -0.282842 2.29885
      vertex 5.47974 -5.76258 10.0041
    endloop
  endfacet
  facet normal -0.707107 -0.707107 0
    outer loop
      vertex 5.47974 -5.76258 9.00406
      vertex 0 -0.282842 2.29885
      vertex 0 -0.282842 2.27369
    endloop
  endfacet
  facet normal -0.707107 -0.707107 0
    outer loop
      vertex 0 -0.282842 2.29885
      vertex 5.47974 -5.76258 9.00406
      vertex 5.47974 -5.76258 10.0041
    endloop
  endfacet
  facet normal 0.707107 0.707107 -0
    outer loop
      vertex 5.83329 -5.40903 8.00406
      vertex 0.424263 0 2.36053
      vertex 5.83329 -5.40903 9.00406
    endloop
  endfacet
  facet normal 0.707107 0.707107 0
    outer loop
      vertex 0.424263 0 2.36053
      vertex 5.83329 -5.40903 8.00406
      vertex 0.424263 0 2.3228
    endloop
  endfacet
  facet normal -0.463661 0.463661 0.755007
    outer loop
      vertex 0.424263 0 2.36053
      vertex 5.76258 -5.47974 9.00406
      vertex 5.83329 -5.40903 9.00406
    endloop
  endfacet
  facet normal -0.463615 0.463707 0.755008
    outer loop
      vertex 5.76258 -5.47974 9.00406
      vertex 0.424263 0 2.36053
      vertex 0.282842 0 2.27369
    endloop
  endfacet
  facet normal -0.463707 0.463615 0.755008
    outer loop
      vertex 0 -0.424263 2.36053
      vertex 5.47974 -5.76258 9.00406
      vertex 0 -0.282842 2.27369
    endloop
  endfacet
  facet normal -0.463661 0.463661 0.755007
    outer loop
      vertex 5.47974 -5.76258 9.00406
      vertex 0 -0.424263 2.36053
      vertex 5.40903 -5.83329 9.00406
    endloop
  endfacet
  facet normal -0.707107 -0.707107 0
    outer loop
      vertex 5.40903 -5.83329 8.00406
      vertex 0 -0.424263 2.36053
      vertex 0 -0.424263 2.3228
    endloop
  endfacet
  facet normal -0.707107 -0.707107 0
    outer loop
      vertex 0 -0.424263 2.36053
      vertex 5.40903 -5.83329 8.00406
      vertex 5.40903 -5.83329 9.00406
    endloop
  endfacet
  facet normal 0.707107 0.707106 -0
    outer loop
      vertex 5.904 -5.33832 7.00406
      vertex 0.565685 0 2.39707
      vertex 5.904 -5.33832 8.00406
    endloop
  endfacet
  facet normal 0.707107 0.707106 0
    outer loop
      vertex 0.565685 0 2.39707
      vertex 5.904 -5.33832 7.00406
      vertex 0.565685 0 2.34676
    endloop
  endfacet
  facet normal -0.421605 0.421605 0.802806
    outer loop
      vertex 0.565685 0 2.39707
      vertex 5.83329 -5.40903 8.00406
      vertex 5.904 -5.33832 8.00406
    endloop
  endfacet
  facet normal -0.421606 0.421604 0.802806
    outer loop
      vertex 5.83329 -5.40903 8.00406
      vertex 0.565685 0 2.39707
      vertex 0.424263 0 2.3228
    endloop
  endfacet
  facet normal -0.421604 0.421606 0.802806
    outer loop
      vertex 0 -0.565685 2.39707
      vertex 5.40903 -5.83329 8.00406
      vertex 0 -0.424263 2.3228
    endloop
  endfacet
  facet normal -0.421605 0.421605 0.802806
    outer loop
      vertex 5.40903 -5.83329 8.00406
      vertex 0 -0.565685 2.39707
      vertex 5.33832 -5.904 8.00406
    endloop
  endfacet
  facet normal -0.707106 -0.707107 0
    outer loop
      vertex 5.33832 -5.904 7.00406
      vertex 0 -0.565685 2.39707
      vertex 0 -0.565685 2.34676
    endloop
  endfacet
  facet normal -0.707106 -0.707107 0
    outer loop
      vertex 0 -0.565685 2.39707
      vertex 5.33832 -5.904 7.00406
      vertex 5.33832 -5.904 8.00406
    endloop
  endfacet
  facet normal 0.707107 0.707107 -0
    outer loop
      vertex 5.97472 -5.26761 6.00406
      vertex 0.707107 0 2.40845
      vertex 5.97472 -5.26761 7.00406
    endloop
  endfacet
  facet normal 0.707107 0.707107 0
    outer loop
      vertex 0.707107 0 2.40845
      vertex 5.97472 -5.26761 6.00406
      vertex 0.707107 0 2.34554
    endloop
  endfacet
  facet normal -0.707107 -0.707107 0
    outer loop
      vertex 5.26761 -5.97472 6.00406
      vertex 0 -0.707107 2.40845
      vertex 0 -0.707107 2.34554
    endloop
  endfacet
  facet normal -0.707107 -0.707107 0
    outer loop
      vertex 0 -0.707107 2.40845
      vertex 5.26761 -5.97472 6.00406
      vertex 5.26761 -5.97472 7.00406
    endloop
  endfacet
  facet normal -0.371228 0.37128 0.851082
    outer loop
      vertex 0.707107 0 2.40845
      vertex 5.904 -5.33832 7.00406
      vertex 5.97472 -5.26761 7.00406
    endloop
  endfacet
  facet normal -0.371252 0.371256 0.851082
    outer loop
      vertex 5.904 -5.33832 7.00406
      vertex 0.707107 0 2.40845
      vertex 0.565685 0 2.34676
    endloop
  endfacet
  facet normal -0.371256 0.371252 0.851082
    outer loop
      vertex 0 -0.707107 2.40845
      vertex 5.33832 -5.904 7.00406
      vertex 0 -0.565685 2.34676
    endloop
  endfacet
  facet normal -0.37128 0.371228 0.851082
    outer loop
      vertex 5.33832 -5.904 7.00406
      vertex 0 -0.707107 2.40845
      vertex 5.26761 -5.97472 7.00406
    endloop
  endfacet
  facet normal 0.707107 0.707107 -0
    outer loop
      vertex 6.04543 -5.1969 1
      vertex 0.848527 0 2.39465
      vertex 6.04543 -5.1969 6.00406
    endloop
  endfacet
  facet normal 0.707107 0.707107 0
    outer loop
      vertex 0.848527 0 2.39465
      vertex 6.04543 -5.1969 1
      vertex 0.848527 0 1
    endloop
  endfacet
  facet normal -0.311705 0.311705 0.897597
    outer loop
      vertex 0.848527 0 2.39465
      vertex 5.97472 -5.26761 6.00406
      vertex 6.04543 -5.1969 6.00406
    endloop
  endfacet
  facet normal -0.311703 0.311706 0.897597
    outer loop
      vertex 5.97472 -5.26761 6.00406
      vertex 0.848527 0 2.39465
      vertex 0.707107 0 2.34554
    endloop
  endfacet
  facet normal -0.311706 0.311703 0.897597
    outer loop
      vertex 0 -0.848527 2.39465
      vertex 5.26761 -5.97472 6.00406
      vertex 0 -0.707107 2.34554
    endloop
  endfacet
  facet normal -0.311705 0.311705 0.897597
    outer loop
      vertex 5.26761 -5.97472 6.00406
      vertex 0 -0.848527 2.39465
      vertex 5.1969 -6.04543 6.00406
    endloop
  endfacet
  facet normal -0.707107 -0.707107 0
    outer loop
      vertex 5.1969 -6.04543 1
      vertex 0 -0.848527 2.39465
      vertex 0 -0.848527 1
    endloop
  endfacet
  facet normal -0.707107 -0.707107 0
    outer loop
      vertex 0 -0.848527 2.39465
      vertex 5.1969 -6.04543 1
      vertex 5.1969 -6.04543 6.00406
    endloop
  endfacet
  facet normal -0.707107 -0.707107 0
    outer loop
      vertex -3.53553 0 0
      vertex -8.40361 4.86808 1
      vertex -8.40361 4.86808 0
    endloop
  endfacet
  facet normal -0.707107 -0.707107 0
    outer loop
      vertex -8.40361 4.86808 1
      vertex -3.53553 0 0
      vertex -3.53553 0 1
    endloop
  endfacet
  facet normal 0 0 1
    outer loop
      vertex 8.40361 4.86808 1
      vertex 5.1969 6.04543 1
      vertex 6.04543 5.1969 1
    endloop
  endfacet
  facet normal 0 0 1
    outer loop
      vertex 4.86808 8.40361 1
      vertex 5.1969 6.04543 1
      vertex 8.40361 4.86808 1
    endloop
  endfacet
  facet normal 0 0 1
    outer loop
      vertex 0 3.53553 1
      vertex 5.1969 6.04543 1
      vertex 4.86808 8.40361 1
    endloop
  endfacet
  facet normal -0 0 1
    outer loop
      vertex 0 3.53553 1
      vertex 0 0.848527 1
      vertex 5.1969 6.04543 1
    endloop
  endfacet
  facet normal -0 0 1
    outer loop
      vertex -5.1969 6.04543 1
      vertex 0 3.53553 1
      vertex -4.86808 8.40361 1
    endloop
  endfacet
  facet normal 0 0 1
    outer loop
      vertex 0 3.53553 1
      vertex -5.1969 6.04543 1
      vertex 0 0.848527 1
    endloop
  endfacet
  facet normal 0 0 1
    outer loop
      vertex -4.86808 8.40361 1
      vertex -6.04543 5.1969 1
      vertex -5.1969 6.04543 1
    endloop
  endfacet
  facet normal 0 -0 1
    outer loop
      vertex -6.04543 5.1969 1
      vertex -4.86808 8.40361 1
      vertex -8.40361 4.86808 1
    endloop
  endfacet
  facet normal 0 0 1
    outer loop
      vertex 6.04543 5.1969 1
      vertex 3.53553 0 1
      vertex 8.40361 4.86808 1
    endloop
  endfacet
  facet normal 0 -0 1
    outer loop
      vertex 3.53553 0 1
      vertex 6.04543 5.1969 1
      vertex 0.848527 0 1
    endloop
  endfacet
  facet normal 0 0 1
    outer loop
      vertex 3.53553 0 1
      vertex 6.04543 -5.1969 1
      vertex 8.40361 -4.86808 1
    endloop
  endfacet
  facet normal 0 0 1
    outer loop
      vertex 6.04543 -5.1969 1
      vertex 3.53553 0 1
      vertex 0.848527 0 1
    endloop
  endfacet
  facet normal 0 0 1
    outer loop
      vertex 5.1969 -6.04543 1
      vertex 8.40361 -4.86808 1
      vertex 6.04543 -5.1969 1
    endloop
  endfacet
  facet normal -0 0 1
    outer loop
      vertex 5.1969 -6.04543 1
      vertex 4.86808 -8.40361 1
      vertex 8.40361 -4.86808 1
    endloop
  endfacet
  facet normal -0 0 1
    outer loop
      vertex 0 -3.53553 1
      vertex 5.1969 -6.04543 1
      vertex 0 -0.848527 1
    endloop
  endfacet
  facet normal 0 0 1
    outer loop
      vertex 5.1969 -6.04543 1
      vertex 0 -3.53553 1
      vertex 4.86808 -8.40361 1
    endloop
  endfacet
  facet normal 0 0 1
    outer loop
      vertex -5.1969 -6.04543 1
      vertex 0 -3.53553 1
      vertex 0 -0.848527 1
    endloop
  endfacet
  facet normal 0 0 1
    outer loop
      vertex 0 -3.53553 1
      vertex -5.1969 -6.04543 1
      vertex -4.86808 -8.40361 1
    endloop
  endfacet
  facet normal 0 0 1
    outer loop
      vertex -6.04543 -5.1969 1
      vertex -4.86808 -8.40361 1
      vertex -5.1969 -6.04543 1
    endloop
  endfacet
  facet normal 0 0 1
    outer loop
      vertex -4.86808 -8.40361 1
      vertex -6.04543 -5.1969 1
      vertex -8.40361 -4.86808 1
    endloop
  endfacet
  facet normal 0 0 1
    outer loop
      vertex -6.04543 5.1969 1
      vertex -3.53553 0 1
      vertex -0.848527 0 1
    endloop
  endfacet
  facet normal 0 0 1
    outer loop
      vertex -3.53553 0 1
      vertex -6.04543 5.1969 1
      vertex -8.40361 4.86808 1
    endloop
  endfacet
  facet normal -0 0 1
    outer loop
      vertex -3.53553 0 1
      vertex -6.04543 -5.1969 1
      vertex -0.848527 0 1
    endloop
  endfacet
  facet normal 0 -0 1
    outer loop
      vertex -6.04543 -5.1969 1
      vertex -3.53553 0 1
      vertex -8.40361 -4.86808 1
    endloop
  endfacet
  facet normal 0 0 1
    outer loop
      vertex 0 0.141408 1
      vertex 0 -0.141408 1
      vertex 0.141408 0 1
    endloop
  endfacet
  facet normal 0 -0 1
    outer loop
      vertex 0 -0.141408 1
      vertex 0 0.141408 1
      vertex -0.141408 0 1
    endloop
  endfacet
  facet normal -0.707107 0.707107 0
    outer loop
      vertex 0 3.53553 0
      vertex 4.86808 8.40361 1
      vertex 4.86808 8.40361 0
    endloop
  endfacet
  facet normal -0.707107 0.707107 0
    outer loop
      vertex 4.86808 8.40361 1
      vertex 0 3.53553 0
      vertex 0 3.53553 1
    endloop
  endfacet
  facet normal 0.707107 0.707107 0
    outer loop
      vertex 8.40361 4.86808 1
      vertex 4.86808 8.40361 0
      vertex 4.86808 8.40361 1
    endloop
  endfacet
  facet normal 0.707107 0.707107 0
    outer loop
      vertex 4.86808 8.40361 0
      vertex 8.40361 4.86808 1
      vertex 8.40361 4.86808 0
    endloop
  endfacet
  facet normal 0.707107 -0.707107 0
    outer loop
      vertex 3.53553 0 1
      vertex 8.40361 4.86808 0
      vertex 8.40361 4.86808 1
    endloop
  endfacet
  facet normal 0.707107 -0.707107 0
    outer loop
      vertex 8.40361 4.86808 0
      vertex 3.53553 0 1
      vertex 3.53553 0 0
    endloop
  endfacet
  facet normal 0.707107 -0.707107 0
    outer loop
      vertex -4.86808 -8.40361 1
      vertex 0 -3.53553 0
      vertex 0 -3.53553 1
    endloop
  endfacet
  facet normal 0.707107 -0.707107 0
    outer loop
      vertex 0 -3.53553 0
      vertex -4.86808 -8.40361 1
      vertex -4.86808 -8.40361 0
    endloop
  endfacet
  facet normal -0.707107 0.707107 0
    outer loop
      vertex -8.40361 4.86808 0
      vertex -4.86808 8.40361 1
      vertex -4.86808 8.40361 0
    endloop
  endfacet
  facet normal -0.707107 0.707107 0
    outer loop
      vertex -4.86808 8.40361 1
      vertex -8.40361 4.86808 0
      vertex -8.40361 4.86808 1
    endloop
  endfacet
  facet normal 0.707107 0.707107 0
    outer loop
      vertex 0 3.53553 1
      vertex -4.86808 8.40361 0
      vertex -4.86808 8.40361 1
    endloop
  endfacet
  facet normal 0.707107 0.707107 0
    outer loop
      vertex -4.86808 8.40361 0
      vertex 0 3.53553 1
      vertex 0 3.53553 0
    endloop
  endfacet
  facet normal -0.707107 -0.707107 0
    outer loop
      vertex -4.86808 -8.40361 0
      vertex -8.40361 -4.86808 1
      vertex -8.40361 -4.86808 0
    endloop
  endfacet
  facet normal -0.707107 -0.707107 0
    outer loop
      vertex -8.40361 -4.86808 1
      vertex -4.86808 -8.40361 0
      vertex -4.86808 -8.40361 1
    endloop
  endfacet
  facet normal -0.707107 0.707107 0
    outer loop
      vertex -8.40361 -4.86808 0
      vertex -3.53553 0 1
      vertex -3.53553 0 0
    endloop
  endfacet
  facet normal -0.707107 0.707107 0
    outer loop
      vertex -3.53553 0 1
      vertex -8.40361 -4.86808 0
      vertex -8.40361 -4.86808 1
    endloop
  endfacet
  facet normal 0.707107 0.707107 0
    outer loop
      vertex 8.40361 -4.86808 1
      vertex 3.53553 0 0
      vertex 3.53553 0 1
    endloop
  endfacet
  facet normal 0.707107 0.707107 0
    outer loop
      vertex 3.53553 0 0
      vertex 8.40361 -4.86808 1
      vertex 8.40361 -4.86808 0
    endloop
  endfacet
  facet normal 0.707107 -0.707107 0
    outer loop
      vertex 4.86808 -8.40361 1
      vertex 8.40361 -4.86808 0
      vertex 8.40361 -4.86808 1
    endloop
  endfacet
  facet normal 0.707107 -0.707107 0
    outer loop
      vertex 8.40361 -4.86808 0
      vertex 4.86808 -8.40361 1
      vertex 4.86808 -8.40361 0
    endloop
  endfacet
  facet normal -0.707107 -0.707107 0
    outer loop
      vertex 4.86808 -8.40361 0
      vertex 0 -3.53553 1
      vertex 0 -3.53553 0
    endloop
  endfacet
  facet normal -0.707107 -0.707107 0
    outer loop
      vertex 0 -3.53553 1
      vertex 4.86808 -8.40361 0
      vertex 4.86808 -8.40361 1
    endloop
  endfacet
  facet normal 0 0 -1
    outer loop
      vertex 4.86808 -8.40361 0
      vertex 3.53553 0 0
      vertex 8.40361 -4.86808 0
    endloop
  endfacet
  facet normal 0 -0 -1
    outer loop
      vertex 3.53553 0 0
      vertex 4.86808 -8.40361 0
      vertex 0 -3.53553 0
    endloop
  endfacet
  facet normal 0 0 -1
    outer loop
      vertex 3.53553 0 0
      vertex 4.86808 8.40361 0
      vertex 8.40361 4.86808 0
    endloop
  endfacet
  facet normal 0 0 -1
    outer loop
      vertex 0 3.53553 0
      vertex 3.53553 0 0
      vertex 0 -3.53553 0
    endloop
  endfacet
  facet normal 0 0 -1
    outer loop
      vertex 3.53553 0 0
      vertex 0 3.53553 0
      vertex 4.86808 8.40361 0
    endloop
  endfacet
  facet normal 0 0 -1
    outer loop
      vertex 0 -3.53553 0
      vertex -3.53553 0 0
      vertex 0 3.53553 0
    endloop
  endfacet
  facet normal 0 0 -1
    outer loop
      vertex -4.86808 -8.40361 0
      vertex -3.53553 0 0
      vertex 0 -3.53553 0
    endloop
  endfacet
  facet normal 0 0 -1
    outer loop
      vertex -3.53553 0 0
      vertex -4.86808 -8.40361 0
      vertex -8.40361 -4.86808 0
    endloop
  endfacet
  facet normal 0 0 -1
    outer loop
      vertex -3.53553 0 0
      vertex -4.86808 8.40361 0
      vertex 0 3.53553 0
    endloop
  endfacet
  facet normal 0 -0 -1
    outer loop
      vertex -4.86808 8.40361 0
      vertex -3.53553 0 0
      vertex -8.40361 4.86808 0
    endloop
  endfacet
endsolid OpenSCAD_Model
