solid OpenSCAD_Model
  facet normal 0 0.816497 -0.57735
    outer loop
      vertex 1.41421 1.55563 5.19993
      vertex -8.34312 8.48454 14.9989
      vertex 8.34312 8.48454 14.9989
    endloop
  endfacet
  facet normal 0 0.816497 -0.57735
    outer loop
      vertex 1.41421 1.55563 5.19993
      vertex -1.41421 1.55563 5.19993
      vertex -8.34312 8.48454 14.9989
    endloop
  endfacet
  facet normal 0.000219395 0.816425 -0.577452
    outer loop
      vertex 0.0176713 0.123737 3.17493
      vertex 1.41421 1.55563 5.19993
      vertex 1.43188 1.53795 5.17494
    endloop
  endfacet
  facet normal 0 0.816496 -0.577351
    outer loop
      vertex 1.41421 1.55563 5.19993
      vertex 0.0176713 0.123737 3.17493
      vertex -1.41421 1.55563 5.19993
    endloop
  endfacet
  facet normal 0 0.816496 -0.577351
    outer loop
      vertex -0.0176713 0.123737 3.17493
      vertex -1.41421 1.55563 5.19993
      vertex 0.0176713 0.123737 3.17493
    endloop
  endfacet
  facet normal -0.000219395 0.816425 -0.577452
    outer loop
      vertex -1.41421 1.55563 5.19993
      vertex -0.0176713 0.123737 3.17493
      vertex -1.43188 1.53795 5.17494
    endloop
  endfacet
  facet normal 0 0.816519 -0.577319
    outer loop
      vertex 0.070693 0.0707154 3.09994
      vertex -0.0176713 0.123737 3.17493
      vertex 0.0176713 0.123737 3.17493
    endloop
  endfacet
  facet normal 0 0.816519 -0.577319
    outer loop
      vertex 0.070693 0.0707154 3.09994
      vertex -0.070693 0.0707154 3.09994
      vertex -0.0176713 0.123737 3.17493
    endloop
  endfacet
  facet normal 0 0.816485 -0.577367
    outer loop
      vertex 3.9684e-07 2.29314e-05 2.99997
      vertex -0.070693 0.0707154 3.09994
      vertex 0.070693 0.0707154 3.09994
    endloop
  endfacet
  facet normal 0 0.816485 -0.577367
    outer loop
      vertex -0.070693 0.0707154 3.09994
      vertex 3.9684e-07 2.29314e-05 2.99997
      vertex -3.9684e-07 2.29314e-05 2.99997
    endloop
  endfacet
  facet normal -2.82867e-05 -0.816489 0.577361
    outer loop
      vertex -8.34164 -8.48306 15.001
      vertex -3.9684e-07 -2.29314e-05 26.9979
      vertex -8.4477 -8.4477 15.051
    endloop
  endfacet
  facet normal 0 -0.816498 0.577348
    outer loop
      vertex -3.9684e-07 -2.29314e-05 26.9979
      vertex -8.34164 -8.48306 15.001
      vertex 3.9684e-07 -2.29314e-05 26.9979
    endloop
  endfacet
  facet normal 0 -0.816498 0.577348
    outer loop
      vertex 8.34164 -8.48306 15.001
      vertex 3.9684e-07 -2.29314e-05 26.9979
      vertex -8.34164 -8.48306 15.001
    endloop
  endfacet
  facet normal 2.82867e-05 -0.816489 0.577361
    outer loop
      vertex 3.9684e-07 -2.29314e-05 26.9979
      vertex 8.34164 -8.48306 15.001
      vertex 8.4477 -8.4477 15.051
    endloop
  endfacet
  facet normal 0 -0.817399 0.576072
    outer loop
      vertex -8.34312 -8.48454 14.9989
      vertex 8.34164 -8.48306 15.001
      vertex -8.34164 -8.48306 15.001
    endloop
  endfacet
  facet normal 0 -0.817399 0.576072
    outer loop
      vertex 8.34164 -8.48306 15.001
      vertex -8.34312 -8.48454 14.9989
      vertex 8.34312 -8.48454 14.9989
    endloop
  endfacet
  facet normal -0.817399 0 0.576072
    outer loop
      vertex -8.48454 -1.31256 14.9989
      vertex -8.48454 -8.34312 14.9989
      vertex -8.48306 -8.34164 15.001
    endloop
  endfacet
  facet normal -0.816497 5.71593e-07 0.577349
    outer loop
      vertex -8.48306 -8.34164 15.001
      vertex -1.79299 1.79298 24.4622
      vertex -8.48454 -1.31256 14.9989
    endloop
  endfacet
  facet normal -0.816499 3.39262e-06 0.577347
    outer loop
      vertex -1.79299 1.79298 24.4622
      vertex -8.48306 -8.34164 15.001
      vertex -3.9684e-07 -2.29314e-05 26.9979
    endloop
  endfacet
  facet normal -0.816488 -2.77421e-05 0.577362
    outer loop
      vertex -3.9684e-07 -2.29314e-05 26.9979
      vertex -8.48306 -8.34164 15.001
      vertex -8.4477 -8.4477 15.051
    endloop
  endfacet
  facet normal -0.819232 0 0.573462
    outer loop
      vertex -8.48454 1.31256 14.9989
      vertex -8.48307 8.34165 15.001
      vertex -8.48454 8.34312 14.9989
    endloop
  endfacet
  facet normal -0.816497 -1.73327e-06 0.57735
    outer loop
      vertex -8.48454 1.31256 14.9989
      vertex -1.79299 1.79298 24.4622
      vertex -8.48307 8.34165 15.001
    endloop
  endfacet
  facet normal -0.816497 0 0.577349
    outer loop
      vertex -1.79299 1.79298 24.4622
      vertex -8.48454 1.31256 14.9989
      vertex -8.48454 -1.31256 14.9989
    endloop
  endfacet
  facet normal -0.816488 2.70132e-05 0.577363
    outer loop
      vertex -8.44771 8.44771 15.051
      vertex -8.48307 8.34165 15.001
      vertex -1.79299 1.79298 24.4622
    endloop
  endfacet
  facet normal 0.816496 0 -0.577351
    outer loop
      vertex 8.48454 -1.31256 14.9989
      vertex 1.88957 -1.74815 5.67223
      vertex 8.48454 1.31256 14.9989
    endloop
  endfacet
  facet normal 0.816496 0 -0.577351
    outer loop
      vertex 1.88957 -1.74815 5.67223
      vertex 8.48454 -1.31256 14.9989
      vertex 8.48454 -8.34312 14.9989
    endloop
  endfacet
  facet normal 0.816496 0 -0.577351
    outer loop
      vertex 8.48454 8.34312 14.9989
      vertex 8.48454 1.31256 14.9989
      vertex 1.55563 1.41421 5.19996
    endloop
  endfacet
  facet normal 0.816479 5.39929e-05 -0.577376
    outer loop
      vertex 1.55563 1.41421 5.19996
      vertex 0.123737 0.0176713 3.17496
      vertex 1.53795 1.43188 5.17496
    endloop
  endfacet
  facet normal 0.816496 -1.53858e-06 -0.577351
    outer loop
      vertex 1.88957 -1.74815 5.67223
      vertex 1.55563 1.41421 5.19996
      vertex 8.48454 1.31256 14.9989
    endloop
  endfacet
  facet normal 0.816518 9.17205e-06 -0.57732
    outer loop
      vertex 0.0707158 -0.0706926 3.09997
      vertex 0.070693 0.0707154 3.09994
      vertex 0.123737 -0.0176713 3.17496
    endloop
  endfacet
  facet normal 0.816496 2.04125e-06 -0.577352
    outer loop
      vertex 1.55563 1.41421 5.19996
      vertex 1.55563 -1.41421 5.19995
      vertex 0.123737 0.0176713 3.17496
    endloop
  endfacet
  facet normal 0.816495 0 -0.577353
    outer loop
      vertex 0.123737 0.0176713 3.17496
      vertex 1.55563 -1.41421 5.19995
      vertex 0.123737 -0.0176713 3.17496
    endloop
  endfacet
  facet normal 0.816507 2.04119e-06 -0.577335
    outer loop
      vertex 1.55563 1.41421 5.19996
      vertex 1.88957 -1.74815 5.67223
      vertex 1.55563 -1.41421 5.19995
    endloop
  endfacet
  facet normal 0.816513 0 -0.577327
    outer loop
      vertex 0.123737 -0.0176713 3.17496
      vertex 0.070693 0.0707154 3.09994
      vertex 0.123737 0.0176713 3.17496
    endloop
  endfacet
  facet normal 0.816481 9.15526e-06 -0.577372
    outer loop
      vertex 0.070693 0.0707154 3.09994
      vertex 0.0707158 -0.0706926 3.09997
      vertex 3.9684e-07 2.29314e-05 2.99997
    endloop
  endfacet
  facet normal 0.816424 -0.000217353 -0.577453
    outer loop
      vertex 0.123737 -0.0176713 3.17496
      vertex 1.55563 -1.41421 5.19995
      vertex 1.53795 -1.43188 5.17496
    endloop
  endfacet
  facet normal 0.816499 3.39262e-06 0.577347
    outer loop
      vertex 8.48306 -8.34164 15.001
      vertex 1.79299 1.79298 24.4622
      vertex 3.9684e-07 -2.29314e-05 26.9979
    endloop
  endfacet
  facet normal 0.816497 5.71593e-07 0.577349
    outer loop
      vertex 1.79299 1.79298 24.4622
      vertex 8.48306 -8.34164 15.001
      vertex 8.48454 -1.31256 14.9989
    endloop
  endfacet
  facet normal 0.816488 -2.77421e-05 0.577362
    outer loop
      vertex 8.48306 -8.34164 15.001
      vertex 3.9684e-07 -2.29314e-05 26.9979
      vertex 8.4477 -8.4477 15.051
    endloop
  endfacet
  facet normal 0.817399 0 0.576072
    outer loop
      vertex 8.48454 -1.31256 14.9989
      vertex 8.48306 -8.34164 15.001
      vertex 8.48454 -8.34312 14.9989
    endloop
  endfacet
  facet normal 0.816488 2.70132e-05 0.577363
    outer loop
      vertex 8.44771 8.44771 15.051
      vertex 1.79299 1.79298 24.4622
      vertex 8.48307 8.34165 15.001
    endloop
  endfacet
  facet normal 0.819232 0 0.573462
    outer loop
      vertex 8.48307 8.34165 15.001
      vertex 8.48454 1.31256 14.9989
      vertex 8.48454 8.34312 14.9989
    endloop
  endfacet
  facet normal 0.816497 -1.73327e-06 0.57735
    outer loop
      vertex 1.79299 1.79298 24.4622
      vertex 8.48454 1.31256 14.9989
      vertex 8.48307 8.34165 15.001
    endloop
  endfacet
  facet normal 0.816497 0 0.577349
    outer loop
      vertex 8.48454 1.31256 14.9989
      vertex 1.79299 1.79298 24.4622
      vertex 8.48454 -1.31256 14.9989
    endloop
  endfacet
  facet normal -0.816481 9.15526e-06 -0.577372
    outer loop
      vertex -0.0707158 -0.0706926 3.09997
      vertex -0.070693 0.0707154 3.09994
      vertex -3.9684e-07 2.29314e-05 2.99997
    endloop
  endfacet
  facet normal -0.816479 5.39929e-05 -0.577376
    outer loop
      vertex -0.123737 0.0176713 3.17496
      vertex -1.55563 1.41421 5.19996
      vertex -1.53795 1.43188 5.17496
    endloop
  endfacet
  facet normal -0.816496 2.04125e-06 -0.577352
    outer loop
      vertex -1.55563 -1.41421 5.19995
      vertex -1.55563 1.41421 5.19996
      vertex -0.123737 0.0176713 3.17496
    endloop
  endfacet
  facet normal -0.816516 9.17111e-06 -0.577323
    outer loop
      vertex -0.070693 0.0707154 3.09994
      vertex -0.0707158 -0.0706926 3.09997
      vertex -0.123737 0.0176713 3.17496
    endloop
  endfacet
  facet normal -0.816495 0 -0.577353
    outer loop
      vertex -1.55563 -1.41421 5.19995
      vertex -0.123737 0.0176713 3.17496
      vertex -0.123737 -0.0176713 3.17496
    endloop
  endfacet
  facet normal -0.816507 2.04119e-06 -0.577335
    outer loop
      vertex -1.88957 -1.74815 5.67223
      vertex -1.55563 1.41421 5.19996
      vertex -1.55563 -1.41421 5.19995
    endloop
  endfacet
  facet normal -0.816496 -1.53858e-06 -0.577351
    outer loop
      vertex -1.55563 1.41421 5.19996
      vertex -1.88957 -1.74815 5.67223
      vertex -8.48454 1.31256 14.9989
    endloop
  endfacet
  facet normal -0.816496 -0 -0.577351
    outer loop
      vertex -8.48454 8.34312 14.9989
      vertex -1.55563 1.41421 5.19996
      vertex -8.48454 1.31256 14.9989
    endloop
  endfacet
  facet normal -0.816424 -0.000217353 -0.577453
    outer loop
      vertex -0.123737 -0.0176713 3.17496
      vertex -1.53795 -1.43188 5.17496
      vertex -1.55563 -1.41421 5.19995
    endloop
  endfacet
  facet normal -0.816521 -0 -0.577316
    outer loop
      vertex -0.123737 0.0176713 3.17496
      vertex -0.0707158 -0.0706926 3.09997
      vertex -0.123737 -0.0176713 3.17496
    endloop
  endfacet
  facet normal -0.816496 0 -0.577351
    outer loop
      vertex -1.88957 -1.74815 5.67223
      vertex -8.48454 -1.31256 14.9989
      vertex -8.48454 1.31256 14.9989
    endloop
  endfacet
  facet normal -0.816496 -0 -0.577351
    outer loop
      vertex -8.48454 -1.31256 14.9989
      vertex -1.88957 -1.74815 5.67223
      vertex -8.48454 -8.34312 14.9989
    endloop
  endfacet
  facet normal 0 -0.816496 -0.577352
    outer loop
      vertex -1.41421 -1.55563 5.19998
      vertex 8.34312 -8.48454 14.9989
      vertex -8.34312 -8.48454 14.9989
    endloop
  endfacet
  facet normal 0 -0.816496 -0.577352
    outer loop
      vertex -1.41421 -1.55563 5.19998
      vertex 1.41421 -1.55563 5.19998
      vertex 8.34312 -8.48454 14.9989
    endloop
  endfacet
  facet normal -5.1951e-05 -0.816478 -0.577377
    outer loop
      vertex -0.0176713 -0.123737 3.17499
      vertex -1.41421 -1.55563 5.19998
      vertex -1.43188 -1.53795 5.17498
    endloop
  endfacet
  facet normal 0 -0.816495 -0.577353
    outer loop
      vertex -1.41421 -1.55563 5.19998
      vertex -0.0176713 -0.123737 3.17499
      vertex 1.41421 -1.55563 5.19998
    endloop
  endfacet
  facet normal -0 -0.816495 -0.577353
    outer loop
      vertex 0.0176713 -0.123737 3.17499
      vertex 1.41421 -1.55563 5.19998
      vertex -0.0176713 -0.123737 3.17499
    endloop
  endfacet
  facet normal 5.1951e-05 -0.816478 -0.577377
    outer loop
      vertex 1.41421 -1.55563 5.19998
      vertex 0.0176713 -0.123737 3.17499
      vertex 1.43188 -1.53795 5.17498
    endloop
  endfacet
  facet normal 0 -0.816511 -0.57733
    outer loop
      vertex -0.0707158 -0.0706926 3.09997
      vertex 0.0176713 -0.123737 3.17499
      vertex -0.0176713 -0.123737 3.17499
    endloop
  endfacet
  facet normal 0 -0.816511 -0.57733
    outer loop
      vertex -0.0707158 -0.0706926 3.09997
      vertex 0.0707158 -0.0706926 3.09997
      vertex 0.0176713 -0.123737 3.17499
    endloop
  endfacet
  facet normal 0 -0.816478 -0.577377
    outer loop
      vertex -3.9684e-07 2.29314e-05 2.99997
      vertex 0.0707158 -0.0706926 3.09997
      vertex -0.0707158 -0.0706926 3.09997
    endloop
  endfacet
  facet normal 0 -0.816478 -0.577377
    outer loop
      vertex 0.0707158 -0.0706926 3.09997
      vertex -3.9684e-07 2.29314e-05 2.99997
      vertex 3.9684e-07 2.29314e-05 2.99997
    endloop
  endfacet
  facet normal 0 0.816498 0.577349
    outer loop
      vertex 1.79299 1.79298 24.4622
      vertex -3.9684e-07 -2.29314e-05 26.9979
      vertex 3.9684e-07 -2.29314e-05 26.9979
    endloop
  endfacet
  facet normal 0 0.816498 0.577349
    outer loop
      vertex 1.79299 1.79298 24.4622
      vertex -1.79299 1.79298 24.4622
      vertex -3.9684e-07 -2.29314e-05 26.9979
    endloop
  endfacet
  facet normal 2.67065e-05 0.816487 0.577363
    outer loop
      vertex 8.34165 8.48307 15.001
      vertex 1.79299 1.79298 24.4622
      vertex 8.44771 8.44771 15.051
    endloop
  endfacet
  facet normal 0 0.816496 0.577351
    outer loop
      vertex 1.79299 1.79298 24.4622
      vertex 8.34165 8.48307 15.001
      vertex -1.79299 1.79298 24.4622
    endloop
  endfacet
  facet normal -0 0.816496 0.577351
    outer loop
      vertex -8.34165 8.48307 15.001
      vertex -1.79299 1.79298 24.4622
      vertex 8.34165 8.48307 15.001
    endloop
  endfacet
  facet normal -2.67065e-05 0.816487 0.577363
    outer loop
      vertex -1.79299 1.79298 24.4622
      vertex -8.34165 8.48307 15.001
      vertex -8.44771 8.44771 15.051
    endloop
  endfacet
  facet normal 0 0.819232 0.573462
    outer loop
      vertex 8.34312 8.48454 14.9989
      vertex -8.34165 8.48307 15.001
      vertex 8.34165 8.48307 15.001
    endloop
  endfacet
  facet normal 0 0.819232 0.573462
    outer loop
      vertex -8.34165 8.48307 15.001
      vertex 8.34312 8.48454 14.9989
      vertex -8.34312 8.48454 14.9989
    endloop
  endfacet
  facet normal -0.707108 0.707106 0
    outer loop
      vertex 0.0176713 0.123737 3.17493
      vertex 1.43188 1.53795 4.18322
      vertex 0.0176713 0.123737 2.19919
    endloop
  endfacet
  facet normal -0.707108 0.707106 0
    outer loop
      vertex 1.43188 1.53795 4.18322
      vertex 0.0176713 0.123737 3.17493
      vertex 1.43188 1.53795 5.17494
    endloop
  endfacet
  facet normal 0.707107 0.707107 0
    outer loop
      vertex 8.41506 8.55648 15.1049
      vertex 8.55648 8.41506 15.1049
      vertex 8.41506 8.55648 13.0049
    endloop
  endfacet
  facet normal 0.707107 0.707107 0
    outer loop
      vertex 8.34435 8.62719 13.0049
      vertex 8.41506 8.55648 13.0049
      vertex 8.34435 8.62719 12.0049
    endloop
  endfacet
  facet normal 0.707107 0.707107 0
    outer loop
      vertex 8.27364 8.6979 12.0049
      vertex 8.34435 8.62719 12.0049
      vertex 8.27364 8.6979 11.0049
    endloop
  endfacet
  facet normal 0.707057 0.707157 0
    outer loop
      vertex 8.20292 8.76861 11.0049
      vertex 8.27364 8.6979 11.0049
      vertex 8.20292 8.76861 10.0049
    endloop
  endfacet
  facet normal 0.707107 0.707107 0
    outer loop
      vertex 8.13221 8.83932 10.0049
      vertex 8.20292 8.76861 10.0049
      vertex 8.13221 8.83932 9.00485
    endloop
  endfacet
  facet normal 0.707107 0.707107 0
    outer loop
      vertex 8.13221 8.83932 9.00485
      vertex 8.0615 8.91003 1
      vertex 8.0615 8.91003 9.00485
    endloop
  endfacet
  facet normal 0.707107 0.707107 0
    outer loop
      vertex 8.83932 8.13221 9.00485
      vertex 8.13221 8.83932 9.00485
      vertex 8.20292 8.76861 10.0049
    endloop
  endfacet
  facet normal 0.707107 0.707107 -7.07107e-06
    outer loop
      vertex 8.76861 8.20292 10.0049
      vertex 8.20292 8.76861 10.0049
      vertex 8.27364 8.6979 11.0049
    endloop
  endfacet
  facet normal 0.707107 0.707107 0
    outer loop
      vertex 8.6979 8.27364 11.0049
      vertex 8.27364 8.6979 11.0049
      vertex 8.34435 8.62719 12.0049
    endloop
  endfacet
  facet normal 0.707107 0.707107 0
    outer loop
      vertex 8.62719 8.34435 12.0049
      vertex 8.34435 8.62719 12.0049
      vertex 8.41506 8.55648 13.0049
    endloop
  endfacet
  facet normal 0.707107 0.707107 -0
    outer loop
      vertex 8.55648 8.41506 13.0049
      vertex 8.41506 8.55648 13.0049
      vertex 8.55648 8.41506 15.1049
    endloop
  endfacet
  facet normal 0.707107 0.707107 0
    outer loop
      vertex 8.62719 8.34435 12.0049
      vertex 8.41506 8.55648 13.0049
      vertex 8.55648 8.41506 13.0049
    endloop
  endfacet
  facet normal 0.707107 0.707107 -0
    outer loop
      vertex 8.62719 8.34435 12.0049
      vertex 8.55648 8.41506 13.0049
      vertex 8.62719 8.34435 13.0049
    endloop
  endfacet
  facet normal 0.707107 0.707107 0
    outer loop
      vertex 8.34435 8.62719 12.0049
      vertex 8.62719 8.34435 12.0049
      vertex 8.6979 8.27364 11.0049
    endloop
  endfacet
  facet normal 0.707107 0.707107 -0
    outer loop
      vertex 8.6979 8.27364 11.0049
      vertex 8.62719 8.34435 12.0049
      vertex 8.6979 8.27364 12.0049
    endloop
  endfacet
  facet normal 0.707107 0.707107 -7.07107e-06
    outer loop
      vertex 8.27364 8.6979 11.0049
      vertex 8.6979 8.27364 11.0049
      vertex 8.76861 8.20292 10.0049
    endloop
  endfacet
  facet normal 0.707157 0.707057 -0
    outer loop
      vertex 8.76861 8.20292 10.0049
      vertex 8.6979 8.27364 11.0049
      vertex 8.76861 8.20292 11.0049
    endloop
  endfacet
  facet normal 0.707107 0.707107 0
    outer loop
      vertex 8.20292 8.76861 10.0049
      vertex 8.76861 8.20292 10.0049
      vertex 8.83932 8.13221 9.00485
    endloop
  endfacet
  facet normal 0.707107 0.707107 -0
    outer loop
      vertex 8.83932 8.13221 9.00485
      vertex 8.76861 8.20292 10.0049
      vertex 8.83932 8.13221 10.0049
    endloop
  endfacet
  facet normal 0.707107 0.707107 0
    outer loop
      vertex 8.13221 8.83932 9.00485
      vertex 8.83932 8.13221 9.00485
      vertex 8.0615 8.91003 1
    endloop
  endfacet
  facet normal 0.707107 0.707107 -0
    outer loop
      vertex 8.91003 8.0615 1
      vertex 8.83932 8.13221 9.00485
      vertex 8.91003 8.0615 9.00485
    endloop
  endfacet
  facet normal 0.707107 0.707107 0
    outer loop
      vertex 8.83932 8.13221 9.00485
      vertex 8.91003 8.0615 1
      vertex 8.0615 8.91003 1
    endloop
  endfacet
  facet normal -0.707101 -0.707113 0
    outer loop
      vertex 0 0.141408 1
      vertex 0.0176713 0.123737 2.19919
      vertex 0 0.141408 2.19919
    endloop
  endfacet
  facet normal -0.707106 -0.707107 0
    outer loop
      vertex 0.0176713 0.123737 2.19919
      vertex 0.070693 0.0707154 3.09994
      vertex 0.0176713 0.123737 3.17493
    endloop
  endfacet
  facet normal -0.707107 -0.707107 1.76896e-07
    outer loop
      vertex 0.123737 0.0176713 2.19919
      vertex 0.0176713 0.123737 2.19919
      vertex 0 0.141408 1
    endloop
  endfacet
  facet normal -0.707107 -0.707107 7.8502e-08
    outer loop
      vertex 0.0176713 0.123737 2.19919
      vertex 0.123737 0.0176713 2.19919
      vertex 0.070693 0.0707154 3.09994
    endloop
  endfacet
  facet normal -0.707107 -0.707107 1.76896e-07
    outer loop
      vertex 0.141408 0 1
      vertex 0.123737 0.0176713 2.19919
      vertex 0 0.141408 1
    endloop
  endfacet
  facet normal -0.707113 -0.707101 0
    outer loop
      vertex 0.123737 0.0176713 2.19919
      vertex 0.141408 0 1
      vertex 0.141408 0 2.19919
    endloop
  endfacet
  facet normal -0.707107 -0.707106 0
    outer loop
      vertex 0.070693 0.0707154 3.09994
      vertex 0.123737 0.0176713 2.19919
      vertex 0.123737 0.0176713 3.17496
    endloop
  endfacet
  facet normal 0.707106 -0.707108 0
    outer loop
      vertex 0.123737 0.0176713 3.17496
      vertex 1.53795 1.43188 4.18322
      vertex 1.53795 1.43188 5.17496
    endloop
  endfacet
  facet normal 0.707106 -0.707108 0
    outer loop
      vertex 1.53795 1.43188 4.18322
      vertex 0.123737 0.0176713 3.17496
      vertex 0.123737 0.0176713 2.19919
    endloop
  endfacet
  facet normal -0.707106 -0.707108 -0
    outer loop
      vertex -0.123737 0.0176713 3.17496
      vertex -1.53795 1.43188 4.18322
      vertex -0.123737 0.0176713 2.19919
    endloop
  endfacet
  facet normal -0.707106 -0.707108 0
    outer loop
      vertex -1.53795 1.43188 4.18322
      vertex -0.123737 0.0176713 3.17496
      vertex -1.53795 1.43188 5.17496
    endloop
  endfacet
  facet normal -0.707107 0.707107 0
    outer loop
      vertex -8.0615 8.91003 1
      vertex -8.13221 8.83932 9.00485
      vertex -8.0615 8.91003 9.00485
    endloop
  endfacet
  facet normal -0.707107 0.707107 0
    outer loop
      vertex -8.13221 8.83932 9.00485
      vertex -8.20292 8.76861 10.0049
      vertex -8.13221 8.83932 10.0049
    endloop
  endfacet
  facet normal -0.707107 0.707107 0
    outer loop
      vertex -8.83932 8.13221 9.00485
      vertex -8.13221 8.83932 9.00485
      vertex -8.0615 8.91003 1
    endloop
  endfacet
  facet normal -0.707057 0.707157 0
    outer loop
      vertex -8.20292 8.76861 10.0049
      vertex -8.27364 8.6979 11.0049
      vertex -8.20292 8.76861 11.0049
    endloop
  endfacet
  facet normal -0.707107 0.707107 0
    outer loop
      vertex -8.13221 8.83932 9.00485
      vertex -8.83932 8.13221 9.00485
      vertex -8.20292 8.76861 10.0049
    endloop
  endfacet
  facet normal -0.707107 0.707107 0
    outer loop
      vertex -8.27364 8.6979 11.0049
      vertex -8.34435 8.62719 12.0049
      vertex -8.27364 8.6979 12.0049
    endloop
  endfacet
  facet normal -0.707107 0.707107 0
    outer loop
      vertex -8.76861 8.20292 10.0049
      vertex -8.20292 8.76861 10.0049
      vertex -8.83932 8.13221 9.00485
    endloop
  endfacet
  facet normal -0.707107 0.707107 0
    outer loop
      vertex -8.34435 8.62719 12.0049
      vertex -8.41506 8.55648 13.0049
      vertex -8.34435 8.62719 13.0049
    endloop
  endfacet
  facet normal -0.707107 0.707107 -7.07107e-06
    outer loop
      vertex -8.20292 8.76861 10.0049
      vertex -8.76861 8.20292 10.0049
      vertex -8.27364 8.6979 11.0049
    endloop
  endfacet
  facet normal -0.707107 0.707107 0
    outer loop
      vertex -8.41506 8.55648 13.0049
      vertex -8.55648 8.41506 13.0049
      vertex -8.41506 8.55648 15.1049
    endloop
  endfacet
  facet normal -0.707107 0.707107 0
    outer loop
      vertex -8.27364 8.6979 11.0049
      vertex -8.6979 8.27364 11.0049
      vertex -8.34435 8.62719 12.0049
    endloop
  endfacet
  facet normal -0.707107 0.707107 0
    outer loop
      vertex -8.41506 8.55648 13.0049
      vertex -8.62719 8.34435 12.0049
      vertex -8.55648 8.41506 13.0049
    endloop
  endfacet
  facet normal -0.707107 0.707107 0
    outer loop
      vertex -8.34435 8.62719 12.0049
      vertex -8.62719 8.34435 12.0049
      vertex -8.41506 8.55648 13.0049
    endloop
  endfacet
  facet normal -0.707107 0.707107 0
    outer loop
      vertex -8.62719 8.34435 12.0049
      vertex -8.34435 8.62719 12.0049
      vertex -8.6979 8.27364 11.0049
    endloop
  endfacet
  facet normal -0.707107 0.707107 -7.07107e-06
    outer loop
      vertex -8.6979 8.27364 11.0049
      vertex -8.27364 8.6979 11.0049
      vertex -8.76861 8.20292 10.0049
    endloop
  endfacet
  facet normal -0.707107 0.707107 0
    outer loop
      vertex -8.91003 8.0615 1
      vertex -8.83932 8.13221 9.00485
      vertex -8.0615 8.91003 1
    endloop
  endfacet
  facet normal -0.707107 0.707107 0
    outer loop
      vertex -8.83932 8.13221 9.00485
      vertex -8.91003 8.0615 1
      vertex -8.91003 8.0615 9.00485
    endloop
  endfacet
  facet normal -0.707107 0.707107 0
    outer loop
      vertex -8.41506 8.55648 15.1049
      vertex -8.55648 8.41506 13.0049
      vertex -8.55648 8.41506 15.1049
    endloop
  endfacet
  facet normal -0.707107 0.707107 0
    outer loop
      vertex -8.55648 8.41506 13.0049
      vertex -8.62719 8.34435 12.0049
      vertex -8.62719 8.34435 13.0049
    endloop
  endfacet
  facet normal -0.707107 0.707107 0
    outer loop
      vertex -8.62719 8.34435 12.0049
      vertex -8.6979 8.27364 11.0049
      vertex -8.6979 8.27364 12.0049
    endloop
  endfacet
  facet normal -0.707157 0.707057 0
    outer loop
      vertex -8.6979 8.27364 11.0049
      vertex -8.76861 8.20292 10.0049
      vertex -8.76861 8.20292 11.0049
    endloop
  endfacet
  facet normal -0.707107 0.707107 0
    outer loop
      vertex -8.76861 8.20292 10.0049
      vertex -8.83932 8.13221 9.00485
      vertex -8.83932 8.13221 10.0049
    endloop
  endfacet
  facet normal 0.707106 -0.707107 0
    outer loop
      vertex -0.0176713 0.123737 3.17493
      vertex -0.070693 0.0707154 3.09994
      vertex -0.0176713 0.123737 2.19919
    endloop
  endfacet
  facet normal 0.707101 -0.707113 0
    outer loop
      vertex -0.0176713 0.123737 2.19919
      vertex 0 0.141408 1
      vertex 0 0.141408 2.19919
    endloop
  endfacet
  facet normal 0.707107 -0.707107 7.8502e-08
    outer loop
      vertex -0.123737 0.0176713 2.19919
      vertex -0.0176713 0.123737 2.19919
      vertex -0.070693 0.0707154 3.09994
    endloop
  endfacet
  facet normal 0.707107 -0.707106 0
    outer loop
      vertex -0.123737 0.0176713 2.19919
      vertex -0.070693 0.0707154 3.09994
      vertex -0.123737 0.0176713 3.17496
    endloop
  endfacet
  facet normal 0.707107 -0.707107 1.76896e-07
    outer loop
      vertex -0.0176713 0.123737 2.19919
      vertex -0.123737 0.0176713 2.19919
      vertex 0 0.141408 1
    endloop
  endfacet
  facet normal 0.707113 -0.707101 0
    outer loop
      vertex -0.141408 0 1
      vertex -0.123737 0.0176713 2.19919
      vertex -0.141408 0 2.19919
    endloop
  endfacet
  facet normal 0.707107 -0.707107 1.76896e-07
    outer loop
      vertex -0.123737 0.0176713 2.19919
      vertex -0.141408 0 1
      vertex 0 0.141408 1
    endloop
  endfacet
  facet normal 0.707108 0.707106 0
    outer loop
      vertex -0.0176713 0.123737 3.17493
      vertex -1.43188 1.53795 4.18322
      vertex -1.43188 1.53795 5.17494
    endloop
  endfacet
  facet normal 0.707108 0.707106 0
    outer loop
      vertex -1.43188 1.53795 4.18322
      vertex -0.0176713 0.123737 3.17493
      vertex -0.0176713 0.123737 2.19919
    endloop
  endfacet
  facet normal 0.707108 -0.707106 0
    outer loop
      vertex -1.43188 -1.53795 4.18322
      vertex -0.0176713 -0.123737 3.17499
      vertex -1.43188 -1.53795 5.17498
    endloop
  endfacet
  facet normal 0.707108 -0.707106 0
    outer loop
      vertex -0.0176713 -0.123737 3.17499
      vertex -1.43188 -1.53795 4.18322
      vertex -0.0176713 -0.123737 2.19919
    endloop
  endfacet
  facet normal -0.707106 0.707108 0
    outer loop
      vertex -1.53795 -1.43188 4.18322
      vertex -0.123737 -0.0176713 3.17496
      vertex -0.123737 -0.0176713 2.19919
    endloop
  endfacet
  facet normal -0.707106 0.707108 0
    outer loop
      vertex -0.123737 -0.0176713 3.17496
      vertex -1.53795 -1.43188 4.18322
      vertex -1.53795 -1.43188 5.17496
    endloop
  endfacet
  facet normal -0.707107 -0.707107 0
    outer loop
      vertex -8.91003 -8.0615 1
      vertex -8.83932 -8.13221 9.00485
      vertex -8.91003 -8.0615 9.00485
    endloop
  endfacet
  facet normal -0.707107 -0.707107 0
    outer loop
      vertex -8.83932 -8.13221 9.00485
      vertex -8.76861 -8.20292 10.0049
      vertex -8.83932 -8.13221 10.0049
    endloop
  endfacet
  facet normal -0.707107 -0.707107 0
    outer loop
      vertex -8.13221 -8.83932 9.00485
      vertex -8.83932 -8.13221 9.00485
      vertex -8.91003 -8.0615 1
    endloop
  endfacet
  facet normal -0.707157 -0.707057 0
    outer loop
      vertex -8.76861 -8.20292 10.0049
      vertex -8.6979 -8.27364 11.0049
      vertex -8.76861 -8.20292 11.0049
    endloop
  endfacet
  facet normal -0.707107 -0.707107 0
    outer loop
      vertex -8.83932 -8.13221 9.00485
      vertex -8.13221 -8.83932 9.00485
      vertex -8.76861 -8.20292 10.0049
    endloop
  endfacet
  facet normal -0.707107 -0.707107 0
    outer loop
      vertex -8.6979 -8.27364 11.0049
      vertex -8.62719 -8.34435 12.0049
      vertex -8.6979 -8.27364 12.0049
    endloop
  endfacet
  facet normal -0.707107 -0.707107 0
    outer loop
      vertex -8.20292 -8.76861 10.0049
      vertex -8.76861 -8.20292 10.0049
      vertex -8.13221 -8.83932 9.00485
    endloop
  endfacet
  facet normal -0.707107 -0.707107 0
    outer loop
      vertex -8.62719 -8.34435 12.0049
      vertex -8.55648 -8.41506 13.0049
      vertex -8.62719 -8.34435 13.0049
    endloop
  endfacet
  facet normal -0.707107 -0.707107 -7.07107e-06
    outer loop
      vertex -8.76861 -8.20292 10.0049
      vertex -8.20292 -8.76861 10.0049
      vertex -8.6979 -8.27364 11.0049
    endloop
  endfacet
  facet normal -0.707107 -0.707107 0
    outer loop
      vertex -8.55648 -8.41506 13.0049
      vertex -8.41506 -8.55648 13.0049
      vertex -8.55648 -8.41506 15.1049
    endloop
  endfacet
  facet normal -0.707107 -0.707107 0
    outer loop
      vertex -8.6979 -8.27364 11.0049
      vertex -8.27364 -8.6979 11.0049
      vertex -8.62719 -8.34435 12.0049
    endloop
  endfacet
  facet normal -0.707107 -0.707107 0
    outer loop
      vertex -8.55648 -8.41506 13.0049
      vertex -8.34435 -8.62719 12.0049
      vertex -8.41506 -8.55648 13.0049
    endloop
  endfacet
  facet normal -0.707107 -0.707107 0
    outer loop
      vertex -8.62719 -8.34435 12.0049
      vertex -8.34435 -8.62719 12.0049
      vertex -8.55648 -8.41506 13.0049
    endloop
  endfacet
  facet normal -0.707107 -0.707107 0
    outer loop
      vertex -8.34435 -8.62719 12.0049
      vertex -8.62719 -8.34435 12.0049
      vertex -8.27364 -8.6979 11.0049
    endloop
  endfacet
  facet normal -0.707107 -0.707107 -7.07107e-06
    outer loop
      vertex -8.27364 -8.6979 11.0049
      vertex -8.6979 -8.27364 11.0049
      vertex -8.20292 -8.76861 10.0049
    endloop
  endfacet
  facet normal -0.707107 -0.707107 0
    outer loop
      vertex -8.0615 -8.91003 1
      vertex -8.13221 -8.83932 9.00485
      vertex -8.91003 -8.0615 1
    endloop
  endfacet
  facet normal -0.707107 -0.707107 0
    outer loop
      vertex -8.13221 -8.83932 9.00485
      vertex -8.0615 -8.91003 1
      vertex -8.0615 -8.91003 9.00485
    endloop
  endfacet
  facet normal -0.707107 -0.707107 0
    outer loop
      vertex -8.55648 -8.41506 15.1049
      vertex -8.41506 -8.55648 13.0049
      vertex -8.41506 -8.55648 15.1049
    endloop
  endfacet
  facet normal -0.707107 -0.707107 0
    outer loop
      vertex -8.41506 -8.55648 13.0049
      vertex -8.34435 -8.62719 12.0049
      vertex -8.34435 -8.62719 13.0049
    endloop
  endfacet
  facet normal -0.707107 -0.707107 0
    outer loop
      vertex -8.34435 -8.62719 12.0049
      vertex -8.27364 -8.6979 11.0049
      vertex -8.27364 -8.6979 12.0049
    endloop
  endfacet
  facet normal -0.707057 -0.707157 0
    outer loop
      vertex -8.27364 -8.6979 11.0049
      vertex -8.20292 -8.76861 10.0049
      vertex -8.20292 -8.76861 11.0049
    endloop
  endfacet
  facet normal -0.707107 -0.707107 0
    outer loop
      vertex -8.20292 -8.76861 10.0049
      vertex -8.13221 -8.83932 9.00485
      vertex -8.13221 -8.83932 10.0049
    endloop
  endfacet
  facet normal 0.707106 0.707107 0
    outer loop
      vertex -0.0176713 -0.123737 3.17499
      vertex -0.0176713 -0.123737 2.19919
      vertex -0.0707158 -0.0706926 3.09997
    endloop
  endfacet
  facet normal 0.707107 0.707107 7.84994e-08
    outer loop
      vertex -0.123737 -0.0176713 2.19919
      vertex -0.0707158 -0.0706926 3.09997
      vertex -0.0176713 -0.123737 2.19919
    endloop
  endfacet
  facet normal 0.707107 0.707106 0
    outer loop
      vertex -0.0707158 -0.0706926 3.09997
      vertex -0.123737 -0.0176713 2.19919
      vertex -0.123737 -0.0176713 3.17496
    endloop
  endfacet
  facet normal 0.707101 0.707113 -0
    outer loop
      vertex 0 -0.141408 1
      vertex -0.0176713 -0.123737 2.19919
      vertex 0 -0.141408 2.19919
    endloop
  endfacet
  facet normal 0.707107 0.707107 1.76896e-07
    outer loop
      vertex -0.0176713 -0.123737 2.19919
      vertex 0 -0.141408 1
      vertex -0.123737 -0.0176713 2.19919
    endloop
  endfacet
  facet normal 0.707107 0.707107 1.76896e-07
    outer loop
      vertex -0.141408 0 1
      vertex -0.123737 -0.0176713 2.19919
      vertex 0 -0.141408 1
    endloop
  endfacet
  facet normal 0.707113 0.707101 0
    outer loop
      vertex -0.123737 -0.0176713 2.19919
      vertex -0.141408 0 1
      vertex -0.141408 0 2.19919
    endloop
  endfacet
  facet normal 0.707106 0.707108 -0
    outer loop
      vertex 1.53795 -1.43188 4.18322
      vertex 0.123737 -0.0176713 3.17496
      vertex 1.53795 -1.43188 5.17496
    endloop
  endfacet
  facet normal 0.707106 0.707108 0
    outer loop
      vertex 0.123737 -0.0176713 3.17496
      vertex 1.53795 -1.43188 4.18322
      vertex 0.123737 -0.0176713 2.19919
    endloop
  endfacet
  facet normal -0.707108 -0.707106 0
    outer loop
      vertex 1.43188 -1.53795 4.18322
      vertex 0.0176713 -0.123737 3.17499
      vertex 0.0176713 -0.123737 2.19919
    endloop
  endfacet
  facet normal -0.707108 -0.707106 0
    outer loop
      vertex 0.0176713 -0.123737 3.17499
      vertex 1.43188 -1.53795 4.18322
      vertex 1.43188 -1.53795 5.17498
    endloop
  endfacet
  facet normal 0.707107 -0.707107 0
    outer loop
      vertex 8.55648 -8.41506 15.1049
      vertex 8.41506 -8.55648 15.1049
      vertex 8.55648 -8.41506 13.0049
    endloop
  endfacet
  facet normal 0.707107 -0.707107 0
    outer loop
      vertex 8.62719 -8.34435 13.0049
      vertex 8.55648 -8.41506 13.0049
      vertex 8.62719 -8.34435 12.0049
    endloop
  endfacet
  facet normal 0.707107 -0.707107 0
    outer loop
      vertex 8.6979 -8.27364 12.0049
      vertex 8.62719 -8.34435 12.0049
      vertex 8.6979 -8.27364 11.0049
    endloop
  endfacet
  facet normal 0.707157 -0.707057 0
    outer loop
      vertex 8.76861 -8.20292 11.0049
      vertex 8.6979 -8.27364 11.0049
      vertex 8.76861 -8.20292 10.0049
    endloop
  endfacet
  facet normal 0.707107 -0.707107 0
    outer loop
      vertex 8.83932 -8.13221 10.0049
      vertex 8.76861 -8.20292 10.0049
      vertex 8.83932 -8.13221 9.00485
    endloop
  endfacet
  facet normal 0.707107 -0.707107 0
    outer loop
      vertex 8.83932 -8.13221 9.00485
      vertex 8.91003 -8.0615 1
      vertex 8.91003 -8.0615 9.00485
    endloop
  endfacet
  facet normal 0.707107 -0.707107 0
    outer loop
      vertex 8.13221 -8.83932 9.00485
      vertex 8.83932 -8.13221 9.00485
      vertex 8.76861 -8.20292 10.0049
    endloop
  endfacet
  facet normal 0.707107 -0.707107 -7.07107e-06
    outer loop
      vertex 8.20292 -8.76861 10.0049
      vertex 8.76861 -8.20292 10.0049
      vertex 8.6979 -8.27364 11.0049
    endloop
  endfacet
  facet normal 0.707107 -0.707107 0
    outer loop
      vertex 8.27364 -8.6979 11.0049
      vertex 8.6979 -8.27364 11.0049
      vertex 8.62719 -8.34435 12.0049
    endloop
  endfacet
  facet normal 0.707107 -0.707107 0
    outer loop
      vertex 8.34435 -8.62719 12.0049
      vertex 8.62719 -8.34435 12.0049
      vertex 8.55648 -8.41506 13.0049
    endloop
  endfacet
  facet normal 0.707107 -0.707107 0
    outer loop
      vertex 8.41506 -8.55648 13.0049
      vertex 8.55648 -8.41506 13.0049
      vertex 8.41506 -8.55648 15.1049
    endloop
  endfacet
  facet normal 0.707107 -0.707107 0
    outer loop
      vertex 8.34435 -8.62719 12.0049
      vertex 8.55648 -8.41506 13.0049
      vertex 8.41506 -8.55648 13.0049
    endloop
  endfacet
  facet normal 0.707107 -0.707107 0
    outer loop
      vertex 8.34435 -8.62719 12.0049
      vertex 8.41506 -8.55648 13.0049
      vertex 8.34435 -8.62719 13.0049
    endloop
  endfacet
  facet normal 0.707107 -0.707107 0
    outer loop
      vertex 8.62719 -8.34435 12.0049
      vertex 8.34435 -8.62719 12.0049
      vertex 8.27364 -8.6979 11.0049
    endloop
  endfacet
  facet normal 0.707107 -0.707107 0
    outer loop
      vertex 8.27364 -8.6979 11.0049
      vertex 8.34435 -8.62719 12.0049
      vertex 8.27364 -8.6979 12.0049
    endloop
  endfacet
  facet normal 0.707107 -0.707107 -7.07107e-06
    outer loop
      vertex 8.6979 -8.27364 11.0049
      vertex 8.27364 -8.6979 11.0049
      vertex 8.20292 -8.76861 10.0049
    endloop
  endfacet
  facet normal 0.707057 -0.707157 0
    outer loop
      vertex 8.20292 -8.76861 10.0049
      vertex 8.27364 -8.6979 11.0049
      vertex 8.20292 -8.76861 11.0049
    endloop
  endfacet
  facet normal 0.707107 -0.707107 0
    outer loop
      vertex 8.76861 -8.20292 10.0049
      vertex 8.20292 -8.76861 10.0049
      vertex 8.13221 -8.83932 9.00485
    endloop
  endfacet
  facet normal 0.707107 -0.707107 0
    outer loop
      vertex 8.13221 -8.83932 9.00485
      vertex 8.20292 -8.76861 10.0049
      vertex 8.13221 -8.83932 10.0049
    endloop
  endfacet
  facet normal 0.707107 -0.707107 0
    outer loop
      vertex 8.83932 -8.13221 9.00485
      vertex 8.13221 -8.83932 9.00485
      vertex 8.91003 -8.0615 1
    endloop
  endfacet
  facet normal 0.707107 -0.707107 0
    outer loop
      vertex 8.0615 -8.91003 1
      vertex 8.13221 -8.83932 9.00485
      vertex 8.0615 -8.91003 9.00485
    endloop
  endfacet
  facet normal 0.707107 -0.707107 0
    outer loop
      vertex 8.13221 -8.83932 9.00485
      vertex 8.0615 -8.91003 1
      vertex 8.91003 -8.0615 1
    endloop
  endfacet
  facet normal -0.707107 0.707106 0
    outer loop
      vertex 0.123737 -0.0176713 3.17496
      vertex 0.123737 -0.0176713 2.19919
      vertex 0.0707158 -0.0706926 3.09997
    endloop
  endfacet
  facet normal -0.707107 0.707107 7.84994e-08
    outer loop
      vertex 0.0176713 -0.123737 2.19919
      vertex 0.0707158 -0.0706926 3.09997
      vertex 0.123737 -0.0176713 2.19919
    endloop
  endfacet
  facet normal -0.707106 0.707107 0
    outer loop
      vertex 0.0707158 -0.0706926 3.09997
      vertex 0.0176713 -0.123737 2.19919
      vertex 0.0176713 -0.123737 3.17499
    endloop
  endfacet
  facet normal -0.707113 0.707101 0
    outer loop
      vertex 0.141408 0 1
      vertex 0.123737 -0.0176713 2.19919
      vertex 0.141408 0 2.19919
    endloop
  endfacet
  facet normal -0.707107 0.707107 1.76896e-07
    outer loop
      vertex 0.123737 -0.0176713 2.19919
      vertex 0.141408 0 1
      vertex 0.0176713 -0.123737 2.19919
    endloop
  endfacet
  facet normal -0.707107 0.707107 1.76896e-07
    outer loop
      vertex 0 -0.141408 1
      vertex 0.0176713 -0.123737 2.19919
      vertex 0.141408 0 1
    endloop
  endfacet
  facet normal -0.707101 0.707113 0
    outer loop
      vertex 0.0176713 -0.123737 2.19919
      vertex 0 -0.141408 1
      vertex 0 -0.141408 2.19919
    endloop
  endfacet
  facet normal -0.707107 0.707107 0
    outer loop
      vertex 8.41506 8.55648 13.0049
      vertex 8.34312 8.48454 14.9989
      vertex 8.41506 8.55648 15.1049
    endloop
  endfacet
  facet normal -0.707107 0.707107 0
    outer loop
      vertex 1.41421 1.55563 5.19993
      vertex 8.41506 8.55648 13.0049
      vertex 1.41421 1.55563 4.18322
    endloop
  endfacet
  facet normal -0.707109 0.707105 3.36184e-06
    outer loop
      vertex 0 0.141421 2.19086
      vertex 1.41421 1.55563 4.18322
      vertex 8.41506 8.55648 13.0049
    endloop
  endfacet
  facet normal -0.707107 0.707107 0
    outer loop
      vertex 1.41421 1.55563 4.18322
      vertex 0 0.141421 2.19086
      vertex 0 0.141421 2.1992
    endloop
  endfacet
  facet normal -0.707107 0.707107 0
    outer loop
      vertex 8.41506 8.55648 15.1049
      vertex 8.34312 8.48454 14.9989
      vertex 8.34165 8.48307 15.001
    endloop
  endfacet
  facet normal -0.707107 0.707107 0
    outer loop
      vertex 8.41506 8.55648 13.0049
      vertex 1.41421 1.55563 5.19993
      vertex 8.34312 8.48454 14.9989
    endloop
  endfacet
  facet normal -0.706907 -0.707307 0
    outer loop
      vertex 1.55563 1.41421 4.18322
      vertex 1.53795 1.43188 5.17496
      vertex 1.53795 1.43188 4.18322
    endloop
  endfacet
  facet normal -0.706907 -0.707307 0
    outer loop
      vertex 1.53795 1.43188 5.17496
      vertex 1.55563 1.41421 4.18322
      vertex 1.55563 1.41421 5.19996
    endloop
  endfacet
  facet normal -0.707307 -0.706907 -0
    outer loop
      vertex 1.43188 1.53795 5.17494
      vertex 1.41421 1.55563 4.18322
      vertex 1.43188 1.53795 4.18322
    endloop
  endfacet
  facet normal -0.707307 -0.706907 0
    outer loop
      vertex 1.41421 1.55563 4.18322
      vertex 1.43188 1.53795 5.17494
      vertex 1.41421 1.55563 5.19993
    endloop
  endfacet
  facet normal -0.50036 -0.500038 0.706826
    outer loop
      vertex 8.55648 8.41506 15.1049
      vertex 8.44771 8.44771 15.051
      vertex 8.48307 8.34165 15.001
    endloop
  endfacet
  facet normal -0.500348 -0.500348 0.706614
    outer loop
      vertex 8.41506 8.55648 15.1049
      vertex 8.44771 8.44771 15.051
      vertex 8.55648 8.41506 15.1049
    endloop
  endfacet
  facet normal -0.500038 -0.50036 0.706826
    outer loop
      vertex 8.44771 8.44771 15.051
      vertex 8.41506 8.55648 15.1049
      vertex 8.34165 8.48307 15.001
    endloop
  endfacet
  facet normal 0.707107 -0.707107 0
    outer loop
      vertex 8.48454 8.34312 14.9989
      vertex 8.55648 8.41506 15.1049
      vertex 8.48307 8.34165 15.001
    endloop
  endfacet
  facet normal 0.707107 -0.707107 0
    outer loop
      vertex 8.48454 8.34312 14.9989
      vertex 8.55648 8.41506 13.0049
      vertex 8.55648 8.41506 15.1049
    endloop
  endfacet
  facet normal 0.707107 -0.707107 0
    outer loop
      vertex 1.55563 1.41421 5.19996
      vertex 8.55648 8.41506 13.0049
      vertex 8.48454 8.34312 14.9989
    endloop
  endfacet
  facet normal 0.707107 -0.707107 0
    outer loop
      vertex 1.55563 1.41421 4.18322
      vertex 8.55648 8.41506 13.0049
      vertex 1.55563 1.41421 5.19996
    endloop
  endfacet
  facet normal 0.707107 -0.707107 0
    outer loop
      vertex 0.141421 0 2.19086
      vertex 1.55563 1.41421 4.18322
      vertex 0.141421 0 2.1992
    endloop
  endfacet
  facet normal 0.707105 -0.707109 3.36184e-06
    outer loop
      vertex 1.55563 1.41421 4.18322
      vertex 0.141421 0 2.19086
      vertex 8.55648 8.41506 13.0049
    endloop
  endfacet
  facet normal -0.707107 -0.707107 0
    outer loop
      vertex -8.55648 8.41506 15.1049
      vertex -8.48454 8.34312 14.9989
      vertex -8.48307 8.34165 15.001
    endloop
  endfacet
  facet normal -0.707107 -0.707107 0
    outer loop
      vertex -8.55648 8.41506 13.0049
      vertex -8.48454 8.34312 14.9989
      vertex -8.55648 8.41506 15.1049
    endloop
  endfacet
  facet normal -0.707107 -0.707107 0
    outer loop
      vertex -8.55648 8.41506 13.0049
      vertex -1.55563 1.41421 5.19996
      vertex -8.48454 8.34312 14.9989
    endloop
  endfacet
  facet normal -0.707107 -0.707107 0
    outer loop
      vertex -8.55648 8.41506 13.0049
      vertex -1.55563 1.41421 4.18322
      vertex -1.55563 1.41421 5.19996
    endloop
  endfacet
  facet normal -0.707105 -0.707109 3.36184e-06
    outer loop
      vertex -0.141421 0 2.19086
      vertex -1.55563 1.41421 4.18322
      vertex -8.55648 8.41506 13.0049
    endloop
  endfacet
  facet normal -0.707107 -0.707107 0
    outer loop
      vertex -1.55563 1.41421 4.18322
      vertex -0.141421 0 2.19086
      vertex -0.141421 0 2.1992
    endloop
  endfacet
  facet normal 0.706907 -0.707307 0
    outer loop
      vertex -1.55563 1.41421 4.18322
      vertex -1.53795 1.43188 5.17496
      vertex -1.55563 1.41421 5.19996
    endloop
  endfacet
  facet normal 0.706907 -0.707307 0
    outer loop
      vertex -1.53795 1.43188 5.17496
      vertex -1.55563 1.41421 4.18322
      vertex -1.53795 1.43188 4.18322
    endloop
  endfacet
  facet normal 0.707307 -0.706907 0
    outer loop
      vertex -1.43188 1.53795 5.17494
      vertex -1.41421 1.55563 4.18322
      vertex -1.41421 1.55563 5.19993
    endloop
  endfacet
  facet normal 0.707307 -0.706907 0
    outer loop
      vertex -1.41421 1.55563 4.18322
      vertex -1.43188 1.53795 5.17494
      vertex -1.43188 1.53795 4.18322
    endloop
  endfacet
  facet normal 0.500038 -0.50036 0.706826
    outer loop
      vertex -8.41506 8.55648 15.1049
      vertex -8.44771 8.44771 15.051
      vertex -8.34165 8.48307 15.001
    endloop
  endfacet
  facet normal 0.500348 -0.500348 0.706614
    outer loop
      vertex -8.55648 8.41506 15.1049
      vertex -8.44771 8.44771 15.051
      vertex -8.41506 8.55648 15.1049
    endloop
  endfacet
  facet normal 0.50036 -0.500038 0.706826
    outer loop
      vertex -8.44771 8.44771 15.051
      vertex -8.55648 8.41506 15.1049
      vertex -8.48307 8.34165 15.001
    endloop
  endfacet
  facet normal 0.707107 0.707107 0
    outer loop
      vertex -8.41506 8.55648 15.1049
      vertex -8.34312 8.48454 14.9989
      vertex -8.41506 8.55648 13.0049
    endloop
  endfacet
  facet normal 0.707107 0.707107 0
    outer loop
      vertex -8.34312 8.48454 14.9989
      vertex -8.41506 8.55648 15.1049
      vertex -8.34165 8.48307 15.001
    endloop
  endfacet
  facet normal 0.707107 0.707107 0
    outer loop
      vertex -1.41421 1.55563 5.19993
      vertex -8.41506 8.55648 13.0049
      vertex -8.34312 8.48454 14.9989
    endloop
  endfacet
  facet normal 0.707107 0.707107 -0
    outer loop
      vertex -1.41421 1.55563 4.18322
      vertex -8.41506 8.55648 13.0049
      vertex -1.41421 1.55563 5.19993
    endloop
  endfacet
  facet normal 0.707107 0.707107 -0
    outer loop
      vertex 0 0.141421 2.19086
      vertex -1.41421 1.55563 4.18322
      vertex 0 0.141421 2.1992
    endloop
  endfacet
  facet normal 0.707109 0.707105 3.36184e-06
    outer loop
      vertex -1.41421 1.55563 4.18322
      vertex 0 0.141421 2.19086
      vertex -8.41506 8.55648 13.0049
    endloop
  endfacet
  facet normal 0.707107 -0.707107 0
    outer loop
      vertex -8.34164 -8.48306 15.001
      vertex -8.41506 -8.55648 15.1049
      vertex -8.34312 -8.48454 14.9989
    endloop
  endfacet
  facet normal 0.707107 -0.707107 0
    outer loop
      vertex -8.41506 -8.55648 13.0049
      vertex -1.41421 -1.55563 5.19998
      vertex -8.34312 -8.48454 14.9989
    endloop
  endfacet
  facet normal 0.707107 -0.707107 0
    outer loop
      vertex -1.41421 -1.55563 4.18322
      vertex 0 -0.141421 2.19086
      vertex 0 -0.141421 2.1992
    endloop
  endfacet
  facet normal 0.707107 -0.707107 0
    outer loop
      vertex -8.41506 -8.55648 13.0049
      vertex -8.34312 -8.48454 14.9989
      vertex -8.41506 -8.55648 15.1049
    endloop
  endfacet
  facet normal 0.707109 -0.707105 3.36184e-06
    outer loop
      vertex -1.41421 -1.55563 4.18322
      vertex -8.41506 -8.55648 13.0049
      vertex 0 -0.141421 2.19086
    endloop
  endfacet
  facet normal 0.707107 -0.707107 0
    outer loop
      vertex -1.41421 -1.55563 5.19998
      vertex -8.41506 -8.55648 13.0049
      vertex -1.41421 -1.55563 4.18322
    endloop
  endfacet
  facet normal -0.707107 0.707107 0
    outer loop
      vertex -8.48454 -8.34312 14.9989
      vertex -8.55648 -8.41506 15.1049
      vertex -8.48306 -8.34164 15.001
    endloop
  endfacet
  facet normal -0.707107 0.707107 0
    outer loop
      vertex -8.48454 -8.34312 14.9989
      vertex -8.55648 -8.41506 13.0049
      vertex -8.55648 -8.41506 15.1049
    endloop
  endfacet
  facet normal -0.707107 0.707107 0
    outer loop
      vertex -1.88957 -1.74815 5.67223
      vertex -8.55648 -8.41506 13.0049
      vertex -8.48454 -8.34312 14.9989
    endloop
  endfacet
  facet normal -0.707107 0.707107 0
    outer loop
      vertex -1.55563 -1.41421 4.18322
      vertex -1.88957 -1.74815 5.67223
      vertex -1.55563 -1.41421 5.19995
    endloop
  endfacet
  facet normal -0.707107 0.707107 1.6796e-16
    outer loop
      vertex -1.88957 -1.74815 5.67223
      vertex -1.55563 -1.41421 4.18322
      vertex -8.55648 -8.41506 13.0049
    endloop
  endfacet
  facet normal -0.707107 0.707107 0
    outer loop
      vertex -0.141421 0 2.19086
      vertex -1.55563 -1.41421 4.18322
      vertex -0.141421 0 2.1992
    endloop
  endfacet
  facet normal -0.707105 0.707109 3.36184e-06
    outer loop
      vertex -1.55563 -1.41421 4.18322
      vertex -0.141421 0 2.19086
      vertex -8.55648 -8.41506 13.0049
    endloop
  endfacet
  facet normal 0.707307 0.706907 -0
    outer loop
      vertex -1.41421 -1.55563 4.18322
      vertex -1.43188 -1.53795 5.17498
      vertex -1.41421 -1.55563 5.19998
    endloop
  endfacet
  facet normal 0.707307 0.706907 0
    outer loop
      vertex -1.43188 -1.53795 5.17498
      vertex -1.41421 -1.55563 4.18322
      vertex -1.43188 -1.53795 4.18322
    endloop
  endfacet
  facet normal 0.706907 0.707307 0
    outer loop
      vertex -1.53795 -1.43188 5.17496
      vertex -1.55563 -1.41421 4.18322
      vertex -1.55563 -1.41421 5.19995
    endloop
  endfacet
  facet normal 0.706907 0.707307 0
    outer loop
      vertex -1.55563 -1.41421 4.18322
      vertex -1.53795 -1.43188 5.17496
      vertex -1.53795 -1.43188 4.18322
    endloop
  endfacet
  facet normal 0.500038 0.500292 0.706874
    outer loop
      vertex -8.4477 -8.4477 15.051
      vertex -8.41506 -8.55648 15.1049
      vertex -8.34164 -8.48306 15.001
    endloop
  endfacet
  facet normal 0.500292 0.500038 0.706874
    outer loop
      vertex -8.55648 -8.41506 15.1049
      vertex -8.4477 -8.4477 15.051
      vertex -8.48306 -8.34164 15.001
    endloop
  endfacet
  facet normal 0.500282 0.500282 0.706707
    outer loop
      vertex -8.4477 -8.4477 15.051
      vertex -8.55648 -8.41506 15.1049
      vertex -8.41506 -8.55648 15.1049
    endloop
  endfacet
  facet normal 0.707107 0.707107 0
    outer loop
      vertex 8.55648 -8.41506 15.1049
      vertex 8.48454 -8.34312 14.9989
      vertex 8.48306 -8.34164 15.001
    endloop
  endfacet
  facet normal 0.707107 0.707107 -0
    outer loop
      vertex 8.55648 -8.41506 13.0049
      vertex 8.48454 -8.34312 14.9989
      vertex 8.55648 -8.41506 15.1049
    endloop
  endfacet
  facet normal 0.707107 0.707107 0
    outer loop
      vertex 8.55648 -8.41506 13.0049
      vertex 1.88957 -1.74815 5.67223
      vertex 8.48454 -8.34312 14.9989
    endloop
  endfacet
  facet normal 0.707107 0.707107 1.2597e-16
    outer loop
      vertex 1.55563 -1.41421 4.18322
      vertex 1.88957 -1.74815 5.67223
      vertex 8.55648 -8.41506 13.0049
    endloop
  endfacet
  facet normal 0.707107 0.707107 0
    outer loop
      vertex 1.88957 -1.74815 5.67223
      vertex 1.55563 -1.41421 4.18322
      vertex 1.55563 -1.41421 5.19995
    endloop
  endfacet
  facet normal 0.707105 0.707109 3.36184e-06
    outer loop
      vertex 0.141421 0 2.19086
      vertex 1.55563 -1.41421 4.18322
      vertex 8.55648 -8.41506 13.0049
    endloop
  endfacet
  facet normal 0.707107 0.707107 0
    outer loop
      vertex 1.55563 -1.41421 4.18322
      vertex 0.141421 0 2.19086
      vertex 0.141421 0 2.1992
    endloop
  endfacet
  facet normal -0.707107 -0.707107 0
    outer loop
      vertex 0 -0.141421 2.19086
      vertex 1.41421 -1.55563 4.18322
      vertex 0 -0.141421 2.1992
    endloop
  endfacet
  facet normal -0.707107 -0.707107 0
    outer loop
      vertex 8.41506 -8.55648 13.0049
      vertex 1.41421 -1.55563 5.19998
      vertex 1.41421 -1.55563 4.18322
    endloop
  endfacet
  facet normal -0.707107 -0.707107 0
    outer loop
      vertex 1.41421 -1.55563 5.19998
      vertex 8.41506 -8.55648 13.0049
      vertex 8.34312 -8.48454 14.9989
    endloop
  endfacet
  facet normal -0.707109 -0.707105 3.36184e-06
    outer loop
      vertex 8.41506 -8.55648 13.0049
      vertex 1.41421 -1.55563 4.18322
      vertex 0 -0.141421 2.19086
    endloop
  endfacet
  facet normal -0.707107 -0.707107 0
    outer loop
      vertex 8.34312 -8.48454 14.9989
      vertex 8.41506 -8.55648 15.1049
      vertex 8.34164 -8.48306 15.001
    endloop
  endfacet
  facet normal -0.707107 -0.707107 -0
    outer loop
      vertex 8.41506 -8.55648 15.1049
      vertex 8.34312 -8.48454 14.9989
      vertex 8.41506 -8.55648 13.0049
    endloop
  endfacet
  facet normal -0.707307 0.706907 0
    outer loop
      vertex 1.41421 -1.55563 4.18322
      vertex 1.43188 -1.53795 5.17498
      vertex 1.43188 -1.53795 4.18322
    endloop
  endfacet
  facet normal -0.707307 0.706907 0
    outer loop
      vertex 1.43188 -1.53795 5.17498
      vertex 1.41421 -1.55563 4.18322
      vertex 1.41421 -1.55563 5.19998
    endloop
  endfacet
  facet normal -0.706907 0.707307 0
    outer loop
      vertex 1.53795 -1.43188 5.17496
      vertex 1.55563 -1.41421 4.18322
      vertex 1.53795 -1.43188 4.18322
    endloop
  endfacet
  facet normal -0.706907 0.707307 0
    outer loop
      vertex 1.55563 -1.41421 4.18322
      vertex 1.53795 -1.43188 5.17496
      vertex 1.55563 -1.41421 5.19995
    endloop
  endfacet
  facet normal -0.500292 0.500038 0.706874
    outer loop
      vertex 8.4477 -8.4477 15.051
      vertex 8.55648 -8.41506 15.1049
      vertex 8.48306 -8.34164 15.001
    endloop
  endfacet
  facet normal -0.500282 0.500282 0.706707
    outer loop
      vertex 8.4477 -8.4477 15.051
      vertex 8.41506 -8.55648 15.1049
      vertex 8.55648 -8.41506 15.1049
    endloop
  endfacet
  facet normal -0.500038 0.500292 0.706874
    outer loop
      vertex 8.41506 -8.55648 15.1049
      vertex 8.4477 -8.4477 15.051
      vertex 8.34164 -8.48306 15.001
    endloop
  endfacet
  facet normal -0.49785 -0.498132 0.709936
    outer loop
      vertex 1.53795 1.43188 4.18322
      vertex 0.141421 0 2.1992
      vertex 1.55563 1.41421 4.18322
    endloop
  endfacet
  facet normal -0.498014 -0.49797 0.709935
    outer loop
      vertex 0.123737 0.0176713 2.19919
      vertex 0.141421 0 2.1992
      vertex 1.53795 1.43188 4.18322
    endloop
  endfacet
  facet normal -0.520582 -0.520573 0.676756
    outer loop
      vertex 0.141421 0 2.1992
      vertex 0.123737 0.0176713 2.19919
      vertex 0.141408 0 2.19919
    endloop
  endfacet
  facet normal -0.498133 -0.497851 0.709935
    outer loop
      vertex 1.41421 1.55563 4.18322
      vertex 0.0176713 0.123737 2.19919
      vertex 1.43188 1.53795 4.18322
    endloop
  endfacet
  facet normal -0.497969 -0.498013 0.709936
    outer loop
      vertex 0 0.141421 2.1992
      vertex 0.0176713 0.123737 2.19919
      vertex 1.41421 1.55563 4.18322
    endloop
  endfacet
  facet normal -0.520573 -0.520582 0.676756
    outer loop
      vertex 0.0176713 0.123737 2.19919
      vertex 0 0.141421 2.1992
      vertex 0 0.141408 2.19919
    endloop
  endfacet
  facet normal -0.707107 0.707107 0
    outer loop
      vertex 8.34435 8.62719 12.0049
      vertex 0 0.282842 2.28173
      vertex 8.34435 8.62719 13.0049
    endloop
  endfacet
  facet normal -0.707107 0.707107 0
    outer loop
      vertex 0 0.282842 2.28173
      vertex 8.34435 8.62719 12.0049
      vertex 0 0.282842 2.26507
    endloop
  endfacet
  facet normal -0.475537 -0.475537 0.740088
    outer loop
      vertex 0 0.282842 2.28173
      vertex 8.41506 8.55648 13.0049
      vertex 8.34435 8.62719 13.0049
    endloop
  endfacet
  facet normal -0.47553 -0.475543 0.740088
    outer loop
      vertex 8.41506 8.55648 13.0049
      vertex 0 0.282842 2.28173
      vertex 0 0.141421 2.19086
    endloop
  endfacet
  facet normal -0.475537 -0.475537 0.740088
    outer loop
      vertex 8.55648 8.41506 13.0049
      vertex 0.282842 0 2.28173
      vertex 8.62719 8.34435 13.0049
    endloop
  endfacet
  facet normal -0.475543 -0.47553 0.740088
    outer loop
      vertex 0.282842 0 2.28173
      vertex 8.55648 8.41506 13.0049
      vertex 0.141421 0 2.19086
    endloop
  endfacet
  facet normal 0.707107 -0.707107 0
    outer loop
      vertex 0.282842 0 2.28173
      vertex 8.62719 8.34435 12.0049
      vertex 8.62719 8.34435 13.0049
    endloop
  endfacet
  facet normal 0.707107 -0.707107 0
    outer loop
      vertex 8.62719 8.34435 12.0049
      vertex 0.282842 0 2.28173
      vertex 0.282842 0 2.26507
    endloop
  endfacet
  facet normal -0.707107 0.707107 0
    outer loop
      vertex 0 0.424263 2.3476
      vertex 8.27364 8.6979 11.0049
      vertex 0 0.424263 2.32261
    endloop
  endfacet
  facet normal -0.707107 0.707107 0
    outer loop
      vertex 8.27364 8.6979 11.0049
      vertex 0 0.424263 2.3476
      vertex 8.27364 8.6979 12.0049
    endloop
  endfacet
  facet normal -0.450108 -0.450108 0.771236
    outer loop
      vertex 0 0.424263 2.3476
      vertex 8.34435 8.62719 12.0049
      vertex 8.27364 8.6979 12.0049
    endloop
  endfacet
  facet normal -0.45014 -0.450076 0.771237
    outer loop
      vertex 8.34435 8.62719 12.0049
      vertex 0 0.424263 2.3476
      vertex 0 0.282842 2.26507
    endloop
  endfacet
  facet normal -0.450108 -0.450108 0.771236
    outer loop
      vertex 8.62719 8.34435 12.0049
      vertex 0.424263 0 2.3476
      vertex 8.6979 8.27364 12.0049
    endloop
  endfacet
  facet normal -0.450076 -0.45014 0.771237
    outer loop
      vertex 0.424263 0 2.3476
      vertex 8.62719 8.34435 12.0049
      vertex 0.282842 0 2.26507
    endloop
  endfacet
  facet normal 0.707107 -0.707107 0
    outer loop
      vertex 0.424263 0 2.3476
      vertex 8.6979 8.27364 11.0049
      vertex 8.6979 8.27364 12.0049
    endloop
  endfacet
  facet normal 0.707107 -0.707107 0
    outer loop
      vertex 8.6979 8.27364 11.0049
      vertex 0.424263 0 2.3476
      vertex 0.424263 0 2.32261
    endloop
  endfacet
  facet normal -0.707107 0.707107 0
    outer loop
      vertex 8.20292 8.76861 10.0049
      vertex 0 0.565685 2.39681
      vertex 8.20292 8.76861 11.0049
    endloop
  endfacet
  facet normal -0.707107 0.707107 0
    outer loop
      vertex 0 0.565685 2.39681
      vertex 8.20292 8.76861 10.0049
      vertex 0 0.565685 2.36346
    endloop
  endfacet
  facet normal -0.421333 -0.421393 0.803061
    outer loop
      vertex 0 0.565685 2.39681
      vertex 8.27364 8.6979 11.0049
      vertex 8.20292 8.76861 11.0049
    endloop
  endfacet
  facet normal -0.421383 -0.421343 0.803061
    outer loop
      vertex 8.27364 8.6979 11.0049
      vertex 0 0.565685 2.39681
      vertex 0 0.424263 2.32261
    endloop
  endfacet
  facet normal -0.421393 -0.421333 0.803061
    outer loop
      vertex 8.6979 8.27364 11.0049
      vertex 0.565685 0 2.39681
      vertex 8.76861 8.20292 11.0049
    endloop
  endfacet
  facet normal -0.421343 -0.421383 0.803061
    outer loop
      vertex 0.565685 0 2.39681
      vertex 8.6979 8.27364 11.0049
      vertex 0.424263 0 2.32261
    endloop
  endfacet
  facet normal 0.707107 -0.707107 0
    outer loop
      vertex 0.565685 0 2.39681
      vertex 8.76861 8.20292 10.0049
      vertex 8.76861 8.20292 11.0049
    endloop
  endfacet
  facet normal 0.707107 -0.707107 0
    outer loop
      vertex 8.76861 8.20292 10.0049
      vertex 0.565685 0 2.39681
      vertex 0.565685 0 2.36346
    endloop
  endfacet
  facet normal -0.707107 0.707107 0
    outer loop
      vertex 0 0.707107 2.42933
      vertex 8.13221 8.83932 9.00485
      vertex 0 0.707107 2.38767
    endloop
  endfacet
  facet normal -0.707107 0.707107 0
    outer loop
      vertex 8.13221 8.83932 9.00485
      vertex 0 0.707107 2.42933
      vertex 8.13221 8.83932 10.0049
    endloop
  endfacet
  facet normal -0.388972 -0.388972 0.835106
    outer loop
      vertex 0 0.707107 2.42933
      vertex 8.20292 8.76861 10.0049
      vertex 8.13221 8.83932 10.0049
    endloop
  endfacet
  facet normal -0.388977 -0.388967 0.835106
    outer loop
      vertex 8.20292 8.76861 10.0049
      vertex 0 0.707107 2.42933
      vertex 0 0.565685 2.36346
    endloop
  endfacet
  facet normal -0.388972 -0.388972 0.835106
    outer loop
      vertex 8.76861 8.20292 10.0049
      vertex 0.707107 0 2.42933
      vertex 8.83932 8.13221 10.0049
    endloop
  endfacet
  facet normal -0.388967 -0.388977 0.835106
    outer loop
      vertex 0.707107 0 2.42933
      vertex 8.76861 8.20292 10.0049
      vertex 0.565685 0 2.36346
    endloop
  endfacet
  facet normal 0.707107 -0.707107 0
    outer loop
      vertex 0.707107 0 2.42933
      vertex 8.83932 8.13221 9.00485
      vertex 8.83932 8.13221 10.0049
    endloop
  endfacet
  facet normal 0.707107 -0.707107 0
    outer loop
      vertex 8.83932 8.13221 9.00485
      vertex 0.707107 0 2.42933
      vertex 0.707107 0 2.38767
    endloop
  endfacet
  facet normal -0.707107 0.707107 0
    outer loop
      vertex 0 0.848527 2.44521
      vertex 8.0615 8.91003 1
      vertex 0 0.848527 1
    endloop
  endfacet
  facet normal -0.707107 0.707107 0
    outer loop
      vertex 8.0615 8.91003 1
      vertex 0 0.848527 2.44521
      vertex 8.0615 8.91003 9.00485
    endloop
  endfacet
  facet normal 0.707107 -0.707107 0
    outer loop
      vertex 0.848527 0 2.44521
      vertex 8.91003 8.0615 1
      vertex 8.91003 8.0615 9.00485
    endloop
  endfacet
  facet normal 0.707107 -0.707107 0
    outer loop
      vertex 8.91003 8.0615 1
      vertex 0.848527 0 2.44521
      vertex 0.848527 0 1
    endloop
  endfacet
  facet normal -0.352644 -0.352644 0.866767
    outer loop
      vertex 0 0.848527 2.44521
      vertex 8.13221 8.83932 9.00485
      vertex 8.0615 8.91003 9.00485
    endloop
  endfacet
  facet normal -0.352624 -0.352664 0.866767
    outer loop
      vertex 8.13221 8.83932 9.00485
      vertex 0 0.848527 2.44521
      vertex 0 0.707107 2.38767
    endloop
  endfacet
  facet normal -0.352644 -0.352644 0.866767
    outer loop
      vertex 8.83932 8.13221 9.00485
      vertex 0.848527 0 2.44521
      vertex 8.91003 8.0615 9.00485
    endloop
  endfacet
  facet normal -0.352664 -0.352624 0.866767
    outer loop
      vertex 0.848527 0 2.44521
      vertex 8.83932 8.13221 9.00485
      vertex 0.707107 0 2.38767
    endloop
  endfacet
  facet normal 0.520573 -0.520582 0.676756
    outer loop
      vertex 0 0.141421 2.1992
      vertex -0.0176713 0.123737 2.19919
      vertex 0 0.141408 2.19919
    endloop
  endfacet
  facet normal 0.497969 -0.498013 0.709936
    outer loop
      vertex -1.41421 1.55563 4.18322
      vertex -0.0176713 0.123737 2.19919
      vertex 0 0.141421 2.1992
    endloop
  endfacet
  facet normal 0.498133 -0.497851 0.709935
    outer loop
      vertex -0.0176713 0.123737 2.19919
      vertex -1.41421 1.55563 4.18322
      vertex -1.43188 1.53795 4.18322
    endloop
  endfacet
  facet normal 0.520582 -0.520573 0.676756
    outer loop
      vertex -0.123737 0.0176713 2.19919
      vertex -0.141421 0 2.1992
      vertex -0.141408 0 2.19919
    endloop
  endfacet
  facet normal 0.498014 -0.49797 0.709935
    outer loop
      vertex -1.53795 1.43188 4.18322
      vertex -0.141421 0 2.1992
      vertex -0.123737 0.0176713 2.19919
    endloop
  endfacet
  facet normal 0.49785 -0.498132 0.709936
    outer loop
      vertex -0.141421 0 2.1992
      vertex -1.53795 1.43188 4.18322
      vertex -1.55563 1.41421 4.18322
    endloop
  endfacet
  facet normal -0.707107 -0.707107 -0
    outer loop
      vertex -0.282842 0 2.28173
      vertex -8.62719 8.34435 12.0049
      vertex -0.282842 0 2.26507
    endloop
  endfacet
  facet normal -0.707107 -0.707107 0
    outer loop
      vertex -8.62719 8.34435 12.0049
      vertex -0.282842 0 2.28173
      vertex -8.62719 8.34435 13.0049
    endloop
  endfacet
  facet normal 0.475543 -0.47553 0.740088
    outer loop
      vertex -8.55648 8.41506 13.0049
      vertex -0.282842 0 2.28173
      vertex -0.141421 0 2.19086
    endloop
  endfacet
  facet normal 0.475537 -0.475537 0.740088
    outer loop
      vertex -0.282842 0 2.28173
      vertex -8.55648 8.41506 13.0049
      vertex -8.62719 8.34435 13.0049
    endloop
  endfacet
  facet normal 0.475537 -0.475537 0.740088
    outer loop
      vertex -8.41506 8.55648 13.0049
      vertex 0 0.282842 2.28173
      vertex -8.34435 8.62719 13.0049
    endloop
  endfacet
  facet normal 0.47553 -0.475543 0.740088
    outer loop
      vertex 0 0.282842 2.28173
      vertex -8.41506 8.55648 13.0049
      vertex 0 0.141421 2.19086
    endloop
  endfacet
  facet normal 0.707107 0.707107 0
    outer loop
      vertex 0 0.282842 2.28173
      vertex -8.34435 8.62719 12.0049
      vertex -8.34435 8.62719 13.0049
    endloop
  endfacet
  facet normal 0.707107 0.707107 0
    outer loop
      vertex -8.34435 8.62719 12.0049
      vertex 0 0.282842 2.28173
      vertex 0 0.282842 2.26507
    endloop
  endfacet
  facet normal -0.707107 -0.707107 -0
    outer loop
      vertex -0.424263 0 2.3476
      vertex -8.6979 8.27364 11.0049
      vertex -0.424263 0 2.32261
    endloop
  endfacet
  facet normal -0.707107 -0.707107 0
    outer loop
      vertex -8.6979 8.27364 11.0049
      vertex -0.424263 0 2.3476
      vertex -8.6979 8.27364 12.0049
    endloop
  endfacet
  facet normal 0.450076 -0.45014 0.771237
    outer loop
      vertex -8.62719 8.34435 12.0049
      vertex -0.424263 0 2.3476
      vertex -0.282842 0 2.26507
    endloop
  endfacet
  facet normal 0.450108 -0.450108 0.771236
    outer loop
      vertex -0.424263 0 2.3476
      vertex -8.62719 8.34435 12.0049
      vertex -8.6979 8.27364 12.0049
    endloop
  endfacet
  facet normal 0.450108 -0.450108 0.771236
    outer loop
      vertex -8.34435 8.62719 12.0049
      vertex 0 0.424263 2.3476
      vertex -8.27364 8.6979 12.0049
    endloop
  endfacet
  facet normal 0.45014 -0.450076 0.771237
    outer loop
      vertex 0 0.424263 2.3476
      vertex -8.34435 8.62719 12.0049
      vertex 0 0.282842 2.26507
    endloop
  endfacet
  facet normal 0.707107 0.707107 0
    outer loop
      vertex 0 0.424263 2.3476
      vertex -8.27364 8.6979 11.0049
      vertex -8.27364 8.6979 12.0049
    endloop
  endfacet
  facet normal 0.707107 0.707107 0
    outer loop
      vertex -8.27364 8.6979 11.0049
      vertex 0 0.424263 2.3476
      vertex 0 0.424263 2.32261
    endloop
  endfacet
  facet normal -0.707107 -0.707107 -0
    outer loop
      vertex -0.565685 0 2.39681
      vertex -8.76861 8.20292 10.0049
      vertex -0.565685 0 2.36346
    endloop
  endfacet
  facet normal -0.707107 -0.707107 0
    outer loop
      vertex -8.76861 8.20292 10.0049
      vertex -0.565685 0 2.39681
      vertex -8.76861 8.20292 11.0049
    endloop
  endfacet
  facet normal 0.421343 -0.421383 0.803061
    outer loop
      vertex -8.6979 8.27364 11.0049
      vertex -0.565685 0 2.39681
      vertex -0.424263 0 2.32261
    endloop
  endfacet
  facet normal 0.421393 -0.421333 0.803061
    outer loop
      vertex -0.565685 0 2.39681
      vertex -8.6979 8.27364 11.0049
      vertex -8.76861 8.20292 11.0049
    endloop
  endfacet
  facet normal 0.421333 -0.421393 0.803061
    outer loop
      vertex -8.27364 8.6979 11.0049
      vertex 0 0.565685 2.39681
      vertex -8.20292 8.76861 11.0049
    endloop
  endfacet
  facet normal 0.421383 -0.421343 0.803061
    outer loop
      vertex 0 0.565685 2.39681
      vertex -8.27364 8.6979 11.0049
      vertex 0 0.424263 2.32261
    endloop
  endfacet
  facet normal 0.707107 0.707107 0
    outer loop
      vertex 0 0.565685 2.39681
      vertex -8.20292 8.76861 10.0049
      vertex -8.20292 8.76861 11.0049
    endloop
  endfacet
  facet normal 0.707107 0.707107 0
    outer loop
      vertex -8.20292 8.76861 10.0049
      vertex 0 0.565685 2.39681
      vertex 0 0.565685 2.36346
    endloop
  endfacet
  facet normal -0.707107 -0.707107 -0
    outer loop
      vertex -0.707107 0 2.42933
      vertex -8.83932 8.13221 9.00485
      vertex -0.707107 0 2.38767
    endloop
  endfacet
  facet normal -0.707107 -0.707107 0
    outer loop
      vertex -8.83932 8.13221 9.00485
      vertex -0.707107 0 2.42933
      vertex -8.83932 8.13221 10.0049
    endloop
  endfacet
  facet normal 0.388967 -0.388977 0.835106
    outer loop
      vertex -8.76861 8.20292 10.0049
      vertex -0.707107 0 2.42933
      vertex -0.565685 0 2.36346
    endloop
  endfacet
  facet normal 0.388972 -0.388972 0.835106
    outer loop
      vertex -0.707107 0 2.42933
      vertex -8.76861 8.20292 10.0049
      vertex -8.83932 8.13221 10.0049
    endloop
  endfacet
  facet normal 0.388972 -0.388972 0.835106
    outer loop
      vertex -8.20292 8.76861 10.0049
      vertex 0 0.707107 2.42933
      vertex -8.13221 8.83932 10.0049
    endloop
  endfacet
  facet normal 0.388977 -0.388967 0.835106
    outer loop
      vertex 0 0.707107 2.42933
      vertex -8.20292 8.76861 10.0049
      vertex 0 0.565685 2.36346
    endloop
  endfacet
  facet normal 0.707107 0.707107 0
    outer loop
      vertex 0 0.707107 2.42933
      vertex -8.13221 8.83932 9.00485
      vertex -8.13221 8.83932 10.0049
    endloop
  endfacet
  facet normal 0.707107 0.707107 0
    outer loop
      vertex -8.13221 8.83932 9.00485
      vertex 0 0.707107 2.42933
      vertex 0 0.707107 2.38767
    endloop
  endfacet
  facet normal -0.707107 -0.707107 -0
    outer loop
      vertex -0.848527 0 2.44521
      vertex -8.91003 8.0615 1
      vertex -0.848527 0 1
    endloop
  endfacet
  facet normal -0.707107 -0.707107 0
    outer loop
      vertex -8.91003 8.0615 1
      vertex -0.848527 0 2.44521
      vertex -8.91003 8.0615 9.00485
    endloop
  endfacet
  facet normal 0.707107 0.707107 0
    outer loop
      vertex 0 0.848527 2.44521
      vertex -8.0615 8.91003 1
      vertex -8.0615 8.91003 9.00485
    endloop
  endfacet
  facet normal 0.707107 0.707107 0
    outer loop
      vertex -8.0615 8.91003 1
      vertex 0 0.848527 2.44521
      vertex 0 0.848527 1
    endloop
  endfacet
  facet normal 0.352664 -0.352624 0.866767
    outer loop
      vertex -8.83932 8.13221 9.00485
      vertex -0.848527 0 2.44521
      vertex -0.707107 0 2.38767
    endloop
  endfacet
  facet normal 0.352644 -0.352644 0.866767
    outer loop
      vertex -0.848527 0 2.44521
      vertex -8.83932 8.13221 9.00485
      vertex -8.91003 8.0615 9.00485
    endloop
  endfacet
  facet normal 0.352644 -0.352644 0.866767
    outer loop
      vertex -8.13221 8.83932 9.00485
      vertex 0 0.848527 2.44521
      vertex -8.0615 8.91003 9.00485
    endloop
  endfacet
  facet normal 0.352624 -0.352664 0.866767
    outer loop
      vertex 0 0.848527 2.44521
      vertex -8.13221 8.83932 9.00485
      vertex 0 0.707107 2.38767
    endloop
  endfacet
  facet normal 0.520582 0.520573 0.676756
    outer loop
      vertex -0.141421 0 2.1992
      vertex -0.123737 -0.0176713 2.19919
      vertex -0.141408 0 2.19919
    endloop
  endfacet
  facet normal 0.498014 0.49797 0.709935
    outer loop
      vertex -0.141421 0 2.1992
      vertex -1.53795 -1.43188 4.18322
      vertex -0.123737 -0.0176713 2.19919
    endloop
  endfacet
  facet normal 0.49785 0.498132 0.709936
    outer loop
      vertex -1.53795 -1.43188 4.18322
      vertex -0.141421 0 2.1992
      vertex -1.55563 -1.41421 4.18322
    endloop
  endfacet
  facet normal 0.520573 0.520582 0.676756
    outer loop
      vertex -0.0176713 -0.123737 2.19919
      vertex 0 -0.141421 2.1992
      vertex 0 -0.141408 2.19919
    endloop
  endfacet
  facet normal 0.497969 0.498013 0.709936
    outer loop
      vertex -0.0176713 -0.123737 2.19919
      vertex -1.41421 -1.55563 4.18322
      vertex 0 -0.141421 2.1992
    endloop
  endfacet
  facet normal 0.498133 0.497851 0.709935
    outer loop
      vertex -1.41421 -1.55563 4.18322
      vertex -0.0176713 -0.123737 2.19919
      vertex -1.43188 -1.53795 4.18322
    endloop
  endfacet
  facet normal 0.707107 -0.707107 0
    outer loop
      vertex -8.34435 -8.62719 12.0049
      vertex 0 -0.282842 2.28173
      vertex -8.34435 -8.62719 13.0049
    endloop
  endfacet
  facet normal 0.707107 -0.707107 0
    outer loop
      vertex 0 -0.282842 2.28173
      vertex -8.34435 -8.62719 12.0049
      vertex 0 -0.282842 2.26507
    endloop
  endfacet
  facet normal 0.47553 0.475543 0.740088
    outer loop
      vertex -8.41506 -8.55648 13.0049
      vertex 0 -0.282842 2.28173
      vertex 0 -0.141421 2.19086
    endloop
  endfacet
  facet normal 0.475537 0.475537 0.740088
    outer loop
      vertex 0 -0.282842 2.28173
      vertex -8.41506 -8.55648 13.0049
      vertex -8.34435 -8.62719 13.0049
    endloop
  endfacet
  facet normal 0.475543 0.47553 0.740088
    outer loop
      vertex -0.282842 0 2.28173
      vertex -8.55648 -8.41506 13.0049
      vertex -0.141421 0 2.19086
    endloop
  endfacet
  facet normal 0.475537 0.475537 0.740088
    outer loop
      vertex -8.55648 -8.41506 13.0049
      vertex -0.282842 0 2.28173
      vertex -8.62719 -8.34435 13.0049
    endloop
  endfacet
  facet normal -0.707107 0.707107 0
    outer loop
      vertex -8.62719 -8.34435 12.0049
      vertex -0.282842 0 2.28173
      vertex -0.282842 0 2.26507
    endloop
  endfacet
  facet normal -0.707107 0.707107 0
    outer loop
      vertex -0.282842 0 2.28173
      vertex -8.62719 -8.34435 12.0049
      vertex -8.62719 -8.34435 13.0049
    endloop
  endfacet
  facet normal 0.707107 -0.707107 0
    outer loop
      vertex -8.27364 -8.6979 11.0049
      vertex 0 -0.424263 2.3476
      vertex -8.27364 -8.6979 12.0049
    endloop
  endfacet
  facet normal 0.707107 -0.707107 0
    outer loop
      vertex 0 -0.424263 2.3476
      vertex -8.27364 -8.6979 11.0049
      vertex 0 -0.424263 2.32261
    endloop
  endfacet
  facet normal 0.45014 0.450076 0.771237
    outer loop
      vertex -8.34435 -8.62719 12.0049
      vertex 0 -0.424263 2.3476
      vertex 0 -0.282842 2.26507
    endloop
  endfacet
  facet normal 0.450108 0.450108 0.771236
    outer loop
      vertex 0 -0.424263 2.3476
      vertex -8.34435 -8.62719 12.0049
      vertex -8.27364 -8.6979 12.0049
    endloop
  endfacet
  facet normal 0.450076 0.45014 0.771237
    outer loop
      vertex -0.424263 0 2.3476
      vertex -8.62719 -8.34435 12.0049
      vertex -0.282842 0 2.26507
    endloop
  endfacet
  facet normal 0.450108 0.450108 0.771236
    outer loop
      vertex -8.62719 -8.34435 12.0049
      vertex -0.424263 0 2.3476
      vertex -8.6979 -8.27364 12.0049
    endloop
  endfacet
  facet normal -0.707107 0.707107 0
    outer loop
      vertex -8.6979 -8.27364 11.0049
      vertex -0.424263 0 2.3476
      vertex -0.424263 0 2.32261
    endloop
  endfacet
  facet normal -0.707107 0.707107 0
    outer loop
      vertex -0.424263 0 2.3476
      vertex -8.6979 -8.27364 11.0049
      vertex -8.6979 -8.27364 12.0049
    endloop
  endfacet
  facet normal 0.707107 -0.707107 0
    outer loop
      vertex -8.20292 -8.76861 10.0049
      vertex 0 -0.565685 2.39681
      vertex -8.20292 -8.76861 11.0049
    endloop
  endfacet
  facet normal 0.707107 -0.707107 0
    outer loop
      vertex 0 -0.565685 2.39681
      vertex -8.20292 -8.76861 10.0049
      vertex 0 -0.565685 2.36346
    endloop
  endfacet
  facet normal 0.421383 0.421343 0.803061
    outer loop
      vertex -8.27364 -8.6979 11.0049
      vertex 0 -0.565685 2.39681
      vertex 0 -0.424263 2.32261
    endloop
  endfacet
  facet normal 0.421333 0.421393 0.803061
    outer loop
      vertex 0 -0.565685 2.39681
      vertex -8.27364 -8.6979 11.0049
      vertex -8.20292 -8.76861 11.0049
    endloop
  endfacet
  facet normal 0.421343 0.421383 0.803061
    outer loop
      vertex -0.565685 0 2.39681
      vertex -8.6979 -8.27364 11.0049
      vertex -0.424263 0 2.32261
    endloop
  endfacet
  facet normal 0.421393 0.421333 0.803061
    outer loop
      vertex -8.6979 -8.27364 11.0049
      vertex -0.565685 0 2.39681
      vertex -8.76861 -8.20292 11.0049
    endloop
  endfacet
  facet normal -0.707107 0.707107 0
    outer loop
      vertex -8.76861 -8.20292 10.0049
      vertex -0.565685 0 2.39681
      vertex -0.565685 0 2.36346
    endloop
  endfacet
  facet normal -0.707107 0.707107 0
    outer loop
      vertex -0.565685 0 2.39681
      vertex -8.76861 -8.20292 10.0049
      vertex -8.76861 -8.20292 11.0049
    endloop
  endfacet
  facet normal 0.707107 -0.707107 0
    outer loop
      vertex -8.13221 -8.83932 9.00485
      vertex 0 -0.707107 2.42933
      vertex -8.13221 -8.83932 10.0049
    endloop
  endfacet
  facet normal 0.707107 -0.707107 0
    outer loop
      vertex 0 -0.707107 2.42933
      vertex -8.13221 -8.83932 9.00485
      vertex 0 -0.707107 2.38767
    endloop
  endfacet
  facet normal 0.388977 0.388967 0.835106
    outer loop
      vertex -8.20292 -8.76861 10.0049
      vertex 0 -0.707107 2.42933
      vertex 0 -0.565685 2.36346
    endloop
  endfacet
  facet normal 0.388972 0.388972 0.835106
    outer loop
      vertex 0 -0.707107 2.42933
      vertex -8.20292 -8.76861 10.0049
      vertex -8.13221 -8.83932 10.0049
    endloop
  endfacet
  facet normal 0.388967 0.388977 0.835106
    outer loop
      vertex -0.707107 0 2.42933
      vertex -8.76861 -8.20292 10.0049
      vertex -0.565685 0 2.36346
    endloop
  endfacet
  facet normal 0.388972 0.388972 0.835106
    outer loop
      vertex -8.76861 -8.20292 10.0049
      vertex -0.707107 0 2.42933
      vertex -8.83932 -8.13221 10.0049
    endloop
  endfacet
  facet normal -0.707107 0.707107 0
    outer loop
      vertex -8.83932 -8.13221 9.00485
      vertex -0.707107 0 2.42933
      vertex -0.707107 0 2.38767
    endloop
  endfacet
  facet normal -0.707107 0.707107 0
    outer loop
      vertex -0.707107 0 2.42933
      vertex -8.83932 -8.13221 9.00485
      vertex -8.83932 -8.13221 10.0049
    endloop
  endfacet
  facet normal 0.707107 -0.707107 0
    outer loop
      vertex -8.0615 -8.91003 1
      vertex 0 -0.848527 2.44521
      vertex -8.0615 -8.91003 9.00485
    endloop
  endfacet
  facet normal 0.707107 -0.707107 0
    outer loop
      vertex 0 -0.848527 2.44521
      vertex -8.0615 -8.91003 1
      vertex 0 -0.848527 1
    endloop
  endfacet
  facet normal -0.707107 0.707107 0
    outer loop
      vertex -8.91003 -8.0615 1
      vertex -0.848527 0 2.44521
      vertex -0.848527 0 1
    endloop
  endfacet
  facet normal -0.707107 0.707107 0
    outer loop
      vertex -0.848527 0 2.44521
      vertex -8.91003 -8.0615 1
      vertex -8.91003 -8.0615 9.00485
    endloop
  endfacet
  facet normal 0.352624 0.352664 0.866767
    outer loop
      vertex -8.13221 -8.83932 9.00485
      vertex 0 -0.848527 2.44521
      vertex 0 -0.707107 2.38767
    endloop
  endfacet
  facet normal 0.352644 0.352644 0.866767
    outer loop
      vertex 0 -0.848527 2.44521
      vertex -8.13221 -8.83932 9.00485
      vertex -8.0615 -8.91003 9.00485
    endloop
  endfacet
  facet normal 0.352664 0.352624 0.866767
    outer loop
      vertex -0.848527 0 2.44521
      vertex -8.83932 -8.13221 9.00485
      vertex -0.707107 0 2.38767
    endloop
  endfacet
  facet normal 0.352644 0.352644 0.866767
    outer loop
      vertex -8.83932 -8.13221 9.00485
      vertex -0.848527 0 2.44521
      vertex -8.91003 -8.0615 9.00485
    endloop
  endfacet
  facet normal -0.49785 0.498132 0.709936
    outer loop
      vertex 0.141421 0 2.1992
      vertex 1.53795 -1.43188 4.18322
      vertex 1.55563 -1.41421 4.18322
    endloop
  endfacet
  facet normal -0.520582 0.520573 0.676756
    outer loop
      vertex 0.123737 -0.0176713 2.19919
      vertex 0.141421 0 2.1992
      vertex 0.141408 0 2.19919
    endloop
  endfacet
  facet normal -0.498014 0.49797 0.709935
    outer loop
      vertex 0.141421 0 2.1992
      vertex 0.123737 -0.0176713 2.19919
      vertex 1.53795 -1.43188 4.18322
    endloop
  endfacet
  facet normal -0.498133 0.497851 0.709935
    outer loop
      vertex 0.0176713 -0.123737 2.19919
      vertex 1.41421 -1.55563 4.18322
      vertex 1.43188 -1.53795 4.18322
    endloop
  endfacet
  facet normal -0.520573 0.520582 0.676756
    outer loop
      vertex 0 -0.141421 2.1992
      vertex 0.0176713 -0.123737 2.19919
      vertex 0 -0.141408 2.19919
    endloop
  endfacet
  facet normal -0.497969 0.498013 0.709936
    outer loop
      vertex 0.0176713 -0.123737 2.19919
      vertex 0 -0.141421 2.1992
      vertex 1.41421 -1.55563 4.18322
    endloop
  endfacet
  facet normal 0.707107 0.707107 -0
    outer loop
      vertex 8.62719 -8.34435 12.0049
      vertex 0.282842 0 2.28173
      vertex 8.62719 -8.34435 13.0049
    endloop
  endfacet
  facet normal 0.707107 0.707107 0
    outer loop
      vertex 0.282842 0 2.28173
      vertex 8.62719 -8.34435 12.0049
      vertex 0.282842 0 2.26507
    endloop
  endfacet
  facet normal -0.475537 0.475537 0.740088
    outer loop
      vertex 0.282842 0 2.28173
      vertex 8.55648 -8.41506 13.0049
      vertex 8.62719 -8.34435 13.0049
    endloop
  endfacet
  facet normal -0.475543 0.47553 0.740088
    outer loop
      vertex 8.55648 -8.41506 13.0049
      vertex 0.282842 0 2.28173
      vertex 0.141421 0 2.19086
    endloop
  endfacet
  facet normal -0.47553 0.475543 0.740088
    outer loop
      vertex 0 -0.282842 2.28173
      vertex 8.41506 -8.55648 13.0049
      vertex 0 -0.141421 2.19086
    endloop
  endfacet
  facet normal -0.475537 0.475537 0.740088
    outer loop
      vertex 8.41506 -8.55648 13.0049
      vertex 0 -0.282842 2.28173
      vertex 8.34435 -8.62719 13.0049
    endloop
  endfacet
  facet normal -0.707107 -0.707107 0
    outer loop
      vertex 0 -0.282842 2.28173
      vertex 8.34435 -8.62719 12.0049
      vertex 8.34435 -8.62719 13.0049
    endloop
  endfacet
  facet normal -0.707107 -0.707107 0
    outer loop
      vertex 8.34435 -8.62719 12.0049
      vertex 0 -0.282842 2.28173
      vertex 0 -0.282842 2.26507
    endloop
  endfacet
  facet normal 0.707107 0.707107 -0
    outer loop
      vertex 8.6979 -8.27364 11.0049
      vertex 0.424263 0 2.3476
      vertex 8.6979 -8.27364 12.0049
    endloop
  endfacet
  facet normal 0.707107 0.707107 0
    outer loop
      vertex 0.424263 0 2.3476
      vertex 8.6979 -8.27364 11.0049
      vertex 0.424263 0 2.32261
    endloop
  endfacet
  facet normal -0.450108 0.450108 0.771236
    outer loop
      vertex 0.424263 0 2.3476
      vertex 8.62719 -8.34435 12.0049
      vertex 8.6979 -8.27364 12.0049
    endloop
  endfacet
  facet normal -0.450076 0.45014 0.771237
    outer loop
      vertex 8.62719 -8.34435 12.0049
      vertex 0.424263 0 2.3476
      vertex 0.282842 0 2.26507
    endloop
  endfacet
  facet normal -0.45014 0.450076 0.771237
    outer loop
      vertex 0 -0.424263 2.3476
      vertex 8.34435 -8.62719 12.0049
      vertex 0 -0.282842 2.26507
    endloop
  endfacet
  facet normal -0.450108 0.450108 0.771236
    outer loop
      vertex 8.34435 -8.62719 12.0049
      vertex 0 -0.424263 2.3476
      vertex 8.27364 -8.6979 12.0049
    endloop
  endfacet
  facet normal -0.707107 -0.707107 0
    outer loop
      vertex 8.27364 -8.6979 11.0049
      vertex 0 -0.424263 2.3476
      vertex 0 -0.424263 2.32261
    endloop
  endfacet
  facet normal -0.707107 -0.707107 0
    outer loop
      vertex 0 -0.424263 2.3476
      vertex 8.27364 -8.6979 11.0049
      vertex 8.27364 -8.6979 12.0049
    endloop
  endfacet
  facet normal 0.707107 0.707107 -0
    outer loop
      vertex 8.76861 -8.20292 10.0049
      vertex 0.565685 0 2.39681
      vertex 8.76861 -8.20292 11.0049
    endloop
  endfacet
  facet normal 0.707107 0.707107 0
    outer loop
      vertex 0.565685 0 2.39681
      vertex 8.76861 -8.20292 10.0049
      vertex 0.565685 0 2.36346
    endloop
  endfacet
  facet normal -0.421393 0.421333 0.803061
    outer loop
      vertex 0.565685 0 2.39681
      vertex 8.6979 -8.27364 11.0049
      vertex 8.76861 -8.20292 11.0049
    endloop
  endfacet
  facet normal -0.421343 0.421383 0.803061
    outer loop
      vertex 8.6979 -8.27364 11.0049
      vertex 0.565685 0 2.39681
      vertex 0.424263 0 2.32261
    endloop
  endfacet
  facet normal -0.421383 0.421343 0.803061
    outer loop
      vertex 0 -0.565685 2.39681
      vertex 8.27364 -8.6979 11.0049
      vertex 0 -0.424263 2.32261
    endloop
  endfacet
  facet normal -0.421333 0.421393 0.803061
    outer loop
      vertex 8.27364 -8.6979 11.0049
      vertex 0 -0.565685 2.39681
      vertex 8.20292 -8.76861 11.0049
    endloop
  endfacet
  facet normal -0.707107 -0.707107 0
    outer loop
      vertex 0 -0.565685 2.39681
      vertex 8.20292 -8.76861 10.0049
      vertex 8.20292 -8.76861 11.0049
    endloop
  endfacet
  facet normal -0.707107 -0.707107 0
    outer loop
      vertex 8.20292 -8.76861 10.0049
      vertex 0 -0.565685 2.39681
      vertex 0 -0.565685 2.36346
    endloop
  endfacet
  facet normal 0.707107 0.707107 -0
    outer loop
      vertex 8.83932 -8.13221 9.00485
      vertex 0.707107 0 2.42933
      vertex 8.83932 -8.13221 10.0049
    endloop
  endfacet
  facet normal 0.707107 0.707107 0
    outer loop
      vertex 0.707107 0 2.42933
      vertex 8.83932 -8.13221 9.00485
      vertex 0.707107 0 2.38767
    endloop
  endfacet
  facet normal -0.388972 0.388972 0.835106
    outer loop
      vertex 0.707107 0 2.42933
      vertex 8.76861 -8.20292 10.0049
      vertex 8.83932 -8.13221 10.0049
    endloop
  endfacet
  facet normal -0.388967 0.388977 0.835106
    outer loop
      vertex 8.76861 -8.20292 10.0049
      vertex 0.707107 0 2.42933
      vertex 0.565685 0 2.36346
    endloop
  endfacet
  facet normal -0.388977 0.388967 0.835106
    outer loop
      vertex 0 -0.707107 2.42933
      vertex 8.20292 -8.76861 10.0049
      vertex 0 -0.565685 2.36346
    endloop
  endfacet
  facet normal -0.388972 0.388972 0.835106
    outer loop
      vertex 8.20292 -8.76861 10.0049
      vertex 0 -0.707107 2.42933
      vertex 8.13221 -8.83932 10.0049
    endloop
  endfacet
  facet normal -0.707107 -0.707107 0
    outer loop
      vertex 8.13221 -8.83932 9.00485
      vertex 0 -0.707107 2.42933
      vertex 0 -0.707107 2.38767
    endloop
  endfacet
  facet normal -0.707107 -0.707107 0
    outer loop
      vertex 0 -0.707107 2.42933
      vertex 8.13221 -8.83932 9.00485
      vertex 8.13221 -8.83932 10.0049
    endloop
  endfacet
  facet normal 0.707107 0.707107 -0
    outer loop
      vertex 8.91003 -8.0615 1
      vertex 0.848527 0 2.44521
      vertex 8.91003 -8.0615 9.00485
    endloop
  endfacet
  facet normal 0.707107 0.707107 0
    outer loop
      vertex 0.848527 0 2.44521
      vertex 8.91003 -8.0615 1
      vertex 0.848527 0 1
    endloop
  endfacet
  facet normal -0.707107 -0.707107 0
    outer loop
      vertex 8.0615 -8.91003 1
      vertex 0 -0.848527 2.44521
      vertex 0 -0.848527 1
    endloop
  endfacet
  facet normal -0.707107 -0.707107 0
    outer loop
      vertex 0 -0.848527 2.44521
      vertex 8.0615 -8.91003 1
      vertex 8.0615 -8.91003 9.00485
    endloop
  endfacet
  facet normal -0.352644 0.352644 0.866767
    outer loop
      vertex 0.848527 0 2.44521
      vertex 8.83932 -8.13221 9.00485
      vertex 8.91003 -8.0615 9.00485
    endloop
  endfacet
  facet normal -0.352664 0.352624 0.866767
    outer loop
      vertex 8.83932 -8.13221 9.00485
      vertex 0.848527 0 2.44521
      vertex 0.707107 0 2.38767
    endloop
  endfacet
  facet normal -0.352624 0.352664 0.866767
    outer loop
      vertex 0 -0.848527 2.44521
      vertex 8.13221 -8.83932 9.00485
      vertex 0 -0.707107 2.38767
    endloop
  endfacet
  facet normal -0.352644 0.352644 0.866767
    outer loop
      vertex 8.13221 -8.83932 9.00485
      vertex 0 -0.848527 2.44521
      vertex 8.0615 -8.91003 9.00485
    endloop
  endfacet
  facet normal -0.707108 -0.707106 0
    outer loop
      vertex -3.53553 0 0
      vertex -10.8844 7.34889 1
      vertex -10.8844 7.34889 0
    endloop
  endfacet
  facet normal -0.707108 -0.707106 0
    outer loop
      vertex -10.8844 7.34889 1
      vertex -3.53553 0 0
      vertex -3.53553 0 1
    endloop
  endfacet
  facet normal 0 0 1
    outer loop
      vertex 10.8844 7.34889 1
      vertex 8.0615 8.91003 1
      vertex 8.91003 8.0615 1
    endloop
  endfacet
  facet normal 0 0 1
    outer loop
      vertex 7.34889 10.8844 1
      vertex 8.0615 8.91003 1
      vertex 10.8844 7.34889 1
    endloop
  endfacet
  facet normal 0 0 1
    outer loop
      vertex 0 3.53553 1
      vertex 8.0615 8.91003 1
      vertex 7.34889 10.8844 1
    endloop
  endfacet
  facet normal -0 0 1
    outer loop
      vertex 0 3.53553 1
      vertex 0 0.848527 1
      vertex 8.0615 8.91003 1
    endloop
  endfacet
  facet normal -0 0 1
    outer loop
      vertex -8.0615 8.91003 1
      vertex 0 3.53553 1
      vertex -7.34889 10.8844 1
    endloop
  endfacet
  facet normal 0 0 1
    outer loop
      vertex 0 3.53553 1
      vertex -8.0615 8.91003 1
      vertex 0 0.848527 1
    endloop
  endfacet
  facet normal 0 0 1
    outer loop
      vertex -7.34889 10.8844 1
      vertex -8.91003 8.0615 1
      vertex -8.0615 8.91003 1
    endloop
  endfacet
  facet normal 0 -0 1
    outer loop
      vertex -8.91003 8.0615 1
      vertex -7.34889 10.8844 1
      vertex -10.8844 7.34889 1
    endloop
  endfacet
  facet normal 0 0 1
    outer loop
      vertex 8.91003 8.0615 1
      vertex 3.53553 0 1
      vertex 10.8844 7.34889 1
    endloop
  endfacet
  facet normal 0 -0 1
    outer loop
      vertex 3.53553 0 1
      vertex 8.91003 8.0615 1
      vertex 0.848527 0 1
    endloop
  endfacet
  facet normal 0 0 1
    outer loop
      vertex 3.53553 0 1
      vertex 8.91003 -8.0615 1
      vertex 10.8844 -7.34889 1
    endloop
  endfacet
  facet normal 0 0 1
    outer loop
      vertex 8.91003 -8.0615 1
      vertex 3.53553 0 1
      vertex 0.848527 0 1
    endloop
  endfacet
  facet normal 0 0 1
    outer loop
      vertex 8.0615 -8.91003 1
      vertex 10.8844 -7.34889 1
      vertex 8.91003 -8.0615 1
    endloop
  endfacet
  facet normal -0 0 1
    outer loop
      vertex 8.0615 -8.91003 1
      vertex 7.34889 -10.8844 1
      vertex 10.8844 -7.34889 1
    endloop
  endfacet
  facet normal -0 0 1
    outer loop
      vertex 0 -3.53553 1
      vertex 8.0615 -8.91003 1
      vertex 0 -0.848527 1
    endloop
  endfacet
  facet normal 0 0 1
    outer loop
      vertex 8.0615 -8.91003 1
      vertex 0 -3.53553 1
      vertex 7.34889 -10.8844 1
    endloop
  endfacet
  facet normal 0 0 1
    outer loop
      vertex -8.0615 -8.91003 1
      vertex 0 -3.53553 1
      vertex 0 -0.848527 1
    endloop
  endfacet
  facet normal 0 0 1
    outer loop
      vertex 0 -3.53553 1
      vertex -8.0615 -8.91003 1
      vertex -7.34889 -10.8844 1
    endloop
  endfacet
  facet normal 0 0 1
    outer loop
      vertex -8.91003 -8.0615 1
      vertex -7.34889 -10.8844 1
      vertex -8.0615 -8.91003 1
    endloop
  endfacet
  facet normal 0 0 1
    outer loop
      vertex -7.34889 -10.8844 1
      vertex -8.91003 -8.0615 1
      vertex -10.8844 -7.34889 1
    endloop
  endfacet
  facet normal 0 0 1
    outer loop
      vertex -8.91003 8.0615 1
      vertex -3.53553 0 1
      vertex -0.848527 0 1
    endloop
  endfacet
  facet normal 0 0 1
    outer loop
      vertex -3.53553 0 1
      vertex -8.91003 8.0615 1
      vertex -10.8844 7.34889 1
    endloop
  endfacet
  facet normal -0 0 1
    outer loop
      vertex -3.53553 0 1
      vertex -8.91003 -8.0615 1
      vertex -0.848527 0 1
    endloop
  endfacet
  facet normal 0 -0 1
    outer loop
      vertex -8.91003 -8.0615 1
      vertex -3.53553 0 1
      vertex -10.8844 -7.34889 1
    endloop
  endfacet
  facet normal 0 0 1
    outer loop
      vertex 0 0.141408 1
      vertex 0 -0.141408 1
      vertex 0.141408 0 1
    endloop
  endfacet
  facet normal 0 -0 1
    outer loop
      vertex 0 -0.141408 1
      vertex 0 0.141408 1
      vertex -0.141408 0 1
    endloop
  endfacet
  facet normal -0.707106 0.707108 0
    outer loop
      vertex 7.34889 10.8844 0
      vertex 0 3.53553 1
      vertex 7.34889 10.8844 1
    endloop
  endfacet
  facet normal -0.707106 0.707108 0
    outer loop
      vertex 0 3.53553 1
      vertex 7.34889 10.8844 0
      vertex 0 3.53553 0
    endloop
  endfacet
  facet normal 0.707107 0.707107 0
    outer loop
      vertex 10.8844 7.34889 1
      vertex 7.34889 10.8844 0
      vertex 7.34889 10.8844 1
    endloop
  endfacet
  facet normal 0.707107 0.707107 0
    outer loop
      vertex 7.34889 10.8844 0
      vertex 10.8844 7.34889 1
      vertex 10.8844 7.34889 0
    endloop
  endfacet
  facet normal 0.707108 -0.707106 0
    outer loop
      vertex 3.53553 0 1
      vertex 10.8844 7.34889 0
      vertex 10.8844 7.34889 1
    endloop
  endfacet
  facet normal 0.707108 -0.707106 0
    outer loop
      vertex 10.8844 7.34889 0
      vertex 3.53553 0 1
      vertex 3.53553 0 0
    endloop
  endfacet
  facet normal 0.707106 -0.707108 0
    outer loop
      vertex -7.34889 -10.8844 0
      vertex 0 -3.53553 1
      vertex -7.34889 -10.8844 1
    endloop
  endfacet
  facet normal 0.707106 -0.707108 0
    outer loop
      vertex 0 -3.53553 1
      vertex -7.34889 -10.8844 0
      vertex 0 -3.53553 0
    endloop
  endfacet
  facet normal -0.707107 0.707107 0
    outer loop
      vertex -10.8844 7.34889 0
      vertex -7.34889 10.8844 1
      vertex -7.34889 10.8844 0
    endloop
  endfacet
  facet normal -0.707107 0.707107 0
    outer loop
      vertex -7.34889 10.8844 1
      vertex -10.8844 7.34889 0
      vertex -10.8844 7.34889 1
    endloop
  endfacet
  facet normal 0.707106 0.707108 -0
    outer loop
      vertex 0 3.53553 0
      vertex -7.34889 10.8844 1
      vertex 0 3.53553 1
    endloop
  endfacet
  facet normal 0.707106 0.707108 0
    outer loop
      vertex -7.34889 10.8844 1
      vertex 0 3.53553 0
      vertex -7.34889 10.8844 0
    endloop
  endfacet
  facet normal -0.707107 -0.707107 0
    outer loop
      vertex -7.34889 -10.8844 0
      vertex -10.8844 -7.34889 1
      vertex -10.8844 -7.34889 0
    endloop
  endfacet
  facet normal -0.707107 -0.707107 0
    outer loop
      vertex -10.8844 -7.34889 1
      vertex -7.34889 -10.8844 0
      vertex -7.34889 -10.8844 1
    endloop
  endfacet
  facet normal -0.707108 0.707106 0
    outer loop
      vertex -10.8844 -7.34889 0
      vertex -3.53553 0 1
      vertex -3.53553 0 0
    endloop
  endfacet
  facet normal -0.707108 0.707106 0
    outer loop
      vertex -3.53553 0 1
      vertex -10.8844 -7.34889 0
      vertex -10.8844 -7.34889 1
    endloop
  endfacet
  facet normal 0.707108 0.707106 0
    outer loop
      vertex 10.8844 -7.34889 1
      vertex 3.53553 0 0
      vertex 3.53553 0 1
    endloop
  endfacet
  facet normal 0.707108 0.707106 0
    outer loop
      vertex 3.53553 0 0
      vertex 10.8844 -7.34889 1
      vertex 10.8844 -7.34889 0
    endloop
  endfacet
  facet normal 0.707107 -0.707107 0
    outer loop
      vertex 7.34889 -10.8844 1
      vertex 10.8844 -7.34889 0
      vertex 10.8844 -7.34889 1
    endloop
  endfacet
  facet normal 0.707107 -0.707107 0
    outer loop
      vertex 10.8844 -7.34889 0
      vertex 7.34889 -10.8844 1
      vertex 7.34889 -10.8844 0
    endloop
  endfacet
  facet normal -0.707106 -0.707108 0
    outer loop
      vertex 0 -3.53553 0
      vertex 7.34889 -10.8844 1
      vertex 0 -3.53553 1
    endloop
  endfacet
  facet normal -0.707106 -0.707108 -0
    outer loop
      vertex 7.34889 -10.8844 1
      vertex 0 -3.53553 0
      vertex 7.34889 -10.8844 0
    endloop
  endfacet
  facet normal 0 0 -1
    outer loop
      vertex 7.34889 -10.8844 0
      vertex 3.53553 0 0
      vertex 10.8844 -7.34889 0
    endloop
  endfacet
  facet normal 0 -0 -1
    outer loop
      vertex 3.53553 0 0
      vertex 7.34889 -10.8844 0
      vertex 0 -3.53553 0
    endloop
  endfacet
  facet normal 0 0 -1
    outer loop
      vertex 3.53553 0 0
      vertex 7.34889 10.8844 0
      vertex 10.8844 7.34889 0
    endloop
  endfacet
  facet normal 0 0 -1
    outer loop
      vertex 0 3.53553 0
      vertex 3.53553 0 0
      vertex 0 -3.53553 0
    endloop
  endfacet
  facet normal 0 0 -1
    outer loop
      vertex 3.53553 0 0
      vertex 0 3.53553 0
      vertex 7.34889 10.8844 0
    endloop
  endfacet
  facet normal 0 0 -1
    outer loop
      vertex 0 -3.53553 0
      vertex -3.53553 0 0
      vertex 0 3.53553 0
    endloop
  endfacet
  facet normal 0 0 -1
    outer loop
      vertex -7.34889 -10.8844 0
      vertex -3.53553 0 0
      vertex 0 -3.53553 0
    endloop
  endfacet
  facet normal 0 0 -1
    outer loop
      vertex -3.53553 0 0
      vertex -7.34889 -10.8844 0
      vertex -10.8844 -7.34889 0
    endloop
  endfacet
  facet normal 0 0 -1
    outer loop
      vertex -3.53553 0 0
      vertex -7.34889 10.8844 0
      vertex 0 3.53553 0
    endloop
  endfacet
  facet normal 0 -0 -1
    outer loop
      vertex -7.34889 10.8844 0
      vertex -3.53553 0 0
      vertex -10.8844 7.34889 0
    endloop
  endfacet
endsolid OpenSCAD_Model
