solid OpenSCAD_Model
  facet normal 0 0 -1
    outer loop
      vertex -6.2836 -7.8545 10.7914
      vertex 6.2836 7.8545 10.7914
      vertex 6.2836 -7.8545 10.7914
    endloop
  endfacet
  facet normal -0 0 -1
    outer loop
      vertex 6.2836 7.8545 10.7914
      vertex -6.2836 -7.8545 10.7914
      vertex -6.2836 7.8545 10.7914
    endloop
  endfacet
  facet normal -1 0 0
    outer loop
      vertex -6.2836 -7.8545 10.7914
      vertex -6.2836 7.8545 23.3586
      vertex -6.2836 7.8545 10.7914
    endloop
  endfacet
  facet normal -1 -0 0
    outer loop
      vertex -6.2836 7.8545 23.3586
      vertex -6.2836 -7.8545 10.7914
      vertex -6.2836 -7.8545 23.3586
    endloop
  endfacet
  facet normal -0 0 1
    outer loop
      vertex -6.2836 7.8545 23.3586
      vertex 6.2836 -7.8545 23.3586
      vertex 6.2836 7.8545 23.3586
    endloop
  endfacet
  facet normal 0 0 1
    outer loop
      vertex 6.2836 -7.8545 23.3586
      vertex -6.2836 7.8545 23.3586
      vertex -6.2836 -7.8545 23.3586
    endloop
  endfacet
  facet normal 1 -0 0
    outer loop
      vertex 6.2836 -7.8545 23.3586
      vertex 6.2836 7.8545 10.7914
      vertex 6.2836 7.8545 23.3586
    endloop
  endfacet
  facet normal 1 0 0
    outer loop
      vertex 6.2836 7.8545 10.7914
      vertex 6.2836 -7.8545 23.3586
      vertex 6.2836 -7.8545 10.7914
    endloop
  endfacet
  facet normal 0 -0.563147 -0.826357
    outer loop
      vertex -3.05176e-05 -17.075 17.075
      vertex 6.2836 -7.8545 10.7914
      vertex 3.05176e-05 -17.075 17.075
    endloop
  endfacet
  facet normal -0 -0.563147 -0.826357
    outer loop
      vertex 6.2836 -7.8545 10.7914
      vertex -3.05176e-05 -17.075 17.075
      vertex -6.2836 -7.8545 10.7914
    endloop
  endfacet
  facet normal 0 -0.563147 0.826357
    outer loop
      vertex 6.2836 -7.8545 23.3586
      vertex -3.05176e-05 -17.075 17.075
      vertex 3.05176e-05 -17.075 17.075
    endloop
  endfacet
  facet normal 0 -0.563147 0.826357
    outer loop
      vertex -3.05176e-05 -17.075 17.075
      vertex 6.2836 -7.8545 23.3586
      vertex -6.2836 -7.8545 23.3586
    endloop
  endfacet
  facet normal 0.826358 -0.563145 0
    outer loop
      vertex 3.05176e-05 -17.075 17.075
      vertex 6.2836 -7.8545 10.7914
      vertex 6.2836 -7.8545 23.3586
    endloop
  endfacet
  facet normal -0.826358 -0.563145 0
    outer loop
      vertex -3.05176e-05 -17.075 17.075
      vertex -6.2836 -7.8545 23.3586
      vertex -6.2836 -7.8545 10.7914
    endloop
  endfacet
  facet normal -0.826358 0.563145 0
    outer loop
      vertex -3.05176e-05 17.075 17.075
      vertex -6.2836 7.8545 10.7914
      vertex -6.2836 7.8545 23.3586
    endloop
  endfacet
  facet normal 0 0.563147 -0.826357
    outer loop
      vertex 6.2836 7.8545 10.7914
      vertex -3.05176e-05 17.075 17.075
      vertex 3.05176e-05 17.075 17.075
    endloop
  endfacet
  facet normal 0 0.563147 -0.826357
    outer loop
      vertex -3.05176e-05 17.075 17.075
      vertex 6.2836 7.8545 10.7914
      vertex -6.2836 7.8545 10.7914
    endloop
  endfacet
  facet normal 0.826358 0.563145 0
    outer loop
      vertex 3.05176e-05 17.075 17.075
      vertex 6.2836 7.8545 23.3586
      vertex 6.2836 7.8545 10.7914
    endloop
  endfacet
  facet normal -0 0.563147 0.826357
    outer loop
      vertex -3.05176e-05 17.075 17.075
      vertex 6.2836 7.8545 23.3586
      vertex 3.05176e-05 17.075 17.075
    endloop
  endfacet
  facet normal 0 0.563147 0.826357
    outer loop
      vertex 6.2836 7.8545 23.3586
      vertex -3.05176e-05 17.075 17.075
      vertex -6.2836 7.8545 23.3586
    endloop
  endfacet
endsolid OpenSCAD_Model
