solid OpenSCAD_Model
  facet normal -1 0 0
    outer loop
      vertex -8.075 -8.075 5.91131
      vertex -8.075 8.075 22.0613
      vertex -8.075 8.075 5.91131
    endloop
  endfacet
  facet normal -1 -0 0
    outer loop
      vertex -8.075 8.075 22.0613
      vertex -8.075 -8.075 5.91131
      vertex -8.075 -8.075 22.0613
    endloop
  endfacet
  facet normal 0 0 -1
    outer loop
      vertex -8.075 -8.075 5.91131
      vertex 8.075 8.075 5.91131
      vertex 8.075 -8.075 5.91131
    endloop
  endfacet
  facet normal -0 0 -1
    outer loop
      vertex 8.075 8.075 5.91131
      vertex -8.075 -8.075 5.91131
      vertex -8.075 8.075 5.91131
    endloop
  endfacet
  facet normal 0 1 -0
    outer loop
      vertex 8.075 8.075 5.91131
      vertex -8.075 8.075 22.0613
      vertex 8.075 8.075 22.0613
    endloop
  endfacet
  facet normal 0 1 0
    outer loop
      vertex -8.075 8.075 22.0613
      vertex 8.075 8.075 5.91131
      vertex -8.075 8.075 5.91131
    endloop
  endfacet
  facet normal -0 0 1
    outer loop
      vertex -8.075 8.075 22.0613
      vertex 8.075 -8.075 22.0613
      vertex 8.075 8.075 22.0613
    endloop
  endfacet
  facet normal 0 0 1
    outer loop
      vertex 8.075 -8.075 22.0613
      vertex -8.075 8.075 22.0613
      vertex -8.075 -8.075 22.0613
    endloop
  endfacet
  facet normal 1 -0 0
    outer loop
      vertex 8.075 -8.075 22.0613
      vertex 8.075 8.075 5.91131
      vertex 8.075 8.075 22.0613
    endloop
  endfacet
  facet normal 1 0 0
    outer loop
      vertex 8.075 8.075 5.91131
      vertex 8.075 -8.075 22.0613
      vertex 8.075 -8.075 5.91131
    endloop
  endfacet
  facet normal 0 -1 0
    outer loop
      vertex -8.075 -8.075 5.91131
      vertex 8.075 -8.075 22.0613
      vertex -8.075 -8.075 22.0613
    endloop
  endfacet
  facet normal 0 -1 -0
    outer loop
      vertex 8.075 -8.075 22.0613
      vertex -8.075 -8.075 5.91131
      vertex 8.075 -8.075 5.91131
    endloop
  endfacet
endsolid OpenSCAD_Model
