solid OpenSCAD_Model
  facet normal 0.93969 0 -0.342028
    outer loop
      vertex 13.5 13.5 5
      vertex 11.6801 -11.6801 0
      vertex 11.6801 11.6801 0
    endloop
  endfacet
  facet normal -0.93969 0 -0.342028
    outer loop
      vertex -11.6801 -11.6801 0
      vertex -13.5 -13.5 5
      vertex -13.5 13.5 5
    endloop
  endfacet
  facet normal 0 0 1
    outer loop
      vertex 13.5 13.5 5
      vertex 5.78159 0 5
      vertex 13.5 -13.5 5
    endloop
  endfacet
  facet normal 0 0 1
    outer loop
      vertex 13.5 13.5 5
      vertex 0 11.5632 5
      vertex 5.78159 0 5
    endloop
  endfacet
  facet normal 0 0 1
    outer loop
      vertex 0 11.5632 5
      vertex -13.5 13.5 5
      vertex -5.78159 0 5
    endloop
  endfacet
  facet normal -0 0 1
    outer loop
      vertex -13.5 13.5 5
      vertex 0 11.5632 5
      vertex 13.5 13.5 5
    endloop
  endfacet
  facet normal -0 0 1
    outer loop
      vertex 0 -2.90393 5
      vertex 13.5 -13.5 5
      vertex 5.78159 0 5
    endloop
  endfacet
  facet normal 0 0 1
    outer loop
      vertex -13.5 -13.5 5
      vertex 0 -2.90393 5
      vertex -5.78159 0 5
    endloop
  endfacet
  facet normal 0 0 1
    outer loop
      vertex 0 -2.90393 5
      vertex -13.5 -13.5 5
      vertex 13.5 -13.5 5
    endloop
  endfacet
  facet normal 0 0 1
    outer loop
      vertex -13.5 -13.5 5
      vertex -5.78159 0 5
      vertex -13.5 13.5 5
    endloop
  endfacet
  facet normal 0.93969 0 -0.342028
    outer loop
      vertex 13.5 -13.5 5
      vertex 11.6801 -11.6801 0
      vertex 13.5 13.5 5
    endloop
  endfacet
  facet normal -0.93969 0 -0.342028
    outer loop
      vertex -11.6801 -11.6801 0
      vertex -13.5 13.5 5
      vertex -11.6801 11.6801 0
    endloop
  endfacet
  facet normal 0 -0.93969 -0.342028
    outer loop
      vertex -11.6801 -11.6801 0
      vertex 13.5 -13.5 5
      vertex -13.5 -13.5 5
    endloop
  endfacet
  facet normal 0 -0.93969 -0.342028
    outer loop
      vertex 13.5 -13.5 5
      vertex -11.6801 -11.6801 0
      vertex 11.6801 -11.6801 0
    endloop
  endfacet
  facet normal 0 0 -1
    outer loop
      vertex -11.6801 -11.6801 0
      vertex 11.6801 11.6801 0
      vertex 11.6801 -11.6801 0
    endloop
  endfacet
  facet normal -0 0 -1
    outer loop
      vertex 11.6801 11.6801 0
      vertex -11.6801 -11.6801 0
      vertex -11.6801 11.6801 0
    endloop
  endfacet
  facet normal 0 0.93969 -0.342028
    outer loop
      vertex 11.6801 11.6801 0
      vertex -13.5 13.5 5
      vertex 13.5 13.5 5
    endloop
  endfacet
  facet normal 0 0.93969 -0.342028
    outer loop
      vertex -13.5 13.5 5
      vertex 11.6801 11.6801 0
      vertex -11.6801 11.6801 0
    endloop
  endfacet
  facet normal -0.894428 0.447213 0
    outer loop
      vertex -5.78159 0 5
      vertex 0 11.5632 9.5
      vertex 0 11.5632 5
    endloop
  endfacet
  facet normal -0.894428 0.447213 0
    outer loop
      vertex 0 11.5632 9.5
      vertex -5.78159 0 5
      vertex -5.78159 0 9.5
    endloop
  endfacet
  facet normal 0 0 1
    outer loop
      vertex 0 11.5632 9.5
      vertex 0 -2.90393 9.5
      vertex 5.78159 0 9.5
    endloop
  endfacet
  facet normal 0 -0 1
    outer loop
      vertex 0 -2.90393 9.5
      vertex 0 11.5632 9.5
      vertex -5.78159 0 9.5
    endloop
  endfacet
  facet normal 0.894428 0.447213 0
    outer loop
      vertex 5.78159 0 9.5
      vertex 0 11.5632 5
      vertex 0 11.5632 9.5
    endloop
  endfacet
  facet normal 0.894428 0.447213 0
    outer loop
      vertex 0 11.5632 5
      vertex 5.78159 0 9.5
      vertex 5.78159 0 5
    endloop
  endfacet
  facet normal 0.448837 -0.893614 0
    outer loop
      vertex 0 -2.90393 5
      vertex 5.78159 0 9.5
      vertex 0 -2.90393 9.5
    endloop
  endfacet
  facet normal 0.448837 -0.893614 0
    outer loop
      vertex 5.78159 0 9.5
      vertex 0 -2.90393 5
      vertex 5.78159 0 5
    endloop
  endfacet
  facet normal -0.448837 -0.893614 0
    outer loop
      vertex -5.78159 0 5
      vertex 0 -2.90393 9.5
      vertex -5.78159 0 9.5
    endloop
  endfacet
  facet normal -0.448837 -0.893614 -0
    outer loop
      vertex 0 -2.90393 9.5
      vertex -5.78159 0 5
      vertex 0 -2.90393 5
    endloop
  endfacet
endsolid OpenSCAD_Model
