solid OpenSCAD_Model
  facet normal 0.93969 0 -0.342028
    outer loop
      vertex 13.5 13.5 5
      vertex 11.6801 -11.6801 0
      vertex 11.6801 11.6801 0
    endloop
  endfacet
  facet normal -0.93969 0 -0.342028
    outer loop
      vertex -11.6801 -11.6801 0
      vertex -13.5 -13.5 5
      vertex -13.5 13.5 5
    endloop
  endfacet
  facet normal 0 0 1
    outer loop
      vertex 13.5 13.5 5
      vertex 4.625 0 5
      vertex 13.5 -13.5 5
    endloop
  endfacet
  facet normal 0 0 1
    outer loop
      vertex 13.5 13.5 5
      vertex 0 12.75 5
      vertex 4.625 0 5
    endloop
  endfacet
  facet normal 0 0 1
    outer loop
      vertex 0 12.75 5
      vertex -13.5 13.5 5
      vertex -4.625 0 5
    endloop
  endfacet
  facet normal -0 0 1
    outer loop
      vertex -13.5 13.5 5
      vertex 0 12.75 5
      vertex 13.5 13.5 5
    endloop
  endfacet
  facet normal -0 0 1
    outer loop
      vertex 0 -3.25 5
      vertex 13.5 -13.5 5
      vertex 4.625 0 5
    endloop
  endfacet
  facet normal 0 0 1
    outer loop
      vertex -13.5 -13.5 5
      vertex 0 -3.25 5
      vertex -4.625 0 5
    endloop
  endfacet
  facet normal 0 0 1
    outer loop
      vertex 0 -3.25 5
      vertex -13.5 -13.5 5
      vertex 13.5 -13.5 5
    endloop
  endfacet
  facet normal 0 0 1
    outer loop
      vertex -13.5 -13.5 5
      vertex -4.625 0 5
      vertex -13.5 13.5 5
    endloop
  endfacet
  facet normal 0.93969 0 -0.342028
    outer loop
      vertex 13.5 -13.5 5
      vertex 11.6801 -11.6801 0
      vertex 13.5 13.5 5
    endloop
  endfacet
  facet normal -0.93969 0 -0.342028
    outer loop
      vertex -11.6801 -11.6801 0
      vertex -13.5 13.5 5
      vertex -11.6801 11.6801 0
    endloop
  endfacet
  facet normal 0 -0.93969 -0.342028
    outer loop
      vertex -11.6801 -11.6801 0
      vertex 13.5 -13.5 5
      vertex -13.5 -13.5 5
    endloop
  endfacet
  facet normal 0 -0.93969 -0.342028
    outer loop
      vertex 13.5 -13.5 5
      vertex -11.6801 -11.6801 0
      vertex 11.6801 -11.6801 0
    endloop
  endfacet
  facet normal 0 0 -1
    outer loop
      vertex -11.6801 -11.6801 0
      vertex 11.6801 11.6801 0
      vertex 11.6801 -11.6801 0
    endloop
  endfacet
  facet normal -0 0 -1
    outer loop
      vertex 11.6801 11.6801 0
      vertex -11.6801 -11.6801 0
      vertex -11.6801 11.6801 0
    endloop
  endfacet
  facet normal 0 0.93969 -0.342028
    outer loop
      vertex 11.6801 11.6801 0
      vertex -13.5 13.5 5
      vertex 13.5 13.5 5
    endloop
  endfacet
  facet normal 0 0.93969 -0.342028
    outer loop
      vertex -13.5 13.5 5
      vertex 11.6801 11.6801 0
      vertex -11.6801 11.6801 0
    endloop
  endfacet
  facet normal -0.940062 0.341003 0
    outer loop
      vertex -4.625 0 5
      vertex 0 12.75 9.5
      vertex 0 12.75 5
    endloop
  endfacet
  facet normal -0.940062 0.341003 0
    outer loop
      vertex 0 12.75 9.5
      vertex -4.625 0 5
      vertex -4.625 0 9.5
    endloop
  endfacet
  facet normal 0 0 1
    outer loop
      vertex -4.625 0 9.5
      vertex 4.625 0 9.5
      vertex 0 12.75 9.5
    endloop
  endfacet
  facet normal 0 0 1
    outer loop
      vertex 4.625 0 9.5
      vertex -4.625 0 9.5
      vertex 0 -3.25 9.5
    endloop
  endfacet
  facet normal 0.940062 0.341003 0
    outer loop
      vertex 4.625 0 9.5
      vertex 0 12.75 5
      vertex 0 12.75 9.5
    endloop
  endfacet
  facet normal 0.940062 0.341003 0
    outer loop
      vertex 0 12.75 5
      vertex 4.625 0 9.5
      vertex 4.625 0 5
    endloop
  endfacet
  facet normal 0.574946 -0.818192 0
    outer loop
      vertex 0 -3.25 5
      vertex 4.625 0 9.5
      vertex 0 -3.25 9.5
    endloop
  endfacet
  facet normal 0.574946 -0.818192 0
    outer loop
      vertex 4.625 0 9.5
      vertex 0 -3.25 5
      vertex 4.625 0 5
    endloop
  endfacet
  facet normal -0.574946 -0.818192 0
    outer loop
      vertex -4.625 0 5
      vertex 0 -3.25 9.5
      vertex -4.625 0 9.5
    endloop
  endfacet
  facet normal -0.574946 -0.818192 -0
    outer loop
      vertex 0 -3.25 9.5
      vertex -4.625 0 5
      vertex 0 -3.25 5
    endloop
  endfacet
endsolid OpenSCAD_Model
