solid OpenSCAD_Model
  facet normal -0.93969 0 -0.342028
    outer loop
      vertex -11.6801 -11.6801 0
      vertex -13.5 -13.5 5
      vertex -11.6801 11.6801 0
    endloop
  endfacet
  facet normal 0.93969 0 -0.342028
    outer loop
      vertex 13.5 -13.5 5
      vertex 11.6801 11.6801 0
      vertex 13.5 13.5 5
    endloop
  endfacet
  facet normal 0 0 1
    outer loop
      vertex 13.5 13.5 5
      vertex 6.08679 5.13734 5
      vertex 13.5 -13.5 5
    endloop
  endfacet
  facet normal 0 0 1
    outer loop
      vertex 13.5 13.5 5
      vertex -6.08679 5.13734 5
      vertex 6.08679 5.13734 5
    endloop
  endfacet
  facet normal 0 -0 1
    outer loop
      vertex -6.08679 5.13734 5
      vertex 13.5 13.5 5
      vertex -13.5 13.5 5
    endloop
  endfacet
  facet normal -0 0 1
    outer loop
      vertex 0 -5.13734 5
      vertex 13.5 -13.5 5
      vertex 6.08679 5.13734 5
    endloop
  endfacet
  facet normal 0 0 1
    outer loop
      vertex -13.5 -13.5 5
      vertex -6.08679 5.13734 5
      vertex -13.5 13.5 5
    endloop
  endfacet
  facet normal 0 0 1
    outer loop
      vertex 0 -5.13734 5
      vertex -13.5 -13.5 5
      vertex 13.5 -13.5 5
    endloop
  endfacet
  facet normal 0 0 1
    outer loop
      vertex -6.08679 5.13734 5
      vertex -13.5 -13.5 5
      vertex 0 -5.13734 5
    endloop
  endfacet
  facet normal -0.93969 0 -0.342028
    outer loop
      vertex -11.6801 11.6801 0
      vertex -13.5 -13.5 5
      vertex -13.5 13.5 5
    endloop
  endfacet
  facet normal 0.93969 0 -0.342028
    outer loop
      vertex 13.5 -13.5 5
      vertex 11.6801 -11.6801 0
      vertex 11.6801 11.6801 0
    endloop
  endfacet
  facet normal 0 0.93969 -0.342028
    outer loop
      vertex 11.6801 11.6801 0
      vertex -13.5 13.5 5
      vertex 13.5 13.5 5
    endloop
  endfacet
  facet normal 0 0.93969 -0.342028
    outer loop
      vertex -13.5 13.5 5
      vertex 11.6801 11.6801 0
      vertex -11.6801 11.6801 0
    endloop
  endfacet
  facet normal 0 0 -1
    outer loop
      vertex -11.6801 -11.6801 0
      vertex 11.6801 11.6801 0
      vertex 11.6801 -11.6801 0
    endloop
  endfacet
  facet normal -0 0 -1
    outer loop
      vertex 11.6801 11.6801 0
      vertex -11.6801 -11.6801 0
      vertex -11.6801 11.6801 0
    endloop
  endfacet
  facet normal 0 -0.93969 -0.342028
    outer loop
      vertex -11.6801 -11.6801 0
      vertex 13.5 -13.5 5
      vertex -13.5 -13.5 5
    endloop
  endfacet
  facet normal 0 -0.93969 -0.342028
    outer loop
      vertex 13.5 -13.5 5
      vertex -11.6801 -11.6801 0
      vertex 11.6801 -11.6801 0
    endloop
  endfacet
  facet normal 0 1 -0
    outer loop
      vertex 6.08679 5.13734 5
      vertex -6.08679 5.13734 9.5
      vertex 6.08679 5.13734 9.5
    endloop
  endfacet
  facet normal 0 1 0
    outer loop
      vertex -6.08679 5.13734 9.5
      vertex 6.08679 5.13734 5
      vertex -6.08679 5.13734 5
    endloop
  endfacet
  facet normal 0 0 1
    outer loop
      vertex 6.08679 5.13734 9.5
      vertex -6.08679 5.13734 9.5
      vertex 0 -5.13734 9.5
    endloop
  endfacet
  facet normal -0.860362 -0.509684 0
    outer loop
      vertex 0 -5.13734 5
      vertex -6.08679 5.13734 9.5
      vertex -6.08679 5.13734 5
    endloop
  endfacet
  facet normal -0.860362 -0.509684 0
    outer loop
      vertex -6.08679 5.13734 9.5
      vertex 0 -5.13734 5
      vertex 0 -5.13734 9.5
    endloop
  endfacet
  facet normal 0.860362 -0.509684 0
    outer loop
      vertex 0 -5.13734 9.5
      vertex 6.08679 5.13734 5
      vertex 6.08679 5.13734 9.5
    endloop
  endfacet
  facet normal 0.860362 -0.509684 0
    outer loop
      vertex 6.08679 5.13734 5
      vertex 0 -5.13734 9.5
      vertex 0 -5.13734 5
    endloop
  endfacet
endsolid OpenSCAD_Model
