solid OpenSCAD_Model
  facet normal 0.93969 0 -0.342028
    outer loop
      vertex 13.5 13.5 5
      vertex 11.6801 -11.6801 0
      vertex 11.6801 11.6801 0
    endloop
  endfacet
  facet normal -0.93969 0 -0.342028
    outer loop
      vertex -11.6801 -11.6801 0
      vertex -13.5 -13.5 5
      vertex -13.5 13.5 5
    endloop
  endfacet
  facet normal 0 0 1
    outer loop
      vertex 13.5 13.5 5
      vertex 4.756 6.31999 5
      vertex 13.5 -13.5 5
    endloop
  endfacet
  facet normal 0 0 1
    outer loop
      vertex 13.5 13.5 5
      vertex -4.756 6.31999 5
      vertex 4.756 6.31999 5
    endloop
  endfacet
  facet normal 0 0 1
    outer loop
      vertex -4.756 6.31999 5
      vertex -13.5 13.5 5
      vertex -4.756 -6.31999 5
    endloop
  endfacet
  facet normal -0 0 1
    outer loop
      vertex -13.5 13.5 5
      vertex -4.756 6.31999 5
      vertex 13.5 13.5 5
    endloop
  endfacet
  facet normal -0 0 1
    outer loop
      vertex 4.756 -6.31999 5
      vertex 13.5 -13.5 5
      vertex 4.756 6.31999 5
    endloop
  endfacet
  facet normal -0 0 1
    outer loop
      vertex -4.756 -6.31999 5
      vertex 13.5 -13.5 5
      vertex 4.756 -6.31999 5
    endloop
  endfacet
  facet normal 0 0 1
    outer loop
      vertex -4.756 -6.31999 5
      vertex -13.5 -13.5 5
      vertex 13.5 -13.5 5
    endloop
  endfacet
  facet normal 0 0 1
    outer loop
      vertex -13.5 -13.5 5
      vertex -4.756 -6.31999 5
      vertex -13.5 13.5 5
    endloop
  endfacet
  facet normal 0.93969 0 -0.342028
    outer loop
      vertex 13.5 -13.5 5
      vertex 11.6801 -11.6801 0
      vertex 13.5 13.5 5
    endloop
  endfacet
  facet normal -0.93969 0 -0.342028
    outer loop
      vertex -11.6801 -11.6801 0
      vertex -13.5 13.5 5
      vertex -11.6801 11.6801 0
    endloop
  endfacet
  facet normal 0 -0.93969 -0.342028
    outer loop
      vertex -11.6801 -11.6801 0
      vertex 13.5 -13.5 5
      vertex -13.5 -13.5 5
    endloop
  endfacet
  facet normal 0 -0.93969 -0.342028
    outer loop
      vertex 13.5 -13.5 5
      vertex -11.6801 -11.6801 0
      vertex 11.6801 -11.6801 0
    endloop
  endfacet
  facet normal 0 0 -1
    outer loop
      vertex -11.6801 -11.6801 0
      vertex 11.6801 11.6801 0
      vertex 11.6801 -11.6801 0
    endloop
  endfacet
  facet normal -0 0 -1
    outer loop
      vertex 11.6801 11.6801 0
      vertex -11.6801 -11.6801 0
      vertex -11.6801 11.6801 0
    endloop
  endfacet
  facet normal 0 0.93969 -0.342028
    outer loop
      vertex 11.6801 11.6801 0
      vertex -13.5 13.5 5
      vertex 13.5 13.5 5
    endloop
  endfacet
  facet normal 0 0.93969 -0.342028
    outer loop
      vertex -13.5 13.5 5
      vertex 11.6801 11.6801 0
      vertex -11.6801 11.6801 0
    endloop
  endfacet
  facet normal 1 -0 0
    outer loop
      vertex 4.756 -6.31999 9.5
      vertex 4.756 6.31999 5
      vertex 4.756 6.31999 9.5
    endloop
  endfacet
  facet normal 1 0 0
    outer loop
      vertex 4.756 6.31999 5
      vertex 4.756 -6.31999 9.5
      vertex 4.756 -6.31999 5
    endloop
  endfacet
  facet normal 0 -1 0
    outer loop
      vertex -4.756 -6.31999 5
      vertex 4.756 -6.31999 9.5
      vertex -4.756 -6.31999 9.5
    endloop
  endfacet
  facet normal 0 -1 -0
    outer loop
      vertex 4.756 -6.31999 9.5
      vertex -4.756 -6.31999 5
      vertex 4.756 -6.31999 5
    endloop
  endfacet
  facet normal -0 0 1
    outer loop
      vertex -4.756 6.31999 9.5
      vertex 4.756 -6.31999 9.5
      vertex 4.756 6.31999 9.5
    endloop
  endfacet
  facet normal 0 0 1
    outer loop
      vertex 4.756 -6.31999 9.5
      vertex -4.756 6.31999 9.5
      vertex -4.756 -6.31999 9.5
    endloop
  endfacet
  facet normal -1 0 0
    outer loop
      vertex -4.756 -6.31999 5
      vertex -4.756 6.31999 9.5
      vertex -4.756 6.31999 5
    endloop
  endfacet
  facet normal -1 -0 0
    outer loop
      vertex -4.756 6.31999 9.5
      vertex -4.756 -6.31999 5
      vertex -4.756 -6.31999 9.5
    endloop
  endfacet
  facet normal 0 1 -0
    outer loop
      vertex 4.756 6.31999 5
      vertex -4.756 6.31999 9.5
      vertex 4.756 6.31999 9.5
    endloop
  endfacet
  facet normal 0 1 0
    outer loop
      vertex -4.756 6.31999 9.5
      vertex 4.756 6.31999 5
      vertex -4.756 6.31999 5
    endloop
  endfacet
endsolid OpenSCAD_Model
