solid OpenSCAD_Model
  facet normal 0 0.866025 0.500001
    outer loop
      vertex 3.46155 4.76442 21.7478
      vertex -3.46155 4.76442 21.7478
      vertex 0 1.68854e-07 30
    endloop
  endfacet
  facet normal -1.22488e-06 0.866026 0.499999
    outer loop
      vertex 1.89486 8.95886 14.4828
      vertex 3.46155 4.76442 21.7478
      vertex 5.62777 7.74597 16.5836
    endloop
  endfacet
  facet normal 0 0.866026 0.499999
    outer loop
      vertex 3.46155 4.76442 21.7478
      vertex 1.89486 8.95886 14.4828
      vertex -3.46155 4.76442 21.7478
    endloop
  endfacet
  facet normal -0 0.866026 0.499999
    outer loop
      vertex -1.89486 8.95886 14.4828
      vertex -3.46155 4.76442 21.7478
      vertex 1.89486 8.95886 14.4828
    endloop
  endfacet
  facet normal 1.22488e-06 0.866026 0.499999
    outer loop
      vertex -3.46155 4.76442 21.7478
      vertex -1.89486 8.95886 14.4828
      vertex -5.62777 7.74597 16.5836
    endloop
  endfacet
  facet normal -0 0.866028 0.499996
    outer loop
      vertex -1.89486 8.95886 14.4828
      vertex 1.89486 8.95886 14.4828
      vertex 0 9.57454 13.4164
    endloop
  endfacet
  facet normal 0 -0.866028 -0.499996
    outer loop
      vertex -1.89486 -8.95886 15.5172
      vertex 1.89486 -8.95886 15.5172
      vertex 0 -9.57454 16.5836
    endloop
  endfacet
  facet normal 1.6657e-06 -0.866025 -0.5
    outer loop
      vertex -3.46155 -4.76442 8.25221
      vertex -1.89486 -8.95886 15.5172
      vertex -5.62777 -7.74597 13.4164
    endloop
  endfacet
  facet normal 0 -0.866026 -0.5
    outer loop
      vertex -1.89486 -8.95886 15.5172
      vertex -3.46155 -4.76442 8.25221
      vertex 1.89486 -8.95886 15.5172
    endloop
  endfacet
  facet normal -0 -0.866026 -0.5
    outer loop
      vertex 3.46155 -4.76442 8.25221
      vertex 1.89486 -8.95886 15.5172
      vertex -3.46155 -4.76442 8.25221
    endloop
  endfacet
  facet normal -1.6657e-06 -0.866025 -0.5
    outer loop
      vertex 1.89486 -8.95886 15.5172
      vertex 3.46155 -4.76442 8.25221
      vertex 5.62777 -7.74597 13.4164
    endloop
  endfacet
  facet normal -0 -0.866025 -0.5
    outer loop
      vertex 3.46155 -4.76442 8.25221
      vertex -3.46155 -4.76442 8.25221
      vertex 0 -1.68854e-07 9.10188e-07
    endloop
  endfacet
  facet normal -0.82364 0.267618 0.499998
    outer loop
      vertex -9.10593 0.966318 14.4828
      vertex -5.62777 7.74597 16.5836
      vertex -9.10593 2.9587 13.4164
    endloop
  endfacet
  facet normal -0.823639 0.267617 0.499999
    outer loop
      vertex -5.62777 7.74597 16.5836
      vertex -9.10593 0.966318 14.4828
      vertex -3.46155 4.76442 21.7478
    endloop
  endfacet
  facet normal -0.823639 0.267614 0.500001
    outer loop
      vertex -3.46155 4.76442 21.7478
      vertex -9.10593 0.966318 14.4828
      vertex -9.10593 -0.966318 15.5172
    endloop
  endfacet
  facet normal -0.823639 0.267617 0.500001
    outer loop
      vertex -5.60091 -1.81984 21.7478
      vertex 0 1.68854e-07 30
      vertex -3.46155 4.76442 21.7478
    endloop
  endfacet
  facet normal -0.82364 0.267617 0.499999
    outer loop
      vertex -5.60091 -1.81984 21.7478
      vertex -3.46155 4.76442 21.7478
      vertex -9.10593 -0.966318 15.5172
    endloop
  endfacet
  facet normal -0.82742 0 0.561584
    outer loop
      vertex 0 1.68854e-07 30
      vertex -5.60091 -1.81984 21.7478
      vertex 0 -1.95976e-08 30
    endloop
  endfacet
  facet normal -0.823639 0.267619 0.499999
    outer loop
      vertex -5.60091 -1.81984 21.7478
      vertex -9.10593 -0.966318 15.5172
      vertex -9.10593 -2.9587 16.5836
    endloop
  endfacet
  facet normal 0.82364 -0.267618 -0.499998
    outer loop
      vertex 5.62777 -7.74597 13.4164
      vertex 9.10593 -0.966318 15.5172
      vertex 9.10593 -2.9587 16.5836
    endloop
  endfacet
  facet normal 0.823639 -0.267614 -0.500001
    outer loop
      vertex 9.10593 -0.966318 15.5172
      vertex 3.46155 -4.76442 8.25221
      vertex 9.10593 0.966318 14.4828
    endloop
  endfacet
  facet normal 0.823639 -0.267617 -0.5
    outer loop
      vertex 9.10593 -0.966318 15.5172
      vertex 5.62777 -7.74597 13.4164
      vertex 3.46155 -4.76442 8.25221
    endloop
  endfacet
  facet normal 0.823639 -0.267619 -0.499999
    outer loop
      vertex 9.10593 0.966318 14.4828
      vertex 5.60091 1.81984 8.25221
      vertex 9.10593 2.9587 13.4164
    endloop
  endfacet
  facet normal 0.823639 -0.267617 -0.499999
    outer loop
      vertex 3.46155 -4.76442 8.25221
      vertex 5.60091 1.81984 8.25221
      vertex 9.10593 0.966318 14.4828
    endloop
  endfacet
  facet normal 0.823639 -0.267618 -0.5
    outer loop
      vertex 5.60091 1.81984 8.25221
      vertex 0 -1.68854e-07 9.10188e-07
      vertex 0 1.95976e-08 8.09322e-07
    endloop
  endfacet
  facet normal 0.823639 -0.267617 -0.5
    outer loop
      vertex 5.60091 1.81984 8.25221
      vertex 3.46155 -4.76442 8.25221
      vertex 0 -1.68854e-07 9.10188e-07
    endloop
  endfacet
  facet normal -0.509036 -0.70063 0.5
    outer loop
      vertex -9.10593 -2.9587 16.5836
      vertex -1.89486 -8.95886 15.5172
      vertex -5.60091 -1.81984 21.7478
    endloop
  endfacet
  facet normal -0.509036 -0.70063 0.499999
    outer loop
      vertex -1.89486 -8.95886 15.5172
      vertex -9.10593 -2.9587 16.5836
      vertex -5.62777 -7.74597 13.4164
    endloop
  endfacet
  facet normal -0.509037 -0.700629 0.5
    outer loop
      vertex -5.60091 -1.81984 21.7478
      vertex 0 -9.57454 16.5836
      vertex 0 -1.95976e-08 30
    endloop
  endfacet
  facet normal -0.50904 -0.700629 0.499997
    outer loop
      vertex 0 -9.57454 16.5836
      vertex -5.60091 -1.81984 21.7478
      vertex -1.89486 -8.95886 15.5172
    endloop
  endfacet
  facet normal 0.509036 0.70063 -0.499999
    outer loop
      vertex 9.10593 2.9587 13.4164
      vertex 1.89486 8.95886 14.4828
      vertex 5.62777 7.74597 16.5836
    endloop
  endfacet
  facet normal 0.509035 0.70063 -0.500001
    outer loop
      vertex 1.89486 8.95886 14.4828
      vertex 9.10593 2.9587 13.4164
      vertex 5.60091 1.81984 8.25221
    endloop
  endfacet
  facet normal 0.50904 0.700629 -0.499997
    outer loop
      vertex 5.60091 1.81984 8.25221
      vertex 0 9.57454 13.4164
      vertex 1.89486 8.95886 14.4828
    endloop
  endfacet
  facet normal 0.509037 0.700629 -0.5
    outer loop
      vertex 0 9.57454 13.4164
      vertex 5.60091 1.81984 8.25221
      vertex 0 1.95976e-08 8.09322e-07
    endloop
  endfacet
  facet normal 0.509036 -0.70063 0.5
    outer loop
      vertex 1.89486 -8.95886 15.5172
      vertex 9.10593 -2.9587 16.5836
      vertex 5.60091 -1.81984 21.7478
    endloop
  endfacet
  facet normal 0.509036 -0.70063 0.499999
    outer loop
      vertex 9.10593 -2.9587 16.5836
      vertex 1.89486 -8.95886 15.5172
      vertex 5.62777 -7.74597 13.4164
    endloop
  endfacet
  facet normal 0.509037 -0.700629 0.5
    outer loop
      vertex 0 -9.57454 16.5836
      vertex 5.60091 -1.81984 21.7478
      vertex 0 -1.95976e-08 30
    endloop
  endfacet
  facet normal 0.50904 -0.700629 0.499997
    outer loop
      vertex 5.60091 -1.81984 21.7478
      vertex 0 -9.57454 16.5836
      vertex 1.89486 -8.95886 15.5172
    endloop
  endfacet
  facet normal -0.50904 0.700629 -0.499997
    outer loop
      vertex 0 9.57454 13.4164
      vertex -5.60091 1.81984 8.25221
      vertex -1.89486 8.95886 14.4828
    endloop
  endfacet
  facet normal -0.509037 0.700629 -0.5
    outer loop
      vertex -5.60091 1.81984 8.25221
      vertex 0 9.57454 13.4164
      vertex 0 1.95976e-08 8.09322e-07
    endloop
  endfacet
  facet normal -0.509036 0.70063 -0.499999
    outer loop
      vertex -1.89486 8.95886 14.4828
      vertex -9.10593 2.9587 13.4164
      vertex -5.62777 7.74597 16.5836
    endloop
  endfacet
  facet normal -0.509035 0.70063 -0.500001
    outer loop
      vertex -9.10593 2.9587 13.4164
      vertex -1.89486 8.95886 14.4828
      vertex -5.60091 1.81984 8.25221
    endloop
  endfacet
  facet normal 0.823639 0.267617 0.499999
    outer loop
      vertex 9.10593 0.966318 14.4828
      vertex 5.62777 7.74597 16.5836
      vertex 3.46155 4.76442 21.7478
    endloop
  endfacet
  facet normal 0.82364 0.267618 0.499998
    outer loop
      vertex 5.62777 7.74597 16.5836
      vertex 9.10593 0.966318 14.4828
      vertex 9.10593 2.9587 13.4164
    endloop
  endfacet
  facet normal 0.823639 0.267614 0.500001
    outer loop
      vertex 9.10593 0.966318 14.4828
      vertex 3.46155 4.76442 21.7478
      vertex 9.10593 -0.966318 15.5172
    endloop
  endfacet
  facet normal 0.82742 0 0.561584
    outer loop
      vertex 5.60091 -1.81984 21.7478
      vertex 0 1.68854e-07 30
      vertex 0 -1.95976e-08 30
    endloop
  endfacet
  facet normal 0.823639 0.267617 0.500001
    outer loop
      vertex 0 1.68854e-07 30
      vertex 5.60091 -1.81984 21.7478
      vertex 3.46155 4.76442 21.7478
    endloop
  endfacet
  facet normal 0.82364 0.267617 0.499999
    outer loop
      vertex 3.46155 4.76442 21.7478
      vertex 5.60091 -1.81984 21.7478
      vertex 9.10593 -0.966318 15.5172
    endloop
  endfacet
  facet normal 0.823639 0.267619 0.499999
    outer loop
      vertex 9.10593 -0.966318 15.5172
      vertex 5.60091 -1.81984 21.7478
      vertex 9.10593 -2.9587 16.5836
    endloop
  endfacet
  facet normal -0.823639 -0.267619 -0.499999
    outer loop
      vertex -5.60091 1.81984 8.25221
      vertex -9.10593 0.966318 14.4828
      vertex -9.10593 2.9587 13.4164
    endloop
  endfacet
  facet normal -0.823639 -0.267618 -0.5
    outer loop
      vertex 0 -1.68854e-07 9.10188e-07
      vertex -5.60091 1.81984 8.25221
      vertex 0 1.95976e-08 8.09322e-07
    endloop
  endfacet
  facet normal -0.823639 -0.267617 -0.5
    outer loop
      vertex -3.46155 -4.76442 8.25221
      vertex -5.60091 1.81984 8.25221
      vertex 0 -1.68854e-07 9.10188e-07
    endloop
  endfacet
  facet normal -0.823639 -0.267617 -0.499999
    outer loop
      vertex -5.60091 1.81984 8.25221
      vertex -3.46155 -4.76442 8.25221
      vertex -9.10593 0.966318 14.4828
    endloop
  endfacet
  facet normal -0.823639 -0.267614 -0.500001
    outer loop
      vertex -3.46155 -4.76442 8.25221
      vertex -9.10593 -0.966318 15.5172
      vertex -9.10593 0.966318 14.4828
    endloop
  endfacet
  facet normal -0.823639 -0.267617 -0.5
    outer loop
      vertex -5.62777 -7.74597 13.4164
      vertex -9.10593 -0.966318 15.5172
      vertex -3.46155 -4.76442 8.25221
    endloop
  endfacet
  facet normal -0.82364 -0.267618 -0.499998
    outer loop
      vertex -9.10593 -0.966318 15.5172
      vertex -5.62777 -7.74597 13.4164
      vertex -9.10593 -2.9587 16.5836
    endloop
  endfacet
endsolid OpenSCAD_Model
