solid OpenSCAD_Model
  facet normal 0 0.982245 -0.1876
    outer loop
      vertex 4.4497 9.7459 14.0854
      vertex -4.07369 9.963 15.2221
      vertex 4.07369 9.963 15.2221
    endloop
  endfacet
  facet normal 0 0.982245 -0.1876
    outer loop
      vertex 4.4497 9.7459 14.0854
      vertex -4.4497 9.7459 14.0854
      vertex -4.07369 9.963 15.2221
    endloop
  endfacet
  facet normal 5.07371e-07 0.982247 -0.187595
    outer loop
      vertex 0 7.61102 2.90714
      vertex 4.4497 9.7459 14.0854
      vertex 6.59135 8.50939 7.61103
    endloop
  endfacet
  facet normal 0 0.982247 -0.187594
    outer loop
      vertex 4.4497 9.7459 14.0854
      vertex 0 7.61102 2.90714
      vertex -4.4497 9.7459 14.0854
    endloop
  endfacet
  facet normal -5.07371e-07 0.982247 -0.187595
    outer loop
      vertex -4.4497 9.7459 14.0854
      vertex 0 7.61102 2.90714
      vertex -6.59135 8.50939 7.61103
    endloop
  endfacet
  facet normal -1.40678e-06 -0.982246 0.187595
    outer loop
      vertex -4.4497 -9.7459 8.74777
      vertex 0 -7.61102 19.926
      vertex -6.59135 -8.50939 15.2221
    endloop
  endfacet
  facet normal 0 -0.982246 0.187595
    outer loop
      vertex 4.4497 -9.7459 8.74777
      vertex 0 -7.61102 19.926
      vertex -4.4497 -9.7459 8.74777
    endloop
  endfacet
  facet normal 1.40678e-06 -0.982246 0.187595
    outer loop
      vertex 0 -7.61102 19.926
      vertex 4.4497 -9.7459 8.74777
      vertex 6.59135 -8.50939 15.2221
    endloop
  endfacet
  facet normal 0 -0.982245 0.1876
    outer loop
      vertex -4.07369 -9.963 7.61107
      vertex 4.4497 -9.7459 8.74777
      vertex -4.4497 -9.7459 8.74777
    endloop
  endfacet
  facet normal 0 -0.982245 0.1876
    outer loop
      vertex 4.4497 -9.7459 8.74777
      vertex -4.07369 -9.963 7.61107
      vertex 4.07369 -9.963 7.61107
    endloop
  endfacet
  facet normal -0.850653 0.491121 0.187588
    outer loop
      vertex -10.665 0.316872 10.587
      vertex -6.59135 8.50939 7.61103
      vertex -10.665 1.45357 7.61103
    endloop
  endfacet
  facet normal -0.850653 0.491121 0.187589
    outer loop
      vertex -6.59135 8.50939 7.61103
      vertex -10.665 0.316872 10.587
      vertex -4.4497 9.7459 14.0854
    endloop
  endfacet
  facet normal -0.850653 0.491122 0.187588
    outer loop
      vertex -4.4497 9.7459 14.0854
      vertex -10.665 0.316872 10.587
      vertex -10.665 -0.316872 12.2462
    endloop
  endfacet
  facet normal -0.850653 0.491121 0.187588
    outer loop
      vertex -4.4497 9.7459 14.0854
      vertex -6.59136 3.80554 19.926
      vertex -4.07369 9.963 15.2221
    endloop
  endfacet
  facet normal -0.850653 0.491122 0.187589
    outer loop
      vertex -10.665 -0.316872 12.2462
      vertex -6.59136 3.80554 19.926
      vertex -4.4497 9.7459 14.0854
    endloop
  endfacet
  facet normal -0.850654 0.491119 0.187591
    outer loop
      vertex -6.59136 3.80554 19.926
      vertex -10.665 -0.316872 12.2462
      vertex -10.665 -1.45357 15.2221
    endloop
  endfacet
  facet normal 0.850652 -0.491121 -0.187592
    outer loop
      vertex 6.59135 -8.50939 15.2221
      vertex 10.665 -0.316872 12.2462
      vertex 10.665 -1.45357 15.2221
    endloop
  endfacet
  facet normal 0.850653 -0.491121 -0.187591
    outer loop
      vertex 4.4497 -9.7459 8.74777
      vertex 10.665 -0.316872 12.2462
      vertex 6.59135 -8.50939 15.2221
    endloop
  endfacet
  facet normal 0.850653 -0.491122 -0.187588
    outer loop
      vertex 10.665 -0.316872 12.2462
      vertex 4.4497 -9.7459 8.74777
      vertex 10.665 0.316872 10.587
    endloop
  endfacet
  facet normal 0.850653 -0.491122 -0.187588
    outer loop
      vertex 10.665 0.316872 10.587
      vertex 6.59136 -3.80554 2.90717
      vertex 10.665 1.45357 7.61103
    endloop
  endfacet
  facet normal 0.850653 -0.491122 -0.187589
    outer loop
      vertex 4.4497 -9.7459 8.74777
      vertex 6.59136 -3.80554 2.90717
      vertex 10.665 0.316872 10.587
    endloop
  endfacet
  facet normal 0.850653 -0.491121 -0.187588
    outer loop
      vertex 6.59136 -3.80554 2.90717
      vertex 4.4497 -9.7459 8.74777
      vertex 4.07369 -9.963 7.61107
    endloop
  endfacet
  facet normal -0.525734 -0.303525 0.794655
    outer loop
      vertex 0 2.0273e-05 22.8331
      vertex -6.59135 -8.50939 15.2221
      vertex 0 -7.61102 19.926
    endloop
  endfacet
  facet normal -0.525728 -0.303539 0.794654
    outer loop
      vertex -10.665 -1.45357 15.2221
      vertex 0 2.0273e-05 22.8331
      vertex -6.59136 3.80554 19.926
    endloop
  endfacet
  facet normal -0.525731 -0.303529 0.794656
    outer loop
      vertex 0 2.0273e-05 22.8331
      vertex -10.665 -1.45357 15.2221
      vertex -6.59135 -8.50939 15.2221
    endloop
  endfacet
  facet normal 0.525732 0.30353 -0.794654
    outer loop
      vertex 1.15659e-05 -2.69506e-05 0
      vertex 10.665 1.45357 7.61103
      vertex 6.59136 -3.80554 2.90717
    endloop
  endfacet
  facet normal 0.525732 0.303529 -0.794654
    outer loop
      vertex 10.665 1.45357 7.61103
      vertex 1.15659e-05 -2.69506e-05 0
      vertex 6.59135 8.50939 7.61103
    endloop
  endfacet
  facet normal 0.525732 0.30353 -0.794654
    outer loop
      vertex 0 -6.91774e-06 0
      vertex 6.59135 8.50939 7.61103
      vertex 1.15659e-05 -2.69506e-05 0
    endloop
  endfacet
  facet normal 0.525732 0.30353 -0.794654
    outer loop
      vertex 6.59135 8.50939 7.61103
      vertex 0 -6.91774e-06 0
      vertex 0 7.61102 2.90714
    endloop
  endfacet
  facet normal 0.525728 -0.303539 0.794654
    outer loop
      vertex 0 2.0273e-05 22.8331
      vertex 10.665 -1.45357 15.2221
      vertex 6.59136 3.80554 19.926
    endloop
  endfacet
  facet normal 0.525731 -0.303529 0.794656
    outer loop
      vertex 10.665 -1.45357 15.2221
      vertex 0 2.0273e-05 22.8331
      vertex 6.59135 -8.50939 15.2221
    endloop
  endfacet
  facet normal 0.525734 -0.303525 0.794655
    outer loop
      vertex 6.59135 -8.50939 15.2221
      vertex 0 2.0273e-05 22.8331
      vertex 0 -7.61102 19.926
    endloop
  endfacet
  facet normal -0.525732 0.30353 -0.794654
    outer loop
      vertex -6.59135 8.50939 7.61103
      vertex 0 -6.91774e-06 0
      vertex -1.15659e-05 -2.69506e-05 0
    endloop
  endfacet
  facet normal -0.525732 0.30353 -0.794654
    outer loop
      vertex 0 -6.91774e-06 0
      vertex -6.59135 8.50939 7.61103
      vertex 0 7.61102 2.90714
    endloop
  endfacet
  facet normal -0.525732 0.30353 -0.794654
    outer loop
      vertex -10.665 1.45357 7.61103
      vertex -1.15659e-05 -2.69506e-05 0
      vertex -6.59136 -3.80554 2.90717
    endloop
  endfacet
  facet normal -0.525732 0.303529 -0.794654
    outer loop
      vertex -1.15659e-05 -2.69506e-05 0
      vertex -10.665 1.45357 7.61103
      vertex -6.59135 8.50939 7.61103
    endloop
  endfacet
  facet normal 0.850653 0.491121 0.187589
    outer loop
      vertex 10.665 0.316872 10.587
      vertex 6.59135 8.50939 7.61103
      vertex 4.4497 9.7459 14.0854
    endloop
  endfacet
  facet normal 0.850653 0.491121 0.187588
    outer loop
      vertex 6.59135 8.50939 7.61103
      vertex 10.665 0.316872 10.587
      vertex 10.665 1.45357 7.61103
    endloop
  endfacet
  facet normal 0.850653 0.491122 0.187588
    outer loop
      vertex 10.665 0.316872 10.587
      vertex 4.4497 9.7459 14.0854
      vertex 10.665 -0.316872 12.2462
    endloop
  endfacet
  facet normal 0.850653 0.491121 0.187588
    outer loop
      vertex 6.59136 3.80554 19.926
      vertex 4.4497 9.7459 14.0854
      vertex 4.07369 9.963 15.2221
    endloop
  endfacet
  facet normal 0.850653 0.491122 0.187589
    outer loop
      vertex 6.59136 3.80554 19.926
      vertex 10.665 -0.316872 12.2462
      vertex 4.4497 9.7459 14.0854
    endloop
  endfacet
  facet normal 0.850654 0.491119 0.187591
    outer loop
      vertex 10.665 -0.316872 12.2462
      vertex 6.59136 3.80554 19.926
      vertex 10.665 -1.45357 15.2221
    endloop
  endfacet
  facet normal -0.850653 -0.491122 -0.187588
    outer loop
      vertex -6.59136 -3.80554 2.90717
      vertex -10.665 0.316872 10.587
      vertex -10.665 1.45357 7.61103
    endloop
  endfacet
  facet normal -0.850653 -0.491122 -0.187589
    outer loop
      vertex -6.59136 -3.80554 2.90717
      vertex -4.4497 -9.7459 8.74777
      vertex -10.665 0.316872 10.587
    endloop
  endfacet
  facet normal -0.850653 -0.491121 -0.187588
    outer loop
      vertex -4.4497 -9.7459 8.74777
      vertex -6.59136 -3.80554 2.90717
      vertex -4.07369 -9.963 7.61107
    endloop
  endfacet
  facet normal -0.850653 -0.491122 -0.187588
    outer loop
      vertex -4.4497 -9.7459 8.74777
      vertex -10.665 -0.316872 12.2462
      vertex -10.665 0.316872 10.587
    endloop
  endfacet
  facet normal -0.850652 -0.491121 -0.187592
    outer loop
      vertex -10.665 -0.316872 12.2462
      vertex -6.59135 -8.50939 15.2221
      vertex -10.665 -1.45357 15.2221
    endloop
  endfacet
  facet normal -0.850653 -0.491121 -0.187591
    outer loop
      vertex -10.665 -0.316872 12.2462
      vertex -4.4497 -9.7459 8.74777
      vertex -6.59135 -8.50939 15.2221
    endloop
  endfacet
  facet normal 4.77662e-07 -0.607064 -0.794653
    outer loop
      vertex 4.07369 -9.963 7.61107
      vertex 1.15659e-05 -2.69506e-05 0
      vertex 6.59136 -3.80554 2.90717
    endloop
  endfacet
  facet normal 0 -0.607064 -0.794653
    outer loop
      vertex 4.07369 -9.963 7.61107
      vertex -1.15659e-05 -2.69506e-05 0
      vertex 1.15659e-05 -2.69506e-05 0
    endloop
  endfacet
  facet normal 0 -0.607064 -0.794653
    outer loop
      vertex -4.07369 -9.963 7.61107
      vertex -1.15659e-05 -2.69506e-05 0
      vertex 4.07369 -9.963 7.61107
    endloop
  endfacet
  facet normal -4.77662e-07 -0.607064 -0.794653
    outer loop
      vertex -1.15659e-05 -2.69506e-05 0
      vertex -4.07369 -9.963 7.61107
      vertex -6.59136 -3.80554 2.90717
    endloop
  endfacet
  facet normal -6.84735e-06 0.607062 0.794655
    outer loop
      vertex 4.07369 9.963 15.2221
      vertex 0 2.0273e-05 22.8331
      vertex 6.59136 3.80554 19.926
    endloop
  endfacet
  facet normal -0 0.60706 0.794656
    outer loop
      vertex -4.07369 9.963 15.2221
      vertex 0 2.0273e-05 22.8331
      vertex 4.07369 9.963 15.2221
    endloop
  endfacet
  facet normal 6.84735e-06 0.607062 0.794655
    outer loop
      vertex 0 2.0273e-05 22.8331
      vertex -4.07369 9.963 15.2221
      vertex -6.59136 3.80554 19.926
    endloop
  endfacet
  facet normal 0 0 -1
    outer loop
      vertex 1.15659e-05 -2.69506e-05 0
      vertex -1.15659e-05 -2.69506e-05 0
      vertex 0 -6.91774e-06 0
    endloop
  endfacet
endsolid OpenSCAD_Model
