solid OpenSCAD_Model
  facet normal 0 0.816498 -0.577349
    outer loop
      vertex 2.5065e-05 4.98472e-05 0
      vertex -9.28631 9.28631 13.1328
      vertex 9.28631 9.28631 13.1328
    endloop
  endfacet
  facet normal 0 0.816498 -0.577349
    outer loop
      vertex -9.28631 9.28631 13.1328
      vertex 2.5065e-05 4.98472e-05 0
      vertex -2.5065e-05 4.98472e-05 0
    endloop
  endfacet
  facet normal 0 -0.816497 0.57735
    outer loop
      vertex -9.28631 -9.28631 13.1328
      vertex 6.12651e-07 -2.53949e-05 26.2656
      vertex -6.12651e-07 -2.53949e-05 26.2656
    endloop
  endfacet
  facet normal 0 -0.816497 0.57735
    outer loop
      vertex 6.12651e-07 -2.53949e-05 26.2656
      vertex -9.28631 -9.28631 13.1328
      vertex 9.28631 -9.28631 13.1328
    endloop
  endfacet
  facet normal -0.816496 0 0.577351
    outer loop
      vertex -9.28631 9.28631 13.1328
      vertex -9.28631 -9.28631 13.1328
      vertex -6.12651e-07 -2.53949e-05 26.2656
    endloop
  endfacet
  facet normal 0.816496 1.66957e-06 -0.577351
    outer loop
      vertex 9.28631 9.28631 13.1328
      vertex 2.50651e-05 9.42442e-07 0
      vertex 2.5065e-05 4.98472e-05 0
    endloop
  endfacet
  facet normal 0.816497 0 -0.57735
    outer loop
      vertex 2.50651e-05 9.42442e-07 0
      vertex 9.28631 9.28631 13.1328
      vertex 9.28631 -9.28631 13.1328
    endloop
  endfacet
  facet normal 0.816496 0 0.577351
    outer loop
      vertex 9.28631 9.28631 13.1328
      vertex 6.12651e-07 -2.53949e-05 26.2656
      vertex 9.28631 -9.28631 13.1328
    endloop
  endfacet
  facet normal -0.816496 1.66956e-06 -0.577351
    outer loop
      vertex -2.50651e-05 9.42442e-07 0
      vertex -9.28631 9.28631 13.1328
      vertex -2.5065e-05 4.98472e-05 0
    endloop
  endfacet
  facet normal -0.816497 -0 -0.57735
    outer loop
      vertex -9.28631 9.28631 13.1328
      vertex -2.50651e-05 9.42442e-07 0
      vertex -9.28631 -9.28631 13.1328
    endloop
  endfacet
  facet normal 0 -0.816496 -0.577351
    outer loop
      vertex -2.50651e-05 9.42442e-07 0
      vertex 9.28631 -9.28631 13.1328
      vertex -9.28631 -9.28631 13.1328
    endloop
  endfacet
  facet normal 0 -0.816496 -0.577351
    outer loop
      vertex 9.28631 -9.28631 13.1328
      vertex -2.50651e-05 9.42442e-07 0
      vertex 2.50651e-05 9.42442e-07 0
    endloop
  endfacet
  facet normal 0 0.816495 0.577352
    outer loop
      vertex 9.28631 9.28631 13.1328
      vertex -6.12651e-07 -2.53949e-05 26.2656
      vertex 6.12651e-07 -2.53949e-05 26.2656
    endloop
  endfacet
  facet normal 0 0.816495 0.577352
    outer loop
      vertex -6.12651e-07 -2.53949e-05 26.2656
      vertex 9.28631 9.28631 13.1328
      vertex -9.28631 9.28631 13.1328
    endloop
  endfacet
  facet normal 0 0 -1
    outer loop
      vertex 2.50651e-05 9.42442e-07 0
      vertex -2.5065e-05 4.98472e-05 0
      vertex 2.5065e-05 4.98472e-05 0
    endloop
  endfacet
  facet normal 0 -0 -1
    outer loop
      vertex -2.5065e-05 4.98472e-05 0
      vertex 2.50651e-05 9.42442e-07 0
      vertex -2.50651e-05 9.42442e-07 0
    endloop
  endfacet
endsolid OpenSCAD_Model
