<?xml version="1.0" encoding="UTF-8"?>
<svg id="Layer_2" data-name="Layer 2" xmlns="http://www.w3.org/2000/svg" viewBox="0 0 4.94 12.43">
  <defs>
    <style>
      .cls-1 {
        fill: #231f20;
        stroke-width: 0px;
      }
    </style>
  </defs>
  <g id="Layer_1-2" data-name="Layer 1">
    <path class="cls-1" d="M4.92,11.74c0-.07.03-.14.02-.23,0-.37-.45-.62-.91-.67-.37,0-.49-.37-.48-.68-.01-2.67,0-5.34-.01-8.01.18-.54.53-.87.57-1.39.04-.66-.6-.95-1.12-.64C2.06.66.97,1.32.19,2.04c-.52.62.14,1.5.87,1.2.24-.11.58-.18.62-.07v7.34c-.02.18-.31.3-.52.33-.45.05-.9.3-.91.67-.07,1.35,1.41.81,2.3.85.05,0,.11,0,.18.01.05,0,.1,0,.16,0,.16.01.33.03.51.04.56.05,1.12.08,1.39-.26.05-.06.09-.12.12-.2,0-.01,0-.03,0-.04.01-.05.02-.1.02-.16Z"/>
  </g>
</svg>