<?xml version="1.0" encoding="UTF-8"?>
<svg id="Layer_2" data-name="Layer 2" xmlns="http://www.w3.org/2000/svg" viewBox="0 0 9.12 12.5">
  <defs>
    <style>
      .cls-1 {
        fill: #000;
        stroke-width: 0px;
      }
    </style>
  </defs>
  <g id="Layer_1-2" data-name="Layer 1">
    <path class="cls-1" d="M3.37,10c.3-.33.73-.55,1.14-.77.94-.5,1.82-1.09,2.64-1.77.74-.61,1.44-1.32,1.77-2.22.35-.96.24-2.05-.21-2.97-.34-.71-.88-1.33-1.56-1.72C6.39.1,5.48-.04,4.6,0c-1.02.05-2.03.34-2.87.92C.83,1.56.24,2.48.05,3.56c-.12.68-.02,1.41.35,2,.39.63,1.11,1.08,1.86,1.07.53,0,1.08-.26,1.3-.75.16-.36.09-.82-.17-1.12s-.7-.44-1.08-.33c-.09.02-.2.05-.26-.02-.03-.04-.03-.09-.04-.13-.03-.91.55-1.78,1.36-2.22.75-.41,1.75-.44,2.39.12.29.25.49.6.59.98.3,1.13-.32,2.33-1.17,3.14s-1.92,1.34-2.86,2.04-1.81,1.64-1.95,2.81c-.05.43.03.93.39,1.18.25.17.58.18.89.18,1.99,0,3.99,0,5.98,0,.22,0,.44,0,.63-.11.38-.21.43-.72.41-1.15-.02-.35-.06-.71-.23-1.02s-.49-.56-.84-.55-.69.34-.63.68c-1.28,0-2.56,0-3.83,0,.06-.13.14-.24.23-.35Z"/>
  </g>
</svg>