<?xml version="1.0" encoding="UTF-8"?>
<svg id="Layer_2" data-name="Layer 2" xmlns="http://www.w3.org/2000/svg" viewBox="0 0 9.35 12.51">
  <defs>
    <style>
      .cls-1 {
        fill: #231f20;
        stroke-width: 0px;
      }
    </style>
  </defs>
  <g id="Layer_1-2" data-name="Layer 1">
    <path class="cls-1" d="M3.47,12.51C2.15,12.48.36,11.83,0,10.42c0-.39.23-.81.69-.81.38.04.68.22.87.53.4.44,1.08.77,1.72.76.64,0,1.23-.21,1.77-.51.78-.51,1.36-1.28,1.6-2.18.14-.63.21-1.33-.03-1.96-.27-.76-.97-1.53-1.84-1.35-.28.06-.53.22-.8.3-.52.19-1.07-.17-.88-.74.15-.49.59-.97.89-1.39.07-.1.5-.88.61-.88-.56,0-1.12-.01-1.68,0-.29.02-.4.32-.67.45-.25.11-.64.07-.78-.2C1.15,1.72,1.12-.11,2.26,0c0,0,4.64,0,4.64,0,.52-.06,1.19.28,1.03.89-.18.55-.93.57-1.24,1.01-.27.43-.56.86-.84,1.28.89.02,1.74.42,2.33,1.06,3.2,3.38-.71,8.38-4.71,8.26Z"/>
  </g>
</svg>