<?xml version="1.0" encoding="UTF-8"?>
<svg id="Layer_2" data-name="Layer 2" xmlns="http://www.w3.org/2000/svg" viewBox="0 0 9.52 12.54">
  <defs>
    <style>
      .cls-1 {
        fill: #231f20;
        stroke-width: 0px;
      }
    </style>
  </defs>
  <g id="Layer_1-2" data-name="Layer 1">
    <path class="cls-1" d="M8.66,8.08s.04-.02.05-.04c.36-.18.85-.56.81-.98,0-.24-.17-.48-.39-.56-.04-.03-.09-.04-.14-.04l-.21.02c-.38.15-1.37.31-1.82.32-.01,0-.02,0-.03,0,0-.6-.05-5.6.09-6.05,0-.45-.3-.74-.71-.74-.32.02-.62.23-.77.5L.28,7.25c-.24.38-.46.58-.04,1.12.22.19.55.2.81.09.08,0,.14-.07.22-.1l.09-.05c1.15-.46,2.47-.21,3.64.04,0,.16.01,2.53-.02,2.6-.03.02-.38.05-.57.08-.19.02-.39.06-.56.13-.37.11-.48.61-.32.93.19.33.58.48.96.44.75-.14,1.54-.16,2.3-.06.2.02.41.03.61.06.39.04.78-.1.96-.44.16-.32.05-.82-.32-.93-.18-.07-.37-.12-.56-.13-.2-.03-.48-.06-.57-.08,0,.02-.02-.3-.02-.44h0c-.02-.67.01-1.86,0-1.97.41-.03,1.42-.27,1.78-.46ZM4.98,6.31c-.64-.04-1.33-.11-1.98-.03l.28-.36c.46-.57,1.17-1.48,1.7-2.08v2.48Z"/>
  </g>
</svg>