<?xml version="1.0" encoding="UTF-8"?>
<svg id="Layer_2" data-name="Layer 2" xmlns="http://www.w3.org/2000/svg" viewBox="0 0 8.99 12.55">
  <defs>
    <style>
      .cls-1 {
        fill: #231f20;
        stroke-width: 0px;
      }
    </style>
  </defs>
  <g id="Layer_1-2" data-name="Layer 1">
    <path class="cls-1" d="M3.63,12.54c-1.33-.03-3.01-.53-3.61-1.81-.06-.22,0-.45.16-.6.4-.46.91-.15,1.3.13,1.29,1.19,3.53.87,4.43-.64.7-1.13.7-3.05-.29-4.03-1.05-1.25-2.43-.89-3.38.26-.59.8-1.73.63-1.5-.52.16-1.37.08-2.74.1-4.12,0-.3.1-.52.27-.7.27-.27.53-.28.92-.28.9.01,2.02.03,2.92,0,.24-.01.35-.03.4-.03,1.48-.85,1.77,1.07.32,1.65-.69.49-1.8.5-2.65.45-.2-.02-.39-.05-.56-.08v1.43c1.87-.92,4.33-.2,5.65,1.33,2.52,3.19-.74,7.77-4.47,7.54Z"/>
  </g>
</svg>