<?xml version="1.0" encoding="UTF-8"?>
<svg id="Layer_2" data-name="Layer 2" xmlns="http://www.w3.org/2000/svg" viewBox="0 0 8.95 12.51">
  <defs>
    <style>
      .cls-1 {
        fill: #231f20;
        stroke-width: 0px;
      }
    </style>
  </defs>
  <g id="Layer_1-2" data-name="Layer 1">
    <path class="cls-1" d="M7.85,4.58c-.66-.57-1.46-.91-2.32-.91h-.13c-.45.02-.89.14-1.33.38-.32.21-.69.5-.75.91-.09.54.44,1.05.95.74,1.83-1.17,3.04.4,2.58,2.22-.52,2.7-3.31,4.2-4.18.76-.63-2.48-.11-9.13,3.81-6.45.51.41,1.64.45,1.61-.41C7.03-.31,3.68-.56,2,1.01-.53,3.4-.65,8.46,1.58,11.14c3.19,3.26,7.39.22,7.37-3.82.04-1.02-.34-1.95-1.1-2.73Z"/>
  </g>
</svg>