<?xml version="1.0" encoding="UTF-8"?>
<svg id="Layer_2" data-name="Layer 2" xmlns="http://www.w3.org/2000/svg" viewBox="0 0 8.83 12.5">
  <defs>
    <style>
      .cls-1 {
        fill: #231f20;
        stroke-width: 0px;
      }
    </style>
  </defs>
  <g id="Layer_1-2" data-name="Layer 1">
    <path class="cls-1" d="M5.29,12.5c-.28-.02-.53-.04-.79-.1,0,0-.35-.04-.35-.04-.06,0-.19.01-.27.03-.02,0-.04.01-.05.02-.43.08-.98.14-1.27-.25-.14-.18-.2-.42-.17-.64.11-3.06,1.51-6.18,3.05-8.73.1-.18.23-.39.35-.55,0,0-4.12,0-4.14,0,.13.85-.78,1.46-1.38.79C.08,2.78-.03,2.46.01,2.15.09,1.41-.31.04.77,0c0,0,7.27,0,7.27,0,.25,0,.68.09.74.42.21.38-.32.93-.64,1.28-1.67,2.25-2.88,5.12-3.28,7.94-.03.28-.18.94.08,1.15.45.22,1.3.03,1.36.91-.06.5-.35.82-1,.8Z"/>
  </g>
</svg>