<?xml version="1.0" encoding="UTF-8"?>
<svg id="Layer_2" data-name="Layer 2" xmlns="http://www.w3.org/2000/svg" viewBox="0 0 8.25 12.51">
  <defs>
    <style>
      .cls-1 {
        fill: #231f20;
        stroke-width: 0px;
      }
    </style>
  </defs>
  <g id="Layer_1-2" data-name="Layer 1">
    <path class="cls-1" d="M8.1,7.41c-.1-.33-.24-.64-.41-.93-.4-.61-.92-1.1-1.51-1.52C8.21,3.23,6.56-.15,3.97,0,1.19-.09-.43,3.55,1.79,5.37-1.51,7.7.03,12.59,4.16,12.51c1.62.04,3.15-.94,3.77-2.43.37-.81.43-1.81.17-2.66ZM2.95,2.21c.74-.76,2.15-.29,2.25.78,0,.03,0,.08.01.14.02.69-.48,1.31-1.13,1.48-1-.34-2.09-1.25-1.14-2.41ZM5.94,9.2c-.53,1.25-2.31,1.63-3.27.66-1.36-1.32-.27-3.12,1.15-3.84.56.23,1.07.51,1.56.86,0,0,.02.02.02.02.67.52.92,1.53.54,2.3Z"/>
  </g>
</svg>