<?xml version="1.0" encoding="UTF-8"?>
<svg id="Layer_2" data-name="Layer 2" xmlns="http://www.w3.org/2000/svg" viewBox="0 0 8.93 12.48">
  <defs>
    <style>
      .cls-1 {
        fill: #231f20;
        stroke-width: 0px;
      }
    </style>
  </defs>
  <g id="Layer_1-2" data-name="Layer 1">
    <path class="cls-1" d="M1.1,7.9c.36.31.75.54,1.16.7.38.14.77.21,1.16.21h.13c.45-.02.89-.14,1.33-.38.32-.21.69-.5.75-.91.03-.2-.02-.41-.14-.58-.06-.09-.14-.17-.24-.21-.18-.08-.39-.03-.57.05-.31.14-.6.32-.94.39s-.69,0-1-.18c-.35-.21-.58-.69-.67-1.08-.11-.45-.06-.9.03-1.35.2-.94.67-1.87,1.46-2.45.28-.21.63-.35.99-.32.99.08,1.55,1.15,1.74,2.01.25,1.17.28,2.45.13,3.63-.08.68-.24,1.36-.5,2-.21.53-.57,1.04-1.1,1.29-.11.05-.23.09-.36.12-.35.07-.71.04-1.05-.07s-.63-.33-.94-.52c-.2-.12-.41-.23-.64-.27s-.47-.02-.67.1-.33.36-.3.59c.02.17.13.32.24.45.51.59,1.2,1.01,1.94,1.23.37.11.76.16,1.17.16.35,0,.69-.04,1.02-.12.32-.08.63-.2.92-.35.29-.15.56-.34.8-.55.25-.21.47-.45.67-.72.55-.75.94-1.73,1.15-2.93.22-1.18.21-2.35,0-3.49-.22-1.14-.69-2.15-1.4-2.99C6.81.67,6.01.23,5.15.08,4.11-.11,3.07.02,2.19.65c-.07.05-.13.1-.19.15-.63.53-1.12,1.19-1.46,1.95C.2,3.51.02,4.32,0,5.16c-.04,1.02.34,1.95,1.1,2.73Z"/>
  </g>
</svg>