solid OpenSCAD_Model
  facet normal 2.55998e-06 0.743145 0.669131
    outer loop
      vertex 0.863646 9.96216 12.5149
      vertex 0 5.10909e-07 23.579
      vertex 6.02056 8.28658 14.3758
    endloop
  endfacet
  facet normal -0 0.743145 0.669131
    outer loop
      vertex -0.863646 9.96216 12.5149
      vertex 0 5.10909e-07 23.579
      vertex 0.863646 9.96216 12.5149
    endloop
  endfacet
  facet normal -2.55998e-06 0.743145 0.669131
    outer loop
      vertex 0 5.10909e-07 23.579
      vertex -0.863646 9.96216 12.5149
      vertex -6.02056 8.28658 14.3758
    endloop
  endfacet
  facet normal 0 0.743246 0.669018
    outer loop
      vertex 0.863646 9.96216 12.5149
      vertex -0.0995443 10.17 12.284
      vertex -0.863646 9.96216 12.5149
    endloop
  endfacet
  facet normal 0 0.743246 0.669018
    outer loop
      vertex 0.863646 9.96216 12.5149
      vertex 0.0999993 10.17 12.284
      vertex -0.0995443 10.17 12.284
    endloop
  endfacet
  facet normal -5.68983e-05 0.743153 0.669122
    outer loop
      vertex 0.863646 9.96216 12.5149
      vertex 0.0999993 10.1935 12.2579
      vertex 0.0999993 10.17 12.284
    endloop
  endfacet
  facet normal -0.000729705 0.742157 0.670225
    outer loop
      vertex 0.0999993 10.1935 12.2579
      vertex 0.863646 9.96216 12.5149
      vertex 0 10.2428 12.2032
    endloop
  endfacet
  facet normal -0 0.743246 0.669018
    outer loop
      vertex -0.100001 10.17 12.284
      vertex -0.863646 9.96216 12.5149
      vertex -0.0995443 10.17 12.284
    endloop
  endfacet
  facet normal 5.68985e-05 0.743153 0.669122
    outer loop
      vertex -0.100001 10.1935 12.2579
      vertex -0.863646 9.96216 12.5149
      vertex -0.100001 10.17 12.284
    endloop
  endfacet
  facet normal 0.000729729 0.742157 0.670225
    outer loop
      vertex -0.100001 10.1935 12.2579
      vertex 0 10.2428 12.2032
      vertex -0.863646 9.96216 12.5149
    endloop
  endfacet
  facet normal 0 0.742821 0.66949
    outer loop
      vertex 0 10.2428 12.2032
      vertex -0.100001 10.1935 12.2579
      vertex 0.0999993 10.1935 12.2579
    endloop
  endfacet
  facet normal 4.60928e-07 -0.743144 -0.669131
    outer loop
      vertex 0.863646 -9.96216 14.0641
      vertex -4.80465e-07 -0.170129 3.18897
      vertex 5.91069 -8.3055 12.2242
    endloop
  endfacet
  facet normal 0 -0.743164 -0.66911
    outer loop
      vertex -0.863646 -9.96216 14.0641
      vertex 0.863646 -9.96216 14.0641
      vertex 0 -10.2428 14.3758
    endloop
  endfacet
  facet normal -1.89193e-06 -0.743144 -0.669131
    outer loop
      vertex -4.80465e-07 -0.170129 3.18897
      vertex -0.863646 -9.96216 14.0641
      vertex -5.91069 -8.30549 12.2242
    endloop
  endfacet
  facet normal -1.88493e-05 -0.743167 -0.669106
    outer loop
      vertex -6.02056 -8.28658 12.2032
      vertex -5.91069 -8.30549 12.2242
      vertex -0.863646 -9.96216 14.0641
    endloop
  endfacet
  facet normal -8.86489e-05 -0.743349 -0.668904
    outer loop
      vertex -5.91069 -8.30549 12.2242
      vertex -6.02056 -8.28658 12.2032
      vertex -5.99159 -8.24672 12.1589
    endloop
  endfacet
  facet normal 0 -0.743144 -0.669131
    outer loop
      vertex -0.863646 -9.96216 14.0641
      vertex -4.80465e-07 -0.170129 3.18897
      vertex 0.863646 -9.96216 14.0641
    endloop
  endfacet
  facet normal 0.000162708 -0.743365 -0.668886
    outer loop
      vertex 5.91069 -8.3055 12.2242
      vertex 6.02056 -8.28658 12.2032
      vertex 0.863646 -9.96216 14.0641
    endloop
  endfacet
  facet normal 0.000148785 -0.743329 -0.668926
    outer loop
      vertex 6.02056 -8.28658 12.2032
      vertex 5.91069 -8.3055 12.2242
      vertex 5.99159 -8.24672 12.1589
    endloop
  endfacet
  facet normal -0.706373 0.229091 0.669742
    outer loop
      vertex -9.74146 3.16519 12.2032
      vertex -9.66369 3.24507 12.2579
      vertex -6.02056 8.28658 14.3758
    endloop
  endfacet
  facet normal -0.706611 0.229618 0.66931
    outer loop
      vertex -9.74146 3.16519 12.2032
      vertex -9.7255 3.05486 12.2579
      vertex -9.66369 3.24507 12.2579
    endloop
  endfacet
  facet normal -0.706778 0.229638 0.669128
    outer loop
      vertex -6.02056 8.28658 14.3758
      vertex -4.04728 -1.31504 19.7553
      vertex 0 5.10909e-07 23.579
    endloop
  endfacet
  facet normal -0.686744 0 0.726899
    outer loop
      vertex 0 5.10909e-07 23.579
      vertex -4.04728 -1.31504 19.7553
      vertex 0 -1.37894e-07 23.579
    endloop
  endfacet
  facet normal -0.707103 0.229543 0.668816
    outer loop
      vertex -9.74146 -3.16519 14.3758
      vertex -9.70317 3.0476 12.284
      vertex -9.7255 3.05486 12.2579
    endloop
  endfacet
  facet normal -0.70677 0.229648 0.669132
    outer loop
      vertex -9.70317 3.0476 12.284
      vertex -9.74146 -3.16519 14.3758
      vertex -4.04728 -1.31504 19.7553
    endloop
  endfacet
  facet normal -0.706282 0.229806 0.669593
    outer loop
      vertex -9.74146 -3.16519 14.3758
      vertex -9.7255 3.05486 12.2579
      vertex -9.74146 3.16519 12.2032
    endloop
  endfacet
  facet normal -0.707013 0.229962 0.668767
    outer loop
      vertex -9.64136 3.23782 12.284
      vertex -6.02056 8.28658 14.3758
      vertex -9.66369 3.24507 12.2579
    endloop
  endfacet
  facet normal -0.706761 0.229666 0.669136
    outer loop
      vertex -4.04728 -1.31504 19.7553
      vertex -9.64136 3.23782 12.284
      vertex -9.70303 3.04804 12.284
    endloop
  endfacet
  facet normal -0.708859 0.225546 0.668318
    outer loop
      vertex -4.04728 -1.31504 19.7553
      vertex -9.70303 3.04804 12.284
      vertex -9.70317 3.0476 12.284
    endloop
  endfacet
  facet normal -0.706774 0.229641 0.66913
    outer loop
      vertex -4.04728 -1.31504 19.7553
      vertex -6.02056 8.28658 14.3758
      vertex -9.64136 3.23782 12.284
    endloop
  endfacet
  facet normal 0.706968 -0.229593 -0.668942
    outer loop
      vertex 9.74146 3.16519 12.2032
      vertex 9.7255 3.05486 12.2242
      vertex 9.6946 3.14997 12.1589
    endloop
  endfacet
  facet normal 0.706933 -0.229595 -0.668978
    outer loop
      vertex 9.74146 -3.16519 14.3758
      vertex 9.7255 3.05486 12.2242
      vertex 9.74146 3.16519 12.2032
    endloop
  endfacet
  facet normal 0.706772 -0.229648 -0.66913
    outer loop
      vertex 9.74146 -3.16519 14.3758
      vertex 0.161802 -0.0525729 3.18897
      vertex 9.7255 3.05486 12.2242
    endloop
  endfacet
  facet normal 0.706774 -0.229642 -0.66913
    outer loop
      vertex 9.74146 -3.16519 14.3758
      vertex 6.07249 -8.18794 12.2242
      vertex 0.161802 -0.0525729 3.18897
    endloop
  endfacet
  facet normal 0.706892 -0.229728 -0.668976
    outer loop
      vertex 6.07249 -8.18794 12.2242
      vertex 6.02056 -8.28658 12.2032
      vertex 5.99159 -8.24672 12.1589
    endloop
  endfacet
  facet normal 0.706759 -0.22962 -0.669154
    outer loop
      vertex 6.02056 -8.28658 12.2032
      vertex 6.07249 -8.18794 12.2242
      vertex 9.74146 -3.16519 14.3758
    endloop
  endfacet
  facet normal -0.436821 -0.60121 0.669129
    outer loop
      vertex -4.04728 -1.31504 19.7553
      vertex -6.05832 -8.16921 12.284
      vertex -5.89689 -8.2865 12.284
    endloop
  endfacet
  facet normal -0.438207 -0.600506 0.668855
    outer loop
      vertex -4.04728 -1.31504 19.7553
      vertex -6.05869 -8.16894 12.284
      vertex -6.05832 -8.16921 12.284
    endloop
  endfacet
  facet normal -0.436806 -0.601218 0.669132
    outer loop
      vertex -9.74146 -3.16519 14.3758
      vertex -6.05869 -8.16894 12.284
      vertex -4.04728 -1.31504 19.7553
    endloop
  endfacet
  facet normal -0.4371 -0.601317 0.668851
    outer loop
      vertex -6.05869 -8.16894 12.284
      vertex -9.74146 -3.16519 14.3758
      vertex -6.07249 -8.18794 12.2579
    endloop
  endfacet
  facet normal -0.436807 -0.601217 0.669132
    outer loop
      vertex -5.89689 -8.2865 12.284
      vertex -0.863646 -9.96216 14.0641
      vertex -4.04728 -1.31504 19.7553
    endloop
  endfacet
  facet normal -0.436813 -0.601667 0.668723
    outer loop
      vertex -5.91069 -8.30549 12.2579
      vertex -0.863646 -9.96216 14.0641
      vertex -5.89689 -8.2865 12.284
    endloop
  endfacet
  facet normal -0.436806 -0.60051 0.669767
    outer loop
      vertex -5.91069 -8.30549 12.2579
      vertex -6.02056 -8.28658 12.2032
      vertex -0.863646 -9.96216 14.0641
    endloop
  endfacet
  facet normal -0.436689 -0.601075 0.669337
    outer loop
      vertex -6.07249 -8.18794 12.2579
      vertex -6.02056 -8.28658 12.2032
      vertex -5.91069 -8.30549 12.2579
    endloop
  endfacet
  facet normal -0.436204 -0.601021 0.669701
    outer loop
      vertex -6.02056 -8.28658 12.2032
      vertex -6.07249 -8.18794 12.2579
      vertex -9.74146 -3.16519 14.3758
    endloop
  endfacet
  facet normal -0.436851 -0.601203 0.669116
    outer loop
      vertex 0 -1.37894e-07 23.579
      vertex -0.863646 -9.96216 14.0641
      vertex 0 -10.2428 14.3758
    endloop
  endfacet
  facet normal -0.436816 -0.601217 0.669127
    outer loop
      vertex -0.863646 -9.96216 14.0641
      vertex 0 -1.37894e-07 23.579
      vertex -4.04728 -1.31504 19.7553
    endloop
  endfacet
  facet normal 0.437052 0.601302 -0.668896
    outer loop
      vertex 9.6637 3.24507 12.2242
      vertex 9.74146 3.16519 12.2032
      vertex 9.6946 3.14997 12.1589
    endloop
  endfacet
  facet normal 0.437039 0.601293 -0.668912
    outer loop
      vertex 9.6637 3.24507 12.2242
      vertex 6.02056 8.28658 14.3758
      vertex 9.74146 3.16519 12.2032
    endloop
  endfacet
  facet normal 0.436807 0.601219 -0.66913
    outer loop
      vertex 4.0127 1.40895 6.88547
      vertex 6.02056 8.28658 14.3758
      vertex 9.6637 3.24507 12.2242
    endloop
  endfacet
  facet normal 0.436807 0.601219 -0.66913
    outer loop
      vertex 6.02056 8.28658 14.3758
      vertex 4.0127 1.40895 6.88547
      vertex 0.863646 9.96216 12.5149
    endloop
  endfacet
  facet normal 0.436808 0.601219 -0.66913
    outer loop
      vertex 0.0999993 0.137637 3.18897
      vertex 0.863646 9.96216 12.5149
      vertex 4.0127 1.40895 6.88547
    endloop
  endfacet
  facet normal 0.436845 0.601205 -0.669118
    outer loop
      vertex 0.863646 9.96216 12.5149
      vertex 0.0999993 0.137637 3.18897
      vertex 0.0999993 10.1935 12.2242
    endloop
  endfacet
  facet normal 0.436851 0.601009 -0.66929
    outer loop
      vertex 0.0999993 10.1935 12.2242
      vertex 0 10.2428 12.2032
      vertex 0.863646 9.96216 12.5149
    endloop
  endfacet
  facet normal 0.436906 0.601213 -0.669071
    outer loop
      vertex 0 10.2428 12.2032
      vertex 0.0999993 10.1935 12.2242
      vertex 0 10.1935 12.1589
    endloop
  endfacet
  facet normal 0.4371 -0.601317 0.668851
    outer loop
      vertex 9.74146 -3.16519 14.3758
      vertex 6.05869 -8.16894 12.284
      vertex 6.07249 -8.18794 12.2579
    endloop
  endfacet
  facet normal 0.436806 -0.601218 0.669132
    outer loop
      vertex 4.04728 -1.31504 19.7553
      vertex 6.05869 -8.16894 12.284
      vertex 9.74146 -3.16519 14.3758
    endloop
  endfacet
  facet normal 0.436821 -0.601211 0.669129
    outer loop
      vertex 6.05869 -8.16894 12.284
      vertex 4.04728 -1.31504 19.7553
      vertex 5.89726 -8.28623 12.284
    endloop
  endfacet
  facet normal 0.438219 -0.600522 0.668833
    outer loop
      vertex 5.89726 -8.28623 12.284
      vertex 4.04728 -1.31504 19.7553
      vertex 5.89689 -8.2865 12.284
    endloop
  endfacet
  facet normal 0.436204 -0.601021 0.669701
    outer loop
      vertex 6.07249 -8.18794 12.2579
      vertex 6.02056 -8.28658 12.2032
      vertex 9.74146 -3.16519 14.3758
    endloop
  endfacet
  facet normal 0.43673 -0.601079 0.669307
    outer loop
      vertex 5.91069 -8.3055 12.2579
      vertex 6.02056 -8.28658 12.2032
      vertex 6.07249 -8.18794 12.2579
    endloop
  endfacet
  facet normal 0.436806 -0.600708 0.669589
    outer loop
      vertex 5.91069 -8.3055 12.2579
      vertex 0.863646 -9.96216 14.0641
      vertex 6.02056 -8.28658 12.2032
    endloop
  endfacet
  facet normal 0.436811 -0.601527 0.668851
    outer loop
      vertex 5.89689 -8.2865 12.284
      vertex 0.863646 -9.96216 14.0641
      vertex 5.91069 -8.3055 12.2579
    endloop
  endfacet
  facet normal 0.436807 -0.601217 0.669132
    outer loop
      vertex 0.863646 -9.96216 14.0641
      vertex 5.89689 -8.2865 12.284
      vertex 4.04728 -1.31504 19.7553
    endloop
  endfacet
  facet normal 0.436816 -0.601217 0.669127
    outer loop
      vertex 0 -1.37894e-07 23.579
      vertex 0.863646 -9.96216 14.0641
      vertex 4.04728 -1.31504 19.7553
    endloop
  endfacet
  facet normal 0.436851 -0.601203 0.669116
    outer loop
      vertex 0.863646 -9.96216 14.0641
      vertex 0 -1.37894e-07 23.579
      vertex 0 -10.2428 14.3758
    endloop
  endfacet
  facet normal -0.436846 0.601205 -0.669118
    outer loop
      vertex -0.1 0.137637 3.18897
      vertex -0.863646 9.96216 12.5149
      vertex -0.100001 10.1935 12.2242
    endloop
  endfacet
  facet normal -0.436808 0.601219 -0.66913
    outer loop
      vertex -0.863646 9.96216 12.5149
      vertex -0.1 0.137637 3.18897
      vertex -4.0127 1.40895 6.88547
    endloop
  endfacet
  facet normal -0.4369 0.601215 -0.669073
    outer loop
      vertex -0.100001 10.1935 12.2242
      vertex 0 10.2428 12.2032
      vertex 0 10.1935 12.1589
    endloop
  endfacet
  facet normal -0.436851 0.601033 -0.669268
    outer loop
      vertex 0 10.2428 12.2032
      vertex -0.100001 10.1935 12.2242
      vertex -0.863646 9.96216 12.5149
    endloop
  endfacet
  facet normal -0.436807 0.601219 -0.66913
    outer loop
      vertex -4.0127 1.40895 6.88547
      vertex -6.02056 8.28658 14.3758
      vertex -0.863646 9.96216 12.5149
    endloop
  endfacet
  facet normal -0.436808 0.601218 -0.66913
    outer loop
      vertex -9.66369 3.24507 12.2242
      vertex -6.02056 8.28658 14.3758
      vertex -4.0127 1.40895 6.88547
    endloop
  endfacet
  facet normal -0.436902 0.601249 -0.669042
    outer loop
      vertex -9.66369 3.24507 12.2242
      vertex -9.74146 3.16519 12.2032
      vertex -6.02056 8.28658 14.3758
    endloop
  endfacet
  facet normal -0.43703 0.601332 -0.668883
    outer loop
      vertex -9.74146 3.16519 12.2032
      vertex -9.66369 3.24507 12.2242
      vertex -9.6946 3.14997 12.1589
    endloop
  endfacet
  facet normal 0.706981 0.22992 0.668816
    outer loop
      vertex 6.02056 8.28658 14.3758
      vertex 9.64137 3.23781 12.284
      vertex 9.6637 3.24507 12.2579
    endloop
  endfacet
  facet normal 0.706774 0.229641 0.669131
    outer loop
      vertex 4.04728 -1.31504 19.7553
      vertex 9.64137 3.23781 12.284
      vertex 6.02056 8.28658 14.3758
    endloop
  endfacet
  facet normal 0.706778 0.229638 0.669128
    outer loop
      vertex 4.04728 -1.31504 19.7553
      vertex 6.02056 8.28658 14.3758
      vertex 0 5.10909e-07 23.579
    endloop
  endfacet
  facet normal 0.706511 0.229279 0.669533
    outer loop
      vertex 9.6637 3.24507 12.2579
      vertex 9.74146 3.16519 12.2032
      vertex 6.02056 8.28658 14.3758
    endloop
  endfacet
  facet normal 0.706653 0.229594 0.669275
    outer loop
      vertex 9.7255 3.05486 12.2579
      vertex 9.74146 3.16519 12.2032
      vertex 9.6637 3.24507 12.2579
    endloop
  endfacet
  facet normal 0.686744 0 0.726899
    outer loop
      vertex 4.04728 -1.31504 19.7553
      vertex 0 5.10909e-07 23.579
      vertex 0 -1.37894e-07 23.579
    endloop
  endfacet
  facet normal 0.706777 0.229635 0.669129
    outer loop
      vertex 9.64137 3.23781 12.284
      vertex 4.04728 -1.31504 19.7553
      vertex 9.70317 3.0476 12.284
    endloop
  endfacet
  facet normal 0.70677 0.229648 0.669132
    outer loop
      vertex 9.74146 -3.16519 14.3758
      vertex 9.70317 3.0476 12.284
      vertex 4.04728 -1.31504 19.7553
    endloop
  endfacet
  facet normal 0.706282 0.229806 0.669593
    outer loop
      vertex 9.7255 3.05486 12.2579
      vertex 9.74146 -3.16519 14.3758
      vertex 9.74146 3.16519 12.2032
    endloop
  endfacet
  facet normal 0.707103 0.229543 0.668816
    outer loop
      vertex 9.70317 3.0476 12.284
      vertex 9.74146 -3.16519 14.3758
      vertex 9.7255 3.05486 12.2579
    endloop
  endfacet
  facet normal -0.706968 -0.229593 -0.668942
    outer loop
      vertex -9.7255 3.05486 12.2242
      vertex -9.74146 3.16519 12.2032
      vertex -9.6946 3.14997 12.1589
    endloop
  endfacet
  facet normal -0.706933 -0.229595 -0.668978
    outer loop
      vertex -9.7255 3.05486 12.2242
      vertex -9.74146 -3.16519 14.3758
      vertex -9.74146 3.16519 12.2032
    endloop
  endfacet
  facet normal -0.706772 -0.229648 -0.66913
    outer loop
      vertex -0.161804 -0.0525732 3.18897
      vertex -9.74146 -3.16519 14.3758
      vertex -9.7255 3.05486 12.2242
    endloop
  endfacet
  facet normal -0.706774 -0.229642 -0.66913
    outer loop
      vertex -6.07249 -8.18794 12.2242
      vertex -9.74146 -3.16519 14.3758
      vertex -0.161804 -0.0525732 3.18897
    endloop
  endfacet
  facet normal -0.706759 -0.22962 -0.669154
    outer loop
      vertex -6.07249 -8.18794 12.2242
      vertex -6.02056 -8.28658 12.2032
      vertex -9.74146 -3.16519 14.3758
    endloop
  endfacet
  facet normal -0.706892 -0.229728 -0.668976
    outer loop
      vertex -6.02056 -8.28658 12.2032
      vertex -6.07249 -8.18794 12.2242
      vertex -5.99159 -8.24672 12.1589
    endloop
  endfacet
  facet normal 0 0 -1
    outer loop
      vertex 5.03894 -9.48745 0
      vertex 2.42705 -0.788597 0
      vertex 7.46599 -7.7241 0
    endloop
  endfacet
  facet normal 0 0 -1
    outer loop
      vertex 1.31095e-08 -2.55195 0
      vertex 2.42705 -0.788597 0
      vertex 5.03894 -9.48745 0
    endloop
  endfacet
  facet normal -0 0 -1
    outer loop
      vertex 2.42705 -0.788597 0
      vertex 1.31095e-08 -2.55195 0
      vertex 1.5 2.06457 0
    endloop
  endfacet
  facet normal 0 0 -1
    outer loop
      vertex 2.42705 -0.788597 0
      vertex 9.65317 4.7137 0
      vertex 10.5802 1.86053 0
    endloop
  endfacet
  facet normal 0 0 -1
    outer loop
      vertex 9.65317 4.7137 0
      vertex 2.42705 -0.788597 0
      vertex 1.5 2.06457 0
    endloop
  endfacet
  facet normal 0 0 -1
    outer loop
      vertex -1.5 2.06457 0
      vertex 1.5 2.06457 0
      vertex 1.31095e-08 -2.55195 0
    endloop
  endfacet
  facet normal 0 0 -1
    outer loop
      vertex 1.5 2.06457 0
      vertex -1.5 2.06457 0
      vertex 1.5 10.6373 0
    endloop
  endfacet
  facet normal -0 0 -1
    outer loop
      vertex 1.5 10.6373 0
      vertex -1.5 2.06457 0
      vertex -1.5 10.6373 0
    endloop
  endfacet
  facet normal 0 0 -1
    outer loop
      vertex 1.31095e-08 -2.55195 0
      vertex -2.42705 -0.788596 0
      vertex -1.5 2.06457 0
    endloop
  endfacet
  facet normal 0 0 -1
    outer loop
      vertex -5.03894 -9.48745 0
      vertex -2.42705 -0.788596 0
      vertex 1.31095e-08 -2.55195 0
    endloop
  endfacet
  facet normal 0 0 -1
    outer loop
      vertex -2.42705 -0.788596 0
      vertex -5.03894 -9.48745 0
      vertex -7.46599 -7.7241 0
    endloop
  endfacet
  facet normal 0 0 -1
    outer loop
      vertex -2.42705 -0.788596 0
      vertex -9.65317 4.7137 0
      vertex -1.5 2.06457 0
    endloop
  endfacet
  facet normal 0 -0 -1
    outer loop
      vertex -9.65317 4.7137 0
      vertex -2.42705 -0.788596 0
      vertex -10.5802 1.86053 0
    endloop
  endfacet
  facet normal 0 0 1
    outer loop
      vertex -0.161804 -0.0525732 1
      vertex -0.915039 -0.578924 1
      vertex -0.672335 -0.755259 1
    endloop
  endfacet
  facet normal 0 0 1
    outer loop
      vertex -1.08057 -0.0694875 1
      vertex -0.161804 -0.0525732 1
      vertex -0.98786 0.215829 1
    endloop
  endfacet
  facet normal 0 0 1
    outer loop
      vertex -0.161804 -0.0525732 1
      vertex -1.08057 -0.0694875 1
      vertex -0.915039 -0.578924 1
    endloop
  endfacet
  facet normal 0 0 1
    outer loop
      vertex -2.42705 -0.788596 1
      vertex -0.915039 -0.578924 1
      vertex -1.08057 -0.0694875 1
    endloop
  endfacet
  facet normal 0 0 1
    outer loop
      vertex -0.915039 -0.578924 1
      vertex -1.64615 -1.41508 1
      vertex -1.56525 -1.47386 1
    endloop
  endfacet
  facet normal -0 0 1
    outer loop
      vertex -2.16353 0.177243 1
      vertex -1.08057 -0.0694875 1
      vertex -2.13263 0.272349 1
    endloop
  endfacet
  facet normal 0 0 1
    outer loop
      vertex -2.42705 -0.788596 1
      vertex -1.08057 -0.0694875 1
      vertex -2.16353 0.177243 1
    endloop
  endfacet
  facet normal 0 0 1
    outer loop
      vertex -0.915039 -0.578924 1
      vertex -2.42705 -0.788596 1
      vertex -1.64615 -1.41508 1
    endloop
  endfacet
  facet normal 0 -0 1
    outer loop
      vertex -2.37726 -2.25124 1
      vertex -1.64615 -1.41508 1
      vertex -2.42705 -0.788596 1
    endloop
  endfacet
  facet normal 0 0 1
    outer loop
      vertex -1.64615 -1.41508 1
      vertex -2.37726 -2.25124 1
      vertex -2.29636 -2.31002 1
    endloop
  endfacet
  facet normal -0 0 1
    outer loop
      vertex -3.2465 0.423974 1
      vertex -2.16353 0.177243 1
      vertex -3.21559 0.519079 1
    endloop
  endfacet
  facet normal 0 0 1
    outer loop
      vertex -2.16353 0.177243 1
      vertex -3.2465 0.423974 1
      vertex -2.42705 -0.788596 1
    endloop
  endfacet
  facet normal -0 0 1
    outer loop
      vertex -4.32946 0.670704 1
      vertex -3.2465 0.423974 1
      vertex -4.29856 0.76581 1
    endloop
  endfacet
  facet normal 0 0 1
    outer loop
      vertex -3.2465 0.423974 1
      vertex -4.32946 0.670704 1
      vertex -2.42705 -0.788596 1
    endloop
  endfacet
  facet normal -0 0 1
    outer loop
      vertex -10.5802 1.86053 1
      vertex -4.32946 0.670704 1
      vertex -9.91091 2.48423 1
    endloop
  endfacet
  facet normal 0 0 1
    outer loop
      vertex -4.32946 0.670704 1
      vertex -10.5802 1.86053 1
      vertex -2.42705 -0.788596 1
    endloop
  endfacet
  facet normal 0 0 1
    outer loop
      vertex -3.10838 -3.0874 1
      vertex -2.37726 -2.25124 1
      vertex -2.42705 -0.788596 1
    endloop
  endfacet
  facet normal 0 0 1
    outer loop
      vertex -2.37726 -2.25124 1
      vertex -3.10838 -3.0874 1
      vertex -3.02748 -3.14618 1
    endloop
  endfacet
  facet normal 0 0 1
    outer loop
      vertex -7.46599 -7.7241 1
      vertex -3.10838 -3.0874 1
      vertex -2.42705 -0.788596 1
    endloop
  endfacet
  facet normal 0 0 1
    outer loop
      vertex -3.10838 -3.0874 1
      vertex -7.46599 -7.7241 1
      vertex -6.5579 -7.83527 1
    endloop
  endfacet
  facet normal 0 0 1
    outer loop
      vertex -0.599999 4.32482 1
      vertex -0.7 4.32482 1
      vertex -0.599999 3.21862 1
    endloop
  endfacet
  facet normal 0 0 1
    outer loop
      vertex -0.5 3.21862 1
      vertex -0.599999 3.21862 1
      vertex -0.5 2.11241 1
    endloop
  endfacet
  facet normal 0 0 1
    outer loop
      vertex -0.4 2.11241 1
      vertex -0.5 2.11241 1
      vertex -0.4 1.00621 1
    endloop
  endfacet
  facet normal 0 0 1
    outer loop
      vertex 0.918038 -1.94409 1
      vertex 0.267826 -1.04915 1
      vertex 0.837136 -2.00287 1
    endloop
  endfacet
  facet normal 0 0 1
    outer loop
      vertex 1.48735 -2.89781 1
      vertex 0.837136 -2.00287 1
      vertex 1.40645 -2.95659 1
    endloop
  endfacet
  facet normal 0 0 1
    outer loop
      vertex 2.05666 -3.85153 1
      vertex 1.40645 -2.95659 1
      vertex 1.97575 -3.9103 1
    endloop
  endfacet
  facet normal 0 0 1
    outer loop
      vertex 9.65317 4.7137 1
      vertex 9.91091 2.48423 1
      vertex 10.5802 1.86053 1
    endloop
  endfacet
  facet normal 0 0 1
    outer loop
      vertex 9.65317 4.7137 1
      vertex 9.47828 3.8157 1
      vertex 9.91091 2.48423 1
    endloop
  endfacet
  facet normal 0 0 1
    outer loop
      vertex 9.65317 4.7137 1
      vertex 3.89684 2.00218 1
      vertex 9.47828 3.8157 1
    endloop
  endfacet
  facet normal -0 0 1
    outer loop
      vertex 1.5 2.06457 1
      vertex 3.89684 2.00218 1
      vertex 9.65317 4.7137 1
    endloop
  endfacet
  facet normal 0 0 1
    outer loop
      vertex 3.89684 2.00218 1
      vertex 1.5 2.06457 1
      vertex 2.87568 1.56524 1
    endloop
  endfacet
  facet normal 0 0 1
    outer loop
      vertex 2.87568 1.56524 1
      vertex 1.5 2.06457 1
      vertex 1.85451 1.1283 1
    endloop
  endfacet
  facet normal 0 0 1
    outer loop
      vertex 4.32946 0.670704 1
      vertex 10.5802 1.86053 1
      vertex 9.91091 2.48423 1
    endloop
  endfacet
  facet normal 0 0 1
    outer loop
      vertex 3.2465 0.423974 1
      vertex 4.32946 0.670704 1
      vertex 4.29856 0.76581 1
    endloop
  endfacet
  facet normal 0 0 1
    outer loop
      vertex 2.42705 -0.788597 1
      vertex 4.32946 0.670704 1
      vertex 3.2465 0.423974 1
    endloop
  endfacet
  facet normal -0 0 1
    outer loop
      vertex 4.32946 0.670704 1
      vertex 2.42705 -0.788597 1
      vertex 10.5802 1.86053 1
    endloop
  endfacet
  facet normal 0 0 1
    outer loop
      vertex 2.16353 0.177243 1
      vertex 3.2465 0.423974 1
      vertex 3.21559 0.519079 1
    endloop
  endfacet
  facet normal -0 0 1
    outer loop
      vertex 1.64615 -1.41508 1
      vertex 2.37726 -2.25124 1
      vertex 2.42705 -0.788597 1
    endloop
  endfacet
  facet normal 0 0 1
    outer loop
      vertex 3.2465 0.423974 1
      vertex 2.16353 0.177243 1
      vertex 2.42705 -0.788597 1
    endloop
  endfacet
  facet normal -0 0 1
    outer loop
      vertex 1.08057 -0.0694875 1
      vertex 2.42705 -0.788597 1
      vertex 2.16353 0.177243 1
    endloop
  endfacet
  facet normal 0 0 1
    outer loop
      vertex 1.08057 -0.0694875 1
      vertex 2.16353 0.177243 1
      vertex 2.13263 0.272349 1
    endloop
  endfacet
  facet normal 0 0 1
    outer loop
      vertex 2.37726 -2.25124 1
      vertex 1.64615 -1.41508 1
      vertex 2.29636 -2.31002 1
    endloop
  endfacet
  facet normal -0 0 1
    outer loop
      vertex 0.915039 -0.578924 1
      vertex 2.42705 -0.788597 1
      vertex 1.08057 -0.0694875 1
    endloop
  endfacet
  facet normal 0 0 1
    outer loop
      vertex 2.42705 -0.788597 1
      vertex 0.915039 -0.578924 1
      vertex 1.64615 -1.41508 1
    endloop
  endfacet
  facet normal 0 0 1
    outer loop
      vertex 1.64615 -1.41508 1
      vertex 0.915039 -0.578924 1
      vertex 1.56525 -1.47386 1
    endloop
  endfacet
  facet normal -0 0 1
    outer loop
      vertex 0.161802 -0.0525729 1
      vertex 1.08057 -0.0694875 1
      vertex 0.98786 0.21583 1
    endloop
  endfacet
  facet normal 0 0 1
    outer loop
      vertex 1.08057 -0.0694875 1
      vertex 0.161802 -0.0525729 1
      vertex 0.915039 -0.578924 1
    endloop
  endfacet
  facet normal 0 0 1
    outer loop
      vertex 0.915039 -0.578924 1
      vertex 0.161802 -0.0525729 1
      vertex 0.672334 -0.75526 1
    endloop
  endfacet
  facet normal 0 0 1
    outer loop
      vertex 3.92774 1.90708 1
      vertex 3.89684 2.00218 1
      vertex 2.87568 1.56524 1
    endloop
  endfacet
  facet normal 0 0 1
    outer loop
      vertex 2.90658 1.47014 1
      vertex 2.87568 1.56524 1
      vertex 1.85451 1.1283 1
    endloop
  endfacet
  facet normal 0 0 1
    outer loop
      vertex 7.46599 -7.7241 1
      vertex 3.10838 -3.0874 1
      vertex 6.5579 -7.83527 1
    endloop
  endfacet
  facet normal 0 0 1
    outer loop
      vertex 2.42705 -0.788597 1
      vertex 3.10838 -3.0874 1
      vertex 7.46599 -7.7241 1
    endloop
  endfacet
  facet normal -0 0 1
    outer loop
      vertex 2.37726 -2.25124 1
      vertex 3.10838 -3.0874 1
      vertex 2.42705 -0.788597 1
    endloop
  endfacet
  facet normal 0 0 1
    outer loop
      vertex 3.10838 -3.0874 1
      vertex 2.37726 -2.25124 1
      vertex 3.02748 -3.14618 1
    endloop
  endfacet
  facet normal 0 0 1
    outer loop
      vertex 5.42528 -8.65817 1
      vertex 7.46599 -7.7241 1
      vertex 6.5579 -7.83527 1
    endloop
  endfacet
  facet normal -0 0 1
    outer loop
      vertex 5.42528 -8.65817 1
      vertex 5.03894 -9.48745 1
      vertex 7.46599 -7.7241 1
    endloop
  endfacet
  facet normal 0 0 1
    outer loop
      vertex 1.97575 -3.9103 1
      vertex 5.03894 -9.48745 1
      vertex 5.42528 -8.65817 1
    endloop
  endfacet
  facet normal 0 0 1
    outer loop
      vertex 1.31095e-08 -2.55195 1
      vertex 1.97575 -3.9103 1
      vertex 1.40645 -2.95659 1
    endloop
  endfacet
  facet normal -0 0 1
    outer loop
      vertex 1.31095e-08 -2.55195 1
      vertex 1.40645 -2.95659 1
      vertex 0.837136 -2.00287 1
    endloop
  endfacet
  facet normal 0 0 1
    outer loop
      vertex 1.31095e-08 -2.55195 1
      vertex 0.837136 -2.00287 1
      vertex 0.267826 -1.04915 1
    endloop
  endfacet
  facet normal 0 0 1
    outer loop
      vertex 1.97575 -3.9103 1
      vertex 1.31095e-08 -2.55195 1
      vertex 5.03894 -9.48745 1
    endloop
  endfacet
  facet normal -0 0 1
    outer loop
      vertex 0.7 4.32482 1
      vertex 1.5 2.06457 1
      vertex 1.5 10.6373 1
    endloop
  endfacet
  facet normal 0 0 1
    outer loop
      vertex 0.7 4.32482 1
      vertex 1.5 10.6373 1
      vertex 0.7 10.1935 1
    endloop
  endfacet
  facet normal 0 0 1
    outer loop
      vertex 1.5 10.6373 1
      vertex -0.7 10.1935 1
      vertex 0.7 10.1935 1
    endloop
  endfacet
  facet normal 0 0 1
    outer loop
      vertex -1.5 10.6373 1
      vertex -0.7 4.32482 1
      vertex -0.7 10.1935 1
    endloop
  endfacet
  facet normal 0 0 1
    outer loop
      vertex -0.7 4.32482 1
      vertex -1.5 2.06457 1
      vertex -0.833352 0.691357 1
    endloop
  endfacet
  facet normal 0 0 1
    outer loop
      vertex -0.7 4.32482 1
      vertex -1.5 10.6373 1
      vertex -1.5 2.06457 1
    endloop
  endfacet
  facet normal -0 0 1
    outer loop
      vertex -1.5 10.6373 1
      vertex -0.7 10.1935 1
      vertex 1.5 10.6373 1
    endloop
  endfacet
  facet normal -0 0 1
    outer loop
      vertex -0.4 1.00621 1
      vertex -0.1 0.137637 1
      vertex -0.1 1.00621 1
    endloop
  endfacet
  facet normal 0 0 1
    outer loop
      vertex -0.833352 0.691357 1
      vertex -0.599999 3.21862 1
      vertex -0.7 4.32482 1
    endloop
  endfacet
  facet normal 0 0 1
    outer loop
      vertex -0.599999 3.21862 1
      vertex -0.833352 0.691357 1
      vertex -0.5 2.11241 1
    endloop
  endfacet
  facet normal 0 0 1
    outer loop
      vertex -0.833352 0.691357 1
      vertex -0.4 1.00621 1
      vertex -0.5 2.11241 1
    endloop
  endfacet
  facet normal -0 0 1
    outer loop
      vertex -0.833352 0.691357 1
      vertex -0.1 0.137637 1
      vertex -0.4 1.00621 1
    endloop
  endfacet
  facet normal 0 0 1
    outer loop
      vertex -0.1 0.137637 1
      vertex -0.833352 0.691357 1
      vertex -0.926057 0.40604 1
    endloop
  endfacet
  facet normal 0 0 1
    outer loop
      vertex -1.40645 -2.95659 1
      vertex -2.05666 -3.85153 1
      vertex -1.97575 -3.9103 1
    endloop
  endfacet
  facet normal 0 0 1
    outer loop
      vertex -1.5 2.06457 1
      vertex -2.87568 1.56524 1
      vertex -1.85451 1.1283 1
    endloop
  endfacet
  facet normal 0 0 1
    outer loop
      vertex -1.5 2.06457 1
      vertex -3.89684 2.00218 1
      vertex -2.87568 1.56524 1
    endloop
  endfacet
  facet normal 0 0 1
    outer loop
      vertex -9.65317 4.7137 1
      vertex -3.89684 2.00218 1
      vertex -1.5 2.06457 1
    endloop
  endfacet
  facet normal 0 0 1
    outer loop
      vertex -3.89684 2.00218 1
      vertex -9.65317 4.7137 1
      vertex -9.47828 3.8157 1
    endloop
  endfacet
  facet normal 0 0 1
    outer loop
      vertex -9.65317 4.7137 1
      vertex -9.91091 2.48423 1
      vertex -9.47828 3.8157 1
    endloop
  endfacet
  facet normal 0 -0 1
    outer loop
      vertex -9.91091 2.48423 1
      vertex -9.65317 4.7137 1
      vertex -10.5802 1.86053 1
    endloop
  endfacet
  facet normal 0 0 1
    outer loop
      vertex -0.837136 -2.00287 1
      vertex -1.48735 -2.89781 1
      vertex -1.40645 -2.95659 1
    endloop
  endfacet
  facet normal 0 0 1
    outer loop
      vertex -0.267826 -1.04915 1
      vertex -0.918038 -1.94409 1
      vertex -0.837136 -2.00287 1
    endloop
  endfacet
  facet normal 0 0 1
    outer loop
      vertex -4.80465e-07 -0.170129 1
      vertex -0.510532 -0.872816 1
      vertex -0.267826 -1.04915 1
    endloop
  endfacet
  facet normal 0 0 1
    outer loop
      vertex -4.80465e-07 -0.170129 1
      vertex 0.267826 -1.04915 1
      vertex 0.510531 -0.872816 1
    endloop
  endfacet
  facet normal 0 0 1
    outer loop
      vertex -0.267826 -1.04915 1
      vertex 0.267826 -1.04915 1
      vertex -4.80465e-07 -0.170129 1
    endloop
  endfacet
  facet normal 0 0 1
    outer loop
      vertex 0.267826 -1.04915 1
      vertex -0.267826 -1.04915 1
      vertex 1.31095e-08 -2.55195 1
    endloop
  endfacet
  facet normal -0 0 1
    outer loop
      vertex -0.837136 -2.00287 1
      vertex 1.31095e-08 -2.55195 1
      vertex -0.267826 -1.04915 1
    endloop
  endfacet
  facet normal 0 0 1
    outer loop
      vertex -1.40645 -2.95659 1
      vertex 1.31095e-08 -2.55195 1
      vertex -0.837136 -2.00287 1
    endloop
  endfacet
  facet normal 0 0 1
    outer loop
      vertex -1.97575 -3.9103 1
      vertex 1.31095e-08 -2.55195 1
      vertex -1.40645 -2.95659 1
    endloop
  endfacet
  facet normal -0 0 1
    outer loop
      vertex -1.97575 -3.9103 1
      vertex -5.03894 -9.48745 1
      vertex 1.31095e-08 -2.55195 1
    endloop
  endfacet
  facet normal -0 0 1
    outer loop
      vertex -5.42528 -8.65817 1
      vertex -5.03894 -9.48745 1
      vertex -1.97575 -3.9103 1
    endloop
  endfacet
  facet normal 0 0 1
    outer loop
      vertex -6.5579 -7.83527 1
      vertex -5.03894 -9.48745 1
      vertex -5.42528 -8.65817 1
    endloop
  endfacet
  facet normal 0 0 1
    outer loop
      vertex -5.03894 -9.48745 1
      vertex -6.5579 -7.83527 1
      vertex -7.46599 -7.7241 1
    endloop
  endfacet
  facet normal 0 0 1
    outer loop
      vertex 0.833352 0.691357 1
      vertex 1.85451 1.1283 1
      vertex 1.5 2.06457 1
    endloop
  endfacet
  facet normal 0 0 1
    outer loop
      vertex 1.85451 1.1283 1
      vertex 0.833352 0.691357 1
      vertex 1.88542 1.03319 1
    endloop
  endfacet
  facet normal -0 0 1
    outer loop
      vertex 0.599999 3.21862 1
      vertex 1.5 2.06457 1
      vertex 0.7 4.32482 1
    endloop
  endfacet
  facet normal 0 0 1
    outer loop
      vertex 0.599999 3.21862 1
      vertex 0.7 4.32482 1
      vertex 0.599999 4.32482 1
    endloop
  endfacet
  facet normal -0 0 1
    outer loop
      vertex 0.5 2.11241 1
      vertex 1.5 2.06457 1
      vertex 0.599999 3.21862 1
    endloop
  endfacet
  facet normal 0 0 1
    outer loop
      vertex 0.5 2.11241 1
      vertex 0.599999 3.21862 1
      vertex 0.5 3.21862 1
    endloop
  endfacet
  facet normal 0 0 1
    outer loop
      vertex 0.4 1.00621 1
      vertex 1.5 2.06457 1
      vertex 0.5 2.11241 1
    endloop
  endfacet
  facet normal 0 0 1
    outer loop
      vertex 0.4 1.00621 1
      vertex 0.5 2.11241 1
      vertex 0.4 2.11241 1
    endloop
  endfacet
  facet normal 0 0 1
    outer loop
      vertex 1.5 2.06457 1
      vertex 0.4 1.00621 1
      vertex 0.833352 0.691357 1
    endloop
  endfacet
  facet normal 0 0 1
    outer loop
      vertex 0.0999993 0.137637 1
      vertex 0.833352 0.691357 1
      vertex 0.4 1.00621 1
    endloop
  endfacet
  facet normal 0 0 1
    outer loop
      vertex 0.0999993 0.137637 1
      vertex 0.4 1.00621 1
      vertex 0.0999993 1.00621 1
    endloop
  endfacet
  facet normal 0 0 1
    outer loop
      vertex 0.833352 0.691357 1
      vertex 0.0999993 0.137637 1
      vertex 0.926057 0.40604 1
    endloop
  endfacet
  facet normal -0 0 1
    outer loop
      vertex -1.85451 1.1283 1
      vertex -0.833352 0.691357 1
      vertex -1.5 2.06457 1
    endloop
  endfacet
  facet normal 0 0 1
    outer loop
      vertex -0.833352 0.691357 1
      vertex -1.85451 1.1283 1
      vertex -1.88542 1.03319 1
    endloop
  endfacet
  facet normal 0 0 1
    outer loop
      vertex -1.85451 1.1283 1
      vertex -2.87568 1.56524 1
      vertex -2.90658 1.47014 1
    endloop
  endfacet
  facet normal 0 0 1
    outer loop
      vertex -2.87568 1.56524 1
      vertex -3.89684 2.00218 1
      vertex -3.92774 1.90708 1
    endloop
  endfacet
  facet normal -0.309017 0.951056 0
    outer loop
      vertex 9.65317 4.7137 0
      vertex 1.5 2.06457 1
      vertex 9.65317 4.7137 1
    endloop
  endfacet
  facet normal -0.309017 0.951056 0
    outer loop
      vertex 1.5 2.06457 1
      vertex 9.65317 4.7137 0
      vertex 1.5 2.06457 0
    endloop
  endfacet
  facet normal 0.951059 0.309011 0
    outer loop
      vertex 10.5802 1.86053 1
      vertex 9.65317 4.7137 0
      vertex 9.65317 4.7137 1
    endloop
  endfacet
  facet normal 0.951059 0.309011 0
    outer loop
      vertex 9.65317 4.7137 0
      vertex 10.5802 1.86053 1
      vertex 10.5802 1.86053 0
    endloop
  endfacet
  facet normal 0.309018 -0.951056 0
    outer loop
      vertex 2.42705 -0.788597 0
      vertex 10.5802 1.86053 1
      vertex 2.42705 -0.788597 1
    endloop
  endfacet
  facet normal 0.309018 -0.951056 0
    outer loop
      vertex 10.5802 1.86053 1
      vertex 2.42705 -0.788597 0
      vertex 10.5802 1.86053 0
    endloop
  endfacet
  facet normal -1 0 0
    outer loop
      vertex -1.5 2.06457 0
      vertex -1.5 10.6373 1
      vertex -1.5 10.6373 0
    endloop
  endfacet
  facet normal -1 -0 0
    outer loop
      vertex -1.5 10.6373 1
      vertex -1.5 2.06457 0
      vertex -1.5 2.06457 1
    endloop
  endfacet
  facet normal 0 1 -0
    outer loop
      vertex 1.5 10.6373 0
      vertex -1.5 10.6373 1
      vertex 1.5 10.6373 1
    endloop
  endfacet
  facet normal 0 1 0
    outer loop
      vertex -1.5 10.6373 1
      vertex 1.5 10.6373 0
      vertex -1.5 10.6373 0
    endloop
  endfacet
  facet normal 1 -0 0
    outer loop
      vertex 1.5 2.06457 1
      vertex 1.5 10.6373 0
      vertex 1.5 10.6373 1
    endloop
  endfacet
  facet normal 1 0 0
    outer loop
      vertex 1.5 10.6373 0
      vertex 1.5 2.06457 1
      vertex 1.5 2.06457 0
    endloop
  endfacet
  facet normal -0.951059 0.309011 0
    outer loop
      vertex -10.5802 1.86053 0
      vertex -9.65317 4.7137 1
      vertex -9.65317 4.7137 0
    endloop
  endfacet
  facet normal -0.951059 0.309011 0
    outer loop
      vertex -9.65317 4.7137 1
      vertex -10.5802 1.86053 0
      vertex -10.5802 1.86053 1
    endloop
  endfacet
  facet normal -0.309018 -0.951056 0
    outer loop
      vertex -10.5802 1.86053 0
      vertex -2.42705 -0.788596 1
      vertex -10.5802 1.86053 1
    endloop
  endfacet
  facet normal -0.309018 -0.951056 -0
    outer loop
      vertex -2.42705 -0.788596 1
      vertex -10.5802 1.86053 0
      vertex -2.42705 -0.788596 0
    endloop
  endfacet
  facet normal 0.309017 0.951056 -0
    outer loop
      vertex -1.5 2.06457 0
      vertex -9.65317 4.7137 1
      vertex -1.5 2.06457 1
    endloop
  endfacet
  facet normal 0.309017 0.951056 0
    outer loop
      vertex -9.65317 4.7137 1
      vertex -1.5 2.06457 0
      vertex -9.65317 4.7137 0
    endloop
  endfacet
  facet normal 0.809017 -0.587786 0
    outer loop
      vertex -5.03894 -9.48745 1
      vertex 1.31095e-08 -2.55195 0
      vertex 1.31095e-08 -2.55195 1
    endloop
  endfacet
  facet normal 0.809017 -0.587786 0
    outer loop
      vertex 1.31095e-08 -2.55195 0
      vertex -5.03894 -9.48745 1
      vertex -5.03894 -9.48745 0
    endloop
  endfacet
  facet normal -0.587784 -0.809018 0
    outer loop
      vertex -7.46599 -7.7241 0
      vertex -5.03894 -9.48745 1
      vertex -7.46599 -7.7241 1
    endloop
  endfacet
  facet normal -0.587784 -0.809018 -0
    outer loop
      vertex -5.03894 -9.48745 1
      vertex -7.46599 -7.7241 0
      vertex -5.03894 -9.48745 0
    endloop
  endfacet
  facet normal -0.809017 0.587785 0
    outer loop
      vertex -7.46599 -7.7241 0
      vertex -2.42705 -0.788596 1
      vertex -2.42705 -0.788596 0
    endloop
  endfacet
  facet normal -0.809017 0.587785 0
    outer loop
      vertex -2.42705 -0.788596 1
      vertex -7.46599 -7.7241 0
      vertex -7.46599 -7.7241 1
    endloop
  endfacet
  facet normal 0.809017 0.587785 0
    outer loop
      vertex 7.46599 -7.7241 1
      vertex 2.42705 -0.788597 0
      vertex 2.42705 -0.788597 1
    endloop
  endfacet
  facet normal 0.809017 0.587785 0
    outer loop
      vertex 2.42705 -0.788597 0
      vertex 7.46599 -7.7241 1
      vertex 7.46599 -7.7241 0
    endloop
  endfacet
  facet normal -0.809017 -0.587786 0
    outer loop
      vertex 5.03894 -9.48745 0
      vertex 1.31095e-08 -2.55195 1
      vertex 1.31095e-08 -2.55195 0
    endloop
  endfacet
  facet normal -0.809017 -0.587786 0
    outer loop
      vertex 1.31095e-08 -2.55195 1
      vertex 5.03894 -9.48745 0
      vertex 5.03894 -9.48745 1
    endloop
  endfacet
  facet normal 0.587784 -0.809018 0
    outer loop
      vertex 5.03894 -9.48745 0
      vertex 7.46599 -7.7241 1
      vertex 5.03894 -9.48745 1
    endloop
  endfacet
  facet normal 0.587784 -0.809018 0
    outer loop
      vertex 7.46599 -7.7241 1
      vertex 5.03894 -9.48745 0
      vertex 7.46599 -7.7241 0
    endloop
  endfacet
  facet normal -0.309192 0.951 0
    outer loop
      vertex 9.6637 3.24507 12.2579
      vertex 9.64137 3.23781 12.284
      vertex 9.6637 3.24507 12.3052
    endloop
  endfacet
  facet normal -0.309017 0.951057 0
    outer loop
      vertex 9.6637 3.24507 9.30524
      vertex 4.0127 1.40895 6.88547
      vertex 9.6637 3.24507 12.2242
    endloop
  endfacet
  facet normal -0.309017 0.951057 9.34896e-08
    outer loop
      vertex 0.926057 0.40604 1
      vertex 4.0127 1.40895 6.88547
      vertex 9.6637 3.24507 9.30524
    endloop
  endfacet
  facet normal -0.309017 0.951056 2.221e-07
    outer loop
      vertex 4.0127 1.40895 6.88547
      vertex 0.926057 0.40604 1
      vertex 0.0999993 0.137637 3.18897
    endloop
  endfacet
  facet normal -0.309018 0.951056 0
    outer loop
      vertex 0.0999993 0.137637 3.18897
      vertex 0.926057 0.40604 1
      vertex 0.0999993 0.137637 1
    endloop
  endfacet
  facet normal 0.951061 0.309004 0
    outer loop
      vertex 9.7255 3.05486 12.3052
      vertex 9.6637 3.24507 12.2579
      vertex 9.6637 3.24507 12.3052
    endloop
  endfacet
  facet normal 0.951061 0.309004 0
    outer loop
      vertex 9.6637 3.24507 12.2579
      vertex 9.7255 3.05486 12.3052
      vertex 9.7255 3.05486 12.2579
    endloop
  endfacet
  facet normal 0.951056 0.309018 0
    outer loop
      vertex 9.6637 3.24507 12.2242
      vertex 9.6946 3.14997 12.1589
      vertex 9.6637 3.24507 9.30524
    endloop
  endfacet
  facet normal 0.951053 0.309029 0
    outer loop
      vertex 9.57099 3.53039 9.30524
      vertex 9.6637 3.24507 9.30524
      vertex 9.57099 3.53039 8.30524
    endloop
  endfacet
  facet normal 0.951056 0.309018 0
    outer loop
      vertex 9.54009 3.62549 8.30524
      vertex 9.57099 3.53039 8.30524
      vertex 9.54009 3.62549 7.30524
    endloop
  endfacet
  facet normal 0.951066 0.308989 0
    outer loop
      vertex 9.50919 3.7206 7.30524
      vertex 9.54009 3.62549 7.30524
      vertex 9.50919 3.7206 6.30524
    endloop
  endfacet
  facet normal 0.951027 0.309109 0
    outer loop
      vertex 9.50919 3.7206 6.30524
      vertex 9.47828 3.8157 1
      vertex 9.47828 3.8157 6.30524
    endloop
  endfacet
  facet normal 0.951057 0.309016 2.87266e-06
    outer loop
      vertex 9.88001 2.57933 6.30524
      vertex 9.50919 3.7206 6.30524
      vertex 9.54009 3.62549 7.30524
    endloop
  endfacet
  facet normal 0.951055 0.309022 3.57002e-07
    outer loop
      vertex 9.84911 2.67444 7.30524
      vertex 9.54009 3.62549 7.30524
      vertex 9.57099 3.53039 8.30524
    endloop
  endfacet
  facet normal 0.951058 0.309011 -5.55785e-06
    outer loop
      vertex 9.8182 2.76954 8.30524
      vertex 9.57099 3.53039 8.30524
      vertex 9.6637 3.24507 9.30524
    endloop
  endfacet
  facet normal 0.951066 0.308989 -0
    outer loop
      vertex 9.7255 3.05486 9.30524
      vertex 9.6946 3.14997 12.1589
      vertex 9.7255 3.05486 12.2242
    endloop
  endfacet
  facet normal 0.951061 0.309004 -5.41416e-07
    outer loop
      vertex 9.6946 3.14997 12.1589
      vertex 9.7255 3.05486 9.30524
      vertex 9.6637 3.24507 9.30524
    endloop
  endfacet
  facet normal 0.951061 0.309004 -1.54502e-06
    outer loop
      vertex 9.8182 2.76954 8.30524
      vertex 9.6637 3.24507 9.30524
      vertex 9.7255 3.05486 9.30524
    endloop
  endfacet
  facet normal 0.951062 0.308999 -0
    outer loop
      vertex 9.8182 2.76954 8.30524
      vertex 9.7255 3.05486 9.30524
      vertex 9.8182 2.76954 9.30524
    endloop
  endfacet
  facet normal 0.951058 0.309011 1.02531e-05
    outer loop
      vertex 9.57099 3.53039 8.30524
      vertex 9.8182 2.76954 8.30524
      vertex 9.84911 2.67444 7.30524
    endloop
  endfacet
  facet normal 0.951027 0.309109 -0
    outer loop
      vertex 9.84911 2.67444 7.30524
      vertex 9.8182 2.76954 8.30524
      vertex 9.84911 2.67444 8.30524
    endloop
  endfacet
  facet normal 0.951055 0.309022 -3.44722e-06
    outer loop
      vertex 9.54009 3.62549 7.30524
      vertex 9.84911 2.67444 7.30524
      vertex 9.88001 2.57933 6.30524
    endloop
  endfacet
  facet normal 0.951066 0.308989 -0
    outer loop
      vertex 9.88001 2.57933 6.30524
      vertex 9.84911 2.67444 7.30524
      vertex 9.88001 2.57933 7.30524
    endloop
  endfacet
  facet normal 0.951057 0.309016 -1.83367e-06
    outer loop
      vertex 9.50919 3.7206 6.30524
      vertex 9.88001 2.57933 6.30524
      vertex 9.47828 3.8157 1
    endloop
  endfacet
  facet normal 0.951056 0.309018 -0
    outer loop
      vertex 9.91091 2.48423 1
      vertex 9.88001 2.57933 6.30524
      vertex 9.91091 2.48423 6.30524
    endloop
  endfacet
  facet normal 0.951055 0.309023 -9.29005e-08
    outer loop
      vertex 9.88001 2.57933 6.30524
      vertex 9.91091 2.48423 1
      vertex 9.47828 3.8157 1
    endloop
  endfacet
  facet normal -0.637347 -0.207076 0.742232
    outer loop
      vertex 9.6637 3.24507 12.3052
      vertex 9.70317 3.0476 12.284
      vertex 9.7255 3.05486 12.3052
    endloop
  endfacet
  facet normal -0.637347 -0.207076 0.742232
    outer loop
      vertex 9.70317 3.0476 12.284
      vertex 9.6637 3.24507 12.3052
      vertex 9.64137 3.23781 12.284
    endloop
  endfacet
  facet normal 0.309192 -0.951 0
    outer loop
      vertex 9.7255 3.05486 12.3052
      vertex 9.70317 3.0476 12.284
      vertex 9.7255 3.05486 12.2579
    endloop
  endfacet
  facet normal 0.309017 -0.951057 0
    outer loop
      vertex 0.161802 -0.0525729 3.18897
      vertex 9.7255 3.05486 9.30524
      vertex 9.7255 3.05486 12.2242
    endloop
  endfacet
  facet normal 0.309017 -0.951056 0
    outer loop
      vertex 0.98786 0.21583 1
      vertex 0.161802 -0.0525729 3.18897
      vertex 0.161802 -0.0525729 1
    endloop
  endfacet
  facet normal 0.309017 -0.951057 -1.63642e-07
    outer loop
      vertex 0.161802 -0.0525729 3.18897
      vertex 0.98786 0.21583 1
      vertex 9.7255 3.05486 9.30524
    endloop
  endfacet
  facet normal -1 0 -0
    outer loop
      vertex -0.100001 10.1935 12.3052
      vertex -0.100001 10.1935 12.2579
      vertex -0.100001 10.17 12.284
    endloop
  endfacet
  facet normal -1 -8.01104e-08 -3.17874e-08
    outer loop
      vertex -0.1 0.137637 3.18897
      vertex -0.100001 10.1935 9.30524
      vertex -0.1 1.00621 1
    endloop
  endfacet
  facet normal -1 0 0
    outer loop
      vertex -0.1 0.137637 3.18897
      vertex -0.1 1.00621 1
      vertex -0.1 0.137637 1
    endloop
  endfacet
  facet normal -1 -9.94445e-08 0
    outer loop
      vertex -0.100001 10.1935 9.30524
      vertex -0.1 0.137637 3.18897
      vertex -0.100001 10.1935 12.2242
    endloop
  endfacet
  facet normal 0 1 0
    outer loop
      vertex 0.0999993 10.1935 12.3052
      vertex -0.100001 10.1935 12.2579
      vertex -0.100001 10.1935 12.3052
    endloop
  endfacet
  facet normal 0 1 0
    outer loop
      vertex -0.100001 10.1935 12.2579
      vertex 0.0999993 10.1935 12.3052
      vertex 0.0999993 10.1935 12.2579
    endloop
  endfacet
  facet normal 0 1 0
    outer loop
      vertex 0.0999993 10.1935 12.2242
      vertex 0.0999993 10.1935 9.30524
      vertex 0 10.1935 12.1589
    endloop
  endfacet
  facet normal 0 1 0
    outer loop
      vertex -0.100001 10.1935 9.30524
      vertex 0 10.1935 12.1589
      vertex 0.0999993 10.1935 9.30524
    endloop
  endfacet
  facet normal 0 1 0
    outer loop
      vertex 0 10.1935 12.1589
      vertex -0.100001 10.1935 9.30524
      vertex -0.100001 10.1935 12.2242
    endloop
  endfacet
  facet normal 0 -0.669837 0.742508
    outer loop
      vertex 0.0999993 10.1935 12.3052
      vertex -0.0995443 10.17 12.284
      vertex 0.0999993 10.17 12.284
    endloop
  endfacet
  facet normal 0 -0.669837 0.742508
    outer loop
      vertex -0.0995443 10.17 12.284
      vertex 0.0999993 10.1935 12.3052
      vertex -0.100001 10.1935 12.3052
    endloop
  endfacet
  facet normal 0 -0.669837 0.742508
    outer loop
      vertex -0.0995443 10.17 12.284
      vertex -0.100001 10.1935 12.3052
      vertex -0.100001 10.17 12.284
    endloop
  endfacet
  facet normal 1 0 0
    outer loop
      vertex 0.0999993 10.1935 12.3052
      vertex 0.0999993 10.17 12.284
      vertex 0.0999993 10.1935 12.2579
    endloop
  endfacet
  facet normal 1 0 0
    outer loop
      vertex 0.0999993 0.137637 3.18897
      vertex 0.0999993 10.1935 9.30524
      vertex 0.0999993 10.1935 12.2242
    endloop
  endfacet
  facet normal 1 0 0
    outer loop
      vertex 0.0999993 10.1935 9.30524
      vertex 0.0999993 0.137637 3.18897
      vertex 0.0999993 1.00621 1
    endloop
  endfacet
  facet normal 1 0 0
    outer loop
      vertex 0.0999993 1.00621 1
      vertex 0.0999993 0.137637 3.18897
      vertex 0.0999993 0.137637 1
    endloop
  endfacet
  facet normal -0.309192 -0.951 -0
    outer loop
      vertex -9.7255 3.05486 12.3052
      vertex -9.7255 3.05486 12.2579
      vertex -9.70317 3.0476 12.284
    endloop
  endfacet
  facet normal -0.309017 -0.951057 0
    outer loop
      vertex -9.7255 3.05486 9.30524
      vertex -0.161804 -0.0525732 3.18897
      vertex -9.7255 3.05486 12.2242
    endloop
  endfacet
  facet normal -0.309017 -0.951056 -1.1737e-07
    outer loop
      vertex -0.98786 0.215829 1
      vertex -0.161804 -0.0525732 3.18897
      vertex -9.7255 3.05486 9.30524
    endloop
  endfacet
  facet normal -0.309017 -0.951056 -0
    outer loop
      vertex -0.161804 -0.0525732 3.18897
      vertex -0.98786 0.215829 1
      vertex -0.161804 -0.0525732 1
    endloop
  endfacet
  facet normal 0.308807 0.951125 0
    outer loop
      vertex -9.64136 3.23782 12.284
      vertex -9.66369 3.24507 12.2579
      vertex -9.66369 3.24507 12.3052
    endloop
  endfacet
  facet normal 0.309017 0.951056 0
    outer loop
      vertex -4.0127 1.40895 6.88547
      vertex -9.66369 3.24507 9.30524
      vertex -9.66369 3.24507 12.2242
    endloop
  endfacet
  facet normal 0.309017 0.951056 2.79568e-07
    outer loop
      vertex -0.926057 0.40604 1
      vertex -4.0127 1.40895 6.88547
      vertex -0.1 0.137637 3.18897
    endloop
  endfacet
  facet normal 0.309018 0.951056 0
    outer loop
      vertex -0.926057 0.40604 1
      vertex -0.1 0.137637 3.18897
      vertex -0.1 0.137637 1
    endloop
  endfacet
  facet normal 0.309017 0.951056 4.63336e-07
    outer loop
      vertex -4.0127 1.40895 6.88547
      vertex -0.926057 0.40604 1
      vertex -9.66369 3.24507 9.30524
    endloop
  endfacet
  facet normal -0.951046 0.309049 0
    outer loop
      vertex -9.7255 3.05486 12.2579
      vertex -9.66369 3.24507 12.3052
      vertex -9.66369 3.24507 12.2579
    endloop
  endfacet
  facet normal -0.951046 0.309049 0
    outer loop
      vertex -9.66369 3.24507 12.3052
      vertex -9.7255 3.05486 12.2579
      vertex -9.7255 3.05486 12.3052
    endloop
  endfacet
  facet normal -0.951027 0.309109 0
    outer loop
      vertex -9.66369 3.24507 9.30524
      vertex -9.6946 3.14997 12.1589
      vertex -9.66369 3.24507 12.2242
    endloop
  endfacet
  facet normal -0.951046 0.309049 -2.20786e-06
    outer loop
      vertex -9.7255 3.05486 9.30524
      vertex -9.6946 3.14997 12.1589
      vertex -9.66369 3.24507 9.30524
    endloop
  endfacet
  facet normal -0.951066 0.308989 0
    outer loop
      vertex -9.6946 3.14997 12.1589
      vertex -9.7255 3.05486 9.30524
      vertex -9.7255 3.05486 12.2242
    endloop
  endfacet
  facet normal 0.637383 -0.207121 0.742188
    outer loop
      vertex -9.66369 3.24507 12.3052
      vertex -9.70303 3.04804 12.284
      vertex -9.64136 3.23782 12.284
    endloop
  endfacet
  facet normal 0.637379 -0.207121 0.742192
    outer loop
      vertex -9.70303 3.04804 12.284
      vertex -9.66369 3.24507 12.3052
      vertex -9.7255 3.05486 12.3052
    endloop
  endfacet
  facet normal 0.638603 -0.203192 0.742226
    outer loop
      vertex -9.70303 3.04804 12.284
      vertex -9.7255 3.05486 12.3052
      vertex -9.70317 3.0476 12.284
    endloop
  endfacet
  facet normal 0.808957 -0.587868 0
    outer loop
      vertex -5.91069 -8.30549 12.3052
      vertex -5.91069 -8.30549 12.2579
      vertex -5.89689 -8.2865 12.284
    endloop
  endfacet
  facet normal 0.809017 -0.587785 0
    outer loop
      vertex -4.80465e-07 -0.170129 3.18897
      vertex -0.510532 -0.872816 1
      vertex -4.80465e-07 -0.170129 1
    endloop
  endfacet
  facet normal 0.809017 -0.587785 0
    outer loop
      vertex -5.91069 -8.30549 9.30524
      vertex -4.80465e-07 -0.170129 3.18897
      vertex -5.91069 -8.30549 12.2242
    endloop
  endfacet
  facet normal 0.809017 -0.587785 2.36899e-07
    outer loop
      vertex -4.80465e-07 -0.170129 3.18897
      vertex -5.91069 -8.30549 9.30524
      vertex -0.510532 -0.872816 1
    endloop
  endfacet
  facet normal -0.809104 0.587665 0
    outer loop
      vertex -6.05869 -8.16894 12.284
      vertex -6.07249 -8.18794 12.2579
      vertex -6.07249 -8.18794 12.3052
    endloop
  endfacet
  facet normal -0.809017 0.587785 0
    outer loop
      vertex -0.672335 -0.755259 1
      vertex -0.161804 -0.0525732 3.18897
      vertex -0.161804 -0.0525732 1
    endloop
  endfacet
  facet normal -0.809017 0.587785 6.68748e-08
    outer loop
      vertex -6.07249 -8.18794 9.30524
      vertex -0.161804 -0.0525732 3.18897
      vertex -0.672335 -0.755259 1
    endloop
  endfacet
  facet normal -0.809017 0.587785 0
    outer loop
      vertex -0.161804 -0.0525732 3.18897
      vertex -6.07249 -8.18794 9.30524
      vertex -6.07249 -8.18794 12.2242
    endloop
  endfacet
  facet normal -0.58777 -0.809028 0
    outer loop
      vertex -6.07249 -8.18794 12.3052
      vertex -5.91069 -8.30549 12.2579
      vertex -5.91069 -8.30549 12.3052
    endloop
  endfacet
  facet normal -0.58777 -0.809028 0
    outer loop
      vertex -5.91069 -8.30549 12.2579
      vertex -6.07249 -8.18794 12.3052
      vertex -6.07249 -8.18794 12.2579
    endloop
  endfacet
  facet normal -0.587803 -0.809004 -0
    outer loop
      vertex -6.07249 -8.18794 12.2242
      vertex -6.07249 -8.18794 9.30524
      vertex -5.99159 -8.24672 12.1589
    endloop
  endfacet
  facet normal -0.58777 -0.809028 -1.41753e-06
    outer loop
      vertex -5.91069 -8.30549 9.30524
      vertex -5.99159 -8.24672 12.1589
      vertex -6.07249 -8.18794 9.30524
    endloop
  endfacet
  facet normal -0.587738 -0.809052 0
    outer loop
      vertex -5.99159 -8.24672 12.1589
      vertex -5.91069 -8.30549 9.30524
      vertex -5.91069 -8.30549 12.2242
    endloop
  endfacet
  facet normal 0.393964 0.542225 0.742149
    outer loop
      vertex -6.05832 -8.16921 12.284
      vertex -5.91069 -8.30549 12.3052
      vertex -5.89689 -8.2865 12.284
    endloop
  endfacet
  facet normal 0.393878 0.542148 0.74225
    outer loop
      vertex -5.91069 -8.30549 12.3052
      vertex -6.05832 -8.16921 12.284
      vertex -6.07249 -8.18794 12.3052
    endloop
  endfacet
  facet normal 0.395009 0.541308 0.742263
    outer loop
      vertex -6.05869 -8.16894 12.284
      vertex -6.07249 -8.18794 12.3052
      vertex -6.05832 -8.16921 12.284
    endloop
  endfacet
  facet normal 0.809104 0.587665 -0
    outer loop
      vertex 6.07249 -8.18794 12.2579
      vertex 6.05869 -8.16894 12.284
      vertex 6.07249 -8.18794 12.3052
    endloop
  endfacet
  facet normal 0.809017 0.587785 0
    outer loop
      vertex 0.161802 -0.0525729 3.18897
      vertex 0.672334 -0.75526 1
      vertex 0.161802 -0.0525729 1
    endloop
  endfacet
  facet normal 0.809017 0.587785 -0
    outer loop
      vertex 6.07249 -8.18794 9.30524
      vertex 0.161802 -0.0525729 3.18897
      vertex 6.07249 -8.18794 12.2242
    endloop
  endfacet
  facet normal 0.809017 0.587785 3.75698e-08
    outer loop
      vertex 0.161802 -0.0525729 3.18897
      vertex 6.07249 -8.18794 9.30524
      vertex 0.672334 -0.75526 1
    endloop
  endfacet
  facet normal 0.587803 -0.809004 0
    outer loop
      vertex 5.91069 -8.3055 12.2579
      vertex 6.07249 -8.18794 12.3052
      vertex 5.91069 -8.3055 12.3052
    endloop
  endfacet
  facet normal 0.587803 -0.809004 0
    outer loop
      vertex 6.07249 -8.18794 12.3052
      vertex 5.91069 -8.3055 12.2579
      vertex 6.07249 -8.18794 12.2579
    endloop
  endfacet
  facet normal 0.587803 -0.809004 0
    outer loop
      vertex 5.91069 -8.3055 9.30524
      vertex 5.99159 -8.24672 12.1589
      vertex 5.91069 -8.3055 12.2242
    endloop
  endfacet
  facet normal 0.587803 -0.809004 -9.11846e-17
    outer loop
      vertex 5.99159 -8.24672 12.1589
      vertex 5.91069 -8.3055 9.30524
      vertex 6.07249 -8.18794 9.30524
    endloop
  endfacet
  facet normal 0.587803 -0.809004 0
    outer loop
      vertex 6.07249 -8.18794 12.2242
      vertex 5.99159 -8.24672 12.1589
      vertex 6.07249 -8.18794 9.30524
    endloop
  endfacet
  facet normal -0.393889 0.542122 0.742264
    outer loop
      vertex 5.89726 -8.28623 12.284
      vertex 6.07249 -8.18794 12.3052
      vertex 6.05869 -8.16894 12.284
    endloop
  endfacet
  facet normal -0.393883 0.542108 0.742277
    outer loop
      vertex 6.07249 -8.18794 12.3052
      vertex 5.89726 -8.28623 12.284
      vertex 5.91069 -8.3055 12.3052
    endloop
  endfacet
  facet normal -0.395009 0.541308 0.742263
    outer loop
      vertex 5.89726 -8.28623 12.284
      vertex 5.89689 -8.2865 12.284
      vertex 5.91069 -8.3055 12.3052
    endloop
  endfacet
  facet normal -0.809104 -0.587665 -0
    outer loop
      vertex 5.91069 -8.3055 12.3052
      vertex 5.89689 -8.2865 12.284
      vertex 5.91069 -8.3055 12.2579
    endloop
  endfacet
  facet normal -0.809017 -0.587785 0
    outer loop
      vertex 0.510531 -0.872816 1
      vertex -4.80465e-07 -0.170129 3.18897
      vertex -4.80465e-07 -0.170129 1
    endloop
  endfacet
  facet normal -0.809017 -0.587785 8.64021e-08
    outer loop
      vertex 5.91069 -8.3055 9.30524
      vertex -4.80465e-07 -0.170129 3.18897
      vertex 0.510531 -0.872816 1
    endloop
  endfacet
  facet normal -0.809017 -0.587785 0
    outer loop
      vertex -4.80465e-07 -0.170129 3.18897
      vertex 5.91069 -8.3055 9.30524
      vertex 5.91069 -8.3055 12.2242
    endloop
  endfacet
  facet normal -0.309018 0.951056 0
    outer loop
      vertex 1.88542 1.03319 1
      vertex 9.57099 3.53039 9.30524
      vertex 9.57099 3.53039 8.30524
    endloop
  endfacet
  facet normal -0.309013 0.951058 -4.65422e-06
    outer loop
      vertex 9.57099 3.53039 9.30524
      vertex 1.88542 1.03319 1
      vertex 0.833352 0.691357 1
    endloop
  endfacet
  facet normal -0.637775 -0.207234 0.74182
    outer loop
      vertex 9.57099 3.53039 9.30524
      vertex 0.926057 0.40604 1
      vertex 9.6637 3.24507 9.30524
    endloop
  endfacet
  facet normal -0.637778 -0.207226 0.74182
    outer loop
      vertex 0.926057 0.40604 1
      vertex 9.57099 3.53039 9.30524
      vertex 0.833352 0.691357 1
    endloop
  endfacet
  facet normal -0.637782 -0.207214 0.74182
    outer loop
      vertex 9.7255 3.05486 9.30524
      vertex 1.08057 -0.0694875 1
      vertex 9.8182 2.76954 9.30524
    endloop
  endfacet
  facet normal -0.637774 -0.207236 0.74182
    outer loop
      vertex 1.08057 -0.0694875 1
      vertex 9.7255 3.05486 9.30524
      vertex 0.98786 0.21583 1
    endloop
  endfacet
  facet normal 0.309018 -0.951056 -1.47877e-06
    outer loop
      vertex 2.13263 0.272349 1
      vertex 9.8182 2.76954 9.30524
      vertex 1.08057 -0.0694875 1
    endloop
  endfacet
  facet normal 0.309017 -0.951057 0
    outer loop
      vertex 9.8182 2.76954 9.30524
      vertex 2.13263 0.272349 1
      vertex 9.8182 2.76954 8.30524
    endloop
  endfacet
  facet normal -0.309016 0.951057 0
    outer loop
      vertex 2.90658 1.47014 1
      vertex 9.54009 3.62549 8.30524
      vertex 9.54009 3.62549 7.30524
    endloop
  endfacet
  facet normal -0.309018 0.951056 2.4729e-06
    outer loop
      vertex 9.54009 3.62549 8.30524
      vertex 2.90658 1.47014 1
      vertex 1.85451 1.1283 1
    endloop
  endfacet
  facet normal -0.637778 -0.207227 0.74182
    outer loop
      vertex 9.54009 3.62549 8.30524
      vertex 1.88542 1.03319 1
      vertex 9.57099 3.53039 8.30524
    endloop
  endfacet
  facet normal -0.637764 -0.207268 0.74182
    outer loop
      vertex 1.88542 1.03319 1
      vertex 9.54009 3.62549 8.30524
      vertex 1.85451 1.1283 1
    endloop
  endfacet
  facet normal -0.637757 -0.207288 0.74182
    outer loop
      vertex 9.8182 2.76954 8.30524
      vertex 2.16353 0.177243 1
      vertex 9.84911 2.67444 8.30524
    endloop
  endfacet
  facet normal -0.637781 -0.207216 0.74182
    outer loop
      vertex 2.16353 0.177243 1
      vertex 9.8182 2.76954 8.30524
      vertex 2.13263 0.272349 1
    endloop
  endfacet
  facet normal 0.309018 -0.951056 -8.47544e-07
    outer loop
      vertex 3.21559 0.519079 1
      vertex 9.84911 2.67444 8.30524
      vertex 2.16353 0.177243 1
    endloop
  endfacet
  facet normal 0.309017 -0.951057 0
    outer loop
      vertex 9.84911 2.67444 8.30524
      vertex 3.21559 0.519079 1
      vertex 9.84911 2.67444 7.30524
    endloop
  endfacet
  facet normal -0.309017 0.951057 0
    outer loop
      vertex 3.92774 1.90708 1
      vertex 9.50919 3.7206 7.30524
      vertex 9.50919 3.7206 6.30524
    endloop
  endfacet
  facet normal -0.309021 0.951055 4.44693e-06
    outer loop
      vertex 9.50919 3.7206 7.30524
      vertex 3.92774 1.90708 1
      vertex 2.87568 1.56524 1
    endloop
  endfacet
  facet normal -0.637784 -0.207208 0.74182
    outer loop
      vertex 9.50919 3.7206 7.30524
      vertex 2.90658 1.47014 1
      vertex 9.54009 3.62549 7.30524
    endloop
  endfacet
  facet normal -0.637777 -0.207227 0.74182
    outer loop
      vertex 2.90658 1.47014 1
      vertex 9.50919 3.7206 7.30524
      vertex 2.87568 1.56524 1
    endloop
  endfacet
  facet normal -0.637784 -0.207208 0.74182
    outer loop
      vertex 9.84911 2.67444 7.30524
      vertex 3.2465 0.423974 1
      vertex 9.88001 2.57933 7.30524
    endloop
  endfacet
  facet normal -0.63776 -0.207278 0.74182
    outer loop
      vertex 3.2465 0.423974 1
      vertex 9.84911 2.67444 7.30524
      vertex 3.21559 0.519079 1
    endloop
  endfacet
  facet normal 0.309018 -0.951056 -1.24605e-06
    outer loop
      vertex 4.29856 0.76581 1
      vertex 9.88001 2.57933 7.30524
      vertex 3.2465 0.423974 1
    endloop
  endfacet
  facet normal 0.309017 -0.951057 0
    outer loop
      vertex 9.88001 2.57933 7.30524
      vertex 4.29856 0.76581 1
      vertex 9.88001 2.57933 6.30524
    endloop
  endfacet
  facet normal -0.309017 0.951057 0
    outer loop
      vertex 9.47828 3.8157 1
      vertex 3.89684 2.00218 1
      vertex 9.47828 3.8157 6.30524
    endloop
  endfacet
  facet normal -0.637758 -0.207288 0.74182
    outer loop
      vertex 9.47828 3.8157 6.30524
      vertex 3.92774 1.90708 1
      vertex 9.50919 3.7206 6.30524
    endloop
  endfacet
  facet normal -0.637778 -0.207228 0.741819
    outer loop
      vertex 3.92774 1.90708 1
      vertex 9.47828 3.8157 6.30524
      vertex 3.89684 2.00218 1
    endloop
  endfacet
  facet normal -0.637777 -0.207227 0.74182
    outer loop
      vertex 9.88001 2.57933 6.30524
      vertex 4.32946 0.670704 1
      vertex 9.91091 2.48423 6.30524
    endloop
  endfacet
  facet normal -0.637781 -0.207216 0.74182
    outer loop
      vertex 4.32946 0.670704 1
      vertex 9.88001 2.57933 6.30524
      vertex 4.29856 0.76581 1
    endloop
  endfacet
  facet normal 0.309017 -0.951056 0
    outer loop
      vertex 9.91091 2.48423 6.30524
      vertex 4.32946 0.670704 1
      vertex 9.91091 2.48423 1
    endloop
  endfacet
  facet normal -1 0 0
    outer loop
      vertex -0.4 2.11241 1
      vertex -0.4 10.1935 9.30524
      vertex -0.4 10.1935 8.30524
    endloop
  endfacet
  facet normal -1 0 0
    outer loop
      vertex -0.4 10.1935 9.30524
      vertex -0.4 2.11241 1
      vertex -0.4 1.00621 1
    endloop
  endfacet
  facet normal 0 1 -0
    outer loop
      vertex 0.7 10.1935 1
      vertex 0.599999 10.1935 6.30524
      vertex 0.7 10.1935 6.30524
    endloop
  endfacet
  facet normal 0 1 0
    outer loop
      vertex 0.599999 10.1935 6.30524
      vertex 0.7 10.1935 1
      vertex -0.599999 10.1935 6.30524
    endloop
  endfacet
  facet normal 0 1 0
    outer loop
      vertex -0.7 10.1935 1
      vertex -0.599999 10.1935 6.30524
      vertex 0.7 10.1935 1
    endloop
  endfacet
  facet normal 0 1 0
    outer loop
      vertex -0.599999 10.1935 6.30524
      vertex -0.7 10.1935 1
      vertex -0.7 10.1935 6.30524
    endloop
  endfacet
  facet normal 0 1 -0
    outer loop
      vertex 0.599999 10.1935 6.30524
      vertex 0.5 10.1935 7.30524
      vertex 0.599999 10.1935 7.30524
    endloop
  endfacet
  facet normal 0 1 0
    outer loop
      vertex 0.5 10.1935 7.30524
      vertex 0.599999 10.1935 6.30524
      vertex -0.5 10.1935 7.30524
    endloop
  endfacet
  facet normal 0 1 0
    outer loop
      vertex -0.599999 10.1935 6.30524
      vertex -0.5 10.1935 7.30524
      vertex 0.599999 10.1935 6.30524
    endloop
  endfacet
  facet normal 0 1 0
    outer loop
      vertex -0.5 10.1935 7.30524
      vertex -0.599999 10.1935 6.30524
      vertex -0.599999 10.1935 7.30524
    endloop
  endfacet
  facet normal 0 1 -0
    outer loop
      vertex 0.5 10.1935 7.30524
      vertex 0.4 10.1935 8.30524
      vertex 0.5 10.1935 8.30524
    endloop
  endfacet
  facet normal 0 1 0
    outer loop
      vertex 0.4 10.1935 8.30524
      vertex 0.5 10.1935 7.30524
      vertex -0.4 10.1935 8.30524
    endloop
  endfacet
  facet normal 0 1 0
    outer loop
      vertex -0.5 10.1935 7.30524
      vertex -0.4 10.1935 8.30524
      vertex 0.5 10.1935 7.30524
    endloop
  endfacet
  facet normal 0 1 0
    outer loop
      vertex -0.4 10.1935 8.30524
      vertex -0.5 10.1935 7.30524
      vertex -0.5 10.1935 8.30524
    endloop
  endfacet
  facet normal 0 1 -0
    outer loop
      vertex 0.4 10.1935 8.30524
      vertex -0.4 10.1935 9.30524
      vertex 0.4 10.1935 9.30524
    endloop
  endfacet
  facet normal 0 1 0
    outer loop
      vertex -0.4 10.1935 9.30524
      vertex 0.4 10.1935 8.30524
      vertex -0.4 10.1935 8.30524
    endloop
  endfacet
  facet normal 0 0 0
    outer loop
      vertex 0.0999993 10.1935 9.30524
      vertex -0.4 10.1935 9.30524
      vertex -0.100001 10.1935 9.30524
    endloop
  endfacet
  facet normal 0 -0.670599 0.74182
    outer loop
      vertex 0.0999993 10.1935 9.30524
      vertex 0.4 1.00621 1
      vertex 0.4 10.1935 9.30524
    endloop
  endfacet
  facet normal 0 -0.670599 0.74182
    outer loop
      vertex 0.4 1.00621 1
      vertex 0.0999993 10.1935 9.30524
      vertex 0.0999993 1.00621 1
    endloop
  endfacet
  facet normal 0 -0.670599 0.74182
    outer loop
      vertex -0.4 10.1935 9.30524
      vertex -0.1 1.00621 1
      vertex -0.100001 10.1935 9.30524
    endloop
  endfacet
  facet normal 0 -0.670599 0.74182
    outer loop
      vertex -0.1 1.00621 1
      vertex -0.4 10.1935 9.30524
      vertex -0.4 1.00621 1
    endloop
  endfacet
  facet normal 0 0 0
    outer loop
      vertex 0.4 10.1935 9.30524
      vertex -0.4 10.1935 9.30524
      vertex 0.0999993 10.1935 9.30524
    endloop
  endfacet
  facet normal 1 0 0
    outer loop
      vertex 0.4 10.1935 9.30524
      vertex 0.4 2.11241 1
      vertex 0.4 10.1935 8.30524
    endloop
  endfacet
  facet normal 1 0 -0
    outer loop
      vertex 0.4 2.11241 1
      vertex 0.4 10.1935 9.30524
      vertex 0.4 1.00621 1
    endloop
  endfacet
  facet normal -1 0 0
    outer loop
      vertex -0.5 3.21862 1
      vertex -0.5 10.1935 8.30524
      vertex -0.5 10.1935 7.30524
    endloop
  endfacet
  facet normal -1 0 0
    outer loop
      vertex -0.5 10.1935 8.30524
      vertex -0.5 3.21862 1
      vertex -0.5 2.11241 1
    endloop
  endfacet
  facet normal 0 -0.670599 0.74182
    outer loop
      vertex -0.5 10.1935 8.30524
      vertex -0.4 2.11241 1
      vertex -0.4 10.1935 8.30524
    endloop
  endfacet
  facet normal 0 -0.670599 0.74182
    outer loop
      vertex -0.4 2.11241 1
      vertex -0.5 10.1935 8.30524
      vertex -0.5 2.11241 1
    endloop
  endfacet
  facet normal 0 -0.670599 0.74182
    outer loop
      vertex 0.4 10.1935 8.30524
      vertex 0.5 2.11241 1
      vertex 0.5 10.1935 8.30524
    endloop
  endfacet
  facet normal 0 -0.670599 0.74182
    outer loop
      vertex 0.5 2.11241 1
      vertex 0.4 10.1935 8.30524
      vertex 0.4 2.11241 1
    endloop
  endfacet
  facet normal 1 0 0
    outer loop
      vertex 0.5 10.1935 8.30524
      vertex 0.5 3.21862 1
      vertex 0.5 10.1935 7.30524
    endloop
  endfacet
  facet normal 1 0 -0
    outer loop
      vertex 0.5 3.21862 1
      vertex 0.5 10.1935 8.30524
      vertex 0.5 2.11241 1
    endloop
  endfacet
  facet normal -1 0 0
    outer loop
      vertex -0.599999 4.32482 1
      vertex -0.599999 10.1935 7.30524
      vertex -0.599999 10.1935 6.30524
    endloop
  endfacet
  facet normal -1 0 0
    outer loop
      vertex -0.599999 10.1935 7.30524
      vertex -0.599999 4.32482 1
      vertex -0.599999 3.21862 1
    endloop
  endfacet
  facet normal 0 -0.670599 0.74182
    outer loop
      vertex -0.599999 10.1935 7.30524
      vertex -0.5 3.21862 1
      vertex -0.5 10.1935 7.30524
    endloop
  endfacet
  facet normal 0 -0.670599 0.74182
    outer loop
      vertex -0.5 3.21862 1
      vertex -0.599999 10.1935 7.30524
      vertex -0.599999 3.21862 1
    endloop
  endfacet
  facet normal 0 -0.670599 0.74182
    outer loop
      vertex 0.5 10.1935 7.30524
      vertex 0.599999 3.21862 1
      vertex 0.599999 10.1935 7.30524
    endloop
  endfacet
  facet normal 0 -0.670599 0.74182
    outer loop
      vertex 0.599999 3.21862 1
      vertex 0.5 10.1935 7.30524
      vertex 0.5 3.21862 1
    endloop
  endfacet
  facet normal 1 0 0
    outer loop
      vertex 0.599999 10.1935 7.30524
      vertex 0.599999 4.32482 1
      vertex 0.599999 10.1935 6.30524
    endloop
  endfacet
  facet normal 1 0 -0
    outer loop
      vertex 0.599999 4.32482 1
      vertex 0.599999 10.1935 7.30524
      vertex 0.599999 3.21862 1
    endloop
  endfacet
  facet normal -1 0 0
    outer loop
      vertex -0.7 10.1935 1
      vertex -0.7 4.32482 1
      vertex -0.7 10.1935 6.30524
    endloop
  endfacet
  facet normal 0 -0.670599 0.74182
    outer loop
      vertex -0.7 10.1935 6.30524
      vertex -0.599999 4.32482 1
      vertex -0.599999 10.1935 6.30524
    endloop
  endfacet
  facet normal 0 -0.670599 0.74182
    outer loop
      vertex -0.599999 4.32482 1
      vertex -0.7 10.1935 6.30524
      vertex -0.7 4.32482 1
    endloop
  endfacet
  facet normal 0 -0.670599 0.74182
    outer loop
      vertex 0.599999 10.1935 6.30524
      vertex 0.7 4.32482 1
      vertex 0.7 10.1935 6.30524
    endloop
  endfacet
  facet normal 0 -0.670599 0.74182
    outer loop
      vertex 0.7 4.32482 1
      vertex 0.599999 10.1935 6.30524
      vertex 0.599999 4.32482 1
    endloop
  endfacet
  facet normal 1 0 0
    outer loop
      vertex 0.7 10.1935 6.30524
      vertex 0.7 4.32482 1
      vertex 0.7 10.1935 1
    endloop
  endfacet
  facet normal -0.309017 -0.951057 0
    outer loop
      vertex -2.13263 0.272349 1
      vertex -9.8182 2.76954 9.30524
      vertex -9.8182 2.76954 8.30524
    endloop
  endfacet
  facet normal -0.309018 -0.951056 -1.47877e-06
    outer loop
      vertex -9.8182 2.76954 9.30524
      vertex -2.13263 0.272349 1
      vertex -1.08057 -0.0694875 1
    endloop
  endfacet
  facet normal -0.951027 0.309109 0
    outer loop
      vertex -9.47828 3.8157 1
      vertex -9.50919 3.7206 6.30524
      vertex -9.47828 3.8157 6.30524
    endloop
  endfacet
  facet normal -0.951066 0.308989 0
    outer loop
      vertex -9.50919 3.7206 6.30524
      vertex -9.54009 3.62549 7.30524
      vertex -9.50919 3.7206 7.30524
    endloop
  endfacet
  facet normal -0.951057 0.309016 -1.83367e-06
    outer loop
      vertex -9.88001 2.57933 6.30524
      vertex -9.50919 3.7206 6.30524
      vertex -9.47828 3.8157 1
    endloop
  endfacet
  facet normal -0.951056 0.309018 0
    outer loop
      vertex -9.54009 3.62549 7.30524
      vertex -9.57099 3.53039 8.30524
      vertex -9.54009 3.62549 8.30524
    endloop
  endfacet
  facet normal -0.951057 0.309016 2.87266e-06
    outer loop
      vertex -9.50919 3.7206 6.30524
      vertex -9.88001 2.57933 6.30524
      vertex -9.54009 3.62549 7.30524
    endloop
  endfacet
  facet normal -0.951058 0.309011 0
    outer loop
      vertex -9.57099 3.53039 8.30524
      vertex -9.8182 2.76954 8.30524
      vertex -9.57099 3.53039 9.30524
    endloop
  endfacet
  facet normal -0.951055 0.309022 -3.44722e-06
    outer loop
      vertex -9.84911 2.67444 7.30524
      vertex -9.54009 3.62549 7.30524
      vertex -9.88001 2.57933 6.30524
    endloop
  endfacet
  facet normal -0.951058 0.309011 1.02531e-05
    outer loop
      vertex -9.57099 3.53039 8.30524
      vertex -9.84911 2.67444 7.30524
      vertex -9.8182 2.76954 8.30524
    endloop
  endfacet
  facet normal -0.951055 0.309022 3.57002e-07
    outer loop
      vertex -9.54009 3.62549 7.30524
      vertex -9.84911 2.67444 7.30524
      vertex -9.57099 3.53039 8.30524
    endloop
  endfacet
  facet normal -0.951055 0.309023 -9.29005e-08
    outer loop
      vertex -9.91091 2.48423 1
      vertex -9.88001 2.57933 6.30524
      vertex -9.47828 3.8157 1
    endloop
  endfacet
  facet normal -0.951056 0.309018 0
    outer loop
      vertex -9.88001 2.57933 6.30524
      vertex -9.91091 2.48423 1
      vertex -9.91091 2.48423 6.30524
    endloop
  endfacet
  facet normal -0.951058 0.309011 0
    outer loop
      vertex -9.57099 3.53039 9.30524
      vertex -9.8182 2.76954 8.30524
      vertex -9.8182 2.76954 9.30524
    endloop
  endfacet
  facet normal -0.951027 0.309109 0
    outer loop
      vertex -9.8182 2.76954 8.30524
      vertex -9.84911 2.67444 7.30524
      vertex -9.84911 2.67444 8.30524
    endloop
  endfacet
  facet normal -0.951066 0.308989 0
    outer loop
      vertex -9.84911 2.67444 7.30524
      vertex -9.88001 2.57933 6.30524
      vertex -9.88001 2.57933 7.30524
    endloop
  endfacet
  facet normal 0.637778 -0.207226 0.74182
    outer loop
      vertex -9.57099 3.53039 9.30524
      vertex -0.926057 0.40604 1
      vertex -0.833352 0.691357 1
    endloop
  endfacet
  facet normal 0.637782 -0.207214 0.74182
    outer loop
      vertex -9.57099 3.53039 9.30524
      vertex -9.66369 3.24507 9.30524
      vertex -0.926057 0.40604 1
    endloop
  endfacet
  facet normal 0 0 1
    outer loop
      vertex -9.57099 3.53039 9.30524
      vertex -9.7255 3.05486 9.30524
      vertex -9.66369 3.24507 9.30524
    endloop
  endfacet
  facet normal 0 -0 -1
    outer loop
      vertex -9.7255 3.05486 9.30524
      vertex -9.57099 3.53039 9.30524
      vertex -9.8182 2.76954 9.30524
    endloop
  endfacet
  facet normal 0.637774 -0.207237 0.74182
    outer loop
      vertex -9.7255 3.05486 9.30524
      vertex -1.08057 -0.0694875 1
      vertex -0.98786 0.215829 1
    endloop
  endfacet
  facet normal 0.637782 -0.207214 0.74182
    outer loop
      vertex -1.08057 -0.0694875 1
      vertex -9.7255 3.05486 9.30524
      vertex -9.8182 2.76954 9.30524
    endloop
  endfacet
  facet normal 0.309013 0.951058 -4.65422e-06
    outer loop
      vertex -1.88542 1.03319 1
      vertex -9.57099 3.53039 9.30524
      vertex -0.833352 0.691357 1
    endloop
  endfacet
  facet normal 0.309018 0.951056 0
    outer loop
      vertex -9.57099 3.53039 9.30524
      vertex -1.88542 1.03319 1
      vertex -9.57099 3.53039 8.30524
    endloop
  endfacet
  facet normal -0.309017 -0.951057 0
    outer loop
      vertex -3.21559 0.519079 1
      vertex -9.84911 2.67444 8.30524
      vertex -9.84911 2.67444 7.30524
    endloop
  endfacet
  facet normal -0.309018 -0.951056 -8.47544e-07
    outer loop
      vertex -9.84911 2.67444 8.30524
      vertex -3.21559 0.519079 1
      vertex -2.16353 0.177243 1
    endloop
  endfacet
  facet normal 0.637781 -0.207216 0.74182
    outer loop
      vertex -9.8182 2.76954 8.30524
      vertex -2.16353 0.177243 1
      vertex -2.13263 0.272349 1
    endloop
  endfacet
  facet normal 0.637757 -0.207288 0.74182
    outer loop
      vertex -2.16353 0.177243 1
      vertex -9.8182 2.76954 8.30524
      vertex -9.84911 2.67444 8.30524
    endloop
  endfacet
  facet normal 0.637764 -0.207268 0.74182
    outer loop
      vertex -9.54009 3.62549 8.30524
      vertex -1.88542 1.03319 1
      vertex -1.85451 1.1283 1
    endloop
  endfacet
  facet normal 0.637778 -0.207227 0.74182
    outer loop
      vertex -1.88542 1.03319 1
      vertex -9.54009 3.62549 8.30524
      vertex -9.57099 3.53039 8.30524
    endloop
  endfacet
  facet normal 0.309018 0.951056 2.4729e-06
    outer loop
      vertex -2.90658 1.47014 1
      vertex -9.54009 3.62549 8.30524
      vertex -1.85451 1.1283 1
    endloop
  endfacet
  facet normal 0.309016 0.951057 0
    outer loop
      vertex -9.54009 3.62549 8.30524
      vertex -2.90658 1.47014 1
      vertex -9.54009 3.62549 7.30524
    endloop
  endfacet
  facet normal -0.309017 -0.951057 0
    outer loop
      vertex -4.29856 0.76581 1
      vertex -9.88001 2.57933 7.30524
      vertex -9.88001 2.57933 6.30524
    endloop
  endfacet
  facet normal -0.309018 -0.951056 -1.24605e-06
    outer loop
      vertex -9.88001 2.57933 7.30524
      vertex -4.29856 0.76581 1
      vertex -3.2465 0.423974 1
    endloop
  endfacet
  facet normal 0.63776 -0.207278 0.74182
    outer loop
      vertex -9.84911 2.67444 7.30524
      vertex -3.2465 0.423974 1
      vertex -3.21559 0.519079 1
    endloop
  endfacet
  facet normal 0.637784 -0.207208 0.74182
    outer loop
      vertex -3.2465 0.423974 1
      vertex -9.84911 2.67444 7.30524
      vertex -9.88001 2.57933 7.30524
    endloop
  endfacet
  facet normal 0.637777 -0.207227 0.74182
    outer loop
      vertex -9.50919 3.7206 7.30524
      vertex -2.90658 1.47014 1
      vertex -2.87568 1.56524 1
    endloop
  endfacet
  facet normal 0.637784 -0.207208 0.74182
    outer loop
      vertex -2.90658 1.47014 1
      vertex -9.50919 3.7206 7.30524
      vertex -9.54009 3.62549 7.30524
    endloop
  endfacet
  facet normal 0.309021 0.951055 4.44693e-06
    outer loop
      vertex -3.92774 1.90708 1
      vertex -9.50919 3.7206 7.30524
      vertex -2.87568 1.56524 1
    endloop
  endfacet
  facet normal 0.309017 0.951057 0
    outer loop
      vertex -9.50919 3.7206 7.30524
      vertex -3.92774 1.90708 1
      vertex -9.50919 3.7206 6.30524
    endloop
  endfacet
  facet normal -0.309017 -0.951056 -0
    outer loop
      vertex -9.91091 2.48423 6.30524
      vertex -9.91091 2.48423 1
      vertex -4.32946 0.670704 1
    endloop
  endfacet
  facet normal 0.637781 -0.207216 0.74182
    outer loop
      vertex -9.88001 2.57933 6.30524
      vertex -4.32946 0.670704 1
      vertex -4.29856 0.76581 1
    endloop
  endfacet
  facet normal 0.637777 -0.207227 0.74182
    outer loop
      vertex -4.32946 0.670704 1
      vertex -9.88001 2.57933 6.30524
      vertex -9.91091 2.48423 6.30524
    endloop
  endfacet
  facet normal 0.637778 -0.207228 0.741819
    outer loop
      vertex -9.47828 3.8157 6.30524
      vertex -3.92774 1.90708 1
      vertex -3.89684 2.00218 1
    endloop
  endfacet
  facet normal 0.637758 -0.207288 0.74182
    outer loop
      vertex -3.92774 1.90708 1
      vertex -9.47828 3.8157 6.30524
      vertex -9.50919 3.7206 6.30524
    endloop
  endfacet
  facet normal 0.309017 0.951057 0
    outer loop
      vertex -3.89684 2.00218 1
      vertex -9.47828 3.8157 1
      vertex -9.47828 3.8157 6.30524
    endloop
  endfacet
  facet normal 0.809017 -0.587785 0
    outer loop
      vertex -5.66798 -8.48183 8.30524
      vertex -0.267826 -1.04915 1
      vertex -5.66798 -8.48183 9.30524
    endloop
  endfacet
  facet normal 0.809017 -0.587785 -4.83523e-07
    outer loop
      vertex -0.267826 -1.04915 1
      vertex -5.66798 -8.48183 8.30524
      vertex -0.918038 -1.94409 1
    endloop
  endfacet
  facet normal -0.587803 -0.809004 0
    outer loop
      vertex -6.5579 -7.83527 1
      vertex -6.477 -7.89405 6.30524
      vertex -6.5579 -7.83527 6.30524
    endloop
  endfacet
  facet normal -0.587784 -0.809018 -4.38812e-07
    outer loop
      vertex -6.477 -7.89405 6.30524
      vertex -6.5579 -7.83527 1
      vertex -5.50618 -8.59939 6.30524
    endloop
  endfacet
  facet normal -0.587787 -0.809016 3.76125e-07
    outer loop
      vertex -5.42528 -8.65817 1
      vertex -5.50618 -8.59939 6.30524
      vertex -6.5579 -7.83527 1
    endloop
  endfacet
  facet normal -0.587803 -0.809004 0
    outer loop
      vertex -5.50618 -8.59939 6.30524
      vertex -5.42528 -8.65817 1
      vertex -5.42528 -8.65817 6.30524
    endloop
  endfacet
  facet normal -0.587738 -0.809052 0
    outer loop
      vertex -6.477 -7.89405 6.30524
      vertex -6.3961 -7.95282 7.30524
      vertex -6.477 -7.89405 7.30524
    endloop
  endfacet
  facet normal -0.587787 -0.809016 6.10557e-06
    outer loop
      vertex -6.3961 -7.95282 7.30524
      vertex -6.477 -7.89405 6.30524
      vertex -5.58708 -8.54061 7.30524
    endloop
  endfacet
  facet normal -0.587784 -0.809018 2.328e-06
    outer loop
      vertex -5.50618 -8.59939 6.30524
      vertex -5.58708 -8.54061 7.30524
      vertex -6.477 -7.89405 6.30524
    endloop
  endfacet
  facet normal -0.587803 -0.809004 0
    outer loop
      vertex -5.58708 -8.54061 7.30524
      vertex -5.50618 -8.59939 6.30524
      vertex -5.50618 -8.59939 7.30524
    endloop
  endfacet
  facet normal -0.587803 -0.809004 0
    outer loop
      vertex -6.3961 -7.95282 7.30524
      vertex -6.3152 -8.0116 8.30524
      vertex -6.3961 -7.95282 8.30524
    endloop
  endfacet
  facet normal -0.587783 -0.809019 -2.48073e-06
    outer loop
      vertex -6.3152 -8.0116 8.30524
      vertex -6.3961 -7.95282 7.30524
      vertex -5.66798 -8.48183 8.30524
    endloop
  endfacet
  facet normal -0.587787 -0.809016 1.98459e-06
    outer loop
      vertex -5.58708 -8.54061 7.30524
      vertex -5.66798 -8.48183 8.30524
      vertex -6.3961 -7.95282 7.30524
    endloop
  endfacet
  facet normal -0.587803 -0.809004 0
    outer loop
      vertex -5.66798 -8.48183 8.30524
      vertex -5.58708 -8.54061 7.30524
      vertex -5.58708 -8.54061 8.30524
    endloop
  endfacet
  facet normal -0.587783 -0.809019 0
    outer loop
      vertex -6.3152 -8.0116 8.30524
      vertex -5.66798 -8.48183 9.30524
      vertex -6.3152 -8.0116 9.30524
    endloop
  endfacet
  facet normal -0.587783 -0.809019 -0
    outer loop
      vertex -5.66798 -8.48183 9.30524
      vertex -6.3152 -8.0116 8.30524
      vertex -5.66798 -8.48183 8.30524
    endloop
  endfacet
  facet normal 0.394169 0.542526 0.74182
    outer loop
      vertex -0.915039 -0.578924 1
      vertex -6.07249 -8.18794 9.30524
      vertex -0.672335 -0.755259 1
    endloop
  endfacet
  facet normal 0.39417 0.542525 0.74182
    outer loop
      vertex -6.07249 -8.18794 9.30524
      vertex -0.915039 -0.578924 1
      vertex -6.3152 -8.0116 9.30524
    endloop
  endfacet
  facet normal 0.394165 0.542528 0.74182
    outer loop
      vertex -0.510532 -0.872816 1
      vertex -5.66798 -8.48183 9.30524
      vertex -0.267826 -1.04915 1
    endloop
  endfacet
  facet normal 0.39417 0.542525 0.74182
    outer loop
      vertex -5.91069 -8.30549 9.30524
      vertex -5.66798 -8.48183 9.30524
      vertex -0.510532 -0.872816 1
    endloop
  endfacet
  facet normal 0 0 1
    outer loop
      vertex -6.07249 -8.18794 9.30524
      vertex -5.66798 -8.48183 9.30524
      vertex -5.91069 -8.30549 9.30524
    endloop
  endfacet
  facet normal 0 0 -1
    outer loop
      vertex -5.66798 -8.48183 9.30524
      vertex -6.07249 -8.18794 9.30524
      vertex -6.3152 -8.0116 9.30524
    endloop
  endfacet
  facet normal -0.809016 0.587786 1.13969e-06
    outer loop
      vertex -6.3152 -8.0116 8.30524
      vertex -0.915039 -0.578924 1
      vertex -1.56525 -1.47386 1
    endloop
  endfacet
  facet normal -0.809017 0.587786 0
    outer loop
      vertex -0.915039 -0.578924 1
      vertex -6.3152 -8.0116 8.30524
      vertex -6.3152 -8.0116 9.30524
    endloop
  endfacet
  facet normal 0.809017 -0.587785 0
    outer loop
      vertex -5.58708 -8.54061 7.30524
      vertex -0.837136 -2.00287 1
      vertex -5.58708 -8.54061 8.30524
    endloop
  endfacet
  facet normal 0.809016 -0.587786 -2.17824e-06
    outer loop
      vertex -0.837136 -2.00287 1
      vertex -5.58708 -8.54061 7.30524
      vertex -1.48735 -2.89781 1
    endloop
  endfacet
  facet normal 0.394174 0.542522 0.74182
    outer loop
      vertex -0.918038 -1.94409 1
      vertex -5.58708 -8.54061 8.30524
      vertex -0.837136 -2.00287 1
    endloop
  endfacet
  facet normal 0.39418 0.542518 0.74182
    outer loop
      vertex -5.58708 -8.54061 8.30524
      vertex -0.918038 -1.94409 1
      vertex -5.66798 -8.48183 8.30524
    endloop
  endfacet
  facet normal 0.39418 0.542517 0.74182
    outer loop
      vertex -1.64615 -1.41508 1
      vertex -6.3152 -8.0116 8.30524
      vertex -1.56525 -1.47386 1
    endloop
  endfacet
  facet normal 0.39418 0.542517 0.74182
    outer loop
      vertex -6.3152 -8.0116 8.30524
      vertex -1.64615 -1.41508 1
      vertex -6.3961 -7.95282 8.30524
    endloop
  endfacet
  facet normal -0.809018 0.587784 -2.34091e-06
    outer loop
      vertex -6.3961 -7.95282 7.30524
      vertex -1.64615 -1.41508 1
      vertex -2.29636 -2.31002 1
    endloop
  endfacet
  facet normal -0.809017 0.587786 0
    outer loop
      vertex -1.64615 -1.41508 1
      vertex -6.3961 -7.95282 7.30524
      vertex -6.3961 -7.95282 8.30524
    endloop
  endfacet
  facet normal 0.809017 -0.587785 0
    outer loop
      vertex -5.50618 -8.59939 6.30524
      vertex -1.40645 -2.95659 1
      vertex -5.50618 -8.59939 7.30524
    endloop
  endfacet
  facet normal 0.809018 -0.587784 1.25722e-06
    outer loop
      vertex -1.40645 -2.95659 1
      vertex -5.50618 -8.59939 6.30524
      vertex -2.05666 -3.85153 1
    endloop
  endfacet
  facet normal 0.39418 0.542518 0.74182
    outer loop
      vertex -1.48735 -2.89781 1
      vertex -5.50618 -8.59939 7.30524
      vertex -1.40645 -2.95659 1
    endloop
  endfacet
  facet normal 0.39418 0.542518 0.74182
    outer loop
      vertex -5.50618 -8.59939 7.30524
      vertex -1.48735 -2.89781 1
      vertex -5.58708 -8.54061 7.30524
    endloop
  endfacet
  facet normal 0.39418 0.542517 0.74182
    outer loop
      vertex -2.37726 -2.25124 1
      vertex -6.3961 -7.95282 7.30524
      vertex -2.29636 -2.31002 1
    endloop
  endfacet
  facet normal 0.394136 0.542549 0.74182
    outer loop
      vertex -6.3961 -7.95282 7.30524
      vertex -2.37726 -2.25124 1
      vertex -6.477 -7.89405 7.30524
    endloop
  endfacet
  facet normal -0.809014 0.58779 7.94085e-06
    outer loop
      vertex -6.477 -7.89405 6.30524
      vertex -2.37726 -2.25124 1
      vertex -3.02748 -3.14618 1
    endloop
  endfacet
  facet normal -0.809017 0.587785 0
    outer loop
      vertex -2.37726 -2.25124 1
      vertex -6.477 -7.89405 6.30524
      vertex -6.477 -7.89405 7.30524
    endloop
  endfacet
  facet normal 0.809017 -0.587785 0
    outer loop
      vertex -5.42528 -8.65817 6.30524
      vertex -5.42528 -8.65817 1
      vertex -1.97575 -3.9103 1
    endloop
  endfacet
  facet normal 0.394104 0.542572 0.74182
    outer loop
      vertex -2.05666 -3.85153 1
      vertex -5.42528 -8.65817 6.30524
      vertex -1.97575 -3.9103 1
    endloop
  endfacet
  facet normal 0.39418 0.542518 0.74182
    outer loop
      vertex -5.42528 -8.65817 6.30524
      vertex -2.05666 -3.85153 1
      vertex -5.50618 -8.59939 6.30524
    endloop
  endfacet
  facet normal 0.39418 0.542517 0.74182
    outer loop
      vertex -3.10838 -3.0874 1
      vertex -6.477 -7.89405 6.30524
      vertex -3.02748 -3.14618 1
    endloop
  endfacet
  facet normal 0.39418 0.542517 0.74182
    outer loop
      vertex -6.477 -7.89405 6.30524
      vertex -3.10838 -3.0874 1
      vertex -6.5579 -7.83527 6.30524
    endloop
  endfacet
  facet normal -0.809018 0.587784 0
    outer loop
      vertex -3.10838 -3.0874 1
      vertex -6.5579 -7.83527 1
      vertex -6.5579 -7.83527 6.30524
    endloop
  endfacet
  facet normal 0.809017 0.587786 -0
    outer loop
      vertex 6.3152 -8.0116 8.30524
      vertex 0.915039 -0.578924 1
      vertex 6.3152 -8.0116 9.30524
    endloop
  endfacet
  facet normal 0.809016 0.587786 1.13969e-06
    outer loop
      vertex 0.915039 -0.578924 1
      vertex 6.3152 -8.0116 8.30524
      vertex 1.56525 -1.47386 1
    endloop
  endfacet
  facet normal 0.587803 -0.809004 0
    outer loop
      vertex 5.42528 -8.65817 1
      vertex 5.50618 -8.59939 6.30524
      vertex 5.42528 -8.65817 6.30524
    endloop
  endfacet
  facet normal 0.587784 -0.809018 4.38812e-07
    outer loop
      vertex 5.50618 -8.59939 6.30524
      vertex 5.42528 -8.65817 1
      vertex 6.477 -7.89405 6.30524
    endloop
  endfacet
  facet normal 0.587787 -0.809016 -3.76125e-07
    outer loop
      vertex 6.5579 -7.83527 1
      vertex 6.477 -7.89405 6.30524
      vertex 5.42528 -8.65817 1
    endloop
  endfacet
  facet normal 0.587803 -0.809004 0
    outer loop
      vertex 6.477 -7.89405 6.30524
      vertex 6.5579 -7.83527 1
      vertex 6.5579 -7.83527 6.30524
    endloop
  endfacet
  facet normal 0.587803 -0.809004 0
    outer loop
      vertex 5.50618 -8.59939 6.30524
      vertex 5.58708 -8.54061 7.30524
      vertex 5.50618 -8.59939 7.30524
    endloop
  endfacet
  facet normal 0.587787 -0.809016 1.98459e-06
    outer loop
      vertex 5.58708 -8.54061 7.30524
      vertex 5.50618 -8.59939 6.30524
      vertex 6.3961 -7.95282 7.30524
    endloop
  endfacet
  facet normal 0.587784 -0.809018 5.76217e-06
    outer loop
      vertex 6.477 -7.89405 6.30524
      vertex 6.3961 -7.95282 7.30524
      vertex 5.50618 -8.59939 6.30524
    endloop
  endfacet
  facet normal 0.587738 -0.809052 0
    outer loop
      vertex 6.3961 -7.95282 7.30524
      vertex 6.477 -7.89405 6.30524
      vertex 6.477 -7.89405 7.30524
    endloop
  endfacet
  facet normal 0.587803 -0.809004 0
    outer loop
      vertex 5.58708 -8.54061 7.30524
      vertex 5.66798 -8.48183 8.30524
      vertex 5.58708 -8.54061 8.30524
    endloop
  endfacet
  facet normal 0.587783 -0.809019 2.48073e-06
    outer loop
      vertex 5.66798 -8.48183 8.30524
      vertex 5.58708 -8.54061 7.30524
      vertex 6.3152 -8.0116 8.30524
    endloop
  endfacet
  facet normal 0.587787 -0.809016 -1.98459e-06
    outer loop
      vertex 6.3961 -7.95282 7.30524
      vertex 6.3152 -8.0116 8.30524
      vertex 5.58708 -8.54061 7.30524
    endloop
  endfacet
  facet normal 0.587803 -0.809004 0
    outer loop
      vertex 6.3152 -8.0116 8.30524
      vertex 6.3961 -7.95282 7.30524
      vertex 6.3961 -7.95282 8.30524
    endloop
  endfacet
  facet normal 0.587783 -0.809019 0
    outer loop
      vertex 5.66798 -8.48183 8.30524
      vertex 6.3152 -8.0116 9.30524
      vertex 5.66798 -8.48183 9.30524
    endloop
  endfacet
  facet normal 0.587783 -0.809019 0
    outer loop
      vertex 6.3152 -8.0116 9.30524
      vertex 5.66798 -8.48183 8.30524
      vertex 6.3152 -8.0116 8.30524
    endloop
  endfacet
  facet normal -0.394155 0.542536 0.74182
    outer loop
      vertex 0.510531 -0.872816 1
      vertex 5.66798 -8.48183 9.30524
      vertex 5.91069 -8.3055 9.30524
    endloop
  endfacet
  facet normal -0.394166 0.542528 0.74182
    outer loop
      vertex 5.66798 -8.48183 9.30524
      vertex 0.510531 -0.872816 1
      vertex 0.267826 -1.04915 1
    endloop
  endfacet
  facet normal -0 0 -1
    outer loop
      vertex 5.91069 -8.3055 9.30524
      vertex 5.66798 -8.48183 9.30524
      vertex 6.3152 -8.0116 9.30524
    endloop
  endfacet
  facet normal 0.39418 -0.542517 -0.74182
    outer loop
      vertex 0.672334 -0.75526 1
      vertex 6.07249 -8.18794 9.30524
      vertex 5.91069 -8.3055 9.30524
    endloop
  endfacet
  facet normal -0.394169 0.542525 0.74182
    outer loop
      vertex 0.915039 -0.578924 1
      vertex 0.672334 -0.75526 1
      vertex 5.91069 -8.3055 9.30524
    endloop
  endfacet
  facet normal -0.394174 0.542522 0.74182
    outer loop
      vertex 6.3152 -8.0116 9.30524
      vertex 0.915039 -0.578924 1
      vertex 5.91069 -8.3055 9.30524
    endloop
  endfacet
  facet normal -0.809017 -0.587785 -4.83523e-07
    outer loop
      vertex 5.66798 -8.48183 8.30524
      vertex 0.267826 -1.04915 1
      vertex 0.918038 -1.94409 1
    endloop
  endfacet
  facet normal -0.809017 -0.587785 0
    outer loop
      vertex 0.267826 -1.04915 1
      vertex 5.66798 -8.48183 8.30524
      vertex 5.66798 -8.48183 9.30524
    endloop
  endfacet
  facet normal 0.809017 0.587786 -0
    outer loop
      vertex 6.3961 -7.95282 7.30524
      vertex 1.64615 -1.41508 1
      vertex 6.3961 -7.95282 8.30524
    endloop
  endfacet
  facet normal 0.809018 0.587784 -2.34091e-06
    outer loop
      vertex 1.64615 -1.41508 1
      vertex 6.3961 -7.95282 7.30524
      vertex 2.29636 -2.31002 1
    endloop
  endfacet
  facet normal -0.39418 0.542517 0.74182
    outer loop
      vertex 1.64615 -1.41508 1
      vertex 6.3152 -8.0116 8.30524
      vertex 6.3961 -7.95282 8.30524
    endloop
  endfacet
  facet normal -0.39418 0.542517 0.74182
    outer loop
      vertex 6.3152 -8.0116 8.30524
      vertex 1.64615 -1.41508 1
      vertex 1.56525 -1.47386 1
    endloop
  endfacet
  facet normal -0.39418 0.542518 0.74182
    outer loop
      vertex 0.918038 -1.94409 1
      vertex 5.58708 -8.54061 8.30524
      vertex 5.66798 -8.48183 8.30524
    endloop
  endfacet
  facet normal -0.394174 0.542522 0.74182
    outer loop
      vertex 5.58708 -8.54061 8.30524
      vertex 0.918038 -1.94409 1
      vertex 0.837136 -2.00287 1
    endloop
  endfacet
  facet normal -0.809016 -0.587786 -2.17824e-06
    outer loop
      vertex 5.58708 -8.54061 7.30524
      vertex 0.837136 -2.00287 1
      vertex 1.48735 -2.89781 1
    endloop
  endfacet
  facet normal -0.809017 -0.587785 0
    outer loop
      vertex 0.837136 -2.00287 1
      vertex 5.58708 -8.54061 7.30524
      vertex 5.58708 -8.54061 8.30524
    endloop
  endfacet
  facet normal 0.809017 0.587785 -0
    outer loop
      vertex 6.477 -7.89405 6.30524
      vertex 2.37726 -2.25124 1
      vertex 6.477 -7.89405 7.30524
    endloop
  endfacet
  facet normal 0.809014 0.58779 7.94085e-06
    outer loop
      vertex 2.37726 -2.25124 1
      vertex 6.477 -7.89405 6.30524
      vertex 3.02748 -3.14618 1
    endloop
  endfacet
  facet normal -0.394136 0.542549 0.74182
    outer loop
      vertex 2.37726 -2.25124 1
      vertex 6.3961 -7.95282 7.30524
      vertex 6.477 -7.89405 7.30524
    endloop
  endfacet
  facet normal -0.39418 0.542517 0.74182
    outer loop
      vertex 6.3961 -7.95282 7.30524
      vertex 2.37726 -2.25124 1
      vertex 2.29636 -2.31002 1
    endloop
  endfacet
  facet normal -0.39418 0.542518 0.74182
    outer loop
      vertex 1.48735 -2.89781 1
      vertex 5.50618 -8.59939 7.30524
      vertex 5.58708 -8.54061 7.30524
    endloop
  endfacet
  facet normal -0.39418 0.542518 0.74182
    outer loop
      vertex 5.50618 -8.59939 7.30524
      vertex 1.48735 -2.89781 1
      vertex 1.40645 -2.95659 1
    endloop
  endfacet
  facet normal -0.809018 -0.587784 1.25722e-06
    outer loop
      vertex 5.50618 -8.59939 6.30524
      vertex 1.40645 -2.95659 1
      vertex 2.05666 -3.85153 1
    endloop
  endfacet
  facet normal -0.809017 -0.587785 0
    outer loop
      vertex 1.40645 -2.95659 1
      vertex 5.50618 -8.59939 6.30524
      vertex 5.50618 -8.59939 7.30524
    endloop
  endfacet
  facet normal 0.809018 0.587784 -0
    outer loop
      vertex 6.5579 -7.83527 1
      vertex 3.10838 -3.0874 1
      vertex 6.5579 -7.83527 6.30524
    endloop
  endfacet
  facet normal -0.39418 0.542517 0.74182
    outer loop
      vertex 3.10838 -3.0874 1
      vertex 6.477 -7.89405 6.30524
      vertex 6.5579 -7.83527 6.30524
    endloop
  endfacet
  facet normal -0.39418 0.542517 0.74182
    outer loop
      vertex 6.477 -7.89405 6.30524
      vertex 3.10838 -3.0874 1
      vertex 3.02748 -3.14618 1
    endloop
  endfacet
  facet normal -0.39418 0.542518 0.74182
    outer loop
      vertex 2.05666 -3.85153 1
      vertex 5.42528 -8.65817 6.30524
      vertex 5.50618 -8.59939 6.30524
    endloop
  endfacet
  facet normal -0.394104 0.542572 0.74182
    outer loop
      vertex 5.42528 -8.65817 6.30524
      vertex 2.05666 -3.85153 1
      vertex 1.97575 -3.9103 1
    endloop
  endfacet
  facet normal -0.809017 -0.587785 -0
    outer loop
      vertex 5.42528 -8.65817 6.30524
      vertex 1.97575 -3.9103 1
      vertex 5.42528 -8.65817 1
    endloop
  endfacet
endsolid OpenSCAD_Model
