solid OpenSCAD_Model
  facet normal -0.408251 0.707105 -0.577351
    outer loop
      vertex 2.86994 5.17089 7.30366
      vertex -5.47053 9.47523 18.473
      vertex 5.35506 9.47523 10.8181
    endloop
  endfacet
  facet normal -0.408245 0.707108 -0.577351
    outer loop
      vertex -5.47053 9.47523 18.473
      vertex -5.91316 0.1 7.30371
      vertex -10.8833 0.1 10.8181
    endloop
  endfacet
  facet normal -0.408249 0.707107 -0.57735
    outer loop
      vertex -5.47053 9.47523 18.473
      vertex 2.86994 5.17089 7.30366
      vertex -5.91316 0.1 7.30371
    endloop
  endfacet
  facet normal -0.408248 0.707106 -0.577351
    outer loop
      vertex -5.91316 0.1 7.30371
      vertex 2.86994 5.17089 7.30366
      vertex -0.0338762 0.0586755 3.09582
    endloop
  endfacet
  facet normal -0.408083 0.707227 -0.577321
    outer loop
      vertex -10.8988 0 10.7066
      vertex -10.9411 0 10.7365
      vertex -10.8988 0.0732236 10.7963
    endloop
  endfacet
  facet normal -0.408266 0.707188 -0.577238
    outer loop
      vertex 5.44939 9.43862 10.7066
      vertex 5.38598 9.47523 10.7963
      vertex 5.47053 9.47523 10.7365
    endloop
  endfacet
  facet normal -0.817206 0.00122478 0.576345
    outer loop
      vertex -10.8632 0.1 10.8466
      vertex -5.47053 9.47523 18.473
      vertex -10.8833 0.1 10.8181
    endloop
  endfacet
  facet normal -0.816497 0 0.57735
    outer loop
      vertex 0 0 26.2095
      vertex -10.8632 0.1 10.8466
      vertex -10.8632 0.0993539 10.8466
    endloop
  endfacet
  facet normal -0.816497 -3.30093e-07 0.57735
    outer loop
      vertex -10.8632 0.1 10.8466
      vertex 0 0 26.2095
      vertex -5.47053 9.47523 18.473
    endloop
  endfacet
  facet normal -0.816497 0 0.57735
    outer loop
      vertex -10.8632 -0.0999997 10.8466
      vertex 0 0 26.2095
      vertex -10.8632 0.0993539 10.8466
    endloop
  endfacet
  facet normal -0.816497 3.30093e-07 0.57735
    outer loop
      vertex 0 0 26.2095
      vertex -10.8632 -0.0999997 10.8466
      vertex -5.47053 -9.47523 18.473
    endloop
  endfacet
  facet normal -0.817206 -0.00122478 0.576345
    outer loop
      vertex -10.8833 -0.0999997 10.8181
      vertex -5.47053 -9.47523 18.473
      vertex -10.8632 -0.0999997 10.8466
    endloop
  endfacet
  facet normal -0.8164 0 0.577487
    outer loop
      vertex -10.8988 0.0732236 10.7963
      vertex -10.9411 0 10.7365
      vertex -10.8988 -0.0732228 10.7963
    endloop
  endfacet
  facet normal 0.408247 -0.707107 0.577351
    outer loop
      vertex 5.34501 -9.45783 10.8466
      vertex 0 0 26.2095
      vertex -5.47053 -9.47523 18.473
    endloop
  endfacet
  facet normal 0.408247 -0.707107 0.577351
    outer loop
      vertex 0 0 26.2095
      vertex 5.34501 -9.45783 10.8466
      vertex 10.9411 0 18.473
    endloop
  endfacet
  facet normal 0.407457 -0.708478 0.576227
    outer loop
      vertex 5.34501 -9.45783 10.8466
      vertex -5.47053 -9.47523 18.473
      vertex 5.35506 -9.47523 10.8181
    endloop
  endfacet
  facet normal 0.408209 -0.707106 0.577378
    outer loop
      vertex 5.51766 -9.35816 10.8466
      vertex 10.9411 0 18.473
      vertex 5.34501 -9.45783 10.8466
    endloop
  endfacet
  facet normal 0.416674 -0.707083 0.571329
    outer loop
      vertex 5.51822 -9.35783 10.8466
      vertex 10.9411 0 18.473
      vertex 5.51766 -9.35816 10.8466
    endloop
  endfacet
  facet normal 0.409965 -0.707108 0.576131
    outer loop
      vertex 10.9411 0 18.473
      vertex 5.51822 -9.35783 10.8466
      vertex 5.52826 -9.37523 10.8181
    endloop
  endfacet
  facet normal 0.408282 -0.70716 0.577261
    outer loop
      vertex 5.5128 -9.40201 10.7963
      vertex 5.38598 -9.47523 10.7963
      vertex 5.47053 -9.47523 10.7365
    endloop
  endfacet
  facet normal 0.408247 0.707107 0.577351
    outer loop
      vertex 5.34501 9.45783 10.8466
      vertex 0 0 26.2095
      vertex 10.9411 0 18.473
    endloop
  endfacet
  facet normal 0.408237 0.707107 0.577358
    outer loop
      vertex 5.34501 9.45783 10.8466
      vertex 10.9411 0 18.473
      vertex 5.51822 9.35783 10.8466
    endloop
  endfacet
  facet normal 0.409965 0.707108 0.576131
    outer loop
      vertex 5.51822 9.35783 10.8466
      vertex 10.9411 0 18.473
      vertex 5.52826 9.37523 10.8181
    endloop
  endfacet
  facet normal 0.408247 0.707107 0.577351
    outer loop
      vertex 0 0 26.2095
      vertex 5.34501 9.45783 10.8466
      vertex -5.47053 9.47523 18.473
    endloop
  endfacet
  facet normal 0.407457 0.708478 0.576227
    outer loop
      vertex -5.47053 9.47523 18.473
      vertex 5.34501 9.45783 10.8466
      vertex 5.35506 9.47523 10.8181
    endloop
  endfacet
  facet normal 0.408282 0.70716 0.577261
    outer loop
      vertex 5.47053 9.47523 10.7365
      vertex 5.38598 9.47523 10.7963
      vertex 5.5128 9.40201 10.7963
    endloop
  endfacet
  facet normal 0.816495 -2.07078e-06 -0.577353
    outer loop
      vertex 10.9411 0 18.473
      vertex 3.04315 5.07089 7.30366
      vertex 5.52826 9.37523 10.8181
    endloop
  endfacet
  facet normal 0.816495 -4.31159e-07 -0.577352
    outer loop
      vertex 3.04318 -5.07095 7.30371
      vertex 3.04315 5.07089 7.30366
      vertex 10.9411 0 18.473
    endloop
  endfacet
  facet normal 0.816496 -4.31149e-07 -0.577351
    outer loop
      vertex 3.04315 5.07089 7.30366
      vertex 3.04318 -5.07095 7.30371
      vertex 0.0677526 1.1422e-07 3.09582
    endloop
  endfacet
  facet normal 0.816495 2.57876e-06 -0.577353
    outer loop
      vertex 3.04318 -5.07095 7.30371
      vertex 10.9411 0 18.473
      vertex 5.52826 -9.37523 10.8181
    endloop
  endfacet
  facet normal 0.816561 5.57608e-05 -0.577259
    outer loop
      vertex 5.47053 -9.47523 10.7365
      vertex 5.44939 -9.43862 10.7066
      vertex 5.5128 -9.40201 10.7963
    endloop
  endfacet
  facet normal 0.816561 -5.57608e-05 -0.577259
    outer loop
      vertex 5.5128 9.40201 10.7963
      vertex 5.44939 9.43862 10.7066
      vertex 5.47053 9.47523 10.7365
    endloop
  endfacet
  facet normal -0.40808 -0.70723 -0.577318
    outer loop
      vertex -10.8988 -0.0732228 10.7963
      vertex -10.9411 0 10.7365
      vertex -10.8988 0 10.7066
    endloop
  endfacet
  facet normal -0.408246 -0.707108 -0.577351
    outer loop
      vertex -5.91308 -0.0999996 7.30365
      vertex -5.47053 -9.47523 18.473
      vertex -10.8833 -0.0999997 10.8181
    endloop
  endfacet
  facet normal -0.408249 -0.707107 -0.57735
    outer loop
      vertex 2.86994 -5.17088 7.30365
      vertex -5.47053 -9.47523 18.473
      vertex -5.91308 -0.0999996 7.30365
    endloop
  endfacet
  facet normal -0.408252 -0.707104 -0.577351
    outer loop
      vertex -5.47053 -9.47523 18.473
      vertex 2.86994 -5.17088 7.30365
      vertex 5.35506 -9.47523 10.8181
    endloop
  endfacet
  facet normal -0.408248 -0.707107 -0.57735
    outer loop
      vertex -1.57633 -0.0695175 4.19977
      vertex 2.86994 -5.17088 7.30365
      vertex -5.91308 -0.0999996 7.30365
    endloop
  endfacet
  facet normal -0.408249 -0.707107 -0.57735
    outer loop
      vertex -1.57633 -0.0695175 4.19977
      vertex 0.727959 -1.3999 4.19977
      vertex 2.86994 -5.17088 7.30365
    endloop
  endfacet
  facet normal -0.408247 -0.707105 -0.577353
    outer loop
      vertex 0.727959 -1.3999 4.19977
      vertex -1.57633 -0.0695175 4.19977
      vertex -0.0338765 -0.0586758 3.09582
    endloop
  endfacet
  facet normal -0.408266 -0.707188 -0.577238
    outer loop
      vertex 5.47053 -9.47523 10.7365
      vertex 5.38598 -9.47523 10.7963
      vertex 5.44939 -9.43862 10.7066
    endloop
  endfacet
  facet normal 0 0 -1
    outer loop
      vertex 4.3861 -10.5969 0
      vertex 1.73205 -1.03736e-07 0
      vertex 6.98418 -9.09695 0
    endloop
  endfacet
  facet normal 0 -0 -1
    outer loop
      vertex 1.73205 -1.03736e-07 0
      vertex 4.3861 -10.5969 0
      vertex -0.866025 -1.5 0
    endloop
  endfacet
  facet normal 0 0 -1
    outer loop
      vertex 1.73205 -1.03736e-07 0
      vertex 4.3861 10.5969 0
      vertex 6.98418 9.09695 0
    endloop
  endfacet
  facet normal 0 0 -1
    outer loop
      vertex -0.866025 1.5 0
      vertex 1.73205 -1.03736e-07 0
      vertex -0.866025 -1.5 0
    endloop
  endfacet
  facet normal 0 0 -1
    outer loop
      vertex 1.73205 -1.03736e-07 0
      vertex -0.866025 1.5 0
      vertex 4.3861 10.5969 0
    endloop
  endfacet
  facet normal 0 0 -1
    outer loop
      vertex -11.3703 -1.5 0
      vertex -0.866025 1.5 0
      vertex -0.866025 -1.5 0
    endloop
  endfacet
  facet normal -0 0 -1
    outer loop
      vertex -0.866025 1.5 0
      vertex -11.3703 -1.5 0
      vertex -11.3703 1.5 0
    endloop
  endfacet
  facet normal 0 0 1
    outer loop
      vertex 6.98418 9.09695 1
      vertex 4.84317 9.78862 1
      vertex 6.05561 9.08862 1
    endloop
  endfacet
  facet normal 0 0 1
    outer loop
      vertex 4.3861 10.5969 1
      vertex 4.84317 9.78862 1
      vertex 6.98418 9.09695 1
    endloop
  endfacet
  facet normal 0 0 1
    outer loop
      vertex 4.3861 10.5969 1
      vertex 2.13819 5.10345 1
      vertex 4.84317 9.78862 1
    endloop
  endfacet
  facet normal 0 0 1
    outer loop
      vertex -0.866025 1.5 1
      vertex 2.13819 5.10345 1
      vertex 4.3861 10.5969 1
    endloop
  endfacet
  facet normal 0 0 1
    outer loop
      vertex 2.13819 5.10345 1
      vertex -0.866025 1.5 1
      vertex 1.52619 3.84344 1
    endloop
  endfacet
  facet normal 0 0 1
    outer loop
      vertex 1.52619 3.84344 1
      vertex -0.866025 1.5 1
      vertex 0.914191 2.58343 1
    endloop
  endfacet
  facet normal 0 0 1
    outer loop
      vertex 0.914191 2.58343 1
      vertex -0.866025 1.5 1
      vertex 0.302192 1.32341 1
    endloop
  endfacet
  facet normal 0 0 1
    outer loop
      vertex -0.866025 1.5 1
      vertex -0.0577343 0.1 1
      vertex 0.302192 1.32341 1
    endloop
  endfacet
  facet normal -0 0 1
    outer loop
      vertex -1.2972 0.4 1
      vertex -0.0577343 0.1 1
      vertex -0.866025 1.5 1
    endloop
  endfacet
  facet normal 0 0 1
    outer loop
      vertex -0.0577343 0.1 1
      vertex -1.2972 0.4 1
      vertex -1.2972 0.1 1
    endloop
  endfacet
  facet normal 0 0 1
    outer loop
      vertex 3.35063 4.40345 1
      vertex 6.98418 9.09695 1
      vertex 6.05561 9.08862 1
    endloop
  endfacet
  facet normal 0 0 1
    outer loop
      vertex 2.56542 3.24344 1
      vertex 3.35063 4.40345 1
      vertex 3.26402 4.45345 1
    endloop
  endfacet
  facet normal 0 0 1
    outer loop
      vertex 1.73205 -1.03736e-07 1
      vertex 3.35063 4.40345 1
      vertex 2.56542 3.24344 1
    endloop
  endfacet
  facet normal 0 0 1
    outer loop
      vertex 1.78022 2.08343 1
      vertex 2.56542 3.24344 1
      vertex 2.47882 3.29344 1
    endloop
  endfacet
  facet normal 0 0 1
    outer loop
      vertex 1.73205 -1.03736e-07 1
      vertex 2.56542 3.24344 1
      vertex 1.78022 2.08343 1
    endloop
  endfacet
  facet normal -0 0 1
    outer loop
      vertex 3.35063 4.40345 1
      vertex 1.73205 -1.03736e-07 1
      vertex 6.98418 9.09695 1
    endloop
  endfacet
  facet normal 0 0 1
    outer loop
      vertex 0.995012 0.923412 1
      vertex 1.78022 2.08343 1
      vertex 1.69361 2.13343 1
    endloop
  endfacet
  facet normal 0 0 1
    outer loop
      vertex 2.22479 5.05345 1
      vertex 2.13819 5.10345 1
      vertex 1.52619 3.84344 1
    endloop
  endfacet
  facet normal 0 0 1
    outer loop
      vertex 0.562 -1.17341 1
      vertex -0.0577347 -0.0999995 1
      vertex 0.302192 -1.32341 1
    endloop
  endfacet
  facet normal 0 0 1
    outer loop
      vertex 1.00079 -2.53343 1
      vertex 0.302192 -1.32341 1
      vertex 0.914191 -2.58343 1
    endloop
  endfacet
  facet normal 0 0 1
    outer loop
      vertex 1.61279 -3.79344 1
      vertex 0.914191 -2.58343 1
      vertex 1.52619 -3.84344 1
    endloop
  endfacet
  facet normal 0 0 1
    outer loop
      vertex 2.22479 -5.05345 1
      vertex 1.52619 -3.84344 1
      vertex 2.13819 -5.10345 1
    endloop
  endfacet
  facet normal 0 0 1
    outer loop
      vertex 6.98418 -9.09695 1
      vertex 3.35063 -4.40345 1
      vertex 6.05561 -9.08862 1
    endloop
  endfacet
  facet normal 0 0 1
    outer loop
      vertex 3.35063 -4.40345 1
      vertex 2.56542 -3.24344 1
      vertex 3.26402 -4.45345 1
    endloop
  endfacet
  facet normal 0 0 1
    outer loop
      vertex 1.73205 -1.03736e-07 1
      vertex 3.35063 -4.40345 1
      vertex 6.98418 -9.09695 1
    endloop
  endfacet
  facet normal 0 0 1
    outer loop
      vertex 2.56542 -3.24344 1
      vertex 1.78022 -2.08343 1
      vertex 2.47882 -3.29344 1
    endloop
  endfacet
  facet normal 0 0 1
    outer loop
      vertex 3.35063 -4.40345 1
      vertex 1.73205 -1.03736e-07 1
      vertex 2.56542 -3.24344 1
    endloop
  endfacet
  facet normal 0 0 1
    outer loop
      vertex 2.56542 -3.24344 1
      vertex 1.73205 -1.03736e-07 1
      vertex 1.78022 -2.08343 1
    endloop
  endfacet
  facet normal -0 0 1
    outer loop
      vertex 0.995012 -0.923412 1
      vertex 1.78022 -2.08343 1
      vertex 1.73205 -1.03736e-07 1
    endloop
  endfacet
  facet normal 0 0 1
    outer loop
      vertex 1.78022 2.08343 1
      vertex 0.995012 0.923412 1
      vertex 1.73205 -1.03736e-07 1
    endloop
  endfacet
  facet normal -0 0 1
    outer loop
      vertex 0.11547 7.1392e-07 1
      vertex 1.73205 -1.03736e-07 1
      vertex 0.995012 0.923412 1
    endloop
  endfacet
  facet normal 0 0 1
    outer loop
      vertex 1.78022 -2.08343 1
      vertex 0.995012 -0.923412 1
      vertex 1.69361 -2.13343 1
    endloop
  endfacet
  facet normal 0 0 1
    outer loop
      vertex 1.73205 -1.03736e-07 1
      vertex 0.11547 7.1392e-07 1
      vertex 0.995012 -0.923412 1
    endloop
  endfacet
  facet normal 0 0 1
    outer loop
      vertex 0.11547 7.1392e-07 1
      vertex 0.995012 0.923412 1
      vertex 0.735204 1.07341 1
    endloop
  endfacet
  facet normal 0 0 1
    outer loop
      vertex 0.995012 -0.923412 1
      vertex 0.11547 7.1392e-07 1
      vertex 0.735205 -1.07341 1
    endloop
  endfacet
  facet normal 0 0 1
    outer loop
      vertex 4.84317 -9.78862 1
      vertex 6.98418 -9.09695 1
      vertex 6.05561 -9.08862 1
    endloop
  endfacet
  facet normal -0 0 1
    outer loop
      vertex 4.84317 -9.78862 1
      vertex 4.3861 -10.5969 1
      vertex 6.98418 -9.09695 1
    endloop
  endfacet
  facet normal 0 0 1
    outer loop
      vertex 2.13819 -5.10345 1
      vertex 4.3861 -10.5969 1
      vertex 4.84317 -9.78862 1
    endloop
  endfacet
  facet normal 0 0 1
    outer loop
      vertex -0.866025 -1.5 1
      vertex 2.13819 -5.10345 1
      vertex 1.52619 -3.84344 1
    endloop
  endfacet
  facet normal 0 0 1
    outer loop
      vertex -0.866025 -1.5 1
      vertex 1.52619 -3.84344 1
      vertex 0.914191 -2.58343 1
    endloop
  endfacet
  facet normal -0 0 1
    outer loop
      vertex -0.866025 -1.5 1
      vertex 0.914191 -2.58343 1
      vertex 0.302192 -1.32341 1
    endloop
  endfacet
  facet normal 0 0 1
    outer loop
      vertex 2.13819 -5.10345 1
      vertex -0.866025 -1.5 1
      vertex 4.3861 -10.5969 1
    endloop
  endfacet
  facet normal 0 0 1
    outer loop
      vertex -0.0577347 -0.0999995 1
      vertex -0.866025 -1.5 1
      vertex 0.302192 -1.32341 1
    endloop
  endfacet
  facet normal 0 0 1
    outer loop
      vertex -1.2972 -0.4 1
      vertex -0.0577347 -0.0999995 1
      vertex -1.2972 -0.0999995 1
    endloop
  endfacet
  facet normal 0 0 1
    outer loop
      vertex -0.0577347 -0.0999995 1
      vertex -1.2972 -0.4 1
      vertex -0.866025 -1.5 1
    endloop
  endfacet
  facet normal 0 0 1
    outer loop
      vertex -2.69441 -0.5 1
      vertex -1.2972 -0.4 1
      vertex -2.69441 -0.4 1
    endloop
  endfacet
  facet normal 0 0 1
    outer loop
      vertex -1.2972 -0.4 1
      vertex -2.69441 -0.5 1
      vertex -0.866025 -1.5 1
    endloop
  endfacet
  facet normal 0 0 1
    outer loop
      vertex -4.09161 -0.599999 1
      vertex -2.69441 -0.5 1
      vertex -4.09161 -0.5 1
    endloop
  endfacet
  facet normal 0 0 1
    outer loop
      vertex -2.69441 -0.5 1
      vertex -4.09161 -0.599999 1
      vertex -0.866025 -1.5 1
    endloop
  endfacet
  facet normal 0 0 1
    outer loop
      vertex -5.48881 -0.7 1
      vertex -4.09161 -0.599999 1
      vertex -5.48881 -0.599999 1
    endloop
  endfacet
  facet normal 0 0 1
    outer loop
      vertex -4.09161 -0.599999 1
      vertex -5.48881 -0.7 1
      vertex -0.866025 -1.5 1
    endloop
  endfacet
  facet normal 0 0 1
    outer loop
      vertex -11.3703 -1.5 1
      vertex -5.48881 -0.7 1
      vertex -10.8988 -0.7 1
    endloop
  endfacet
  facet normal 0 0 1
    outer loop
      vertex -5.48881 -0.7 1
      vertex -11.3703 -1.5 1
      vertex -0.866025 -1.5 1
    endloop
  endfacet
  facet normal 0 0 1
    outer loop
      vertex -11.3703 -1.5 1
      vertex -10.8988 -0.7 1
      vertex -11.3703 1.5 1
    endloop
  endfacet
  facet normal 0 0 1
    outer loop
      vertex 1.61279 3.79344 1
      vertex 1.52619 3.84344 1
      vertex 0.914191 2.58343 1
    endloop
  endfacet
  facet normal 0 0 1
    outer loop
      vertex 1.00079 2.53343 1
      vertex 0.914191 2.58343 1
      vertex 0.302192 1.32341 1
    endloop
  endfacet
  facet normal 0 0 1
    outer loop
      vertex 0.562 1.17341 1
      vertex 0.302192 1.32341 1
      vertex -0.0577343 0.1 1
    endloop
  endfacet
  facet normal 0 0 1
    outer loop
      vertex -0.866025 1.5 1
      vertex -2.69441 0.5 1
      vertex -1.2972 0.4 1
    endloop
  endfacet
  facet normal 0 0 1
    outer loop
      vertex -0.866025 1.5 1
      vertex -4.09161 0.599999 1
      vertex -2.69441 0.5 1
    endloop
  endfacet
  facet normal 0 0 1
    outer loop
      vertex -0.866025 1.5 1
      vertex -5.48881 0.7 1
      vertex -4.09161 0.599999 1
    endloop
  endfacet
  facet normal -0 0 1
    outer loop
      vertex -11.3703 1.5 1
      vertex -5.48881 0.7 1
      vertex -0.866025 1.5 1
    endloop
  endfacet
  facet normal 0 0 1
    outer loop
      vertex -10.8988 0.7 1
      vertex -11.3703 1.5 1
      vertex -10.8988 -0.7 1
    endloop
  endfacet
  facet normal 0 0 1
    outer loop
      vertex -5.48881 0.7 1
      vertex -11.3703 1.5 1
      vertex -10.8988 0.7 1
    endloop
  endfacet
  facet normal 0 0 1
    outer loop
      vertex -1.2972 0.4 1
      vertex -2.69441 0.5 1
      vertex -2.69441 0.4 1
    endloop
  endfacet
  facet normal 0 0 1
    outer loop
      vertex -2.69441 0.5 1
      vertex -4.09161 0.599999 1
      vertex -4.09161 0.5 1
    endloop
  endfacet
  facet normal 0 0 1
    outer loop
      vertex -4.09161 0.599999 1
      vertex -5.48881 0.7 1
      vertex -5.48881 0.599999 1
    endloop
  endfacet
  facet normal -0.866024 0.500002 0
    outer loop
      vertex -0.866025 1.5 0
      vertex 4.3861 10.5969 1
      vertex 4.3861 10.5969 0
    endloop
  endfacet
  facet normal -0.866024 0.500002 0
    outer loop
      vertex 4.3861 10.5969 1
      vertex -0.866025 1.5 0
      vertex -0.866025 1.5 1
    endloop
  endfacet
  facet normal 0.499987 0.866033 -0
    outer loop
      vertex 6.98418 9.09695 0
      vertex 4.3861 10.5969 1
      vertex 6.98418 9.09695 1
    endloop
  endfacet
  facet normal 0.499987 0.866033 0
    outer loop
      vertex 4.3861 10.5969 1
      vertex 6.98418 9.09695 0
      vertex 4.3861 10.5969 0
    endloop
  endfacet
  facet normal 0.866025 -0.5 0
    outer loop
      vertex 1.73205 -1.03736e-07 1
      vertex 6.98418 9.09695 0
      vertex 6.98418 9.09695 1
    endloop
  endfacet
  facet normal 0.866025 -0.5 0
    outer loop
      vertex 6.98418 9.09695 0
      vertex 1.73205 -1.03736e-07 1
      vertex 1.73205 -1.03736e-07 0
    endloop
  endfacet
  facet normal 0 -1 0
    outer loop
      vertex -11.3703 -1.5 0
      vertex -0.866025 -1.5 1
      vertex -11.3703 -1.5 1
    endloop
  endfacet
  facet normal 0 -1 -0
    outer loop
      vertex -0.866025 -1.5 1
      vertex -11.3703 -1.5 0
      vertex -0.866025 -1.5 0
    endloop
  endfacet
  facet normal -1 0 0
    outer loop
      vertex -11.3703 -1.5 0
      vertex -11.3703 1.5 1
      vertex -11.3703 1.5 0
    endloop
  endfacet
  facet normal -1 -0 0
    outer loop
      vertex -11.3703 1.5 1
      vertex -11.3703 -1.5 0
      vertex -11.3703 -1.5 1
    endloop
  endfacet
  facet normal 0 1 -0
    outer loop
      vertex -0.866025 1.5 0
      vertex -11.3703 1.5 1
      vertex -0.866025 1.5 1
    endloop
  endfacet
  facet normal 0 1 0
    outer loop
      vertex -11.3703 1.5 1
      vertex -0.866025 1.5 0
      vertex -11.3703 1.5 0
    endloop
  endfacet
  facet normal 0.866025 0.5 0
    outer loop
      vertex 6.98418 -9.09695 1
      vertex 1.73205 -1.03736e-07 0
      vertex 1.73205 -1.03736e-07 1
    endloop
  endfacet
  facet normal 0.866025 0.5 0
    outer loop
      vertex 1.73205 -1.03736e-07 0
      vertex 6.98418 -9.09695 1
      vertex 6.98418 -9.09695 0
    endloop
  endfacet
  facet normal 0.499987 -0.866033 0
    outer loop
      vertex 4.3861 -10.5969 0
      vertex 6.98418 -9.09695 1
      vertex 4.3861 -10.5969 1
    endloop
  endfacet
  facet normal 0.499987 -0.866033 0
    outer loop
      vertex 6.98418 -9.09695 1
      vertex 4.3861 -10.5969 0
      vertex 6.98418 -9.09695 0
    endloop
  endfacet
  facet normal -0.866024 -0.500002 0
    outer loop
      vertex 4.3861 -10.5969 0
      vertex -0.866025 -1.5 1
      vertex -0.866025 -1.5 0
    endloop
  endfacet
  facet normal -0.866024 -0.500002 0
    outer loop
      vertex -0.866025 -1.5 1
      vertex 4.3861 -10.5969 0
      vertex 4.3861 -10.5969 1
    endloop
  endfacet
  facet normal -0.866046 0.499965 0
    outer loop
      vertex 5.36279 9.48862 7.87199
      vertex 5.35506 9.47523 10.8181
      vertex 5.36279 9.48862 10.872
    endloop
  endfacet
  facet normal -0.866025 0.500001 2.18314e-07
    outer loop
      vertex 5.36279 9.48862 7.87199
      vertex 2.86994 5.17089 7.30366
      vertex 5.35506 9.47523 10.8181
    endloop
  endfacet
  facet normal -0.866025 0.500001 -1.95252e-06
    outer loop
      vertex 0.562 1.17341 1
      vertex 2.86994 5.17089 7.30366
      vertex 5.36279 9.48862 7.87199
    endloop
  endfacet
  facet normal -0.866025 0.5 0
    outer loop
      vertex -0.0577343 0.1 3.11289
      vertex 0.562 1.17341 1
      vertex -0.0577343 0.1 1
    endloop
  endfacet
  facet normal -0.866026 0.5 -5.46177e-07
    outer loop
      vertex 0.562 1.17341 1
      vertex -0.0577343 0.1 3.11289
      vertex 2.86994 5.17089 7.30366
    endloop
  endfacet
  facet normal -0.764142 0.611314 -0.205868
    outer loop
      vertex 2.86994 5.17089 7.30366
      vertex -0.0577343 0.1 3.11289
      vertex -0.0577347 0.0999995 3.11289
    endloop
  endfacet
  facet normal -0.865968 0.500099 -4.43001e-05
    outer loop
      vertex 5.36279 9.48862 10.872
      vertex 5.35506 9.47523 10.8181
      vertex 5.34501 9.45783 10.8466
    endloop
  endfacet
  facet normal 0.499968 0.866044 -0
    outer loop
      vertex 6.05561 9.08862 1
      vertex 5.969 9.13862 4.87199
      vertex 6.05561 9.08862 4.87199
    endloop
  endfacet
  facet normal 0.5 0.866025 9.68495e-07
    outer loop
      vertex 5.969 9.13862 4.87199
      vertex 6.05561 9.08862 1
      vertex 4.92977 9.73862 4.87199
    endloop
  endfacet
  facet normal 0.499999 0.866026 3.68949e-07
    outer loop
      vertex 4.84317 9.78862 1
      vertex 4.92977 9.73862 4.87199
      vertex 6.05561 9.08862 1
    endloop
  endfacet
  facet normal 0.500011 0.866019 0
    outer loop
      vertex 4.92977 9.73862 4.87199
      vertex 4.84317 9.78862 1
      vertex 4.84317 9.78862 4.87199
    endloop
  endfacet
  facet normal 0.500011 0.866019 -0
    outer loop
      vertex 5.969 9.13862 4.87199
      vertex 5.8824 9.18862 5.87199
      vertex 5.969 9.13862 5.87199
    endloop
  endfacet
  facet normal 0.500002 0.866024 -1e-06
    outer loop
      vertex 5.8824 9.18862 5.87199
      vertex 5.969 9.13862 4.87199
      vertex 5.01638 9.68862 5.87199
    endloop
  endfacet
  facet normal 0.5 0.866025 -3.75e-06
    outer loop
      vertex 4.92977 9.73862 4.87199
      vertex 5.01638 9.68862 5.87199
      vertex 5.969 9.13862 4.87199
    endloop
  endfacet
  facet normal 0.499968 0.866044 0
    outer loop
      vertex 5.01638 9.68862 5.87199
      vertex 4.92977 9.73862 4.87199
      vertex 4.92977 9.73862 5.87199
    endloop
  endfacet
  facet normal 0.500011 0.866019 -0
    outer loop
      vertex 5.8824 9.18862 5.87199
      vertex 5.7958 9.23862 6.87199
      vertex 5.8824 9.18862 6.87199
    endloop
  endfacet
  facet normal 0.5 0.866025 -1.25e-06
    outer loop
      vertex 5.7958 9.23862 6.87199
      vertex 5.8824 9.18862 5.87199
      vertex 5.10298 9.63862 6.87199
    endloop
  endfacet
  facet normal 0.500002 0.866024 1e-06
    outer loop
      vertex 5.01638 9.68862 5.87199
      vertex 5.10298 9.63862 6.87199
      vertex 5.8824 9.18862 5.87199
    endloop
  endfacet
  facet normal 0.500011 0.866019 0
    outer loop
      vertex 5.10298 9.63862 6.87199
      vertex 5.01638 9.68862 5.87199
      vertex 5.01638 9.68862 6.87199
    endloop
  endfacet
  facet normal 0.499997 0.866027 -0
    outer loop
      vertex 5.7958 9.23862 6.87199
      vertex 5.53599 9.38862 7.87199
      vertex 5.7958 9.23862 7.87199
    endloop
  endfacet
  facet normal 0.500011 0.866019 5.00011e-06
    outer loop
      vertex 5.53599 9.38862 7.87199
      vertex 5.7958 9.23862 6.87199
      vertex 5.36279 9.48862 7.87199
    endloop
  endfacet
  facet normal 0.5 0.866025 -1.25e-06
    outer loop
      vertex 5.10298 9.63862 6.87199
      vertex 5.36279 9.48862 7.87199
      vertex 5.7958 9.23862 6.87199
    endloop
  endfacet
  facet normal 0.499997 0.866027 0
    outer loop
      vertex 5.36279 9.48862 7.87199
      vertex 5.10298 9.63862 6.87199
      vertex 5.10298 9.63862 7.87199
    endloop
  endfacet
  facet normal 0.500011 0.866019 9.77564e-06
    outer loop
      vertex 5.53599 9.38862 10.872
      vertex 5.5128 9.40201 10.7963
      vertex 5.36279 9.48862 10.872
    endloop
  endfacet
  facet normal 0.500003 0.866024 -3.41771e-07
    outer loop
      vertex 5.5128 9.40201 10.7963
      vertex 5.53599 9.38862 7.87199
      vertex 5.44939 9.43862 10.7066
    endloop
  endfacet
  facet normal 0.500035 0.866005 -0
    outer loop
      vertex 5.53599 9.38862 7.87199
      vertex 5.5128 9.40201 10.7963
      vertex 5.53599 9.38862 10.872
    endloop
  endfacet
  facet normal 0.500002 0.866024 -1.33508e-05
    outer loop
      vertex 5.38598 9.47523 10.7963
      vertex 5.36279 9.48862 10.872
      vertex 5.5128 9.40201 10.7963
    endloop
  endfacet
  facet normal 0.500011 0.866019 -2.69277e-16
    outer loop
      vertex 5.36279 9.48862 7.87199
      vertex 5.44939 9.43862 10.7066
      vertex 5.53599 9.38862 7.87199
    endloop
  endfacet
  facet normal 0.500003 0.866024 3.41771e-07
    outer loop
      vertex 5.44939 9.43862 10.7066
      vertex 5.36279 9.48862 7.87199
      vertex 5.38598 9.47523 10.7963
    endloop
  endfacet
  facet normal 0.500035 0.866005 0
    outer loop
      vertex 5.38598 9.47523 10.7963
      vertex 5.36279 9.48862 7.87199
      vertex 5.36279 9.48862 10.872
    endloop
  endfacet
  facet normal -0.29068 -0.503458 0.813656
    outer loop
      vertex 5.36279 9.48862 10.872
      vertex 5.51822 9.35783 10.8466
      vertex 5.53599 9.38862 10.872
    endloop
  endfacet
  facet normal -0.29064 -0.503418 0.813694
    outer loop
      vertex 5.51822 9.35783 10.8466
      vertex 5.36279 9.48862 10.872
      vertex 5.34501 9.45783 10.8466
    endloop
  endfacet
  facet normal -0.290908 -0.504089 0.813183
    outer loop
      vertex 3.04315 5.07089 7.30366
      vertex 0.0677526 1.1422e-07 3.09582
      vertex 0.115469 3.64506e-08 3.11289
    endloop
  endfacet
  facet normal -0.291103 -0.503976 0.813183
    outer loop
      vertex 2.86994 5.17089 7.30366
      vertex -0.0577347 0.0999995 3.11289
      vertex -0.0338762 0.0586755 3.09582
    endloop
  endfacet
  facet normal 0.866046 -0.499965 0
    outer loop
      vertex 5.53599 9.38862 10.872
      vertex 5.52826 9.37523 10.8181
      vertex 5.53599 9.38862 7.87199
    endloop
  endfacet
  facet normal 0.866122 -0.499833 -4.35859e-05
    outer loop
      vertex 5.52826 9.37523 10.8181
      vertex 5.53599 9.38862 10.872
      vertex 5.51822 9.35783 10.8466
    endloop
  endfacet
  facet normal 0.866026 -0.5 -2.09204e-07
    outer loop
      vertex 3.04315 5.07089 7.30366
      vertex 5.53599 9.38862 7.87199
      vertex 5.52826 9.37523 10.8181
    endloop
  endfacet
  facet normal 0.866026 -0.5 -3.34646e-07
    outer loop
      vertex 3.04315 5.07089 7.30366
      vertex 0.735204 1.07341 1
      vertex 5.53599 9.38862 7.87199
    endloop
  endfacet
  facet normal 0.866025 -0.5 2.05063e-07
    outer loop
      vertex 3.04315 5.07089 7.30366
      vertex 0.11547 7.1392e-07 3.11289
      vertex 0.735204 1.07341 1
    endloop
  endfacet
  facet normal 0.478835 -0.7068 0.520722
    outer loop
      vertex 0.11547 7.1392e-07 3.11289
      vertex 3.04315 5.07089 7.30366
      vertex 0.115469 3.64506e-08 3.11289
    endloop
  endfacet
  facet normal 0.866025 -0.500001 0
    outer loop
      vertex 0.735204 1.07341 1
      vertex 0.11547 7.1392e-07 3.11289
      vertex 0.11547 7.1392e-07 1
    endloop
  endfacet
  facet normal 0 -1 0
    outer loop
      vertex -10.8988 -0.0999997 10.872
      vertex -10.8833 -0.0999997 10.8181
      vertex -10.8632 -0.0999997 10.8466
    endloop
  endfacet
  facet normal 0 -1 0
    outer loop
      vertex -10.8988 -0.0999997 7.87199
      vertex -10.8833 -0.0999997 10.8181
      vertex -10.8988 -0.0999997 10.872
    endloop
  endfacet
  facet normal 2.00453e-08 -1 -1.05462e-10
    outer loop
      vertex -10.8988 -0.0999997 7.87199
      vertex -5.91308 -0.0999996 7.30365
      vertex -10.8833 -0.0999997 10.8181
    endloop
  endfacet
  facet normal 1.99109e-08 -1 -1.28395e-09
    outer loop
      vertex -1.2972 -0.0999995 1
      vertex -5.91308 -0.0999996 7.30365
      vertex -10.8988 -0.0999997 7.87199
    endloop
  endfacet
  facet normal 1.20283e-08 -1 -7.05605e-09
    outer loop
      vertex -5.91308 -0.0999996 7.30365
      vertex -1.2972 -0.0999995 1
      vertex -0.0577347 -0.0999995 3.11289
    endloop
  endfacet
  facet normal 0 -1 -0
    outer loop
      vertex -0.0577347 -0.0999995 3.11289
      vertex -1.2972 -0.0999995 1
      vertex -0.0577347 -0.0999995 1
    endloop
  endfacet
  facet normal 0 1 -0
    outer loop
      vertex -10.8833 0.1 10.8181
      vertex -10.8988 0.1 10.872
      vertex -10.8632 0.1 10.8466
    endloop
  endfacet
  facet normal 0 1 0
    outer loop
      vertex -10.8833 0.1 10.8181
      vertex -10.8988 0.1 7.87199
      vertex -10.8988 0.1 10.872
    endloop
  endfacet
  facet normal 0 1 0
    outer loop
      vertex -5.91316 0.1 7.30371
      vertex -10.8988 0.1 7.87199
      vertex -10.8833 0.1 10.8181
    endloop
  endfacet
  facet normal 0 1 -0
    outer loop
      vertex -1.2972 0.1 1
      vertex -5.91316 0.1 7.30371
      vertex -0.0577343 0.1 3.11289
    endloop
  endfacet
  facet normal 0 1 0
    outer loop
      vertex -1.2972 0.1 1
      vertex -0.0577343 0.1 3.11289
      vertex -0.0577343 0.1 1
    endloop
  endfacet
  facet normal 0 1 0
    outer loop
      vertex -5.91316 0.1 7.30371
      vertex -1.2972 0.1 1
      vertex -10.8988 0.1 7.87199
    endloop
  endfacet
  facet normal -1 0 0
    outer loop
      vertex -10.8988 0.1 7.87199
      vertex -10.8988 0.0732236 10.7963
      vertex -10.8988 0.1 10.872
    endloop
  endfacet
  facet normal -1 0 0
    outer loop
      vertex -10.8988 0.1 7.87199
      vertex -10.8988 0 10.7066
      vertex -10.8988 0.0732236 10.7963
    endloop
  endfacet
  facet normal -1 0 0
    outer loop
      vertex -10.8988 -0.0999997 7.87199
      vertex -10.8988 0 10.7066
      vertex -10.8988 0.1 7.87199
    endloop
  endfacet
  facet normal -1 -0 0
    outer loop
      vertex -10.8988 0 10.7066
      vertex -10.8988 -0.0999997 7.87199
      vertex -10.8988 -0.0732228 10.7963
    endloop
  endfacet
  facet normal -1 0 0
    outer loop
      vertex -10.8988 -0.0732228 10.7963
      vertex -10.8988 0.1 10.872
      vertex -10.8988 0.0732236 10.7963
    endloop
  endfacet
  facet normal -1 0 0
    outer loop
      vertex -10.8988 -0.0732228 10.7963
      vertex -10.8988 -0.0999997 10.872
      vertex -10.8988 0.1 10.872
    endloop
  endfacet
  facet normal -1 0 0
    outer loop
      vertex -10.8988 -0.0999997 10.872
      vertex -10.8988 -0.0732228 10.7963
      vertex -10.8988 -0.0999997 7.87199
    endloop
  endfacet
  facet normal 0.580806 -0 0.814042
    outer loop
      vertex -10.8988 -0.0999997 10.872
      vertex -10.8632 0.0993539 10.8466
      vertex -10.8988 0.1 10.872
    endloop
  endfacet
  facet normal 0.580806 0 0.814042
    outer loop
      vertex -10.8632 0.0993539 10.8466
      vertex -10.8988 -0.0999997 10.872
      vertex -10.8632 -0.0999997 10.8466
    endloop
  endfacet
  facet normal 0.581996 -0.000804505 0.813191
    outer loop
      vertex -1.57633 -0.0695175 4.19977
      vertex -0.0577347 -0.0999995 3.11289
      vertex -0.056096 -0.0971611 3.11172
    endloop
  endfacet
  facet normal 0.582008 4.89313e-05 0.813183
    outer loop
      vertex -0.0577347 -0.0999995 3.11289
      vertex -1.57633 -0.0695175 4.19977
      vertex -5.91308 -0.0999996 7.30365
    endloop
  endfacet
  facet normal 0.580806 0 0.814042
    outer loop
      vertex -10.8632 0.1 10.8466
      vertex -10.8988 0.1 10.872
      vertex -10.8632 0.0993539 10.8466
    endloop
  endfacet
  facet normal 0.582005 -5.78571e-05 0.813185
    outer loop
      vertex -0.0338765 -0.0586758 3.09582
      vertex -1.57633 -0.0695175 4.19977
      vertex -0.056096 -0.0971611 3.11172
    endloop
  endfacet
  facet normal 0.52762 -0.422096 0.737192
    outer loop
      vertex -0.0577343 0.1 3.11289
      vertex -5.91316 0.1 7.30371
      vertex -0.0577347 0.0999995 3.11289
    endloop
  endfacet
  facet normal 0.582008 0.000116176 0.813183
    outer loop
      vertex -0.0338762 0.0586755 3.09582
      vertex -0.0577347 0.0999995 3.11289
      vertex -5.91316 0.1 7.30371
    endloop
  endfacet
  facet normal 0.866122 0.499833 -4.35859e-05
    outer loop
      vertex 5.51822 -9.35783 10.8466
      vertex 5.53599 -9.38862 10.872
      vertex 5.52826 -9.37523 10.8181
    endloop
  endfacet
  facet normal 0.866025 0.500001 0
    outer loop
      vertex 0.11547 7.1392e-07 3.11289
      vertex 0.735205 -1.07341 1
      vertex 0.11547 7.1392e-07 1
    endloop
  endfacet
  facet normal 0.866026 0.5 5.89735e-07
    outer loop
      vertex 3.04318 -5.07095 7.30371
      vertex 0.735205 -1.07341 1
      vertex 0.11547 7.1392e-07 3.11289
    endloop
  endfacet
  facet normal 0.866025 0.5 -2.13432e-07
    outer loop
      vertex 5.53599 -9.38862 7.87199
      vertex 3.04318 -5.07095 7.30371
      vertex 5.52826 -9.37523 10.8181
    endloop
  endfacet
  facet normal 0.866025 0.5 1.15499e-06
    outer loop
      vertex 3.04318 -5.07095 7.30371
      vertex 5.53599 -9.38862 7.87199
      vertex 0.735205 -1.07341 1
    endloop
  endfacet
  facet normal 0.866046 0.499965 -0
    outer loop
      vertex 5.53599 -9.38862 7.87199
      vertex 5.52826 -9.37523 10.8181
      vertex 5.53599 -9.38862 10.872
    endloop
  endfacet
  facet normal -0.866025 -0.500001 0
    outer loop
      vertex 0.562 -1.17341 1
      vertex -0.0577347 -0.0999995 3.11289
      vertex -0.0577347 -0.0999995 1
    endloop
  endfacet
  facet normal -0.866025 -0.5 -2.18709e-07
    outer loop
      vertex 0.562 -1.17341 1
      vertex 2.86994 -5.17088 7.30365
      vertex -0.0577347 -0.0999995 3.11289
    endloop
  endfacet
  facet normal -0.866025 -0.5 -2.85853e-07
    outer loop
      vertex 5.36279 -9.48862 7.87199
      vertex 2.86994 -5.17088 7.30365
      vertex 0.562 -1.17341 1
    endloop
  endfacet
  facet normal -0.866025 -0.5 2.13054e-07
    outer loop
      vertex 2.86994 -5.17088 7.30365
      vertex 5.36279 -9.48862 7.87199
      vertex 5.35506 -9.47523 10.8181
    endloop
  endfacet
  facet normal -0.865968 -0.500099 -4.43001e-05
    outer loop
      vertex 5.35506 -9.47523 10.8181
      vertex 5.36279 -9.48862 10.872
      vertex 5.34501 -9.45783 10.8466
    endloop
  endfacet
  facet normal -0.866046 -0.499965 -0
    outer loop
      vertex 5.36279 -9.48862 10.872
      vertex 5.35506 -9.47523 10.8181
      vertex 5.36279 -9.48862 7.87199
    endloop
  endfacet
  facet normal 0.500011 -0.866019 9.77564e-06
    outer loop
      vertex 5.36279 -9.48862 10.872
      vertex 5.5128 -9.40201 10.7963
      vertex 5.53599 -9.38862 10.872
    endloop
  endfacet
  facet normal 0.500002 -0.866024 -1.33508e-05
    outer loop
      vertex 5.36279 -9.48862 10.872
      vertex 5.38598 -9.47523 10.7963
      vertex 5.5128 -9.40201 10.7963
    endloop
  endfacet
  facet normal 0.500003 -0.866024 3.41771e-07
    outer loop
      vertex 5.38598 -9.47523 10.7963
      vertex 5.36279 -9.48862 7.87199
      vertex 5.44939 -9.43862 10.7066
    endloop
  endfacet
  facet normal 0.500035 -0.866005 0
    outer loop
      vertex 5.36279 -9.48862 7.87199
      vertex 5.38598 -9.47523 10.7963
      vertex 5.36279 -9.48862 10.872
    endloop
  endfacet
  facet normal 0.500011 -0.866019 -2.72337e-16
    outer loop
      vertex 5.53599 -9.38862 7.87199
      vertex 5.44939 -9.43862 10.7066
      vertex 5.36279 -9.48862 7.87199
    endloop
  endfacet
  facet normal 0.500003 -0.866024 -3.41771e-07
    outer loop
      vertex 5.44939 -9.43862 10.7066
      vertex 5.53599 -9.38862 7.87199
      vertex 5.5128 -9.40201 10.7963
    endloop
  endfacet
  facet normal 0.500035 -0.866005 0
    outer loop
      vertex 5.5128 -9.40201 10.7963
      vertex 5.53599 -9.38862 7.87199
      vertex 5.53599 -9.38862 10.872
    endloop
  endfacet
  facet normal -0.290711 0.503512 0.813611
    outer loop
      vertex 5.51766 -9.35816 10.8466
      vertex 5.36279 -9.48862 10.872
      vertex 5.53599 -9.38862 10.872
    endloop
  endfacet
  facet normal -0.290626 0.503427 0.813694
    outer loop
      vertex 5.36279 -9.48862 10.872
      vertex 5.51766 -9.35816 10.8466
      vertex 5.34501 -9.45783 10.8466
    endloop
  endfacet
  facet normal -0.291709 0.503613 0.813191
    outer loop
      vertex -0.0577347 -0.0999995 3.11289
      vertex 0.727959 -1.3999 4.19977
      vertex -0.056096 -0.0971611 3.11172
    endloop
  endfacet
  facet normal -0.291002 0.504034 0.813183
    outer loop
      vertex 0.727959 -1.3999 4.19977
      vertex -0.0577347 -0.0999995 3.11289
      vertex 2.86994 -5.17088 7.30365
    endloop
  endfacet
  facet normal -0.295154 0.500867 0.813644
    outer loop
      vertex 5.51822 -9.35783 10.8466
      vertex 5.51766 -9.35816 10.8466
      vertex 5.53599 -9.38862 10.872
    endloop
  endfacet
  facet normal -0.326992 0.482667 0.812471
    outer loop
      vertex 0.115469 3.64506e-08 3.11289
      vertex 3.04318 -5.07095 7.30371
      vertex 0.11547 7.1392e-07 3.11289
    endloop
  endfacet
  facet normal -0.290906 0.50409 0.813183
    outer loop
      vertex 3.04318 -5.07095 7.30371
      vertex 0.115469 3.64506e-08 3.11289
      vertex 0.0677526 1.1422e-07 3.09582
    endloop
  endfacet
  facet normal -0.291053 0.504003 0.813185
    outer loop
      vertex -0.0338765 -0.0586758 3.09582
      vertex -0.056096 -0.0971611 3.11172
      vertex 0.727959 -1.3999 4.19977
    endloop
  endfacet
  facet normal -0.866025 0.500001 0
    outer loop
      vertex 1.00079 2.53343 1
      vertex 5.10298 9.63862 7.87199
      vertex 5.10298 9.63862 6.87199
    endloop
  endfacet
  facet normal -0.866028 0.499996 6.29272e-06
    outer loop
      vertex 5.10298 9.63862 7.87199
      vertex 1.00079 2.53343 1
      vertex 0.302192 1.32341 1
    endloop
  endfacet
  facet normal 0.866025 -0.500001 0
    outer loop
      vertex 5.7958 9.23862 7.87199
      vertex 1.69361 2.13343 1
      vertex 5.7958 9.23862 6.87199
    endloop
  endfacet
  facet normal 0.866027 -0.499997 -5.43825e-06
    outer loop
      vertex 1.69361 2.13343 1
      vertex 5.7958 9.23862 7.87199
      vertex 0.995012 0.923412 1
    endloop
  endfacet
  facet normal -0.291002 -0.504034 0.813184
    outer loop
      vertex 5.10298 9.63862 7.87199
      vertex 0.562 1.17341 1
      vertex 5.36279 9.48862 7.87199
    endloop
  endfacet
  facet normal -0.291003 -0.504033 0.813183
    outer loop
      vertex 0.562 1.17341 1
      vertex 5.10298 9.63862 7.87199
      vertex 0.302192 1.32341 1
    endloop
  endfacet
  facet normal -0.291002 -0.504034 0.813183
    outer loop
      vertex 5.53599 9.38862 7.87199
      vertex 0.995012 0.923412 1
      vertex 5.7958 9.23862 7.87199
    endloop
  endfacet
  facet normal -0.291 -0.504035 0.813183
    outer loop
      vertex 0.995012 0.923412 1
      vertex 5.53599 9.38862 7.87199
      vertex 0.735204 1.07341 1
    endloop
  endfacet
  facet normal -0.866025 0.500001 0
    outer loop
      vertex 1.61279 3.79344 1
      vertex 5.01638 9.68862 6.87199
      vertex 5.01638 9.68862 5.87199
    endloop
  endfacet
  facet normal -0.866026 0.5 1.35088e-06
    outer loop
      vertex 5.01638 9.68862 6.87199
      vertex 1.61279 3.79344 1
      vertex 0.914191 2.58343 1
    endloop
  endfacet
  facet normal 0.866026 -0.5 0
    outer loop
      vertex 5.8824 9.18862 6.87199
      vertex 2.47882 3.29344 1
      vertex 5.8824 9.18862 5.87199
    endloop
  endfacet
  facet normal 0.866025 -0.5 8.42505e-07
    outer loop
      vertex 2.47882 3.29344 1
      vertex 5.8824 9.18862 6.87199
      vertex 1.78022 2.08343 1
    endloop
  endfacet
  facet normal -0.29101 -0.50403 0.813183
    outer loop
      vertex 5.01638 9.68862 6.87199
      vertex 1.00079 2.53343 1
      vertex 5.10298 9.63862 6.87199
    endloop
  endfacet
  facet normal -0.291013 -0.504028 0.813183
    outer loop
      vertex 1.00079 2.53343 1
      vertex 5.01638 9.68862 6.87199
      vertex 0.914191 2.58343 1
    endloop
  endfacet
  facet normal -0.29101 -0.50403 0.813183
    outer loop
      vertex 5.7958 9.23862 6.87199
      vertex 1.78022 2.08343 1
      vertex 5.8824 9.18862 6.87199
    endloop
  endfacet
  facet normal -0.290985 -0.504044 0.813183
    outer loop
      vertex 1.78022 2.08343 1
      vertex 5.7958 9.23862 6.87199
      vertex 1.69361 2.13343 1
    endloop
  endfacet
  facet normal -0.866026 0.499999 0
    outer loop
      vertex 2.22479 5.05345 1
      vertex 4.92977 9.73862 5.87199
      vertex 4.92977 9.73862 4.87199
    endloop
  endfacet
  facet normal -0.866025 0.5 -1.01543e-06
    outer loop
      vertex 4.92977 9.73862 5.87199
      vertex 2.22479 5.05345 1
      vertex 1.52619 3.84344 1
    endloop
  endfacet
  facet normal -0.290985 -0.504044 0.813184
    outer loop
      vertex 4.92977 9.73862 5.87199
      vertex 1.61279 3.79344 1
      vertex 5.01638 9.68862 5.87199
    endloop
  endfacet
  facet normal -0.29101 -0.50403 0.813183
    outer loop
      vertex 1.61279 3.79344 1
      vertex 4.92977 9.73862 5.87199
      vertex 1.52619 3.84344 1
    endloop
  endfacet
  facet normal -0.29101 -0.50403 0.813183
    outer loop
      vertex 5.8824 9.18862 5.87199
      vertex 2.56542 3.24344 1
      vertex 5.969 9.13862 5.87199
    endloop
  endfacet
  facet normal -0.29101 -0.50403 0.813183
    outer loop
      vertex 2.56542 3.24344 1
      vertex 5.8824 9.18862 5.87199
      vertex 2.47882 3.29344 1
    endloop
  endfacet
  facet normal 0.866026 -0.499999 0
    outer loop
      vertex 5.969 9.13862 5.87199
      vertex 3.26402 4.45345 1
      vertex 5.969 9.13862 4.87199
    endloop
  endfacet
  facet normal 0.866025 -0.5 1.01543e-06
    outer loop
      vertex 3.26402 4.45345 1
      vertex 5.969 9.13862 5.87199
      vertex 2.56542 3.24344 1
    endloop
  endfacet
  facet normal -0.866026 0.499999 0
    outer loop
      vertex 4.84317 9.78862 1
      vertex 2.13819 5.10345 1
      vertex 4.84317 9.78862 4.87199
    endloop
  endfacet
  facet normal -0.29101 -0.504029 0.813184
    outer loop
      vertex 4.84317 9.78862 4.87199
      vertex 2.22479 5.05345 1
      vertex 4.92977 9.73862 4.87199
    endloop
  endfacet
  facet normal -0.29101 -0.504029 0.813184
    outer loop
      vertex 2.22479 5.05345 1
      vertex 4.84317 9.78862 4.87199
      vertex 2.13819 5.10345 1
    endloop
  endfacet
  facet normal -0.290985 -0.504044 0.813184
    outer loop
      vertex 5.969 9.13862 4.87199
      vertex 3.35063 4.40345 1
      vertex 6.05561 9.08862 4.87199
    endloop
  endfacet
  facet normal -0.290985 -0.504044 0.813184
    outer loop
      vertex 3.35063 4.40345 1
      vertex 5.969 9.13862 4.87199
      vertex 3.26402 4.45345 1
    endloop
  endfacet
  facet normal 0.866026 -0.499999 0
    outer loop
      vertex 6.05561 9.08862 4.87199
      vertex 3.35063 4.40345 1
      vertex 6.05561 9.08862 1
    endloop
  endfacet
  facet normal 0 -1 0
    outer loop
      vertex -2.69441 -0.4 1
      vertex -10.8988 -0.4 7.87199
      vertex -10.8988 -0.4 6.87199
    endloop
  endfacet
  facet normal 0 -1 0
    outer loop
      vertex -10.8988 -0.4 7.87199
      vertex -2.69441 -0.4 1
      vertex -1.2972 -0.4 1
    endloop
  endfacet
  facet normal 0 1 -0
    outer loop
      vertex -2.69441 0.4 1
      vertex -10.8988 0.4 7.87199
      vertex -1.2972 0.4 1
    endloop
  endfacet
  facet normal 0 1 0
    outer loop
      vertex -10.8988 0.4 7.87199
      vertex -2.69441 0.4 1
      vertex -10.8988 0.4 6.87199
    endloop
  endfacet
  facet normal -1 0 0
    outer loop
      vertex -10.8988 0.7 1
      vertex -10.8988 0.599999 4.87199
      vertex -10.8988 0.7 4.87199
    endloop
  endfacet
  facet normal -1 0 0
    outer loop
      vertex -10.8988 0.599999 4.87199
      vertex -10.8988 0.5 5.87199
      vertex -10.8988 0.599999 5.87199
    endloop
  endfacet
  facet normal -1 0 0
    outer loop
      vertex -10.8988 -0.599999 4.87199
      vertex -10.8988 0.599999 4.87199
      vertex -10.8988 0.7 1
    endloop
  endfacet
  facet normal -1 0 0
    outer loop
      vertex -10.8988 0.5 5.87199
      vertex -10.8988 0.4 6.87199
      vertex -10.8988 0.5 6.87199
    endloop
  endfacet
  facet normal -1 0 0
    outer loop
      vertex -10.8988 0.599999 4.87199
      vertex -10.8988 -0.599999 4.87199
      vertex -10.8988 0.5 5.87199
    endloop
  endfacet
  facet normal -1 0 0
    outer loop
      vertex -10.8988 0.4 6.87199
      vertex -10.8988 -0.4 6.87199
      vertex -10.8988 0.4 7.87199
    endloop
  endfacet
  facet normal -1 0 -0
    outer loop
      vertex -10.8988 -0.5 5.87199
      vertex -10.8988 0.5 5.87199
      vertex -10.8988 -0.599999 4.87199
    endloop
  endfacet
  facet normal -1 -0 0
    outer loop
      vertex -10.8988 0.4 6.87199
      vertex -10.8988 -0.5 5.87199
      vertex -10.8988 -0.4 6.87199
    endloop
  endfacet
  facet normal -1 0 0
    outer loop
      vertex -10.8988 0.5 5.87199
      vertex -10.8988 -0.5 5.87199
      vertex -10.8988 0.4 6.87199
    endloop
  endfacet
  facet normal -1 0 0
    outer loop
      vertex -10.8988 -0.7 1
      vertex -10.8988 -0.599999 4.87199
      vertex -10.8988 0.7 1
    endloop
  endfacet
  facet normal -1 -0 0
    outer loop
      vertex -10.8988 -0.599999 4.87199
      vertex -10.8988 -0.7 1
      vertex -10.8988 -0.7 4.87199
    endloop
  endfacet
  facet normal -1 -0 0
    outer loop
      vertex -10.8988 0.4 7.87199
      vertex -10.8988 -0.4 6.87199
      vertex -10.8988 -0.4 7.87199
    endloop
  endfacet
  facet normal -1 -0 0
    outer loop
      vertex -10.8988 -0.4 6.87199
      vertex -10.8988 -0.5 5.87199
      vertex -10.8988 -0.5 6.87199
    endloop
  endfacet
  facet normal -1 -0 0
    outer loop
      vertex -10.8988 -0.5 5.87199
      vertex -10.8988 -0.599999 4.87199
      vertex -10.8988 -0.599999 5.87199
    endloop
  endfacet
  facet normal 0.582006 0 0.813184
    outer loop
      vertex -10.8988 -0.0999997 7.87199
      vertex -1.2972 -0.4 1
      vertex -1.2972 -0.0999995 1
    endloop
  endfacet
  facet normal 0.582006 0 0.813184
    outer loop
      vertex -1.2972 -0.4 1
      vertex -10.8988 -0.0999997 7.87199
      vertex -10.8988 -0.4 7.87199
    endloop
  endfacet
  facet normal 0.582006 0 0.813184
    outer loop
      vertex -1.2972 0.4 1
      vertex -10.8988 0.1 7.87199
      vertex -1.2972 0.1 1
    endloop
  endfacet
  facet normal 0.582006 0 0.813184
    outer loop
      vertex -10.8988 0.4 7.87199
      vertex -10.8988 0.1 7.87199
      vertex -1.2972 0.4 1
    endloop
  endfacet
  facet normal 0 0 -0
    outer loop
      vertex -10.8988 0.1 7.87199
      vertex -10.8988 0.4 7.87199
      vertex -10.8988 -0.0999997 7.87199
    endloop
  endfacet
  facet normal 0 0 -0
    outer loop
      vertex -10.8988 -0.0999997 7.87199
      vertex -10.8988 0.4 7.87199
      vertex -10.8988 -0.4 7.87199
    endloop
  endfacet
  facet normal 0 -1 0
    outer loop
      vertex -4.09161 -0.5 1
      vertex -10.8988 -0.5 6.87199
      vertex -10.8988 -0.5 5.87199
    endloop
  endfacet
  facet normal 0 -1 0
    outer loop
      vertex -10.8988 -0.5 6.87199
      vertex -4.09161 -0.5 1
      vertex -2.69441 -0.5 1
    endloop
  endfacet
  facet normal 0 1 -0
    outer loop
      vertex -4.09161 0.5 1
      vertex -10.8988 0.5 6.87199
      vertex -2.69441 0.5 1
    endloop
  endfacet
  facet normal 0 1 0
    outer loop
      vertex -10.8988 0.5 6.87199
      vertex -4.09161 0.5 1
      vertex -10.8988 0.5 5.87199
    endloop
  endfacet
  facet normal 0.582007 0 0.813184
    outer loop
      vertex -10.8988 -0.4 6.87199
      vertex -2.69441 -0.5 1
      vertex -2.69441 -0.4 1
    endloop
  endfacet
  facet normal 0.582007 0 0.813184
    outer loop
      vertex -2.69441 -0.5 1
      vertex -10.8988 -0.4 6.87199
      vertex -10.8988 -0.5 6.87199
    endloop
  endfacet
  facet normal 0.582007 0 0.813184
    outer loop
      vertex -10.8988 0.5 6.87199
      vertex -2.69441 0.4 1
      vertex -2.69441 0.5 1
    endloop
  endfacet
  facet normal 0.582007 0 0.813184
    outer loop
      vertex -2.69441 0.4 1
      vertex -10.8988 0.5 6.87199
      vertex -10.8988 0.4 6.87199
    endloop
  endfacet
  facet normal 0 -1 0
    outer loop
      vertex -5.48881 -0.599999 1
      vertex -10.8988 -0.599999 5.87199
      vertex -10.8988 -0.599999 4.87199
    endloop
  endfacet
  facet normal 0 -1 0
    outer loop
      vertex -10.8988 -0.599999 5.87199
      vertex -5.48881 -0.599999 1
      vertex -4.09161 -0.599999 1
    endloop
  endfacet
  facet normal 0.582006 0 0.813184
    outer loop
      vertex -10.8988 -0.5 5.87199
      vertex -4.09161 -0.599999 1
      vertex -4.09161 -0.5 1
    endloop
  endfacet
  facet normal 0.582006 0 0.813184
    outer loop
      vertex -4.09161 -0.599999 1
      vertex -10.8988 -0.5 5.87199
      vertex -10.8988 -0.599999 5.87199
    endloop
  endfacet
  facet normal 0.582006 0 0.813184
    outer loop
      vertex -10.8988 0.599999 5.87199
      vertex -4.09161 0.5 1
      vertex -4.09161 0.599999 1
    endloop
  endfacet
  facet normal 0.582006 0 0.813184
    outer loop
      vertex -4.09161 0.5 1
      vertex -10.8988 0.599999 5.87199
      vertex -10.8988 0.5 5.87199
    endloop
  endfacet
  facet normal 0 1 -0
    outer loop
      vertex -5.48881 0.599999 1
      vertex -10.8988 0.599999 5.87199
      vertex -4.09161 0.599999 1
    endloop
  endfacet
  facet normal 0 1 0
    outer loop
      vertex -10.8988 0.599999 5.87199
      vertex -5.48881 0.599999 1
      vertex -10.8988 0.599999 4.87199
    endloop
  endfacet
  facet normal 0 -1 0
    outer loop
      vertex -10.8988 -0.7 4.87199
      vertex -10.8988 -0.7 1
      vertex -5.48881 -0.7 1
    endloop
  endfacet
  facet normal 0.582005 0 0.813185
    outer loop
      vertex -10.8988 -0.599999 4.87199
      vertex -5.48881 -0.7 1
      vertex -5.48881 -0.599999 1
    endloop
  endfacet
  facet normal 0.582005 0 0.813185
    outer loop
      vertex -5.48881 -0.7 1
      vertex -10.8988 -0.599999 4.87199
      vertex -10.8988 -0.7 4.87199
    endloop
  endfacet
  facet normal 0.582005 0 0.813185
    outer loop
      vertex -10.8988 0.7 4.87199
      vertex -5.48881 0.599999 1
      vertex -5.48881 0.7 1
    endloop
  endfacet
  facet normal 0.582005 0 0.813185
    outer loop
      vertex -5.48881 0.599999 1
      vertex -10.8988 0.7 4.87199
      vertex -10.8988 0.599999 4.87199
    endloop
  endfacet
  facet normal 0 1 0
    outer loop
      vertex -5.48881 0.7 1
      vertex -10.8988 0.7 1
      vertex -10.8988 0.7 4.87199
    endloop
  endfacet
  facet normal 0.866027 0.499997 -5.43825e-06
    outer loop
      vertex 5.7958 -9.23862 7.87199
      vertex 1.69361 -2.13343 1
      vertex 0.995012 -0.923412 1
    endloop
  endfacet
  facet normal 0.866025 0.500001 0
    outer loop
      vertex 1.69361 -2.13343 1
      vertex 5.7958 -9.23862 7.87199
      vertex 5.7958 -9.23862 6.87199
    endloop
  endfacet
  facet normal -0.866025 -0.500001 -0
    outer loop
      vertex 5.10298 -9.63862 7.87199
      vertex 1.00079 -2.53343 1
      vertex 5.10298 -9.63862 6.87199
    endloop
  endfacet
  facet normal -0.866028 -0.499996 6.29272e-06
    outer loop
      vertex 1.00079 -2.53343 1
      vertex 5.10298 -9.63862 7.87199
      vertex 0.302192 -1.32341 1
    endloop
  endfacet
  facet normal 0.500011 -0.866019 0
    outer loop
      vertex 4.84317 -9.78862 1
      vertex 4.92977 -9.73862 4.87199
      vertex 4.84317 -9.78862 4.87199
    endloop
  endfacet
  facet normal 0.5 -0.866025 3.22832e-07
    outer loop
      vertex 4.92977 -9.73862 4.87199
      vertex 4.84317 -9.78862 1
      vertex 5.969 -9.13862 4.87199
    endloop
  endfacet
  facet normal 0.499999 -0.866026 9.22373e-07
    outer loop
      vertex 6.05561 -9.08862 1
      vertex 5.969 -9.13862 4.87199
      vertex 4.84317 -9.78862 1
    endloop
  endfacet
  facet normal 0.499968 -0.866044 0
    outer loop
      vertex 5.969 -9.13862 4.87199
      vertex 6.05561 -9.08862 1
      vertex 6.05561 -9.08862 4.87199
    endloop
  endfacet
  facet normal 0.499968 -0.866044 0
    outer loop
      vertex 4.92977 -9.73862 4.87199
      vertex 5.01638 -9.68862 5.87199
      vertex 4.92977 -9.73862 5.87199
    endloop
  endfacet
  facet normal 0.500002 -0.866024 -4.00002e-06
    outer loop
      vertex 5.01638 -9.68862 5.87199
      vertex 4.92977 -9.73862 4.87199
      vertex 5.8824 -9.18862 5.87199
    endloop
  endfacet
  facet normal 0.5 -0.866025 -1.25e-06
    outer loop
      vertex 5.969 -9.13862 4.87199
      vertex 5.8824 -9.18862 5.87199
      vertex 4.92977 -9.73862 4.87199
    endloop
  endfacet
  facet normal 0.500011 -0.866019 0
    outer loop
      vertex 5.8824 -9.18862 5.87199
      vertex 5.969 -9.13862 4.87199
      vertex 5.969 -9.13862 5.87199
    endloop
  endfacet
  facet normal 0.500011 -0.866019 0
    outer loop
      vertex 5.01638 -9.68862 5.87199
      vertex 5.10298 -9.63862 6.87199
      vertex 5.01638 -9.68862 6.87199
    endloop
  endfacet
  facet normal 0.5 -0.866025 1.25e-06
    outer loop
      vertex 5.10298 -9.63862 6.87199
      vertex 5.01638 -9.68862 5.87199
      vertex 5.7958 -9.23862 6.87199
    endloop
  endfacet
  facet normal 0.500002 -0.866024 -1e-06
    outer loop
      vertex 5.8824 -9.18862 5.87199
      vertex 5.7958 -9.23862 6.87199
      vertex 5.01638 -9.68862 5.87199
    endloop
  endfacet
  facet normal 0.500011 -0.866019 0
    outer loop
      vertex 5.7958 -9.23862 6.87199
      vertex 5.8824 -9.18862 5.87199
      vertex 5.8824 -9.18862 6.87199
    endloop
  endfacet
  facet normal 0.5 -0.866025 0
    outer loop
      vertex 5.10298 -9.63862 6.87199
      vertex 5.7958 -9.23862 7.87199
      vertex 5.10298 -9.63862 7.87199
    endloop
  endfacet
  facet normal 0.5 -0.866025 0
    outer loop
      vertex 5.7958 -9.23862 7.87199
      vertex 5.10298 -9.63862 6.87199
      vertex 5.7958 -9.23862 6.87199
    endloop
  endfacet
  facet normal -0.291002 0.504034 0.813183
    outer loop
      vertex 0.995012 -0.923412 1
      vertex 5.53599 -9.38862 7.87199
      vertex 5.7958 -9.23862 7.87199
    endloop
  endfacet
  facet normal -0.291001 0.504035 0.813183
    outer loop
      vertex 5.53599 -9.38862 7.87199
      vertex 0.995012 -0.923412 1
      vertex 0.735205 -1.07341 1
    endloop
  endfacet
  facet normal 0 0 1
    outer loop
      vertex 5.36279 -9.48862 7.87199
      vertex 5.7958 -9.23862 7.87199
      vertex 5.53599 -9.38862 7.87199
    endloop
  endfacet
  facet normal -0 0 -1
    outer loop
      vertex 5.36279 -9.48862 7.87199
      vertex 5.10298 -9.63862 7.87199
      vertex 5.7958 -9.23862 7.87199
    endloop
  endfacet
  facet normal -0.291002 0.504034 0.813184
    outer loop
      vertex 0.562 -1.17341 1
      vertex 5.10298 -9.63862 7.87199
      vertex 5.36279 -9.48862 7.87199
    endloop
  endfacet
  facet normal -0.291003 0.504033 0.813183
    outer loop
      vertex 5.10298 -9.63862 7.87199
      vertex 0.562 -1.17341 1
      vertex 0.302192 -1.32341 1
    endloop
  endfacet
  facet normal 0.866025 0.5 8.42505e-07
    outer loop
      vertex 5.8824 -9.18862 6.87199
      vertex 2.47882 -3.29344 1
      vertex 1.78022 -2.08343 1
    endloop
  endfacet
  facet normal 0.866026 0.5 0
    outer loop
      vertex 2.47882 -3.29344 1
      vertex 5.8824 -9.18862 6.87199
      vertex 5.8824 -9.18862 5.87199
    endloop
  endfacet
  facet normal -0.866025 -0.500001 -0
    outer loop
      vertex 5.01638 -9.68862 6.87199
      vertex 1.61279 -3.79344 1
      vertex 5.01638 -9.68862 5.87199
    endloop
  endfacet
  facet normal -0.866026 -0.5 1.35088e-06
    outer loop
      vertex 1.61279 -3.79344 1
      vertex 5.01638 -9.68862 6.87199
      vertex 0.914191 -2.58343 1
    endloop
  endfacet
  facet normal -0.29101 0.50403 0.813183
    outer loop
      vertex 1.78022 -2.08343 1
      vertex 5.7958 -9.23862 6.87199
      vertex 5.8824 -9.18862 6.87199
    endloop
  endfacet
  facet normal -0.290985 0.504044 0.813183
    outer loop
      vertex 5.7958 -9.23862 6.87199
      vertex 1.78022 -2.08343 1
      vertex 1.69361 -2.13343 1
    endloop
  endfacet
  facet normal -0.29101 0.50403 0.813183
    outer loop
      vertex 1.00079 -2.53343 1
      vertex 5.01638 -9.68862 6.87199
      vertex 5.10298 -9.63862 6.87199
    endloop
  endfacet
  facet normal -0.291013 0.504028 0.813183
    outer loop
      vertex 5.01638 -9.68862 6.87199
      vertex 1.00079 -2.53343 1
      vertex 0.914191 -2.58343 1
    endloop
  endfacet
  facet normal 0.866025 0.5 1.01543e-06
    outer loop
      vertex 5.969 -9.13862 5.87199
      vertex 3.26402 -4.45345 1
      vertex 2.56542 -3.24344 1
    endloop
  endfacet
  facet normal 0.866026 0.499999 0
    outer loop
      vertex 3.26402 -4.45345 1
      vertex 5.969 -9.13862 5.87199
      vertex 5.969 -9.13862 4.87199
    endloop
  endfacet
  facet normal -0.29101 0.50403 0.813183
    outer loop
      vertex 2.56542 -3.24344 1
      vertex 5.8824 -9.18862 5.87199
      vertex 5.969 -9.13862 5.87199
    endloop
  endfacet
  facet normal -0.29101 0.50403 0.813183
    outer loop
      vertex 5.8824 -9.18862 5.87199
      vertex 2.56542 -3.24344 1
      vertex 2.47882 -3.29344 1
    endloop
  endfacet
  facet normal -0.290985 0.504044 0.813184
    outer loop
      vertex 1.61279 -3.79344 1
      vertex 4.92977 -9.73862 5.87199
      vertex 5.01638 -9.68862 5.87199
    endloop
  endfacet
  facet normal -0.29101 0.50403 0.813183
    outer loop
      vertex 4.92977 -9.73862 5.87199
      vertex 1.61279 -3.79344 1
      vertex 1.52619 -3.84344 1
    endloop
  endfacet
  facet normal -0.866026 -0.499999 -0
    outer loop
      vertex 4.92977 -9.73862 5.87199
      vertex 2.22479 -5.05345 1
      vertex 4.92977 -9.73862 4.87199
    endloop
  endfacet
  facet normal -0.866025 -0.5 -1.01543e-06
    outer loop
      vertex 2.22479 -5.05345 1
      vertex 4.92977 -9.73862 5.87199
      vertex 1.52619 -3.84344 1
    endloop
  endfacet
  facet normal 0.866026 0.499999 -0
    outer loop
      vertex 6.05561 -9.08862 1
      vertex 3.35063 -4.40345 1
      vertex 6.05561 -9.08862 4.87199
    endloop
  endfacet
  facet normal -0.290985 0.504044 0.813184
    outer loop
      vertex 3.35063 -4.40345 1
      vertex 5.969 -9.13862 4.87199
      vertex 6.05561 -9.08862 4.87199
    endloop
  endfacet
  facet normal -0.290985 0.504044 0.813184
    outer loop
      vertex 5.969 -9.13862 4.87199
      vertex 3.35063 -4.40345 1
      vertex 3.26402 -4.45345 1
    endloop
  endfacet
  facet normal -0.29101 0.504029 0.813184
    outer loop
      vertex 2.22479 -5.05345 1
      vertex 4.84317 -9.78862 4.87199
      vertex 4.92977 -9.73862 4.87199
    endloop
  endfacet
  facet normal -0.29101 0.504029 0.813184
    outer loop
      vertex 4.84317 -9.78862 4.87199
      vertex 2.22479 -5.05345 1
      vertex 2.13819 -5.10345 1
    endloop
  endfacet
  facet normal -0.866026 -0.499999 -0
    outer loop
      vertex 4.84317 -9.78862 4.87199
      vertex 2.13819 -5.10345 1
      vertex 4.84317 -9.78862 1
    endloop
  endfacet
endsolid OpenSCAD_Model
