solid OpenSCAD_Model
  facet normal 0 0 -1
    outer loop
      vertex -5.7316 -7.1645 12.8434
      vertex 5.7316 7.1645 12.8434
      vertex 5.7316 -7.1645 12.8434
    endloop
  endfacet
  facet normal -0 0 -1
    outer loop
      vertex 5.7316 7.1645 12.8434
      vertex -5.7316 -7.1645 12.8434
      vertex -5.7316 7.1645 12.8434
    endloop
  endfacet
  facet normal -1 0 0
    outer loop
      vertex -5.7316 -7.1645 12.8434
      vertex -5.7316 7.1645 24.3066
      vertex -5.7316 7.1645 12.8434
    endloop
  endfacet
  facet normal -1 -0 0
    outer loop
      vertex -5.7316 7.1645 24.3066
      vertex -5.7316 -7.1645 12.8434
      vertex -5.7316 -7.1645 24.3066
    endloop
  endfacet
  facet normal -0 0 1
    outer loop
      vertex -5.7316 7.1645 24.3066
      vertex 5.7316 -7.1645 24.3066
      vertex 5.7316 7.1645 24.3066
    endloop
  endfacet
  facet normal 0 0 1
    outer loop
      vertex 5.7316 -7.1645 24.3066
      vertex -5.7316 7.1645 24.3066
      vertex -5.7316 -7.1645 24.3066
    endloop
  endfacet
  facet normal 1 -0 0
    outer loop
      vertex 5.7316 -7.1645 24.3066
      vertex 5.7316 7.1645 12.8434
      vertex 5.7316 7.1645 24.3066
    endloop
  endfacet
  facet normal 1 0 0
    outer loop
      vertex 5.7316 7.1645 12.8434
      vertex 5.7316 -7.1645 24.3066
      vertex 5.7316 -7.1645 12.8434
    endloop
  endfacet
  facet normal 0 -0.563147 -0.826357
    outer loop
      vertex -3.05176e-05 -15.575 18.575
      vertex 5.7316 -7.1645 12.8434
      vertex 3.05176e-05 -15.575 18.575
    endloop
  endfacet
  facet normal -0 -0.563147 -0.826357
    outer loop
      vertex 5.7316 -7.1645 12.8434
      vertex -3.05176e-05 -15.575 18.575
      vertex -5.7316 -7.1645 12.8434
    endloop
  endfacet
  facet normal 0 -0.563147 0.826357
    outer loop
      vertex 5.7316 -7.1645 24.3066
      vertex -3.05176e-05 -15.575 18.575
      vertex 3.05176e-05 -15.575 18.575
    endloop
  endfacet
  facet normal 0 -0.563147 0.826357
    outer loop
      vertex -3.05176e-05 -15.575 18.575
      vertex 5.7316 -7.1645 24.3066
      vertex -5.7316 -7.1645 24.3066
    endloop
  endfacet
  facet normal 0.826358 -0.563145 0
    outer loop
      vertex 3.05176e-05 -15.575 18.575
      vertex 5.7316 -7.1645 12.8434
      vertex 5.7316 -7.1645 24.3066
    endloop
  endfacet
  facet normal -0.826358 -0.563145 0
    outer loop
      vertex -3.05176e-05 -15.575 18.575
      vertex -5.7316 -7.1645 24.3066
      vertex -5.7316 -7.1645 12.8434
    endloop
  endfacet
  facet normal -0.826358 0.563145 0
    outer loop
      vertex -3.05176e-05 15.575 18.575
      vertex -5.7316 7.1645 12.8434
      vertex -5.7316 7.1645 24.3066
    endloop
  endfacet
  facet normal 0 0.563147 -0.826357
    outer loop
      vertex 5.7316 7.1645 12.8434
      vertex -3.05176e-05 15.575 18.575
      vertex 3.05176e-05 15.575 18.575
    endloop
  endfacet
  facet normal 0 0.563147 -0.826357
    outer loop
      vertex -3.05176e-05 15.575 18.575
      vertex 5.7316 7.1645 12.8434
      vertex -5.7316 7.1645 12.8434
    endloop
  endfacet
  facet normal 0.826358 0.563145 0
    outer loop
      vertex 3.05176e-05 15.575 18.575
      vertex 5.7316 7.1645 24.3066
      vertex 5.7316 7.1645 12.8434
    endloop
  endfacet
  facet normal -0 0.563147 0.826357
    outer loop
      vertex -3.05176e-05 15.575 18.575
      vertex 5.7316 7.1645 24.3066
      vertex 3.05176e-05 15.575 18.575
    endloop
  endfacet
  facet normal 0 0.563147 0.826357
    outer loop
      vertex 5.7316 7.1645 24.3066
      vertex -3.05176e-05 15.575 18.575
      vertex -5.7316 7.1645 24.3066
    endloop
  endfacet
endsolid OpenSCAD_Model
