<?xml version="1.0" encoding="UTF-8"?>
<svg xmlns="http://www.w3.org/2000/svg" viewBox="0 0 74.03 102.05">
  <g id="a" data-name="Layer 1"/>
  <g id="b" data-name="Layer 2">
    <g id="c" data-name="Layer 1">
      <path d="M36.83,102.05c-7.88,0-14.6-2.39-20.14-7.18-5.54-4.79-9.71-11.08-12.5-18.89C1.4,68.17,0,59.9,0,51.16s1.4-17.15,4.19-24.95c2.79-7.81,6.96-14.13,12.5-18.96C22.23,2.42,28.95,0,36.83,0s14.64,2.42,20.26,7.25c5.62,4.83,9.85,11.15,12.69,18.96,2.83,7.81,4.25,16.13,4.25,24.95s-1.42,17.01-4.25,24.81c-2.83,7.81-7.06,14.1-12.69,18.89-5.63,4.79-12.38,7.18-20.26,7.18ZM32.64,6.69c-7.23,0-12.67,3.14-16.32,9.41-3.65,6.27-5.48,14.24-5.48,23.91,0,8.36,1.31,16.73,3.94,25.09,2.63,8.36,6.28,15.24,10.96,20.63,4.68,5.39,9.93,8.09,15.77,8.09,7.39,0,12.93-3.18,16.63-9.55,3.7-6.37,5.54-14.43,5.54-24.19,0-8.27-1.31-16.54-3.94-24.81-2.63-8.27-6.32-15.1-11.09-20.49-4.76-5.39-10.1-8.09-16.01-8.09Z"/>
    </g>
  </g>
</svg>