<?xml version="1.0" encoding="UTF-8"?>
<svg xmlns="http://www.w3.org/2000/svg" viewBox="0 0 69.71 102.05">
  <g id="a" data-name="Layer 1"/>
  <g id="b" data-name="Layer 2">
    <g id="c" data-name="Layer 1">
      <path d="M69.71,1.86h-.25l-2.3-1.86c-.95,.69-2.25,1.31-3.89,1.86-.75,.25-1.56,.49-2.46,.72-2.85,.71-5.84,1.07-8.96,1.07-4.6,0-9.31-.23-14.14-.69-2.92-.28-6.39-.65-10.37-1.09-2.6-.29-5.41-.62-8.45-.98l-7.59-.88L0,17.85l2.21,1.38c2.71-3.8,5.71-6.22,9-7.29,1.28-.42,2.6-.63,3.97-.63,2.71,0,5.79,.25,9.23,.75,1.46,.21,2.97,.46,4.56,.76,4.41,.92,8.09,1.38,11.03,1.38,1.58,0,3.25-.14,5-.4-1.42,1.3-3.47,3.17-5.19,4.76-2.12,1.97-4.78,4.46-7.7,7.17-2.43,2.26-4.76,4.6-7.11,6.92-1.8,1.77-3.71,3.45-5.45,5.27-.48,.51-4.97,5.23-4.71,5.47,.99,.92,2,1.86,3.03,2.82,2.34-.34,4.8-.52,7.4-.52,.31,0,.62,.01,.93,.02,4.52,.09,8.73,.78,12.65,2.1,4.18,1.41,7.58,3.51,10.21,6.3,2.62,2.79,3.93,6.2,3.93,10.24,0,6.41-2.38,11.97-7.12,16.68-1.94,1.93-4.28,3.73-7.02,5.37-2.62,1.57-5.35,3.01-8.16,4.33-7.15,3.36-14.9,5.93-23.27,7.68-.17,.04-.33,.08-.5,.11l1.38,3.51c7.63-.48,16.07-2.16,25.31-5.03,9.13-2.83,16.98-6.89,23.55-12.17,.08-.06,.16-.12,.24-.18,4.59-3.72,7.58-7.9,8.99-12.54,.62-2.05,.94-4.19,.94-6.42,0-5.82-1.52-10.7-4.55-14.66-3.04-3.96-7.06-6.89-12.07-8.78-.97-.37-1.96-.69-2.97-.98-2.99-1.16-6.18-1.72-9.7-1.72-1.25-.09-2.52-.14-3.81-.14-.95,0-1.86,.02-2.75,.05,2.4-2.32,12.16-11.93,21.27-20.89,5.12-5.05,10.03-9.88,13.29-13.08,.59-.58,1.12-1.1,1.59-1.57,.76-.69,1.44-1.33,2.02-1.91l-.05-.04,.11-.11Z"/>
    </g>
  </g>
</svg>