<?xml version="1.0" encoding="UTF-8"?>
<svg xmlns="http://www.w3.org/2000/svg" viewBox="0 0 60.41 102.05">
  <g id="a" data-name="Layer 1"/>
  <g id="b" data-name="Layer 2">
    <g id="c" data-name="Layer 1">
      <path d="M43.79,38.86c-5.01-2.01-10.5-3.01-16.48-3.01-4.05,0-7.54,.3-10.48,.9-1.34,.27-2.67,.6-3.99,.98l6.18-23.9H55.58L60.41,0H12.83L.14,46.35c5.15-2.56,11.22-3.84,18.21-3.84,4.87,0,9.4,.75,13.58,2.24,4.18,1.49,7.58,3.71,10.21,6.66s3.93,6.55,3.93,10.82c0,9.56-4.71,17.33-14.13,23.3-9.43,5.97-20.07,10.24-31.93,12.8l1.38,3.71c7.63-.51,16.07-2.28,25.31-5.31,9.24-3.03,17.17-7.38,23.79-13.06,6.62-5.68,9.93-12.36,9.93-20.04,0-6.15-1.52-11.31-4.55-15.49-3.04-4.18-7.06-7.28-12.07-9.28Z"/>
    </g>
  </g>
</svg>