<?xml version="1.0" encoding="UTF-8"?>
<svg xmlns="http://www.w3.org/2000/svg" viewBox="0 0 75.85 102.05">
  <g id="a" data-name="Layer 1"/>
  <g id="b" data-name="Layer 2">
    <g id="c" data-name="Layer 1">
      <path d="M72.34,50.54c-2.34-4.73-5.79-8.55-10.34-11.45-4.55-2.9-10-4.34-16.34-4.34-2.41,0-4.75,.15-7.01,.44-2.16,.27-4.25,.67-6.28,1.2h0c-1.99,.54-3.91,1.2-5.77,1.98-1.36,.57-2.67,1.22-3.96,1.92-1.1,2.23-2.02,4.5-2.77,6.8,3.74-2.51,8.1-4.14,12.54-4.67,.83-.1,1.68-.15,2.52-.18h.01c.31-.01,.62-.03,.93-.03,5.88,0,10.78,1.36,14.69,4.07,3.91,2.71,6.76,6.25,8.55,10.62,1.79,4.37,2.69,8.99,2.69,13.86,0,7.08-1.86,12.87-5.59,17.38-2.52,3.04-5.84,5.03-9.93,6.02-1.96,.47-4.09,.74-6.41,.74-8.74,0-15.26-2.94-19.58-8.83-2.42-3.3-4.38-7.03-5.44-11.19v-.03c-.95-3.42-1.5-7.03-1.63-10.82-.35-10.11,2.34-19.77,8.09-28.98,.6-.96,1.22-1.89,1.86-2.81,.78-1.22,1.61-2.41,2.49-3.56,.71-.93,1.45-1.84,2.22-2.73,4.69-5.42,10.16-10.07,16.41-13.93,6.25-3.86,12.59-6.62,19.03-8.27l-1.1-3.72c-10.12,1.47-19.98,5.17-29.58,11.1-9.61,5.93-17.45,13.4-23.51,22.41C3.03,42.52,0,52.08,0,62.19c0,7.36,1.54,14.07,4.62,20.13,3.08,6.07,7.42,10.87,13.03,14.41,5.61,3.54,12.09,5.31,19.45,5.31,4.18,0,8.17-.6,11.99-1.79,2.57-.8,5.06-1.85,7.46-3.18,5.97-3.31,10.69-7.72,14.14-13.24,3.45-5.52,5.17-11.49,5.17-17.93,0-5.52-1.17-10.64-3.52-15.38Z"/>
    </g>
  </g>
</svg>