<?xml version="1.0" encoding="UTF-8"?>
<svg xmlns="http://www.w3.org/2000/svg" viewBox="0 0 69.78 102.05">
  <g id="a" data-name="Layer 1"/>
  <g id="b" data-name="Layer 2">
    <g id="c" data-name="Layer 1">
      <path d="M69.78,72.54c0,9.11-3.13,16.31-9.38,21.59-6.25,5.28-15.12,7.92-26.62,7.92-6.07,0-11.68-1.11-16.83-3.32-5.15-2.21-9.26-5.41-12.34-9.61-3.08-4.2-4.62-9.09-4.62-14.68,0-5.96,2.11-11.37,6.34-16.24,4.23-4.87,9.47-8.84,15.72-11.91-4.41-2.44-7.98-5.48-10.69-9.14-2.71-3.65-4.07-7.69-4.07-12.11,0-5.41,1.52-10.02,4.55-13.81,3.03-3.79,6.99-6.61,11.86-8.46,4.87-1.85,10.07-2.77,15.58-2.77,7.35,0,13.17,1.72,17.45,5.14,4.28,3.43,6.41,8.35,6.41,14.75,0,9.39-7.49,17.24-22.48,23.55l13.38,7.31c4.96,2.8,8.83,5.87,11.58,9.2,2.76,3.34,4.14,7.53,4.14,12.59Zm-23.45-13.81l-18.34-9.47c-4.05,2.71-7.29,6.09-9.72,10.15-2.44,4.06-3.65,8.21-3.65,12.45,0,6.95,2.09,12.52,6.27,16.71,4.18,4.2,9.72,6.29,16.62,6.29,4.6,0,8.55-.79,11.86-2.37,3.31-1.58,5.81-3.68,7.52-6.29,1.7-2.62,2.55-5.46,2.55-8.53,0-3.79-.99-7.29-2.96-10.49-1.98-3.2-5.36-6.02-10.14-8.46Zm5.38-36.81c0-4.6-1.52-8.44-4.55-11.5-3.03-3.07-7.13-4.6-12.27-4.6-4.87,0-8.92,1.26-12.14,3.79-3.22,2.53-4.83,5.91-4.83,10.15s1.68,8.26,5.03,12.05c3.35,3.79,7.38,6.9,12.07,9.34,4.69-2.07,8.64-4.76,11.86-8.05,3.22-3.29,4.83-7.01,4.83-11.17Z"/>
    </g>
  </g>
</svg>