solid OpenSCAD_Model
  facet normal 0 0.982246 -0.187596
    outer loop
      vertex 3.99562 8.75137 12.648
      vertex -3.65798 8.94631 13.6687
      vertex 3.65798 8.94631 13.6687
    endloop
  endfacet
  facet normal 0 0.982246 -0.187596
    outer loop
      vertex 3.99562 8.75137 12.648
      vertex -3.99562 8.75137 12.648
      vertex -3.65798 8.94631 13.6687
    endloop
  endfacet
  facet normal 1.97074e-07 0.982246 -0.187596
    outer loop
      vertex 2.31423 7.14976 4.26202
      vertex 3.99562 8.75137 12.648
      vertex 5.91873 7.64104 6.83435
    endloop
  endfacet
  facet normal 0 0.982246 -0.187596
    outer loop
      vertex 3.99562 8.75137 12.648
      vertex 2.31423 7.14976 4.26202
      vertex -3.99562 8.75137 12.648
    endloop
  endfacet
  facet normal 0 0.982246 -0.187596
    outer loop
      vertex -2.31423 7.14976 4.26202
      vertex -3.99562 8.75137 12.648
      vertex 2.31423 7.14976 4.26202
    endloop
  endfacet
  facet normal -1.97074e-07 0.982246 -0.187596
    outer loop
      vertex -3.99562 8.75137 12.648
      vertex -2.31423 7.14976 4.26202
      vertex -5.91873 7.64104 6.83435
    endloop
  endfacet
  facet normal 0 0.982247 -0.187595
    outer loop
      vertex -2.31423 7.14976 4.26202
      vertex 2.31423 7.14976 4.26202
      vertex 0 6.83434 2.61048
    endloop
  endfacet
  facet normal 0 -0.982246 0.187599
    outer loop
      vertex -2.31423 -7.14976 16.2411
      vertex 2.31423 -7.14976 16.2411
      vertex 0 -6.83434 17.8926
    endloop
  endfacet
  facet normal -3.88964e-06 -0.982246 0.187596
    outer loop
      vertex -3.99562 -8.75137 7.85509
      vertex -2.31423 -7.14976 16.2411
      vertex -5.91873 -7.64104 13.6687
    endloop
  endfacet
  facet normal 0 -0.982246 0.187595
    outer loop
      vertex -2.31423 -7.14976 16.2411
      vertex -3.99562 -8.75137 7.85509
      vertex 2.31423 -7.14976 16.2411
    endloop
  endfacet
  facet normal 0 -0.982246 0.187595
    outer loop
      vertex 3.99562 -8.75137 7.85509
      vertex 2.31423 -7.14976 16.2411
      vertex -3.99562 -8.75137 7.85509
    endloop
  endfacet
  facet normal 3.88964e-06 -0.982246 0.187596
    outer loop
      vertex 2.31423 -7.14976 16.2411
      vertex 3.99562 -8.75137 7.85509
      vertex 5.91873 -7.64104 13.6687
    endloop
  endfacet
  facet normal 0 -0.982247 0.187594
    outer loop
      vertex -3.65798 -8.94631 6.83438
      vertex 3.99562 -8.75137 7.85509
      vertex -3.99562 -8.75137 7.85509
    endloop
  endfacet
  facet normal 0 -0.982247 0.187594
    outer loop
      vertex 3.99562 -8.75137 7.85509
      vertex -3.65798 -8.94631 6.83438
      vertex 3.65798 -8.94631 6.83438
    endloop
  endfacet
  facet normal -0.850651 0.491123 0.187592
    outer loop
      vertex -9.5767 0.284536 9.50661
      vertex -5.91873 7.64104 6.83435
      vertex -9.5767 1.30524 6.83436
    endloop
  endfacet
  facet normal -0.850651 0.491123 0.187591
    outer loop
      vertex -5.91873 7.64104 6.83435
      vertex -9.5767 0.284536 9.50661
      vertex -3.99562 8.75137 12.648
    endloop
  endfacet
  facet normal -0.850651 0.491124 0.187588
    outer loop
      vertex -3.99562 8.75137 12.648
      vertex -9.5767 0.284536 9.50661
      vertex -9.5767 -0.284536 10.9965
    endloop
  endfacet
  facet normal -0.850651 0.491124 0.187591
    outer loop
      vertex -6.46505 2.7119 17.2618
      vertex -3.65798 8.94631 13.6687
      vertex -3.99562 8.75137 12.648
    endloop
  endfacet
  facet normal -0.850652 0.491123 0.187588
    outer loop
      vertex -3.65798 8.94631 13.6687
      vertex -6.46505 2.7119 17.2618
      vertex -5.91874 3.4172 17.8926
    endloop
  endfacet
  facet normal -0.850651 0.491124 0.18759
    outer loop
      vertex -9.5767 -0.284536 10.9965
      vertex -6.46505 2.7119 17.2618
      vertex -3.99562 8.75137 12.648
    endloop
  endfacet
  facet normal -0.850653 0.491119 0.187593
    outer loop
      vertex -6.46505 2.7119 17.2618
      vertex -9.5767 -0.284536 10.9965
      vertex -9.5767 -1.30524 13.6687
    endloop
  endfacet
  facet normal 0.850651 -0.491123 -0.187595
    outer loop
      vertex 5.91873 -7.64104 13.6687
      vertex 9.5767 -0.284536 10.9965
      vertex 9.5767 -1.30524 13.6687
    endloop
  endfacet
  facet normal 0.850652 -0.491122 -0.187592
    outer loop
      vertex 3.99562 -8.75137 7.85509
      vertex 9.5767 -0.284536 10.9965
      vertex 5.91873 -7.64104 13.6687
    endloop
  endfacet
  facet normal 0.850652 -0.491124 -0.187588
    outer loop
      vertex 9.5767 -0.284536 10.9965
      vertex 3.99562 -8.75137 7.85509
      vertex 9.5767 0.284536 9.50661
    endloop
  endfacet
  facet normal 0.850652 -0.491123 -0.187591
    outer loop
      vertex 9.5767 0.284536 9.50661
      vertex 6.46505 -2.7119 3.24133
      vertex 9.5767 1.30524 6.83436
    endloop
  endfacet
  facet normal 0.850651 -0.491123 -0.187591
    outer loop
      vertex 3.99562 -8.75137 7.85509
      vertex 6.46505 -2.7119 3.24133
      vertex 9.5767 0.284536 9.50661
    endloop
  endfacet
  facet normal 0.850652 -0.491122 -0.18759
    outer loop
      vertex 3.65798 -8.94631 6.83438
      vertex 6.46505 -2.7119 3.24133
      vertex 3.99562 -8.75137 7.85509
    endloop
  endfacet
  facet normal 0.850654 -0.49112 -0.187584
    outer loop
      vertex 6.46505 -2.7119 3.24133
      vertex 3.65798 -8.94631 6.83438
      vertex 5.91874 -3.4172 2.6105
    endloop
  endfacet
  facet normal -0.525739 -0.303534 0.794648
    outer loop
      vertex -9.5767 -1.30524 13.6687
      vertex -2.31423 -7.14976 16.2411
      vertex -6.46505 2.7119 17.2618
    endloop
  endfacet
  facet normal -0.52574 -0.303536 0.794647
    outer loop
      vertex -2.31423 -7.14976 16.2411
      vertex -9.5767 -1.30524 13.6687
      vertex -5.91873 -7.64104 13.6687
    endloop
  endfacet
  facet normal -0.525721 -0.303534 0.79466
    outer loop
      vertex 0 1.8053e-05 20.5031
      vertex -2.31423 -7.14976 16.2411
      vertex 0 -6.83434 17.8926
    endloop
  endfacet
  facet normal -0.525725 -0.303511 0.794666
    outer loop
      vertex -6.46505 2.7119 17.2618
      vertex 0 1.8053e-05 20.5031
      vertex -5.91874 3.4172 17.8926
    endloop
  endfacet
  facet normal -0.525728 -0.30353 0.794657
    outer loop
      vertex 0 1.8053e-05 20.5031
      vertex -6.46505 2.7119 17.2618
      vertex -2.31423 -7.14976 16.2411
    endloop
  endfacet
  facet normal 0.525732 0.30353 -0.794654
    outer loop
      vertex 2.31423 7.14976 4.26202
      vertex 9.5767 1.30524 6.83436
      vertex 6.46505 -2.7119 3.24133
    endloop
  endfacet
  facet normal 0.525731 0.303529 -0.794655
    outer loop
      vertex 9.5767 1.30524 6.83436
      vertex 2.31423 7.14976 4.26202
      vertex 5.91873 7.64104 6.83435
    endloop
  endfacet
  facet normal 0.525731 0.30353 -0.794655
    outer loop
      vertex 0 -1.8053e-05 -4.43854e-06
      vertex 6.46505 -2.7119 3.24133
      vertex 5.91874 -3.4172 2.6105
    endloop
  endfacet
  facet normal 0.525731 0.30353 -0.794655
    outer loop
      vertex 6.46505 -2.7119 3.24133
      vertex 0 -1.8053e-05 -4.43854e-06
      vertex 2.31423 7.14976 4.26202
    endloop
  endfacet
  facet normal 0.525732 0.30353 -0.794654
    outer loop
      vertex 2.31423 7.14976 4.26202
      vertex 0 -1.8053e-05 -4.43854e-06
      vertex 0 6.83434 2.61048
    endloop
  endfacet
  facet normal 0.525739 -0.303534 0.794648
    outer loop
      vertex 2.31423 -7.14976 16.2411
      vertex 9.5767 -1.30524 13.6687
      vertex 6.46505 2.7119 17.2618
    endloop
  endfacet
  facet normal 0.52574 -0.303536 0.794647
    outer loop
      vertex 9.5767 -1.30524 13.6687
      vertex 2.31423 -7.14976 16.2411
      vertex 5.91873 -7.64104 13.6687
    endloop
  endfacet
  facet normal 0.525725 -0.303511 0.794666
    outer loop
      vertex 0 1.8053e-05 20.5031
      vertex 6.46505 2.7119 17.2618
      vertex 5.91874 3.4172 17.8926
    endloop
  endfacet
  facet normal 0.525728 -0.30353 0.794657
    outer loop
      vertex 6.46505 2.7119 17.2618
      vertex 0 1.8053e-05 20.5031
      vertex 2.31423 -7.14976 16.2411
    endloop
  endfacet
  facet normal 0.525721 -0.303534 0.79466
    outer loop
      vertex 2.31423 -7.14976 16.2411
      vertex 0 1.8053e-05 20.5031
      vertex 0 -6.83434 17.8926
    endloop
  endfacet
  facet normal -0.525732 0.30353 -0.794654
    outer loop
      vertex 0 -1.8053e-05 -4.43854e-06
      vertex -2.31423 7.14976 4.26202
      vertex 0 6.83434 2.61048
    endloop
  endfacet
  facet normal -0.525731 0.30353 -0.794655
    outer loop
      vertex -6.46505 -2.7119 3.24133
      vertex 0 -1.8053e-05 -4.43854e-06
      vertex -5.91874 -3.4172 2.6105
    endloop
  endfacet
  facet normal -0.525731 0.30353 -0.794655
    outer loop
      vertex 0 -1.8053e-05 -4.43854e-06
      vertex -6.46505 -2.7119 3.24133
      vertex -2.31423 7.14976 4.26202
    endloop
  endfacet
  facet normal -0.525732 0.30353 -0.794654
    outer loop
      vertex -9.5767 1.30524 6.83436
      vertex -2.31423 7.14976 4.26202
      vertex -6.46505 -2.7119 3.24133
    endloop
  endfacet
  facet normal -0.525731 0.303529 -0.794655
    outer loop
      vertex -2.31423 7.14976 4.26202
      vertex -9.5767 1.30524 6.83436
      vertex -5.91873 7.64104 6.83435
    endloop
  endfacet
  facet normal 0.850651 0.491123 0.187591
    outer loop
      vertex 9.5767 0.284536 9.50661
      vertex 5.91873 7.64104 6.83435
      vertex 3.99562 8.75137 12.648
    endloop
  endfacet
  facet normal 0.850651 0.491123 0.187592
    outer loop
      vertex 5.91873 7.64104 6.83435
      vertex 9.5767 0.284536 9.50661
      vertex 9.5767 1.30524 6.83436
    endloop
  endfacet
  facet normal 0.850651 0.491124 0.187588
    outer loop
      vertex 9.5767 0.284536 9.50661
      vertex 3.99562 8.75137 12.648
      vertex 9.5767 -0.284536 10.9965
    endloop
  endfacet
  facet normal 0.850652 0.491123 0.187588
    outer loop
      vertex 6.46505 2.7119 17.2618
      vertex 3.65798 8.94631 13.6687
      vertex 5.91874 3.4172 17.8926
    endloop
  endfacet
  facet normal 0.850651 0.491124 0.187591
    outer loop
      vertex 3.65798 8.94631 13.6687
      vertex 6.46505 2.7119 17.2618
      vertex 3.99562 8.75137 12.648
    endloop
  endfacet
  facet normal 0.850651 0.491124 0.18759
    outer loop
      vertex 6.46505 2.7119 17.2618
      vertex 9.5767 -0.284536 10.9965
      vertex 3.99562 8.75137 12.648
    endloop
  endfacet
  facet normal 0.850653 0.491119 0.187593
    outer loop
      vertex 9.5767 -0.284536 10.9965
      vertex 6.46505 2.7119 17.2618
      vertex 9.5767 -1.30524 13.6687
    endloop
  endfacet
  facet normal -0.850652 -0.491123 -0.187591
    outer loop
      vertex -6.46505 -2.7119 3.24133
      vertex -9.5767 0.284536 9.50661
      vertex -9.5767 1.30524 6.83436
    endloop
  endfacet
  facet normal -0.850654 -0.49112 -0.187584
    outer loop
      vertex -3.65798 -8.94631 6.83438
      vertex -6.46505 -2.7119 3.24133
      vertex -5.91874 -3.4172 2.6105
    endloop
  endfacet
  facet normal -0.850651 -0.491123 -0.187591
    outer loop
      vertex -6.46505 -2.7119 3.24133
      vertex -3.99562 -8.75137 7.85509
      vertex -9.5767 0.284536 9.50661
    endloop
  endfacet
  facet normal -0.850652 -0.491122 -0.18759
    outer loop
      vertex -6.46505 -2.7119 3.24133
      vertex -3.65798 -8.94631 6.83438
      vertex -3.99562 -8.75137 7.85509
    endloop
  endfacet
  facet normal -0.850652 -0.491124 -0.187588
    outer loop
      vertex -3.99562 -8.75137 7.85509
      vertex -9.5767 -0.284536 10.9965
      vertex -9.5767 0.284536 9.50661
    endloop
  endfacet
  facet normal -0.850651 -0.491123 -0.187595
    outer loop
      vertex -9.5767 -0.284536 10.9965
      vertex -5.91873 -7.64104 13.6687
      vertex -9.5767 -1.30524 13.6687
    endloop
  endfacet
  facet normal -0.850652 -0.491122 -0.187592
    outer loop
      vertex -9.5767 -0.284536 10.9965
      vertex -3.99562 -8.75137 7.85509
      vertex -5.91873 -7.64104 13.6687
    endloop
  endfacet
  facet normal -5.62078e-09 -0.607063 -0.794653
    outer loop
      vertex 3.65798 -8.94631 6.83438
      vertex 0 -1.8053e-05 -4.43854e-06
      vertex 5.91874 -3.4172 2.6105
    endloop
  endfacet
  facet normal 0 -0.607063 -0.794653
    outer loop
      vertex -3.65798 -8.94631 6.83438
      vertex 0 -1.8053e-05 -4.43854e-06
      vertex 3.65798 -8.94631 6.83438
    endloop
  endfacet
  facet normal 5.62078e-09 -0.607063 -0.794653
    outer loop
      vertex 0 -1.8053e-05 -4.43854e-06
      vertex -3.65798 -8.94631 6.83438
      vertex -5.91874 -3.4172 2.6105
    endloop
  endfacet
  facet normal -1.83033e-06 0.607065 0.794652
    outer loop
      vertex 3.65798 8.94631 13.6687
      vertex 0 1.8053e-05 20.5031
      vertex 5.91874 3.4172 17.8926
    endloop
  endfacet
  facet normal -0 0.607064 0.794653
    outer loop
      vertex -3.65798 8.94631 13.6687
      vertex 0 1.8053e-05 20.5031
      vertex 3.65798 8.94631 13.6687
    endloop
  endfacet
  facet normal 1.83033e-06 0.607065 0.794652
    outer loop
      vertex 0 1.8053e-05 20.5031
      vertex -3.65798 8.94631 13.6687
      vertex -5.91874 3.4172 17.8926
    endloop
  endfacet
endsolid OpenSCAD_Model
