solid OpenSCAD_Model
  facet normal 0 0.94281 0.333332
    outer loop
      vertex 6.29901 9.43898 16.014
      vertex -3.85918 9.43898 16.014
      vertex -2.88924 7.06665 22.724
    endloop
  endfacet
  facet normal -0 -0.942809 -0.333333
    outer loop
      vertex 3.85918 -9.43898 9.44783
      vertex -6.29901 -9.43898 9.44783
      vertex 2.88924 -7.06665 2.73787
    endloop
  endfacet
  facet normal -0.816497 -0.471407 0.33333
    outer loop
      vertex -5.48591 -7.08196 19.2584
      vertex -8.06563 -4.79439 16.1745
      vertex -6.21137 -8.01849 16.1569
    endloop
  endfacet
  facet normal -0.816497 -0.471407 0.33333
    outer loop
      vertex -8.06563 -4.79439 16.1745
      vertex -4.67528 -6.03549 22.724
      vertex -11.1653 0.574089 16.1741
    endloop
  endfacet
  facet normal -0.816497 -0.471407 0.33333
    outer loop
      vertex -4.67528 -6.03549 22.724
      vertex -8.06563 -4.79439 16.1745
      vertex -5.48591 -7.08196 19.2584
    endloop
  endfacet
  facet normal 0.816496 0.471406 -0.333333
    outer loop
      vertex 8.06563 4.79439 9.28732
      vertex 4.67528 6.03549 2.73787
      vertex 5.48591 7.08196 6.20344
    endloop
  endfacet
  facet normal 0.816497 0.471404 -0.333334
    outer loop
      vertex 4.67528 6.03549 2.73787
      vertex 8.06563 4.79439 9.28732
      vertex 11.1653 -0.574089 9.28777
    endloop
  endfacet
  facet normal 0.816496 0.471406 -0.333333
    outer loop
      vertex 8.06563 4.79439 9.28732
      vertex 5.48591 7.08196 6.20344
      vertex 6.21137 8.01849 9.30491
    endloop
  endfacet
  facet normal 0.816499 -0.471402 0.333331
    outer loop
      vertex 6.01394 -6.61373 18.6272
      vertex 5.07491 -9.99452 16.1462
      vertex 8.06563 -4.79439 16.1745
    endloop
  endfacet
  facet normal 0.816498 -0.471403 0.333331
    outer loop
      vertex 6.01394 -6.61373 18.6272
      vertex 8.87611 -1.20996 19.2584
      vertex 7.56452 -1.03117 22.724
    endloop
  endfacet
  facet normal 0.816499 -0.471403 0.33333
    outer loop
      vertex 8.06563 -4.79439 16.1745
      vertex 8.87611 -1.20996 19.2584
      vertex 6.01394 -6.61373 18.6272
    endloop
  endfacet
  facet normal 0.816484 -0.471416 0.333349
    outer loop
      vertex 8.87611 -1.20996 19.2584
      vertex 8.06563 -4.79439 16.1745
      vertex 10.0434 -1.36907 16.1743
    endloop
  endfacet
  facet normal -0.816496 0.471405 -0.333334
    outer loop
      vertex -6.01394 6.61373 6.83467
      vertex -8.06563 4.79439 9.28732
      vertex -5.07491 9.99452 9.31569
    endloop
  endfacet
  facet normal -0.816496 0.471405 -0.333334
    outer loop
      vertex -8.87611 1.20996 6.20344
      vertex -8.06563 4.79439 9.28732
      vertex -6.01394 6.61373 6.83467
    endloop
  endfacet
  facet normal -0.816489 0.47141 -0.333343
    outer loop
      vertex -8.06563 4.79439 9.28732
      vertex -8.87611 1.20996 6.20344
      vertex -10.0434 1.36907 9.28761
    endloop
  endfacet
  facet normal -0.816496 0.471405 -0.333334
    outer loop
      vertex -8.87611 1.20996 6.20344
      vertex -6.01394 6.61373 6.83467
      vertex -7.56452 1.03117 2.73787
    endloop
  endfacet
  facet normal 0 0 -1
    outer loop
      vertex 1.24095 4.63111 2.73741
      vertex 4.51974 4.89767 2.73741
      vertex 3.39019 -3.39025 2.73741
    endloop
  endfacet
  facet normal 0 0 -1
    outer loop
      vertex 1.98164 -6.36305 2.73741
      vertex 3.39019 -3.39025 2.73741
      vertex 2.88922 -7.06598 2.73741
    endloop
  endfacet
  facet normal 0 0 -1
    outer loop
      vertex -4.63114 -1.24086 2.73741
      vertex 3.39019 -3.39025 2.73741
      vertex 1.98164 -6.36305 2.73741
    endloop
  endfacet
  facet normal -0 0 -1
    outer loop
      vertex 4.51974 4.89767 2.73741
      vertex 1.24095 4.63111 2.73741
      vertex 4.6747 6.03513 2.73741
    endloop
  endfacet
  facet normal 0 0 -1
    outer loop
      vertex 3.39019 -3.39025 2.73741
      vertex -4.63114 -1.24086 2.73741
      vertex 1.24095 4.63111 2.73741
    endloop
  endfacet
  facet normal 0 0 -1
    outer loop
      vertex -4.63114 -1.24086 2.73741
      vertex -6.50138 1.46538 2.73741
      vertex 1.24095 4.63111 2.73741
    endloop
  endfacet
  facet normal 0 -0 -1
    outer loop
      vertex -6.50138 1.46538 2.73741
      vertex -4.63114 -1.24086 2.73741
      vertex -7.56393 1.03085 2.73741
    endloop
  endfacet
  facet normal 0 0 1
    outer loop
      vertex 4.63114 1.24086 22.7245
      vertex 6.50138 -1.46538 22.7245
      vertex 7.56393 -1.03085 22.7245
    endloop
  endfacet
  facet normal 0 0 1
    outer loop
      vertex 4.63114 1.24086 22.7245
      vertex -1.24095 -4.63111 22.7245
      vertex 6.50138 -1.46538 22.7245
    endloop
  endfacet
  facet normal -0 0 1
    outer loop
      vertex -3.39019 3.39025 22.7245
      vertex 4.63114 1.24086 22.7245
      vertex -1.98164 6.36305 22.7245
    endloop
  endfacet
  facet normal 0 0 1
    outer loop
      vertex -3.39019 3.39025 22.7245
      vertex -1.98164 6.36305 22.7245
      vertex -2.88922 7.06598 22.7245
    endloop
  endfacet
  facet normal 0 0 1
    outer loop
      vertex 4.63114 1.24086 22.7245
      vertex -3.39019 3.39025 22.7245
      vertex -1.24095 -4.63111 22.7245
    endloop
  endfacet
  facet normal 0 0 1
    outer loop
      vertex -4.51974 -4.89767 22.7245
      vertex -1.24095 -4.63111 22.7245
      vertex -3.39019 3.39025 22.7245
    endloop
  endfacet
  facet normal 0 0 1
    outer loop
      vertex -1.24095 -4.63111 22.7245
      vertex -4.51974 -4.89767 22.7245
      vertex -4.6747 -6.03513 22.7245
    endloop
  endfacet
  facet normal -0.649713 0.697305 0.302718
    outer loop
      vertex -2.88924 7.06665 22.724
      vertex -7.57143 4.36338 18.9017
      vertex -2.88939 7.06638 22.7243
    endloop
  endfacet
  facet normal -0.660528 0.67275 0.333332
    outer loop
      vertex -3.85918 9.43898 16.014
      vertex -7.57143 4.36338 18.9017
      vertex -2.88924 7.06665 22.724
    endloop
  endfacet
  facet normal -0.660524 0.672751 0.333339
    outer loop
      vertex -3.85918 9.43898 16.014
      vertex -6.58941 6.76486 16.0009
      vertex -7.57143 4.36338 18.9017
    endloop
  endfacet
  facet normal -0.660525 0.672751 0.333337
    outer loop
      vertex -3.85918 9.43898 16.014
      vertex -4.68557 11.4201 10.3781
      vertex -6.58941 6.76486 16.0009
    endloop
  endfacet
  facet normal -0.661239 0.672109 0.333216
    outer loop
      vertex -4.67477 11.4337 10.3721
      vertex -4.68557 11.4201 10.3781
      vertex -3.85918 9.43898 16.014
    endloop
  endfacet
  facet normal -0.676305 0.705289 0.212553
    outer loop
      vertex -4.67524 11.4334 10.3716
      vertex -4.67477 11.4337 10.3721
      vertex -4.675 11.4336 10.3717
    endloop
  endfacet
  facet normal -0.698786 0.66791 0.256113
    outer loop
      vertex -4.67477 11.4337 10.3721
      vertex -4.67524 11.4334 10.3716
      vertex -4.68557 11.4201 10.3781
    endloop
  endfacet
  facet normal 0.681361 -0.667734 -0.299799
    outer loop
      vertex 4.67477 -11.4337 15.0898
      vertex 4.67524 -11.4334 15.0902
      vertex 4.675 -11.4336 15.0901
    endloop
  endfacet
  facet normal 0.680083 -0.670689 -0.29608
    outer loop
      vertex 4.67477 -11.4337 15.0898
      vertex 4.68557 -11.4201 15.0838
      vertex 4.67524 -11.4334 15.0902
    endloop
  endfacet
  facet normal 0.661241 -0.672109 -0.333212
    outer loop
      vertex 3.85918 -9.43898 9.44783
      vertex 4.68557 -11.4201 15.0838
      vertex 4.67477 -11.4337 15.0898
    endloop
  endfacet
  facet normal 0.660531 -0.672747 -0.333332
    outer loop
      vertex 4.68557 -11.4201 15.0838
      vertex 3.85918 -9.43898 9.44783
      vertex 6.58941 -6.76486 9.46101
    endloop
  endfacet
  facet normal 0.66053 -0.672747 -0.333333
    outer loop
      vertex 3.85918 -9.43898 9.44783
      vertex 7.57143 -4.36338 6.5602
      vertex 6.58941 -6.76486 9.46101
    endloop
  endfacet
  facet normal 0.66053 -0.672747 -0.333333
    outer loop
      vertex 2.88924 -7.06665 2.73787
      vertex 7.57143 -4.36338 6.5602
      vertex 3.85918 -9.43898 9.44783
    endloop
  endfacet
  facet normal 0.655795 -0.683944 -0.319614
    outer loop
      vertex 7.57143 -4.36338 6.5602
      vertex 2.88924 -7.06665 2.73787
      vertex 2.88939 -7.06638 2.7376
    endloop
  endfacet
  facet normal -0.216156 -0.919529 0.328241
    outer loop
      vertex -7.56434 -9.76546 10.3718
      vertex -7.21712 -9.31688 11.8571
      vertex -7.56448 -9.76532 10.3721
    endloop
  endfacet
  facet normal -0.252365 -0.908401 0.333345
    outer loop
      vertex -7.21712 -9.31688 11.8571
      vertex -7.56434 -9.76546 10.3718
      vertex -2.5199 -9.07811 16.0639
    endloop
  endfacet
  facet normal -0.266022 -0.903831 0.335145
    outer loop
      vertex -5.48591 -7.08196 19.2584
      vertex -4.67497 -6.03547 22.7243
      vertex -4.67528 -6.03549 22.724
    endloop
  endfacet
  facet normal -0.252352 -0.908411 0.333329
    outer loop
      vertex -5.48591 -7.08196 19.2584
      vertex -1.37929e-09 -8.73475 18.9073
      vertex -4.67497 -6.03547 22.7243
    endloop
  endfacet
  facet normal -0.252357 -0.908409 0.333331
    outer loop
      vertex -2.5199 -9.07811 16.0639
      vertex -5.48591 -7.08196 19.2584
      vertex -6.21137 -8.01849 16.1569
    endloop
  endfacet
  facet normal -0.252351 -0.908408 0.333337
    outer loop
      vertex -5.48591 -7.08196 19.2584
      vertex -2.5199 -9.07811 16.0639
      vertex -1.37929e-09 -8.73475 18.9073
    endloop
  endfacet
  facet normal -0.252356 -0.908407 0.333335
    outer loop
      vertex -2.5199 -9.07811 16.0639
      vertex -6.21137 -8.01849 16.1569
      vertex -7.21712 -9.31688 11.8571
    endloop
  endfacet
  facet normal 0.25235 0.908409 -0.333335
    outer loop
      vertex 6.21137 8.01849 9.30491
      vertex 2.5199 9.07811 9.39799
      vertex 7.21712 9.31688 13.6047
    endloop
  endfacet
  facet normal 0.25235 0.90841 -0.333333
    outer loop
      vertex 5.48591 7.08196 6.20344
      vertex 2.5199 9.07811 9.39799
      vertex 6.21137 8.01849 9.30491
    endloop
  endfacet
  facet normal 0.252351 0.90841 -0.333332
    outer loop
      vertex 2.5199 9.07811 9.39799
      vertex 5.48591 7.08196 6.20344
      vertex 1.37929e-09 8.73475 6.55455
    endloop
  endfacet
  facet normal 0.252351 0.90841 -0.333332
    outer loop
      vertex 4.67528 6.03549 2.73787
      vertex 1.37929e-09 8.73475 6.55455
      vertex 5.48591 7.08196 6.20344
    endloop
  endfacet
  facet normal 0.24196 0.906886 -0.344983
    outer loop
      vertex 1.37929e-09 8.73475 6.55455
      vertex 4.67528 6.03549 2.73787
      vertex 4.67497 6.03547 2.7376
    endloop
  endfacet
  facet normal 0.216187 0.919528 -0.328226
    outer loop
      vertex 7.21712 9.31688 13.6047
      vertex 7.56434 9.76546 15.0901
      vertex 7.56448 9.76532 15.0898
    endloop
  endfacet
  facet normal 0.252337 0.908418 -0.333321
    outer loop
      vertex 7.56434 9.76546 15.0901
      vertex 7.21712 9.31688 13.6047
      vertex 2.5199 9.07811 9.39799
    endloop
  endfacet
  facet normal 0.912872 0.235674 0.333351
    outer loop
      vertex 10.0434 -1.36907 16.1743
      vertex 9.12292 2.35535 16.0619
      vertex 8.87611 -1.20996 19.2584
    endloop
  endfacet
  facet normal 0.912883 0.235676 0.333319
    outer loop
      vertex 10.0434 -1.36907 16.1743
      vertex 12.2376 -1.66381 10.3733
      vertex 9.12292 2.35535 16.0619
    endloop
  endfacet
  facet normal 0.90946 0.251336 0.331229
    outer loop
      vertex 12.2393 -1.66838 10.3721
      vertex 12.2376 -1.66381 10.3733
      vertex 10.0434 -1.36907 16.1743
    endloop
  endfacet
  facet normal 0.920643 0.267904 0.283978
    outer loop
      vertex 12.2376 -1.66381 10.3733
      vertex 12.2393 -1.66838 10.3721
      vertex 12.2393 -1.66785 10.3716
    endloop
  endfacet
  facet normal 1 0 0
    outer loop
      vertex 12.2393 -1.66785 10.3716
      vertex 12.2393 -1.66838 10.3721
      vertex 12.2393 -1.66815 10.3717
    endloop
  endfacet
  facet normal 0.91288 0.23566 0.333338
    outer loop
      vertex 8.87611 -1.20996 19.2584
      vertex 9.12183 2.35676 16.0639
      vertex 7.56452 4.36739 18.9073
    endloop
  endfacet
  facet normal 0.912884 0.23566 0.333328
    outer loop
      vertex 8.87611 -1.20996 19.2584
      vertex 7.56452 4.36739 18.9073
      vertex 7.56436 -1.03091 22.7243
    endloop
  endfacet
  facet normal 0.923706 0.175514 0.340531
    outer loop
      vertex 8.87611 -1.20996 19.2584
      vertex 7.56436 -1.03091 22.7243
      vertex 7.56452 -1.03117 22.724
    endloop
  endfacet
  facet normal 0.913476 0.234738 0.332354
    outer loop
      vertex 9.12183 2.35676 16.0639
      vertex 8.87611 -1.20996 19.2584
      vertex 9.12292 2.35535 16.0619
    endloop
  endfacet
  facet normal -1 0 0
    outer loop
      vertex -12.2393 1.66838 15.0898
      vertex -12.2393 1.66785 15.0902
      vertex -12.2393 1.66815 15.0901
    endloop
  endfacet
  facet normal -0.912442 -0.246508 -0.326623
    outer loop
      vertex -12.2393 1.66838 15.0898
      vertex -12.2376 1.66381 15.0885
      vertex -12.2393 1.66785 15.0902
    endloop
  endfacet
  facet normal -0.911006 -0.244395 -0.332173
    outer loop
      vertex -10.0434 1.36907 9.28761
      vertex -12.2376 1.66381 15.0885
      vertex -12.2393 1.66838 15.0898
    endloop
  endfacet
  facet normal -0.912875 -0.235672 -0.333345
    outer loop
      vertex -9.12292 -2.35535 9.39998
      vertex -10.0434 1.36907 9.28761
      vertex -8.87611 1.20996 6.20344
    endloop
  endfacet
  facet normal -0.912882 -0.235673 -0.333325
    outer loop
      vertex -10.0434 1.36907 9.28761
      vertex -9.12292 -2.35535 9.39998
      vertex -12.2376 1.66381 15.0885
    endloop
  endfacet
  facet normal -0.916926 -0.215434 -0.335908
    outer loop
      vertex -7.56436 1.03091 2.7376
      vertex -8.87611 1.20996 6.20344
      vertex -7.56452 1.03117 2.73787
    endloop
  endfacet
  facet normal -0.912882 -0.235662 -0.333333
    outer loop
      vertex -7.56452 -4.36739 6.55457
      vertex -8.87611 1.20996 6.20344
      vertex -7.56436 1.03091 2.7376
    endloop
  endfacet
  facet normal -0.912969 -0.235525 -0.333189
    outer loop
      vertex -8.87611 1.20996 6.20344
      vertex -9.12183 -2.35676 9.39799
      vertex -9.12292 -2.35535 9.39998
    endloop
  endfacet
  facet normal -0.912881 -0.235662 -0.333334
    outer loop
      vertex -8.87611 1.20996 6.20344
      vertex -7.56452 -4.36739 6.55457
      vertex -9.12183 -2.35676 9.39799
    endloop
  endfacet
  facet normal 0.429984 0.486238 0.760715
    outer loop
      vertex 6.29901 9.43898 16.014
      vertex 7.56432 9.76549 15.0901
      vertex 7.56403 9.76559 15.0902
    endloop
  endfacet
  facet normal 0.408221 0.527084 0.745345
    outer loop
      vertex 7.56432 9.76549 15.0901
      vertex 6.29901 9.43898 16.014
      vertex 7.5645 4.62513 18.7251
    endloop
  endfacet
  facet normal 0.408217 0.527084 0.745346
    outer loop
      vertex 6.29901 9.43898 16.014
      vertex 4.08077 5.2585 20.1852
      vertex 7.5645 4.62513 18.7251
    endloop
  endfacet
  facet normal 0.408227 0.527078 0.745345
    outer loop
      vertex 6.29901 9.43898 16.014
      vertex -1.98164 6.36305 22.7245
      vertex 4.08077 5.2585 20.1852
    endloop
  endfacet
  facet normal 0.408213 0.527099 0.745338
    outer loop
      vertex -2.88924 7.06665 22.724
      vertex -1.98164 6.36305 22.7245
      vertex 6.29901 9.43898 16.014
    endloop
  endfacet
  facet normal 0.425491 0.549368 0.719133
    outer loop
      vertex -1.98164 6.36305 22.7245
      vertex -2.88924 7.06665 22.724
      vertex -2.88922 7.06598 22.7245
    endloop
  endfacet
  facet normal 0.443645 0.544473 0.711848
    outer loop
      vertex -2.88922 7.06598 22.7245
      vertex -2.88924 7.06665 22.724
      vertex -2.88939 7.06638 22.7243
    endloop
  endfacet
  facet normal -0.40128 -0.526548 -0.749481
    outer loop
      vertex 2.88924 -7.06665 2.73787
      vertex 2.88922 -7.06598 2.73741
      vertex 2.88939 -7.06638 2.7376
    endloop
  endfacet
  facet normal -0.406829 -0.525272 -0.747382
    outer loop
      vertex 2.88924 -7.06665 2.73787
      vertex 1.98164 -6.36305 2.73741
      vertex 2.88922 -7.06598 2.73741
    endloop
  endfacet
  facet normal -0.408225 -0.527073 -0.74535
    outer loop
      vertex -6.29901 -9.43898 9.44783
      vertex 1.98164 -6.36305 2.73741
      vertex 2.88924 -7.06665 2.73787
    endloop
  endfacet
  facet normal -0.408223 -0.527076 -0.745349
    outer loop
      vertex 1.98164 -6.36305 2.73741
      vertex -6.29901 -9.43898 9.44783
      vertex -4.08077 -5.2585 5.27667
    endloop
  endfacet
  facet normal -0.429981 -0.486217 -0.760729
    outer loop
      vertex -7.56432 -9.76549 10.3717
      vertex -6.29901 -9.43898 9.44783
      vertex -7.56403 -9.76559 10.3716
    endloop
  endfacet
  facet normal -0.408212 -0.527078 -0.745354
    outer loop
      vertex -6.29901 -9.43898 9.44783
      vertex -7.56432 -9.76549 10.3717
      vertex -7.5645 -4.62513 6.73679
    endloop
  endfacet
  facet normal -0.408222 -0.527077 -0.745349
    outer loop
      vertex -6.29901 -9.43898 9.44783
      vertex -7.5645 -4.62513 6.73679
      vertex -4.08077 -5.2585 5.27667
    endloop
  endfacet
  facet normal 0.660586 -0.672715 -0.333286
    outer loop
      vertex 5.58464 -10.2594 14.523
      vertex 4.68557 -11.4201 15.0838
      vertex 6.58941 -6.76486 9.46101
    endloop
  endfacet
  facet normal 0.660575 -0.672723 -0.333294
    outer loop
      vertex 6.58941 -6.76486 9.46101
      vertex 12.2393 -1.66838 10.3721
      vertex 5.58464 -10.2594 14.523
    endloop
  endfacet
  facet normal 0.653072 -0.656504 -0.37749
    outer loop
      vertex 12.2393 -1.66838 10.3721
      vertex 6.58941 -6.76486 9.46101
      vertex 12.2393 -1.66815 10.3717
    endloop
  endfacet
  facet normal 0.660577 -0.672721 -0.333294
    outer loop
      vertex 6.58941 -6.76486 9.46101
      vertex 7.78773 -4.23848 6.73679
      vertex 12.2393 -1.66815 10.3717
    endloop
  endfacet
  facet normal 0.660569 -0.672725 -0.333301
    outer loop
      vertex 7.78773 -4.23848 6.73679
      vertex 6.58941 -6.76486 9.46101
      vertex 7.57143 -4.36338 6.5602
    endloop
  endfacet
  facet normal -0.660577 0.67272 0.333296
    outer loop
      vertex -6.58941 6.76486 16.0009
      vertex -7.78773 4.23848 18.7251
      vertex -7.57143 4.36338 18.9017
    endloop
  endfacet
  facet normal -0.660581 0.672718 0.333292
    outer loop
      vertex -6.58941 6.76486 16.0009
      vertex -12.2393 1.66815 15.0901
      vertex -7.78773 4.23848 18.7251
    endloop
  endfacet
  facet normal -0.631287 0.615481 0.471868
    outer loop
      vertex -6.58941 6.76486 16.0009
      vertex -12.2393 1.66838 15.0898
      vertex -12.2393 1.66815 15.0901
    endloop
  endfacet
  facet normal -0.660576 0.672722 0.333293
    outer loop
      vertex -12.2393 1.66838 15.0898
      vertex -6.58941 6.76486 16.0009
      vertex -5.58464 10.2594 10.9389
    endloop
  endfacet
  facet normal -0.660587 0.672715 0.333286
    outer loop
      vertex -5.58464 10.2594 10.9389
      vertex -6.58941 6.76486 16.0009
      vertex -4.68557 11.4201 10.3781
    endloop
  endfacet
  facet normal -0.252302 0.617047 -0.745383
    outer loop
      vertex 1.24095 4.63111 2.73741
      vertex -6.50138 1.46538 2.73741
      vertex -2.51361 6.16331 5.27667
    endloop
  endfacet
  facet normal -0.252303 0.617047 -0.745383
    outer loop
      vertex 1.37929e-09 8.73475 6.55455
      vertex 4.6747 6.03513 2.73741
      vertex 1.24095 4.63111 2.73741
    endloop
  endfacet
  facet normal -0.252375 0.616974 -0.74542
    outer loop
      vertex 4.6747 6.03513 2.73741
      vertex 1.37929e-09 8.73475 6.55455
      vertex 4.67497 6.03547 2.7376
    endloop
  endfacet
  facet normal -0.252302 0.617047 -0.745384
    outer loop
      vertex -2.51361 6.16331 5.27667
      vertex 1.37929e-09 8.73475 6.55455
      vertex 1.24095 4.63111 2.73741
    endloop
  endfacet
  facet normal -0.252308 0.617051 -0.745378
    outer loop
      vertex 1.37929e-09 8.73475 6.55455
      vertex -2.51361 6.16331 5.27667
      vertex -0.223237 8.86361 6.73679
    endloop
  endfacet
  facet normal 0.252304 -0.617053 0.745378
    outer loop
      vertex 6.50138 -1.46538 22.7245
      vertex -1.24095 -4.63111 22.7245
      vertex 2.51361 -6.16331 20.1852
    endloop
  endfacet
  facet normal 0.252239 -0.617015 0.745431
    outer loop
      vertex 2.51361 -6.16331 20.1852
      vertex -1.37929e-09 -8.73475 18.9073
      vertex 0.223237 -8.86361 18.7251
    endloop
  endfacet
  facet normal 0.252304 -0.617052 0.745378
    outer loop
      vertex -1.24095 -4.63111 22.7245
      vertex -1.37929e-09 -8.73475 18.9073
      vertex 2.51361 -6.16331 20.1852
    endloop
  endfacet
  facet normal 0.252305 -0.617052 0.745378
    outer loop
      vertex -4.6747 -6.03513 22.7245
      vertex -1.37929e-09 -8.73475 18.9073
      vertex -1.24095 -4.63111 22.7245
    endloop
  endfacet
  facet normal 0.241956 -0.627484 0.740082
    outer loop
      vertex -1.37929e-09 -8.73475 18.9073
      vertex -4.6747 -6.03513 22.7245
      vertex -4.67497 -6.03547 22.7243
    endloop
  endfacet
  facet normal -0.81547 -0.479533 0.324126
    outer loop
      vertex -12.2376 1.66381 15.0885
      vertex -11.1653 0.574089 16.1741
      vertex -12.2393 1.66785 15.0902
    endloop
  endfacet
  facet normal -0.816508 -0.471391 0.333324
    outer loop
      vertex -11.6772 0.293259 14.523
      vertex -11.1653 0.574089 16.1741
      vertex -12.2376 1.66381 15.0885
    endloop
  endfacet
  facet normal -0.816499 -0.471408 0.333324
    outer loop
      vertex -11.6772 0.293259 14.523
      vertex -8.06563 -4.79439 16.1745
      vertex -11.1653 0.574089 16.1741
    endloop
  endfacet
  facet normal -0.816498 -0.471405 0.33333
    outer loop
      vertex -7.21712 -9.31688 11.8571
      vertex -8.06563 -4.79439 16.1745
      vertex -11.6772 0.293259 14.523
    endloop
  endfacet
  facet normal -0.816496 -0.471407 0.333332
    outer loop
      vertex -8.06563 -4.79439 16.1745
      vertex -7.21712 -9.31688 11.8571
      vertex -6.21137 -8.01849 16.1569
    endloop
  endfacet
  facet normal -0.816492 -0.471406 0.333343
    outer loop
      vertex -7.21712 -9.31688 11.8571
      vertex -11.6772 0.293259 14.523
      vertex -7.56448 -9.76532 10.3721
    endloop
  endfacet
  facet normal 0.816503 0.471402 -0.333322
    outer loop
      vertex 11.6772 -0.293259 10.9389
      vertex 7.21712 9.31688 13.6047
      vertex 7.56448 9.76532 15.0898
    endloop
  endfacet
  facet normal 0.816496 0.471406 -0.333332
    outer loop
      vertex 7.21712 9.31688 13.6047
      vertex 8.06563 4.79439 9.28732
      vertex 6.21137 8.01849 9.30491
    endloop
  endfacet
  facet normal 0.8165 0.471402 -0.333328
    outer loop
      vertex 7.21712 9.31688 13.6047
      vertex 11.6772 -0.293259 10.9389
      vertex 8.06563 4.79439 9.28732
    endloop
  endfacet
  facet normal 0.816502 0.471406 -0.333319
    outer loop
      vertex 11.6772 -0.293259 10.9389
      vertex 11.1653 -0.574089 9.28777
      vertex 8.06563 4.79439 9.28732
    endloop
  endfacet
  facet normal 0.8165 0.47141 -0.333318
    outer loop
      vertex 12.2376 -1.66381 10.3733
      vertex 11.1653 -0.574089 9.28777
      vertex 11.6772 -0.293259 10.9389
    endloop
  endfacet
  facet normal 0.815463 0.479535 -0.324138
    outer loop
      vertex 11.1653 -0.574089 9.28777
      vertex 12.2376 -1.66381 10.3733
      vertex 12.2393 -1.66785 10.3716
    endloop
  endfacet
  facet normal -0.682595 0.0929922 0.724856
    outer loop
      vertex -4.67528 -6.03549 22.724
      vertex -4.6747 -6.03513 22.7245
      vertex -4.51974 -4.89767 22.7245
    endloop
  endfacet
  facet normal -0.693572 0.134468 0.707726
    outer loop
      vertex -4.6747 -6.03513 22.7245
      vertex -4.67528 -6.03549 22.724
      vertex -4.67497 -6.03547 22.7243
    endloop
  endfacet
  facet normal -0.660574 0.0899961 0.745347
    outer loop
      vertex -11.1653 0.574089 16.1741
      vertex -4.51974 -4.89767 22.7245
      vertex -6.59439 0.904801 20.1852
    endloop
  endfacet
  facet normal -0.660574 0.0899885 0.745348
    outer loop
      vertex -11.1653 0.574089 16.1741
      vertex -6.59439 0.904801 20.1852
      vertex -7.78773 4.23848 18.7251
    endloop
  endfacet
  facet normal -0.660585 0.0899745 0.74534
    outer loop
      vertex -4.51974 -4.89767 22.7245
      vertex -11.1653 0.574089 16.1741
      vertex -4.67528 -6.03549 22.724
    endloop
  endfacet
  facet normal -0.660586 0.090008 0.745335
    outer loop
      vertex -12.2393 1.66815 15.0901
      vertex -11.1653 0.574089 16.1741
      vertex -7.78773 4.23848 18.7251
    endloop
  endfacet
  facet normal -0.536286 0.266908 0.800723
    outer loop
      vertex -11.1653 0.574089 16.1741
      vertex -12.2393 1.66815 15.0901
      vertex -12.2393 1.66785 15.0902
    endloop
  endfacet
  facet normal 0.536248 -0.266915 -0.800746
    outer loop
      vertex 12.2393 -1.66815 10.3717
      vertex 11.1653 -0.574089 9.28777
      vertex 12.2393 -1.66785 10.3716
    endloop
  endfacet
  facet normal 0.660572 -0.0899888 -0.74535
    outer loop
      vertex 7.78773 -4.23848 6.73679
      vertex 11.1653 -0.574089 9.28777
      vertex 12.2393 -1.66815 10.3717
    endloop
  endfacet
  facet normal 0.660574 -0.0899928 -0.745348
    outer loop
      vertex 6.59439 -0.904801 5.27667
      vertex 11.1653 -0.574089 9.28777
      vertex 7.78773 -4.23848 6.73679
    endloop
  endfacet
  facet normal 0.660574 -0.0899912 -0.745348
    outer loop
      vertex 4.51974 4.89767 2.73741
      vertex 11.1653 -0.574089 9.28777
      vertex 6.59439 -0.904801 5.27667
    endloop
  endfacet
  facet normal 0.66057 -0.0899987 -0.74535
    outer loop
      vertex 11.1653 -0.574089 9.28777
      vertex 4.51974 4.89767 2.73741
      vertex 4.67528 6.03549 2.73787
    endloop
  endfacet
  facet normal 0.652209 -0.0888526 -0.752814
    outer loop
      vertex 4.6747 6.03513 2.73741
      vertex 4.67528 6.03549 2.73787
      vertex 4.51974 4.89767 2.73741
    endloop
  endfacet
  facet normal 0.657009 -0.104524 -0.746601
    outer loop
      vertex 4.67528 6.03549 2.73787
      vertex 4.6747 6.03513 2.73741
      vertex 4.67497 6.03547 2.7376
    endloop
  endfacet
  facet normal -0.394293 -0.262862 -0.880589
    outer loop
      vertex 7.56434 9.76546 15.0901
      vertex 7.56403 9.76559 15.0902
      vertex 7.56432 9.76549 15.0901
    endloop
  endfacet
  facet normal 0.260351 0.89653 -0.358401
    outer loop
      vertex 7.56434 9.76546 15.0901
      vertex 6.09258 9.96615 14.523
      vertex 7.56403 9.76559 15.0902
    endloop
  endfacet
  facet normal 0.252299 0.90844 -0.33329
    outer loop
      vertex 6.09258 9.96615 14.523
      vertex 7.56434 9.76546 15.0901
      vertex 2.5199 9.07811 9.39799
    endloop
  endfacet
  facet normal 0.252304 0.908437 -0.333293
    outer loop
      vertex 2.5199 9.07811 9.39799
      vertex -4.67477 11.4337 10.3721
      vertex 6.09258 9.96615 14.523
    endloop
  endfacet
  facet normal 0.252303 0.908437 -0.333294
    outer loop
      vertex -0.223237 8.86361 6.73679
      vertex -4.67477 11.4337 10.3721
      vertex 2.5199 9.07811 9.39799
    endloop
  endfacet
  facet normal 0.229786 0.904869 -0.358344
    outer loop
      vertex -4.67477 11.4337 10.3721
      vertex -0.223237 8.86361 6.73679
      vertex -4.675 11.4336 10.3717
    endloop
  endfacet
  facet normal 0.2523 0.908439 -0.333291
    outer loop
      vertex -0.223237 8.86361 6.73679
      vertex 2.5199 9.07811 9.39799
      vertex 1.37929e-09 8.73475 6.55455
    endloop
  endfacet
  facet normal -0.252327 -0.908422 0.333318
    outer loop
      vertex -2.5199 -9.07811 16.0639
      vertex 0.223237 -8.86361 18.7251
      vertex -1.37929e-09 -8.73475 18.9073
    endloop
  endfacet
  facet normal -0.252304 -0.908437 0.333295
    outer loop
      vertex 4.67477 -11.4337 15.0898
      vertex 0.223237 -8.86361 18.7251
      vertex -2.5199 -9.07811 16.0639
    endloop
  endfacet
  facet normal -0.166978 -0.889836 0.424629
    outer loop
      vertex 0.223237 -8.86361 18.7251
      vertex 4.67477 -11.4337 15.0898
      vertex 4.675 -11.4336 15.0901
    endloop
  endfacet
  facet normal -0.252304 -0.908437 0.333294
    outer loop
      vertex 4.67477 -11.4337 15.0898
      vertex -2.5199 -9.07811 16.0639
      vertex -6.09258 -9.96615 10.9389
    endloop
  endfacet
  facet normal -0.252299 -0.90844 0.333291
    outer loop
      vertex -7.56434 -9.76546 10.3718
      vertex -6.09258 -9.96615 10.9389
      vertex -2.5199 -9.07811 16.0639
    endloop
  endfacet
  facet normal -0.244021 -0.941224 0.233563
    outer loop
      vertex -7.56403 -9.76559 10.3716
      vertex -7.56434 -9.76546 10.3718
      vertex -7.56432 -9.76549 10.3717
    endloop
  endfacet
  facet normal -0.227413 -0.939032 0.25788
    outer loop
      vertex -7.56434 -9.76546 10.3718
      vertex -7.56403 -9.76559 10.3716
      vertex -6.09258 -9.96615 10.9389
    endloop
  endfacet
  facet normal -0.408228 -0.527025 -0.745382
    outer loop
      vertex -4.08077 -5.2585 5.27667
      vertex -4.63114 -1.24086 2.73741
      vertex 1.98164 -6.36305 2.73741
    endloop
  endfacet
  facet normal -0.408227 -0.527025 -0.745383
    outer loop
      vertex -7.56452 -4.36739 6.55457
      vertex -4.63114 -1.24086 2.73741
      vertex -4.08077 -5.2585 5.27667
    endloop
  endfacet
  facet normal -0.408228 -0.527024 -0.745383
    outer loop
      vertex -4.63114 -1.24086 2.73741
      vertex -7.56452 -4.36739 6.55457
      vertex -7.56393 1.03085 2.73741
    endloop
  endfacet
  facet normal -0.408227 -0.527016 -0.745389
    outer loop
      vertex -7.56452 -4.36739 6.55457
      vertex -4.08077 -5.2585 5.27667
      vertex -7.5645 -4.62513 6.73679
    endloop
  endfacet
  facet normal -0.403768 -0.528169 -0.747
    outer loop
      vertex -7.56393 1.03085 2.73741
      vertex -7.56452 -4.36739 6.55457
      vertex -7.56436 1.03091 2.7376
    endloop
  endfacet
  facet normal 0.408231 0.527029 0.745377
    outer loop
      vertex 4.08077 5.2585 20.1852
      vertex -1.98164 6.36305 22.7245
      vertex 4.63114 1.24086 22.7245
    endloop
  endfacet
  facet normal 0.408227 0.526977 0.745416
    outer loop
      vertex 4.08077 5.2585 20.1852
      vertex 7.56452 4.36739 18.9073
      vertex 7.5645 4.62513 18.7251
    endloop
  endfacet
  facet normal 0.418154 0.524427 0.741703
    outer loop
      vertex 7.56452 4.36739 18.9073
      vertex 7.56393 -1.03085 22.7245
      vertex 7.56436 -1.03091 22.7243
    endloop
  endfacet
  facet normal 0.40823 0.527027 0.745379
    outer loop
      vertex 7.56452 4.36739 18.9073
      vertex 4.63114 1.24086 22.7245
      vertex 7.56393 -1.03085 22.7245
    endloop
  endfacet
  facet normal 0.408227 0.52703 0.745379
    outer loop
      vertex 7.56452 4.36739 18.9073
      vertex 4.08077 5.2585 20.1852
      vertex 4.63114 1.24086 22.7245
    endloop
  endfacet
  facet normal 0.81649 -0.47142 0.333327
    outer loop
      vertex 8.06563 -4.79439 16.1745
      vertex 12.2393 -1.66838 10.3721
      vertex 10.0434 -1.36907 16.1743
    endloop
  endfacet
  facet normal 0.8165 -0.471403 0.333329
    outer loop
      vertex 5.58464 -10.2594 14.523
      vertex 8.06563 -4.79439 16.1745
      vertex 5.07491 -9.99452 16.1462
    endloop
  endfacet
  facet normal 0.816495 -0.471404 0.333339
    outer loop
      vertex 8.06563 -4.79439 16.1745
      vertex 5.58464 -10.2594 14.523
      vertex 12.2393 -1.66838 10.3721
    endloop
  endfacet
  facet normal 0.816499 -0.471404 0.333329
    outer loop
      vertex 5.07491 -9.99452 16.1462
      vertex 4.68557 -11.4201 15.0838
      vertex 5.58464 -10.2594 14.523
    endloop
  endfacet
  facet normal 0.815421 -0.472217 0.334814
    outer loop
      vertex 4.68557 -11.4201 15.0838
      vertex 5.07491 -9.99452 16.1462
      vertex 4.67524 -11.4334 15.0902
    endloop
  endfacet
  facet normal -0.816563 0.471357 -0.333239
    outer loop
      vertex -5.07491 9.99452 9.31569
      vertex -4.68557 11.4201 10.3781
      vertex -4.67524 11.4334 10.3716
    endloop
  endfacet
  facet normal -0.816499 0.471405 -0.333327
    outer loop
      vertex -4.68557 11.4201 10.3781
      vertex -5.07491 9.99452 9.31569
      vertex -5.58464 10.2594 10.9389
    endloop
  endfacet
  facet normal -0.816498 0.471406 -0.333327
    outer loop
      vertex -8.06563 4.79439 9.28732
      vertex -5.58464 10.2594 10.9389
      vertex -5.07491 9.99452 9.31569
    endloop
  endfacet
  facet normal -0.816495 0.471407 -0.333333
    outer loop
      vertex -8.06563 4.79439 9.28732
      vertex -12.2393 1.66838 15.0898
      vertex -5.58464 10.2594 10.9389
    endloop
  endfacet
  facet normal -0.816494 0.471413 -0.333329
    outer loop
      vertex -12.2393 1.66838 15.0898
      vertex -8.06563 4.79439 9.28732
      vertex -10.0434 1.36907 9.28761
    endloop
  endfacet
  facet normal 0.234567 -0.669207 0.705082
    outer loop
      vertex 7.56393 -1.03085 22.7245
      vertex 7.56452 -1.03117 22.724
      vertex 7.56436 -1.03091 22.7243
    endloop
  endfacet
  facet normal 0.262483 -0.641846 0.720511
    outer loop
      vertex 6.50138 -1.46538 22.7245
      vertex 7.56452 -1.03117 22.724
      vertex 7.56393 -1.03085 22.7245
    endloop
  endfacet
  facet normal 0.252376 -0.617071 0.745339
    outer loop
      vertex 6.50138 -1.46538 22.7245
      vertex 6.01394 -6.61373 18.6272
      vertex 7.56452 -1.03117 22.724
    endloop
  endfacet
  facet normal 0.252349 -0.617073 0.745346
    outer loop
      vertex 2.51361 -6.16331 20.1852
      vertex 6.01394 -6.61373 18.6272
      vertex 6.50138 -1.46538 22.7245
    endloop
  endfacet
  facet normal 0.252352 -0.617068 0.745349
    outer loop
      vertex 6.01394 -6.61373 18.6272
      vertex 2.51361 -6.16331 20.1852
      vertex 5.07491 -9.99452 16.1462
    endloop
  endfacet
  facet normal 0.252353 -0.617067 0.745349
    outer loop
      vertex 0.223237 -8.86361 18.7251
      vertex 5.07491 -9.99452 16.1462
      vertex 2.51361 -6.16331 20.1852
    endloop
  endfacet
  facet normal 0.252335 -0.617098 0.74533
    outer loop
      vertex 4.675 -11.4336 15.0901
      vertex 5.07491 -9.99452 16.1462
      vertex 0.223237 -8.86361 18.7251
    endloop
  endfacet
  facet normal 0.193879 -0.614868 0.764426
    outer loop
      vertex 5.07491 -9.99452 16.1462
      vertex 4.675 -11.4336 15.0901
      vertex 4.67524 -11.4334 15.0902
    endloop
  endfacet
  facet normal -0.252351 0.61707 -0.745348
    outer loop
      vertex -5.07491 9.99452 9.31569
      vertex -0.223237 8.86361 6.73679
      vertex -2.51361 6.16331 5.27667
    endloop
  endfacet
  facet normal -0.252352 0.61707 -0.745348
    outer loop
      vertex -0.223237 8.86361 6.73679
      vertex -5.07491 9.99452 9.31569
      vertex -4.675 11.4336 10.3717
    endloop
  endfacet
  facet normal -0.193837 0.614836 -0.764463
    outer loop
      vertex -4.675 11.4336 10.3717
      vertex -5.07491 9.99452 9.31569
      vertex -4.67524 11.4334 10.3716
    endloop
  endfacet
  facet normal -0.252351 0.617071 -0.745347
    outer loop
      vertex -2.51361 6.16331 5.27667
      vertex -6.01394 6.61373 6.83467
      vertex -5.07491 9.99452 9.31569
    endloop
  endfacet
  facet normal -0.252351 0.61707 -0.745348
    outer loop
      vertex -6.50138 1.46538 2.73741
      vertex -6.01394 6.61373 6.83467
      vertex -2.51361 6.16331 5.27667
    endloop
  endfacet
  facet normal -0.250929 0.613593 -0.748691
    outer loop
      vertex -7.56452 1.03117 2.73787
      vertex -6.50138 1.46538 2.73741
      vertex -7.56393 1.03085 2.73741
    endloop
  endfacet
  facet normal -0.241548 0.623515 -0.743561
    outer loop
      vertex -7.56452 1.03117 2.73787
      vertex -7.56393 1.03085 2.73741
      vertex -7.56436 1.03091 2.7376
    endloop
  endfacet
  facet normal -0.252348 0.61707 -0.745349
    outer loop
      vertex -6.50138 1.46538 2.73741
      vertex -7.56452 1.03117 2.73787
      vertex -6.01394 6.61373 6.83467
    endloop
  endfacet
  facet normal -0.912881 -0.235757 -0.333266
    outer loop
      vertex -9.12292 -2.35535 9.39998
      vertex -11.6772 0.293259 14.523
      vertex -12.2376 1.66381 15.0885
    endloop
  endfacet
  facet normal -0.912968 -0.23427 -0.334077
    outer loop
      vertex -11.6772 0.293259 14.523
      vertex -9.12292 -2.35535 9.39998
      vertex -9.12183 -2.35676 9.39799
    endloop
  endfacet
  facet normal -0.912881 -0.235711 -0.3333
    outer loop
      vertex -7.5645 -4.62513 6.73679
      vertex -9.12183 -2.35676 9.39799
      vertex -7.56452 -4.36739 6.55457
    endloop
  endfacet
  facet normal -0.912881 -0.235719 -0.333293
    outer loop
      vertex -7.56448 -9.76532 10.3721
      vertex -9.12183 -2.35676 9.39799
      vertex -7.5645 -4.62513 6.73679
    endloop
  endfacet
  facet normal -0.912884 -0.235719 -0.333286
    outer loop
      vertex -9.12183 -2.35676 9.39799
      vertex -7.56448 -9.76532 10.3721
      vertex -11.6772 0.293259 14.523
    endloop
  endfacet
  facet normal -0.918753 -0.227986 -0.322358
    outer loop
      vertex -7.5645 -4.62513 6.73679
      vertex -7.56434 -9.76546 10.3718
      vertex -7.56448 -9.76532 10.3721
    endloop
  endfacet
  facet normal -0.980184 -0.114391 -0.16172
    outer loop
      vertex -7.56434 -9.76546 10.3718
      vertex -7.5645 -4.62513 6.73679
      vertex -7.56432 -9.76549 10.3717
    endloop
  endfacet
  facet normal 0.654682 0.436454 0.617171
    outer loop
      vertex 7.5645 4.62513 18.7251
      vertex 7.56434 9.76546 15.0901
      vertex 7.56432 9.76549 15.0901
    endloop
  endfacet
  facet normal 0.918753 0.227985 0.322358
    outer loop
      vertex 7.5645 4.62513 18.7251
      vertex 7.56448 9.76532 15.0898
      vertex 7.56434 9.76546 15.0901
    endloop
  endfacet
  facet normal 0.91288 0.235695 0.333313
    outer loop
      vertex 9.12183 2.35676 16.0639
      vertex 7.5645 4.62513 18.7251
      vertex 7.56452 4.36739 18.9073
    endloop
  endfacet
  facet normal 0.912881 0.235719 0.333293
    outer loop
      vertex 7.5645 4.62513 18.7251
      vertex 9.12183 2.35676 16.0639
      vertex 7.56448 9.76532 15.0898
    endloop
  endfacet
  facet normal 0.912884 0.235718 0.333287
    outer loop
      vertex 7.56448 9.76532 15.0898
      vertex 9.12183 2.35676 16.0639
      vertex 11.6772 -0.293259 10.9389
    endloop
  endfacet
  facet normal 0.913421 0.22549 0.338844
    outer loop
      vertex 9.12292 2.35535 16.0619
      vertex 11.6772 -0.293259 10.9389
      vertex 9.12183 2.35676 16.0639
    endloop
  endfacet
  facet normal 0.912883 0.235726 0.333284
    outer loop
      vertex 11.6772 -0.293259 10.9389
      vertex 9.12292 2.35535 16.0619
      vertex 12.2376 -1.66381 10.3733
    endloop
  endfacet
  facet normal 0.66053 -0.0900227 -0.745383
    outer loop
      vertex 6.59439 -0.904801 5.27667
      vertex 3.39019 -3.39025 2.73741
      vertex 4.51974 4.89767 2.73741
    endloop
  endfacet
  facet normal 0.660527 -0.0900265 -0.745386
    outer loop
      vertex 7.57143 -4.36338 6.5602
      vertex 6.59439 -0.904801 5.27667
      vertex 7.78773 -4.23848 6.73679
    endloop
  endfacet
  facet normal 0.66053 -0.0900244 -0.745383
    outer loop
      vertex 7.57143 -4.36338 6.5602
      vertex 3.39019 -3.39025 2.73741
      vertex 6.59439 -0.904801 5.27667
    endloop
  endfacet
  facet normal 0.656877 -0.0770991 -0.750046
    outer loop
      vertex 2.88922 -7.06598 2.73741
      vertex 7.57143 -4.36338 6.5602
      vertex 2.88939 -7.06638 2.7376
    endloop
  endfacet
  facet normal 0.66053 -0.0900245 -0.745383
    outer loop
      vertex 7.57143 -4.36338 6.5602
      vertex 2.88922 -7.06598 2.73741
      vertex 3.39019 -3.39025 2.73741
    endloop
  endfacet
  facet normal -0.660535 0.0900235 0.745378
    outer loop
      vertex -3.39019 3.39025 22.7245
      vertex -6.59439 0.904801 20.1852
      vertex -4.51974 -4.89767 22.7245
    endloop
  endfacet
  facet normal -0.660944 0.0915155 0.744834
    outer loop
      vertex -7.57143 4.36338 18.9017
      vertex -2.88922 7.06598 22.7245
      vertex -2.88939 7.06638 22.7243
    endloop
  endfacet
  facet normal -0.660531 0.0900247 0.745382
    outer loop
      vertex -2.88922 7.06598 22.7245
      vertex -7.57143 4.36338 18.9017
      vertex -3.39019 3.39025 22.7245
    endloop
  endfacet
  facet normal -0.660533 0.0900168 0.745381
    outer loop
      vertex -3.39019 3.39025 22.7245
      vertex -7.57143 4.36338 18.9017
      vertex -6.59439 0.904801 20.1852
    endloop
  endfacet
  facet normal -0.660542 0.0900111 0.745373
    outer loop
      vertex -6.59439 0.904801 20.1852
      vertex -7.57143 4.36338 18.9017
      vertex -7.78773 4.23848 18.7251
    endloop
  endfacet
  facet normal 1.09568e-05 0.942805 0.333344
    outer loop
      vertex 6.09258 9.96615 14.523
      vertex 6.29901 9.43898 16.014
      vertex 7.56403 9.76559 15.0902
    endloop
  endfacet
  facet normal 0 0.942805 0.333346
    outer loop
      vertex 6.29901 9.43898 16.014
      vertex 6.09258 9.96615 14.523
      vertex -3.85918 9.43898 16.014
    endloop
  endfacet
  facet normal -1.85566e-06 0.942809 0.333335
    outer loop
      vertex -3.85918 9.43898 16.014
      vertex 6.09258 9.96615 14.523
      vertex -4.67477 11.4337 10.3721
    endloop
  endfacet
  facet normal 6.60117e-06 -0.942809 -0.333333
    outer loop
      vertex -6.29901 -9.43898 9.44783
      vertex -6.09258 -9.96615 10.9389
      vertex -7.56403 -9.76559 10.3716
    endloop
  endfacet
  facet normal -0 -0.94281 -0.333332
    outer loop
      vertex 3.85918 -9.43898 9.44783
      vertex -6.09258 -9.96615 10.9389
      vertex -6.29901 -9.43898 9.44783
    endloop
  endfacet
  facet normal 1.67225e-07 -0.94281 -0.333331
    outer loop
      vertex -6.09258 -9.96615 10.9389
      vertex 3.85918 -9.43898 9.44783
      vertex 4.67477 -11.4337 15.0898
    endloop
  endfacet
endsolid OpenSCAD_Model
