solid OpenSCAD_Model
  facet normal 2.90601e-05 0.607078 0.794642
    outer loop
      vertex 8.18124 11.2606 26.7665
      vertex -5.05551 6.95972 30.0527
      vertex 0.000571481 0.00090071 35.3688
    endloop
  endfacet
  facet normal -2.98159e-05 -0.607078 -0.794643
    outer loop
      vertex 5.05551 -6.95972 5.53314
      vertex -8.18124 -11.2606 8.81935
      vertex -0.000571481 -0.00090071 0.217049
    endloop
  endfacet
  facet normal -0.577351 -0.794647 0.187621
    outer loop
      vertex -2.59278 -14.8781 21.2428
      vertex -8.01461 -11.1329 20.421
      vertex -4.97902 -14.1028 17.1835
    endloop
  endfacet
  facet normal -0.577341 -0.794654 0.187622
    outer loop
      vertex -8.01461 -11.1329 20.421
      vertex -0.00016215 -15.7203 25.6532
      vertex -12.9623 -6.30278 25.6537
    endloop
  endfacet
  facet normal -0.577351 -0.794641 0.187648
    outer loop
      vertex -0.00016215 -15.7203 25.6532
      vertex -8.01461 -11.1329 20.421
      vertex -2.59278 -14.8781 21.2428
    endloop
  endfacet
  facet normal 0.577349 0.794643 -0.187646
    outer loop
      vertex 8.01461 11.1329 15.1648
      vertex 0.00016215 15.7203 9.9327
      vertex 2.59278 14.8781 14.3431
    endloop
  endfacet
  facet normal 0.577341 0.794654 -0.187625
    outer loop
      vertex 0.00016215 15.7203 9.9327
      vertex 8.01461 11.1329 15.1648
      vertex 12.9623 6.30278 9.93216
    endloop
  endfacet
  facet normal 0.577349 0.794649 -0.187619
    outer loop
      vertex 8.01461 11.1329 15.1648
      vertex 2.59278 14.8781 14.3431
      vertex 4.97902 14.1028 18.4024
    endloop
  endfacet
  facet normal 0.934165 -0.303539 -0.187616
    outer loop
      vertex 11.8865 -9.07607 17.2161
      vertex 9.96203 -11.7248 11.9192
      vertex 13.0346 -4.29365 15.1953
    endloop
  endfacet
  facet normal 0.934166 -0.303541 -0.18761
    outer loop
      vertex 14.9513 -2.13194 21.2416
      vertex 13.0346 -4.29365 15.1953
      vertex 14.9512 0.352215 17.2219
    endloop
  endfacet
  facet normal 0.934166 -0.30353 -0.187625
    outer loop
      vertex 11.8865 -9.07607 17.2161
      vertex 14.9513 -2.13194 21.2416
      vertex 14.9515 -4.85764 25.6521
    endloop
  endfacet
  facet normal 0.934166 -0.303537 -0.187612
    outer loop
      vertex 14.9513 -2.13194 21.2416
      vertex 11.8865 -9.07607 17.2161
      vertex 13.0346 -4.29365 15.1953
    endloop
  endfacet
  facet normal -0.934164 0.30354 0.187618
    outer loop
      vertex -11.8865 9.07607 18.3698
      vertex -13.0346 4.29365 20.3906
      vertex -9.96203 11.7248 23.6666
    endloop
  endfacet
  facet normal -0.934166 0.303531 0.187623
    outer loop
      vertex -14.9513 2.13194 14.3443
      vertex -11.8865 9.07607 18.3698
      vertex -14.9515 4.85764 9.93374
    endloop
  endfacet
  facet normal -0.934166 0.303537 0.187612
    outer loop
      vertex -11.8865 9.07607 18.3698
      vertex -14.9513 2.13194 14.3443
      vertex -13.0346 4.29365 20.3906
    endloop
  endfacet
  facet normal -0.934166 0.303541 0.18761
    outer loop
      vertex -13.0346 4.29365 20.3906
      vertex -14.9513 2.13194 14.3443
      vertex -14.9512 -0.352215 18.364
    endloop
  endfacet
  facet normal -0.356854 0.491106 -0.794651
    outer loop
      vertex -4.19528 12.6725 9.9323
      vertex -0.000693786 14.3607 9.09197
      vertex -0.00087302 4.41063 2.94277
    endloop
  endfacet
  facet normal -0.356854 0.491108 -0.79465
    outer loop
      vertex -1.29377 0.420177 1.0572
      vertex -0.00087302 4.41063 2.94277
      vertex -0.000952582 0.000182923 0.21707
    endloop
  endfacet
  facet normal -0.356853 0.491108 -0.79465
    outer loop
      vertex -10.7565 3.49493 7.20687
      vertex -0.00087302 4.41063 2.94277
      vertex -1.29377 0.420177 1.0572
    endloop
  endfacet
  facet normal -0.356857 0.491117 -0.794643
    outer loop
      vertex -0.000693786 14.3607 9.09197
      vertex -4.19528 12.6725 9.9323
      vertex -0.00075123 15.72 9.93209
    endloop
  endfacet
  facet normal -0.356853 0.491106 -0.794651
    outer loop
      vertex -0.00087302 4.41063 2.94277
      vertex -10.7565 3.49493 7.20687
      vertex -4.19528 12.6725 9.9323
    endloop
  endfacet
  facet normal -0.356854 0.491106 -0.794651
    outer loop
      vertex -10.7565 3.49493 7.20687
      vertex -13.6582 5.79719 9.93277
      vertex -4.19528 12.6725 9.9323
    endloop
  endfacet
  facet normal -0.356862 0.491098 -0.794652
    outer loop
      vertex -13.6582 5.79719 9.93277
      vertex -10.7565 3.49493 7.20687
      vertex -14.9509 4.85785 9.93278
    endloop
  endfacet
  facet normal 0.356859 -0.491102 0.794652
    outer loop
      vertex 10.7565 -3.49493 28.379
      vertex 13.6582 -5.79719 25.6531
      vertex 14.9509 -4.85785 25.6531
    endloop
  endfacet
  facet normal 0.356856 -0.491105 0.794651
    outer loop
      vertex 10.7565 -3.49493 28.379
      vertex 4.19528 -12.6725 25.6536
      vertex 13.6582 -5.79719 25.6531
    endloop
  endfacet
  facet normal 0.356852 -0.491112 0.794648
    outer loop
      vertex 0.00087302 -4.41063 32.6431
      vertex 10.7565 -3.49493 28.379
      vertex 1.29377 -0.420177 34.5287
    endloop
  endfacet
  facet normal 0.356838 -0.491111 0.794655
    outer loop
      vertex 0.00087302 -4.41063 32.6431
      vertex 1.29377 -0.420177 34.5287
      vertex 0.000952582 -0.000182923 35.3688
    endloop
  endfacet
  facet normal 0.356853 -0.491104 0.794653
    outer loop
      vertex 10.7565 -3.49493 28.379
      vertex 0.00087302 -4.41063 32.6431
      vertex 4.19528 -12.6725 25.6536
    endloop
  endfacet
  facet normal 0.356849 -0.491107 0.794653
    outer loop
      vertex 0.000693786 -14.3607 26.4939
      vertex 4.19528 -12.6725 25.6536
      vertex 0.00087302 -4.41063 32.6431
    endloop
  endfacet
  facet normal 0.35685 -0.49111 0.794651
    outer loop
      vertex 4.19528 -12.6725 25.6536
      vertex 0.000693786 -14.3607 26.4939
      vertex 0.00075123 -15.72 25.6538
    endloop
  endfacet
  facet normal -0.577297 0.18764 0.794682
    outer loop
      vertex -8.08111 2.69431 28.8619
      vertex 0.000571481 0.00090071 35.3688
      vertex -5.05551 6.95972 30.0527
    endloop
  endfacet
  facet normal -0.577297 0.187637 0.794682
    outer loop
      vertex -7.48382 -2.43155 30.5061
      vertex 0.000571481 0.00090071 35.3688
      vertex -8.08111 2.69431 28.8619
    endloop
  endfacet
  facet normal -0.571689 0.144444 0.807656
    outer loop
      vertex 0.000571481 0.00090071 35.3688
      vertex -7.48382 -2.43155 30.5061
      vertex 0.000571481 0.000341562 35.3689
    endloop
  endfacet
  facet normal -0.577171 0.187775 0.794742
    outer loop
      vertex -9.24656 12.6989 25.653
      vertex -5.05551 6.95972 30.0527
      vertex -9.23956 12.7183 25.6535
    endloop
  endfacet
  facet normal -0.546245 0.00910409 0.837576
    outer loop
      vertex -9.24033 12.7181 25.653
      vertex -9.23956 12.7183 25.6535
      vertex -9.24002 12.7183 25.6532
    endloop
  endfacet
  facet normal -0.568515 0.184471 0.801724
    outer loop
      vertex -9.23956 12.7183 25.6535
      vertex -9.24033 12.7181 25.653
      vertex -9.24656 12.6989 25.653
    endloop
  endfacet
  facet normal -0.577296 0.187639 0.794683
    outer loop
      vertex -5.05551 6.95972 30.0527
      vertex -9.24656 12.6989 25.653
      vertex -8.08111 2.69431 28.8619
    endloop
  endfacet
  facet normal 0.579681 -0.289013 -0.761867
    outer loop
      vertex 9.23956 -12.7183 9.93234
      vertex 9.24033 -12.7181 9.93285
      vertex 9.24002 -12.7183 9.93269
    endloop
  endfacet
  facet normal 0.575745 -0.186817 -0.796001
    outer loop
      vertex 9.24033 -12.7181 9.93285
      vertex 9.23956 -12.7183 9.93234
      vertex 9.24656 -12.6989 9.93285
    endloop
  endfacet
  facet normal 0.577452 -0.18747 -0.79461
    outer loop
      vertex 5.05551 -6.95972 5.53314
      vertex 9.24656 -12.6989 9.93285
      vertex 9.23956 -12.7183 9.93234
    endloop
  endfacet
  facet normal 0.577296 -0.187639 -0.794683
    outer loop
      vertex 9.24656 -12.6989 9.93285
      vertex 5.05551 -6.95972 5.53314
      vertex 8.08111 -2.69431 6.72394
    endloop
  endfacet
  facet normal 0.577296 -0.187639 -0.794683
    outer loop
      vertex -0.000571481 -0.00090071 0.217049
      vertex 8.08111 -2.69431 6.72394
      vertex 5.05551 -6.95972 5.53314
    endloop
  endfacet
  facet normal 0.577296 -0.187639 -0.794683
    outer loop
      vertex 8.08111 -2.69431 6.72394
      vertex -0.000571481 -0.00090071 0.217049
      vertex 7.48382 2.43155 5.07973
    endloop
  endfacet
  facet normal 0.577292 -0.187606 -0.794693
    outer loop
      vertex 7.48382 2.43155 5.07973
      vertex -0.000571481 -0.00090071 0.217049
      vertex -0.000571481 -0.000341562 0.216917
    endloop
  endfacet
  facet normal -0.257792 -0.96564 -0.0329096
    outer loop
      vertex -9.24061 -12.7183 9.93329
      vertex -8.1297 -13.0793 11.8237
      vertex -9.24067 -12.7183 9.93376
    endloop
  endfacet
  facet normal -4.46384e-05 -0.982255 -0.187549
    outer loop
      vertex -8.1297 -13.0793 11.8237
      vertex -9.24061 -12.7183 9.93329
      vertex 0.00280448 -13.7195 15.1747
    endloop
  endfacet
  facet normal -0.146879 -0.983928 -0.101547
    outer loop
      vertex -2.59278 -14.8781 21.2428
      vertex 0.000369468 -15.7204 25.6534
      vertex -0.00016215 -15.7203 25.6532
    endloop
  endfacet
  facet normal -4.40403e-05 -0.982254 -0.187557
    outer loop
      vertex -2.59278 -14.8781 21.2428
      vertex 4.62026 -14.2197 17.793
      vertex 0.000369468 -15.7204 25.6534
    endloop
  endfacet
  facet normal -5.86201e-05 -0.982251 -0.187569
    outer loop
      vertex 0.00280448 -13.7195 15.1747
      vertex -2.59278 -14.8781 21.2428
      vertex -4.97902 -14.1028 17.1835
    endloop
  endfacet
  facet normal -4.79976e-05 -0.982252 -0.187565
    outer loop
      vertex -2.59278 -14.8781 21.2428
      vertex 0.00280448 -13.7195 15.1747
      vertex 4.62026 -14.2197 17.793
    endloop
  endfacet
  facet normal -4.74453e-05 -0.982256 -0.187542
    outer loop
      vertex 0.00280448 -13.7195 15.1747
      vertex -4.97902 -14.1028 17.1835
      vertex -8.1297 -13.0793 11.8237
    endloop
  endfacet
  facet normal 4.74453e-05 0.982256 0.187542
    outer loop
      vertex 4.97902 14.1028 18.4024
      vertex -0.00280448 13.7195 20.4112
      vertex 8.1297 13.0793 23.7622
    endloop
  endfacet
  facet normal 5.86201e-05 0.982251 0.187569
    outer loop
      vertex 2.59278 14.8781 14.3431
      vertex -0.00280448 13.7195 20.4112
      vertex 4.97902 14.1028 18.4024
    endloop
  endfacet
  facet normal 4.79976e-05 0.982252 0.187565
    outer loop
      vertex -0.00280448 13.7195 20.4112
      vertex 2.59278 14.8781 14.3431
      vertex -4.62026 14.2197 17.7929
    endloop
  endfacet
  facet normal 0.144422 0.984138 0.103032
    outer loop
      vertex -0.000369468 15.7204 9.93249
      vertex 2.59278 14.8781 14.3431
      vertex 0.00016215 15.7203 9.9327
    endloop
  endfacet
  facet normal 4.38816e-05 0.982254 0.187557
    outer loop
      vertex 2.59278 14.8781 14.3431
      vertex -0.000369468 15.7204 9.93249
      vertex -4.62026 14.2197 17.7929
    endloop
  endfacet
  facet normal 0.260408 0.964993 0.0312489
    outer loop
      vertex 8.1297 13.0793 23.7622
      vertex 9.24061 12.7183 25.6526
      vertex 9.24067 12.7183 25.6521
    endloop
  endfacet
  facet normal 4.40989e-05 0.982255 0.18755
    outer loop
      vertex 9.24061 12.7183 25.6526
      vertex 8.1297 13.0793 23.7622
      vertex -0.00280448 13.7195 20.4112
    endloop
  endfacet
  facet normal 0.930993 0.321817 0.172295
    outer loop
      vertex 14.9508 4.8573 9.93213
      vertex 14.9505 4.8582 9.93207
      vertex 14.948 4.86169 9.93906
    endloop
  endfacet
  facet normal 0.881833 0.317206 0.348927
    outer loop
      vertex 14.9505 4.8582 9.93207
      vertex 14.9508 4.8573 9.93213
      vertex 14.9507 4.85782 9.93191
    endloop
  endfacet
  facet normal 0.934189 0.303521 0.187527
    outer loop
      vertex 14.9512 0.352215 17.2219
      vertex 14.948 4.86169 9.93906
      vertex 13.0478 4.23955 20.4121
    endloop
  endfacet
  facet normal 0.934923 0.301881 0.186512
    outer loop
      vertex 14.948 4.86169 9.93906
      vertex 14.9512 0.352215 17.2219
      vertex 14.9508 4.8573 9.93213
    endloop
  endfacet
  facet normal 0.93419 0.303508 0.187543
    outer loop
      vertex 14.9512 0.352215 17.2219
      vertex 13.0478 4.23955 20.4121
      vertex 14.9513 -2.13194 21.2416
    endloop
  endfacet
  facet normal 0.934197 0.3035 0.187523
    outer loop
      vertex 14.9513 -2.13194 21.2416
      vertex 13.0472 4.23933 20.4157
      vertex 12.0966 3.92952 25.6528
    endloop
  endfacet
  facet normal 0.93696 0.302658 0.174656
    outer loop
      vertex 13.0472 4.23933 20.4157
      vertex 14.9513 -2.13194 21.2416
      vertex 13.0478 4.23955 20.4121
    endloop
  endfacet
  facet normal 0.934196 0.303504 0.187517
    outer loop
      vertex 14.9514 -4.8576 25.6527
      vertex 14.9513 -2.13194 21.2416
      vertex 12.0966 3.92952 25.6528
    endloop
  endfacet
  facet normal 0.961397 0.234093 0.144627
    outer loop
      vertex 14.9513 -2.13194 21.2416
      vertex 14.9514 -4.8576 25.6527
      vertex 14.9515 -4.85764 25.6521
    endloop
  endfacet
  facet normal -0.93419 -0.303508 -0.187543
    outer loop
      vertex -13.0478 -4.23955 15.1738
      vertex -14.9512 -0.352215 18.364
      vertex -14.9513 2.13194 14.3443
    endloop
  endfacet
  facet normal -0.934189 -0.30352 -0.187528
    outer loop
      vertex -14.948 -4.86169 25.6468
      vertex -14.9512 -0.352215 18.364
      vertex -13.0478 -4.23955 15.1738
    endloop
  endfacet
  facet normal -0.934671 -0.302445 -0.186862
    outer loop
      vertex -14.9512 -0.352215 18.364
      vertex -14.948 -4.86169 25.6468
      vertex -14.9508 -4.8573 25.6537
    endloop
  endfacet
  facet normal -0.929417 -0.32849 -0.168159
    outer loop
      vertex -14.9505 -4.8582 25.6538
      vertex -14.9508 -4.8573 25.6537
      vertex -14.948 -4.86169 25.6468
    endloop
  endfacet
  facet normal -0.839638 -0.327983 -0.432938
    outer loop
      vertex -14.9508 -4.8573 25.6537
      vertex -14.9505 -4.8582 25.6538
      vertex -14.9507 -4.85782 25.6539
    endloop
  endfacet
  facet normal -0.956623 -0.247843 -0.153122
    outer loop
      vertex -14.9514 4.8576 9.93318
      vertex -14.9513 2.13194 14.3443
      vertex -14.9515 4.85764 9.93374
    endloop
  endfacet
  facet normal -0.934197 -0.303504 -0.187516
    outer loop
      vertex -12.0966 -3.92952 9.93306
      vertex -14.9513 2.13194 14.3443
      vertex -14.9514 4.8576 9.93318
    endloop
  endfacet
  facet normal -0.934197 -0.303497 -0.187525
    outer loop
      vertex -13.0472 -4.23933 15.1701
      vertex -14.9513 2.13194 14.3443
      vertex -12.0966 -3.92952 9.93306
    endloop
  endfacet
  facet normal -0.937905 -0.302343 -0.17007
    outer loop
      vertex -14.9513 2.13194 14.3443
      vertex -13.0472 -4.23933 15.1701
      vertex -13.0478 -4.23955 15.1738
    endloop
  endfacet
  facet normal 0.474839 0.289865 0.830967
    outer loop
      vertex 8.18124 11.2606 26.7665
      vertex 9.2406 12.7182 25.6527
      vertex 9.24025 12.7182 25.6529
    endloop
  endfacet
  facet normal 0.577338 0.187623 0.794656
    outer loop
      vertex 9.2406 12.7182 25.6527
      vertex 8.18124 11.2606 26.7665
      vertex 11.9593 4.35199 25.6528
    endloop
  endfacet
  facet normal 0.577347 0.187629 0.794648
    outer loop
      vertex 8.18124 11.2606 26.7665
      vertex 8.06857 2.60999 28.8909
      vertex 11.9593 4.35199 25.6528
    endloop
  endfacet
  facet normal 0.577353 0.187627 0.794644
    outer loop
      vertex 0.000571481 0.00090071 35.3688
      vertex 8.06857 2.60999 28.8909
      vertex 8.18124 11.2606 26.7665
    endloop
  endfacet
  facet normal 0.577335 0.187683 0.794644
    outer loop
      vertex 8.06857 2.60999 28.8909
      vertex 0.000571481 0.00090071 35.3688
      vertex 1.29377 -0.420177 34.5287
    endloop
  endfacet
  facet normal 0.579126 0.203672 0.789386
    outer loop
      vertex 1.29377 -0.420177 34.5287
      vertex 0.000571481 0.00090071 35.3688
      vertex 0.000952582 -0.000182923 35.3688
    endloop
  endfacet
  facet normal 0.447633 0.157427 0.880251
    outer loop
      vertex 0.000952582 -0.000182923 35.3688
      vertex 0.000571481 0.00090071 35.3688
      vertex 0.000571481 0.000341562 35.3689
    endloop
  endfacet
  facet normal -0.577254 -0.187612 -0.79472
    outer loop
      vertex -0.000571481 -0.00090071 0.217049
      vertex -0.000952582 0.000182923 0.21707
      vertex -0.000571481 -0.000341562 0.216917
    endloop
  endfacet
  facet normal -0.577353 -0.187649 -0.794639
    outer loop
      vertex -0.000571481 -0.00090071 0.217049
      vertex -1.29377 0.420177 1.0572
      vertex -0.000952582 0.000182923 0.21707
    endloop
  endfacet
  facet normal -0.577351 -0.187631 -0.794645
    outer loop
      vertex -0.000571481 -0.00090071 0.217049
      vertex -8.06857 -2.60999 6.69492
      vertex -1.29377 0.420177 1.0572
    endloop
  endfacet
  facet normal -0.577351 -0.18763 -0.794645
    outer loop
      vertex -8.18124 -11.2606 8.81935
      vertex -8.06857 -2.60999 6.69492
      vertex -0.000571481 -0.00090071 0.217049
    endloop
  endfacet
  facet normal -0.586889 -0.177183 -0.790043
    outer loop
      vertex -9.2406 -12.7182 9.9332
      vertex -8.18124 -11.2606 8.81935
      vertex -9.24025 -12.7182 9.93294
    endloop
  endfacet
  facet normal -0.57735 -0.187633 -0.794645
    outer loop
      vertex -8.18124 -11.2606 8.81935
      vertex -9.2406 -12.7182 9.9332
      vertex -11.9593 -4.35199 9.93303
    endloop
  endfacet
  facet normal -0.577347 -0.187631 -0.794647
    outer loop
      vertex -8.18124 -11.2606 8.81935
      vertex -11.9593 -4.35199 9.93303
      vertex -8.06857 -2.60999 6.69492
    endloop
  endfacet
  facet normal 0.577351 -0.187622 -0.794647
    outer loop
      vertex 9.24656 -12.6989 9.93285
      vertex 8.08111 -2.69431 6.72394
      vertex 9.92689 -10.605 9.93276
    endloop
  endfacet
  facet normal 0.577351 -0.187622 -0.794647
    outer loop
      vertex 8.08111 -2.69431 6.72394
      vertex 14.9508 4.8573 9.93213
      vertex 9.92689 -10.605 9.93276
    endloop
  endfacet
  facet normal 0.577352 -0.187623 -0.794646
    outer loop
      vertex 7.83386 2.54532 5.30718
      vertex 14.9508 4.8573 9.93213
      vertex 8.08111 -2.69431 6.72394
    endloop
  endfacet
  facet normal 0.580786 -0.219913 -0.783789
    outer loop
      vertex 14.9508 4.8573 9.93213
      vertex 7.83386 2.54532 5.30718
      vertex 14.9507 4.85782 9.93191
    endloop
  endfacet
  facet normal 0.577336 -0.187626 -0.794657
    outer loop
      vertex 7.83386 2.54532 5.30718
      vertex 8.08111 -2.69431 6.72394
      vertex 7.48382 2.43155 5.07973
    endloop
  endfacet
  facet normal -0.577262 0.187649 0.794705
    outer loop
      vertex -8.08111 2.69431 28.8619
      vertex -7.83386 -2.54532 30.2787
      vertex -7.48382 -2.43155 30.5061
    endloop
  endfacet
  facet normal -0.577351 0.18762 0.794648
    outer loop
      vertex -14.9508 -4.8573 25.6537
      vertex -8.08111 2.69431 28.8619
      vertex -9.92689 10.605 25.6531
    endloop
  endfacet
  facet normal -0.577356 0.187627 0.794642
    outer loop
      vertex -8.08111 2.69431 28.8619
      vertex -14.9508 -4.8573 25.6537
      vertex -7.83386 -2.54532 30.2787
    endloop
  endfacet
  facet normal -0.578053 0.19371 0.792673
    outer loop
      vertex -7.83386 -2.54532 30.2787
      vertex -14.9508 -4.8573 25.6537
      vertex -14.9507 -4.85782 25.6539
    endloop
  endfacet
  facet normal -0.577344 0.187623 0.794652
    outer loop
      vertex -9.24656 12.6989 25.653
      vertex -9.92689 10.605 25.6531
      vertex -8.08111 2.69431 28.8619
    endloop
  endfacet
  facet normal -0.577358 0.794641 -0.187625
    outer loop
      vertex -4.19528 12.6725 9.9323
      vertex -13.6582 5.79719 9.93277
      vertex -8.05777 11.1014 15.1639
    endloop
  endfacet
  facet normal -0.577415 0.794623 -0.187526
    outer loop
      vertex -4.62026 14.2197 17.7929
      vertex -8.05777 11.1014 15.1639
      vertex -4.84192 14.1476 18.1699
    endloop
  endfacet
  facet normal -0.577356 0.794643 -0.187624
    outer loop
      vertex -4.19528 12.6725 9.9323
      vertex -4.62026 14.2197 17.7929
      vertex -0.000369468 15.7204 9.93249
    endloop
  endfacet
  facet normal -0.577357 0.794642 -0.187624
    outer loop
      vertex -4.62026 14.2197 17.7929
      vertex -4.19528 12.6725 9.9323
      vertex -8.05777 11.1014 15.1639
    endloop
  endfacet
  facet normal -0.570508 0.785221 -0.240725
    outer loop
      vertex -4.19528 12.6725 9.9323
      vertex -0.000369468 15.7204 9.93249
      vertex -0.00075123 15.72 9.93209
    endloop
  endfacet
  facet normal 0.577359 -0.794641 0.187622
    outer loop
      vertex 13.6582 -5.79719 25.6531
      vertex 4.19528 -12.6725 25.6536
      vertex 8.05777 -11.1014 20.4219
    endloop
  endfacet
  facet normal 0.570507 -0.785221 0.240726
    outer loop
      vertex 0.000369468 -15.7204 25.6534
      vertex 4.19528 -12.6725 25.6536
      vertex 0.00075123 -15.72 25.6538
    endloop
  endfacet
  facet normal 0.577356 -0.794643 0.187624
    outer loop
      vertex 4.62026 -14.2197 17.793
      vertex 4.19528 -12.6725 25.6536
      vertex 0.000369468 -15.7204 25.6534
    endloop
  endfacet
  facet normal 0.57736 -0.79464 0.187624
    outer loop
      vertex 4.19528 -12.6725 25.6536
      vertex 4.62026 -14.2197 17.793
      vertex 8.05777 -11.1014 20.4219
    endloop
  endfacet
  facet normal 0.577438 -0.794614 0.187492
    outer loop
      vertex 8.05777 -11.1014 20.4219
      vertex 4.62026 -14.2197 17.793
      vertex 4.84192 -14.1476 17.4159
    endloop
  endfacet
  facet normal -0.577101 -0.794287 0.189901
    outer loop
      vertex -14.948 -4.86169 25.6468
      vertex -12.9623 -6.30278 25.6537
      vertex -14.9505 -4.8582 25.6538
    endloop
  endfacet
  facet normal -0.577351 -0.794643 0.187638
    outer loop
      vertex -14.2641 -5.80321 23.7638
      vertex -12.9623 -6.30278 25.6537
      vertex -14.948 -4.86169 25.6468
    endloop
  endfacet
  facet normal -0.577339 -0.794655 0.187625
    outer loop
      vertex -14.2641 -5.80321 23.7638
      vertex -8.01461 -11.1329 20.421
      vertex -12.9623 -6.30278 25.6537
    endloop
  endfacet
  facet normal -0.577334 -0.794656 0.187636
    outer loop
      vertex -8.1297 -13.0793 11.8237
      vertex -8.01461 -11.1329 20.421
      vertex -14.2641 -5.80321 23.7638
    endloop
  endfacet
  facet normal -0.57734 -0.794652 0.187635
    outer loop
      vertex -8.01461 -11.1329 20.421
      vertex -8.1297 -13.0793 11.8237
      vertex -4.97902 -14.1028 17.1835
    endloop
  endfacet
  facet normal -0.577365 -0.794639 0.18761
    outer loop
      vertex -8.1297 -13.0793 11.8237
      vertex -14.2641 -5.80321 23.7638
      vertex -9.24067 -12.7183 9.93376
    endloop
  endfacet
  facet normal 0.577338 0.794654 -0.187633
    outer loop
      vertex 8.1297 13.0793 23.7622
      vertex 8.01461 11.1329 15.1648
      vertex 4.97902 14.1028 18.4024
    endloop
  endfacet
  facet normal 0.577363 0.794641 -0.187612
    outer loop
      vertex 14.2641 5.80321 11.8221
      vertex 8.1297 13.0793 23.7622
      vertex 9.24067 12.7183 25.6521
    endloop
  endfacet
  facet normal 0.577337 0.794655 -0.187634
    outer loop
      vertex 8.1297 13.0793 23.7622
      vertex 14.2641 5.80321 11.8221
      vertex 8.01461 11.1329 15.1648
    endloop
  endfacet
  facet normal 0.577352 0.794644 -0.187634
    outer loop
      vertex 12.9623 6.30278 9.93216
      vertex 14.2641 5.80321 11.8221
      vertex 14.948 4.86169 9.93906
    endloop
  endfacet
  facet normal 0.577341 0.794654 -0.187624
    outer loop
      vertex 14.2641 5.80321 11.8221
      vertex 12.9623 6.30278 9.93216
      vertex 8.01461 11.1329 15.1648
    endloop
  endfacet
  facet normal 0.577072 0.794246 -0.190163
    outer loop
      vertex 12.9623 6.30278 9.93216
      vertex 14.948 4.86169 9.93906
      vertex 14.9505 4.8582 9.93207
    endloop
  endfacet
  facet normal -0.36019 -0.490457 0.793546
    outer loop
      vertex -0.00016215 -15.7203 25.6532
      vertex 0.00075123 -15.72 25.6538
      vertex 0.000693786 -14.3607 26.4939
    endloop
  endfacet
  facet normal -0.387523 -0.440145 0.809999
    outer loop
      vertex 0.00075123 -15.72 25.6538
      vertex -0.00016215 -15.7203 25.6532
      vertex 0.000369468 -15.7204 25.6534
    endloop
  endfacet
  facet normal -0.356805 -0.491142 0.79465
    outer loop
      vertex -4.97478 -6.85556 28.8985
      vertex -0.00016215 -15.7203 25.6532
      vertex 0.000693786 -14.3607 26.4939
    endloop
  endfacet
  facet normal -0.356805 -0.491136 0.794654
    outer loop
      vertex -12.9623 -6.30278 25.6537
      vertex -4.97478 -6.85556 28.8985
      vertex -7.83386 -2.54532 30.2787
    endloop
  endfacet
  facet normal -0.356804 -0.491142 0.794651
    outer loop
      vertex -4.97478 -6.85556 28.8985
      vertex -12.9623 -6.30278 25.6537
      vertex -0.00016215 -15.7203 25.6532
    endloop
  endfacet
  facet normal -0.356817 -0.491123 0.794657
    outer loop
      vertex -14.9507 -4.85782 25.6539
      vertex -12.9623 -6.30278 25.6537
      vertex -7.83386 -2.54532 30.2787
    endloop
  endfacet
  facet normal -0.273862 -0.376982 0.884808
    outer loop
      vertex -12.9623 -6.30278 25.6537
      vertex -14.9507 -4.85782 25.6539
      vertex -14.9505 -4.8582 25.6538
    endloop
  endfacet
  facet normal 0.378745 0.521321 -0.764706
    outer loop
      vertex 14.9507 4.85782 9.93191
      vertex 12.9623 6.30278 9.93216
      vertex 14.9505 4.8582 9.93207
    endloop
  endfacet
  facet normal 0.356805 0.491134 -0.794656
    outer loop
      vertex 7.83386 2.54532 5.30718
      vertex 12.9623 6.30278 9.93216
      vertex 14.9507 4.85782 9.93191
    endloop
  endfacet
  facet normal 0.3568 0.491139 -0.794655
    outer loop
      vertex 4.97478 6.85556 6.68741
      vertex 12.9623 6.30278 9.93216
      vertex 7.83386 2.54532 5.30718
    endloop
  endfacet
  facet normal 0.3568 0.49114 -0.794654
    outer loop
      vertex 4.97478 6.85556 6.68741
      vertex 0.00016215 15.7203 9.9327
      vertex 12.9623 6.30278 9.93216
    endloop
  endfacet
  facet normal 0.356831 0.49115 -0.794634
    outer loop
      vertex -0.000693786 14.3607 9.09197
      vertex 0.00016215 15.7203 9.9327
      vertex 4.97478 6.85556 6.68741
    endloop
  endfacet
  facet normal 0.36771 0.488921 -0.791041
    outer loop
      vertex -0.00075123 15.72 9.93209
      vertex 0.00016215 15.7203 9.9327
      vertex -0.000693786 14.3607 9.09197
    endloop
  endfacet
  facet normal 0.400545 0.427928 -0.81021
    outer loop
      vertex 0.00016215 15.7203 9.9327
      vertex -0.00075123 15.72 9.93209
      vertex -0.000369468 15.7204 9.93249
    endloop
  endfacet
  facet normal 0.383906 0.633445 0.671836
    outer loop
      vertex 9.24061 12.7183 25.6526
      vertex 9.24025 12.7182 25.6529
      vertex 9.2406 12.7182 25.6527
    endloop
  endfacet
  facet normal 1.42337e-05 0.948678 0.316243
    outer loop
      vertex 9.24025 12.7182 25.6529
      vertex 9.24061 12.7183 25.6526
      vertex 7.01846 12.7182 25.653
    endloop
  endfacet
  facet normal -1.04253e-05 0.982237 0.187643
    outer loop
      vertex 7.01846 12.7182 25.653
      vertex 9.24061 12.7183 25.6526
      vertex -0.00280448 13.7195 20.4112
    endloop
  endfacet
  facet normal 1.18115e-05 0.982243 0.187614
    outer loop
      vertex -0.00280448 13.7195 20.4112
      vertex -9.23956 12.7183 25.6535
      vertex 7.01846 12.7182 25.653
    endloop
  endfacet
  facet normal 5.09709e-06 0.982245 0.187603
    outer loop
      vertex -4.84192 14.1476 18.1699
      vertex -9.23956 12.7183 25.6535
      vertex -0.00280448 13.7195 20.4112
    endloop
  endfacet
  facet normal -0.0888498 0.986684 0.136236
    outer loop
      vertex -9.23956 12.7183 25.6535
      vertex -4.84192 14.1476 18.1699
      vertex -9.24002 12.7183 25.6532
    endloop
  endfacet
  facet normal -8.63364e-05 0.982209 0.187793
    outer loop
      vertex -4.84192 14.1476 18.1699
      vertex -0.00280448 13.7195 20.4112
      vertex -4.62026 14.2197 17.7929
    endloop
  endfacet
  facet normal 6.51577e-05 -0.982215 -0.187757
    outer loop
      vertex 0.00280448 -13.7195 15.1747
      vertex 4.84192 -14.1476 17.4159
      vertex 4.62026 -14.2197 17.793
    endloop
  endfacet
  facet normal -1.21576e-05 -0.982243 -0.187613
    outer loop
      vertex 9.23956 -12.7183 9.93234
      vertex 0.00280448 -13.7195 15.1747
      vertex -7.01846 -12.7182 9.93287
    endloop
  endfacet
  facet normal -7.77944e-06 -0.982244 -0.187605
    outer loop
      vertex 0.00280448 -13.7195 15.1747
      vertex 9.23956 -12.7183 9.93234
      vertex 4.84192 -14.1476 17.4159
    endloop
  endfacet
  facet normal 0.0990672 -0.986526 -0.130203
    outer loop
      vertex 4.84192 -14.1476 17.4159
      vertex 9.23956 -12.7183 9.93234
      vertex 9.24002 -12.7183 9.93269
    endloop
  endfacet
  facet normal -0.497048 -0.552488 -0.669104
    outer loop
      vertex -9.24025 -12.7182 9.93294
      vertex -9.24061 -12.7183 9.93329
      vertex -9.2406 -12.7182 9.9332
    endloop
  endfacet
  facet normal -8.65566e-06 -0.961522 -0.274729
    outer loop
      vertex -9.24061 -12.7183 9.93329
      vertex -9.24025 -12.7182 9.93294
      vertex -7.01846 -12.7182 9.93287
    endloop
  endfacet
  facet normal 8.73706e-06 -0.982238 -0.18764
    outer loop
      vertex -9.24061 -12.7183 9.93329
      vertex -7.01846 -12.7182 9.93287
      vertex 0.00280448 -13.7195 15.1747
    endloop
  endfacet
  facet normal -0.577373 -0.187574 -0.794642
    outer loop
      vertex -8.06857 -2.60999 6.69492
      vertex -10.7565 3.49493 7.20687
      vertex -1.29377 0.420177 1.0572
    endloop
  endfacet
  facet normal -0.577366 -0.187584 -0.794645
    outer loop
      vertex -12.0966 -3.92952 9.93306
      vertex -8.06857 -2.60999 6.69492
      vertex -11.9593 -4.35199 9.93303
    endloop
  endfacet
  facet normal -0.57737 -0.187572 -0.794645
    outer loop
      vertex -8.06857 -2.60999 6.69492
      vertex -12.0966 -3.92952 9.93306
      vertex -10.7565 3.49493 7.20687
    endloop
  endfacet
  facet normal -0.577376 -0.18757 -0.794641
    outer loop
      vertex -14.9514 4.8576 9.93318
      vertex -10.7565 3.49493 7.20687
      vertex -12.0966 -3.92952 9.93306
    endloop
  endfacet
  facet normal -0.572121 -0.146829 -0.806919
    outer loop
      vertex -10.7565 3.49493 7.20687
      vertex -14.9514 4.8576 9.93318
      vertex -14.9509 4.85785 9.93278
    endloop
  endfacet
  facet normal 0.577376 0.187582 0.794638
    outer loop
      vertex 8.06857 2.60999 28.8909
      vertex 1.29377 -0.420177 34.5287
      vertex 10.7565 -3.49493 28.379
    endloop
  endfacet
  facet normal 0.577375 0.187571 0.794642
    outer loop
      vertex 10.7565 -3.49493 28.379
      vertex 14.9514 -4.8576 25.6527
      vertex 12.0966 3.92952 25.6528
    endloop
  endfacet
  facet normal 0.577345 0.187633 0.794649
    outer loop
      vertex 8.06857 2.60999 28.8909
      vertex 12.0966 3.92952 25.6528
      vertex 11.9593 4.35199 25.6528
    endloop
  endfacet
  facet normal 0.57212 0.146831 0.80692
    outer loop
      vertex 14.9514 -4.8576 25.6527
      vertex 10.7565 -3.49493 28.379
      vertex 14.9509 -4.85785 25.6531
    endloop
  endfacet
  facet normal 0.577364 0.187576 0.794648
    outer loop
      vertex 12.0966 3.92952 25.6528
      vertex 8.06857 2.60999 28.8909
      vertex 10.7565 -3.49493 28.379
    endloop
  endfacet
  facet normal 0.934164 -0.30353 -0.187633
    outer loop
      vertex 13.0346 -4.29365 15.1953
      vertex 14.9508 4.8573 9.93213
      vertex 14.9512 0.352215 17.2219
    endloop
  endfacet
  facet normal 0.934164 -0.30353 -0.187633
    outer loop
      vertex 13.0346 -4.29365 15.1953
      vertex 9.92689 -10.605 9.93276
      vertex 14.9508 4.8573 9.93213
    endloop
  endfacet
  facet normal 0.934164 -0.303531 -0.187632
    outer loop
      vertex 9.96203 -11.7248 11.9192
      vertex 9.92689 -10.605 9.93276
      vertex 13.0346 -4.29365 15.1953
    endloop
  endfacet
  facet normal 0.934166 -0.303528 -0.187631
    outer loop
      vertex 9.96203 -11.7248 11.9192
      vertex 9.24656 -12.6989 9.93285
      vertex 9.92689 -10.605 9.93276
    endloop
  endfacet
  facet normal 0.934247 -0.303144 -0.187849
    outer loop
      vertex 9.24656 -12.6989 9.93285
      vertex 9.96203 -11.7248 11.9192
      vertex 9.24033 -12.7181 9.93285
    endloop
  endfacet
  facet normal -0.934247 0.303144 0.187844
    outer loop
      vertex -9.96203 11.7248 23.6666
      vertex -9.24656 12.6989 25.653
      vertex -9.24033 12.7181 25.653
    endloop
  endfacet
  facet normal -0.934166 0.303529 0.187626
    outer loop
      vertex -9.96203 11.7248 23.6666
      vertex -9.92689 10.605 25.6531
      vertex -9.24656 12.6989 25.653
    endloop
  endfacet
  facet normal -0.934164 0.303535 0.187629
    outer loop
      vertex -13.0346 4.29365 20.3906
      vertex -9.92689 10.605 25.6531
      vertex -9.96203 11.7248 23.6666
    endloop
  endfacet
  facet normal -0.934164 0.30353 0.187635
    outer loop
      vertex -14.9508 -4.8573 25.6537
      vertex -13.0346 4.29365 20.3906
      vertex -14.9512 -0.352215 18.364
    endloop
  endfacet
  facet normal -0.934164 0.30353 0.187635
    outer loop
      vertex -13.0346 4.29365 20.3906
      vertex -14.9508 -4.8573 25.6537
      vertex -9.92689 10.605 25.6531
    endloop
  endfacet
  facet normal 0.578258 -0.795786 0.17984
    outer loop
      vertex 14.9515 -4.85764 25.6521
      vertex 14.9509 -4.85785 25.6531
      vertex 13.6582 -5.79719 25.6531
    endloop
  endfacet
  facet normal 0.532497 -0.834032 0.144352
    outer loop
      vertex 14.9509 -4.85785 25.6531
      vertex 14.9515 -4.85764 25.6521
      vertex 14.9514 -4.8576 25.6527
    endloop
  endfacet
  facet normal 0.577395 -0.794627 0.187569
    outer loop
      vertex 11.8865 -9.07607 17.2161
      vertex 13.6582 -5.79719 25.6531
      vertex 8.05777 -11.1014 20.4219
    endloop
  endfacet
  facet normal 0.577391 -0.794632 0.18756
    outer loop
      vertex 11.8865 -9.07607 17.2161
      vertex 8.05777 -11.1014 20.4219
      vertex 4.84192 -14.1476 17.4159
    endloop
  endfacet
  facet normal 0.577414 -0.794616 0.18756
    outer loop
      vertex 13.6582 -5.79719 25.6531
      vertex 11.8865 -9.07607 17.2161
      vertex 14.9515 -4.85764 25.6521
    endloop
  endfacet
  facet normal 0.577389 -0.794629 0.18758
    outer loop
      vertex 4.84192 -14.1476 17.4159
      vertex 9.96203 -11.7248 11.9192
      vertex 11.8865 -9.07607 17.2161
    endloop
  endfacet
  facet normal 0.577379 -0.79464 0.187566
    outer loop
      vertex 9.24002 -12.7183 9.93269
      vertex 9.96203 -11.7248 11.9192
      vertex 4.84192 -14.1476 17.4159
    endloop
  endfacet
  facet normal 0.412493 -0.865851 0.283109
    outer loop
      vertex 9.96203 -11.7248 11.9192
      vertex 9.24002 -12.7183 9.93269
      vertex 9.24033 -12.7181 9.93285
    endloop
  endfacet
  facet normal -0.369806 0.87777 -0.304571
    outer loop
      vertex -9.24002 12.7183 25.6532
      vertex -9.96203 11.7248 23.6666
      vertex -9.24033 12.7181 25.653
    endloop
  endfacet
  facet normal -0.577376 0.794644 -0.18756
    outer loop
      vertex -4.84192 14.1476 18.1699
      vertex -9.96203 11.7248 23.6666
      vertex -9.24002 12.7183 25.6532
    endloop
  endfacet
  facet normal -0.577391 0.794628 -0.187582
    outer loop
      vertex -9.96203 11.7248 23.6666
      vertex -4.84192 14.1476 18.1699
      vertex -11.8865 9.07607 18.3698
    endloop
  endfacet
  facet normal -0.577393 0.794632 -0.187557
    outer loop
      vertex -8.05777 11.1014 15.1639
      vertex -11.8865 9.07607 18.3698
      vertex -4.84192 14.1476 18.1699
    endloop
  endfacet
  facet normal -0.577398 0.794626 -0.187567
    outer loop
      vertex -13.6582 5.79719 9.93277
      vertex -11.8865 9.07607 18.3698
      vertex -8.05777 11.1014 15.1639
    endloop
  endfacet
  facet normal -0.577411 0.794618 -0.187561
    outer loop
      vertex -11.8865 9.07607 18.3698
      vertex -13.6582 5.79719 9.93277
      vertex -14.9515 4.85764 9.93374
    endloop
  endfacet
  facet normal -0.577465 0.794693 -0.187076
    outer loop
      vertex -14.9509 4.85785 9.93278
      vertex -14.9515 4.85764 9.93374
      vertex -13.6582 5.79719 9.93277
    endloop
  endfacet
  facet normal -0.538376 0.828271 -0.155301
    outer loop
      vertex -14.9515 4.85764 9.93374
      vertex -14.9509 4.85785 9.93278
      vertex -14.9514 4.8576 9.93318
    endloop
  endfacet
  facet normal -0.972301 -0.163148 -0.167371
    outer loop
      vertex -14.2641 -5.80321 23.7638
      vertex -13.0478 -4.23955 15.1738
      vertex -13.0472 -4.23933 15.1701
    endloop
  endfacet
  facet normal -0.934187 -0.303526 -0.187528
    outer loop
      vertex -13.0478 -4.23955 15.1738
      vertex -14.2641 -5.80321 23.7638
      vertex -14.948 -4.86169 25.6468
    endloop
  endfacet
  facet normal -0.934168 -0.303585 -0.187525
    outer loop
      vertex -11.9593 -4.35199 9.93303
      vertex -13.0472 -4.23933 15.1701
      vertex -12.0966 -3.92952 9.93306
    endloop
  endfacet
  facet normal -0.934171 -0.303575 -0.187526
    outer loop
      vertex -9.24067 -12.7183 9.93376
      vertex -13.0472 -4.23933 15.1701
      vertex -11.9593 -4.35199 9.93303
    endloop
  endfacet
  facet normal -0.867576 -0.281938 -0.409661
    outer loop
      vertex -9.24061 -12.7183 9.93329
      vertex -11.9593 -4.35199 9.93303
      vertex -9.2406 -12.7182 9.9332
    endloop
  endfacet
  facet normal -0.944112 -0.306799 -0.120525
    outer loop
      vertex -9.24067 -12.7183 9.93376
      vertex -11.9593 -4.35199 9.93303
      vertex -9.24061 -12.7183 9.93329
    endloop
  endfacet
  facet normal -0.934171 -0.303574 -0.187527
    outer loop
      vertex -13.0472 -4.23933 15.1701
      vertex -9.24067 -12.7183 9.93376
      vertex -14.2641 -5.80321 23.7638
    endloop
  endfacet
  facet normal 0.992681 0.0198536 0.119122
    outer loop
      vertex 9.2406 12.7182 25.6527
      vertex 9.24067 12.7183 25.6521
      vertex 9.24061 12.7183 25.6526
    endloop
  endfacet
  facet normal 0.938736 0.305055 0.160362
    outer loop
      vertex 11.9593 4.35199 25.6528
      vertex 9.24067 12.7183 25.6521
      vertex 9.2406 12.7182 25.6527
    endloop
  endfacet
  facet normal 0.934172 0.303575 0.187525
    outer loop
      vertex 9.24067 12.7183 25.6521
      vertex 11.9593 4.35199 25.6528
      vertex 13.0472 4.23933 20.4157
    endloop
  endfacet
  facet normal 0.934172 0.303572 0.187528
    outer loop
      vertex 9.24067 12.7183 25.6521
      vertex 13.0472 4.23933 20.4157
      vertex 14.2641 5.80321 11.8221
    endloop
  endfacet
  facet normal 0.934165 0.303597 0.187523
    outer loop
      vertex 13.0472 4.23933 20.4157
      vertex 11.9593 4.35199 25.6528
      vertex 12.0966 3.92952 25.6528
    endloop
  endfacet
  facet normal 0.934189 0.303521 0.187527
    outer loop
      vertex 14.2641 5.80321 11.8221
      vertex 13.0478 4.23955 20.4121
      vertex 14.948 4.86169 9.93906
    endloop
  endfacet
  facet normal 0.964418 0.199962 0.172956
    outer loop
      vertex 13.0478 4.23955 20.4121
      vertex 14.2641 5.80321 11.8221
      vertex 13.0472 4.23933 20.4157
    endloop
  endfacet
  facet normal 0.356754 0.491116 -0.79469
    outer loop
      vertex 4.97478 6.85556 6.68741
      vertex -0.00087302 4.41063 2.94277
      vertex -0.000693786 14.3607 9.09197
    endloop
  endfacet
  facet normal 0.356752 0.491118 -0.794689
    outer loop
      vertex 7.48382 2.43155 5.07973
      vertex 4.97478 6.85556 6.68741
      vertex 7.83386 2.54532 5.30718
    endloop
  endfacet
  facet normal 0.356752 0.491119 -0.794689
    outer loop
      vertex -0.00087302 4.41063 2.94277
      vertex 7.48382 2.43155 5.07973
      vertex -0.000571481 -0.000341562 0.216917
    endloop
  endfacet
  facet normal 0.356752 0.491118 -0.794689
    outer loop
      vertex 7.48382 2.43155 5.07973
      vertex -0.00087302 4.41063 2.94277
      vertex 4.97478 6.85556 6.68741
    endloop
  endfacet
  facet normal 0.356841 0.491101 -0.79466
    outer loop
      vertex -0.00087302 4.41063 2.94277
      vertex -0.000571481 -0.000341562 0.216917
      vertex -0.000952582 0.000182923 0.21707
    endloop
  endfacet
  facet normal -0.356748 -0.491117 0.794691
    outer loop
      vertex 0.00087302 -4.41063 32.6431
      vertex -4.97478 -6.85556 28.8985
      vertex 0.000693786 -14.3607 26.4939
    endloop
  endfacet
  facet normal -0.44742 -0.470155 0.760769
    outer loop
      vertex 0.000571481 0.000341562 35.3689
      vertex 0.00087302 -4.41063 32.6431
      vertex 0.000952582 -0.000182923 35.3688
    endloop
  endfacet
  facet normal -0.356755 -0.491111 0.794692
    outer loop
      vertex -7.48382 -2.43155 30.5061
      vertex 0.00087302 -4.41063 32.6431
      vertex 0.000571481 0.000341562 35.3689
    endloop
  endfacet
  facet normal -0.356755 -0.491107 0.794694
    outer loop
      vertex 0.00087302 -4.41063 32.6431
      vertex -7.48382 -2.43155 30.5061
      vertex -4.97478 -6.85556 28.8985
    endloop
  endfacet
  facet normal -0.356684 -0.491084 0.794741
    outer loop
      vertex -4.97478 -6.85556 28.8985
      vertex -7.48382 -2.43155 30.5061
      vertex -7.83386 -2.54532 30.2787
    endloop
  endfacet
  facet normal 3.57659e-05 0.607077 0.794643
    outer loop
      vertex 7.01846 12.7182 25.653
      vertex 8.18124 11.2606 26.7665
      vertex 9.24025 12.7182 25.6529
    endloop
  endfacet
  facet normal 3.05901e-05 0.607075 0.794645
    outer loop
      vertex 7.01846 12.7182 25.653
      vertex -5.05551 6.95972 30.0527
      vertex 8.18124 11.2606 26.7665
    endloop
  endfacet
  facet normal 2.81725e-05 0.607078 0.794642
    outer loop
      vertex -5.05551 6.95972 30.0527
      vertex 7.01846 12.7182 25.653
      vertex -9.23956 12.7183 25.6535
    endloop
  endfacet
  facet normal -2.96388e-05 -0.607079 -0.794642
    outer loop
      vertex -7.01846 -12.7182 9.93287
      vertex 5.05551 -6.95972 5.53314
      vertex 9.23956 -12.7183 9.93234
    endloop
  endfacet
  facet normal -2.82533e-05 -0.607081 -0.79464
    outer loop
      vertex -7.01846 -12.7182 9.93287
      vertex -8.18124 -11.2606 8.81935
      vertex 5.05551 -6.95972 5.53314
    endloop
  endfacet
  facet normal -2.50361e-05 -0.607079 -0.794642
    outer loop
      vertex -8.18124 -11.2606 8.81935
      vertex -7.01846 -12.7182 9.93287
      vertex -9.24025 -12.7182 9.93294
    endloop
  endfacet
endsolid OpenSCAD_Model
