solid OpenSCAD_Model
  facet normal 0 0 1
    outer loop
      vertex -5.75 9.95929 16.2634
      vertex -5.75 -9.95929 16.2634
      vertex 11.5 -2.32176e-06 16.2634
    endloop
  endfacet
  facet normal 0.471404 -0.816496 -0.333334
    outer loop
      vertex 11.5 -2.32176e-06 16.2634
      vertex -5.75 -9.95929 16.2634
      vertex 0 0 -1.23563e-07
    endloop
  endfacet
  facet normal 0.471404 0.816496 -0.333334
    outer loop
      vertex -5.75 9.95929 16.2634
      vertex 11.5 -2.32176e-06 16.2634
      vertex 0 0 -1.23563e-07
    endloop
  endfacet
  facet normal -0.942809 -0 -0.333334
    outer loop
      vertex -5.75 9.95929 16.2634
      vertex 0 0 -1.23563e-07
      vertex -5.75 -9.95929 16.2634
    endloop
  endfacet
endsolid OpenSCAD_Model
