solid OpenSCAD_Model
  facet normal -0.408248 0.707108 -0.577349
    outer loop
      vertex 5.47053 9.47523 7.73649
      vertex -10.9411 0 7.73649
      vertex -5.47053 9.47523 15.473
    endloop
  endfacet
  facet normal -0.408247 0.707107 -0.577351
    outer loop
      vertex -10.9411 0 7.73649
      vertex 5.47053 9.47523 7.73649
      vertex 0 0 3.30362e-07
    endloop
  endfacet
  facet normal -0.816496 1.41877e-06 0.577351
    outer loop
      vertex -10.9411 0 7.73649
      vertex 0 0 23.2095
      vertex -5.47053 9.47523 15.473
    endloop
  endfacet
  facet normal -0.816496 -1.41877e-06 0.577351
    outer loop
      vertex 0 0 23.2095
      vertex -10.9411 0 7.73649
      vertex -5.47053 -9.47523 15.473
    endloop
  endfacet
  facet normal 0.408247 0.707107 0.577351
    outer loop
      vertex 10.9411 0 15.473
      vertex -5.47053 9.47523 15.473
      vertex 0 0 23.2095
    endloop
  endfacet
  facet normal 0.408248 0.707108 0.577349
    outer loop
      vertex -5.47053 9.47523 15.473
      vertex 10.9411 0 15.473
      vertex 5.47053 9.47523 7.73649
    endloop
  endfacet
  facet normal 0.408247 -0.707107 0.577351
    outer loop
      vertex -5.47053 -9.47523 15.473
      vertex 10.9411 0 15.473
      vertex 0 0 23.2095
    endloop
  endfacet
  facet normal 0.408248 -0.707108 0.577349
    outer loop
      vertex 10.9411 0 15.473
      vertex -5.47053 -9.47523 15.473
      vertex 5.47053 -9.47523 7.73649
    endloop
  endfacet
  facet normal 0.816496 1.10404e-06 -0.577352
    outer loop
      vertex 10.9411 0 15.473
      vertex 0 0 3.30362e-07
      vertex 5.47053 9.47523 7.73649
    endloop
  endfacet
  facet normal 0.816496 -1.10404e-06 -0.577352
    outer loop
      vertex 0 0 3.30362e-07
      vertex 10.9411 0 15.473
      vertex 5.47053 -9.47523 7.73649
    endloop
  endfacet
  facet normal -0.408248 -0.707108 -0.577349
    outer loop
      vertex -10.9411 0 7.73649
      vertex 5.47053 -9.47523 7.73649
      vertex -5.47053 -9.47523 15.473
    endloop
  endfacet
  facet normal -0.408247 -0.707107 -0.577351
    outer loop
      vertex 5.47053 -9.47523 7.73649
      vertex -10.9411 0 7.73649
      vertex 0 0 3.30362e-07
    endloop
  endfacet
endsolid OpenSCAD_Model
