solid OpenSCAD_Model
  facet normal 0 0 -1
    outer loop
      vertex -6.575 -6.575 4.81323
      vertex 6.575 6.575 4.81323
      vertex 6.575 -6.575 4.81323
    endloop
  endfacet
  facet normal -0 0 -1
    outer loop
      vertex 6.575 6.575 4.81323
      vertex -6.575 -6.575 4.81323
      vertex -6.575 6.575 4.81323
    endloop
  endfacet
  facet normal -1 0 0
    outer loop
      vertex -6.575 -6.575 4.81323
      vertex -6.575 6.575 17.9632
      vertex -6.575 6.575 4.81323
    endloop
  endfacet
  facet normal -1 -0 0
    outer loop
      vertex -6.575 6.575 17.9632
      vertex -6.575 -6.575 4.81323
      vertex -6.575 -6.575 17.9632
    endloop
  endfacet
  facet normal -0 0 1
    outer loop
      vertex -6.575 6.575 17.9632
      vertex 6.575 -6.575 17.9632
      vertex 6.575 6.575 17.9632
    endloop
  endfacet
  facet normal 0 0 1
    outer loop
      vertex 6.575 -6.575 17.9632
      vertex -6.575 6.575 17.9632
      vertex -6.575 -6.575 17.9632
    endloop
  endfacet
  facet normal 0 1 -0
    outer loop
      vertex 6.575 6.575 4.81323
      vertex -6.575 6.575 17.9632
      vertex 6.575 6.575 17.9632
    endloop
  endfacet
  facet normal 0 1 0
    outer loop
      vertex -6.575 6.575 17.9632
      vertex 6.575 6.575 4.81323
      vertex -6.575 6.575 4.81323
    endloop
  endfacet
  facet normal 1 -0 0
    outer loop
      vertex 6.575 -6.575 17.9632
      vertex 6.575 6.575 4.81323
      vertex 6.575 6.575 17.9632
    endloop
  endfacet
  facet normal 1 0 0
    outer loop
      vertex 6.575 6.575 4.81323
      vertex 6.575 -6.575 17.9632
      vertex 6.575 -6.575 4.81323
    endloop
  endfacet
  facet normal 0 -1 0
    outer loop
      vertex -6.575 -6.575 4.81323
      vertex 6.575 -6.575 17.9632
      vertex -6.575 -6.575 17.9632
    endloop
  endfacet
  facet normal 0 -1 -0
    outer loop
      vertex 6.575 -6.575 17.9632
      vertex -6.575 -6.575 4.81323
      vertex 6.575 -6.575 4.81323
    endloop
  endfacet
endsolid OpenSCAD_Model
