solid OpenSCAD_Model
  facet normal 0 0.816498 -0.577349
    outer loop
      vertex 3.13936e-08 2.18014e-05 -3.05594e-05
      vertex -7.95426 7.95426 11.249
      vertex 7.95426 7.95426 11.249
    endloop
  endfacet
  facet normal 0 0.816498 -0.577349
    outer loop
      vertex -7.95426 7.95426 11.249
      vertex 3.13936e-08 2.18014e-05 -3.05594e-05
      vertex -3.13936e-08 2.18014e-05 -3.05594e-05
    endloop
  endfacet
  facet normal 0 -0.816497 0.57735
    outer loop
      vertex -7.95426 -7.95426 11.249
      vertex 3.13936e-08 -2.18014e-05 22.498
      vertex -3.13936e-08 -2.18014e-05 22.498
    endloop
  endfacet
  facet normal 0 -0.816497 0.57735
    outer loop
      vertex 3.13936e-08 -2.18014e-05 22.498
      vertex -7.95426 -7.95426 11.249
      vertex 7.95426 -7.95426 11.249
    endloop
  endfacet
  facet normal -0.816496 0 0.577351
    outer loop
      vertex -7.95426 -7.95426 11.249
      vertex -1.68093 1.68092 20.1208
      vertex -7.95426 -1.23053 11.249
    endloop
  endfacet
  facet normal -0.816497 1.84771e-06 0.57735
    outer loop
      vertex -1.68093 1.68092 20.1208
      vertex -7.95426 -7.95426 11.249
      vertex -3.13936e-08 -2.18014e-05 22.498
    endloop
  endfacet
  facet normal -0.816496 0 0.577351
    outer loop
      vertex -7.95426 1.23053 11.249
      vertex -1.68093 1.68092 20.1208
      vertex -7.95426 7.95426 11.249
    endloop
  endfacet
  facet normal -0.816496 0 0.577351
    outer loop
      vertex -1.68093 1.68092 20.1208
      vertex -7.95426 1.23053 11.249
      vertex -7.95426 -1.23053 11.249
    endloop
  endfacet
  facet normal 0.816497 0 -0.57735
    outer loop
      vertex 7.95426 -1.23053 11.249
      vertex 1.68093 -1.68092 2.37716
      vertex 7.95426 1.23053 11.249
    endloop
  endfacet
  facet normal 0.816497 0 -0.57735
    outer loop
      vertex 1.68093 -1.68092 2.37716
      vertex 7.95426 -1.23053 11.249
      vertex 7.95426 -7.95426 11.249
    endloop
  endfacet
  facet normal 0.816497 0 -0.57735
    outer loop
      vertex 1.68093 -1.68092 2.37716
      vertex 7.95426 7.95426 11.249
      vertex 7.95426 1.23053 11.249
    endloop
  endfacet
  facet normal 0.816496 8.82627e-07 -0.57735
    outer loop
      vertex 7.95426 7.95426 11.249
      vertex 1.68093 -1.68092 2.37716
      vertex 3.13936e-08 2.18014e-05 -3.05594e-05
    endloop
  endfacet
  facet normal 0.816497 1.84771e-06 0.57735
    outer loop
      vertex 7.95426 -7.95426 11.249
      vertex 1.68093 1.68092 20.1208
      vertex 3.13936e-08 -2.18014e-05 22.498
    endloop
  endfacet
  facet normal 0.816496 0 0.577351
    outer loop
      vertex 1.68093 1.68092 20.1208
      vertex 7.95426 -7.95426 11.249
      vertex 7.95426 -1.23053 11.249
    endloop
  endfacet
  facet normal 0.816496 0 0.577351
    outer loop
      vertex 1.68093 1.68092 20.1208
      vertex 7.95426 1.23053 11.249
      vertex 7.95426 7.95426 11.249
    endloop
  endfacet
  facet normal 0.816496 0 0.577351
    outer loop
      vertex 7.95426 1.23053 11.249
      vertex 1.68093 1.68092 20.1208
      vertex 7.95426 -1.23053 11.249
    endloop
  endfacet
  facet normal -0.816497 0 -0.57735
    outer loop
      vertex -1.68093 -1.68092 2.37716
      vertex -7.95426 -1.23053 11.249
      vertex -7.95426 1.23053 11.249
    endloop
  endfacet
  facet normal -0.816497 -0 -0.57735
    outer loop
      vertex -7.95426 -1.23053 11.249
      vertex -1.68093 -1.68092 2.37716
      vertex -7.95426 -7.95426 11.249
    endloop
  endfacet
  facet normal -0.816496 8.82627e-07 -0.57735
    outer loop
      vertex -1.68093 -1.68092 2.37716
      vertex -7.95426 7.95426 11.249
      vertex -3.13936e-08 2.18014e-05 -3.05594e-05
    endloop
  endfacet
  facet normal -0.816497 -0 -0.57735
    outer loop
      vertex -7.95426 7.95426 11.249
      vertex -1.68093 -1.68092 2.37716
      vertex -7.95426 1.23053 11.249
    endloop
  endfacet
  facet normal 0 -0.816497 -0.57735
    outer loop
      vertex -1.68093 -1.68092 2.37716
      vertex 7.95426 -7.95426 11.249
      vertex -7.95426 -7.95426 11.249
    endloop
  endfacet
  facet normal 0 -0.816497 -0.57735
    outer loop
      vertex -1.68093 -1.68092 2.37716
      vertex 1.68093 -1.68092 2.37716
      vertex 7.95426 -7.95426 11.249
    endloop
  endfacet
  facet normal 0 -0.816494 -0.577354
    outer loop
      vertex -3.13936e-08 2.18014e-05 -3.05594e-05
      vertex 1.68093 -1.68092 2.37716
      vertex -1.68093 -1.68092 2.37716
    endloop
  endfacet
  facet normal 0 -0.816494 -0.577354
    outer loop
      vertex 1.68093 -1.68092 2.37716
      vertex -3.13936e-08 2.18014e-05 -3.05594e-05
      vertex 3.13936e-08 2.18014e-05 -3.05594e-05
    endloop
  endfacet
  facet normal 0 0.816495 0.577352
    outer loop
      vertex 1.68093 1.68092 20.1208
      vertex -3.13936e-08 -2.18014e-05 22.498
      vertex 3.13936e-08 -2.18014e-05 22.498
    endloop
  endfacet
  facet normal 0 0.816495 0.577352
    outer loop
      vertex 1.68093 1.68092 20.1208
      vertex -1.68093 1.68092 20.1208
      vertex -3.13936e-08 -2.18014e-05 22.498
    endloop
  endfacet
  facet normal 0 0.816495 0.577352
    outer loop
      vertex 7.95426 7.95426 11.249
      vertex -1.68093 1.68092 20.1208
      vertex 1.68093 1.68092 20.1208
    endloop
  endfacet
  facet normal 0 0.816495 0.577352
    outer loop
      vertex 7.95426 7.95426 11.249
      vertex -7.95426 7.95426 11.249
      vertex -1.68093 1.68092 20.1208
    endloop
  endfacet
endsolid OpenSCAD_Model
