<?xml version="1.0" encoding="UTF-8"?>
<svg id="b" data-name="Layer 2" xmlns="http://www.w3.org/2000/svg" viewBox="0 0 63.78 100.63">
  <g id="c" data-name="Layer 1">
    <path d="M28.76,.31c12.7-2,23.14,5.52,31.33,22.56,3.36,10.44,4.43,19.94,3.2,28.48-1.23,8.54-1.69,15.97-4.28,20.61-2.59,4.65-5.6,9.57-9.06,13.72-8.84,10.89-16.78,14.97-20.93,14.95-4.14-.03-9.66-4.23-16.57-12.63C5.55,79.61,1.6,70.89,.6,61.85c-1-9.04-.74-16.59,.79-22.63,1.53-6.04,4.19-12.05,7.98-18.02C13.16,15.22,19.62,8.26,28.76,.31ZM15.8,29.2c-1.64,8.54-1.55,17.9,.27,28.07,1.82,10.17,6.54,17.46,14.14,21.88,7.6,4.42,13.01,1.06,16.22-10.06,3.21-11.12,3.18-22.15-.09-33.09-3.27-10.94-8.77-16.94-16.49-18.01-7.72-1.07-12.4,2.67-14.05,11.21Z"/>
  </g>
</svg>