<?xml version="1.0" encoding="UTF-8"?>
<svg id="b" data-name="Layer 2" xmlns="http://www.w3.org/2000/svg" viewBox="0 0 65.2 100.63">
  <g id="c" data-name="Layer 1">
    <path d="M63.32,76.83c-3,4.67-9.84,6.42-20.5,5.27-10.66-1.15-16.8-1.5-22.01-.8L54.51,35.93c4.31-5.67,4.86-13.86,1.48-22.42C52.62,4.96,45.91,.47,35.87,.04,25.83-.38,17.78,2.49,11.72,8.66,.61,19.57-2.68,36.15,6.99,48.16l14.72-14c-5.26-6.17-7.27-11.83-6.05-16.97,1.75-4.85,4.2-6.93,9.54-6.13,5.57,1.27,10.5,4.85,14.23,9.12,2.8,3.55,3.32,8.54,2.51,12.89-.59,3.19-2.14,6.4-4.11,8.96-4.63,6.02-9.45,11.9-14.13,17.88-8.98,11.52-14.73,19.86-23.7,31.39l2.17,7.07c4.26-1.35,14.06,.81,28.78,1.86,14.72,1.05,23.55,.01,26.47-3.12,2.93-3.13,5.52-9.59,7.77-19.38l-1.88-.9Z"/>
  </g>
</svg>