<?xml version="1.0" encoding="UTF-8"?>
<svg id="b" data-name="Layer 2" xmlns="http://www.w3.org/2000/svg" viewBox="0 0 69.45 100.63">
  <g id="c" data-name="Layer 1">
    <path d="M65.9,40.55c-2.7-4.68-6.86-8.11-11.46-10.78-1.4-.82-2.91-1.45-4.5-1.83-.6-.14-3.86-.93-4.28-.39l.23-.3s-.03,.02-.04,.03c.02-.03,16.62-21.64,18.61-24.24l-.09-.15,.23-.21-1.6-2.7h-15.88L24.82,.13l-.12,.14H13.85L3.87,15.22l1.13,2.11,40.41-.08-.23,.27h.04c-4.49,5.16-14.68,16.85-19.43,22.29l-.21,.24c.59,.67,1.81,2.04,2.41,2.71,12.44-3.76,19.97,5.04,24.73,15.24,2.53,5.37,3.49,10.92,.61,16.43-.35,.67-.74,1.32-1.17,1.94-3.36,4.74-8.93,8.2-14.81,7.71-3.55-.3-6.2-2-9-4.02-3.19-2.31-6.34-4.68-9.26-7.32-2.77-2.5-5.53-5.74-5.62-9.67-.05-1.9,.55-3.56,1.44-5.12,.41-.69,.85-1.36,1.32-2.02,.7-.96,1.45-1.9,2.18-2.86,.06-.08,.13-.16,.19-.24h0c-.06-.05-3.25-2.77-3.25-2.77-4.94,4.01-8.68,7.88-11.23,11.63-4.47,6.55-5.3,12.7-2.47,18.46,4.68,8.44,11.9,15.47,19.01,18.27,7.15,3.04,15.63,2.91,21.09-.37,8.35-4.34,16.13-11.96,21.31-20.9,6.61-11.43,8.98-25,2.85-36.62Z"/>
  </g>
</svg>