<?xml version="1.0" encoding="UTF-8"?>
<svg id="b" data-name="Layer 2" xmlns="http://www.w3.org/2000/svg" viewBox="0 0 66.61 100.63">
  <g id="c" data-name="Layer 1">
    <path d="M65.6,51.45c-2.95-10.71-11.71-19.55-22-23.32-7.35-2.44-14.35-2.03-22.32,.19,.02-2.8-.01-11.52,0-14.17l29.07-.23L62.18,3.27l.6-.54-1.57-2.73L23.08,.23l-.42,.49L8.09,17.73l-.02,.41-1.48,28.3,2.55,1.36c11.99-10.53,24.29-6.55,34.86,3.62,3.08,2.87,6.36,5.78,7.71,9.93,1.51,4.67,1.86,9.45-.48,13.92-3.87,7.41-12.76,11.67-20.74,8.84-4.84-1.6-9.33-3.98-12.78-7.82-4.29-4.3-4.3-9.62-2.12-15.02l-2.92-.99c.31-.49-12.47,20.07-12.66,20.38,5.4,9.56,11.45,17.11,21.62,19.05,10.48,1.83,17.11,1.32,25.57-5.75,11.93-9.95,22.87-26.3,18.41-42.52Z"/>
  </g>
</svg>