<?xml version="1.0" encoding="UTF-8"?>
<svg id="b" data-name="Layer 2" xmlns="http://www.w3.org/2000/svg" viewBox="0 0 58.11 100.63">
  <g id="c" data-name="Layer 1">
    <path d="M57.5,58.48c-1.45-6.41-6.15-11.54-17.11-17.92,9.13-7.23,14.3-18.24,10.87-27.08C48.66,5.89,43.04,.92,34.64,.14c-5.89-.5-10.39,.24-14.43,3.75C11.89,9.7,5.76,17.91,4.65,28.05c-.11,1.56-.04,3.11,.15,4.63-.02,7.06,4.36,12.07,10.33,16.42C2.85,59.17-4.9,71.54,3.54,85.21c4.67,7.53,12.56,13.01,21.28,14.8,3.82,.79,7.93,1.07,11.55-.64,1.93-.89,3.63-2.22,5.17-3.67,7.03-6.49,12.16-14.87,14.98-23.97,1.79-4.22,2-8.71,.98-13.25ZM25.93,15.07c7.04,.3,12.6,3.97,14.66,10.3,1.43,4.73-2.44,8.37-6.35,10.89-2.91-1.33-7.39-3.79-10.88-5.85-4.95-2.98-6.81-5.09-6.61-9.17,.21-3,2.59-6.51,9.19-6.17Zm15.79,66.98c-3,2.32-5.69,2.19-10.29,1.6-7.22-1.16-12.43-5.52-15.61-13.07-3.22-7.12,.55-12.9,5.66-17.65,10.86,5.97,18.27,10.44,22.6,17.77,1.81,3.7,.74,8.7-2.36,11.34Z"/>
  </g>
</svg>