<?xml version="1.0" encoding="UTF-8"?>
<svg id="b" data-name="Layer 2" xmlns="http://www.w3.org/2000/svg" viewBox="0 0 62.32 100.52">
  <g id="c" data-name="Layer 1">
    <path d="M53.55,14.9C46.37,5.73,37.42-3.46,24.81,1.3,6.42,7.65-6.99,34.47,3.93,51.96c4.79,10,17.53,18.09,28.68,13.55,7.02-2.78,12.17-9.4,15.65-15.67,1.44,8.01,1.47,16.63-1.58,24.26-2.77,5.8-4.76,10.35-10.79,10.52-6.04,.2-13.16-2.25-15.95-8.34l-12.07,13.97c-.2,3.71,2.2,6.57,7.21,8.6,14.04,4.95,26.81-1.44,36.08-14.22,12.86-19.45,15.84-53,2.4-69.72ZM25.86,50.9c-4.14-1.32-7.6-4.48-10.37-9.52-4.17-7.59-3.88-13.1-2.07-17.38,1.14-2.7,2.62-4.65,4.75-5.93,3.57-2.32,10.41-2.12,14.39-.91,1.23,.55,2.45,1.2,3.64,1.93,1.17,.91,2.29,2.11,3.4,3.69,3.85,5.46,6.66,10.72,7.87,19.18-3.02,6.25-13.25,11.7-21.61,8.93Z"/>
  </g>
</svg>