<?xml version="1.0" encoding="UTF-8"?>
<svg id="b" data-name="Layer 2" xmlns="http://www.w3.org/2000/svg" viewBox="0 0 25.76 25.76">
  <g id="c" data-name="Layer 1">
    <path d="M25.46,12.5C20.46,9.37,16.39,5.3,13.26,.29c-.09-.15-.23-.24-.38-.29-.15,.05-.29,.15-.38,.29C9.37,5.3,5.3,9.37,.29,12.5c-.15,.09-.24,.23-.29,.38,.05,.15,.15,.29,.29,.38,5.01,3.13,9.08,7.19,12.21,12.2,.09,.15,.23,.24,.38,.29,.15-.05,.29-.15,.38-.29,3.13-5.01,7.19-9.08,12.2-12.21,.15-.09,.24-.23,.29-.38-.05-.15-.15-.29-.29-.38Z"/>
  </g>
</svg>