<?xml version="1.0" encoding="UTF-8"?>
<svg id="Layer_2" data-name="Layer 2" xmlns="http://www.w3.org/2000/svg" viewBox="0 0 34.08 25.6">
  <defs>
    <style>
      .cls-1 {
        fill: #231f20;
        stroke-width: 0px;
      }
    </style>
  </defs>
  <g id="Layer_1-2" data-name="Layer 1">
    <path class="cls-1" d="m25.31,0c-4.57,0-7.16,2.19-8.24,6.72-.12-4.2-3.16-6.72-8.18-6.72S.96,2.66.06,7.49l5.22,1.54c.51-3.55,1.57-5.09,3.55-5.09,1.54,0,2.3,1.12,2.3,2.69,0,3.58-2.21,6.37-11.14,15.23v3.42h17.44v-4.8H7.46c5.42-4.97,8.13-7.9,9.14-10.69-.08.93-.12,1.92-.12,2.98,0,8.74,2.56,12.83,8.83,12.83s8.77-4.1,8.77-12.83S31.55,0,25.31,0Zm0,21.79c-2.18,0-2.82-2.02-2.82-9.02s.64-9.06,2.82-9.06,2.69,2.08,2.69,9.06-.61,9.02-2.69,9.02Z"/>
  </g>
</svg>