<?xml version="1.0" encoding="UTF-8"?>
<svg id="Layer_2" data-name="Layer 2" xmlns="http://www.w3.org/2000/svg" viewBox="0 0 31.2 25.6">
  <defs>
    <style>
      .cls-1 {
        fill: #231f20;
        stroke-width: 0px;
      }
    </style>
  </defs>
  <g id="Layer_1-2" data-name="Layer 1">
    <path class="cls-1" d="m22.43,0c-6.27,0-8.83,4.1-8.83,12.77,0,3.63.45,6.45,1.42,8.51h-3.91V.35h-2.88L0,3.42v4.42l5.5-2.08v15.52H.51v4h15.55v-2.3c1.43,1.76,3.51,2.62,6.37,2.62,6.24,0,8.77-4.1,8.77-12.83S28.67,0,22.43,0Zm0,21.79c-2.18,0-2.82-2.02-2.82-9.02s.64-9.06,2.82-9.06,2.69,2.08,2.69,9.06-.61,9.02-2.69,9.02Z"/>
  </g>
</svg>