<?xml version="1.0" encoding="UTF-8"?>
<svg id="Layer_2" data-name="Layer 2" xmlns="http://www.w3.org/2000/svg" viewBox="0 0 18.53 25.6">
  <defs>
    <style>
      .cls-1 {
        fill: #231f20;
        stroke-width: 0px;
      }
    </style>
  </defs>
  <g id="Layer_1-2" data-name="Layer 1">
    <path class="cls-1" d="m12.7,7.33c-.48-2.66-1.79-3.62-3.23-3.62-2.3,0-3.74,1.47-3.97,8.32.96-1.66,2.75-2.62,5.47-2.62,5.02,0,7.55,2.94,7.55,7.26,0,6.05-3.87,8.93-8.99,8.93C3.39,25.6,0,22.49,0,13.66S3.23,0,10.08,0c3.74,0,7.07,1.54,7.97,5.7l-5.34,1.63Zm-.22,10.08c0-2.72-1.09-4.51-3.04-4.51-2.34,0-2.98,2.05-2.98,4.32,0,3.23,1.31,4.77,3.1,4.77,1.66,0,2.91-1.57,2.91-4.58Z"/>
  </g>
</svg>