<?xml version="1.0" encoding="UTF-8"?>
<svg id="Layer_2" data-name="Layer 2" xmlns="http://www.w3.org/2000/svg" viewBox="0 0 18.65 25.6">
  <defs>
    <style>
      .cls-1 {
        fill: #231f20;
        stroke-width: 0px;
      }
    </style>
  </defs>
  <g id="Layer_1-2" data-name="Layer 1">
    <path class="cls-1" d="m18.65,18.46c0,3.55-3.46,7.13-9.5,7.13-5.57,0-9.15-2.78-9.15-6.59,0-2.98,2.18-4.83,4.86-5.98-2.98-2.02-3.81-3.74-3.81-6.02C1.06,2.66,4.99,0,9.41,0c4.99,0,8.32,2.72,8.32,5.98,0,2.69-1.63,4.35-4.1,5.7,4.03,2.5,5.02,4.19,5.02,6.78Zm-6.33.83c0-1.63-1.22-2.62-4.58-4.54-1.63,1.5-2.14,2.75-2.14,4.03,0,1.92,1.57,3.1,3.78,3.1,2.08,0,2.94-1.34,2.94-2.59ZM6.82,6.08c0,1.34.9,2.3,3.94,3.94.96-.99,1.73-2.4,1.73-3.74,0-1.82-1.34-2.72-2.94-2.72-1.47,0-2.72.86-2.72,2.53Z"/>
  </g>
</svg>