<?xml version="1.0" encoding="UTF-8"?>
<svg id="Layer_2" data-name="Layer 2" xmlns="http://www.w3.org/2000/svg" viewBox="0 0 49.63 25.6">
  <defs>
    <style>
      .cls-1 {
        fill: #231f20;
        stroke-width: 0px;
      }
    </style>
  </defs>
  <g id="Layer_1-2" data-name="Layer 1">
    <path class="cls-1" d="m44.38,18.59c-.45,2.56-1.6,3.33-2.75,3.33-1.86,0-3.07-1.54-3.07-5.82,0-4.51,1.41-5.73,3.01-5.73,1.44,0,2.5,1.22,2.91,3.87l4.99-1.25c-1.12-4.54-3.74-6.27-7.9-6.27-3.56,0-6.2,1.75-7.51,4.77-.25-7.79-2.82-11.49-8.74-11.49-4.57,0-7.16,2.19-8.24,6.72-.12-4.2-3.16-6.72-8.18-6.72S.96,2.66.06,7.49l5.22,1.54c.51-3.55,1.57-5.09,3.55-5.09,1.54,0,2.3,1.12,2.3,2.69,0,3.58-2.21,6.37-11.14,15.23v3.42h17.44v-4.8H7.46c5.42-4.97,8.13-7.9,9.14-10.69-.08.93-.12,1.92-.12,2.98,0,8.74,2.56,12.83,8.83,12.83,4.41,0,6.96-2.06,8.08-6.34.84,4.1,3.62,6.34,8.02,6.34,3.49,0,6.72-1.12,8.22-5.57l-5.25-1.44Zm-19.07,3.2c-2.18,0-2.82-2.02-2.82-9.02s.64-9.06,2.82-9.06,2.69,2.08,2.69,9.06-.61,9.02-2.69,9.02Z"/>
  </g>
</svg>