<?xml version="1.0" encoding="UTF-8"?>
<svg id="Layer_2" data-name="Layer 2" xmlns="http://www.w3.org/2000/svg" viewBox="0 0 34.65 25.25">
  <defs>
    <style>
      .cls-1 {
        fill: #231f20;
        stroke-width: 0px;
      }
    </style>
  </defs>
  <g id="Layer_1-2" data-name="Layer 1">
    <path class="cls-1" d="m29.41,18.24c-.45,2.56-1.6,3.33-2.75,3.33-1.86,0-3.07-1.54-3.07-5.82,0-4.51,1.41-5.73,3.01-5.73,1.44,0,2.5,1.22,2.91,3.87l4.99-1.25c-1.12-4.54-3.74-6.27-7.9-6.27-4.81,0-7.93,3.19-8.38,8.38h-2.31V0h-8L0,13.98v5.54h10.3v5.41h5.6v-5.41h2.66c.98,3.71,3.7,5.73,7.87,5.73,3.49,0,6.72-1.12,8.22-5.57l-5.25-1.44Zm-19.1-3.49h-5.95L10.3,3.78v10.98Z"/>
  </g>
</svg>