<?xml version="1.0" encoding="UTF-8"?>
<svg id="Layer_2" data-name="Layer 2" xmlns="http://www.w3.org/2000/svg" viewBox="0 0 63.39 25.6">
  <defs>
    <style>
      .cls-1 {
        fill: #231f20;
        stroke-width: 0px;
      }
    </style>
  </defs>
  <g id="Layer_1-2" data-name="Layer 1">
    <path class="cls-1" d="m58.14,18.59c-.45,2.56-1.6,3.33-2.75,3.33-1.86,0-3.07-1.54-3.07-5.82,0-4.51,1.41-5.73,3.01-5.73,1.44,0,2.5,1.22,2.91,3.87l4.99-1.25c-1.12-4.54-3.74-6.27-7.9-6.27-3.56,0-6.2,1.75-7.51,4.77-.25-7.79-2.82-11.49-8.74-11.49-5.02,0-7.65,2.63-8.51,8.12-.85-5.49-3.46-8.12-8.45-8.12-6.27,0-8.83,4.1-8.83,12.77,0,3.63.45,6.45,1.42,8.51h-3.59V.35h-2.88L0,3.42v4.42l5.5-2.08v15.52H.51v4h15.55v-1.93c1.41,1.51,3.39,2.25,6.05,2.25,4.99,0,7.6-2.63,8.45-8.15.86,5.52,3.49,8.15,8.51,8.15,4.41,0,6.96-2.06,8.08-6.34.84,4.1,3.62,6.34,8.02,6.34,3.49,0,6.72-1.12,8.22-5.57l-5.25-1.44Zm-36.03,3.2c-2.18,0-2.82-2.02-2.82-9.02s.64-9.06,2.82-9.06,2.69,2.08,2.69,9.06-.61,9.02-2.69,9.02Zm16.96,0c-2.18,0-2.82-2.02-2.82-9.02s.64-9.06,2.82-9.06,2.69,2.08,2.69,9.06-.61,9.02-2.69,9.02Z"/>
  </g>
</svg>