solid OpenSCAD_Model
  facet normal 0 0 1
    outer loop
      vertex 4.09475e-07 2.90955e-07 30.15
      vertex -4.09475e-07 2.90955e-07 30.15
      vertex 0 1.57909e-07 30.15
    endloop
  endfacet
  facet normal 0 0.866024 0.500003
    outer loop
      vertex 3.1327 4.3118 22.6818
      vertex -4.09475e-07 2.90955e-07 30.15
      vertex 4.09475e-07 2.90955e-07 30.15
    endloop
  endfacet
  facet normal 0 0.866024 0.500003
    outer loop
      vertex 3.1327 4.3118 22.6818
      vertex -3.1327 4.3118 22.6818
      vertex -4.09475e-07 2.90955e-07 30.15
    endloop
  endfacet
  facet normal -9.19794e-06 0.866027 0.499997
    outer loop
      vertex 1.71485 8.10777 16.1069
      vertex 3.1327 4.3118 22.6818
      vertex 5.09314 7.0101 18.0082
    endloop
  endfacet
  facet normal 0 0.866028 0.499995
    outer loop
      vertex 3.1327 4.3118 22.6818
      vertex 1.71485 8.10777 16.1069
      vertex -3.1327 4.3118 22.6818
    endloop
  endfacet
  facet normal -0 0.866028 0.499995
    outer loop
      vertex -1.71485 8.10777 16.1069
      vertex -3.1327 4.3118 22.6818
      vertex 1.71485 8.10777 16.1069
    endloop
  endfacet
  facet normal 9.19794e-06 0.866027 0.499997
    outer loop
      vertex -3.1327 4.3118 22.6818
      vertex -1.71485 8.10777 16.1069
      vertex -5.09314 7.0101 18.0082
    endloop
  endfacet
  facet normal -0 0.86603 0.499993
    outer loop
      vertex -1.71485 8.10777 16.1069
      vertex 1.71485 8.10777 16.1069
      vertex 0 8.66496 15.1418
    endloop
  endfacet
  facet normal 2.21818e-05 -0.86604 -0.499974
    outer loop
      vertex 1.71485 -8.10777 17.0431
      vertex 4.75998 -6.70627 14.6156
      vertex 4.99387 -7.02442 15.1667
    endloop
  endfacet
  facet normal -1.76104e-06 -0.866027 -0.499997
    outer loop
      vertex 3.8036 -5.40534 12.3623
      vertex -1.71485 -8.10777 17.0431
      vertex -3.80368 -5.40544 12.3625
    endloop
  endfacet
  facet normal -3.90475e-07 -0.866028 -0.499996
    outer loop
      vertex -1.71485 -8.10777 17.0431
      vertex 3.8036 -5.40534 12.3623
      vertex 4.75998 -6.70627 14.6156
    endloop
  endfacet
  facet normal -1.76115e-06 -0.866025 -0.5
    outer loop
      vertex 3.8036 -5.40534 12.3623
      vertex -3.80368 -5.40544 12.3625
      vertex -4.78703e-07 -0.170129 3.29467
    endloop
  endfacet
  facet normal 0 -0.86603 -0.499993
    outer loop
      vertex -1.71485 -8.10777 17.0431
      vertex 1.71485 -8.10777 17.0431
      vertex 0 -8.66496 18.0082
    endloop
  endfacet
  facet normal -5.75907e-06 -0.866028 -0.499996
    outer loop
      vertex -3.80368 -5.40544 12.3625
      vertex -1.71485 -8.10777 17.0431
      vertex -4.99387 -7.02442 15.1667
    endloop
  endfacet
  facet normal 0.00087152 -0.865363 -0.501145
    outer loop
      vertex -5.09314 -7.0101 15.1418
      vertex -4.99387 -7.02442 15.1667
      vertex -1.71485 -8.10777 17.0431
    endloop
  endfacet
  facet normal 0.000482866 -0.866035 -0.499982
    outer loop
      vertex -4.99387 -7.02442 15.1667
      vertex -5.09314 -7.0101 15.1418
      vertex -5.06565 -6.97227 15.0763
    endloop
  endfacet
  facet normal 0 -0.866028 -0.499995
    outer loop
      vertex -1.71485 -8.10777 17.0431
      vertex 4.75998 -6.70627 14.6156
      vertex 1.71485 -8.10777 17.0431
    endloop
  endfacet
  facet normal -0.00087152 -0.865363 -0.501145
    outer loop
      vertex 4.99387 -7.02442 15.1667
      vertex 5.09314 -7.0101 15.1418
      vertex 1.71485 -8.10777 17.0431
    endloop
  endfacet
  facet normal -0.000482866 -0.866035 -0.499982
    outer loop
      vertex 5.09314 -7.0101 15.1418
      vertex 4.99387 -7.02442 15.1667
      vertex 5.06565 -6.97227 15.0763
    endloop
  endfacet
  facet normal -0.823645 0.267617 0.49999
    outer loop
      vertex -8.24087 0.874518 16.1069
      vertex -5.09314 7.0101 18.0082
      vertex -8.24087 2.67762 15.1418
    endloop
  endfacet
  facet normal -0.823641 0.267612 0.499999
    outer loop
      vertex -5.09314 7.0101 18.0082
      vertex -8.24087 0.874518 16.1069
      vertex -3.1327 4.3118 22.6818
    endloop
  endfacet
  facet normal -0.823641 0.267628 0.49999
    outer loop
      vertex -3.1327 4.3118 22.6818
      vertex -8.24087 0.874518 16.1069
      vertex -8.24087 -0.874518 17.0431
    endloop
  endfacet
  facet normal -0.82364 0.267617 0.499999
    outer loop
      vertex -5.06882 -1.64696 22.6818
      vertex -3.1327 4.3118 22.6818
      vertex -8.24087 -0.874518 17.0431
    endloop
  endfacet
  facet normal -0.823638 0.267616 0.500002
    outer loop
      vertex -3.1327 4.3118 22.6818
      vertex -5.06882 -1.64696 22.6818
      vertex -4.09475e-07 2.90955e-07 30.15
    endloop
  endfacet
  facet normal -0.823638 0.267622 0.499999
    outer loop
      vertex -5.06882 -1.64696 22.6818
      vertex -8.24087 -0.874518 17.0431
      vertex -8.24087 -2.67762 18.0082
    endloop
  endfacet
  facet normal 0.823641 -0.26762 -0.499996
    outer loop
      vertex 3.96548 -5.28789 12.3625
      vertex 8.24087 -0.874518 17.0431
      vertex 8.24087 -2.67762 18.0082
    endloop
  endfacet
  facet normal 0.823642 -0.267628 -0.499989
    outer loop
      vertex 8.24087 -0.874518 17.0431
      vertex 3.96548 -5.28789 12.3625
      vertex 8.24087 0.874518 16.1069
    endloop
  endfacet
  facet normal 0.823637 -0.267614 -0.500005
    outer loop
      vertex 8.24087 0.874518 16.1069
      vertex 3.96548 -5.28789 12.3625
      vertex 3.20384 -4.23957 10.5468
    endloop
  endfacet
  facet normal 0.823641 -0.267621 -0.499995
    outer loop
      vertex 8.24087 -2.67762 18.0082
      vertex 5.13743 -6.92012 15.1667
      vertex 3.96548 -5.28789 12.3625
    endloop
  endfacet
  facet normal 0.823791 -0.267118 -0.500017
    outer loop
      vertex 5.13743 -6.92012 15.1667
      vertex 5.09314 -7.0101 15.1418
      vertex 5.06565 -6.97227 15.0763
    endloop
  endfacet
  facet normal 0.823256 -0.266523 -0.501214
    outer loop
      vertex 5.09314 -7.0101 15.1418
      vertex 5.13743 -6.92012 15.1667
      vertex 8.24087 -2.67762 18.0082
    endloop
  endfacet
  facet normal 0.823505 -0.268115 -0.499954
    outer loop
      vertex 8.24087 2.67762 15.1418
      vertex 8.22381 2.57879 15.1667
      vertex 8.1964 2.66317 15.0763
    endloop
  endfacet
  facet normal 0.82265 -0.268297 -0.501261
    outer loop
      vertex 8.24087 0.874518 16.1069
      vertex 8.22381 2.57879 15.1667
      vertex 8.24087 2.67762 15.1418
    endloop
  endfacet
  facet normal 0.823643 -0.267595 -0.500006
    outer loop
      vertex 8.24087 0.874518 16.1069
      vertex 6.31632 1.94715 12.3626
      vertex 8.22381 2.57879 15.1667
    endloop
  endfacet
  facet normal 0.823636 -0.267612 -0.500007
    outer loop
      vertex 3.20384 -4.23957 10.5468
      vertex 6.31632 1.94715 12.3626
      vertex 8.24087 0.874518 16.1069
    endloop
  endfacet
  facet normal 0.82364 -0.267616 -0.499998
    outer loop
      vertex 6.31632 1.94715 12.3626
      vertex 3.20384 -4.23957 10.5468
      vertex 0.161802 -0.0525729 3.29467
    endloop
  endfacet
  facet normal -0.509036 -0.70063 0.5
    outer loop
      vertex -8.24087 -2.67762 18.0082
      vertex -1.71485 -8.10777 17.0431
      vertex -5.06882 -1.64696 22.6818
    endloop
  endfacet
  facet normal -0.509042 -0.700635 0.499987
    outer loop
      vertex -1.71485 -8.10777 17.0431
      vertex -8.24087 -2.67762 18.0082
      vertex -5.09314 -7.0101 15.1418
    endloop
  endfacet
  facet normal -0.284961 -0.877023 0.386818
    outer loop
      vertex -5.06882 -1.64696 22.6818
      vertex 0 1.57909e-07 30.15
      vertex -4.09475e-07 2.90955e-07 30.15
    endloop
  endfacet
  facet normal -0.509035 -0.700629 0.500002
    outer loop
      vertex -5.06882 -1.64696 22.6818
      vertex 0 -8.66496 18.0082
      vertex 0 1.57909e-07 30.15
    endloop
  endfacet
  facet normal -0.509041 -0.700629 0.499995
    outer loop
      vertex 0 -8.66496 18.0082
      vertex -5.06882 -1.64696 22.6818
      vertex -1.71485 -8.10777 17.0431
    endloop
  endfacet
  facet normal 0.509047 0.700629 -0.49999
    outer loop
      vertex 6.25444 2.13734 12.3624
      vertex 5.09314 7.0101 18.0082
      vertex 8.16898 2.74755 15.1667
    endloop
  endfacet
  facet normal 0.507913 0.700603 -0.501178
    outer loop
      vertex 8.24087 2.67762 15.1418
      vertex 8.16898 2.74755 15.1667
      vertex 5.09314 7.0101 18.0082
    endloop
  endfacet
  facet normal 0.50865 0.700931 -0.499971
    outer loop
      vertex 8.16898 2.74755 15.1667
      vertex 8.24087 2.67762 15.1418
      vertex 8.1964 2.66317 15.0763
    endloop
  endfacet
  facet normal 0.509043 0.700631 -0.499992
    outer loop
      vertex 5.09314 7.0101 18.0082
      vertex 6.25444 2.13734 12.3624
      vertex 1.71485 8.10777 16.1069
    endloop
  endfacet
  facet normal 0.509024 0.700629 -0.500013
    outer loop
      vertex 1.71485 8.10777 16.1069
      vertex 6.25444 2.13734 12.3624
      vertex 5.02211 1.73693 10.5468
    endloop
  endfacet
  facet normal 0.509018 0.700646 -0.499996
    outer loop
      vertex 1.71485 8.10777 16.1069
      vertex 0.0999998 6.60873 12.3623
      vertex 0.0887261 8.6182 15.1667
    endloop
  endfacet
  facet normal 0.509043 0.700626 -0.499998
    outer loop
      vertex 5.02211 1.73693 10.5468
      vertex 0.0999998 6.60873 12.3623
      vertex 1.71485 8.10777 16.1069
    endloop
  endfacet
  facet normal 0.509042 0.700626 -0.5
    outer loop
      vertex 0.0999998 6.60873 12.3623
      vertex 5.02211 1.73693 10.5468
      vertex 0.0999993 0.137637 3.29467
    endloop
  endfacet
  facet normal 0.509339 0.699616 -0.50111
    outer loop
      vertex 0.0887261 8.6182 15.1667
      vertex 0 8.66496 15.1418
      vertex 1.71485 8.10777 16.1069
    endloop
  endfacet
  facet normal 0.509417 0.700364 -0.499985
    outer loop
      vertex 0 8.66496 15.1418
      vertex 0.0887261 8.6182 15.1667
      vertex 0 8.6182 15.0763
    endloop
  endfacet
  facet normal 0.509036 -0.70063 0.5
    outer loop
      vertex 1.71485 -8.10777 17.0431
      vertex 8.24087 -2.67762 18.0082
      vertex 5.06882 -1.64696 22.6818
    endloop
  endfacet
  facet normal 0.509042 -0.700635 0.499987
    outer loop
      vertex 8.24087 -2.67762 18.0082
      vertex 1.71485 -8.10777 17.0431
      vertex 5.09314 -7.0101 15.1418
    endloop
  endfacet
  facet normal 0.284961 -0.877023 0.386818
    outer loop
      vertex 0 1.57909e-07 30.15
      vertex 5.06882 -1.64696 22.6818
      vertex 4.09475e-07 2.90955e-07 30.15
    endloop
  endfacet
  facet normal 0.509035 -0.700629 0.500002
    outer loop
      vertex 0 -8.66496 18.0082
      vertex 5.06882 -1.64696 22.6818
      vertex 0 1.57909e-07 30.15
    endloop
  endfacet
  facet normal 0.509041 -0.700629 0.499995
    outer loop
      vertex 5.06882 -1.64696 22.6818
      vertex 0 -8.66496 18.0082
      vertex 1.71485 -8.10777 17.0431
    endloop
  endfacet
  facet normal -0.509337 0.699624 -0.501101
    outer loop
      vertex 0 8.66496 15.1418
      vertex -0.0887268 8.6182 15.1667
      vertex -1.71485 8.10777 16.1069
    endloop
  endfacet
  facet normal -0.509414 0.700365 -0.499986
    outer loop
      vertex -0.0887268 8.6182 15.1667
      vertex 0 8.66496 15.1418
      vertex 0 8.6182 15.0763
    endloop
  endfacet
  facet normal -0.50901 0.700671 -0.499968
    outer loop
      vertex -0.090942 8.22335 14.6156
      vertex -1.71485 8.10777 16.1069
      vertex -0.0887268 8.6182 15.1667
    endloop
  endfacet
  facet normal -0.509039 0.700626 -0.500003
    outer loop
      vertex -0.0999999 6.60877 12.3624
      vertex -1.71485 8.10777 16.1069
      vertex -0.090942 8.22335 14.6156
    endloop
  endfacet
  facet normal -0.509038 0.700627 -0.500002
    outer loop
      vertex -0.0999999 6.60877 12.3624
      vertex -5.02211 1.73693 10.5468
      vertex -1.71485 8.10777 16.1069
    endloop
  endfacet
  facet normal -0.50904 0.700628 -0.499999
    outer loop
      vertex -5.02211 1.73693 10.5468
      vertex -0.0999999 6.60877 12.3624
      vertex -0.1 0.137637 3.29467
    endloop
  endfacet
  facet normal -0.509041 0.700629 -0.499996
    outer loop
      vertex -5.09314 7.0101 18.0082
      vertex -6.25454 2.13737 12.3626
      vertex -8.16898 2.74755 15.1667
    endloop
  endfacet
  facet normal -0.509035 0.700628 -0.500005
    outer loop
      vertex -6.25454 2.13737 12.3626
      vertex -1.71485 8.10777 16.1069
      vertex -5.02211 1.73693 10.5468
    endloop
  endfacet
  facet normal -0.509044 0.700628 -0.499994
    outer loop
      vertex -6.25454 2.13737 12.3626
      vertex -5.09314 7.0101 18.0082
      vertex -1.71485 8.10777 16.1069
    endloop
  endfacet
  facet normal -0.507913 0.700603 -0.501178
    outer loop
      vertex -8.16898 2.74755 15.1667
      vertex -8.24087 2.67762 15.1418
      vertex -5.09314 7.0101 18.0082
    endloop
  endfacet
  facet normal -0.508618 0.700917 -0.500024
    outer loop
      vertex -8.24087 2.67762 15.1418
      vertex -8.16898 2.74755 15.1667
      vertex -8.19639 2.66317 15.0763
    endloop
  endfacet
  facet normal 0.823641 0.267612 0.499999
    outer loop
      vertex 8.24087 0.874518 16.1069
      vertex 5.09314 7.0101 18.0082
      vertex 3.1327 4.3118 22.6818
    endloop
  endfacet
  facet normal 0.823645 0.267617 0.49999
    outer loop
      vertex 5.09314 7.0101 18.0082
      vertex 8.24087 0.874518 16.1069
      vertex 8.24087 2.67762 15.1418
    endloop
  endfacet
  facet normal 0.823641 0.267628 0.49999
    outer loop
      vertex 8.24087 0.874518 16.1069
      vertex 3.1327 4.3118 22.6818
      vertex 8.24087 -0.874518 17.0431
    endloop
  endfacet
  facet normal 0.823638 0.267616 0.500002
    outer loop
      vertex 5.06882 -1.64696 22.6818
      vertex 3.1327 4.3118 22.6818
      vertex 4.09475e-07 2.90955e-07 30.15
    endloop
  endfacet
  facet normal 0.82364 0.267617 0.499999
    outer loop
      vertex 3.1327 4.3118 22.6818
      vertex 5.06882 -1.64696 22.6818
      vertex 8.24087 -0.874518 17.0431
    endloop
  endfacet
  facet normal 0.823638 0.267622 0.499999
    outer loop
      vertex 8.24087 -0.874518 17.0431
      vertex 5.06882 -1.64696 22.6818
      vertex 8.24087 -2.67762 18.0082
    endloop
  endfacet
  facet normal -0.823449 -0.268127 -0.500039
    outer loop
      vertex -8.22381 2.57879 15.1667
      vertex -8.24087 2.67762 15.1418
      vertex -8.19639 2.66317 15.0763
    endloop
  endfacet
  facet normal -0.82265 -0.268297 -0.501261
    outer loop
      vertex -8.22381 2.57879 15.1667
      vertex -8.24087 0.874518 16.1069
      vertex -8.24087 2.67762 15.1418
    endloop
  endfacet
  facet normal -0.823685 -0.267565 -0.499952
    outer loop
      vertex -7.84899 2.45467 14.6156
      vertex -8.24087 0.874518 16.1069
      vertex -8.22381 2.57879 15.1667
    endloop
  endfacet
  facet normal -0.823629 -0.267631 -0.500008
    outer loop
      vertex -6.31626 1.94713 12.3625
      vertex -8.24087 0.874518 16.1069
      vertex -7.84899 2.45467 14.6156
    endloop
  endfacet
  facet normal -0.82364 -0.267617 -0.499998
    outer loop
      vertex -3.20384 -4.23957 10.5468
      vertex -6.31626 1.94713 12.3625
      vertex -0.161804 -0.0525732 3.29467
    endloop
  endfacet
  facet normal -0.823636 -0.267613 -0.500006
    outer loop
      vertex -6.31626 1.94713 12.3625
      vertex -3.20384 -4.23957 10.5468
      vertex -8.24087 0.874518 16.1069
    endloop
  endfacet
  facet normal -0.823641 -0.267628 -0.499991
    outer loop
      vertex -3.96547 -5.28788 12.3625
      vertex -8.24087 -0.874518 17.0431
      vertex -8.24087 0.874518 16.1069
    endloop
  endfacet
  facet normal -0.823637 -0.267618 -0.500002
    outer loop
      vertex -3.96547 -5.28788 12.3625
      vertex -8.24087 0.874518 16.1069
      vertex -3.20384 -4.23957 10.5468
    endloop
  endfacet
  facet normal -0.82364 -0.26762 -0.499997
    outer loop
      vertex -8.24087 -0.874518 17.0431
      vertex -3.96547 -5.28788 12.3625
      vertex -8.24087 -2.67762 18.0082
    endloop
  endfacet
  facet normal -0.823641 -0.2676 -0.500007
    outer loop
      vertex -4.90715 -6.59939 14.6156
      vertex -8.24087 -2.67762 18.0082
      vertex -3.96547 -5.28788 12.3625
    endloop
  endfacet
  facet normal -0.823656 -0.267666 -0.499946
    outer loop
      vertex -5.13743 -6.92012 15.1667
      vertex -8.24087 -2.67762 18.0082
      vertex -4.90715 -6.59939 14.6156
    endloop
  endfacet
  facet normal -0.823256 -0.266523 -0.501214
    outer loop
      vertex -5.13743 -6.92012 15.1667
      vertex -5.09314 -7.0101 15.1418
      vertex -8.24087 -2.67762 18.0082
    endloop
  endfacet
  facet normal -0.823791 -0.267118 -0.500017
    outer loop
      vertex -5.09314 -7.0101 15.1418
      vertex -5.13743 -6.92012 15.1667
      vertex -5.06565 -6.97227 15.0763
    endloop
  endfacet
  facet normal -0.309018 0.951056 0
    outer loop
      vertex 8.16549 2.75828 12.5126
      vertex 6.25444 2.13734 12.3624
      vertex 8.16549 2.75828 15.1667
    endloop
  endfacet
  facet normal -0.309018 0.951056 -1.56444e-07
    outer loop
      vertex 8.16549 2.75828 12.5126
      vertex 5.02211 1.73693 10.5468
      vertex 6.25444 2.13734 12.3624
    endloop
  endfacet
  facet normal -0.309018 0.951056 6.28385e-07
    outer loop
      vertex 0.0999994 0.137637 1.67588
      vertex 5.02211 1.73693 10.5468
      vertex 8.16549 2.75828 12.5126
    endloop
  endfacet
  facet normal -0.309017 0.951056 -1.90894e-08
    outer loop
      vertex 5.02211 1.73693 10.5468
      vertex 0.0999994 0.137637 1.67588
      vertex 0.0999993 0.137637 3.29467
    endloop
  endfacet
  facet normal 0 1 0
    outer loop
      vertex 0.0999993 0.137637 3.29467
      vertex 0.0999994 0.137637 1.67588
      vertex 0.0999993 0.137637 1.67588
    endloop
  endfacet
  facet normal 0.950962 0.309306 -0.000264311
    outer loop
      vertex 8.1964 2.66317 15.0763
      vertex 8.16549 2.75828 15.1667
      vertex 8.16898 2.74755 15.1667
    endloop
  endfacet
  facet normal 0.951036 0.309079 0
    outer loop
      vertex 8.16549 2.75828 15.1667
      vertex 8.1964 2.66317 15.0763
      vertex 8.16549 2.75828 12.5126
    endloop
  endfacet
  facet normal 0.950877 0.309567 0.000638767
    outer loop
      vertex 8.2273 2.56807 15.1667
      vertex 8.1964 2.66317 15.0763
      vertex 8.22381 2.57879 15.1667
    endloop
  endfacet
  facet normal 0.951056 0.309018 0
    outer loop
      vertex 8.1964 2.66317 15.0763
      vertex 8.2273 2.56807 15.1667
      vertex 8.2273 2.56807 12.5126
    endloop
  endfacet
  facet normal 0.951046 0.309049 -1.25209e-06
    outer loop
      vertex 8.1964 2.66317 15.0763
      vertex 8.2273 2.56807 12.5126
      vertex 8.16549 2.75828 12.5126
    endloop
  endfacet
  facet normal -0.773004 -0.251425 0.582452
    outer loop
      vertex 8.16549 2.75828 15.1667
      vertex 6.25444 2.13734 12.3624
      vertex 8.16898 2.74755 15.1667
    endloop
  endfacet
  facet normal -0.772926 -0.251634 0.582465
    outer loop
      vertex 8.22381 2.57879 15.1667
      vertex 6.31632 1.94715 12.3626
      vertex 8.2273 2.56807 15.1667
    endloop
  endfacet
  facet normal 0.309019 -0.951056 0
    outer loop
      vertex 6.31632 1.94715 12.3626
      vertex 8.2273 2.56807 12.5126
      vertex 8.2273 2.56807 15.1667
    endloop
  endfacet
  facet normal 0.309019 -0.951056 -1.90433e-06
    outer loop
      vertex 0.161802 -0.0525729 3.29467
      vertex 8.2273 2.56807 12.5126
      vertex 6.31632 1.94715 12.3626
    endloop
  endfacet
  facet normal 0.309017 -0.951056 -5.87511e-08
    outer loop
      vertex 0.161802 -0.0525729 3.29467
      vertex 0.161802 -0.0525728 1.67588
      vertex 8.2273 2.56807 12.5126
    endloop
  endfacet
  facet normal 1 0 0
    outer loop
      vertex 0.161802 -0.0525728 1.67588
      vertex 0.161802 -0.0525729 3.29467
      vertex 0.161802 -0.0525729 1.67588
    endloop
  endfacet
  facet normal -1 -0 0
    outer loop
      vertex -0.0999999 8.6182 12.5126
      vertex -0.0999999 6.60877 12.3624
      vertex -0.0999999 8.6182 15.1667
    endloop
  endfacet
  facet normal -1 1.17917e-08 7.28424e-15
    outer loop
      vertex -0.1 0.137637 3.29467
      vertex -0.0999999 8.6182 12.5126
      vertex -0.1 0.137638 1.67588
    endloop
  endfacet
  facet normal -1 0 0
    outer loop
      vertex -0.1 0.137637 3.29467
      vertex -0.1 0.137638 1.67588
      vertex -0.1 0.137637 1.67588
    endloop
  endfacet
  facet normal -1 -8.70775e-10 1.16495e-08
    outer loop
      vertex -0.0999999 8.6182 12.5126
      vertex -0.1 0.137637 3.29467
      vertex -0.0999999 6.60877 12.3624
    endloop
  endfacet
  facet normal 0 1 0
    outer loop
      vertex 0.0999999 8.6182 15.1667
      vertex 0 8.6182 15.0763
      vertex 0.0887261 8.6182 15.1667
    endloop
  endfacet
  facet normal -0 1 0
    outer loop
      vertex 0 8.6182 15.0763
      vertex 0.0999999 8.6182 15.1667
      vertex 0.0999999 8.6182 12.5126
    endloop
  endfacet
  facet normal 0 1 0
    outer loop
      vertex 0 8.6182 15.0763
      vertex -0.0999999 8.6182 15.1667
      vertex -0.0887268 8.6182 15.1667
    endloop
  endfacet
  facet normal 0 1 0
    outer loop
      vertex -0.0999999 8.6182 12.5126
      vertex 0 8.6182 15.0763
      vertex 0.0999999 8.6182 12.5126
    endloop
  endfacet
  facet normal 0 1 0
    outer loop
      vertex 0 8.6182 15.0763
      vertex -0.0999999 8.6182 12.5126
      vertex -0.0999999 8.6182 15.1667
    endloop
  endfacet
  facet normal 0 -0.81289 0.582417
    outer loop
      vertex -0.0887268 8.6182 15.1667
      vertex -0.0999999 8.6182 15.1667
      vertex -0.090942 8.22335 14.6156
    endloop
  endfacet
  facet normal 0 -0.812865 0.582452
    outer loop
      vertex 0.0999999 8.6182 15.1667
      vertex 0.0887261 8.6182 15.1667
      vertex 0.0999998 6.60873 12.3623
    endloop
  endfacet
  facet normal 0.00380867 -0.812855 0.582454
    outer loop
      vertex -0.0999999 8.6182 15.1667
      vertex -0.0999999 6.60877 12.3624
      vertex -0.090942 8.22335 14.6156
    endloop
  endfacet
  facet normal 1 -4.97644e-08 0
    outer loop
      vertex 0.0999998 6.60873 12.3623
      vertex 0.0999999 8.6182 12.5126
      vertex 0.0999999 8.6182 15.1667
    endloop
  endfacet
  facet normal 1 -4.82136e-08 -2.07337e-08
    outer loop
      vertex 0.0999993 0.137637 3.29467
      vertex 0.0999999 8.6182 12.5126
      vertex 0.0999998 6.60873 12.3623
    endloop
  endfacet
  facet normal 1 -7.075e-08 0
    outer loop
      vertex 0.0999999 8.6182 12.5126
      vertex 0.0999993 0.137637 3.29467
      vertex 0.0999993 0.137637 1.67588
    endloop
  endfacet
  facet normal -0.309015 -0.951057 0
    outer loop
      vertex -8.2273 2.56806 12.5126
      vertex -6.31626 1.94713 12.3625
      vertex -8.2273 2.56806 15.1667
    endloop
  endfacet
  facet normal -0.309015 -0.951057 1.53276e-06
    outer loop
      vertex -8.2273 2.56806 12.5126
      vertex -0.161804 -0.0525732 3.29467
      vertex -6.31626 1.94713 12.3625
    endloop
  endfacet
  facet normal -0.309016 -0.951057 -0
    outer loop
      vertex -0.161804 -0.0525732 3.29467
      vertex -8.2273 2.56806 12.5126
      vertex -0.161804 -0.0525732 1.67588
    endloop
  endfacet
  facet normal 0.309019 0.951056 0
    outer loop
      vertex -6.25454 2.13737 12.3626
      vertex -8.16549 2.75828 12.5126
      vertex -8.16549 2.75828 15.1667
    endloop
  endfacet
  facet normal 0.309019 0.951056 2.11149e-06
    outer loop
      vertex -5.02211 1.73693 10.5468
      vertex -8.16549 2.75828 12.5126
      vertex -6.25454 2.13737 12.3626
    endloop
  endfacet
  facet normal 0.309017 0.951056 -0
    outer loop
      vertex -0.1 0.137637 1.67588
      vertex -5.02211 1.73693 10.5468
      vertex -0.1 0.137637 3.29467
    endloop
  endfacet
  facet normal 0.309018 0.951056 5.96377e-07
    outer loop
      vertex -5.02211 1.73693 10.5468
      vertex -0.1 0.137637 1.67588
      vertex -8.16549 2.75828 12.5126
    endloop
  endfacet
  facet normal -0.951066 0.308989 0
    outer loop
      vertex -8.19639 2.66317 15.0763
      vertex -8.16549 2.75828 15.1667
      vertex -8.16549 2.75828 12.5126
    endloop
  endfacet
  facet normal -0.950962 0.309306 -0.000369506
    outer loop
      vertex -8.16549 2.75828 15.1667
      vertex -8.19639 2.66317 15.0763
      vertex -8.16898 2.74755 15.1667
    endloop
  endfacet
  facet normal -0.951051 0.309034 1.85484e-06
    outer loop
      vertex -8.2273 2.56806 12.5126
      vertex -8.19639 2.66317 15.0763
      vertex -8.16549 2.75828 12.5126
    endloop
  endfacet
  facet normal -0.951036 0.309079 0
    outer loop
      vertex -8.2273 2.56806 15.1667
      vertex -8.19639 2.66317 15.0763
      vertex -8.2273 2.56806 12.5126
    endloop
  endfacet
  facet normal -0.950962 0.309306 0.000264311
    outer loop
      vertex -8.19639 2.66317 15.0763
      vertex -8.2273 2.56806 15.1667
      vertex -8.22381 2.57879 15.1667
    endloop
  endfacet
  facet normal 0.773041 -0.251436 0.582398
    outer loop
      vertex -8.22381 2.57879 15.1667
      vertex -8.2273 2.56806 15.1667
      vertex -7.84899 2.45467 14.6156
    endloop
  endfacet
  facet normal 0.772999 -0.251423 0.582459
    outer loop
      vertex -8.16549 2.75828 15.1667
      vertex -8.16898 2.74755 15.1667
      vertex -6.25454 2.13737 12.3626
    endloop
  endfacet
  facet normal 0.774835 -0.24572 0.582453
    outer loop
      vertex -7.84899 2.45467 14.6156
      vertex -8.2273 2.56806 15.1667
      vertex -6.31626 1.94713 12.3625
    endloop
  endfacet
  facet normal 0.809018 -0.587784 1.78001e-06
    outer loop
      vertex -4.98475 -7.03105 12.5126
      vertex -4.78703e-07 -0.170129 3.29467
      vertex -3.80368 -5.40544 12.3625
    endloop
  endfacet
  facet normal 0.809018 -0.587784 0
    outer loop
      vertex -4.98475 -7.03105 12.5126
      vertex -3.80368 -5.40544 12.3625
      vertex -4.98475 -7.03105 15.1667
    endloop
  endfacet
  facet normal 0.809017 -0.587785 0
    outer loop
      vertex -4.78703e-07 -0.170129 3.29467
      vertex -4.98475 -7.03105 12.5126
      vertex -4.78703e-07 -0.170129 1.67588
    endloop
  endfacet
  facet normal -0.809017 0.587786 0
    outer loop
      vertex -0.161804 -0.0525732 1.67588
      vertex -3.20384 -4.23957 10.5468
      vertex -0.161804 -0.0525732 3.29467
    endloop
  endfacet
  facet normal -0.809019 0.587783 -2.10739e-06
    outer loop
      vertex -5.14655 -6.91349 12.5126
      vertex -3.20384 -4.23957 10.5468
      vertex -0.161804 -0.0525732 1.67588
    endloop
  endfacet
  facet normal -0.809015 0.587787 7.13119e-06
    outer loop
      vertex -3.20384 -4.23957 10.5468
      vertex -5.14655 -6.91349 12.5126
      vertex -3.96547 -5.28788 12.3625
    endloop
  endfacet
  facet normal -0.809016 0.587787 0
    outer loop
      vertex -3.96547 -5.28788 12.3625
      vertex -5.14655 -6.91349 12.5126
      vertex -5.14655 -6.91349 15.1667
    endloop
  endfacet
  facet normal -0.588013 -0.808851 -0.000287849
    outer loop
      vertex -5.14655 -6.91349 15.1667
      vertex -5.06565 -6.97227 15.0763
      vertex -5.13743 -6.92012 15.1667
    endloop
  endfacet
  facet normal -0.587803 -0.809004 0
    outer loop
      vertex -5.14655 -6.91349 12.5126
      vertex -5.06565 -6.97227 15.0763
      vertex -5.14655 -6.91349 15.1667
    endloop
  endfacet
  facet normal -0.587803 -0.809004 1.03189e-16
    outer loop
      vertex -5.06565 -6.97227 15.0763
      vertex -5.14655 -6.91349 12.5126
      vertex -4.98475 -7.03105 12.5126
    endloop
  endfacet
  facet normal -0.588013 -0.808851 0.000287849
    outer loop
      vertex -5.06565 -6.97227 15.0763
      vertex -4.98475 -7.03105 15.1667
      vertex -4.99387 -7.02442 15.1667
    endloop
  endfacet
  facet normal -0.587803 -0.809004 -0
    outer loop
      vertex -4.98475 -7.03105 15.1667
      vertex -5.06565 -6.97227 15.0763
      vertex -4.98475 -7.03105 12.5126
    endloop
  endfacet
  facet normal 0.477973 0.657483 0.582459
    outer loop
      vertex -3.80368 -5.40544 12.3625
      vertex -4.99387 -7.02442 15.1667
      vertex -4.98475 -7.03105 15.1667
    endloop
  endfacet
  facet normal 0.477999 0.657518 0.582398
    outer loop
      vertex -4.90715 -6.59939 14.6156
      vertex -5.14655 -6.91349 15.1667
      vertex -5.13743 -6.92012 15.1667
    endloop
  endfacet
  facet normal 0.482588 0.654111 0.582449
    outer loop
      vertex -3.96547 -5.28788 12.3625
      vertex -5.14655 -6.91349 15.1667
      vertex -4.90715 -6.59939 14.6156
    endloop
  endfacet
  facet normal 0.809016 0.587786 0
    outer loop
      vertex 3.20384 -4.23957 10.5468
      vertex 0.161802 -0.0525729 1.67588
      vertex 0.161802 -0.0525729 3.29467
    endloop
  endfacet
  facet normal 0.809016 0.587786 5.01418e-06
    outer loop
      vertex 5.14655 -6.91349 12.5126
      vertex 3.20384 -4.23957 10.5468
      vertex 3.96548 -5.28789 12.3625
    endloop
  endfacet
  facet normal 0.809016 0.587786 -0
    outer loop
      vertex 5.14655 -6.91349 12.5126
      vertex 3.96548 -5.28789 12.3625
      vertex 5.14655 -6.91349 15.1667
    endloop
  endfacet
  facet normal 0.809019 0.587783 -2.35627e-06
    outer loop
      vertex 3.20384 -4.23957 10.5468
      vertex 5.14655 -6.91349 12.5126
      vertex 0.161802 -0.0525729 1.67588
    endloop
  endfacet
  facet normal 0.588013 -0.808851 0.000287849
    outer loop
      vertex 4.98475 -7.03105 15.1667
      vertex 5.06565 -6.97227 15.0763
      vertex 4.99387 -7.02442 15.1667
    endloop
  endfacet
  facet normal 0.587803 -0.809004 0
    outer loop
      vertex 4.98475 -7.03105 12.5126
      vertex 5.06565 -6.97227 15.0763
      vertex 4.98475 -7.03105 15.1667
    endloop
  endfacet
  facet normal 0.587803 -0.809004 1.03189e-16
    outer loop
      vertex 5.06565 -6.97227 15.0763
      vertex 4.98475 -7.03105 12.5126
      vertex 5.14655 -6.91349 12.5126
    endloop
  endfacet
  facet normal 0.588013 -0.808851 -0.000287849
    outer loop
      vertex 5.06565 -6.97227 15.0763
      vertex 5.14655 -6.91349 15.1667
      vertex 5.13743 -6.92012 15.1667
    endloop
  endfacet
  facet normal 0.587803 -0.809004 0
    outer loop
      vertex 5.14655 -6.91349 15.1667
      vertex 5.06565 -6.97227 15.0763
      vertex 5.14655 -6.91349 12.5126
    endloop
  endfacet
  facet normal -0.477974 0.657484 0.582457
    outer loop
      vertex 5.14655 -6.91349 15.1667
      vertex 3.96548 -5.28789 12.3625
      vertex 5.13743 -6.92012 15.1667
    endloop
  endfacet
  facet normal -0.477984 0.657498 0.582433
    outer loop
      vertex 4.99387 -7.02442 15.1667
      vertex 4.75998 -6.70627 14.6156
      vertex 4.98475 -7.03105 15.1667
    endloop
  endfacet
  facet normal -0.476261 0.658728 0.582455
    outer loop
      vertex 4.75998 -6.70627 14.6156
      vertex 3.8036 -5.40534 12.3623
      vertex 4.98475 -7.03105 15.1667
    endloop
  endfacet
  facet normal -0.901979 -0.43178 0
    outer loop
      vertex -1.31673e-17 -0.17013 1.67588
      vertex -4.78703e-07 -0.170129 3.29467
      vertex -4.78703e-07 -0.170129 1.67588
    endloop
  endfacet
  facet normal -0.809017 -0.587785 1.23862e-07
    outer loop
      vertex 4.98475 -7.03105 12.5126
      vertex -4.78703e-07 -0.170129 3.29467
      vertex -1.31673e-17 -0.17013 1.67588
    endloop
  endfacet
  facet normal -0.809016 -0.587786 -1.05158e-06
    outer loop
      vertex -4.78703e-07 -0.170129 3.29467
      vertex 4.98475 -7.03105 12.5126
      vertex 3.8036 -5.40534 12.3623
    endloop
  endfacet
  facet normal -0.809016 -0.587786 0
    outer loop
      vertex 3.8036 -5.40534 12.3623
      vertex 4.98475 -7.03105 12.5126
      vertex 4.98475 -7.03105 15.1667
    endloop
  endfacet
  facet normal -0.309017 0.951056 0
    outer loop
      vertex 8.17478 2.86644 11.0667
      vertex 0.2 0.275276 1.85176
      vertex 8.17478 2.86644 12.5667
    endloop
  endfacet
  facet normal -0.309017 0.951056 0
    outer loop
      vertex 0.2 0.275276 1.85176
      vertex 8.17478 2.86644 11.0667
      vertex 0.2 0.275276 1.31997
    endloop
  endfacet
  facet normal 0.951054 0.309026 0
    outer loop
      vertex 8.17478 2.86644 12.5667
      vertex 8.29839 2.48602 12.5667
      vertex 8.17478 2.86644 11.0667
    endloop
  endfacet
  facet normal 0.951066 0.308989 0
    outer loop
      vertex 8.14388 2.96155 11.0667
      vertex 8.17478 2.86644 11.0667
      vertex 8.14388 2.96155 9.56665
    endloop
  endfacet
  facet normal 0.951056 0.309018 0
    outer loop
      vertex 8.11298 3.05665 9.56665
      vertex 8.14388 2.96155 9.56665
      vertex 8.11298 3.05665 8.06665
    endloop
  endfacet
  facet normal 0.951066 0.308989 0
    outer loop
      vertex 8.08208 3.15176 8.06665
      vertex 8.11298 3.05665 8.06665
      vertex 8.08208 3.15176 6.56665
    endloop
  endfacet
  facet normal 0.951056 0.309018 0
    outer loop
      vertex 8.08208 3.15176 6.56665
      vertex 8.05118 3.24686 0
      vertex 8.05118 3.24686 6.56665
    endloop
  endfacet
  facet normal 0.951056 0.309019 2.09212e-06
    outer loop
      vertex 8.3911 2.2007 6.56665
      vertex 8.08208 3.15176 6.56665
      vertex 8.11298 3.05665 8.06665
    endloop
  endfacet
  facet normal 0.951054 0.309026 5.55002e-07
    outer loop
      vertex 8.3602 2.29581 8.06665
      vertex 8.11298 3.05665 8.06665
      vertex 8.14388 2.96155 9.56665
    endloop
  endfacet
  facet normal 0.951058 0.309014 1.74337e-06
    outer loop
      vertex 8.32929 2.39091 9.56665
      vertex 8.14388 2.96155 9.56665
      vertex 8.17478 2.86644 11.0667
    endloop
  endfacet
  facet normal 0.951054 0.309026 -0
    outer loop
      vertex 8.29839 2.48602 11.0667
      vertex 8.17478 2.86644 11.0667
      vertex 8.29839 2.48602 12.5667
    endloop
  endfacet
  facet normal 0.951054 0.309026 -2.61509e-06
    outer loop
      vertex 8.32929 2.39091 9.56665
      vertex 8.17478 2.86644 11.0667
      vertex 8.29839 2.48602 11.0667
    endloop
  endfacet
  facet normal 0.951066 0.308989 -0
    outer loop
      vertex 8.32929 2.39091 9.56665
      vertex 8.29839 2.48602 11.0667
      vertex 8.32929 2.39091 11.0667
    endloop
  endfacet
  facet normal 0.951058 0.309014 6.65705e-06
    outer loop
      vertex 8.14388 2.96155 9.56665
      vertex 8.32929 2.39091 9.56665
      vertex 8.3602 2.29581 8.06665
    endloop
  endfacet
  facet normal 0.951027 0.309109 -0
    outer loop
      vertex 8.3602 2.29581 8.06665
      vertex 8.32929 2.39091 9.56665
      vertex 8.3602 2.29581 9.56665
    endloop
  endfacet
  facet normal 0.951054 0.309026 -2.61518e-06
    outer loop
      vertex 8.11298 3.05665 8.06665
      vertex 8.3602 2.29581 8.06665
      vertex 8.3911 2.2007 6.56665
    endloop
  endfacet
  facet normal 0.951066 0.308989 -0
    outer loop
      vertex 8.3911 2.2007 6.56665
      vertex 8.3602 2.29581 8.06665
      vertex 8.3911 2.2007 8.06665
    endloop
  endfacet
  facet normal 0.951056 0.309019 7.30963e-09
    outer loop
      vertex 8.08208 3.15176 6.56665
      vertex 8.3911 2.2007 6.56665
      vertex 8.05118 3.24686 0
    endloop
  endfacet
  facet normal 0.951056 0.309018 -0
    outer loop
      vertex 8.422 2.1056 0
      vertex 8.3911 2.2007 6.56665
      vertex 8.422 2.1056 6.56665
    endloop
  endfacet
  facet normal 0.951056 0.309019 -6.09142e-09
    outer loop
      vertex 8.3911 2.2007 6.56665
      vertex 8.422 2.1056 0
      vertex 8.05118 3.24686 0
    endloop
  endfacet
  facet normal -0.748785 -0.243944 0.616289
    outer loop
      vertex 0.2 0.275276 1.85176
      vertex 8.16549 2.75828 12.5126
      vertex 8.17478 2.86644 12.5667
    endloop
  endfacet
  facet normal -0.748972 -0.24336 0.616292
    outer loop
      vertex 8.16549 2.75828 12.5126
      vertex 0.2 0.275276 1.85176
      vertex 0.0999994 0.137637 1.67588
    endloop
  endfacet
  facet normal -0.749536 -0.243567 0.615525
    outer loop
      vertex 8.29839 2.48602 12.5667
      vertex 8.16549 2.75828 12.5126
      vertex 8.2273 2.56807 12.5126
    endloop
  endfacet
  facet normal -0.749494 -0.243533 0.615589
    outer loop
      vertex 8.16549 2.75828 12.5126
      vertex 8.29839 2.48602 12.5667
      vertex 8.17478 2.86644 12.5667
    endloop
  endfacet
  facet normal -0.748975 -0.243349 0.616293
    outer loop
      vertex 0.323606 -0.105146 1.85176
      vertex 8.2273 2.56807 12.5126
      vertex 0.161802 -0.0525728 1.67588
    endloop
  endfacet
  facet normal -0.749174 -0.242749 0.616289
    outer loop
      vertex 8.2273 2.56807 12.5126
      vertex 0.323606 -0.105146 1.85176
      vertex 8.29839 2.48602 12.5667
    endloop
  endfacet
  facet normal 0.309017 -0.951056 0
    outer loop
      vertex 0.323606 -0.105146 1.85176
      vertex 8.29839 2.48602 11.0667
      vertex 8.29839 2.48602 12.5667
    endloop
  endfacet
  facet normal 0.309017 -0.951056 0
    outer loop
      vertex 8.29839 2.48602 11.0667
      vertex 0.323606 -0.105146 1.85176
      vertex 0.323606 -0.105146 1.31997
    endloop
  endfacet
  facet normal -0.309017 0.951056 0
    outer loop
      vertex 8.14388 2.96155 9.56665
      vertex 0.299999 0.412914 1.47996
      vertex 8.14388 2.96155 11.0667
    endloop
  endfacet
  facet normal -0.309017 0.951056 0
    outer loop
      vertex 0.299999 0.412914 1.47996
      vertex 8.14388 2.96155 9.56665
      vertex 0.299999 0.412914 0.93228
    endloop
  endfacet
  facet normal -0.720974 -0.234235 0.652173
    outer loop
      vertex 0.299999 0.412914 1.47996
      vertex 8.17478 2.86644 11.0667
      vertex 8.14388 2.96155 11.0667
    endloop
  endfacet
  facet normal -0.72096 -0.234281 0.652173
    outer loop
      vertex 8.17478 2.86644 11.0667
      vertex 0.299999 0.412914 1.47996
      vertex 0.2 0.275276 1.31997
    endloop
  endfacet
  facet normal -0.720974 -0.234237 0.652173
    outer loop
      vertex 0.485409 -0.157719 1.47996
      vertex 8.29839 2.48602 11.0667
      vertex 0.323606 -0.105146 1.31997
    endloop
  endfacet
  facet normal -0.720974 -0.234235 0.652173
    outer loop
      vertex 8.29839 2.48602 11.0667
      vertex 0.485409 -0.157719 1.47996
      vertex 8.32929 2.39091 11.0667
    endloop
  endfacet
  facet normal 0.309017 -0.951057 0
    outer loop
      vertex 0.485409 -0.157719 1.47996
      vertex 8.32929 2.39091 9.56665
      vertex 8.32929 2.39091 11.0667
    endloop
  endfacet
  facet normal 0.309017 -0.951057 0
    outer loop
      vertex 8.32929 2.39091 9.56665
      vertex 0.485409 -0.157719 1.47996
      vertex 0.485409 -0.157719 0.93228
    endloop
  endfacet
  facet normal -0.309017 0.951057 0
    outer loop
      vertex 8.11298 3.05665 8.06665
      vertex 0.4 0.550552 1.07637
      vertex 8.11298 3.05665 9.56665
    endloop
  endfacet
  facet normal -0.309017 0.951057 0
    outer loop
      vertex 0.4 0.550552 1.07637
      vertex 8.11298 3.05665 8.06665
      vertex 0.4 0.550552 0.512803
    endloop
  endfacet
  facet normal -0.687727 -0.223457 0.690723
    outer loop
      vertex 0.4 0.550552 1.07637
      vertex 8.14388 2.96155 9.56665
      vertex 8.11298 3.05665 9.56665
    endloop
  endfacet
  facet normal -0.687737 -0.223426 0.690723
    outer loop
      vertex 8.14388 2.96155 9.56665
      vertex 0.4 0.550552 1.07637
      vertex 0.299999 0.412914 0.93228
    endloop
  endfacet
  facet normal -0.687706 -0.223522 0.690723
    outer loop
      vertex 8.32929 2.39091 9.56665
      vertex 0.647213 -0.210292 1.07637
      vertex 8.3602 2.29581 9.56665
    endloop
  endfacet
  facet normal -0.687718 -0.223485 0.690723
    outer loop
      vertex 0.647213 -0.210292 1.07637
      vertex 8.32929 2.39091 9.56665
      vertex 0.485409 -0.157719 0.93228
    endloop
  endfacet
  facet normal 0.309017 -0.951056 0
    outer loop
      vertex 0.647213 -0.210292 1.07637
      vertex 8.3602 2.29581 8.06665
      vertex 8.3602 2.29581 9.56665
    endloop
  endfacet
  facet normal 0.309017 -0.951056 0
    outer loop
      vertex 8.3602 2.29581 8.06665
      vertex 0.647213 -0.210292 1.07637
      vertex 0.647213 -0.210292 0.512803
    endloop
  endfacet
  facet normal -0.309017 0.951056 0
    outer loop
      vertex 8.08208 3.15176 6.56665
      vertex 0.5 0.688191 0.641005
      vertex 8.08208 3.15176 8.06665
    endloop
  endfacet
  facet normal -0.309017 0.951056 0
    outer loop
      vertex 0.5 0.688191 0.641005
      vertex 8.08208 3.15176 6.56665
      vertex 0.5 0.688191 0.0615411
    endloop
  endfacet
  facet normal -0.648223 -0.210599 0.731748
    outer loop
      vertex 0.5 0.688191 0.641005
      vertex 8.11298 3.05665 8.06665
      vertex 8.08208 3.15176 8.06665
    endloop
  endfacet
  facet normal -0.648215 -0.210624 0.731748
    outer loop
      vertex 8.11298 3.05665 8.06665
      vertex 0.5 0.688191 0.641005
      vertex 0.4 0.550552 0.512803
    endloop
  endfacet
  facet normal -0.648223 -0.210599 0.731748
    outer loop
      vertex 8.3602 2.29581 8.06665
      vertex 0.809017 -0.262866 0.641005
      vertex 8.3911 2.2007 8.06665
    endloop
  endfacet
  facet normal -0.648218 -0.210612 0.731748
    outer loop
      vertex 0.809017 -0.262866 0.641005
      vertex 8.3602 2.29581 8.06665
      vertex 0.647213 -0.210292 0.512803
    endloop
  endfacet
  facet normal 0.309017 -0.951057 0
    outer loop
      vertex 0.809017 -0.262866 0.641005
      vertex 8.3911 2.2007 6.56665
      vertex 8.3911 2.2007 8.06665
    endloop
  endfacet
  facet normal 0.309017 -0.951057 0
    outer loop
      vertex 8.3911 2.2007 6.56665
      vertex 0.809017 -0.262866 0.641005
      vertex 0.809017 -0.262866 0.0615411
    endloop
  endfacet
  facet normal -0.309017 0.951057 0
    outer loop
      vertex 8.05118 3.24686 0
      vertex 0.599999 0.825828 0.173849
      vertex 8.05118 3.24686 6.56665
    endloop
  endfacet
  facet normal -0.309017 0.951057 0
    outer loop
      vertex 0.599999 0.825828 0.173849
      vertex 8.05118 3.24686 0
      vertex 0.599999 0.825828 0
    endloop
  endfacet
  facet normal -0.601266 -0.195364 0.774798
    outer loop
      vertex 0.599999 0.825828 0.173849
      vertex 8.08208 3.15176 6.56665
      vertex 8.05118 3.24686 6.56665
    endloop
  endfacet
  facet normal -0.601265 -0.195369 0.774798
    outer loop
      vertex 8.08208 3.15176 6.56665
      vertex 0.599999 0.825828 0.173849
      vertex 0.5 0.688191 0.0615411
    endloop
  endfacet
  facet normal -0.601266 -0.195364 0.774798
    outer loop
      vertex 8.3911 2.2007 6.56665
      vertex 0.970819 -0.315438 0.173849
      vertex 8.422 2.1056 6.56665
    endloop
  endfacet
  facet normal -0.601268 -0.195359 0.774798
    outer loop
      vertex 0.970819 -0.315438 0.173849
      vertex 8.3911 2.2007 6.56665
      vertex 0.809017 -0.262866 0.0615411
    endloop
  endfacet
  facet normal 0.309017 -0.951056 0
    outer loop
      vertex 8.422 2.1056 0
      vertex 0.970819 -0.315438 0.173849
      vertex 0.970819 -0.315438 0
    endloop
  endfacet
  facet normal 0.309017 -0.951056 0
    outer loop
      vertex 0.970819 -0.315438 0.173849
      vertex 8.422 2.1056 0
      vertex 8.422 2.1056 6.56665
    endloop
  endfacet
  facet normal -1 0 0
    outer loop
      vertex -0.2 0.275276 1.85176
      vertex -0.2 8.66046 11.0667
      vertex -0.2 0.275276 1.31997
    endloop
  endfacet
  facet normal -1 -0 0
    outer loop
      vertex -0.2 8.66046 11.0667
      vertex -0.2 0.275276 1.85176
      vertex -0.2 8.66046 12.5667
    endloop
  endfacet
  facet normal 0 1 -0
    outer loop
      vertex 0.599999 8.66046 0
      vertex 0.5 8.66046 6.56665
      vertex 0.599999 8.66046 6.56665
    endloop
  endfacet
  facet normal 0 1 0
    outer loop
      vertex 0.5 8.66046 6.56665
      vertex 0.599999 8.66046 0
      vertex -0.5 8.66046 6.56665
    endloop
  endfacet
  facet normal 0 1 0
    outer loop
      vertex -0.599999 8.66046 0
      vertex -0.5 8.66046 6.56665
      vertex 0.599999 8.66046 0
    endloop
  endfacet
  facet normal 0 1 0
    outer loop
      vertex -0.5 8.66046 6.56665
      vertex -0.599999 8.66046 0
      vertex -0.599999 8.66046 6.56665
    endloop
  endfacet
  facet normal 0 1 -0
    outer loop
      vertex 0.5 8.66046 6.56665
      vertex 0.4 8.66046 8.06665
      vertex 0.5 8.66046 8.06665
    endloop
  endfacet
  facet normal 0 1 0
    outer loop
      vertex 0.4 8.66046 8.06665
      vertex 0.5 8.66046 6.56665
      vertex -0.4 8.66046 8.06665
    endloop
  endfacet
  facet normal 0 1 0
    outer loop
      vertex -0.5 8.66046 6.56665
      vertex -0.4 8.66046 8.06665
      vertex 0.5 8.66046 6.56665
    endloop
  endfacet
  facet normal 0 1 0
    outer loop
      vertex -0.4 8.66046 8.06665
      vertex -0.5 8.66046 6.56665
      vertex -0.5 8.66046 8.06665
    endloop
  endfacet
  facet normal 0 1 -0
    outer loop
      vertex 0.4 8.66046 8.06665
      vertex 0.299999 8.66046 9.56665
      vertex 0.4 8.66046 9.56665
    endloop
  endfacet
  facet normal 0 1 0
    outer loop
      vertex 0.299999 8.66046 9.56665
      vertex 0.4 8.66046 8.06665
      vertex -0.299999 8.66046 9.56665
    endloop
  endfacet
  facet normal 0 1 0
    outer loop
      vertex -0.4 8.66046 8.06665
      vertex -0.299999 8.66046 9.56665
      vertex 0.4 8.66046 8.06665
    endloop
  endfacet
  facet normal 0 1 0
    outer loop
      vertex -0.299999 8.66046 9.56665
      vertex -0.4 8.66046 8.06665
      vertex -0.4 8.66046 9.56665
    endloop
  endfacet
  facet normal 0 1 -0
    outer loop
      vertex 0.299999 8.66046 9.56665
      vertex 0.2 8.66046 11.0667
      vertex 0.299999 8.66046 11.0667
    endloop
  endfacet
  facet normal 0 1 0
    outer loop
      vertex 0.2 8.66046 11.0667
      vertex 0.299999 8.66046 9.56665
      vertex -0.2 8.66046 11.0667
    endloop
  endfacet
  facet normal 0 1 0
    outer loop
      vertex -0.299999 8.66046 9.56665
      vertex -0.2 8.66046 11.0667
      vertex 0.299999 8.66046 9.56665
    endloop
  endfacet
  facet normal 0 1 0
    outer loop
      vertex -0.2 8.66046 11.0667
      vertex -0.299999 8.66046 9.56665
      vertex -0.299999 8.66046 11.0667
    endloop
  endfacet
  facet normal 0 1 -0
    outer loop
      vertex 0.2 8.66046 11.0667
      vertex -0.2 8.66046 12.5667
      vertex 0.2 8.66046 12.5667
    endloop
  endfacet
  facet normal 0 1 0
    outer loop
      vertex -0.2 8.66046 12.5667
      vertex 0.2 8.66046 11.0667
      vertex -0.2 8.66046 11.0667
    endloop
  endfacet
  facet normal 0 -0.788064 0.615593
    outer loop
      vertex -0.2 8.66046 12.5667
      vertex 0.0999999 8.6182 12.5126
      vertex 0.2 8.66046 12.5667
    endloop
  endfacet
  facet normal 0 -0.788064 0.615593
    outer loop
      vertex -0.2 8.66046 12.5667
      vertex -0.0999999 8.6182 12.5126
      vertex 0.0999999 8.6182 12.5126
    endloop
  endfacet
  facet normal 0.000606419 -0.78752 0.616289
    outer loop
      vertex -0.2 0.275276 1.85176
      vertex -0.0999999 8.6182 12.5126
      vertex -0.2 8.66046 12.5667
    endloop
  endfacet
  facet normal 1.21922e-05 -0.787517 0.616293
    outer loop
      vertex -0.0999999 8.6182 12.5126
      vertex -0.2 0.275276 1.85176
      vertex -0.1 0.137638 1.67588
    endloop
  endfacet
  facet normal -0.000606419 -0.78752 0.616289
    outer loop
      vertex 0.0999999 8.6182 12.5126
      vertex 0.2 0.275276 1.85176
      vertex 0.2 8.66046 12.5667
    endloop
  endfacet
  facet normal -4.4448e-06 -0.787517 0.616293
    outer loop
      vertex 0.0999993 0.137637 1.67588
      vertex 0.2 0.275276 1.85176
      vertex 0.0999999 8.6182 12.5126
    endloop
  endfacet
  facet normal 0 -0.787519 0.616291
    outer loop
      vertex 0.2 0.275276 1.85176
      vertex 0.0999993 0.137637 1.67588
      vertex 0.0999994 0.137637 1.67588
    endloop
  endfacet
  facet normal 1 0 0
    outer loop
      vertex 0.2 0.275276 1.85176
      vertex 0.2 8.66046 11.0667
      vertex 0.2 8.66046 12.5667
    endloop
  endfacet
  facet normal 1 0 0
    outer loop
      vertex 0.2 8.66046 11.0667
      vertex 0.2 0.275276 1.85176
      vertex 0.2 0.275276 1.31997
    endloop
  endfacet
  facet normal -1 0 0
    outer loop
      vertex -0.299999 0.412914 1.47996
      vertex -0.299999 8.66046 9.56665
      vertex -0.299999 0.412914 0.93228
    endloop
  endfacet
  facet normal -1 -0 0
    outer loop
      vertex -0.299999 8.66046 9.56665
      vertex -0.299999 0.412914 1.47996
      vertex -0.299999 8.66046 11.0667
    endloop
  endfacet
  facet normal 0 -0.75807 0.652173
    outer loop
      vertex -0.299999 0.412914 1.47996
      vertex -0.2 8.66046 11.0667
      vertex -0.299999 8.66046 11.0667
    endloop
  endfacet
  facet normal 1.95723e-05 -0.75807 0.652173
    outer loop
      vertex -0.2 8.66046 11.0667
      vertex -0.299999 0.412914 1.47996
      vertex -0.2 0.275276 1.31997
    endloop
  endfacet
  facet normal 0 -0.75807 0.652173
    outer loop
      vertex 0.2 8.66046 11.0667
      vertex 0.299999 0.412914 1.47996
      vertex 0.299999 8.66046 11.0667
    endloop
  endfacet
  facet normal -1.95723e-05 -0.75807 0.652173
    outer loop
      vertex 0.299999 0.412914 1.47996
      vertex 0.2 8.66046 11.0667
      vertex 0.2 0.275276 1.31997
    endloop
  endfacet
  facet normal 1 0 0
    outer loop
      vertex 0.299999 0.412914 1.47996
      vertex 0.299999 8.66046 9.56665
      vertex 0.299999 8.66046 11.0667
    endloop
  endfacet
  facet normal 1 0 0
    outer loop
      vertex 0.299999 8.66046 9.56665
      vertex 0.299999 0.412914 1.47996
      vertex 0.299999 0.412914 0.93228
    endloop
  endfacet
  facet normal -1 0 0
    outer loop
      vertex -0.4 0.550552 1.07637
      vertex -0.4 8.66046 8.06665
      vertex -0.4 0.550552 0.512803
    endloop
  endfacet
  facet normal -1 -0 0
    outer loop
      vertex -0.4 8.66046 8.06665
      vertex -0.4 0.550552 1.07637
      vertex -0.4 8.66046 9.56665
    endloop
  endfacet
  facet normal 0 -0.723119 0.690723
    outer loop
      vertex -0.4 0.550552 1.07637
      vertex -0.299999 8.66046 9.56665
      vertex -0.4 8.66046 9.56665
    endloop
  endfacet
  facet normal -2.38807e-05 -0.723119 0.690723
    outer loop
      vertex -0.299999 8.66046 9.56665
      vertex -0.4 0.550552 1.07637
      vertex -0.299999 0.412914 0.93228
    endloop
  endfacet
  facet normal 0 -0.723119 0.690723
    outer loop
      vertex 0.299999 8.66046 9.56665
      vertex 0.4 0.550552 1.07637
      vertex 0.4 8.66046 9.56665
    endloop
  endfacet
  facet normal 2.38807e-05 -0.723119 0.690723
    outer loop
      vertex 0.4 0.550552 1.07637
      vertex 0.299999 8.66046 9.56665
      vertex 0.299999 0.412914 0.93228
    endloop
  endfacet
  facet normal 1 0 0
    outer loop
      vertex 0.4 0.550552 1.07637
      vertex 0.4 8.66046 8.06665
      vertex 0.4 8.66046 9.56665
    endloop
  endfacet
  facet normal 1 0 0
    outer loop
      vertex 0.4 8.66046 8.06665
      vertex 0.4 0.550552 1.07637
      vertex 0.4 0.550552 0.512803
    endloop
  endfacet
  facet normal -1 0 0
    outer loop
      vertex -0.5 0.688191 0.641005
      vertex -0.5 8.66046 6.56665
      vertex -0.5 0.688191 0.0615411
    endloop
  endfacet
  facet normal -1 -0 0
    outer loop
      vertex -0.5 8.66046 6.56665
      vertex -0.5 0.688191 0.641005
      vertex -0.5 8.66046 8.06665
    endloop
  endfacet
  facet normal 0 -0.681575 0.731748
    outer loop
      vertex -0.5 0.688191 0.641005
      vertex -0.4 8.66046 8.06665
      vertex -0.5 8.66046 8.06665
    endloop
  endfacet
  facet normal 2.23604e-06 -0.681575 0.731748
    outer loop
      vertex -0.4 8.66046 8.06665
      vertex -0.5 0.688191 0.641005
      vertex -0.4 0.550552 0.512803
    endloop
  endfacet
  facet normal 0 -0.681575 0.731748
    outer loop
      vertex 0.4 8.66046 8.06665
      vertex 0.5 0.688191 0.641005
      vertex 0.5 8.66046 8.06665
    endloop
  endfacet
  facet normal -2.23604e-06 -0.681575 0.731748
    outer loop
      vertex 0.5 0.688191 0.641005
      vertex 0.4 8.66046 8.06665
      vertex 0.4 0.550552 0.512803
    endloop
  endfacet
  facet normal 1 0 0
    outer loop
      vertex 0.5 0.688191 0.641005
      vertex 0.5 8.66046 6.56665
      vertex 0.5 8.66046 8.06665
    endloop
  endfacet
  facet normal 1 0 0
    outer loop
      vertex 0.5 8.66046 6.56665
      vertex 0.5 0.688191 0.641005
      vertex 0.5 0.688191 0.0615411
    endloop
  endfacet
  facet normal -1 0 0
    outer loop
      vertex -0.599999 0.825828 0.173849
      vertex -0.599999 8.66046 0
      vertex -0.599999 0.825828 0
    endloop
  endfacet
  facet normal -1 0 0
    outer loop
      vertex -0.599999 8.66046 0
      vertex -0.599999 0.825828 0.173849
      vertex -0.599999 8.66046 6.56665
    endloop
  endfacet
  facet normal 0 -0.632209 0.774798
    outer loop
      vertex -0.599999 0.825828 0.173849
      vertex -0.5 8.66046 6.56665
      vertex -0.599999 8.66046 6.56665
    endloop
  endfacet
  facet normal 4.97207e-06 -0.632209 0.774798
    outer loop
      vertex -0.5 8.66046 6.56665
      vertex -0.599999 0.825828 0.173849
      vertex -0.5 0.688191 0.0615411
    endloop
  endfacet
  facet normal 0 -0.632209 0.774798
    outer loop
      vertex 0.5 8.66046 6.56665
      vertex 0.599999 0.825828 0.173849
      vertex 0.599999 8.66046 6.56665
    endloop
  endfacet
  facet normal -4.97207e-06 -0.632209 0.774798
    outer loop
      vertex 0.599999 0.825828 0.173849
      vertex 0.5 8.66046 6.56665
      vertex 0.5 0.688191 0.0615411
    endloop
  endfacet
  facet normal 1 -0 0
    outer loop
      vertex 0.599999 0.825828 0.173849
      vertex 0.599999 8.66046 0
      vertex 0.599999 8.66046 6.56665
    endloop
  endfacet
  facet normal 1 0 0
    outer loop
      vertex 0.599999 8.66046 0
      vertex 0.599999 0.825828 0.173849
      vertex 0.599999 0.825828 0
    endloop
  endfacet
  facet normal -0.309017 -0.951056 0
    outer loop
      vertex -8.29839 2.48602 11.0667
      vertex -0.323606 -0.105146 1.85176
      vertex -8.29839 2.48602 12.5667
    endloop
  endfacet
  facet normal -0.309017 -0.951056 -0
    outer loop
      vertex -0.323606 -0.105146 1.85176
      vertex -8.29839 2.48602 11.0667
      vertex -0.323606 -0.105146 1.31997
    endloop
  endfacet
  facet normal -0.951056 0.309018 0
    outer loop
      vertex -8.05118 3.24686 0
      vertex -8.08208 3.15176 6.56665
      vertex -8.05118 3.24686 6.56665
    endloop
  endfacet
  facet normal -0.951066 0.308989 0
    outer loop
      vertex -8.08208 3.15176 6.56665
      vertex -8.11298 3.05665 8.06665
      vertex -8.08208 3.15176 8.06665
    endloop
  endfacet
  facet normal -0.951056 0.309019 7.30963e-09
    outer loop
      vertex -8.3911 2.2007 6.56665
      vertex -8.08208 3.15176 6.56665
      vertex -8.05118 3.24686 0
    endloop
  endfacet
  facet normal -0.951056 0.309018 0
    outer loop
      vertex -8.11298 3.05665 8.06665
      vertex -8.14388 2.96155 9.56665
      vertex -8.11298 3.05665 9.56665
    endloop
  endfacet
  facet normal -0.951056 0.309019 2.09212e-06
    outer loop
      vertex -8.08208 3.15176 6.56665
      vertex -8.3911 2.2007 6.56665
      vertex -8.11298 3.05665 8.06665
    endloop
  endfacet
  facet normal -0.951066 0.308989 0
    outer loop
      vertex -8.14388 2.96155 9.56665
      vertex -8.17478 2.86644 11.0667
      vertex -8.14388 2.96155 11.0667
    endloop
  endfacet
  facet normal -0.951054 0.309026 -2.61518e-06
    outer loop
      vertex -8.3602 2.29581 8.06665
      vertex -8.11298 3.05665 8.06665
      vertex -8.3911 2.2007 6.56665
    endloop
  endfacet
  facet normal -0.951054 0.309026 0
    outer loop
      vertex -8.17478 2.86644 11.0667
      vertex -8.29839 2.48602 11.0667
      vertex -8.17478 2.86644 12.5667
    endloop
  endfacet
  facet normal -0.951058 0.309014 6.65705e-06
    outer loop
      vertex -8.32929 2.39091 9.56665
      vertex -8.14388 2.96155 9.56665
      vertex -8.3602 2.29581 8.06665
    endloop
  endfacet
  facet normal -0.951054 0.309026 -2.61509e-06
    outer loop
      vertex -8.17478 2.86644 11.0667
      vertex -8.32929 2.39091 9.56665
      vertex -8.29839 2.48602 11.0667
    endloop
  endfacet
  facet normal -0.951058 0.309014 1.74337e-06
    outer loop
      vertex -8.14388 2.96155 9.56665
      vertex -8.32929 2.39091 9.56665
      vertex -8.17478 2.86644 11.0667
    endloop
  endfacet
  facet normal -0.951054 0.309026 5.55002e-07
    outer loop
      vertex -8.11298 3.05665 8.06665
      vertex -8.3602 2.29581 8.06665
      vertex -8.14388 2.96155 9.56665
    endloop
  endfacet
  facet normal -0.951056 0.309019 -6.09142e-09
    outer loop
      vertex -8.422 2.1056 0
      vertex -8.3911 2.2007 6.56665
      vertex -8.05118 3.24686 0
    endloop
  endfacet
  facet normal -0.951056 0.309018 0
    outer loop
      vertex -8.3911 2.2007 6.56665
      vertex -8.422 2.1056 0
      vertex -8.422 2.1056 6.56665
    endloop
  endfacet
  facet normal -0.951054 0.309026 0
    outer loop
      vertex -8.17478 2.86644 12.5667
      vertex -8.29839 2.48602 11.0667
      vertex -8.29839 2.48602 12.5667
    endloop
  endfacet
  facet normal -0.951066 0.308989 0
    outer loop
      vertex -8.29839 2.48602 11.0667
      vertex -8.32929 2.39091 9.56665
      vertex -8.32929 2.39091 11.0667
    endloop
  endfacet
  facet normal -0.951027 0.309109 0
    outer loop
      vertex -8.32929 2.39091 9.56665
      vertex -8.3602 2.29581 8.06665
      vertex -8.3602 2.29581 9.56665
    endloop
  endfacet
  facet normal -0.951066 0.308989 0
    outer loop
      vertex -8.3602 2.29581 8.06665
      vertex -8.3911 2.2007 6.56665
      vertex -8.3911 2.2007 8.06665
    endloop
  endfacet
  facet normal 0.749494 -0.243533 0.615589
    outer loop
      vertex -8.29839 2.48602 12.5667
      vertex -8.16549 2.75828 12.5126
      vertex -8.17478 2.86644 12.5667
    endloop
  endfacet
  facet normal 0.749509 -0.243545 0.615567
    outer loop
      vertex -8.16549 2.75828 12.5126
      vertex -8.29839 2.48602 12.5667
      vertex -8.2273 2.56806 12.5126
    endloop
  endfacet
  facet normal 0.749166 -0.242772 0.616289
    outer loop
      vertex -0.323606 -0.105146 1.85176
      vertex -8.2273 2.56806 12.5126
      vertex -8.29839 2.48602 12.5667
    endloop
  endfacet
  facet normal 0.74898 -0.243337 0.616293
    outer loop
      vertex -8.2273 2.56806 12.5126
      vertex -0.323606 -0.105146 1.85176
      vertex -0.161804 -0.0525732 1.67588
    endloop
  endfacet
  facet normal 0.748785 -0.243944 0.616289
    outer loop
      vertex -8.16549 2.75828 12.5126
      vertex -0.2 0.275276 1.85176
      vertex -8.17478 2.86644 12.5667
    endloop
  endfacet
  facet normal 0.748971 -0.243364 0.616292
    outer loop
      vertex -0.1 0.137637 1.67588
      vertex -0.2 0.275276 1.85176
      vertex -8.16549 2.75828 12.5126
    endloop
  endfacet
  facet normal 0.869312 0 0.494264
    outer loop
      vertex -0.2 0.275276 1.85176
      vertex -0.1 0.137637 1.67588
      vertex -0.1 0.137638 1.67588
    endloop
  endfacet
  facet normal 0.309017 0.951056 0
    outer loop
      vertex -0.2 0.275276 1.85176
      vertex -8.17478 2.86644 11.0667
      vertex -8.17478 2.86644 12.5667
    endloop
  endfacet
  facet normal 0.309017 0.951056 0
    outer loop
      vertex -8.17478 2.86644 11.0667
      vertex -0.2 0.275276 1.85176
      vertex -0.2 0.275276 1.31997
    endloop
  endfacet
  facet normal -0.309017 -0.951057 0
    outer loop
      vertex -8.32929 2.39091 9.56665
      vertex -0.485409 -0.157719 1.47996
      vertex -8.32929 2.39091 11.0667
    endloop
  endfacet
  facet normal -0.309017 -0.951057 -0
    outer loop
      vertex -0.485409 -0.157719 1.47996
      vertex -8.32929 2.39091 9.56665
      vertex -0.485409 -0.157719 0.93228
    endloop
  endfacet
  facet normal 0.720974 -0.234235 0.652173
    outer loop
      vertex -0.485409 -0.157719 1.47996
      vertex -8.29839 2.48602 11.0667
      vertex -8.32929 2.39091 11.0667
    endloop
  endfacet
  facet normal 0.720974 -0.234237 0.652173
    outer loop
      vertex -8.29839 2.48602 11.0667
      vertex -0.485409 -0.157719 1.47996
      vertex -0.323606 -0.105146 1.31997
    endloop
  endfacet
  facet normal 0.720974 -0.234235 0.652173
    outer loop
      vertex -8.17478 2.86644 11.0667
      vertex -0.299999 0.412914 1.47996
      vertex -8.14388 2.96155 11.0667
    endloop
  endfacet
  facet normal 0.72096 -0.234281 0.652173
    outer loop
      vertex -0.299999 0.412914 1.47996
      vertex -8.17478 2.86644 11.0667
      vertex -0.2 0.275276 1.31997
    endloop
  endfacet
  facet normal 0.309017 0.951056 0
    outer loop
      vertex -0.299999 0.412914 1.47996
      vertex -8.14388 2.96155 9.56665
      vertex -8.14388 2.96155 11.0667
    endloop
  endfacet
  facet normal 0.309017 0.951056 0
    outer loop
      vertex -8.14388 2.96155 9.56665
      vertex -0.299999 0.412914 1.47996
      vertex -0.299999 0.412914 0.93228
    endloop
  endfacet
  facet normal -0.309017 -0.951056 0
    outer loop
      vertex -8.3602 2.29581 8.06665
      vertex -0.647213 -0.210292 1.07637
      vertex -8.3602 2.29581 9.56665
    endloop
  endfacet
  facet normal -0.309017 -0.951056 -0
    outer loop
      vertex -0.647213 -0.210292 1.07637
      vertex -8.3602 2.29581 8.06665
      vertex -0.647213 -0.210292 0.512803
    endloop
  endfacet
  facet normal 0.687718 -0.223485 0.690723
    outer loop
      vertex -8.32929 2.39091 9.56665
      vertex -0.647213 -0.210292 1.07637
      vertex -0.485409 -0.157719 0.93228
    endloop
  endfacet
  facet normal 0.687706 -0.223522 0.690723
    outer loop
      vertex -0.647213 -0.210292 1.07637
      vertex -8.32929 2.39091 9.56665
      vertex -8.3602 2.29581 9.56665
    endloop
  endfacet
  facet normal 0.687727 -0.223457 0.690723
    outer loop
      vertex -8.14388 2.96155 9.56665
      vertex -0.4 0.550552 1.07637
      vertex -8.11298 3.05665 9.56665
    endloop
  endfacet
  facet normal 0.687737 -0.223426 0.690723
    outer loop
      vertex -0.4 0.550552 1.07637
      vertex -8.14388 2.96155 9.56665
      vertex -0.299999 0.412914 0.93228
    endloop
  endfacet
  facet normal 0.309017 0.951057 0
    outer loop
      vertex -0.4 0.550552 1.07637
      vertex -8.11298 3.05665 8.06665
      vertex -8.11298 3.05665 9.56665
    endloop
  endfacet
  facet normal 0.309017 0.951057 0
    outer loop
      vertex -8.11298 3.05665 8.06665
      vertex -0.4 0.550552 1.07637
      vertex -0.4 0.550552 0.512803
    endloop
  endfacet
  facet normal -0.309017 -0.951057 0
    outer loop
      vertex -8.3911 2.2007 6.56665
      vertex -0.809017 -0.262866 0.641005
      vertex -8.3911 2.2007 8.06665
    endloop
  endfacet
  facet normal -0.309017 -0.951057 -0
    outer loop
      vertex -0.809017 -0.262866 0.641005
      vertex -8.3911 2.2007 6.56665
      vertex -0.809017 -0.262866 0.0615411
    endloop
  endfacet
  facet normal 0.648218 -0.210612 0.731748
    outer loop
      vertex -8.3602 2.29581 8.06665
      vertex -0.809017 -0.262866 0.641005
      vertex -0.647213 -0.210292 0.512803
    endloop
  endfacet
  facet normal 0.648223 -0.210599 0.731748
    outer loop
      vertex -0.809017 -0.262866 0.641005
      vertex -8.3602 2.29581 8.06665
      vertex -8.3911 2.2007 8.06665
    endloop
  endfacet
  facet normal 0.648223 -0.210599 0.731748
    outer loop
      vertex -8.11298 3.05665 8.06665
      vertex -0.5 0.688191 0.641005
      vertex -8.08208 3.15176 8.06665
    endloop
  endfacet
  facet normal 0.648215 -0.210624 0.731748
    outer loop
      vertex -0.5 0.688191 0.641005
      vertex -8.11298 3.05665 8.06665
      vertex -0.4 0.550552 0.512803
    endloop
  endfacet
  facet normal 0.309017 0.951056 0
    outer loop
      vertex -0.5 0.688191 0.641005
      vertex -8.08208 3.15176 6.56665
      vertex -8.08208 3.15176 8.06665
    endloop
  endfacet
  facet normal 0.309017 0.951056 0
    outer loop
      vertex -8.08208 3.15176 6.56665
      vertex -0.5 0.688191 0.641005
      vertex -0.5 0.688191 0.0615411
    endloop
  endfacet
  facet normal -0.309017 -0.951056 0
    outer loop
      vertex -8.422 2.1056 0
      vertex -0.970819 -0.315438 0.173849
      vertex -8.422 2.1056 6.56665
    endloop
  endfacet
  facet normal -0.309017 -0.951056 -0
    outer loop
      vertex -0.970819 -0.315438 0.173849
      vertex -8.422 2.1056 0
      vertex -0.970819 -0.315438 0
    endloop
  endfacet
  facet normal 0.601268 -0.195359 0.774798
    outer loop
      vertex -8.3911 2.2007 6.56665
      vertex -0.970819 -0.315438 0.173849
      vertex -0.809017 -0.262866 0.0615411
    endloop
  endfacet
  facet normal 0.601266 -0.195364 0.774798
    outer loop
      vertex -0.970819 -0.315438 0.173849
      vertex -8.3911 2.2007 6.56665
      vertex -8.422 2.1056 6.56665
    endloop
  endfacet
  facet normal 0.601266 -0.195364 0.774798
    outer loop
      vertex -8.08208 3.15176 6.56665
      vertex -0.599999 0.825828 0.173849
      vertex -8.05118 3.24686 6.56665
    endloop
  endfacet
  facet normal 0.601265 -0.195369 0.774798
    outer loop
      vertex -0.599999 0.825828 0.173849
      vertex -8.08208 3.15176 6.56665
      vertex -0.5 0.688191 0.0615411
    endloop
  endfacet
  facet normal 0.309017 0.951057 0
    outer loop
      vertex -8.05118 3.24686 0
      vertex -0.599999 0.825828 0.173849
      vertex -0.599999 0.825828 0
    endloop
  endfacet
  facet normal 0.309017 0.951057 0
    outer loop
      vertex -0.599999 0.825828 0.173849
      vertex -8.05118 3.24686 0
      vertex -8.05118 3.24686 6.56665
    endloop
  endfacet
  facet normal 0.809017 -0.587785 0
    outer loop
      vertex -4.92869 -7.12402 11.0667
      vertex 2.58157e-19 -0.34026 1.85176
      vertex -4.92869 -7.12402 12.5667
    endloop
  endfacet
  facet normal 0.809017 -0.587785 -4.04558e-17
    outer loop
      vertex 2.58157e-19 -0.34026 1.85176
      vertex -4.92869 -7.12402 11.0667
      vertex -2.63346e-17 -0.34026 1.31997
    endloop
  endfacet
  facet normal 0 -1 -0
    outer loop
      vertex 2.58157e-19 -0.34026 1.85176
      vertex -2.63346e-17 -0.34026 1.31997
      vertex 2.58157e-19 -0.34026 1.31997
    endloop
  endfacet
  facet normal -0.587803 -0.809004 0
    outer loop
      vertex -5.5759 -6.65379 0
      vertex -5.495 -6.71257 6.56665
      vertex -5.5759 -6.65379 6.56665
    endloop
  endfacet
  facet normal -0.58778 -0.809021 -4.25423e-07
    outer loop
      vertex -5.495 -6.71257 6.56665
      vertex -5.5759 -6.65379 0
      vertex -4.68598 -7.30035 6.56665
    endloop
  endfacet
  facet normal -0.587784 -0.809018 3.54519e-07
    outer loop
      vertex -4.60508 -7.35913 0
      vertex -4.68598 -7.30035 6.56665
      vertex -5.5759 -6.65379 0
    endloop
  endfacet
  facet normal -0.587803 -0.809004 0
    outer loop
      vertex -4.68598 -7.30035 6.56665
      vertex -4.60508 -7.35913 0
      vertex -4.60508 -7.35913 6.56665
    endloop
  endfacet
  facet normal -0.587803 -0.809004 0
    outer loop
      vertex -5.495 -6.71257 6.56665
      vertex -5.4141 -6.77135 8.06665
      vertex -5.495 -6.71257 8.06665
    endloop
  endfacet
  facet normal -0.587775 -0.809025 -2.328e-06
    outer loop
      vertex -5.4141 -6.77135 8.06665
      vertex -5.495 -6.71257 6.56665
      vertex -4.76688 -7.24157 8.06665
    endloop
  endfacet
  facet normal -0.58778 -0.809021 1.8624e-06
    outer loop
      vertex -4.68598 -7.30035 6.56665
      vertex -4.76688 -7.24157 8.06665
      vertex -5.495 -6.71257 6.56665
    endloop
  endfacet
  facet normal -0.587803 -0.809004 0
    outer loop
      vertex -4.76688 -7.24157 8.06665
      vertex -4.68598 -7.30035 6.56665
      vertex -4.68598 -7.30035 8.06665
    endloop
  endfacet
  facet normal -0.587803 -0.809004 0
    outer loop
      vertex -5.4141 -6.77135 8.06665
      vertex -5.3332 -6.83013 9.56665
      vertex -5.4141 -6.77135 9.56665
    endloop
  endfacet
  facet normal -0.587784 -0.809018 -1.552e-06
    outer loop
      vertex -5.3332 -6.83013 9.56665
      vertex -5.4141 -6.77135 8.06665
      vertex -4.84779 -7.1828 9.56665
    endloop
  endfacet
  facet normal -0.587775 -0.809025 -6.984e-06
    outer loop
      vertex -4.76688 -7.24157 8.06665
      vertex -4.84779 -7.1828 9.56665
      vertex -5.4141 -6.77135 8.06665
    endloop
  endfacet
  facet normal -0.58769 -0.809086 0
    outer loop
      vertex -4.84779 -7.1828 9.56665
      vertex -4.76688 -7.24157 8.06665
      vertex -4.76688 -7.24157 9.56665
    endloop
  endfacet
  facet normal -0.58769 -0.809086 0
    outer loop
      vertex -5.3332 -6.83013 9.56665
      vertex -5.25229 -6.8889 11.0667
      vertex -5.3332 -6.83013 11.0667
    endloop
  endfacet
  facet normal -0.587803 -0.809004 9.31174e-06
    outer loop
      vertex -5.25229 -6.8889 11.0667
      vertex -5.3332 -6.83013 9.56665
      vertex -4.92869 -7.12402 11.0667
    endloop
  endfacet
  facet normal -0.587784 -0.809018 1.55195e-06
    outer loop
      vertex -4.84779 -7.1828 9.56665
      vertex -4.92869 -7.12402 11.0667
      vertex -5.3332 -6.83013 9.56665
    endloop
  endfacet
  facet normal -0.587803 -0.809004 0
    outer loop
      vertex -4.92869 -7.12402 11.0667
      vertex -4.84779 -7.1828 9.56665
      vertex -4.84779 -7.1828 11.0667
    endloop
  endfacet
  facet normal -0.587803 -0.809004 0
    outer loop
      vertex -5.25229 -6.8889 11.0667
      vertex -4.92869 -7.12402 12.5667
      vertex -5.25229 -6.8889 12.5667
    endloop
  endfacet
  facet normal -0.587803 -0.809004 -0
    outer loop
      vertex -4.92869 -7.12402 12.5667
      vertex -5.25229 -6.8889 11.0667
      vertex -4.92869 -7.12402 11.0667
    endloop
  endfacet
  facet normal 0.463223 0.637542 0.615601
    outer loop
      vertex -5.14655 -6.91349 12.5126
      vertex -4.92869 -7.12402 12.5667
      vertex -4.98475 -7.03105 12.5126
    endloop
  endfacet
  facet normal -0 0.844903 0.534919
    outer loop
      vertex -2.63346e-17 -0.34026 1.85176
      vertex -4.92869 -7.12402 12.5667
      vertex 2.58157e-19 -0.34026 1.85176
    endloop
  endfacet
  facet normal 0.462421 0.637459 0.616289
    outer loop
      vertex -4.92869 -7.12402 12.5667
      vertex -2.63346e-17 -0.34026 1.85176
      vertex -4.98475 -7.03105 12.5126
    endloop
  endfacet
  facet normal 0.832301 0.398425 0.385399
    outer loop
      vertex -4.78703e-07 -0.170129 1.67588
      vertex -2.63346e-17 -0.34026 1.85176
      vertex -1.31673e-17 -0.17013 1.67588
    endloop
  endfacet
  facet normal 0.462885 0.637119 0.616293
    outer loop
      vertex -2.63346e-17 -0.34026 1.85176
      vertex -4.78703e-07 -0.170129 1.67588
      vertex -4.98475 -7.03105 12.5126
    endloop
  endfacet
  facet normal 0.463223 0.637542 0.615601
    outer loop
      vertex -4.92869 -7.12402 12.5667
      vertex -5.14655 -6.91349 12.5126
      vertex -5.25229 -6.8889 12.5667
    endloop
  endfacet
  facet normal 0.463392 0.636755 0.616289
    outer loop
      vertex -5.14655 -6.91349 12.5126
      vertex -0.323606 -0.105146 1.85176
      vertex -5.25229 -6.8889 12.5667
    endloop
  endfacet
  facet normal 0.462906 0.637104 0.616292
    outer loop
      vertex -0.323606 -0.105146 1.85176
      vertex -5.14655 -6.91349 12.5126
      vertex -0.161804 -0.0525732 1.67588
    endloop
  endfacet
  facet normal -0.809017 0.587785 0
    outer loop
      vertex -5.25229 -6.8889 11.0667
      vertex -0.323606 -0.105146 1.85176
      vertex -0.323606 -0.105146 1.31997
    endloop
  endfacet
  facet normal -0.809017 0.587785 0
    outer loop
      vertex -0.323606 -0.105146 1.85176
      vertex -5.25229 -6.8889 11.0667
      vertex -5.25229 -6.8889 12.5667
    endloop
  endfacet
  facet normal 0.809017 -0.587785 0
    outer loop
      vertex -4.84779 -7.1828 9.56665
      vertex 3.87234e-19 -0.510389 1.47996
      vertex -4.84779 -7.1828 11.0667
    endloop
  endfacet
  facet normal 0.809017 -0.587785 -5.89231e-17
    outer loop
      vertex 3.87234e-19 -0.510389 1.47996
      vertex -4.84779 -7.1828 9.56665
      vertex -3.95019e-17 -0.510389 0.93228
    endloop
  endfacet
  facet normal 0 -1 -0
    outer loop
      vertex 3.87234e-19 -0.510389 1.47996
      vertex -3.95019e-17 -0.510389 0.93228
      vertex 3.87234e-19 -0.510389 0.93228
    endloop
  endfacet
  facet normal 0.445561 0.613307 0.652173
    outer loop
      vertex -4.92869 -7.12402 11.0667
      vertex -3.95019e-17 -0.510389 1.47996
      vertex -2.63346e-17 -0.34026 1.31997
    endloop
  endfacet
  facet normal 0.445596 0.613281 0.652174
    outer loop
      vertex -3.95019e-17 -0.510389 1.47996
      vertex -4.92869 -7.12402 11.0667
      vertex -4.84779 -7.1828 11.0667
    endloop
  endfacet
  facet normal 0 0.82077 0.571259
    outer loop
      vertex 3.87234e-19 -0.510389 1.47996
      vertex -3.95019e-17 -0.510389 1.47996
      vertex -4.84779 -7.1828 11.0667
    endloop
  endfacet
  facet normal 0.445599 0.61328 0.652173
    outer loop
      vertex -0.485409 -0.157719 1.47996
      vertex -5.25229 -6.8889 11.0667
      vertex -0.323606 -0.105146 1.31997
    endloop
  endfacet
  facet normal 0.44551 0.613344 0.652174
    outer loop
      vertex -5.25229 -6.8889 11.0667
      vertex -0.485409 -0.157719 1.47996
      vertex -5.3332 -6.83013 11.0667
    endloop
  endfacet
  facet normal -0.809017 0.587785 0
    outer loop
      vertex -5.3332 -6.83013 9.56665
      vertex -0.485409 -0.157719 1.47996
      vertex -0.485409 -0.157719 0.93228
    endloop
  endfacet
  facet normal -0.809017 0.587785 0
    outer loop
      vertex -0.485409 -0.157719 1.47996
      vertex -5.3332 -6.83013 9.56665
      vertex -5.3332 -6.83013 11.0667
    endloop
  endfacet
  facet normal 0.809017 -0.587785 0
    outer loop
      vertex -4.76688 -7.24157 8.06665
      vertex 5.16313e-19 -0.68052 1.07637
      vertex -4.76688 -7.24157 9.56665
    endloop
  endfacet
  facet normal 0.809017 -0.587785 -7.63494e-17
    outer loop
      vertex 5.16313e-19 -0.68052 1.07637
      vertex -4.76688 -7.24157 8.06665
      vertex -5.26692e-17 -0.68052 0.512803
    endloop
  endfacet
  facet normal 0 -1 -0
    outer loop
      vertex 5.16313e-19 -0.68052 1.07637
      vertex -5.26692e-17 -0.68052 0.512803
      vertex 5.16313e-19 -0.68052 0.512803
    endloop
  endfacet
  facet normal 0.425062 0.584998 0.690724
    outer loop
      vertex -4.84779 -7.1828 9.56665
      vertex -5.26692e-17 -0.68052 1.07637
      vertex -3.95019e-17 -0.510389 0.93228
    endloop
  endfacet
  facet normal 0.42497 0.585066 0.690723
    outer loop
      vertex -5.26692e-17 -0.68052 1.07637
      vertex -4.84779 -7.1828 9.56665
      vertex -4.76688 -7.24157 9.56665
    endloop
  endfacet
  facet normal 0 0.791268 0.61147
    outer loop
      vertex 5.16313e-19 -0.68052 1.07637
      vertex -5.26692e-17 -0.68052 1.07637
      vertex -4.76688 -7.24157 9.56665
    endloop
  endfacet
  facet normal 0.425017 0.585031 0.690724
    outer loop
      vertex -0.647213 -0.210292 1.07637
      vertex -5.3332 -6.83013 9.56665
      vertex -0.485409 -0.157719 0.93228
    endloop
  endfacet
  facet normal 0.425052 0.585006 0.690723
    outer loop
      vertex -5.3332 -6.83013 9.56665
      vertex -0.647213 -0.210292 1.07637
      vertex -5.4141 -6.77135 9.56665
    endloop
  endfacet
  facet normal -0.809017 0.587785 0
    outer loop
      vertex -5.4141 -6.77135 8.06665
      vertex -0.647213 -0.210292 1.07637
      vertex -0.647213 -0.210292 0.512803
    endloop
  endfacet
  facet normal -0.809017 0.587785 0
    outer loop
      vertex -0.647213 -0.210292 1.07637
      vertex -5.4141 -6.77135 8.06665
      vertex -5.4141 -6.77135 9.56665
    endloop
  endfacet
  facet normal 0.809017 -0.587785 0
    outer loop
      vertex -4.68598 -7.30035 6.56665
      vertex 6.45392e-19 -0.850651 0.641005
      vertex -4.68598 -7.30035 8.06665
    endloop
  endfacet
  facet normal 0.809017 -0.587785 -9.28187e-17
    outer loop
      vertex 6.45392e-19 -0.850651 0.641005
      vertex -4.68598 -7.30035 6.56665
      vertex -6.58366e-17 -0.850651 0.0615411
    endloop
  endfacet
  facet normal 0 -1 0
    outer loop
      vertex -6.58366e-17 -0.850651 0.0615411
      vertex 6.45392e-19 -0.850651 0.0615411
      vertex 6.45392e-19 -0.850651 0.641005
    endloop
  endfacet
  facet normal 0.400618 0.551408 0.731748
    outer loop
      vertex -4.76688 -7.24157 8.06665
      vertex -6.58366e-17 -0.850651 0.641005
      vertex -5.26692e-17 -0.68052 0.512803
    endloop
  endfacet
  facet normal 0.400632 0.551397 0.731748
    outer loop
      vertex -6.58366e-17 -0.850651 0.641005
      vertex -4.76688 -7.24157 8.06665
      vertex -4.68598 -7.30035 8.06665
    endloop
  endfacet
  facet normal 0 0.754977 0.655751
    outer loop
      vertex 6.45392e-19 -0.850651 0.641005
      vertex -6.58366e-17 -0.850651 0.641005
      vertex -4.68598 -7.30035 8.06665
    endloop
  endfacet
  facet normal 0.400621 0.551405 0.731748
    outer loop
      vertex -0.809017 -0.262866 0.641005
      vertex -5.4141 -6.77135 8.06665
      vertex -0.647213 -0.210292 0.512803
    endloop
  endfacet
  facet normal 0.400632 0.551397 0.731748
    outer loop
      vertex -5.4141 -6.77135 8.06665
      vertex -0.809017 -0.262866 0.641005
      vertex -5.495 -6.71257 8.06665
    endloop
  endfacet
  facet normal -0.809017 0.587785 0
    outer loop
      vertex -5.495 -6.71257 6.56665
      vertex -0.809017 -0.262866 0.641005
      vertex -0.809017 -0.262866 0.0615411
    endloop
  endfacet
  facet normal -0.809017 0.587785 0
    outer loop
      vertex -0.809017 -0.262866 0.641005
      vertex -5.495 -6.71257 6.56665
      vertex -5.495 -6.71257 8.06665
    endloop
  endfacet
  facet normal 0.809017 -0.587785 0
    outer loop
      vertex -4.60508 -7.35913 0
      vertex 7.7447e-19 -1.02078 0.173849
      vertex -4.60508 -7.35913 6.56665
    endloop
  endfacet
  facet normal 0.809017 -0.587785 0
    outer loop
      vertex 7.7447e-19 -1.02078 0.173849
      vertex -4.60508 -7.35913 0
      vertex 7.7447e-19 -1.02078 0
    endloop
  endfacet
  facet normal 0.371601 0.51147 0.774798
    outer loop
      vertex -4.68598 -7.30035 6.56665
      vertex -7.90038e-17 -1.02078 0.173849
      vertex -6.58366e-17 -0.850651 0.0615411
    endloop
  endfacet
  facet normal 0.371615 0.51146 0.774798
    outer loop
      vertex -7.90038e-17 -1.02078 0.173849
      vertex -4.68598 -7.30035 6.56665
      vertex -4.60508 -7.35913 6.56665
    endloop
  endfacet
  facet normal 0 0.710125 0.704076
    outer loop
      vertex 7.7447e-19 -1.02078 0.173849
      vertex -7.90038e-17 -1.02078 0.173849
      vertex -4.60508 -7.35913 6.56665
    endloop
  endfacet
  facet normal 0.37161 0.511463 0.774798
    outer loop
      vertex -0.970819 -0.315438 0.173849
      vertex -5.495 -6.71257 6.56665
      vertex -0.809017 -0.262866 0.0615411
    endloop
  endfacet
  facet normal 0.371614 0.51146 0.774798
    outer loop
      vertex -5.495 -6.71257 6.56665
      vertex -0.970819 -0.315438 0.173849
      vertex -5.5759 -6.65379 6.56665
    endloop
  endfacet
  facet normal -0.809017 0.587785 0
    outer loop
      vertex -5.5759 -6.65379 0
      vertex -0.970819 -0.315438 0.173849
      vertex -0.970819 -0.315438 0
    endloop
  endfacet
  facet normal -0.809017 0.587785 0
    outer loop
      vertex -0.970819 -0.315438 0.173849
      vertex -5.5759 -6.65379 0
      vertex -5.5759 -6.65379 6.56665
    endloop
  endfacet
  facet normal 0.809017 0.587785 -0
    outer loop
      vertex 5.25229 -6.8889 11.0667
      vertex 0.323606 -0.105146 1.85176
      vertex 5.25229 -6.8889 12.5667
    endloop
  endfacet
  facet normal 0.809017 0.587785 0
    outer loop
      vertex 0.323606 -0.105146 1.85176
      vertex 5.25229 -6.8889 11.0667
      vertex 0.323606 -0.105146 1.31997
    endloop
  endfacet
  facet normal 0.587803 -0.809004 0
    outer loop
      vertex 4.60508 -7.35913 0
      vertex 4.68598 -7.30035 6.56665
      vertex 4.60508 -7.35913 6.56665
    endloop
  endfacet
  facet normal 0.58778 -0.809021 4.25423e-07
    outer loop
      vertex 4.68598 -7.30035 6.56665
      vertex 4.60508 -7.35913 0
      vertex 5.495 -6.71257 6.56665
    endloop
  endfacet
  facet normal 0.587784 -0.809018 -3.54519e-07
    outer loop
      vertex 5.5759 -6.65379 0
      vertex 5.495 -6.71257 6.56665
      vertex 4.60508 -7.35913 0
    endloop
  endfacet
  facet normal 0.587803 -0.809004 0
    outer loop
      vertex 5.495 -6.71257 6.56665
      vertex 5.5759 -6.65379 0
      vertex 5.5759 -6.65379 6.56665
    endloop
  endfacet
  facet normal 0.587803 -0.809004 0
    outer loop
      vertex 4.68598 -7.30035 6.56665
      vertex 4.76688 -7.24157 8.06665
      vertex 4.68598 -7.30035 8.06665
    endloop
  endfacet
  facet normal 0.587775 -0.809025 2.328e-06
    outer loop
      vertex 4.76688 -7.24157 8.06665
      vertex 4.68598 -7.30035 6.56665
      vertex 5.4141 -6.77135 8.06665
    endloop
  endfacet
  facet normal 0.58778 -0.809021 -1.8624e-06
    outer loop
      vertex 5.495 -6.71257 6.56665
      vertex 5.4141 -6.77135 8.06665
      vertex 4.68598 -7.30035 6.56665
    endloop
  endfacet
  facet normal 0.587803 -0.809004 0
    outer loop
      vertex 5.4141 -6.77135 8.06665
      vertex 5.495 -6.71257 6.56665
      vertex 5.495 -6.71257 8.06665
    endloop
  endfacet
  facet normal 0.58769 -0.809086 0
    outer loop
      vertex 4.76688 -7.24157 8.06665
      vertex 4.84779 -7.1828 9.56665
      vertex 4.76688 -7.24157 9.56665
    endloop
  endfacet
  facet normal 0.587784 -0.809018 -7.76001e-06
    outer loop
      vertex 4.84779 -7.1828 9.56665
      vertex 4.76688 -7.24157 8.06665
      vertex 5.3332 -6.83013 9.56665
    endloop
  endfacet
  facet normal 0.587775 -0.809025 -2.328e-06
    outer loop
      vertex 5.4141 -6.77135 8.06665
      vertex 5.3332 -6.83013 9.56665
      vertex 4.76688 -7.24157 8.06665
    endloop
  endfacet
  facet normal 0.587803 -0.809004 0
    outer loop
      vertex 5.3332 -6.83013 9.56665
      vertex 5.4141 -6.77135 8.06665
      vertex 5.4141 -6.77135 9.56665
    endloop
  endfacet
  facet normal 0.587803 -0.809004 0
    outer loop
      vertex 4.84779 -7.1828 9.56665
      vertex 4.92869 -7.12402 11.0667
      vertex 4.84779 -7.1828 11.0667
    endloop
  endfacet
  facet normal 0.587803 -0.809004 4.1054e-16
    outer loop
      vertex 4.92869 -7.12402 11.0667
      vertex 4.84779 -7.1828 9.56665
      vertex 5.25229 -6.8889 11.0667
    endloop
  endfacet
  facet normal 0.587784 -0.809018 7.75975e-06
    outer loop
      vertex 5.3332 -6.83013 9.56665
      vertex 5.25229 -6.8889 11.0667
      vertex 4.84779 -7.1828 9.56665
    endloop
  endfacet
  facet normal 0.58769 -0.809086 0
    outer loop
      vertex 5.25229 -6.8889 11.0667
      vertex 5.3332 -6.83013 9.56665
      vertex 5.3332 -6.83013 11.0667
    endloop
  endfacet
  facet normal 0.587803 -0.809004 0
    outer loop
      vertex 4.92869 -7.12402 11.0667
      vertex 5.25229 -6.8889 12.5667
      vertex 4.92869 -7.12402 12.5667
    endloop
  endfacet
  facet normal 0.587803 -0.809004 0
    outer loop
      vertex 5.25229 -6.8889 12.5667
      vertex 4.92869 -7.12402 11.0667
      vertex 5.25229 -6.8889 11.0667
    endloop
  endfacet
  facet normal -0.463223 0.637542 0.615601
    outer loop
      vertex 5.25229 -6.8889 12.5667
      vertex 5.14655 -6.91349 12.5126
      vertex 4.92869 -7.12402 12.5667
    endloop
  endfacet
  facet normal -0.463392 0.636755 0.616289
    outer loop
      vertex 0.323606 -0.105146 1.85176
      vertex 5.14655 -6.91349 12.5126
      vertex 5.25229 -6.8889 12.5667
    endloop
  endfacet
  facet normal -0.735943 0 0.677044
    outer loop
      vertex 0.161802 -0.0525729 1.67588
      vertex 0.323606 -0.105146 1.85176
      vertex 0.161802 -0.0525728 1.67588
    endloop
  endfacet
  facet normal -0.462897 0.63711 0.616292
    outer loop
      vertex 0.323606 -0.105146 1.85176
      vertex 0.161802 -0.0525729 1.67588
      vertex 5.14655 -6.91349 12.5126
    endloop
  endfacet
  facet normal -0.463223 0.637542 0.615601
    outer loop
      vertex 4.98475 -7.03105 12.5126
      vertex 4.92869 -7.12402 12.5667
      vertex 5.14655 -6.91349 12.5126
    endloop
  endfacet
  facet normal -0.462421 0.637459 0.616289
    outer loop
      vertex 4.98475 -7.03105 12.5126
      vertex -2.63346e-17 -0.34026 1.85176
      vertex 4.92869 -7.12402 12.5667
    endloop
  endfacet
  facet normal -0.462881 0.637122 0.616293
    outer loop
      vertex -2.63346e-17 -0.34026 1.85176
      vertex 4.98475 -7.03105 12.5126
      vertex -1.31673e-17 -0.17013 1.67588
    endloop
  endfacet
  facet normal -0.809017 -0.587785 0
    outer loop
      vertex 4.92869 -7.12402 11.0667
      vertex -2.63346e-17 -0.34026 1.85176
      vertex 2.58157e-19 -0.34026 1.31997
    endloop
  endfacet
  facet normal -0.809017 -0.587785 0
    outer loop
      vertex -2.63346e-17 -0.34026 1.85176
      vertex 4.92869 -7.12402 11.0667
      vertex 4.92869 -7.12402 12.5667
    endloop
  endfacet
  facet normal -0 1 0
    outer loop
      vertex -2.63346e-17 -0.34026 1.85176
      vertex 2.58157e-19 -0.34026 1.85176
      vertex 2.58157e-19 -0.34026 1.31997
    endloop
  endfacet
  facet normal 0.809017 0.587785 -0
    outer loop
      vertex 5.3332 -6.83013 9.56665
      vertex 0.485409 -0.157719 1.47996
      vertex 5.3332 -6.83013 11.0667
    endloop
  endfacet
  facet normal 0.809017 0.587785 0
    outer loop
      vertex 0.485409 -0.157719 1.47996
      vertex 5.3332 -6.83013 9.56665
      vertex 0.485409 -0.157719 0.93228
    endloop
  endfacet
  facet normal -0.44551 0.613344 0.652174
    outer loop
      vertex 0.485409 -0.157719 1.47996
      vertex 5.25229 -6.8889 11.0667
      vertex 5.3332 -6.83013 11.0667
    endloop
  endfacet
  facet normal -0.445599 0.61328 0.652173
    outer loop
      vertex 5.25229 -6.8889 11.0667
      vertex 0.485409 -0.157719 1.47996
      vertex 0.323606 -0.105146 1.31997
    endloop
  endfacet
  facet normal -0.445561 0.613307 0.652173
    outer loop
      vertex -3.95019e-17 -0.510389 1.47996
      vertex 4.92869 -7.12402 11.0667
      vertex 2.58157e-19 -0.34026 1.31997
    endloop
  endfacet
  facet normal 0 0.685066 0.728481
    outer loop
      vertex -3.95019e-17 -0.510389 1.47996
      vertex 2.58157e-19 -0.34026 1.31997
      vertex -2.63346e-17 -0.34026 1.31997
    endloop
  endfacet
  facet normal -0.445596 0.613281 0.652174
    outer loop
      vertex 4.92869 -7.12402 11.0667
      vertex -3.95019e-17 -0.510389 1.47996
      vertex 4.84779 -7.1828 11.0667
    endloop
  endfacet
  facet normal -0.809017 -0.587785 0
    outer loop
      vertex 4.84779 -7.1828 9.56665
      vertex -3.95019e-17 -0.510389 1.47996
      vertex 3.87234e-19 -0.510389 0.93228
    endloop
  endfacet
  facet normal -0.809017 -0.587785 0
    outer loop
      vertex -3.95019e-17 -0.510389 1.47996
      vertex 4.84779 -7.1828 9.56665
      vertex 4.84779 -7.1828 11.0667
    endloop
  endfacet
  facet normal 0 1 -0
    outer loop
      vertex 3.87234e-19 -0.510389 0.93228
      vertex -3.95019e-17 -0.510389 1.47996
      vertex 3.87234e-19 -0.510389 1.47996
    endloop
  endfacet
  facet normal 0.809017 0.587785 -0
    outer loop
      vertex 5.4141 -6.77135 8.06665
      vertex 0.647213 -0.210292 1.07637
      vertex 5.4141 -6.77135 9.56665
    endloop
  endfacet
  facet normal 0.809017 0.587785 0
    outer loop
      vertex 0.647213 -0.210292 1.07637
      vertex 5.4141 -6.77135 8.06665
      vertex 0.647213 -0.210292 0.512803
    endloop
  endfacet
  facet normal -0.425052 0.585006 0.690723
    outer loop
      vertex 0.647213 -0.210292 1.07637
      vertex 5.3332 -6.83013 9.56665
      vertex 5.4141 -6.77135 9.56665
    endloop
  endfacet
  facet normal -0.425017 0.585031 0.690724
    outer loop
      vertex 5.3332 -6.83013 9.56665
      vertex 0.647213 -0.210292 1.07637
      vertex 0.485409 -0.157719 0.93228
    endloop
  endfacet
  facet normal -0.425062 0.584998 0.690724
    outer loop
      vertex -5.26692e-17 -0.68052 1.07637
      vertex 4.84779 -7.1828 9.56665
      vertex 3.87234e-19 -0.510389 0.93228
    endloop
  endfacet
  facet normal 0 0.64629 0.763092
    outer loop
      vertex -5.26692e-17 -0.68052 1.07637
      vertex 3.87234e-19 -0.510389 0.93228
      vertex -3.95019e-17 -0.510389 0.93228
    endloop
  endfacet
  facet normal -0.42497 0.585066 0.690723
    outer loop
      vertex 4.84779 -7.1828 9.56665
      vertex -5.26692e-17 -0.68052 1.07637
      vertex 4.76688 -7.24157 9.56665
    endloop
  endfacet
  facet normal -0.809017 -0.587785 0
    outer loop
      vertex 4.76688 -7.24157 8.06665
      vertex -5.26692e-17 -0.68052 1.07637
      vertex 5.16313e-19 -0.68052 0.512803
    endloop
  endfacet
  facet normal -0.809017 -0.587785 0
    outer loop
      vertex -5.26692e-17 -0.68052 1.07637
      vertex 4.76688 -7.24157 8.06665
      vertex 4.76688 -7.24157 9.56665
    endloop
  endfacet
  facet normal 0 1 -0
    outer loop
      vertex 5.16313e-19 -0.68052 0.512803
      vertex -5.26692e-17 -0.68052 1.07637
      vertex 5.16313e-19 -0.68052 1.07637
    endloop
  endfacet
  facet normal 0.809017 0.587785 -0
    outer loop
      vertex 5.495 -6.71257 6.56665
      vertex 0.809017 -0.262866 0.641005
      vertex 5.495 -6.71257 8.06665
    endloop
  endfacet
  facet normal 0.809017 0.587785 0
    outer loop
      vertex 0.809017 -0.262866 0.641005
      vertex 5.495 -6.71257 6.56665
      vertex 0.809017 -0.262866 0.0615411
    endloop
  endfacet
  facet normal -0.400632 0.551397 0.731748
    outer loop
      vertex 0.809017 -0.262866 0.641005
      vertex 5.4141 -6.77135 8.06665
      vertex 5.495 -6.71257 8.06665
    endloop
  endfacet
  facet normal -0.400621 0.551405 0.731748
    outer loop
      vertex 5.4141 -6.77135 8.06665
      vertex 0.809017 -0.262866 0.641005
      vertex 0.647213 -0.210292 0.512803
    endloop
  endfacet
  facet normal -0.400618 0.551408 0.731748
    outer loop
      vertex -6.58366e-17 -0.850651 0.641005
      vertex 4.76688 -7.24157 8.06665
      vertex 5.16313e-19 -0.68052 0.512803
    endloop
  endfacet
  facet normal 0 0.601812 0.798638
    outer loop
      vertex -6.58366e-17 -0.850651 0.641005
      vertex 5.16313e-19 -0.68052 0.512803
      vertex -5.26692e-17 -0.68052 0.512803
    endloop
  endfacet
  facet normal -0.400632 0.551397 0.731748
    outer loop
      vertex 4.76688 -7.24157 8.06665
      vertex -6.58366e-17 -0.850651 0.641005
      vertex 4.68598 -7.30035 8.06665
    endloop
  endfacet
  facet normal -0.809017 -0.587785 0
    outer loop
      vertex 4.68598 -7.30035 6.56665
      vertex -6.58366e-17 -0.850651 0.641005
      vertex 6.45392e-19 -0.850651 0.0615411
    endloop
  endfacet
  facet normal -0.809017 -0.587785 0
    outer loop
      vertex -6.58366e-17 -0.850651 0.641005
      vertex 4.68598 -7.30035 6.56665
      vertex 4.68598 -7.30035 8.06665
    endloop
  endfacet
  facet normal 0 1 -0
    outer loop
      vertex 6.45392e-19 -0.850651 0.0615411
      vertex -6.58366e-17 -0.850651 0.641005
      vertex 6.45392e-19 -0.850651 0.641005
    endloop
  endfacet
  facet normal 0.809017 0.587785 -0
    outer loop
      vertex 5.5759 -6.65379 0
      vertex 0.970819 -0.315438 0.173849
      vertex 5.5759 -6.65379 6.56665
    endloop
  endfacet
  facet normal 0.809017 0.587785 0
    outer loop
      vertex 0.970819 -0.315438 0.173849
      vertex 5.5759 -6.65379 0
      vertex 0.970819 -0.315438 0
    endloop
  endfacet
  facet normal -0.371614 0.51146 0.774798
    outer loop
      vertex 0.970819 -0.315438 0.173849
      vertex 5.495 -6.71257 6.56665
      vertex 5.5759 -6.65379 6.56665
    endloop
  endfacet
  facet normal -0.37161 0.511463 0.774798
    outer loop
      vertex 5.495 -6.71257 6.56665
      vertex 0.970819 -0.315438 0.173849
      vertex 0.809017 -0.262866 0.0615411
    endloop
  endfacet
  facet normal -0.371601 0.51147 0.774798
    outer loop
      vertex -7.90038e-17 -1.02078 0.173849
      vertex 4.68598 -7.30035 6.56665
      vertex 6.45392e-19 -0.850651 0.0615411
    endloop
  endfacet
  facet normal 0 0.55092 0.834558
    outer loop
      vertex -7.90038e-17 -1.02078 0.173849
      vertex 6.45392e-19 -0.850651 0.0615411
      vertex -6.58366e-17 -0.850651 0.0615411
    endloop
  endfacet
  facet normal -0.371615 0.51146 0.774798
    outer loop
      vertex 4.68598 -7.30035 6.56665
      vertex -7.90038e-17 -1.02078 0.173849
      vertex 4.60508 -7.35913 6.56665
    endloop
  endfacet
  facet normal -0.809017 -0.587785 0
    outer loop
      vertex 4.60508 -7.35913 0
      vertex -7.90038e-17 -1.02078 0.173849
      vertex 7.7447e-19 -1.02078 0
    endloop
  endfacet
  facet normal -0.809017 -0.587785 0
    outer loop
      vertex -7.90038e-17 -1.02078 0.173849
      vertex 4.60508 -7.35913 0
      vertex 4.60508 -7.35913 6.56665
    endloop
  endfacet
  facet normal 0 1 0
    outer loop
      vertex 7.7447e-19 -1.02078 0.173849
      vertex 7.7447e-19 -1.02078 0
      vertex -7.90038e-17 -1.02078 0.173849
    endloop
  endfacet
  facet normal 0 0 -1
    outer loop
      vertex 7.7447e-19 -1.02078 0
      vertex -0.970819 -0.315438 0
      vertex -0.599999 0.825828 0
    endloop
  endfacet
  facet normal 0 0 -1
    outer loop
      vertex -4.60508 -7.35913 0
      vertex -0.970819 -0.315438 0
      vertex 7.7447e-19 -1.02078 0
    endloop
  endfacet
  facet normal 0 0 -1
    outer loop
      vertex -0.970819 -0.315438 0
      vertex -4.60508 -7.35913 0
      vertex -5.5759 -6.65379 0
    endloop
  endfacet
  facet normal 0 0 -1
    outer loop
      vertex 4.60508 -7.35913 0
      vertex 0.970819 -0.315438 0
      vertex 5.5759 -6.65379 0
    endloop
  endfacet
  facet normal 0 0 -1
    outer loop
      vertex 7.7447e-19 -1.02078 0
      vertex 0.970819 -0.315438 0
      vertex 4.60508 -7.35913 0
    endloop
  endfacet
  facet normal 0 0 -1
    outer loop
      vertex 7.7447e-19 -1.02078 0
      vertex 0.599999 0.825828 0
      vertex 0.970819 -0.315438 0
    endloop
  endfacet
  facet normal 0 0 -1
    outer loop
      vertex -0.599999 0.825828 0
      vertex 0.599999 0.825828 0
      vertex 7.7447e-19 -1.02078 0
    endloop
  endfacet
  facet normal 0 0 -1
    outer loop
      vertex 0.599999 0.825828 0
      vertex -0.599999 0.825828 0
      vertex 0.599999 8.66046 0
    endloop
  endfacet
  facet normal -0 0 -1
    outer loop
      vertex 0.599999 8.66046 0
      vertex -0.599999 0.825828 0
      vertex -0.599999 8.66046 0
    endloop
  endfacet
  facet normal 0 0 -1
    outer loop
      vertex 0.970819 -0.315438 0
      vertex 8.05118 3.24686 0
      vertex 8.422 2.1056 0
    endloop
  endfacet
  facet normal 0 0 -1
    outer loop
      vertex 8.05118 3.24686 0
      vertex 0.970819 -0.315438 0
      vertex 0.599999 0.825828 0
    endloop
  endfacet
  facet normal 0 0 -1
    outer loop
      vertex -0.970819 -0.315438 0
      vertex -8.05118 3.24686 0
      vertex -0.599999 0.825828 0
    endloop
  endfacet
  facet normal 0 -0 -1
    outer loop
      vertex -8.05118 3.24686 0
      vertex -0.970819 -0.315438 0
      vertex -8.422 2.1056 0
    endloop
  endfacet
endsolid OpenSCAD_Model
