solid OpenSCAD_Model
  facet normal 0 0.982248 -0.187589
    outer loop
      vertex 3.9274 8.60195 15.432
      vertex -3.59553 8.79356 16.4353
      vertex 3.59553 8.79356 16.4353
    endloop
  endfacet
  facet normal 0 0.982248 -0.187589
    outer loop
      vertex 3.9274 8.60195 15.432
      vertex -3.9274 8.60195 15.432
      vertex -3.59553 8.79356 16.4353
    endloop
  endfacet
  facet normal 1.3023e-06 0.982246 -0.187597
    outer loop
      vertex 2.27472 7.02769 7.18925
      vertex 3.9274 8.60195 15.432
      vertex 5.81768 7.51058 9.71766
    endloop
  endfacet
  facet normal 0 0.982246 -0.187596
    outer loop
      vertex 3.9274 8.60195 15.432
      vertex 2.27472 7.02769 7.18925
      vertex -3.9274 8.60195 15.432
    endloop
  endfacet
  facet normal 0 0.982246 -0.187596
    outer loop
      vertex -2.27472 7.02769 7.18925
      vertex -3.9274 8.60195 15.432
      vertex 2.27472 7.02769 7.18925
    endloop
  endfacet
  facet normal -1.3023e-06 0.982246 -0.187597
    outer loop
      vertex -3.9274 8.60195 15.432
      vertex -2.27472 7.02769 7.18925
      vertex -5.81768 7.51058 9.71766
    endloop
  endfacet
  facet normal 0 0.982246 -0.187598
    outer loop
      vertex -2.27472 7.02769 7.18925
      vertex 2.27472 7.02769 7.18925
      vertex 0 6.71765 5.56591
    endloop
  endfacet
  facet normal 0 -0.982245 0.187603
    outer loop
      vertex -2.27472 -7.02769 18.9638
      vertex 2.27472 -7.02769 18.9638
      vertex 0 -6.71765 20.5871
    endloop
  endfacet
  facet normal 2.6329e-07 -0.982246 0.187595
    outer loop
      vertex -3.9274 -8.60195 10.721
      vertex -2.27472 -7.02769 18.9638
      vertex -5.81768 -7.51058 16.4354
    endloop
  endfacet
  facet normal 0 -0.982246 0.187595
    outer loop
      vertex -2.27472 -7.02769 18.9638
      vertex -3.9274 -8.60195 10.721
      vertex 2.27472 -7.02769 18.9638
    endloop
  endfacet
  facet normal 0 -0.982246 0.187595
    outer loop
      vertex 3.9274 -8.60195 10.721
      vertex 2.27472 -7.02769 18.9638
      vertex -3.9274 -8.60195 10.721
    endloop
  endfacet
  facet normal -2.6329e-07 -0.982246 0.187595
    outer loop
      vertex 2.27472 -7.02769 18.9638
      vertex 3.9274 -8.60195 10.721
      vertex 5.81768 -7.51058 16.4354
    endloop
  endfacet
  facet normal 0 -0.982248 0.187589
    outer loop
      vertex -3.59553 -8.79356 9.7177
      vertex 3.9274 -8.60195 10.721
      vertex -3.9274 -8.60195 10.721
    endloop
  endfacet
  facet normal 0 -0.982248 0.187589
    outer loop
      vertex 3.9274 -8.60195 10.721
      vertex -3.59553 -8.79356 9.7177
      vertex 3.59553 -8.79356 9.7177
    endloop
  endfacet
  facet normal -0.850651 0.491124 0.18759
    outer loop
      vertex -9.4132 0.279678 12.3443
      vertex -5.81768 7.51058 9.71766
      vertex -9.4132 1.28295 9.71767
    endloop
  endfacet
  facet normal -0.85065 0.491124 0.187593
    outer loop
      vertex -5.81768 7.51058 9.71766
      vertex -9.4132 0.279678 12.3443
      vertex -3.9274 8.60195 15.432
    endloop
  endfacet
  facet normal -0.85065 0.491124 0.187594
    outer loop
      vertex -3.9274 8.60195 15.432
      vertex -9.4132 0.279678 12.3443
      vertex -9.4132 -0.279678 13.8087
    endloop
  endfacet
  facet normal -0.850654 0.49112 0.187584
    outer loop
      vertex -6.35467 2.6656 19.967
      vertex -3.59553 8.79356 16.4353
      vertex -3.9274 8.60195 15.432
    endloop
  endfacet
  facet normal -0.850657 0.491118 0.187579
    outer loop
      vertex -3.59553 8.79356 16.4353
      vertex -6.35467 2.6656 19.967
      vertex -5.81769 3.35885 20.5871
    endloop
  endfacet
  facet normal -0.850651 0.491124 0.187591
    outer loop
      vertex -9.4132 -0.279678 13.8087
      vertex -6.35467 2.6656 19.967
      vertex -3.9274 8.60195 15.432
    endloop
  endfacet
  facet normal -0.850648 0.491129 0.187588
    outer loop
      vertex -6.35467 2.6656 19.967
      vertex -9.4132 -0.279678 13.8087
      vertex -9.4132 -1.28295 16.4354
    endloop
  endfacet
  facet normal 0.850651 -0.491125 -0.187591
    outer loop
      vertex 9.4132 0.279678 12.3443
      vertex 6.35467 -2.6656 6.18599
      vertex 9.4132 1.28295 9.71767
    endloop
  endfacet
  facet normal 0.850651 -0.491124 -0.187591
    outer loop
      vertex 3.9274 -8.60195 10.721
      vertex 6.35467 -2.6656 6.18599
      vertex 9.4132 0.279678 12.3443
    endloop
  endfacet
  facet normal 0.850654 -0.491121 -0.187584
    outer loop
      vertex 3.59553 -8.79356 9.7177
      vertex 6.35467 -2.6656 6.18599
      vertex 3.9274 -8.60195 10.721
    endloop
  endfacet
  facet normal 0.850654 -0.491121 -0.187586
    outer loop
      vertex 6.35467 -2.6656 6.18599
      vertex 3.59553 -8.79356 9.7177
      vertex 5.81769 -3.35885 5.56593
    endloop
  endfacet
  facet normal 0.850652 -0.491124 -0.187585
    outer loop
      vertex 5.81768 -7.51058 16.4354
      vertex 9.4132 -0.279678 13.8087
      vertex 9.4132 -1.28295 16.4354
    endloop
  endfacet
  facet normal 0.85065 -0.491125 -0.187591
    outer loop
      vertex 3.9274 -8.60195 10.721
      vertex 9.4132 -0.279678 13.8087
      vertex 5.81768 -7.51058 16.4354
    endloop
  endfacet
  facet normal 0.85065 -0.491124 -0.187594
    outer loop
      vertex 9.4132 -0.279678 13.8087
      vertex 3.9274 -8.60195 10.721
      vertex 9.4132 0.279678 12.3443
    endloop
  endfacet
  facet normal -0.525726 -0.303523 0.794661
    outer loop
      vertex -9.4132 -1.28295 16.4354
      vertex -2.27472 -7.02769 18.9638
      vertex -6.35467 2.6656 19.967
    endloop
  endfacet
  facet normal -0.525729 -0.30353 0.794656
    outer loop
      vertex -2.27472 -7.02769 18.9638
      vertex -9.4132 -1.28295 16.4354
      vertex -5.81768 -7.51058 16.4354
    endloop
  endfacet
  facet normal -0.525721 -0.303531 0.794661
    outer loop
      vertex 0 1.72911e-05 23.153
      vertex -2.27472 -7.02769 18.9638
      vertex 0 -6.71765 20.5871
    endloop
  endfacet
  facet normal -0.525737 -0.303562 0.794638
    outer loop
      vertex -6.35467 2.6656 19.967
      vertex 0 1.72911e-05 23.153
      vertex -5.81769 3.35885 20.5871
    endloop
  endfacet
  facet normal -0.525731 -0.303525 0.794657
    outer loop
      vertex 0 1.72911e-05 23.153
      vertex -6.35467 2.6656 19.967
      vertex -2.27472 -7.02769 18.9638
    endloop
  endfacet
  facet normal 0.525731 0.30353 -0.794655
    outer loop
      vertex 2.27472 7.02769 7.18925
      vertex 9.4132 1.28295 9.71767
      vertex 6.35467 -2.6656 6.18599
    endloop
  endfacet
  facet normal 0.525731 0.303529 -0.794655
    outer loop
      vertex 9.4132 1.28295 9.71767
      vertex 2.27472 7.02769 7.18925
      vertex 5.81768 7.51058 9.71766
    endloop
  endfacet
  facet normal 0.525694 0.303573 -0.794663
    outer loop
      vertex 5.81769 -3.35885 5.56593
      vertex 5.82154 -3.2456 5.61174
      vertex 6.35467 -2.6656 6.18599
    endloop
  endfacet
  facet normal 0.52566 0.303582 -0.794682
    outer loop
      vertex 5.82154 -3.2456 5.61174
      vertex 5.81769 -3.35885 5.56593
      vertex 5.77154 -3.33221 5.54558
    endloop
  endfacet
  facet normal 0.525732 0.303529 -0.794655
    outer loop
      vertex 2.48268 -1.3179 4.13911
      vertex 6.35467 -2.6656 6.18599
      vertex 5.82154 -3.2456 5.61174
    endloop
  endfacet
  facet normal 0.525732 0.30353 -0.794654
    outer loop
      vertex 2.48268 -1.3179 4.13911
      vertex 2.27472 7.02769 7.18925
      vertex 6.35467 -2.6656 6.18599
    endloop
  endfacet
  facet normal 0.525731 0.30353 -0.794655
    outer loop
      vertex 2.48268 -1.3179 4.13911
      vertex 0.0999994 2.8083 4.13883
      vertex 2.27472 7.02769 7.18925
    endloop
  endfacet
  facet normal 0.525731 0.30353 -0.794655
    outer loop
      vertex 0.0999994 2.8083 4.13883
      vertex 2.48268 -1.3179 4.13911
      vertex 0.0596852 0.0344594 3.05265
    endloop
  endfacet
  facet normal 0.525729 0.303532 -0.794655
    outer loop
      vertex 0.0999994 6.6644 5.61173
      vertex 2.27472 7.02769 7.18925
      vertex 0.0999994 2.8083 4.13883
    endloop
  endfacet
  facet normal 0.525742 0.303533 -0.794647
    outer loop
      vertex 0 6.71765 5.56591
      vertex 0.0999994 6.6644 5.61173
      vertex 0 6.6644 5.54557
    endloop
  endfacet
  facet normal 0.525736 0.303511 -0.794659
    outer loop
      vertex 0.0999994 6.6644 5.61173
      vertex 0 6.71765 5.56591
      vertex 2.27472 7.02769 7.18925
    endloop
  endfacet
  facet normal 0.525726 -0.303523 0.794661
    outer loop
      vertex 2.27472 -7.02769 18.9638
      vertex 9.4132 -1.28295 16.4354
      vertex 6.35467 2.6656 19.967
    endloop
  endfacet
  facet normal 0.525729 -0.30353 0.794656
    outer loop
      vertex 9.4132 -1.28295 16.4354
      vertex 2.27472 -7.02769 18.9638
      vertex 5.81768 -7.51058 16.4354
    endloop
  endfacet
  facet normal 0.525737 -0.303562 0.794638
    outer loop
      vertex 0 1.72911e-05 23.153
      vertex 6.35467 2.6656 19.967
      vertex 5.81769 3.35885 20.5871
    endloop
  endfacet
  facet normal 0.525731 -0.303525 0.794657
    outer loop
      vertex 6.35467 2.6656 19.967
      vertex 0 1.72911e-05 23.153
      vertex 2.27472 -7.02769 18.9638
    endloop
  endfacet
  facet normal 0.525721 -0.303531 0.794661
    outer loop
      vertex 2.27472 -7.02769 18.9638
      vertex 0 1.72911e-05 23.153
      vertex 0 -6.71765 20.5871
    endloop
  endfacet
  facet normal -0.52566 0.303582 -0.794682
    outer loop
      vertex -5.81769 -3.35885 5.56593
      vertex -5.82154 -3.2456 5.61174
      vertex -5.77154 -3.33221 5.54558
    endloop
  endfacet
  facet normal -0.525694 0.303573 -0.794663
    outer loop
      vertex -5.82154 -3.2456 5.61174
      vertex -5.81769 -3.35885 5.56593
      vertex -6.35467 -2.6656 6.18599
    endloop
  endfacet
  facet normal -0.525729 0.303532 -0.794655
    outer loop
      vertex -0.0999994 2.8083 4.13883
      vertex -2.27472 7.02769 7.18925
      vertex -0.0999994 6.6644 5.61173
    endloop
  endfacet
  facet normal -0.525731 0.30353 -0.794655
    outer loop
      vertex -2.48268 -1.3179 4.13911
      vertex -0.0999994 2.8083 4.13883
      vertex -0.0596852 0.0344594 3.05265
    endloop
  endfacet
  facet normal -0.525731 0.30353 -0.794655
    outer loop
      vertex -0.0999994 2.8083 4.13883
      vertex -2.48268 -1.3179 4.13911
      vertex -2.27472 7.02769 7.18925
    endloop
  endfacet
  facet normal -0.525732 0.303529 -0.794655
    outer loop
      vertex -6.35467 -2.6656 6.18599
      vertex -2.48268 -1.3179 4.13911
      vertex -5.82154 -3.2456 5.61174
    endloop
  endfacet
  facet normal -0.525732 0.30353 -0.794654
    outer loop
      vertex -2.48268 -1.3179 4.13911
      vertex -6.35467 -2.6656 6.18599
      vertex -2.27472 7.02769 7.18925
    endloop
  endfacet
  facet normal -0.525742 0.303533 -0.794647
    outer loop
      vertex -0.0999994 6.6644 5.61173
      vertex 0 6.71765 5.56591
      vertex 0 6.6644 5.54557
    endloop
  endfacet
  facet normal -0.525736 0.303511 -0.794659
    outer loop
      vertex 0 6.71765 5.56591
      vertex -0.0999994 6.6644 5.61173
      vertex -2.27472 7.02769 7.18925
    endloop
  endfacet
  facet normal -0.525731 0.30353 -0.794655
    outer loop
      vertex -9.4132 1.28295 9.71767
      vertex -2.27472 7.02769 7.18925
      vertex -6.35467 -2.6656 6.18599
    endloop
  endfacet
  facet normal -0.525731 0.303529 -0.794655
    outer loop
      vertex -2.27472 7.02769 7.18925
      vertex -9.4132 1.28295 9.71767
      vertex -5.81768 7.51058 9.71766
    endloop
  endfacet
  facet normal 0.85065 0.491124 0.187593
    outer loop
      vertex 9.4132 0.279678 12.3443
      vertex 5.81768 7.51058 9.71766
      vertex 3.9274 8.60195 15.432
    endloop
  endfacet
  facet normal 0.850651 0.491124 0.18759
    outer loop
      vertex 5.81768 7.51058 9.71766
      vertex 9.4132 0.279678 12.3443
      vertex 9.4132 1.28295 9.71767
    endloop
  endfacet
  facet normal 0.85065 0.491124 0.187594
    outer loop
      vertex 9.4132 0.279678 12.3443
      vertex 3.9274 8.60195 15.432
      vertex 9.4132 -0.279678 13.8087
    endloop
  endfacet
  facet normal 0.850657 0.491118 0.187579
    outer loop
      vertex 6.35467 2.6656 19.967
      vertex 3.59553 8.79356 16.4353
      vertex 5.81769 3.35885 20.5871
    endloop
  endfacet
  facet normal 0.850654 0.49112 0.187584
    outer loop
      vertex 3.59553 8.79356 16.4353
      vertex 6.35467 2.6656 19.967
      vertex 3.9274 8.60195 15.432
    endloop
  endfacet
  facet normal 0.850651 0.491124 0.187591
    outer loop
      vertex 6.35467 2.6656 19.967
      vertex 9.4132 -0.279678 13.8087
      vertex 3.9274 8.60195 15.432
    endloop
  endfacet
  facet normal 0.850648 0.491129 0.187588
    outer loop
      vertex 9.4132 -0.279678 13.8087
      vertex 6.35467 2.6656 19.967
      vertex 9.4132 -1.28295 16.4354
    endloop
  endfacet
  facet normal -0.850651 -0.491125 -0.187591
    outer loop
      vertex -6.35467 -2.6656 6.18599
      vertex -9.4132 0.279678 12.3443
      vertex -9.4132 1.28295 9.71767
    endloop
  endfacet
  facet normal -0.850654 -0.491121 -0.187586
    outer loop
      vertex -3.59553 -8.79356 9.7177
      vertex -6.35467 -2.6656 6.18599
      vertex -5.81769 -3.35885 5.56593
    endloop
  endfacet
  facet normal -0.850651 -0.491124 -0.187591
    outer loop
      vertex -6.35467 -2.6656 6.18599
      vertex -3.9274 -8.60195 10.721
      vertex -9.4132 0.279678 12.3443
    endloop
  endfacet
  facet normal -0.850654 -0.491121 -0.187584
    outer loop
      vertex -6.35467 -2.6656 6.18599
      vertex -3.59553 -8.79356 9.7177
      vertex -3.9274 -8.60195 10.721
    endloop
  endfacet
  facet normal -0.85065 -0.491124 -0.187594
    outer loop
      vertex -3.9274 -8.60195 10.721
      vertex -9.4132 -0.279678 13.8087
      vertex -9.4132 0.279678 12.3443
    endloop
  endfacet
  facet normal -0.850652 -0.491124 -0.187585
    outer loop
      vertex -9.4132 -0.279678 13.8087
      vertex -5.81768 -7.51058 16.4354
      vertex -9.4132 -1.28295 16.4354
    endloop
  endfacet
  facet normal -0.85065 -0.491125 -0.187591
    outer loop
      vertex -9.4132 -0.279678 13.8087
      vertex -3.9274 -8.60195 10.721
      vertex -5.81768 -7.51058 16.4354
    endloop
  endfacet
  facet normal -1.93141e-05 -0.607061 -0.794655
    outer loop
      vertex 5.81769 -3.35885 5.56593
      vertex 5.72154 -3.4188 5.61173
      vertex 5.77154 -3.33221 5.54558
    endloop
  endfacet
  facet normal -2.26694e-05 -0.607058 -0.794657
    outer loop
      vertex 3.59553 -8.79356 9.7177
      vertex 5.72154 -3.4188 5.61173
      vertex 5.81769 -3.35885 5.56593
    endloop
  endfacet
  facet normal 1.7937e-06 -0.607064 -0.794653
    outer loop
      vertex 3.59553 -8.79356 9.7177
      vertex 2.38114 -1.49022 4.13841
      vertex 5.72154 -3.4188 5.61173
    endloop
  endfacet
  facet normal 0 -0.607064 -0.794653
    outer loop
      vertex -2.38114 -1.49022 4.13841
      vertex 2.38114 -1.49022 4.13841
      vertex 3.59553 -8.79356 9.7177
    endloop
  endfacet
  facet normal -0 -0.60706 -0.794656
    outer loop
      vertex 2.38114 -1.49022 4.13841
      vertex -2.38114 -1.49022 4.13841
      vertex 0.707108 -0.491016 3.37509
    endloop
  endfacet
  facet normal -0 -0.607065 -0.794652
    outer loop
      vertex 0.707108 -0.491016 3.37509
      vertex -0.707108 -0.491016 3.37509
      vertex 0 -0.0689532 3.05266
    endloop
  endfacet
  facet normal -0 -0.60706 -0.794656
    outer loop
      vertex 0.707108 -0.491016 3.37509
      vertex -2.38114 -1.49022 4.13841
      vertex -0.707108 -0.491016 3.37509
    endloop
  endfacet
  facet normal 0 -0.607064 -0.794653
    outer loop
      vertex -3.59553 -8.79356 9.7177
      vertex -2.38114 -1.49022 4.13841
      vertex 3.59553 -8.79356 9.7177
    endloop
  endfacet
  facet normal -1.7937e-06 -0.607064 -0.794653
    outer loop
      vertex -3.59553 -8.79356 9.7177
      vertex -5.72154 -3.4188 5.61173
      vertex -2.38114 -1.49022 4.13841
    endloop
  endfacet
  facet normal 2.26694e-05 -0.607058 -0.794657
    outer loop
      vertex -5.81769 -3.35885 5.56593
      vertex -5.72154 -3.4188 5.61173
      vertex -3.59553 -8.79356 9.7177
    endloop
  endfacet
  facet normal 1.93141e-05 -0.607061 -0.794655
    outer loop
      vertex -5.72154 -3.4188 5.61173
      vertex -5.81769 -3.35885 5.56593
      vertex -5.77154 -3.33221 5.54558
    endloop
  endfacet
  facet normal -5.67811e-06 0.607065 0.794652
    outer loop
      vertex 3.59553 8.79356 16.4353
      vertex 0 1.72911e-05 23.153
      vertex 5.81769 3.35885 20.5871
    endloop
  endfacet
  facet normal -0 0.607064 0.794653
    outer loop
      vertex -3.59553 8.79356 16.4353
      vertex 0 1.72911e-05 23.153
      vertex 3.59553 8.79356 16.4353
    endloop
  endfacet
  facet normal 5.67811e-06 0.607065 0.794652
    outer loop
      vertex 0 1.72911e-05 23.153
      vertex -3.59553 8.79356 16.4353
      vertex -5.81769 3.35885 20.5871
    endloop
  endfacet
  facet normal -1 0 0
    outer loop
      vertex -0.0999994 6.6644 3.03905
      vertex -0.0999994 2.8083 4.13883
      vertex -0.0999994 6.6644 5.61173
    endloop
  endfacet
  facet normal -1 0 0
    outer loop
      vertex -0.0999994 0.0577355 1.51333
      vertex -0.0999994 2.8083 4.13883
      vertex -0.0999994 6.6644 3.03905
    endloop
  endfacet
  facet normal -1 0 0
    outer loop
      vertex -0.0999994 0.0577355 3.06177
      vertex -0.0999994 2.8083 4.13883
      vertex -0.0999994 0.0577355 1.51333
    endloop
  endfacet
  facet normal -1 0 0
    outer loop
      vertex -0.0999994 2.8083 4.13883
      vertex -0.0999994 0.0577355 3.06177
      vertex -0.0999994 0.0577347 3.06177
    endloop
  endfacet
  facet normal 0 1 0
    outer loop
      vertex 0.0999994 6.6644 5.61173
      vertex 0.0999994 6.6644 3.03905
      vertex 0 6.6644 5.54557
    endloop
  endfacet
  facet normal 0 1 0
    outer loop
      vertex -0.0999994 6.6644 3.03905
      vertex 0 6.6644 5.54557
      vertex 0.0999994 6.6644 3.03905
    endloop
  endfacet
  facet normal 0 1 0
    outer loop
      vertex 0 6.6644 5.54557
      vertex -0.0999994 6.6644 3.03905
      vertex -0.0999994 6.6644 5.61173
    endloop
  endfacet
  facet normal -0.000136549 -0.36462 0.931156
    outer loop
      vertex 0.0999994 2.8083 4.13883
      vertex 0.0596852 0.0344594 3.05265
      vertex 0.0999994 0.0577347 3.06177
    endloop
  endfacet
  facet normal 0.000136549 -0.36462 0.931156
    outer loop
      vertex -0.0999994 2.8083 4.13883
      vertex -0.0999994 0.0577347 3.06177
      vertex -0.0596852 0.0344594 3.05265
    endloop
  endfacet
  facet normal 1 0 0
    outer loop
      vertex 0.0999994 2.8083 4.13883
      vertex 0.0999994 0.0577347 3.06177
      vertex 0.0999994 0.0577355 3.06177
    endloop
  endfacet
  facet normal 1 -0 0
    outer loop
      vertex 0.0999994 2.8083 4.13883
      vertex 0.0999994 6.6644 3.03905
      vertex 0.0999994 6.6644 5.61173
    endloop
  endfacet
  facet normal 1 0 0
    outer loop
      vertex 0.0999994 0.0577355 1.51333
      vertex 0.0999994 2.8083 4.13883
      vertex 0.0999994 0.0577355 3.06177
    endloop
  endfacet
  facet normal 1 0 0
    outer loop
      vertex 0.0999994 2.8083 4.13883
      vertex 0.0999994 0.0577355 1.51333
      vertex 0.0999994 6.6644 3.03905
    endloop
  endfacet
  facet normal 0.5 -0.866025 0
    outer loop
      vertex -5.72154 -3.4188 3.03905
      vertex -2.38114 -1.49022 4.13841
      vertex -5.72154 -3.4188 5.61173
    endloop
  endfacet
  facet normal 0.5 -0.866026 5.6343e-08
    outer loop
      vertex 0 -0.115469 1.51333
      vertex -2.38114 -1.49022 4.13841
      vertex -5.72154 -3.4188 3.03905
    endloop
  endfacet
  facet normal 0.5 -0.866026 0
    outer loop
      vertex -2.38114 -1.49022 4.13841
      vertex 0 -0.115469 1.51333
      vertex 0 -0.115469 3.06177
    endloop
  endfacet
  facet normal -0.499998 0.866026 -2.9973e-08
    outer loop
      vertex -0.1 0.0577351 1.51333
      vertex -2.48268 -1.3179 4.13911
      vertex -0.0999994 0.0577355 3.06177
    endloop
  endfacet
  facet normal -0.500002 0.866024 0
    outer loop
      vertex -2.48268 -1.3179 4.13911
      vertex -5.82154 -3.2456 3.03905
      vertex -5.82154 -3.2456 5.61174
    endloop
  endfacet
  facet normal -0.5547 0.83205 0
    outer loop
      vertex -0.1 0.0577351 1.51333
      vertex -0.0999994 0.0577355 3.06177
      vertex -0.0999994 0.0577355 1.51333
    endloop
  endfacet
  facet normal -0.500001 0.866025 -2.98297e-06
    outer loop
      vertex -2.48268 -1.3179 4.13911
      vertex -0.1 0.0577351 1.51333
      vertex -5.82154 -3.2456 3.03905
    endloop
  endfacet
  facet normal -0.866044 -0.499968 0
    outer loop
      vertex -5.82154 -3.2456 3.03905
      vertex -5.77154 -3.33221 5.54558
      vertex -5.82154 -3.2456 5.61174
    endloop
  endfacet
  facet normal -0.866019 -0.500011 -1.99483e-06
    outer loop
      vertex -5.72154 -3.4188 3.03905
      vertex -5.77154 -3.33221 5.54558
      vertex -5.82154 -3.2456 3.03905
    endloop
  endfacet
  facet normal -0.865994 -0.500054 0
    outer loop
      vertex -5.77154 -3.33221 5.54558
      vertex -5.72154 -3.4188 3.03905
      vertex -5.72154 -3.4188 5.61173
    endloop
  endfacet
  facet normal 0.315441 0.182923 0.931148
    outer loop
      vertex -0.707108 -0.491016 3.37509
      vertex 0 -0.115469 3.06177
      vertex 0 -0.110175 3.06073
    endloop
  endfacet
  facet normal 0.315794 0.182267 0.931157
    outer loop
      vertex 0 -0.115469 3.06177
      vertex -0.707108 -0.491016 3.37509
      vertex -2.38114 -1.49022 4.13841
    endloop
  endfacet
  facet normal 0.315784 0.182292 0.931155
    outer loop
      vertex 0 -0.0689532 3.05266
      vertex -0.707108 -0.491016 3.37509
      vertex 0 -0.110175 3.06073
    endloop
  endfacet
  facet normal 0.411997 0 0.911185
    outer loop
      vertex -0.0999994 0.0577355 3.06177
      vertex -2.48268 -1.3179 4.13911
      vertex -0.0999994 0.0577347 3.06177
    endloop
  endfacet
  facet normal 0.315838 0.182193 0.931156
    outer loop
      vertex -0.0596852 0.0344594 3.05265
      vertex -0.0999994 0.0577347 3.06177
      vertex -2.48268 -1.3179 4.13911
    endloop
  endfacet
  facet normal 0.500002 0.866024 -0
    outer loop
      vertex 5.82154 -3.2456 3.03905
      vertex 2.48268 -1.3179 4.13911
      vertex 5.82154 -3.2456 5.61174
    endloop
  endfacet
  facet normal 0.500001 0.866025 -2.98297e-06
    outer loop
      vertex 0.1 0.0577351 1.51333
      vertex 2.48268 -1.3179 4.13911
      vertex 5.82154 -3.2456 3.03905
    endloop
  endfacet
  facet normal 0.499998 0.866026 -2.9973e-08
    outer loop
      vertex 2.48268 -1.3179 4.13911
      vertex 0.1 0.0577351 1.51333
      vertex 0.0999994 0.0577355 3.06177
    endloop
  endfacet
  facet normal 0.5547 0.83205 0
    outer loop
      vertex 0.0999994 0.0577355 3.06177
      vertex 0.1 0.0577351 1.51333
      vertex 0.0999994 0.0577355 1.51333
    endloop
  endfacet
  facet normal -0.5 -0.866026 0
    outer loop
      vertex 0 -0.115469 1.51333
      vertex 2.38114 -1.49022 4.13841
      vertex 0 -0.115469 3.06177
    endloop
  endfacet
  facet normal -0.5 -0.866025 0
    outer loop
      vertex 2.38114 -1.49022 4.13841
      vertex 5.72154 -3.4188 3.03905
      vertex 5.72154 -3.4188 5.61173
    endloop
  endfacet
  facet normal -0.5 -0.866026 5.6343e-08
    outer loop
      vertex 2.38114 -1.49022 4.13841
      vertex 0 -0.115469 1.51333
      vertex 5.72154 -3.4188 3.03905
    endloop
  endfacet
  facet normal 0.866044 -0.499968 0
    outer loop
      vertex 5.77154 -3.33221 5.54558
      vertex 5.82154 -3.2456 3.03905
      vertex 5.82154 -3.2456 5.61174
    endloop
  endfacet
  facet normal 0.865994 -0.500054 0
    outer loop
      vertex 5.72154 -3.4188 3.03905
      vertex 5.77154 -3.33221 5.54558
      vertex 5.72154 -3.4188 5.61173
    endloop
  endfacet
  facet normal 0.866019 -0.500011 -1.99483e-06
    outer loop
      vertex 5.77154 -3.33221 5.54558
      vertex 5.72154 -3.4188 3.03905
      vertex 5.82154 -3.2456 3.03905
    endloop
  endfacet
  facet normal -0.315441 0.182923 0.931148
    outer loop
      vertex 0 -0.115469 3.06177
      vertex 0.707108 -0.491016 3.37509
      vertex 0 -0.110175 3.06073
    endloop
  endfacet
  facet normal -0.315794 0.182267 0.931157
    outer loop
      vertex 0.707108 -0.491016 3.37509
      vertex 0 -0.115469 3.06177
      vertex 2.38114 -1.49022 4.13841
    endloop
  endfacet
  facet normal -0.411997 0 0.911185
    outer loop
      vertex 0.0999994 0.0577347 3.06177
      vertex 2.48268 -1.3179 4.13911
      vertex 0.0999994 0.0577355 3.06177
    endloop
  endfacet
  facet normal -0.315838 0.182193 0.931156
    outer loop
      vertex 2.48268 -1.3179 4.13911
      vertex 0.0999994 0.0577347 3.06177
      vertex 0.0596852 0.0344594 3.05265
    endloop
  endfacet
  facet normal -0.315784 0.182292 0.931155
    outer loop
      vertex 0 -0.0689532 3.05266
      vertex 0 -0.110175 3.06073
      vertex 0.707108 -0.491016 3.37509
    endloop
  endfacet
  facet normal -1 0 0
    outer loop
      vertex -0.2 0.11547 1.52667
      vertex -0.2 6.70667 1.54881
      vertex -0.2 0.11547 1.00945
    endloop
  endfacet
  facet normal -1 -0 0
    outer loop
      vertex -0.2 6.70667 1.54881
      vertex -0.2 0.11547 1.52667
      vertex -0.2 6.70667 3.04881
    endloop
  endfacet
  facet normal 0 1 -0
    outer loop
      vertex 0.4 6.70667 0
      vertex 0.299999 6.70667 0.0488129
      vertex 0.4 6.70667 0.0488129
    endloop
  endfacet
  facet normal 0 1 0
    outer loop
      vertex 0.299999 6.70667 0.0488129
      vertex 0.4 6.70667 0
      vertex -0.299999 6.70667 0.0488129
    endloop
  endfacet
  facet normal 0 1 0
    outer loop
      vertex -0.4 6.70667 0
      vertex -0.299999 6.70667 0.0488129
      vertex 0.4 6.70667 0
    endloop
  endfacet
  facet normal 0 1 0
    outer loop
      vertex -0.299999 6.70667 0.0488129
      vertex -0.4 6.70667 0
      vertex -0.4 6.70667 0.0488129
    endloop
  endfacet
  facet normal 0 1 -0
    outer loop
      vertex 0.299999 6.70667 0.0488129
      vertex 0.2 6.70667 1.54881
      vertex 0.299999 6.70667 1.54881
    endloop
  endfacet
  facet normal 0 1 0
    outer loop
      vertex 0.2 6.70667 1.54881
      vertex 0.299999 6.70667 0.0488129
      vertex -0.2 6.70667 1.54881
    endloop
  endfacet
  facet normal 0 1 0
    outer loop
      vertex -0.299999 6.70667 0.0488129
      vertex -0.2 6.70667 1.54881
      vertex 0.299999 6.70667 0.0488129
    endloop
  endfacet
  facet normal 0 1 0
    outer loop
      vertex -0.2 6.70667 1.54881
      vertex -0.299999 6.70667 0.0488129
      vertex -0.299999 6.70667 1.54881
    endloop
  endfacet
  facet normal 0 1 -0
    outer loop
      vertex 0.2 6.70667 1.54881
      vertex -0.2 6.70667 3.04881
      vertex 0.2 6.70667 3.04881
    endloop
  endfacet
  facet normal 0 1 0
    outer loop
      vertex -0.2 6.70667 3.04881
      vertex 0.2 6.70667 1.54881
      vertex -0.2 6.70667 1.54881
    endloop
  endfacet
  facet normal 1.58851e-05 -0.225013 0.974356
    outer loop
      vertex 0.0999994 6.6644 3.03905
      vertex 0.2 0.11547 1.52667
      vertex 0.2 6.70667 3.04881
    endloop
  endfacet
  facet normal -6.81697e-05 -0.225014 0.974355
    outer loop
      vertex 0.2 0.11547 1.52667
      vertex 0.0999994 6.6644 3.03905
      vertex 0.0999994 0.0577355 1.51333
    endloop
  endfacet
  facet normal 0 -0.224977 0.974364
    outer loop
      vertex 0.2 6.70667 3.04881
      vertex -0.0999994 6.6644 3.03905
      vertex 0.0999994 6.6644 3.03905
    endloop
  endfacet
  facet normal 6.81697e-05 -0.225014 0.974355
    outer loop
      vertex -0.2 0.11547 1.52667
      vertex -0.0999994 0.0577355 1.51333
      vertex -0.0999994 6.6644 3.03905
    endloop
  endfacet
  facet normal 0 -0.224977 0.974364
    outer loop
      vertex -0.2 6.70667 3.04881
      vertex -0.0999994 6.6644 3.03905
      vertex 0.2 6.70667 3.04881
    endloop
  endfacet
  facet normal -1.58851e-05 -0.225013 0.974356
    outer loop
      vertex -0.2 0.11547 1.52667
      vertex -0.0999994 6.6644 3.03905
      vertex -0.2 6.70667 3.04881
    endloop
  endfacet
  facet normal 0.0709025 -0.106354 0.991797
    outer loop
      vertex -0.0999994 0.0577355 1.51333
      vertex -0.2 0.11547 1.52667
      vertex -0.1 0.0577351 1.51333
    endloop
  endfacet
  facet normal -0.0709025 -0.106354 0.991797
    outer loop
      vertex 0.2 0.11547 1.52667
      vertex 0.0999994 0.0577355 1.51333
      vertex 0.1 0.0577351 1.51333
    endloop
  endfacet
  facet normal 1 0 0
    outer loop
      vertex 0.2 0.11547 1.52667
      vertex 0.2 6.70667 1.54881
      vertex 0.2 6.70667 3.04881
    endloop
  endfacet
  facet normal 1 0 0
    outer loop
      vertex 0.2 6.70667 1.54881
      vertex 0.2 0.11547 1.52667
      vertex 0.2 0.11547 1.00945
    endloop
  endfacet
  facet normal -1 0 0
    outer loop
      vertex -0.299999 0.288675 0.492232
      vertex -0.299999 6.70667 0.0488129
      vertex -0.299999 0.288675 0.48058
    endloop
  endfacet
  facet normal -1 0 0
    outer loop
      vertex -0.299999 6.70667 0.0488129
      vertex -0.299999 0.288675 0.492232
      vertex -0.299999 6.70667 1.54881
    endloop
  endfacet
  facet normal -1 0 0
    outer loop
      vertex -0.299999 0.173205 1.01417
      vertex -0.299999 0.288675 0.492232
      vertex -0.299999 0.173205 0.488348
    endloop
  endfacet
  facet normal -1 0 0
    outer loop
      vertex -0.299999 0.288675 0.492232
      vertex -0.299999 0.173205 1.01417
      vertex -0.299999 6.70667 1.54881
    endloop
  endfacet
  facet normal 0 -0.0815584 0.996669
    outer loop
      vertex -0.299999 0.173205 1.01417
      vertex -0.2 6.70667 1.54881
      vertex -0.299999 6.70667 1.54881
    endloop
  endfacet
  facet normal -4.45862e-05 -0.0815577 0.996669
    outer loop
      vertex -0.2 6.70667 1.54881
      vertex -0.299999 0.173205 1.01417
      vertex -0.2 0.11547 1.00945
    endloop
  endfacet
  facet normal 0 -0.0815584 0.996669
    outer loop
      vertex 0.2 6.70667 1.54881
      vertex 0.299999 0.173205 1.01417
      vertex 0.299999 6.70667 1.54881
    endloop
  endfacet
  facet normal 4.45862e-05 -0.0815577 0.996669
    outer loop
      vertex 0.299999 0.173205 1.01417
      vertex 0.2 6.70667 1.54881
      vertex 0.2 0.11547 1.00945
    endloop
  endfacet
  facet normal 1 0 0
    outer loop
      vertex 0.299999 6.70667 1.54881
      vertex 0.299999 0.288675 0.492232
      vertex 0.299999 6.70667 0.0488129
    endloop
  endfacet
  facet normal 1 -0 0
    outer loop
      vertex 0.299999 0.173205 1.01417
      vertex 0.299999 0.288675 0.492232
      vertex 0.299999 6.70667 1.54881
    endloop
  endfacet
  facet normal 1 0 0
    outer loop
      vertex 0.299999 0.288675 0.492232
      vertex 0.299999 0.173205 1.01417
      vertex 0.299999 0.173205 0.488348
    endloop
  endfacet
  facet normal 1 0 0
    outer loop
      vertex 0.299999 6.70667 0.0488129
      vertex 0.299999 0.288675 0.492232
      vertex 0.299999 0.288675 0.48058
    endloop
  endfacet
  facet normal 1 0 0
    outer loop
      vertex 0.4 0.23094 0
      vertex 0.4 6.70667 0.0488129
      vertex 0.4 0.23094 0.484464
    endloop
  endfacet
  facet normal -1 0 0
    outer loop
      vertex 0.4 0.115469 0.492232
      vertex 0.4 0.23094 0.484464
      vertex 0.4 6.70667 0.0488129
    endloop
  endfacet
  facet normal 1 0 0
    outer loop
      vertex 0.4 0.23094 0.484464
      vertex 0.4 0.115469 0.492232
      vertex 0.4 0.115469 0.48058
    endloop
  endfacet
  facet normal 1 0 0
    outer loop
      vertex 0.4 6.70667 0.0488129
      vertex 0.4 0.23094 0
      vertex 0.4 6.70667 0
    endloop
  endfacet
  facet normal -3.356e-07 0.0671206 0.997745
    outer loop
      vertex -0.299999 0.173205 0.488348
      vertex -0.4 0.23094 0.484464
      vertex -0.4 0.115469 0.492232
    endloop
  endfacet
  facet normal -0 0.0671227 0.997745
    outer loop
      vertex -0.4 6.70667 0.0488129
      vertex -0.299999 0.288675 0.48058
      vertex -0.299999 6.70667 0.0488129
    endloop
  endfacet
  facet normal -8.95069e-07 0.0671227 0.997745
    outer loop
      vertex -0.299999 0.288675 0.48058
      vertex -0.4 6.70667 0.0488129
      vertex -0.4 0.23094 0.484464
    endloop
  endfacet
  facet normal -1 -0 -0
    outer loop
      vertex -0.4 0.23094 0.484464
      vertex -0.4 6.70667 0.0488129
      vertex -0.4 0.115469 0.492232
    endloop
  endfacet
  facet normal 0 0.0671227 0.997745
    outer loop
      vertex 0.299999 0.288675 0.48058
      vertex 0.4 6.70667 0.0488129
      vertex 0.299999 6.70667 0.0488129
    endloop
  endfacet
  facet normal 8.95069e-07 0.0671227 0.997745
    outer loop
      vertex 0.4 6.70667 0.0488129
      vertex 0.299999 0.288675 0.48058
      vertex 0.4 0.23094 0.484464
    endloop
  endfacet
  facet normal 3.356e-07 0.0671206 0.997745
    outer loop
      vertex 0.4 0.23094 0.484464
      vertex 0.299999 0.173205 0.488348
      vertex 0.4 0.115469 0.492232
    endloop
  endfacet
  facet normal 1 0 0
    outer loop
      vertex 0.4 0.23094 0.484464
      vertex 0.4 0.115469 0.492232
      vertex 0.4 6.70667 0.0488129
    endloop
  endfacet
  facet normal -1 0 0
    outer loop
      vertex -0.4 0.23094 0
      vertex -0.4 6.70667 0.0488129
      vertex -0.4 6.70667 0
    endloop
  endfacet
  facet normal -1 0 0
    outer loop
      vertex -0.4 0.23094 0.484464
      vertex -0.4 6.70667 0.0488129
      vertex -0.4 0.23094 0
    endloop
  endfacet
  facet normal 1 0 0
    outer loop
      vertex -0.4 0.23094 0.484464
      vertex -0.4 0.115469 0.492232
      vertex -0.4 6.70667 0.0488129
    endloop
  endfacet
  facet normal -1 0 0
    outer loop
      vertex -0.4 0.115469 0.492232
      vertex -0.4 0.23094 0.484464
      vertex -0.4 0.115469 0.48058
    endloop
  endfacet
  facet normal 0.5 -0.866025 0
    outer loop
      vertex -5.70814 -3.52654 1.54881
      vertex 0 -0.23094 1.52667
      vertex -5.70814 -3.52654 3.04881
    endloop
  endfacet
  facet normal 0.5 -0.866025 0
    outer loop
      vertex 0 -0.23094 1.52667
      vertex -5.70814 -3.52654 1.54881
      vertex 0 -0.23094 1.00945
    endloop
  endfacet
  facet normal -0.866044 -0.499968 0
    outer loop
      vertex -6.00814 -3.00692 0
      vertex -5.95814 -3.09353 0.0488129
      vertex -6.00814 -3.00692 0.0488129
    endloop
  endfacet
  facet normal -0.866019 -0.500011 0
    outer loop
      vertex -5.95814 -3.09353 0.0488129
      vertex -5.90814 -3.18013 1.54881
      vertex -5.95814 -3.09353 1.54881
    endloop
  endfacet
  facet normal -0.866025 -0.5 0
    outer loop
      vertex -5.90814 -3.18013 1.54881
      vertex -5.70814 -3.52654 1.54881
      vertex -5.90814 -3.18013 3.04881
    endloop
  endfacet
  facet normal -0.866025 -0.5 8.33335e-07
    outer loop
      vertex -5.95814 -3.09353 0.0488129
      vertex -5.70814 -3.52654 1.54881
      vertex -5.90814 -3.18013 1.54881
    endloop
  endfacet
  facet normal -0.866023 -0.500004 -5.55561e-07
    outer loop
      vertex -5.95814 -3.09353 0.0488129
      vertex -5.65814 -3.61314 0.0488129
      vertex -5.70814 -3.52654 1.54881
    endloop
  endfacet
  facet normal -0.866023 -0.500004 -8.53606e-05
    outer loop
      vertex -6.00814 -3.00692 0
      vertex -5.65814 -3.61314 0.0488129
      vertex -5.95814 -3.09353 0.0488129
    endloop
  endfacet
  facet normal -0.866025 -0.5 -2.5608e-05
    outer loop
      vertex -5.60814 -3.69974 0
      vertex -5.65814 -3.61314 0.0488129
      vertex -6.00814 -3.00692 0
    endloop
  endfacet
  facet normal -0.866019 -0.500011 0
    outer loop
      vertex -5.65814 -3.61314 0.0488129
      vertex -5.60814 -3.69974 0
      vertex -5.60814 -3.69974 0.0488129
    endloop
  endfacet
  facet normal -0.866025 -0.5 0
    outer loop
      vertex -5.90814 -3.18013 3.04881
      vertex -5.70814 -3.52654 1.54881
      vertex -5.70814 -3.52654 3.04881
    endloop
  endfacet
  facet normal -0.866019 -0.500011 0
    outer loop
      vertex -5.70814 -3.52654 1.54881
      vertex -5.65814 -3.61314 0.0488129
      vertex -5.65814 -3.61314 1.54881
    endloop
  endfacet
  facet normal 0.194901 0.112449 0.974355
    outer loop
      vertex -0.2 0.11547 1.52667
      vertex -5.82154 -3.2456 3.03905
      vertex -0.1 0.0577351 1.51333
    endloop
  endfacet
  facet normal 0.194867 0.112506 0.974356
    outer loop
      vertex -5.82154 -3.2456 3.03905
      vertex -0.2 0.11547 1.52667
      vertex -5.90814 -3.18013 3.04881
    endloop
  endfacet
  facet normal 0.194835 0.112564 0.974355
    outer loop
      vertex -5.72154 -3.4188 3.03905
      vertex 0 -0.23094 1.52667
      vertex 0 -0.115469 1.51333
    endloop
  endfacet
  facet normal 0.19487 0.112502 0.974356
    outer loop
      vertex 0 -0.23094 1.52667
      vertex -5.72154 -3.4188 3.03905
      vertex -5.70814 -3.52654 3.04881
    endloop
  endfacet
  facet normal 0.19485 0.1125 0.97436
    outer loop
      vertex -5.82154 -3.2456 3.03905
      vertex -5.70814 -3.52654 3.04881
      vertex -5.72154 -3.4188 3.03905
    endloop
  endfacet
  facet normal 0.194868 0.112507 0.974356
    outer loop
      vertex -5.70814 -3.52654 3.04881
      vertex -5.82154 -3.2456 3.03905
      vertex -5.90814 -3.18013 3.04881
    endloop
  endfacet
  facet normal -0.5 0.866025 0
    outer loop
      vertex -0.2 0.11547 1.52667
      vertex -5.90814 -3.18013 1.54881
      vertex -5.90814 -3.18013 3.04881
    endloop
  endfacet
  facet normal -0.5 0.866025 0
    outer loop
      vertex -5.90814 -3.18013 1.54881
      vertex -0.2 0.11547 1.52667
      vertex -0.2 0.11547 1.00945
    endloop
  endfacet
  facet normal 0.5 -0.866025 1.51825e-06
    outer loop
      vertex -5.65814 -3.61314 1.54881
      vertex -0.1 -0.404145 0.492232
      vertex 0 -0.346409 1.01417
    endloop
  endfacet
  facet normal 0.5 -0.866025 0
    outer loop
      vertex -5.65814 -3.61314 0.0488129
      vertex -0.1 -0.404145 0.492232
      vertex -5.65814 -3.61314 1.54881
    endloop
  endfacet
  facet normal 0.5 -0.866025 0
    outer loop
      vertex -0.1 -0.404145 0.492232
      vertex -5.65814 -3.61314 0.0488129
      vertex -0.1 -0.404145 0.48058
    endloop
  endfacet
  facet normal 0.500006 -0.866022 0
    outer loop
      vertex 0 -0.346409 1.01417
      vertex -0.1 -0.404145 0.492232
      vertex 0 -0.346409 0.488348
    endloop
  endfacet
  facet normal 0.0706532 0.0407406 0.996669
    outer loop
      vertex -5.70814 -3.52654 1.54881
      vertex 0 -0.346409 1.01417
      vertex 0 -0.23094 1.00945
    endloop
  endfacet
  facet normal 0.0706312 0.0407801 0.996669
    outer loop
      vertex 0 -0.346409 1.01417
      vertex -5.70814 -3.52654 1.54881
      vertex -5.65814 -3.61314 1.54881
    endloop
  endfacet
  facet normal 0.0706091 0.040817 0.996669
    outer loop
      vertex -0.299999 0.173205 1.01417
      vertex -5.90814 -3.18013 1.54881
      vertex -0.2 0.11547 1.00945
    endloop
  endfacet
  facet normal 0.0706312 0.0407801 0.996669
    outer loop
      vertex -5.90814 -3.18013 1.54881
      vertex -0.299999 0.173205 1.01417
      vertex -5.95814 -3.09353 1.54881
    endloop
  endfacet
  facet normal -0.500003 0.866024 0
    outer loop
      vertex -0.299999 0.173205 1.01417
      vertex -0.299999 0.173205 0.488348
      vertex -0.4 0.115469 0.492232
    endloop
  endfacet
  facet normal -0.500001 0.866025 -4.78726e-07
    outer loop
      vertex -0.4 0.115469 0.492232
      vertex -5.95814 -3.09353 1.54881
      vertex -0.299999 0.173205 1.01417
    endloop
  endfacet
  facet normal -0.500001 0.866025 0
    outer loop
      vertex -5.95814 -3.09353 0.0488129
      vertex -0.4 0.115469 0.492232
      vertex -0.4 0.115469 0.48058
    endloop
  endfacet
  facet normal -0.500001 0.866025 0
    outer loop
      vertex -0.4 0.115469 0.492232
      vertex -5.95814 -3.09353 0.0488129
      vertex -5.95814 -3.09353 1.54881
    endloop
  endfacet
  facet normal -0.5 0.866025 0
    outer loop
      vertex -0.4 0.23094 0
      vertex -6.00814 -3.00692 0.0488129
      vertex -0.4 0.23094 0.484464
    endloop
  endfacet
  facet normal -0.5 0.866025 0
    outer loop
      vertex -6.00814 -3.00692 0.0488129
      vertex -0.4 0.23094 0
      vertex -6.00814 -3.00692 0
    endloop
  endfacet
  facet normal -0.499996 0.866028 0
    outer loop
      vertex -0.299999 0.288675 0.48058
      vertex -0.4 0.23094 0.484464
      vertex -0.299999 0.288675 0.492232
    endloop
  endfacet
  facet normal -0.0581296 -0.0335622 0.997745
    outer loop
      vertex -0.1 -0.404145 0.48058
      vertex -5.60814 -3.69974 0.0488129
      vertex 0 -0.46188 0.484464
    endloop
  endfacet
  facet normal -0.0581296 -0.0335621 0.997745
    outer loop
      vertex -5.60814 -3.69974 0.0488129
      vertex -0.1 -0.404145 0.48058
      vertex -5.65814 -3.61314 0.0488129
    endloop
  endfacet
  facet normal -0.0581288 -0.0335603 0.997745
    outer loop
      vertex 0 -0.346409 0.488348
      vertex 0 -0.46188 0.484464
      vertex 0.1 -0.404145 0.492232
    endloop
  endfacet
  facet normal -0.0581307 -0.0335603 0.997745
    outer loop
      vertex -6.00814 -3.00692 0.0488129
      vertex -0.4 0.115469 0.48058
      vertex -0.4 0.23094 0.484464
    endloop
  endfacet
  facet normal -0.0581313 -0.0335592 0.997745
    outer loop
      vertex -0.4 0.115469 0.48058
      vertex -6.00814 -3.00692 0.0488129
      vertex -5.95814 -3.09353 0.0488129
    endloop
  endfacet
  facet normal -0.058128 -0.0335606 0.997745
    outer loop
      vertex -0.299999 0.288675 0.492232
      vertex -0.4 0.23094 0.484464
      vertex -0.299999 0.173205 0.488348
    endloop
  endfacet
  facet normal 0.5 -0.866025 0
    outer loop
      vertex 0 -0.46188 0
      vertex -5.60814 -3.69974 0.0488129
      vertex -5.60814 -3.69974 0
    endloop
  endfacet
  facet normal 0.5 -0.866025 0
    outer loop
      vertex -5.60814 -3.69974 0.0488129
      vertex 0 -0.46188 0
      vertex 0 -0.46188 0.484464
    endloop
  endfacet
  facet normal 0.5 -0.866026 0
    outer loop
      vertex 0.1 -0.404145 0.492232
      vertex 0 -0.46188 0.484464
      vertex 0.1 -0.404145 0.48058
    endloop
  endfacet
  facet normal 0.5 0.866025 -0
    outer loop
      vertex 5.90814 -3.18013 1.54881
      vertex 0.2 0.11547 1.52667
      vertex 5.90814 -3.18013 3.04881
    endloop
  endfacet
  facet normal 0.5 0.866025 0
    outer loop
      vertex 0.2 0.11547 1.52667
      vertex 5.90814 -3.18013 1.54881
      vertex 0.2 0.11547 1.00945
    endloop
  endfacet
  facet normal 0.866025 -0.5 0
    outer loop
      vertex 5.90814 -3.18013 3.04881
      vertex 5.70814 -3.52654 3.04881
      vertex 5.90814 -3.18013 1.54881
    endloop
  endfacet
  facet normal 0.866019 -0.500011 0
    outer loop
      vertex 5.95814 -3.09353 1.54881
      vertex 5.90814 -3.18013 1.54881
      vertex 5.95814 -3.09353 0.0488129
    endloop
  endfacet
  facet normal 0.866044 -0.499968 0
    outer loop
      vertex 5.95814 -3.09353 0.0488129
      vertex 6.00814 -3.00692 0
      vertex 6.00814 -3.00692 0.0488129
    endloop
  endfacet
  facet normal 0.866025 -0.5 0
    outer loop
      vertex 5.70814 -3.52654 1.54881
      vertex 5.90814 -3.18013 1.54881
      vertex 5.70814 -3.52654 3.04881
    endloop
  endfacet
  facet normal 0.866025 -0.5 8.33335e-07
    outer loop
      vertex 5.90814 -3.18013 1.54881
      vertex 5.70814 -3.52654 1.54881
      vertex 5.95814 -3.09353 0.0488129
    endloop
  endfacet
  facet normal 0.866019 -0.500011 0
    outer loop
      vertex 5.65814 -3.61314 0.0488129
      vertex 5.70814 -3.52654 1.54881
      vertex 5.65814 -3.61314 1.54881
    endloop
  endfacet
  facet normal 0.866023 -0.500004 -5.55561e-07
    outer loop
      vertex 5.70814 -3.52654 1.54881
      vertex 5.65814 -3.61314 0.0488129
      vertex 5.95814 -3.09353 0.0488129
    endloop
  endfacet
  facet normal 0.866023 -0.500004 -8.53606e-05
    outer loop
      vertex 5.65814 -3.61314 0.0488129
      vertex 6.00814 -3.00692 0
      vertex 5.95814 -3.09353 0.0488129
    endloop
  endfacet
  facet normal 0.866019 -0.500011 0
    outer loop
      vertex 5.60814 -3.69974 0
      vertex 5.65814 -3.61314 0.0488129
      vertex 5.60814 -3.69974 0.0488129
    endloop
  endfacet
  facet normal 0.866025 -0.5 -2.5608e-05
    outer loop
      vertex 5.65814 -3.61314 0.0488129
      vertex 5.60814 -3.69974 0
      vertex 6.00814 -3.00692 0
    endloop
  endfacet
  facet normal -0.194867 0.112506 0.974356
    outer loop
      vertex 0.2 0.11547 1.52667
      vertex 5.82154 -3.2456 3.03905
      vertex 5.90814 -3.18013 3.04881
    endloop
  endfacet
  facet normal -0.194901 0.112449 0.974355
    outer loop
      vertex 5.82154 -3.2456 3.03905
      vertex 0.2 0.11547 1.52667
      vertex 0.1 0.0577351 1.51333
    endloop
  endfacet
  facet normal -0.194872 0.112513 0.974354
    outer loop
      vertex 5.72154 -3.4188 3.03905
      vertex 5.90814 -3.18013 3.04881
      vertex 5.82154 -3.2456 3.03905
    endloop
  endfacet
  facet normal -0.194857 0.112501 0.974358
    outer loop
      vertex 5.72154 -3.4188 3.03905
      vertex 5.70814 -3.52654 3.04881
      vertex 5.90814 -3.18013 3.04881
    endloop
  endfacet
  facet normal -0.194835 0.112564 0.974355
    outer loop
      vertex 0 -0.23094 1.52667
      vertex 5.72154 -3.4188 3.03905
      vertex 0 -0.115469 1.51333
    endloop
  endfacet
  facet normal -0.19487 0.112502 0.974356
    outer loop
      vertex 5.72154 -3.4188 3.03905
      vertex 0 -0.23094 1.52667
      vertex 5.70814 -3.52654 3.04881
    endloop
  endfacet
  facet normal -0.5 -0.866025 0
    outer loop
      vertex 0 -0.23094 1.52667
      vertex 5.70814 -3.52654 1.54881
      vertex 5.70814 -3.52654 3.04881
    endloop
  endfacet
  facet normal -0.5 -0.866025 0
    outer loop
      vertex 5.70814 -3.52654 1.54881
      vertex 0 -0.23094 1.52667
      vertex 0 -0.23094 1.00945
    endloop
  endfacet
  facet normal 0.500001 0.866025 -4.78726e-07
    outer loop
      vertex 5.95814 -3.09353 1.54881
      vertex 0.4 0.115469 0.492232
      vertex 0.299999 0.173205 1.01417
    endloop
  endfacet
  facet normal 0.500001 0.866025 -0
    outer loop
      vertex 5.95814 -3.09353 0.0488129
      vertex 0.4 0.115469 0.492232
      vertex 5.95814 -3.09353 1.54881
    endloop
  endfacet
  facet normal 0.500001 0.866025 0
    outer loop
      vertex 0.4 0.115469 0.492232
      vertex 5.95814 -3.09353 0.0488129
      vertex 0.4 0.115469 0.48058
    endloop
  endfacet
  facet normal 0.500003 0.866024 0
    outer loop
      vertex 0.299999 0.173205 1.01417
      vertex 0.4 0.115469 0.492232
      vertex 0.299999 0.173205 0.488348
    endloop
  endfacet
  facet normal -0.0706312 0.0407801 0.996669
    outer loop
      vertex 0.299999 0.173205 1.01417
      vertex 5.90814 -3.18013 1.54881
      vertex 5.95814 -3.09353 1.54881
    endloop
  endfacet
  facet normal -0.0706091 0.040817 0.996669
    outer loop
      vertex 5.90814 -3.18013 1.54881
      vertex 0.299999 0.173205 1.01417
      vertex 0.2 0.11547 1.00945
    endloop
  endfacet
  facet normal -0.0706532 0.0407406 0.996669
    outer loop
      vertex 0 -0.346409 1.01417
      vertex 5.70814 -3.52654 1.54881
      vertex 0 -0.23094 1.00945
    endloop
  endfacet
  facet normal -0.0706312 0.0407801 0.996669
    outer loop
      vertex 5.70814 -3.52654 1.54881
      vertex 0 -0.346409 1.01417
      vertex 5.65814 -3.61314 1.54881
    endloop
  endfacet
  facet normal -0.500006 -0.866022 -0
    outer loop
      vertex 0 -0.346409 1.01417
      vertex 0 -0.346409 0.488348
      vertex 0.1 -0.404145 0.492232
    endloop
  endfacet
  facet normal -0.5 -0.866025 1.51825e-06
    outer loop
      vertex 0.1 -0.404145 0.492232
      vertex 5.65814 -3.61314 1.54881
      vertex 0 -0.346409 1.01417
    endloop
  endfacet
  facet normal -0.5 -0.866025 0
    outer loop
      vertex 5.65814 -3.61314 0.0488129
      vertex 0.1 -0.404145 0.492232
      vertex 0.1 -0.404145 0.48058
    endloop
  endfacet
  facet normal -0.5 -0.866025 0
    outer loop
      vertex 0.1 -0.404145 0.492232
      vertex 5.65814 -3.61314 0.0488129
      vertex 5.65814 -3.61314 1.54881
    endloop
  endfacet
  facet normal -0.5 -0.866025 0
    outer loop
      vertex 0 -0.46188 0
      vertex 5.60814 -3.69974 0.0488129
      vertex 0 -0.46188 0.484464
    endloop
  endfacet
  facet normal -0.5 -0.866025 -0
    outer loop
      vertex 5.60814 -3.69974 0.0488129
      vertex 0 -0.46188 0
      vertex 5.60814 -3.69974 0
    endloop
  endfacet
  facet normal -0.5 -0.866026 -0
    outer loop
      vertex -0.1 -0.404145 0.492232
      vertex -0.1 -0.404145 0.48058
      vertex 0 -0.46188 0.484464
    endloop
  endfacet
  facet normal 0.0581307 -0.0335603 0.997745
    outer loop
      vertex 0.4 0.115469 0.48058
      vertex 6.00814 -3.00692 0.0488129
      vertex 0.4 0.23094 0.484464
    endloop
  endfacet
  facet normal 0.0581313 -0.0335592 0.997745
    outer loop
      vertex 6.00814 -3.00692 0.0488129
      vertex 0.4 0.115469 0.48058
      vertex 5.95814 -3.09353 0.0488129
    endloop
  endfacet
  facet normal 0.058128 -0.0335606 0.997745
    outer loop
      vertex 0.299999 0.288675 0.492232
      vertex 0.299999 0.173205 0.488348
      vertex 0.4 0.23094 0.484464
    endloop
  endfacet
  facet normal 0.0581296 -0.0335621 0.997745
    outer loop
      vertex 0.1 -0.404145 0.48058
      vertex 5.60814 -3.69974 0.0488129
      vertex 5.65814 -3.61314 0.0488129
    endloop
  endfacet
  facet normal 0.0581296 -0.0335622 0.997745
    outer loop
      vertex 5.60814 -3.69974 0.0488129
      vertex 0.1 -0.404145 0.48058
      vertex 0 -0.46188 0.484464
    endloop
  endfacet
  facet normal 0.0581288 -0.0335603 0.997745
    outer loop
      vertex 0 -0.346409 0.488348
      vertex -0.1 -0.404145 0.492232
      vertex 0 -0.46188 0.484464
    endloop
  endfacet
  facet normal 0.5 0.866025 0
    outer loop
      vertex 0.4 0.23094 0
      vertex 6.00814 -3.00692 0.0488129
      vertex 6.00814 -3.00692 0
    endloop
  endfacet
  facet normal 0.5 0.866025 0
    outer loop
      vertex 6.00814 -3.00692 0.0488129
      vertex 0.4 0.23094 0
      vertex 0.4 0.23094 0.484464
    endloop
  endfacet
  facet normal 0.499996 0.866028 0
    outer loop
      vertex 0.4 0.23094 0.484464
      vertex 0.299999 0.288675 0.48058
      vertex 0.299999 0.288675 0.492232
    endloop
  endfacet
  facet normal 0 0 -1
    outer loop
      vertex -5.60814 -3.69974 0
      vertex -0.4 0.23094 0
      vertex 0 -0.46188 0
    endloop
  endfacet
  facet normal 0 0 -1
    outer loop
      vertex -0.4 0.23094 0
      vertex -5.60814 -3.69974 0
      vertex -6.00814 -3.00692 0
    endloop
  endfacet
  facet normal 0 0 -1
    outer loop
      vertex 5.60814 -3.69974 0
      vertex 0.4 0.23094 0
      vertex 6.00814 -3.00692 0
    endloop
  endfacet
  facet normal 0 0 -1
    outer loop
      vertex 0 -0.46188 0
      vertex 0.4 0.23094 0
      vertex 5.60814 -3.69974 0
    endloop
  endfacet
  facet normal 0 0 -1
    outer loop
      vertex -0.4 0.23094 0
      vertex 0.4 0.23094 0
      vertex 0 -0.46188 0
    endloop
  endfacet
  facet normal 0 0 -1
    outer loop
      vertex 0.4 0.23094 0
      vertex -0.4 0.23094 0
      vertex 0.4 6.70667 0
    endloop
  endfacet
  facet normal -0 0 -1
    outer loop
      vertex 0.4 6.70667 0
      vertex -0.4 0.23094 0
      vertex -0.4 6.70667 0
    endloop
  endfacet
endsolid OpenSCAD_Model
