solid OpenSCAD_Model
  facet normal 0 1 -0
    outer loop
      vertex -5.59018 5.7316 11.4387
      vertex -5.7316 5.7316 25.7395
      vertex 5.59018 5.7316 11.4387
    endloop
  endfacet
  facet normal 0 1 0
    outer loop
      vertex -5.7316 5.7316 25.7395
      vertex -5.59018 5.7316 11.4387
      vertex -5.6742 5.7316 11.5005
    endloop
  endfacet
  facet normal 0 1 -0
    outer loop
      vertex 5.59018 5.7316 11.4105
      vertex -5.59018 5.7316 11.4387
      vertex 5.59018 5.7316 11.4387
    endloop
  endfacet
  facet normal 0 1 0
    outer loop
      vertex -5.59018 5.7316 11.4387
      vertex 5.59018 5.7316 11.4105
      vertex -5.59018 5.7316 11.4105
    endloop
  endfacet
  facet normal 0 1 0
    outer loop
      vertex 5.59018 5.7316 11.4387
      vertex 5.7316 5.7316 25.7395
      vertex 5.6742 5.7316 11.5005
    endloop
  endfacet
  facet normal 0 1 -0
    outer loop
      vertex 5.7316 5.7316 11.4105
      vertex 5.6742 5.7316 11.5005
      vertex 5.7316 5.7316 25.7395
    endloop
  endfacet
  facet normal 0 1 0
    outer loop
      vertex 5.6742 5.7316 11.5005
      vertex 5.7316 5.7316 11.4105
      vertex 5.6742 5.7316 11.4105
    endloop
  endfacet
  facet normal 0 1 0
    outer loop
      vertex 5.7316 5.7316 25.7395
      vertex 5.59018 5.7316 11.4387
      vertex -5.7316 5.7316 25.7395
    endloop
  endfacet
  facet normal 0 1 0
    outer loop
      vertex -5.7316 5.7316 11.4105
      vertex -5.6742 5.7316 11.5005
      vertex -5.6742 5.7316 11.4105
    endloop
  endfacet
  facet normal 0 1 0
    outer loop
      vertex -5.6742 5.7316 11.5005
      vertex -5.7316 5.7316 11.4105
      vertex -5.7316 5.7316 25.7395
    endloop
  endfacet
  facet normal -1 0 0
    outer loop
      vertex -5.7316 -5.6742 11.4105
      vertex -5.7316 -5.7316 11.4105
      vertex -5.7316 -5.6742 11.5005
    endloop
  endfacet
  facet normal -1 0 0
    outer loop
      vertex -5.7316 5.59018 11.4105
      vertex -5.7316 -5.59018 11.4105
      vertex -5.7316 5.59018 11.4387
    endloop
  endfacet
  facet normal -1 0 0
    outer loop
      vertex -5.7316 5.6742 11.5005
      vertex -5.7316 5.7316 11.4105
      vertex -5.7316 5.6742 11.4105
    endloop
  endfacet
  facet normal -1 0 0
    outer loop
      vertex -5.7316 5.7316 11.4105
      vertex -5.7316 5.6742 11.5005
      vertex -5.7316 5.7316 25.7395
    endloop
  endfacet
  facet normal -1 0 0
    outer loop
      vertex -5.7316 5.59018 11.4387
      vertex -5.7316 5.7316 25.7395
      vertex -5.7316 5.6742 11.5005
    endloop
  endfacet
  facet normal -1 0 0
    outer loop
      vertex -5.7316 -5.59018 11.4387
      vertex -5.7316 5.59018 11.4387
      vertex -5.7316 -5.59018 11.4105
    endloop
  endfacet
  facet normal -1 0 0
    outer loop
      vertex -5.7316 5.59018 11.4387
      vertex -5.7316 -5.59018 11.4387
      vertex -5.7316 5.7316 25.7395
    endloop
  endfacet
  facet normal -1 0 0
    outer loop
      vertex -5.7316 -5.7316 25.7395
      vertex -5.7316 -5.59018 11.4387
      vertex -5.7316 -5.6742 11.5005
    endloop
  endfacet
  facet normal -1 0 0
    outer loop
      vertex -5.7316 -5.59018 11.4387
      vertex -5.7316 -5.7316 25.7395
      vertex -5.7316 5.7316 25.7395
    endloop
  endfacet
  facet normal -1 0 0
    outer loop
      vertex -5.7316 -5.7316 25.7395
      vertex -5.7316 -5.6742 11.5005
      vertex -5.7316 -5.7316 11.4105
    endloop
  endfacet
  facet normal 0 -1 0
    outer loop
      vertex 5.59018 -5.7316 11.4387
      vertex 5.7316 -5.7316 25.7395
      vertex -5.59018 -5.7316 11.4387
    endloop
  endfacet
  facet normal 0 -1 0
    outer loop
      vertex 5.7316 -5.7316 25.7395
      vertex 5.59018 -5.7316 11.4387
      vertex 5.6742 -5.7316 11.5005
    endloop
  endfacet
  facet normal 0 -1 0
    outer loop
      vertex -5.59018 -5.7316 11.4105
      vertex 5.59018 -5.7316 11.4387
      vertex -5.59018 -5.7316 11.4387
    endloop
  endfacet
  facet normal 0 -1 -0
    outer loop
      vertex 5.59018 -5.7316 11.4387
      vertex -5.59018 -5.7316 11.4105
      vertex 5.59018 -5.7316 11.4105
    endloop
  endfacet
  facet normal 0 -1 0
    outer loop
      vertex -5.59018 -5.7316 11.4387
      vertex -5.7316 -5.7316 25.7395
      vertex -5.6742 -5.7316 11.5005
    endloop
  endfacet
  facet normal 0 -1 0
    outer loop
      vertex -5.7316 -5.7316 11.4105
      vertex -5.6742 -5.7316 11.5005
      vertex -5.7316 -5.7316 25.7395
    endloop
  endfacet
  facet normal 0 -1 -0
    outer loop
      vertex -5.6742 -5.7316 11.5005
      vertex -5.7316 -5.7316 11.4105
      vertex -5.6742 -5.7316 11.4105
    endloop
  endfacet
  facet normal 0 -1 0
    outer loop
      vertex -5.7316 -5.7316 25.7395
      vertex -5.59018 -5.7316 11.4387
      vertex 5.7316 -5.7316 25.7395
    endloop
  endfacet
  facet normal 0 -1 0
    outer loop
      vertex 5.7316 -5.7316 11.4105
      vertex 5.6742 -5.7316 11.5005
      vertex 5.6742 -5.7316 11.4105
    endloop
  endfacet
  facet normal 0 -1 0
    outer loop
      vertex 5.6742 -5.7316 11.5005
      vertex 5.7316 -5.7316 11.4105
      vertex 5.7316 -5.7316 25.7395
    endloop
  endfacet
  facet normal 1 0 0
    outer loop
      vertex 5.7316 5.7316 25.7395
      vertex 5.7316 5.6742 11.5005
      vertex 5.7316 5.7316 11.4105
    endloop
  endfacet
  facet normal 1 0 0
    outer loop
      vertex 5.7316 5.7316 25.7395
      vertex 5.7316 5.59018 11.4387
      vertex 5.7316 5.6742 11.5005
    endloop
  endfacet
  facet normal 1 0 0
    outer loop
      vertex 5.7316 5.59018 11.4387
      vertex 5.7316 -5.59018 11.4387
      vertex 5.7316 5.59018 11.4105
    endloop
  endfacet
  facet normal 1 0 0
    outer loop
      vertex 5.7316 5.7316 25.7395
      vertex 5.7316 -5.59018 11.4387
      vertex 5.7316 5.59018 11.4387
    endloop
  endfacet
  facet normal 1 -0 0
    outer loop
      vertex 5.7316 -5.7316 25.7395
      vertex 5.7316 -5.59018 11.4387
      vertex 5.7316 5.7316 25.7395
    endloop
  endfacet
  facet normal 1 0 0
    outer loop
      vertex 5.7316 -5.59018 11.4387
      vertex 5.7316 -5.7316 25.7395
      vertex 5.7316 -5.6742 11.5005
    endloop
  endfacet
  facet normal 1 0 0
    outer loop
      vertex 5.7316 -5.7316 11.4105
      vertex 5.7316 -5.6742 11.5005
      vertex 5.7316 -5.7316 25.7395
    endloop
  endfacet
  facet normal 1 0 0
    outer loop
      vertex 5.7316 -5.6742 11.5005
      vertex 5.7316 -5.7316 11.4105
      vertex 5.7316 -5.6742 11.4105
    endloop
  endfacet
  facet normal 1 0 0
    outer loop
      vertex 5.7316 5.7316 11.4105
      vertex 5.7316 5.6742 11.5005
      vertex 5.7316 5.6742 11.4105
    endloop
  endfacet
  facet normal 1 0 0
    outer loop
      vertex 5.7316 5.59018 11.4105
      vertex 5.7316 -5.59018 11.4387
      vertex 5.7316 -5.59018 11.4105
    endloop
  endfacet
  facet normal 0 0.826269 -0.563276
    outer loop
      vertex 5.7029 5.7029 11.3684
      vertex 5.6742 5.7316 11.4105
      vertex 5.7316 5.7316 11.4105
    endloop
  endfacet
  facet normal 0 0.826269 -0.563276
    outer loop
      vertex -5.7029 5.7029 11.3684
      vertex -5.7316 5.7316 11.4105
      vertex -5.6742 5.7316 11.4105
    endloop
  endfacet
  facet normal 0 0.826358 -0.563145
    outer loop
      vertex 0 0.141421 3.20748
      vertex -5.59018 5.7316 11.4105
      vertex 5.59018 5.7316 11.4105
    endloop
  endfacet
  facet normal -0 -0.826269 -0.563276
    outer loop
      vertex -5.6742 -5.7316 11.4105
      vertex -5.7316 -5.7316 11.4105
      vertex -5.7029 -5.7029 11.3684
    endloop
  endfacet
  facet normal -0 -0.826269 -0.563276
    outer loop
      vertex 5.7316 -5.7316 11.4105
      vertex 5.6742 -5.7316 11.4105
      vertex 5.7029 -5.7029 11.3684
    endloop
  endfacet
  facet normal -0 -0.826358 -0.563145
    outer loop
      vertex 5.59018 -5.7316 11.4105
      vertex -5.59018 -5.7316 11.4105
      vertex 0 -0.141421 3.20748
    endloop
  endfacet
  facet normal 0.826269 0 -0.563276
    outer loop
      vertex 5.7316 5.6742 11.4105
      vertex 5.7029 5.7029 11.3684
      vertex 5.7316 5.7316 11.4105
    endloop
  endfacet
  facet normal 0.826269 0 -0.563276
    outer loop
      vertex 5.7316 -5.7316 11.4105
      vertex 5.7029 -5.7029 11.3684
      vertex 5.7316 -5.6742 11.4105
    endloop
  endfacet
  facet normal 0.826358 0 -0.563145
    outer loop
      vertex 5.7316 -5.59018 11.4105
      vertex 0.141421 0 3.20748
      vertex 5.7316 5.59018 11.4105
    endloop
  endfacet
  facet normal -0.826269 0 -0.563276
    outer loop
      vertex -5.7029 5.7029 11.3684
      vertex -5.7316 5.6742 11.4105
      vertex -5.7316 5.7316 11.4105
    endloop
  endfacet
  facet normal -0.826269 0 -0.563276
    outer loop
      vertex -5.7029 -5.7029 11.3684
      vertex -5.7316 -5.7316 11.4105
      vertex -5.7316 -5.6742 11.4105
    endloop
  endfacet
  facet normal -0.826358 0 -0.563145
    outer loop
      vertex -0.141421 0 3.20748
      vertex -5.7316 -5.59018 11.4105
      vertex -5.7316 5.59018 11.4105
    endloop
  endfacet
  facet normal -0.826358 0 0.563145
    outer loop
      vertex -5.7316 5.7316 25.7395
      vertex -3.05176e-05 -3.05176e-05 34.15
      vertex -3.05176e-05 3.05176e-05 34.15
    endloop
  endfacet
  facet normal -0.826358 0 0.563145
    outer loop
      vertex -3.05176e-05 -3.05176e-05 34.15
      vertex -5.7316 5.7316 25.7395
      vertex -5.7316 -5.7316 25.7395
    endloop
  endfacet
  facet normal 0 0.826358 0.563145
    outer loop
      vertex 5.7316 5.7316 25.7395
      vertex -3.05176e-05 3.05176e-05 34.15
      vertex 3.05176e-05 3.05176e-05 34.15
    endloop
  endfacet
  facet normal 0 0.826358 0.563145
    outer loop
      vertex -3.05176e-05 3.05176e-05 34.15
      vertex 5.7316 5.7316 25.7395
      vertex -5.7316 5.7316 25.7395
    endloop
  endfacet
  facet normal -0 0 1
    outer loop
      vertex -3.05176e-05 3.05176e-05 34.15
      vertex 3.05176e-05 -3.05176e-05 34.15
      vertex 3.05176e-05 3.05176e-05 34.15
    endloop
  endfacet
  facet normal 0 0 1
    outer loop
      vertex 3.05176e-05 -3.05176e-05 34.15
      vertex -3.05176e-05 3.05176e-05 34.15
      vertex -3.05176e-05 -3.05176e-05 34.15
    endloop
  endfacet
  facet normal 0.826358 -0 0.563145
    outer loop
      vertex 3.05176e-05 -3.05176e-05 34.15
      vertex 5.7316 5.7316 25.7395
      vertex 3.05176e-05 3.05176e-05 34.15
    endloop
  endfacet
  facet normal 0.826358 0 0.563145
    outer loop
      vertex 5.7316 5.7316 25.7395
      vertex 3.05176e-05 -3.05176e-05 34.15
      vertex 5.7316 -5.7316 25.7395
    endloop
  endfacet
  facet normal 0 -0.826358 0.563145
    outer loop
      vertex -5.7316 -5.7316 25.7395
      vertex 3.05176e-05 -3.05176e-05 34.15
      vertex -3.05176e-05 -3.05176e-05 34.15
    endloop
  endfacet
  facet normal 0 -0.826358 0.563145
    outer loop
      vertex 3.05176e-05 -3.05176e-05 34.15
      vertex -5.7316 -5.7316 25.7395
      vertex 5.7316 -5.7316 25.7395
    endloop
  endfacet
  facet normal -0.707107 0.707107 0
    outer loop
      vertex 5.63219 5.77361 8.86194
      vertex 5.59018 5.7316 11.4105
      vertex 5.63219 5.77361 11.5005
    endloop
  endfacet
  facet normal -0.707107 0.707107 0
    outer loop
      vertex 0 0.141421 3.20748
      vertex 5.63219 5.77361 8.86194
      vertex 0 0.141421 1.59128
    endloop
  endfacet
  facet normal -0.707107 0.707107 2.03581e-09
    outer loop
      vertex 5.63219 5.77361 8.86194
      vertex 0 0.141421 3.20748
      vertex 5.59018 5.7316 11.4105
    endloop
  endfacet
  facet normal -0.707107 0.707107 0
    outer loop
      vertex 5.63219 5.77361 11.5005
      vertex 5.59018 5.7316 11.4105
      vertex 5.59018 5.7316 11.4387
    endloop
  endfacet
  facet normal 0.707107 0.707107 0
    outer loop
      vertex 5.7316 5.6742 11.5005
      vertex 5.77361 5.63219 11.5005
      vertex 5.7316 5.6742 11.4105
    endloop
  endfacet
  facet normal 0.707107 0.707107 -0
    outer loop
      vertex 5.6742 5.7316 11.4105
      vertex 5.63219 5.77361 11.5005
      vertex 5.6742 5.7316 11.5005
    endloop
  endfacet
  facet normal 0.707107 0.707107 0
    outer loop
      vertex 5.63219 5.77361 11.5005
      vertex 5.6742 5.7316 11.4105
      vertex 5.63219 5.77361 8.86194
    endloop
  endfacet
  facet normal 0.707107 0.707107 -5.93568e-16
    outer loop
      vertex 5.7029 5.7029 11.3684
      vertex 5.63219 5.77361 8.86194
      vertex 5.6742 5.7316 11.4105
    endloop
  endfacet
  facet normal 0.707107 0.707107 -5.89474e-16
    outer loop
      vertex 5.77361 5.63219 8.86194
      vertex 5.7029 5.7029 11.3684
      vertex 5.7316 5.6742 11.4105
    endloop
  endfacet
  facet normal 0.707107 0.707107 -0
    outer loop
      vertex 5.77361 5.63219 8.86194
      vertex 5.7316 5.6742 11.4105
      vertex 5.77361 5.63219 11.5005
    endloop
  endfacet
  facet normal 0.707107 0.707107 0
    outer loop
      vertex 5.7029 5.7029 11.3684
      vertex 5.77361 5.63219 8.86194
      vertex 5.63219 5.77361 8.86194
    endloop
  endfacet
  facet normal -0.707107 -0.707107 0
    outer loop
      vertex -5.77361 5.63219 8.86194
      vertex -5.7316 5.59018 11.4105
      vertex -5.77361 5.63219 11.5005
    endloop
  endfacet
  facet normal -0.707107 -0.707107 -0
    outer loop
      vertex -0.141421 0 3.20748
      vertex -5.77361 5.63219 8.86194
      vertex -0.141421 0 1.59128
    endloop
  endfacet
  facet normal -0.707107 -0.707107 2.03581e-09
    outer loop
      vertex -5.77361 5.63219 8.86194
      vertex -0.141421 0 3.20748
      vertex -5.7316 5.59018 11.4105
    endloop
  endfacet
  facet normal -0.707107 -0.707107 0
    outer loop
      vertex -5.77361 5.63219 11.5005
      vertex -5.7316 5.59018 11.4105
      vertex -5.7316 5.59018 11.4387
    endloop
  endfacet
  facet normal -0.509755 -0.509755 0.693036
    outer loop
      vertex 5.63219 5.77361 11.5005
      vertex 5.59018 5.7316 11.4387
      vertex 5.6742 5.7316 11.5005
    endloop
  endfacet
  facet normal -0.509755 -0.509755 0.693036
    outer loop
      vertex 5.7316 5.6742 11.5005
      vertex 5.7316 5.59018 11.4387
      vertex 5.77361 5.63219 11.5005
    endloop
  endfacet
  facet normal 0.707107 -0.707107 0
    outer loop
      vertex 5.7316 5.59018 11.4105
      vertex 5.77361 5.63219 11.5005
      vertex 5.7316 5.59018 11.4387
    endloop
  endfacet
  facet normal 0.707107 -0.707107 0
    outer loop
      vertex 5.77361 5.63219 11.5005
      vertex 5.7316 5.59018 11.4105
      vertex 5.77361 5.63219 8.86194
    endloop
  endfacet
  facet normal 0.707107 -0.707107 2.03581e-09
    outer loop
      vertex 0.141421 0 3.20748
      vertex 5.77361 5.63219 8.86194
      vertex 5.7316 5.59018 11.4105
    endloop
  endfacet
  facet normal 0.707107 -0.707107 0
    outer loop
      vertex 5.77361 5.63219 8.86194
      vertex 0.141421 0 3.20748
      vertex 0.141421 0 1.59128
    endloop
  endfacet
  facet normal 0.707107 -0.707107 0
    outer loop
      vertex -5.59018 -5.7316 11.4387
      vertex -5.63219 -5.77361 11.5005
      vertex -5.59018 -5.7316 11.4105
    endloop
  endfacet
  facet normal 0.707107 -0.707107 2.03581e-09
    outer loop
      vertex -5.63219 -5.77361 8.86194
      vertex 0 -0.141421 3.20748
      vertex -5.59018 -5.7316 11.4105
    endloop
  endfacet
  facet normal 0.707107 -0.707107 0
    outer loop
      vertex 0 -0.141421 3.20748
      vertex -5.63219 -5.77361 8.86194
      vertex 0 -0.141421 1.59128
    endloop
  endfacet
  facet normal 0.707107 -0.707107 0
    outer loop
      vertex -5.63219 -5.77361 8.86194
      vertex -5.59018 -5.7316 11.4105
      vertex -5.63219 -5.77361 11.5005
    endloop
  endfacet
  facet normal -0.707107 0.707107 0
    outer loop
      vertex -5.63219 5.77361 8.86194
      vertex -5.6742 5.7316 11.4105
      vertex -5.63219 5.77361 11.5005
    endloop
  endfacet
  facet normal -0.707107 0.707107 -5.89474e-16
    outer loop
      vertex -5.63219 5.77361 8.86194
      vertex -5.7029 5.7029 11.3684
      vertex -5.6742 5.7316 11.4105
    endloop
  endfacet
  facet normal -0.707107 0.707107 0
    outer loop
      vertex -5.77361 5.63219 8.86194
      vertex -5.7029 5.7029 11.3684
      vertex -5.63219 5.77361 8.86194
    endloop
  endfacet
  facet normal -0.707107 0.707107 -5.93568e-16
    outer loop
      vertex -5.7029 5.7029 11.3684
      vertex -5.77361 5.63219 8.86194
      vertex -5.7316 5.6742 11.4105
    endloop
  endfacet
  facet normal -0.707107 0.707107 0
    outer loop
      vertex -5.77361 5.63219 11.5005
      vertex -5.7316 5.6742 11.4105
      vertex -5.77361 5.63219 8.86194
    endloop
  endfacet
  facet normal -0.707107 0.707107 0
    outer loop
      vertex -5.7316 5.6742 11.4105
      vertex -5.77361 5.63219 11.5005
      vertex -5.7316 5.6742 11.5005
    endloop
  endfacet
  facet normal -0.707107 0.707107 0
    outer loop
      vertex -5.63219 5.77361 11.5005
      vertex -5.6742 5.7316 11.4105
      vertex -5.6742 5.7316 11.5005
    endloop
  endfacet
  facet normal 0.509755 -0.509755 0.693036
    outer loop
      vertex -5.7316 5.6742 11.5005
      vertex -5.77361 5.63219 11.5005
      vertex -5.7316 5.59018 11.4387
    endloop
  endfacet
  facet normal 0.509755 -0.509755 0.693036
    outer loop
      vertex -5.63219 5.77361 11.5005
      vertex -5.6742 5.7316 11.5005
      vertex -5.59018 5.7316 11.4387
    endloop
  endfacet
  facet normal 0.707107 0.707107 -0
    outer loop
      vertex -5.59018 5.7316 11.4105
      vertex -5.63219 5.77361 11.5005
      vertex -5.59018 5.7316 11.4387
    endloop
  endfacet
  facet normal 0.707107 0.707107 0
    outer loop
      vertex -5.63219 5.77361 11.5005
      vertex -5.59018 5.7316 11.4105
      vertex -5.63219 5.77361 8.86194
    endloop
  endfacet
  facet normal 0.707107 0.707107 2.03581e-09
    outer loop
      vertex 0 0.141421 3.20748
      vertex -5.63219 5.77361 8.86194
      vertex -5.59018 5.7316 11.4105
    endloop
  endfacet
  facet normal 0.707107 0.707107 0
    outer loop
      vertex -5.63219 5.77361 8.86194
      vertex 0 0.141421 3.20748
      vertex 0 0.141421 1.59128
    endloop
  endfacet
  facet normal -0.707107 0.707107 0
    outer loop
      vertex -5.77361 -5.63219 8.86194
      vertex -0.141421 0 3.20748
      vertex -0.141421 0 1.59128
    endloop
  endfacet
  facet normal -0.707107 0.707107 2.03581e-09
    outer loop
      vertex -0.141421 0 3.20748
      vertex -5.77361 -5.63219 8.86194
      vertex -5.7316 -5.59018 11.4105
    endloop
  endfacet
  facet normal -0.707107 0.707107 0
    outer loop
      vertex -5.77361 -5.63219 11.5005
      vertex -5.7316 -5.59018 11.4105
      vertex -5.77361 -5.63219 8.86194
    endloop
  endfacet
  facet normal -0.707107 0.707107 0
    outer loop
      vertex -5.7316 -5.59018 11.4105
      vertex -5.77361 -5.63219 11.5005
      vertex -5.7316 -5.59018 11.4387
    endloop
  endfacet
  facet normal -0.707107 -0.707107 0
    outer loop
      vertex -5.77361 -5.63219 8.86194
      vertex -5.7316 -5.6742 11.4105
      vertex -5.77361 -5.63219 11.5005
    endloop
  endfacet
  facet normal -0.707107 -0.707107 -5.89474e-16
    outer loop
      vertex -5.77361 -5.63219 8.86194
      vertex -5.7029 -5.7029 11.3684
      vertex -5.7316 -5.6742 11.4105
    endloop
  endfacet
  facet normal -0.707107 -0.707107 0
    outer loop
      vertex -5.63219 -5.77361 8.86194
      vertex -5.7029 -5.7029 11.3684
      vertex -5.77361 -5.63219 8.86194
    endloop
  endfacet
  facet normal -0.707107 -0.707107 -5.93568e-16
    outer loop
      vertex -5.7029 -5.7029 11.3684
      vertex -5.63219 -5.77361 8.86194
      vertex -5.6742 -5.7316 11.4105
    endloop
  endfacet
  facet normal -0.707107 -0.707107 -0
    outer loop
      vertex -5.63219 -5.77361 11.5005
      vertex -5.6742 -5.7316 11.4105
      vertex -5.63219 -5.77361 8.86194
    endloop
  endfacet
  facet normal -0.707107 -0.707107 0
    outer loop
      vertex -5.6742 -5.7316 11.4105
      vertex -5.63219 -5.77361 11.5005
      vertex -5.6742 -5.7316 11.5005
    endloop
  endfacet
  facet normal -0.707107 -0.707107 0
    outer loop
      vertex -5.77361 -5.63219 11.5005
      vertex -5.7316 -5.6742 11.4105
      vertex -5.7316 -5.6742 11.5005
    endloop
  endfacet
  facet normal 0.509755 0.509755 0.693036
    outer loop
      vertex -5.59018 -5.7316 11.4387
      vertex -5.6742 -5.7316 11.5005
      vertex -5.63219 -5.77361 11.5005
    endloop
  endfacet
  facet normal 0.509755 0.509755 0.693036
    outer loop
      vertex -5.7316 -5.59018 11.4387
      vertex -5.77361 -5.63219 11.5005
      vertex -5.7316 -5.6742 11.5005
    endloop
  endfacet
  facet normal 0.707107 0.707107 0
    outer loop
      vertex 5.7316 -5.59018 11.4387
      vertex 5.77361 -5.63219 11.5005
      vertex 5.7316 -5.59018 11.4105
    endloop
  endfacet
  facet normal 0.707107 0.707107 2.03581e-09
    outer loop
      vertex 5.77361 -5.63219 8.86194
      vertex 0.141421 0 3.20748
      vertex 5.7316 -5.59018 11.4105
    endloop
  endfacet
  facet normal 0.707107 0.707107 0
    outer loop
      vertex 0.141421 0 3.20748
      vertex 5.77361 -5.63219 8.86194
      vertex 0.141421 0 1.59128
    endloop
  endfacet
  facet normal 0.707107 0.707107 -0
    outer loop
      vertex 5.77361 -5.63219 8.86194
      vertex 5.7316 -5.59018 11.4105
      vertex 5.77361 -5.63219 11.5005
    endloop
  endfacet
  facet normal -0.707107 -0.707107 0
    outer loop
      vertex 5.63219 -5.77361 8.86194
      vertex 0 -0.141421 3.20748
      vertex 0 -0.141421 1.59128
    endloop
  endfacet
  facet normal -0.707107 -0.707107 2.03581e-09
    outer loop
      vertex 0 -0.141421 3.20748
      vertex 5.63219 -5.77361 8.86194
      vertex 5.59018 -5.7316 11.4105
    endloop
  endfacet
  facet normal -0.707107 -0.707107 -0
    outer loop
      vertex 5.63219 -5.77361 11.5005
      vertex 5.59018 -5.7316 11.4105
      vertex 5.63219 -5.77361 8.86194
    endloop
  endfacet
  facet normal -0.707107 -0.707107 0
    outer loop
      vertex 5.59018 -5.7316 11.4105
      vertex 5.63219 -5.77361 11.5005
      vertex 5.59018 -5.7316 11.4387
    endloop
  endfacet
  facet normal 0.707107 -0.707107 0
    outer loop
      vertex 5.6742 -5.7316 11.5005
      vertex 5.63219 -5.77361 11.5005
      vertex 5.6742 -5.7316 11.4105
    endloop
  endfacet
  facet normal 0.707107 -0.707107 0
    outer loop
      vertex 5.7316 -5.6742 11.4105
      vertex 5.77361 -5.63219 11.5005
      vertex 5.7316 -5.6742 11.5005
    endloop
  endfacet
  facet normal 0.707107 -0.707107 0
    outer loop
      vertex 5.77361 -5.63219 11.5005
      vertex 5.7316 -5.6742 11.4105
      vertex 5.77361 -5.63219 8.86194
    endloop
  endfacet
  facet normal 0.707107 -0.707107 -5.93568e-16
    outer loop
      vertex 5.7029 -5.7029 11.3684
      vertex 5.77361 -5.63219 8.86194
      vertex 5.7316 -5.6742 11.4105
    endloop
  endfacet
  facet normal 0.707107 -0.707107 -5.89474e-16
    outer loop
      vertex 5.63219 -5.77361 8.86194
      vertex 5.7029 -5.7029 11.3684
      vertex 5.6742 -5.7316 11.4105
    endloop
  endfacet
  facet normal 0.707107 -0.707107 0
    outer loop
      vertex 5.63219 -5.77361 8.86194
      vertex 5.6742 -5.7316 11.4105
      vertex 5.63219 -5.77361 11.5005
    endloop
  endfacet
  facet normal 0.707107 -0.707107 0
    outer loop
      vertex 5.7029 -5.7029 11.3684
      vertex 5.63219 -5.77361 8.86194
      vertex 5.77361 -5.63219 8.86194
    endloop
  endfacet
  facet normal -0.509755 0.509755 0.693036
    outer loop
      vertex 5.7316 -5.59018 11.4387
      vertex 5.7316 -5.6742 11.5005
      vertex 5.77361 -5.63219 11.5005
    endloop
  endfacet
  facet normal -0.509755 0.509755 0.693036
    outer loop
      vertex 5.6742 -5.7316 11.5005
      vertex 5.59018 -5.7316 11.4387
      vertex 5.63219 -5.77361 11.5005
    endloop
  endfacet
  facet normal -0.707107 0.707107 0
    outer loop
      vertex 0 0.282842 1.68256
      vertex 5.59137 5.87421 7.40053
      vertex 0 0.282842 1.15789
    endloop
  endfacet
  facet normal -0.707107 0.707107 0
    outer loop
      vertex 5.59137 5.87421 7.40053
      vertex 0 0.282842 1.68256
      vertex 5.59137 5.87421 8.90053
    endloop
  endfacet
  facet normal 0.707107 0.707107 0
    outer loop
      vertex 5.59137 5.87421 8.90053
      vertex 5.87421 5.59137 8.90053
      vertex 5.59137 5.87421 7.40053
    endloop
  endfacet
  facet normal 0.707107 0.707107 0
    outer loop
      vertex 5.52066 5.94492 7.40053
      vertex 5.59137 5.87421 7.40053
      vertex 5.52066 5.94492 5.90053
    endloop
  endfacet
  facet normal 0.707107 0.707107 0
    outer loop
      vertex 5.44995 6.01563 5.90053
      vertex 5.52066 5.94492 5.90053
      vertex 5.44995 6.01563 4.40053
    endloop
  endfacet
  facet normal 0.707107 0.707107 0
    outer loop
      vertex 5.37924 6.08634 4.40053
      vertex 5.44995 6.01563 4.40053
      vertex 5.37924 6.08634 2.90053
    endloop
  endfacet
  facet normal 0.707107 0.707107 0
    outer loop
      vertex 5.37924 6.08634 2.90053
      vertex 5.30853 6.15705 0
      vertex 5.30853 6.15705 2.90053
    endloop
  endfacet
  facet normal 0.707107 0.707107 0
    outer loop
      vertex 6.08634 5.37924 2.90053
      vertex 5.37924 6.08634 2.90053
      vertex 5.44995 6.01563 4.40053
    endloop
  endfacet
  facet normal 0.707107 0.707107 0
    outer loop
      vertex 6.01563 5.44995 4.40053
      vertex 5.44995 6.01563 4.40053
      vertex 5.52066 5.94492 5.90053
    endloop
  endfacet
  facet normal 0.707107 0.707107 0
    outer loop
      vertex 5.94492 5.52066 5.90053
      vertex 5.52066 5.94492 5.90053
      vertex 5.59137 5.87421 7.40053
    endloop
  endfacet
  facet normal 0.707107 0.707107 -0
    outer loop
      vertex 5.87421 5.59137 7.40053
      vertex 5.59137 5.87421 7.40053
      vertex 5.87421 5.59137 8.90053
    endloop
  endfacet
  facet normal 0.707107 0.707107 0
    outer loop
      vertex 5.94492 5.52066 5.90053
      vertex 5.59137 5.87421 7.40053
      vertex 5.87421 5.59137 7.40053
    endloop
  endfacet
  facet normal 0.707107 0.707107 -0
    outer loop
      vertex 5.94492 5.52066 5.90053
      vertex 5.87421 5.59137 7.40053
      vertex 5.94492 5.52066 7.40053
    endloop
  endfacet
  facet normal 0.707107 0.707107 0
    outer loop
      vertex 5.52066 5.94492 5.90053
      vertex 5.94492 5.52066 5.90053
      vertex 6.01563 5.44995 4.40053
    endloop
  endfacet
  facet normal 0.707107 0.707107 -0
    outer loop
      vertex 6.01563 5.44995 4.40053
      vertex 5.94492 5.52066 5.90053
      vertex 6.01563 5.44995 5.90053
    endloop
  endfacet
  facet normal 0.707107 0.707107 0
    outer loop
      vertex 5.44995 6.01563 4.40053
      vertex 6.01563 5.44995 4.40053
      vertex 6.08634 5.37924 2.90053
    endloop
  endfacet
  facet normal 0.707107 0.707107 -0
    outer loop
      vertex 6.08634 5.37924 2.90053
      vertex 6.01563 5.44995 4.40053
      vertex 6.08634 5.37924 4.40053
    endloop
  endfacet
  facet normal 0.707107 0.707107 0
    outer loop
      vertex 5.37924 6.08634 2.90053
      vertex 6.08634 5.37924 2.90053
      vertex 5.30853 6.15705 0
    endloop
  endfacet
  facet normal 0.707107 0.707107 -0
    outer loop
      vertex 6.15705 5.30853 0
      vertex 6.08634 5.37924 2.90053
      vertex 6.15705 5.30853 2.90053
    endloop
  endfacet
  facet normal 0.707107 0.707107 0
    outer loop
      vertex 6.08634 5.37924 2.90053
      vertex 6.15705 5.30853 0
      vertex 5.30853 6.15705 0
    endloop
  endfacet
  facet normal -0.476746 -0.476746 0.73853
    outer loop
      vertex 5.87421 5.59137 8.90053
      vertex 5.63219 5.77361 8.86194
      vertex 5.77361 5.63219 8.86194
    endloop
  endfacet
  facet normal -0.476746 -0.476746 0.73853
    outer loop
      vertex 5.59137 5.87421 8.90053
      vertex 5.63219 5.77361 8.86194
      vertex 5.87421 5.59137 8.90053
    endloop
  endfacet
  facet normal -0.476691 -0.476739 0.73857
    outer loop
      vertex 0 0.282842 1.68256
      vertex 5.63219 5.77361 8.86194
      vertex 5.59137 5.87421 8.90053
    endloop
  endfacet
  facet normal -0.47672 -0.476709 0.73857
    outer loop
      vertex 5.63219 5.77361 8.86194
      vertex 0 0.282842 1.68256
      vertex 0 0.141421 1.59128
    endloop
  endfacet
  facet normal -0.476739 -0.476691 0.73857
    outer loop
      vertex 5.77361 5.63219 8.86194
      vertex 0.282842 0 1.68256
      vertex 5.87421 5.59137 8.90053
    endloop
  endfacet
  facet normal -0.476709 -0.47672 0.73857
    outer loop
      vertex 0.282842 0 1.68256
      vertex 5.77361 5.63219 8.86194
      vertex 0.141421 0 1.59128
    endloop
  endfacet
  facet normal 0.707107 -0.707107 0
    outer loop
      vertex 0.282842 0 1.68256
      vertex 5.87421 5.59137 7.40053
      vertex 5.87421 5.59137 8.90053
    endloop
  endfacet
  facet normal 0.707107 -0.707107 0
    outer loop
      vertex 5.87421 5.59137 7.40053
      vertex 0.282842 0 1.68256
      vertex 0.282842 0 1.15789
    endloop
  endfacet
  facet normal 0.707107 -0.707107 0
    outer loop
      vertex -5.59137 -5.87421 7.40053
      vertex 0 -0.282842 1.68256
      vertex -5.59137 -5.87421 8.90053
    endloop
  endfacet
  facet normal 0.707107 -0.707107 0
    outer loop
      vertex 0 -0.282842 1.68256
      vertex -5.59137 -5.87421 7.40053
      vertex 0 -0.282842 1.15789
    endloop
  endfacet
  facet normal -0.707107 0.707107 0
    outer loop
      vertex 0 0.424263 1.23684
      vertex 5.52066 5.94492 5.90053
      vertex 0 0.424263 0.699837
    endloop
  endfacet
  facet normal -0.707107 0.707107 0
    outer loop
      vertex 5.52066 5.94492 5.90053
      vertex 0 0.424263 1.23684
      vertex 5.52066 5.94492 7.40053
    endloop
  endfacet
  facet normal 0.707107 -0.707107 0
    outer loop
      vertex 0.424263 0 1.23684
      vertex 5.94492 5.52066 5.90053
      vertex 5.94492 5.52066 7.40053
    endloop
  endfacet
  facet normal 0.707107 -0.707107 0
    outer loop
      vertex 5.94492 5.52066 5.90053
      vertex 0.424263 0 1.23684
      vertex 0.424263 0 0.699837
    endloop
  endfacet
  facet normal 0.707107 -0.707107 0
    outer loop
      vertex -5.52066 -5.94492 5.90053
      vertex 0 -0.424263 1.23684
      vertex -5.52066 -5.94492 7.40053
    endloop
  endfacet
  facet normal 0.707107 -0.707107 0
    outer loop
      vertex 0 -0.424263 1.23684
      vertex -5.52066 -5.94492 5.90053
      vertex 0 -0.424263 0.699837
    endloop
  endfacet
  facet normal -0.438153 -0.438153 0.784885
    outer loop
      vertex 0 0.424263 1.23684
      vertex 5.59137 5.87421 7.40053
      vertex 5.52066 5.94492 7.40053
    endloop
  endfacet
  facet normal -0.438135 -0.438171 0.784885
    outer loop
      vertex 5.59137 5.87421 7.40053
      vertex 0 0.424263 1.23684
      vertex 0 0.282842 1.15789
    endloop
  endfacet
  facet normal -0.438153 -0.438153 0.784885
    outer loop
      vertex 5.87421 5.59137 7.40053
      vertex 0.424263 0 1.23684
      vertex 5.94492 5.52066 7.40053
    endloop
  endfacet
  facet normal -0.438171 -0.438135 0.784885
    outer loop
      vertex 0.424263 0 1.23684
      vertex 5.87421 5.59137 7.40053
      vertex 0.282842 0 1.15789
    endloop
  endfacet
  facet normal -0.707106 0.707107 0
    outer loop
      vertex 0 0.565685 0.766449
      vertex 5.44995 6.01563 4.40053
      vertex 0 0.565685 0.217112
    endloop
  endfacet
  facet normal -0.707106 0.707107 0
    outer loop
      vertex 5.44995 6.01563 4.40053
      vertex 0 0.565685 0.766449
      vertex 5.44995 6.01563 5.90053
    endloop
  endfacet
  facet normal -0.392011 -0.392011 0.832258
    outer loop
      vertex 0 0.565685 0.766449
      vertex 5.52066 5.94492 5.90053
      vertex 5.44995 6.01563 5.90053
    endloop
  endfacet
  facet normal -0.392016 -0.392007 0.832259
    outer loop
      vertex 5.52066 5.94492 5.90053
      vertex 0 0.565685 0.766449
      vertex 0 0.424263 0.699837
    endloop
  endfacet
  facet normal -0.392011 -0.392011 0.832258
    outer loop
      vertex 5.94492 5.52066 5.90053
      vertex 0.565685 0 0.766449
      vertex 6.01563 5.44995 5.90053
    endloop
  endfacet
  facet normal -0.392007 -0.392016 0.832259
    outer loop
      vertex 0.565685 0 0.766449
      vertex 5.94492 5.52066 5.90053
      vertex 0.424263 0 0.699837
    endloop
  endfacet
  facet normal 0.707107 -0.707106 0
    outer loop
      vertex 0.565685 0 0.766449
      vertex 6.01563 5.44995 4.40053
      vertex 6.01563 5.44995 5.90053
    endloop
  endfacet
  facet normal 0.707107 -0.707106 0
    outer loop
      vertex 6.01563 5.44995 4.40053
      vertex 0.565685 0 0.766449
      vertex 0.565685 0 0.217112
    endloop
  endfacet
  facet normal 0.707106 -0.707107 0
    outer loop
      vertex -5.44995 -6.01563 4.40053
      vertex 0 -0.565685 0.766449
      vertex -5.44995 -6.01563 5.90053
    endloop
  endfacet
  facet normal 0.707106 -0.707107 0
    outer loop
      vertex 0 -0.565685 0.766449
      vertex -5.44995 -6.01563 4.40053
      vertex 0 -0.565685 0.217112
    endloop
  endfacet
  facet normal -0.707107 0.707107 8.81949e-07
    outer loop
      vertex 0 0.707107 0.27139
      vertex 5.37924 6.08634 2.90053
      vertex 0.489373 1.19648 0
    endloop
  endfacet
  facet normal -0.707107 0.707107 0
    outer loop
      vertex 0 0.707107 0.27139
      vertex 0.489373 1.19648 0
      vertex 0 0.707107 0
    endloop
  endfacet
  facet normal -0.707106 0.707107 0
    outer loop
      vertex 5.37924 6.08634 2.90053
      vertex 0 0.707107 0.27139
      vertex 5.37924 6.08634 4.40053
    endloop
  endfacet
  facet normal -0.337318 -0.337318 0.878882
    outer loop
      vertex 0 0.707107 0.27139
      vertex 5.44995 6.01563 4.40053
      vertex 5.37924 6.08634 4.40053
    endloop
  endfacet
  facet normal -0.33732 -0.337316 0.878882
    outer loop
      vertex 5.44995 6.01563 4.40053
      vertex 0 0.707107 0.27139
      vertex 0 0.565685 0.217112
    endloop
  endfacet
  facet normal -0.337318 -0.337318 0.878882
    outer loop
      vertex 6.01563 5.44995 4.40053
      vertex 0.707107 0 0.27139
      vertex 6.08634 5.37924 4.40053
    endloop
  endfacet
  facet normal -0.337316 -0.33732 0.878882
    outer loop
      vertex 0.707107 0 0.27139
      vertex 6.01563 5.44995 4.40053
      vertex 0.565685 0 0.217112
    endloop
  endfacet
  facet normal 0.707107 -0.707106 0
    outer loop
      vertex 0.707107 0 0.27139
      vertex 6.08634 5.37924 2.90053
      vertex 6.08634 5.37924 4.40053
    endloop
  endfacet
  facet normal 0.707107 -0.707107 8.81949e-07
    outer loop
      vertex 6.08634 5.37924 2.90053
      vertex 0.707107 0 0.27139
      vertex 1.19648 0.489373 0
    endloop
  endfacet
  facet normal 0.707107 -0.707107 0
    outer loop
      vertex 1.19648 0.489373 0
      vertex 0.707107 0 0.27139
      vertex 0.707107 0 0
    endloop
  endfacet
  facet normal 0.707107 -0.707107 0
    outer loop
      vertex 0 -0.707107 0.27139
      vertex -0.489373 -1.19648 0
      vertex 0 -0.707107 0
    endloop
  endfacet
  facet normal 0.707106 -0.707107 0
    outer loop
      vertex -5.37924 -6.08634 2.90053
      vertex 0 -0.707107 0.27139
      vertex -5.37924 -6.08634 4.40053
    endloop
  endfacet
  facet normal 0.707107 -0.707107 8.81949e-07
    outer loop
      vertex 0 -0.707107 0.27139
      vertex -5.37924 -6.08634 2.90053
      vertex -0.489373 -1.19648 0
    endloop
  endfacet
  facet normal -0.707106 0.707107 0
    outer loop
      vertex 5.30853 6.15705 0
      vertex 0.418663 1.26719 0
      vertex 5.30853 6.15705 2.90053
    endloop
  endfacet
  facet normal -0.273502 -0.273502 0.922168
    outer loop
      vertex 5.30853 6.15705 2.90053
      vertex 0.489373 1.19648 0
      vertex 5.37924 6.08634 2.90053
    endloop
  endfacet
  facet normal -0.273502 -0.273502 0.922168
    outer loop
      vertex 0.489373 1.19648 0
      vertex 5.30853 6.15705 2.90053
      vertex 0.418663 1.26719 0
    endloop
  endfacet
  facet normal -0.273502 -0.273502 0.922168
    outer loop
      vertex 6.08634 5.37924 2.90053
      vertex 1.26719 0.418663 0
      vertex 6.15705 5.30853 2.90053
    endloop
  endfacet
  facet normal -0.273502 -0.273502 0.922168
    outer loop
      vertex 1.26719 0.418663 0
      vertex 6.08634 5.37924 2.90053
      vertex 1.19648 0.489373 0
    endloop
  endfacet
  facet normal 0.707107 -0.707106 0
    outer loop
      vertex 6.15705 5.30853 2.90053
      vertex 1.26719 0.418663 0
      vertex 6.15705 5.30853 0
    endloop
  endfacet
  facet normal 0.707106 -0.707107 0
    outer loop
      vertex -5.30853 -6.15705 2.90053
      vertex -5.30853 -6.15705 0
      vertex -0.418663 -1.26719 0
    endloop
  endfacet
  facet normal -0.707107 -0.707107 -0
    outer loop
      vertex -0.282842 0 1.68256
      vertex -5.87421 5.59137 7.40053
      vertex -0.282842 0 1.15789
    endloop
  endfacet
  facet normal -0.707107 -0.707107 0
    outer loop
      vertex -5.87421 5.59137 7.40053
      vertex -0.282842 0 1.68256
      vertex -5.87421 5.59137 8.90053
    endloop
  endfacet
  facet normal -0.707107 0.707107 0
    outer loop
      vertex -5.30853 6.15705 0
      vertex -5.37924 6.08634 2.90053
      vertex -5.30853 6.15705 2.90053
    endloop
  endfacet
  facet normal -0.707107 0.707107 0
    outer loop
      vertex -5.37924 6.08634 2.90053
      vertex -5.44995 6.01563 4.40053
      vertex -5.37924 6.08634 4.40053
    endloop
  endfacet
  facet normal -0.707107 0.707107 0
    outer loop
      vertex -6.08634 5.37924 2.90053
      vertex -5.37924 6.08634 2.90053
      vertex -5.30853 6.15705 0
    endloop
  endfacet
  facet normal -0.707107 0.707107 0
    outer loop
      vertex -5.44995 6.01563 4.40053
      vertex -5.52066 5.94492 5.90053
      vertex -5.44995 6.01563 5.90053
    endloop
  endfacet
  facet normal -0.707107 0.707107 0
    outer loop
      vertex -5.37924 6.08634 2.90053
      vertex -6.08634 5.37924 2.90053
      vertex -5.44995 6.01563 4.40053
    endloop
  endfacet
  facet normal -0.707107 0.707107 0
    outer loop
      vertex -5.52066 5.94492 5.90053
      vertex -5.59137 5.87421 7.40053
      vertex -5.52066 5.94492 7.40053
    endloop
  endfacet
  facet normal -0.707107 0.707107 0
    outer loop
      vertex -6.01563 5.44995 4.40053
      vertex -5.44995 6.01563 4.40053
      vertex -6.08634 5.37924 2.90053
    endloop
  endfacet
  facet normal -0.707107 0.707107 0
    outer loop
      vertex -5.59137 5.87421 7.40053
      vertex -5.87421 5.59137 7.40053
      vertex -5.59137 5.87421 8.90053
    endloop
  endfacet
  facet normal -0.707107 0.707107 0
    outer loop
      vertex -5.94492 5.52066 5.90053
      vertex -5.52066 5.94492 5.90053
      vertex -6.01563 5.44995 4.40053
    endloop
  endfacet
  facet normal -0.707107 0.707107 0
    outer loop
      vertex -5.59137 5.87421 7.40053
      vertex -5.94492 5.52066 5.90053
      vertex -5.87421 5.59137 7.40053
    endloop
  endfacet
  facet normal -0.707107 0.707107 0
    outer loop
      vertex -5.52066 5.94492 5.90053
      vertex -5.94492 5.52066 5.90053
      vertex -5.59137 5.87421 7.40053
    endloop
  endfacet
  facet normal -0.707107 0.707107 0
    outer loop
      vertex -5.44995 6.01563 4.40053
      vertex -6.01563 5.44995 4.40053
      vertex -5.52066 5.94492 5.90053
    endloop
  endfacet
  facet normal -0.707107 0.707107 0
    outer loop
      vertex -6.15705 5.30853 0
      vertex -6.08634 5.37924 2.90053
      vertex -5.30853 6.15705 0
    endloop
  endfacet
  facet normal -0.707107 0.707107 0
    outer loop
      vertex -6.08634 5.37924 2.90053
      vertex -6.15705 5.30853 0
      vertex -6.15705 5.30853 2.90053
    endloop
  endfacet
  facet normal -0.707107 0.707107 0
    outer loop
      vertex -5.59137 5.87421 8.90053
      vertex -5.87421 5.59137 7.40053
      vertex -5.87421 5.59137 8.90053
    endloop
  endfacet
  facet normal -0.707107 0.707107 0
    outer loop
      vertex -5.87421 5.59137 7.40053
      vertex -5.94492 5.52066 5.90053
      vertex -5.94492 5.52066 7.40053
    endloop
  endfacet
  facet normal -0.707107 0.707107 0
    outer loop
      vertex -5.94492 5.52066 5.90053
      vertex -6.01563 5.44995 4.40053
      vertex -6.01563 5.44995 5.90053
    endloop
  endfacet
  facet normal -0.707107 0.707107 0
    outer loop
      vertex -6.01563 5.44995 4.40053
      vertex -6.08634 5.37924 2.90053
      vertex -6.08634 5.37924 4.40053
    endloop
  endfacet
  facet normal 0.476691 -0.476739 0.73857
    outer loop
      vertex -5.63219 5.77361 8.86194
      vertex 0 0.282842 1.68256
      vertex -5.59137 5.87421 8.90053
    endloop
  endfacet
  facet normal 0.47672 -0.476709 0.73857
    outer loop
      vertex 0 0.282842 1.68256
      vertex -5.63219 5.77361 8.86194
      vertex 0 0.141421 1.59128
    endloop
  endfacet
  facet normal 0.476746 -0.476746 0.73853
    outer loop
      vertex -5.59137 5.87421 8.90053
      vertex -5.77361 5.63219 8.86194
      vertex -5.63219 5.77361 8.86194
    endloop
  endfacet
  facet normal 0.476746 -0.476746 0.73853
    outer loop
      vertex -5.77361 5.63219 8.86194
      vertex -5.59137 5.87421 8.90053
      vertex -5.87421 5.59137 8.90053
    endloop
  endfacet
  facet normal 0.476709 -0.47672 0.73857
    outer loop
      vertex -5.77361 5.63219 8.86194
      vertex -0.282842 0 1.68256
      vertex -0.141421 0 1.59128
    endloop
  endfacet
  facet normal 0.476739 -0.476691 0.73857
    outer loop
      vertex -0.282842 0 1.68256
      vertex -5.77361 5.63219 8.86194
      vertex -5.87421 5.59137 8.90053
    endloop
  endfacet
  facet normal 0.707107 0.707107 0
    outer loop
      vertex 0 0.282842 1.68256
      vertex -5.59137 5.87421 7.40053
      vertex -5.59137 5.87421 8.90053
    endloop
  endfacet
  facet normal 0.707107 0.707107 0
    outer loop
      vertex -5.59137 5.87421 7.40053
      vertex 0 0.282842 1.68256
      vertex 0 0.282842 1.15789
    endloop
  endfacet
  facet normal -0.707107 -0.707107 -0
    outer loop
      vertex -0.424263 0 1.23684
      vertex -5.94492 5.52066 5.90053
      vertex -0.424263 0 0.699837
    endloop
  endfacet
  facet normal -0.707107 -0.707107 0
    outer loop
      vertex -5.94492 5.52066 5.90053
      vertex -0.424263 0 1.23684
      vertex -5.94492 5.52066 7.40053
    endloop
  endfacet
  facet normal 0.707107 0.707107 0
    outer loop
      vertex 0 0.424263 1.23684
      vertex -5.52066 5.94492 5.90053
      vertex -5.52066 5.94492 7.40053
    endloop
  endfacet
  facet normal 0.707107 0.707107 0
    outer loop
      vertex -5.52066 5.94492 5.90053
      vertex 0 0.424263 1.23684
      vertex 0 0.424263 0.699837
    endloop
  endfacet
  facet normal 0.438171 -0.438135 0.784885
    outer loop
      vertex -5.87421 5.59137 7.40053
      vertex -0.424263 0 1.23684
      vertex -0.282842 0 1.15789
    endloop
  endfacet
  facet normal 0.438153 -0.438153 0.784885
    outer loop
      vertex -0.424263 0 1.23684
      vertex -5.87421 5.59137 7.40053
      vertex -5.94492 5.52066 7.40053
    endloop
  endfacet
  facet normal 0.438153 -0.438153 0.784885
    outer loop
      vertex -5.59137 5.87421 7.40053
      vertex 0 0.424263 1.23684
      vertex -5.52066 5.94492 7.40053
    endloop
  endfacet
  facet normal 0.438135 -0.438171 0.784885
    outer loop
      vertex 0 0.424263 1.23684
      vertex -5.59137 5.87421 7.40053
      vertex 0 0.282842 1.15789
    endloop
  endfacet
  facet normal -0.707107 -0.707106 0
    outer loop
      vertex -6.01563 5.44995 4.40053
      vertex -0.565685 0 0.766449
      vertex -6.01563 5.44995 5.90053
    endloop
  endfacet
  facet normal -0.707107 -0.707106 -0
    outer loop
      vertex -0.565685 0 0.766449
      vertex -6.01563 5.44995 4.40053
      vertex -0.565685 0 0.217112
    endloop
  endfacet
  facet normal 0.392007 -0.392016 0.832259
    outer loop
      vertex -5.94492 5.52066 5.90053
      vertex -0.565685 0 0.766449
      vertex -0.424263 0 0.699837
    endloop
  endfacet
  facet normal 0.392011 -0.392011 0.832258
    outer loop
      vertex -0.565685 0 0.766449
      vertex -5.94492 5.52066 5.90053
      vertex -6.01563 5.44995 5.90053
    endloop
  endfacet
  facet normal 0.392011 -0.392011 0.832258
    outer loop
      vertex -5.52066 5.94492 5.90053
      vertex 0 0.565685 0.766449
      vertex -5.44995 6.01563 5.90053
    endloop
  endfacet
  facet normal 0.392016 -0.392007 0.832259
    outer loop
      vertex 0 0.565685 0.766449
      vertex -5.52066 5.94492 5.90053
      vertex 0 0.424263 0.699837
    endloop
  endfacet
  facet normal 0.707106 0.707107 0
    outer loop
      vertex 0 0.565685 0.766449
      vertex -5.44995 6.01563 4.40053
      vertex -5.44995 6.01563 5.90053
    endloop
  endfacet
  facet normal 0.707106 0.707107 0
    outer loop
      vertex -5.44995 6.01563 4.40053
      vertex 0 0.565685 0.766449
      vertex 0 0.565685 0.217112
    endloop
  endfacet
  facet normal -0.707107 -0.707107 8.81949e-07
    outer loop
      vertex -0.707107 0 0.27139
      vertex -6.08634 5.37924 2.90053
      vertex -1.19648 0.489373 0
    endloop
  endfacet
  facet normal -0.707107 -0.707107 -0
    outer loop
      vertex -0.707107 0 0.27139
      vertex -1.19648 0.489373 0
      vertex -0.707107 0 0
    endloop
  endfacet
  facet normal -0.707107 -0.707106 0
    outer loop
      vertex -6.08634 5.37924 2.90053
      vertex -0.707107 0 0.27139
      vertex -6.08634 5.37924 4.40053
    endloop
  endfacet
  facet normal 0.337316 -0.33732 0.878882
    outer loop
      vertex -6.01563 5.44995 4.40053
      vertex -0.707107 0 0.27139
      vertex -0.565685 0 0.217112
    endloop
  endfacet
  facet normal 0.337318 -0.337318 0.878882
    outer loop
      vertex -0.707107 0 0.27139
      vertex -6.01563 5.44995 4.40053
      vertex -6.08634 5.37924 4.40053
    endloop
  endfacet
  facet normal 0.337318 -0.337318 0.878882
    outer loop
      vertex -5.44995 6.01563 4.40053
      vertex 0 0.707107 0.27139
      vertex -5.37924 6.08634 4.40053
    endloop
  endfacet
  facet normal 0.33732 -0.337316 0.878882
    outer loop
      vertex 0 0.707107 0.27139
      vertex -5.44995 6.01563 4.40053
      vertex 0 0.565685 0.217112
    endloop
  endfacet
  facet normal 0.707106 0.707107 0
    outer loop
      vertex 0 0.707107 0.27139
      vertex -5.37924 6.08634 2.90053
      vertex -5.37924 6.08634 4.40053
    endloop
  endfacet
  facet normal 0.707107 0.707107 8.81949e-07
    outer loop
      vertex -5.37924 6.08634 2.90053
      vertex 0 0.707107 0.27139
      vertex -0.489373 1.19648 0
    endloop
  endfacet
  facet normal 0.707107 0.707107 0
    outer loop
      vertex -0.489373 1.19648 0
      vertex 0 0.707107 0.27139
      vertex 0 0.707107 0
    endloop
  endfacet
  facet normal -0.707107 -0.707106 -0
    outer loop
      vertex -6.15705 5.30853 2.90053
      vertex -6.15705 5.30853 0
      vertex -1.26719 0.418663 0
    endloop
  endfacet
  facet normal 0.273502 -0.273502 0.922168
    outer loop
      vertex -6.08634 5.37924 2.90053
      vertex -1.26719 0.418663 0
      vertex -1.19648 0.489373 0
    endloop
  endfacet
  facet normal 0.273502 -0.273502 0.922168
    outer loop
      vertex -1.26719 0.418663 0
      vertex -6.08634 5.37924 2.90053
      vertex -6.15705 5.30853 2.90053
    endloop
  endfacet
  facet normal 0.273502 -0.273502 0.922168
    outer loop
      vertex -5.30853 6.15705 2.90053
      vertex -0.489373 1.19648 0
      vertex -0.418663 1.26719 0
    endloop
  endfacet
  facet normal 0.273502 -0.273502 0.922168
    outer loop
      vertex -0.489373 1.19648 0
      vertex -5.30853 6.15705 2.90053
      vertex -5.37924 6.08634 2.90053
    endloop
  endfacet
  facet normal 0.707106 0.707107 0
    outer loop
      vertex -0.418663 1.26719 0
      vertex -5.30853 6.15705 0
      vertex -5.30853 6.15705 2.90053
    endloop
  endfacet
  facet normal -0.707107 -0.707107 0
    outer loop
      vertex -6.15705 -5.30853 0
      vertex -6.08634 -5.37924 2.90053
      vertex -6.15705 -5.30853 2.90053
    endloop
  endfacet
  facet normal -0.707107 -0.707107 0
    outer loop
      vertex -6.08634 -5.37924 2.90053
      vertex -6.01563 -5.44995 4.40053
      vertex -6.08634 -5.37924 4.40053
    endloop
  endfacet
  facet normal -0.707107 -0.707107 0
    outer loop
      vertex -5.37924 -6.08634 2.90053
      vertex -6.08634 -5.37924 2.90053
      vertex -6.15705 -5.30853 0
    endloop
  endfacet
  facet normal -0.707107 -0.707107 0
    outer loop
      vertex -6.01563 -5.44995 4.40053
      vertex -5.94492 -5.52066 5.90053
      vertex -6.01563 -5.44995 5.90053
    endloop
  endfacet
  facet normal -0.707107 -0.707107 0
    outer loop
      vertex -6.08634 -5.37924 2.90053
      vertex -5.37924 -6.08634 2.90053
      vertex -6.01563 -5.44995 4.40053
    endloop
  endfacet
  facet normal -0.707107 -0.707107 0
    outer loop
      vertex -5.94492 -5.52066 5.90053
      vertex -5.87421 -5.59137 7.40053
      vertex -5.94492 -5.52066 7.40053
    endloop
  endfacet
  facet normal -0.707107 -0.707107 0
    outer loop
      vertex -5.44995 -6.01563 4.40053
      vertex -6.01563 -5.44995 4.40053
      vertex -5.37924 -6.08634 2.90053
    endloop
  endfacet
  facet normal -0.707107 -0.707107 0
    outer loop
      vertex -5.87421 -5.59137 7.40053
      vertex -5.59137 -5.87421 7.40053
      vertex -5.87421 -5.59137 8.90053
    endloop
  endfacet
  facet normal -0.707107 -0.707107 0
    outer loop
      vertex -5.52066 -5.94492 5.90053
      vertex -5.94492 -5.52066 5.90053
      vertex -5.44995 -6.01563 4.40053
    endloop
  endfacet
  facet normal -0.707107 -0.707107 0
    outer loop
      vertex -5.87421 -5.59137 7.40053
      vertex -5.52066 -5.94492 5.90053
      vertex -5.59137 -5.87421 7.40053
    endloop
  endfacet
  facet normal -0.707107 -0.707107 0
    outer loop
      vertex -5.94492 -5.52066 5.90053
      vertex -5.52066 -5.94492 5.90053
      vertex -5.87421 -5.59137 7.40053
    endloop
  endfacet
  facet normal -0.707107 -0.707107 0
    outer loop
      vertex -6.01563 -5.44995 4.40053
      vertex -5.44995 -6.01563 4.40053
      vertex -5.94492 -5.52066 5.90053
    endloop
  endfacet
  facet normal -0.707107 -0.707107 0
    outer loop
      vertex -5.30853 -6.15705 0
      vertex -5.37924 -6.08634 2.90053
      vertex -6.15705 -5.30853 0
    endloop
  endfacet
  facet normal -0.707107 -0.707107 0
    outer loop
      vertex -5.37924 -6.08634 2.90053
      vertex -5.30853 -6.15705 0
      vertex -5.30853 -6.15705 2.90053
    endloop
  endfacet
  facet normal -0.707107 -0.707107 0
    outer loop
      vertex -5.87421 -5.59137 8.90053
      vertex -5.59137 -5.87421 7.40053
      vertex -5.59137 -5.87421 8.90053
    endloop
  endfacet
  facet normal -0.707107 -0.707107 0
    outer loop
      vertex -5.59137 -5.87421 7.40053
      vertex -5.52066 -5.94492 5.90053
      vertex -5.52066 -5.94492 7.40053
    endloop
  endfacet
  facet normal -0.707107 -0.707107 0
    outer loop
      vertex -5.52066 -5.94492 5.90053
      vertex -5.44995 -6.01563 4.40053
      vertex -5.44995 -6.01563 5.90053
    endloop
  endfacet
  facet normal -0.707107 -0.707107 0
    outer loop
      vertex -5.44995 -6.01563 4.40053
      vertex -5.37924 -6.08634 2.90053
      vertex -5.37924 -6.08634 4.40053
    endloop
  endfacet
  facet normal 0.476709 0.47672 0.73857
    outer loop
      vertex -0.282842 0 1.68256
      vertex -5.77361 -5.63219 8.86194
      vertex -0.141421 0 1.59128
    endloop
  endfacet
  facet normal 0.476739 0.476691 0.73857
    outer loop
      vertex -5.77361 -5.63219 8.86194
      vertex -0.282842 0 1.68256
      vertex -5.87421 -5.59137 8.90053
    endloop
  endfacet
  facet normal 0.47672 0.476709 0.73857
    outer loop
      vertex -5.63219 -5.77361 8.86194
      vertex 0 -0.282842 1.68256
      vertex 0 -0.141421 1.59128
    endloop
  endfacet
  facet normal 0.476691 0.476739 0.73857
    outer loop
      vertex 0 -0.282842 1.68256
      vertex -5.63219 -5.77361 8.86194
      vertex -5.59137 -5.87421 8.90053
    endloop
  endfacet
  facet normal 0.476746 0.476746 0.73853
    outer loop
      vertex -5.77361 -5.63219 8.86194
      vertex -5.59137 -5.87421 8.90053
      vertex -5.63219 -5.77361 8.86194
    endloop
  endfacet
  facet normal 0.476746 0.476746 0.73853
    outer loop
      vertex -5.59137 -5.87421 8.90053
      vertex -5.77361 -5.63219 8.86194
      vertex -5.87421 -5.59137 8.90053
    endloop
  endfacet
  facet normal -0.707107 0.707107 0
    outer loop
      vertex -5.87421 -5.59137 7.40053
      vertex -0.282842 0 1.68256
      vertex -0.282842 0 1.15789
    endloop
  endfacet
  facet normal -0.707107 0.707107 0
    outer loop
      vertex -0.282842 0 1.68256
      vertex -5.87421 -5.59137 7.40053
      vertex -5.87421 -5.59137 8.90053
    endloop
  endfacet
  facet normal -0.707107 0.707107 0
    outer loop
      vertex -5.94492 -5.52066 5.90053
      vertex -0.424263 0 1.23684
      vertex -0.424263 0 0.699837
    endloop
  endfacet
  facet normal -0.707107 0.707107 0
    outer loop
      vertex -0.424263 0 1.23684
      vertex -5.94492 -5.52066 5.90053
      vertex -5.94492 -5.52066 7.40053
    endloop
  endfacet
  facet normal 0.438135 0.438171 0.784885
    outer loop
      vertex -5.59137 -5.87421 7.40053
      vertex 0 -0.424263 1.23684
      vertex 0 -0.282842 1.15789
    endloop
  endfacet
  facet normal 0.438153 0.438153 0.784885
    outer loop
      vertex 0 -0.424263 1.23684
      vertex -5.59137 -5.87421 7.40053
      vertex -5.52066 -5.94492 7.40053
    endloop
  endfacet
  facet normal 0.438171 0.438135 0.784885
    outer loop
      vertex -0.424263 0 1.23684
      vertex -5.87421 -5.59137 7.40053
      vertex -0.282842 0 1.15789
    endloop
  endfacet
  facet normal 0.438153 0.438153 0.784885
    outer loop
      vertex -5.87421 -5.59137 7.40053
      vertex -0.424263 0 1.23684
      vertex -5.94492 -5.52066 7.40053
    endloop
  endfacet
  facet normal 0.392016 0.392007 0.832259
    outer loop
      vertex -5.52066 -5.94492 5.90053
      vertex 0 -0.565685 0.766449
      vertex 0 -0.424263 0.699837
    endloop
  endfacet
  facet normal 0.392011 0.392011 0.832258
    outer loop
      vertex 0 -0.565685 0.766449
      vertex -5.52066 -5.94492 5.90053
      vertex -5.44995 -6.01563 5.90053
    endloop
  endfacet
  facet normal 0.392007 0.392016 0.832259
    outer loop
      vertex -0.565685 0 0.766449
      vertex -5.94492 -5.52066 5.90053
      vertex -0.424263 0 0.699837
    endloop
  endfacet
  facet normal 0.392011 0.392011 0.832258
    outer loop
      vertex -5.94492 -5.52066 5.90053
      vertex -0.565685 0 0.766449
      vertex -6.01563 -5.44995 5.90053
    endloop
  endfacet
  facet normal -0.707107 0.707106 0
    outer loop
      vertex -0.565685 0 0.766449
      vertex -6.01563 -5.44995 4.40053
      vertex -6.01563 -5.44995 5.90053
    endloop
  endfacet
  facet normal -0.707107 0.707106 0
    outer loop
      vertex -6.01563 -5.44995 4.40053
      vertex -0.565685 0 0.766449
      vertex -0.565685 0 0.217112
    endloop
  endfacet
  facet normal 0.33732 0.337316 0.878882
    outer loop
      vertex -5.44995 -6.01563 4.40053
      vertex 0 -0.707107 0.27139
      vertex 0 -0.565685 0.217112
    endloop
  endfacet
  facet normal 0.337318 0.337318 0.878882
    outer loop
      vertex 0 -0.707107 0.27139
      vertex -5.44995 -6.01563 4.40053
      vertex -5.37924 -6.08634 4.40053
    endloop
  endfacet
  facet normal 0.337316 0.33732 0.878882
    outer loop
      vertex -0.707107 0 0.27139
      vertex -6.01563 -5.44995 4.40053
      vertex -0.565685 0 0.217112
    endloop
  endfacet
  facet normal 0.337318 0.337318 0.878882
    outer loop
      vertex -6.01563 -5.44995 4.40053
      vertex -0.707107 0 0.27139
      vertex -6.08634 -5.37924 4.40053
    endloop
  endfacet
  facet normal -0.707107 0.707107 0
    outer loop
      vertex -1.19648 -0.489373 0
      vertex -0.707107 0 0.27139
      vertex -0.707107 0 0
    endloop
  endfacet
  facet normal -0.707107 0.707107 8.81949e-07
    outer loop
      vertex -6.08634 -5.37924 2.90053
      vertex -0.707107 0 0.27139
      vertex -1.19648 -0.489373 0
    endloop
  endfacet
  facet normal -0.707107 0.707106 0
    outer loop
      vertex -0.707107 0 0.27139
      vertex -6.08634 -5.37924 2.90053
      vertex -6.08634 -5.37924 4.40053
    endloop
  endfacet
  facet normal 0.273502 0.273502 0.922168
    outer loop
      vertex -0.489373 -1.19648 0
      vertex -5.30853 -6.15705 2.90053
      vertex -0.418663 -1.26719 0
    endloop
  endfacet
  facet normal 0.273502 0.273502 0.922168
    outer loop
      vertex -5.30853 -6.15705 2.90053
      vertex -0.489373 -1.19648 0
      vertex -5.37924 -6.08634 2.90053
    endloop
  endfacet
  facet normal 0.273502 0.273502 0.922168
    outer loop
      vertex -1.26719 -0.418663 0
      vertex -6.08634 -5.37924 2.90053
      vertex -1.19648 -0.489373 0
    endloop
  endfacet
  facet normal 0.273502 0.273502 0.922168
    outer loop
      vertex -6.08634 -5.37924 2.90053
      vertex -1.26719 -0.418663 0
      vertex -6.15705 -5.30853 2.90053
    endloop
  endfacet
  facet normal -0.707107 0.707106 0
    outer loop
      vertex -1.26719 -0.418663 0
      vertex -6.15705 -5.30853 0
      vertex -6.15705 -5.30853 2.90053
    endloop
  endfacet
  facet normal 0.707107 0.707107 -0
    outer loop
      vertex 5.87421 -5.59137 7.40053
      vertex 0.282842 0 1.68256
      vertex 5.87421 -5.59137 8.90053
    endloop
  endfacet
  facet normal 0.707107 0.707107 0
    outer loop
      vertex 0.282842 0 1.68256
      vertex 5.87421 -5.59137 7.40053
      vertex 0.282842 0 1.15789
    endloop
  endfacet
  facet normal 0.707107 -0.707107 0
    outer loop
      vertex 5.87421 -5.59137 8.90053
      vertex 5.59137 -5.87421 8.90053
      vertex 5.87421 -5.59137 7.40053
    endloop
  endfacet
  facet normal 0.707107 -0.707107 0
    outer loop
      vertex 5.94492 -5.52066 7.40053
      vertex 5.87421 -5.59137 7.40053
      vertex 5.94492 -5.52066 5.90053
    endloop
  endfacet
  facet normal 0.707107 -0.707107 0
    outer loop
      vertex 6.01563 -5.44995 5.90053
      vertex 5.94492 -5.52066 5.90053
      vertex 6.01563 -5.44995 4.40053
    endloop
  endfacet
  facet normal 0.707107 -0.707107 0
    outer loop
      vertex 6.08634 -5.37924 4.40053
      vertex 6.01563 -5.44995 4.40053
      vertex 6.08634 -5.37924 2.90053
    endloop
  endfacet
  facet normal 0.707107 -0.707107 0
    outer loop
      vertex 6.08634 -5.37924 2.90053
      vertex 6.15705 -5.30853 0
      vertex 6.15705 -5.30853 2.90053
    endloop
  endfacet
  facet normal 0.707107 -0.707107 0
    outer loop
      vertex 5.37924 -6.08634 2.90053
      vertex 6.08634 -5.37924 2.90053
      vertex 6.01563 -5.44995 4.40053
    endloop
  endfacet
  facet normal 0.707107 -0.707107 0
    outer loop
      vertex 5.44995 -6.01563 4.40053
      vertex 6.01563 -5.44995 4.40053
      vertex 5.94492 -5.52066 5.90053
    endloop
  endfacet
  facet normal 0.707107 -0.707107 0
    outer loop
      vertex 5.52066 -5.94492 5.90053
      vertex 5.94492 -5.52066 5.90053
      vertex 5.87421 -5.59137 7.40053
    endloop
  endfacet
  facet normal 0.707107 -0.707107 0
    outer loop
      vertex 5.59137 -5.87421 7.40053
      vertex 5.87421 -5.59137 7.40053
      vertex 5.59137 -5.87421 8.90053
    endloop
  endfacet
  facet normal 0.707107 -0.707107 0
    outer loop
      vertex 5.52066 -5.94492 5.90053
      vertex 5.87421 -5.59137 7.40053
      vertex 5.59137 -5.87421 7.40053
    endloop
  endfacet
  facet normal 0.707107 -0.707107 0
    outer loop
      vertex 5.52066 -5.94492 5.90053
      vertex 5.59137 -5.87421 7.40053
      vertex 5.52066 -5.94492 7.40053
    endloop
  endfacet
  facet normal 0.707107 -0.707107 0
    outer loop
      vertex 5.94492 -5.52066 5.90053
      vertex 5.52066 -5.94492 5.90053
      vertex 5.44995 -6.01563 4.40053
    endloop
  endfacet
  facet normal 0.707107 -0.707107 0
    outer loop
      vertex 5.44995 -6.01563 4.40053
      vertex 5.52066 -5.94492 5.90053
      vertex 5.44995 -6.01563 5.90053
    endloop
  endfacet
  facet normal 0.707107 -0.707107 0
    outer loop
      vertex 6.01563 -5.44995 4.40053
      vertex 5.44995 -6.01563 4.40053
      vertex 5.37924 -6.08634 2.90053
    endloop
  endfacet
  facet normal 0.707107 -0.707107 0
    outer loop
      vertex 5.37924 -6.08634 2.90053
      vertex 5.44995 -6.01563 4.40053
      vertex 5.37924 -6.08634 4.40053
    endloop
  endfacet
  facet normal 0.707107 -0.707107 0
    outer loop
      vertex 6.08634 -5.37924 2.90053
      vertex 5.37924 -6.08634 2.90053
      vertex 6.15705 -5.30853 0
    endloop
  endfacet
  facet normal 0.707107 -0.707107 0
    outer loop
      vertex 5.30853 -6.15705 0
      vertex 5.37924 -6.08634 2.90053
      vertex 5.30853 -6.15705 2.90053
    endloop
  endfacet
  facet normal 0.707107 -0.707107 0
    outer loop
      vertex 5.37924 -6.08634 2.90053
      vertex 5.30853 -6.15705 0
      vertex 6.15705 -5.30853 0
    endloop
  endfacet
  facet normal -0.476739 0.476691 0.73857
    outer loop
      vertex 0.282842 0 1.68256
      vertex 5.77361 -5.63219 8.86194
      vertex 5.87421 -5.59137 8.90053
    endloop
  endfacet
  facet normal -0.476709 0.47672 0.73857
    outer loop
      vertex 5.77361 -5.63219 8.86194
      vertex 0.282842 0 1.68256
      vertex 0.141421 0 1.59128
    endloop
  endfacet
  facet normal -0.476746 0.476746 0.73853
    outer loop
      vertex 5.63219 -5.77361 8.86194
      vertex 5.87421 -5.59137 8.90053
      vertex 5.77361 -5.63219 8.86194
    endloop
  endfacet
  facet normal -0.476746 0.476746 0.73853
    outer loop
      vertex 5.63219 -5.77361 8.86194
      vertex 5.59137 -5.87421 8.90053
      vertex 5.87421 -5.59137 8.90053
    endloop
  endfacet
  facet normal -0.47672 0.476709 0.73857
    outer loop
      vertex 0 -0.282842 1.68256
      vertex 5.63219 -5.77361 8.86194
      vertex 0 -0.141421 1.59128
    endloop
  endfacet
  facet normal -0.476691 0.476739 0.73857
    outer loop
      vertex 5.63219 -5.77361 8.86194
      vertex 0 -0.282842 1.68256
      vertex 5.59137 -5.87421 8.90053
    endloop
  endfacet
  facet normal -0.707107 -0.707107 0
    outer loop
      vertex 5.59137 -5.87421 7.40053
      vertex 0 -0.282842 1.68256
      vertex 0 -0.282842 1.15789
    endloop
  endfacet
  facet normal -0.707107 -0.707107 0
    outer loop
      vertex 0 -0.282842 1.68256
      vertex 5.59137 -5.87421 7.40053
      vertex 5.59137 -5.87421 8.90053
    endloop
  endfacet
  facet normal 0.707107 0.707107 -0
    outer loop
      vertex 5.94492 -5.52066 5.90053
      vertex 0.424263 0 1.23684
      vertex 5.94492 -5.52066 7.40053
    endloop
  endfacet
  facet normal 0.707107 0.707107 0
    outer loop
      vertex 0.424263 0 1.23684
      vertex 5.94492 -5.52066 5.90053
      vertex 0.424263 0 0.699837
    endloop
  endfacet
  facet normal -0.707107 -0.707107 0
    outer loop
      vertex 5.52066 -5.94492 5.90053
      vertex 0 -0.424263 1.23684
      vertex 0 -0.424263 0.699837
    endloop
  endfacet
  facet normal -0.707107 -0.707107 0
    outer loop
      vertex 0 -0.424263 1.23684
      vertex 5.52066 -5.94492 5.90053
      vertex 5.52066 -5.94492 7.40053
    endloop
  endfacet
  facet normal -0.438153 0.438153 0.784885
    outer loop
      vertex 0.424263 0 1.23684
      vertex 5.87421 -5.59137 7.40053
      vertex 5.94492 -5.52066 7.40053
    endloop
  endfacet
  facet normal -0.438171 0.438135 0.784885
    outer loop
      vertex 5.87421 -5.59137 7.40053
      vertex 0.424263 0 1.23684
      vertex 0.282842 0 1.15789
    endloop
  endfacet
  facet normal -0.438135 0.438171 0.784885
    outer loop
      vertex 0 -0.424263 1.23684
      vertex 5.59137 -5.87421 7.40053
      vertex 0 -0.282842 1.15789
    endloop
  endfacet
  facet normal -0.438153 0.438153 0.784885
    outer loop
      vertex 5.59137 -5.87421 7.40053
      vertex 0 -0.424263 1.23684
      vertex 5.52066 -5.94492 7.40053
    endloop
  endfacet
  facet normal 0.707107 0.707106 -0
    outer loop
      vertex 6.01563 -5.44995 4.40053
      vertex 0.565685 0 0.766449
      vertex 6.01563 -5.44995 5.90053
    endloop
  endfacet
  facet normal 0.707107 0.707106 0
    outer loop
      vertex 0.565685 0 0.766449
      vertex 6.01563 -5.44995 4.40053
      vertex 0.565685 0 0.217112
    endloop
  endfacet
  facet normal -0.392011 0.392011 0.832258
    outer loop
      vertex 0.565685 0 0.766449
      vertex 5.94492 -5.52066 5.90053
      vertex 6.01563 -5.44995 5.90053
    endloop
  endfacet
  facet normal -0.392007 0.392016 0.832259
    outer loop
      vertex 5.94492 -5.52066 5.90053
      vertex 0.565685 0 0.766449
      vertex 0.424263 0 0.699837
    endloop
  endfacet
  facet normal -0.392016 0.392007 0.832259
    outer loop
      vertex 0 -0.565685 0.766449
      vertex 5.52066 -5.94492 5.90053
      vertex 0 -0.424263 0.699837
    endloop
  endfacet
  facet normal -0.392011 0.392011 0.832258
    outer loop
      vertex 5.52066 -5.94492 5.90053
      vertex 0 -0.565685 0.766449
      vertex 5.44995 -6.01563 5.90053
    endloop
  endfacet
  facet normal -0.707106 -0.707107 0
    outer loop
      vertex 5.44995 -6.01563 4.40053
      vertex 0 -0.565685 0.766449
      vertex 0 -0.565685 0.217112
    endloop
  endfacet
  facet normal -0.707106 -0.707107 0
    outer loop
      vertex 0 -0.565685 0.766449
      vertex 5.44995 -6.01563 4.40053
      vertex 5.44995 -6.01563 5.90053
    endloop
  endfacet
  facet normal 0.707107 0.707107 0
    outer loop
      vertex 0.707107 0 0.27139
      vertex 1.19648 -0.489373 0
      vertex 0.707107 0 0
    endloop
  endfacet
  facet normal 0.707107 0.707106 -0
    outer loop
      vertex 6.08634 -5.37924 2.90053
      vertex 0.707107 0 0.27139
      vertex 6.08634 -5.37924 4.40053
    endloop
  endfacet
  facet normal 0.707107 0.707107 8.81949e-07
    outer loop
      vertex 0.707107 0 0.27139
      vertex 6.08634 -5.37924 2.90053
      vertex 1.19648 -0.489373 0
    endloop
  endfacet
  facet normal -0.337318 0.337318 0.878882
    outer loop
      vertex 0.707107 0 0.27139
      vertex 6.01563 -5.44995 4.40053
      vertex 6.08634 -5.37924 4.40053
    endloop
  endfacet
  facet normal -0.337316 0.33732 0.878882
    outer loop
      vertex 6.01563 -5.44995 4.40053
      vertex 0.707107 0 0.27139
      vertex 0.565685 0 0.217112
    endloop
  endfacet
  facet normal -0.33732 0.337316 0.878882
    outer loop
      vertex 0 -0.707107 0.27139
      vertex 5.44995 -6.01563 4.40053
      vertex 0 -0.565685 0.217112
    endloop
  endfacet
  facet normal -0.337318 0.337318 0.878882
    outer loop
      vertex 5.44995 -6.01563 4.40053
      vertex 0 -0.707107 0.27139
      vertex 5.37924 -6.08634 4.40053
    endloop
  endfacet
  facet normal -0.707107 -0.707107 0
    outer loop
      vertex 0.489373 -1.19648 0
      vertex 0 -0.707107 0.27139
      vertex 0 -0.707107 0
    endloop
  endfacet
  facet normal -0.707107 -0.707107 8.81949e-07
    outer loop
      vertex 5.37924 -6.08634 2.90053
      vertex 0 -0.707107 0.27139
      vertex 0.489373 -1.19648 0
    endloop
  endfacet
  facet normal -0.707106 -0.707107 0
    outer loop
      vertex 0 -0.707107 0.27139
      vertex 5.37924 -6.08634 2.90053
      vertex 5.37924 -6.08634 4.40053
    endloop
  endfacet
  facet normal 0.707107 0.707106 -0
    outer loop
      vertex 6.15705 -5.30853 0
      vertex 1.26719 -0.418663 0
      vertex 6.15705 -5.30853 2.90053
    endloop
  endfacet
  facet normal -0.273502 0.273502 0.922168
    outer loop
      vertex 1.26719 -0.418663 0
      vertex 6.08634 -5.37924 2.90053
      vertex 6.15705 -5.30853 2.90053
    endloop
  endfacet
  facet normal -0.273502 0.273502 0.922168
    outer loop
      vertex 6.08634 -5.37924 2.90053
      vertex 1.26719 -0.418663 0
      vertex 1.19648 -0.489373 0
    endloop
  endfacet
  facet normal -0.273502 0.273502 0.922168
    outer loop
      vertex 0.489373 -1.19648 0
      vertex 5.30853 -6.15705 2.90053
      vertex 5.37924 -6.08634 2.90053
    endloop
  endfacet
  facet normal -0.273502 0.273502 0.922168
    outer loop
      vertex 5.30853 -6.15705 2.90053
      vertex 0.489373 -1.19648 0
      vertex 0.418663 -1.26719 0
    endloop
  endfacet
  facet normal -0.707106 -0.707107 -0
    outer loop
      vertex 5.30853 -6.15705 2.90053
      vertex 0.418663 -1.26719 0
      vertex 5.30853 -6.15705 0
    endloop
  endfacet
  facet normal -0 0 -1
    outer loop
      vertex 0 0.707107 0
      vertex -0.707107 0 0
      vertex -0.489373 1.19648 0
    endloop
  endfacet
  facet normal 0 0 -1
    outer loop
      vertex -0.489373 -1.19648 0
      vertex -1.19648 -0.489373 0
      vertex -0.707107 0 0
    endloop
  endfacet
  facet normal 0 0 -1
    outer loop
      vertex -5.30853 -6.15705 0
      vertex -0.489373 -1.19648 0
      vertex -0.418663 -1.26719 0
    endloop
  endfacet
  facet normal -0 0 -1
    outer loop
      vertex -0.489373 -1.19648 0
      vertex -5.30853 -6.15705 0
      vertex -1.19648 -0.489373 0
    endloop
  endfacet
  facet normal 0 0 -1
    outer loop
      vertex -6.15705 -5.30853 0
      vertex -1.19648 -0.489373 0
      vertex -5.30853 -6.15705 0
    endloop
  endfacet
  facet normal -0 0 -1
    outer loop
      vertex -1.19648 -0.489373 0
      vertex -6.15705 -5.30853 0
      vertex -1.26719 -0.418663 0
    endloop
  endfacet
  facet normal 0 0 -1
    outer loop
      vertex 0 0.707107 0
      vertex 0.707107 0 0
      vertex 0 -0.707107 0
    endloop
  endfacet
  facet normal 0 0 -1
    outer loop
      vertex 0.707107 0 0
      vertex 0 0.707107 0
      vertex 0.489373 1.19648 0
    endloop
  endfacet
  facet normal 0 0 -1
    outer loop
      vertex -0.707107 0 0
      vertex 0 -0.707107 0
      vertex -0.489373 -1.19648 0
    endloop
  endfacet
  facet normal 0 0 -1
    outer loop
      vertex 0 -0.707107 0
      vertex -0.707107 0 0
      vertex 0 0.707107 0
    endloop
  endfacet
  facet normal 0 0 -1
    outer loop
      vertex 1.19648 -0.489373 0
      vertex 6.15705 -5.30853 0
      vertex 5.30853 -6.15705 0
    endloop
  endfacet
  facet normal 0 0 -1
    outer loop
      vertex 6.15705 -5.30853 0
      vertex 1.19648 -0.489373 0
      vertex 1.26719 -0.418663 0
    endloop
  endfacet
  facet normal 0 0 -1
    outer loop
      vertex 0.489373 -1.19648 0
      vertex 1.19648 -0.489373 0
      vertex 5.30853 -6.15705 0
    endloop
  endfacet
  facet normal -0 0 -1
    outer loop
      vertex 1.19648 -0.489373 0
      vertex 0.489373 -1.19648 0
      vertex 0.707107 0 0
    endloop
  endfacet
  facet normal 0 -0 -1
    outer loop
      vertex 0.489373 -1.19648 0
      vertex 5.30853 -6.15705 0
      vertex 0.418663 -1.26719 0
    endloop
  endfacet
  facet normal 0 0 -1
    outer loop
      vertex 1.19648 0.489373 0
      vertex 6.15705 5.30853 0
      vertex 1.26719 0.418663 0
    endloop
  endfacet
  facet normal -0 0 -1
    outer loop
      vertex 6.15705 5.30853 0
      vertex 1.19648 0.489373 0
      vertex 5.30853 6.15705 0
    endloop
  endfacet
  facet normal 0 0 -1
    outer loop
      vertex 0.489373 1.19648 0
      vertex 1.19648 0.489373 0
      vertex 0.707107 0 0
    endloop
  endfacet
  facet normal 0 0 -1
    outer loop
      vertex 0 -0.707107 0
      vertex 0.707107 0 0
      vertex 0.489373 -1.19648 0
    endloop
  endfacet
  facet normal 0 0 -1
    outer loop
      vertex 1.19648 0.489373 0
      vertex 0.489373 1.19648 0
      vertex 5.30853 6.15705 0
    endloop
  endfacet
  facet normal 0 0 -1
    outer loop
      vertex 5.30853 6.15705 0
      vertex 0.489373 1.19648 0
      vertex 0.418663 1.26719 0
    endloop
  endfacet
  facet normal 0 0 -1
    outer loop
      vertex -1.19648 0.489373 0
      vertex -0.489373 1.19648 0
      vertex -0.707107 0 0
    endloop
  endfacet
  facet normal 0 0 -1
    outer loop
      vertex -5.30853 6.15705 0
      vertex -0.489373 1.19648 0
      vertex -1.19648 0.489373 0
    endloop
  endfacet
  facet normal 0 0 -1
    outer loop
      vertex -6.15705 5.30853 0
      vertex -1.19648 0.489373 0
      vertex -1.26719 0.418663 0
    endloop
  endfacet
  facet normal 0 0 -1
    outer loop
      vertex -0.489373 1.19648 0
      vertex -5.30853 6.15705 0
      vertex -0.418663 1.26719 0
    endloop
  endfacet
  facet normal 0 0 -1
    outer loop
      vertex -1.19648 0.489373 0
      vertex -6.15705 5.30853 0
      vertex -5.30853 6.15705 0
    endloop
  endfacet
endsolid OpenSCAD_Model
