solid OpenSCAD_Model
  facet normal -0.408248 0.707106 -0.577351
    outer loop
      vertex 2.83524 5.11077 7.25458
      vertex -5.36846 9.29845 18.1843
      vertex 5.253 9.29845 10.6738
    endloop
  endfacet
  facet normal -0.408247 0.707107 -0.577351
    outer loop
      vertex -5.36846 9.29845 18.1843
      vertex -5.84376 0.1 7.25464
      vertex -10.6792 0.1 10.6738
    endloop
  endfacet
  facet normal -0.408248 0.707107 -0.577351
    outer loop
      vertex -5.36846 9.29845 18.1843
      vertex 2.83524 5.11077 7.25458
      vertex -5.84376 0.1 7.25464
    endloop
  endfacet
  facet normal -0.408248 0.707108 -0.577349
    outer loop
      vertex -5.84376 0.1 7.25464
      vertex 2.83524 5.11077 7.25458
      vertex -0.0338826 0.0586866 3.09583
    endloop
  endfacet
  facet normal -0.40908 0.706615 -0.577364
    outer loop
      vertex -10.6947 0 10.5623
      vertex -10.7369 0 10.5922
      vertex -10.6947 0.0732107 10.6519
    endloop
  endfacet
  facet normal -0.407851 0.707229 -0.577481
    outer loop
      vertex 5.34733 9.26185 10.5623
      vertex 5.28393 9.29845 10.6519
      vertex 5.36846 9.29845 10.5922
    endloop
  endfacet
  facet normal -0.816483 -2.27614e-05 0.57737
    outer loop
      vertex -10.6594 0.1 10.7018
      vertex -5.36846 9.29845 18.1843
      vertex -10.6792 0.1 10.6738
    endloop
  endfacet
  facet normal -0.816497 0 0.577349
    outer loop
      vertex 0 0 25.7765
      vertex -10.6594 0.1 10.7018
      vertex -10.6594 0.0993475 10.7018
    endloop
  endfacet
  facet normal -0.816497 2.1829e-06 0.577349
    outer loop
      vertex -10.6594 0.1 10.7018
      vertex 0 0 25.7765
      vertex -5.36846 9.29845 18.1843
    endloop
  endfacet
  facet normal -0.816497 0 0.577349
    outer loop
      vertex -10.6594 -0.0999996 10.7018
      vertex 0 0 25.7765
      vertex -10.6594 0.0993475 10.7018
    endloop
  endfacet
  facet normal -0.816497 -2.1829e-06 0.577349
    outer loop
      vertex 0 0 25.7765
      vertex -10.6594 -0.0999996 10.7018
      vertex -5.36846 -9.29845 18.1843
    endloop
  endfacet
  facet normal -0.816483 2.27614e-05 0.57737
    outer loop
      vertex -10.6792 -0.0999996 10.6738
      vertex -5.36846 -9.29845 18.1843
      vertex -10.6594 -0.0999996 10.7018
    endloop
  endfacet
  facet normal -0.816589 0 0.57722
    outer loop
      vertex -10.6947 0.0732107 10.6519
      vertex -10.7369 0 10.5922
      vertex -10.6947 -0.0732099 10.6519
    endloop
  endfacet
  facet normal 0.408246 -0.707108 0.57735
    outer loop
      vertex 5.24311 -9.28133 10.7018
      vertex 0 0 25.7765
      vertex -5.36846 -9.29845 18.1843
    endloop
  endfacet
  facet normal 0.408252 -0.707105 0.57735
    outer loop
      vertex 0 0 25.7765
      vertex 5.24311 -9.28133 10.7018
      vertex 10.7369 0 18.1843
    endloop
  endfacet
  facet normal 0.407868 -0.707765 0.576812
    outer loop
      vertex 5.24311 -9.28133 10.7018
      vertex -5.36846 -9.29845 18.1843
      vertex 5.253 -9.29845 10.6738
    endloop
  endfacet
  facet normal 0.408232 -0.707105 0.577365
    outer loop
      vertex 5.41575 -9.18166 10.7018
      vertex 10.7369 0 18.1843
      vertex 5.24311 -9.28133 10.7018
    endloop
  endfacet
  facet normal 0.416673 -0.707081 0.571333
    outer loop
      vertex 5.41631 -9.18133 10.7018
      vertex 10.7369 0 18.1843
      vertex 5.41575 -9.18166 10.7018
    endloop
  endfacet
  facet normal 0.409009 -0.707106 0.576813
    outer loop
      vertex 10.7369 0 18.1843
      vertex 5.41631 -9.18133 10.7018
      vertex 5.4262 -9.19845 10.6738
    endloop
  endfacet
  facet normal 0.40809 -0.706814 0.57782
    outer loop
      vertex 5.41073 -9.22524 10.6519
      vertex 5.28393 -9.29845 10.6519
      vertex 5.36846 -9.29845 10.5922
    endloop
  endfacet
  facet normal 0.408252 0.707105 0.57735
    outer loop
      vertex 5.24311 9.28133 10.7018
      vertex 0 0 25.7765
      vertex 10.7369 0 18.1843
    endloop
  endfacet
  facet normal 0.408259 0.707105 0.577345
    outer loop
      vertex 5.24311 9.28133 10.7018
      vertex 10.7369 0 18.1843
      vertex 5.41631 9.18133 10.7018
    endloop
  endfacet
  facet normal 0.409009 0.707106 0.576813
    outer loop
      vertex 5.41631 9.18133 10.7018
      vertex 10.7369 0 18.1843
      vertex 5.4262 9.19845 10.6738
    endloop
  endfacet
  facet normal 0.408246 0.707108 0.57735
    outer loop
      vertex 0 0 25.7765
      vertex 5.24311 9.28133 10.7018
      vertex -5.36846 9.29845 18.1843
    endloop
  endfacet
  facet normal 0.407868 0.707765 0.576812
    outer loop
      vertex -5.36846 9.29845 18.1843
      vertex 5.24311 9.28133 10.7018
      vertex 5.253 9.29845 10.6738
    endloop
  endfacet
  facet normal 0.40809 0.706814 0.57782
    outer loop
      vertex 5.36846 9.29845 10.5922
      vertex 5.28393 9.29845 10.6519
      vertex 5.41073 9.22524 10.6519
    endloop
  endfacet
  facet normal 0.816497 -1.75007e-06 -0.57735
    outer loop
      vertex 10.7369 0 18.1843
      vertex 3.00844 5.01077 7.25458
      vertex 5.4262 9.19845 10.6738
    endloop
  endfacet
  facet normal 0.816497 -1.9768e-07 -0.577349
    outer loop
      vertex 3.00848 -5.01084 7.25464
      vertex 3.00844 5.01077 7.25458
      vertex 10.7369 0 18.1843
    endloop
  endfacet
  facet normal 0.816497 -1.9768e-07 -0.577349
    outer loop
      vertex 3.00844 5.01077 7.25458
      vertex 3.00848 -5.01084 7.25464
      vertex 0.0677653 1.13416e-07 3.09583
    endloop
  endfacet
  facet normal 0.816497 1.98663e-06 -0.57735
    outer loop
      vertex 3.00848 -5.01084 7.25464
      vertex 10.7369 0 18.1843
      vertex 5.4262 -9.19845 10.6738
    endloop
  endfacet
  facet normal 0.816398 -0.000450195 -0.57749
    outer loop
      vertex 5.36846 -9.29845 10.5922
      vertex 5.34733 -9.26185 10.5623
      vertex 5.41073 -9.22524 10.6519
    endloop
  endfacet
  facet normal 0.816398 0.000450195 -0.57749
    outer loop
      vertex 5.41073 9.22524 10.6519
      vertex 5.34733 9.26185 10.5623
      vertex 5.36846 9.29845 10.5922
    endloop
  endfacet
  facet normal -0.409078 -0.706619 -0.57736
    outer loop
      vertex -10.6947 -0.0732099 10.6519
      vertex -10.7369 0 10.5922
      vertex -10.6947 0 10.5623
    endloop
  endfacet
  facet normal -0.408248 -0.707107 -0.57735
    outer loop
      vertex -5.84367 -0.0999996 7.25457
      vertex -5.36846 -9.29845 18.1843
      vertex -10.6792 -0.0999996 10.6738
    endloop
  endfacet
  facet normal -0.408248 -0.707107 -0.57735
    outer loop
      vertex 2.83523 -5.11076 7.25457
      vertex -5.36846 -9.29845 18.1843
      vertex -5.84367 -0.0999996 7.25457
    endloop
  endfacet
  facet normal -0.408248 -0.707107 -0.57735
    outer loop
      vertex -5.36846 -9.29845 18.1843
      vertex 2.83523 -5.11076 7.25457
      vertex 5.253 -9.29845 10.6738
    endloop
  endfacet
  facet normal -0.408248 -0.707107 -0.577351
    outer loop
      vertex -1.54848 -0.069457 4.18001
      vertex 2.83523 -5.11076 7.25457
      vertex -5.84367 -0.0999996 7.25457
    endloop
  endfacet
  facet normal -0.408248 -0.707107 -0.577351
    outer loop
      vertex -1.54848 -0.069457 4.18001
      vertex 0.714088 -1.37575 4.18001
      vertex 2.83523 -5.11076 7.25457
    endloop
  endfacet
  facet normal -0.408248 -0.707107 -0.577351
    outer loop
      vertex 0.714088 -1.37575 4.18001
      vertex -1.54848 -0.069457 4.18001
      vertex -0.0338828 -0.0586868 3.09584
    endloop
  endfacet
  facet normal -0.407851 -0.707229 -0.577481
    outer loop
      vertex 5.36846 -9.29845 10.5922
      vertex 5.28393 -9.29845 10.6519
      vertex 5.34733 -9.26185 10.5623
    endloop
  endfacet
  facet normal -0.866207 0.499685 0
    outer loop
      vertex 5.26073 9.31185 8.10091
      vertex 5.253 9.29845 10.6738
      vertex 5.26073 9.31185 10.727
    endloop
  endfacet
  facet normal -0.866026 0.499999 2.17843e-06
    outer loop
      vertex 5.26073 9.31185 8.10091
      vertex 2.83524 5.11077 7.25458
      vertex 5.253 9.29845 10.6738
    endloop
  endfacet
  facet normal -0.866026 0.499999 1.92356e-06
    outer loop
      vertex -0.0577343 0.1 1.53564
      vertex 2.83524 5.11077 7.25458
      vertex 5.26073 9.31185 8.10091
    endloop
  endfacet
  facet normal -0.866025 0.500001 0
    outer loop
      vertex -0.0577343 0.1 3.11291
      vertex 2.83524 5.11077 7.25458
      vertex -0.0577343 0.1 1.53564
    endloop
  endfacet
  facet normal -0.764147 0.611318 -0.205838
    outer loop
      vertex 2.83524 5.11077 7.25458
      vertex -0.0577343 0.1 3.11291
      vertex -0.0577347 0.0999995 3.11291
    endloop
  endfacet
  facet normal -0.865989 0.500063 -0.00012687
    outer loop
      vertex 5.26073 9.31185 10.727
      vertex 5.253 9.29845 10.6738
      vertex 5.24311 9.28133 10.7018
    endloop
  endfacet
  facet normal 0.500011 0.866019 -5.67256e-05
    outer loop
      vertex 5.43393 9.21185 10.727
      vertex 5.41073 9.22524 10.6519
      vertex 5.26073 9.31185 10.727
    endloop
  endfacet
  facet normal 0.500059 0.865991 2.25205e-06
    outer loop
      vertex 5.41073 9.22524 10.6519
      vertex 5.43393 9.21185 8.10091
      vertex 5.34733 9.26185 10.5623
    endloop
  endfacet
  facet normal 0.499873 0.866099 -0
    outer loop
      vertex 5.43393 9.21185 8.10091
      vertex 5.41073 9.22524 10.6519
      vertex 5.43393 9.21185 10.727
    endloop
  endfacet
  facet normal 0.50001 0.86602 -5.8931e-05
    outer loop
      vertex 5.28393 9.29845 10.6519
      vertex 5.26073 9.31185 10.727
      vertex 5.41073 9.22524 10.6519
    endloop
  endfacet
  facet normal 0.500011 0.866019 -4.05254e-16
    outer loop
      vertex 5.26073 9.31185 8.10091
      vertex 5.34733 9.26185 10.5623
      vertex 5.43393 9.21185 8.10091
    endloop
  endfacet
  facet normal 0.499961 0.866048 2.32622e-06
    outer loop
      vertex 5.34733 9.26185 10.5623
      vertex 5.26073 9.31185 8.10091
      vertex 5.28393 9.29845 10.6519
    endloop
  endfacet
  facet normal 0.500153 0.865937 0
    outer loop
      vertex 5.28393 9.29845 10.6519
      vertex 5.26073 9.31185 8.10091
      vertex 5.26073 9.31185 10.727
    endloop
  endfacet
  facet normal -0.290838 -0.503731 0.81343
    outer loop
      vertex 5.26073 9.31185 10.727
      vertex 5.41631 9.18133 10.7018
      vertex 5.43393 9.21185 10.727
    endloop
  endfacet
  facet normal -0.290838 -0.503731 0.81343
    outer loop
      vertex 5.41631 9.18133 10.7018
      vertex 5.26073 9.31185 10.727
      vertex 5.24311 9.28133 10.7018
    endloop
  endfacet
  facet normal -0.291142 -0.504016 0.813144
    outer loop
      vertex 3.00844 5.01077 7.25458
      vertex 0.0677653 1.13416e-07 3.09583
      vertex 0.115469 3.55275e-08 3.11291
    endloop
  endfacet
  facet normal -0.290922 -0.504143 0.813144
    outer loop
      vertex 2.83524 5.11077 7.25458
      vertex -0.0577347 0.0999995 3.11291
      vertex -0.0338826 0.0586866 3.09583
    endloop
  endfacet
  facet normal 0.480186 -0.706711 0.519598
    outer loop
      vertex 3.00844 5.01077 7.25458
      vertex 0.115469 3.55275e-08 3.11291
      vertex 0.11547 7.14993e-07 3.11291
    endloop
  endfacet
  facet normal 0.866207 -0.499685 0
    outer loop
      vertex 5.43393 9.21185 10.727
      vertex 5.4262 9.19845 10.6738
      vertex 5.43393 9.21185 8.10091
    endloop
  endfacet
  facet normal 0.865989 -0.500063 0.00012687
    outer loop
      vertex 5.4262 9.19845 10.6738
      vertex 5.43393 9.21185 10.727
      vertex 5.41631 9.18133 10.7018
    endloop
  endfacet
  facet normal 0.866026 -0.499999 -2.17843e-06
    outer loop
      vertex 3.00844 5.01077 7.25458
      vertex 5.43393 9.21185 8.10091
      vertex 5.4262 9.19845 10.6738
    endloop
  endfacet
  facet normal 0.866025 -0.5 0
    outer loop
      vertex 0.11547 7.14993e-07 1.53564
      vertex 3.00844 5.01077 7.25458
      vertex 0.11547 7.14993e-07 3.11291
    endloop
  endfacet
  facet normal 0.866026 -0.499999 -1.20874e-06
    outer loop
      vertex 3.00844 5.01077 7.25458
      vertex 0.11547 7.14993e-07 1.53564
      vertex 5.43393 9.21185 8.10091
    endloop
  endfacet
  facet normal 0 -1 0
    outer loop
      vertex -10.6947 -0.0999996 10.727
      vertex -10.6792 -0.0999996 10.6738
      vertex -10.6594 -0.0999996 10.7018
    endloop
  endfacet
  facet normal 0 -1 0
    outer loop
      vertex -10.6947 -0.0999996 8.10091
      vertex -10.6792 -0.0999996 10.6738
      vertex -10.6947 -0.0999996 10.727
    endloop
  endfacet
  facet normal 0 -1 0
    outer loop
      vertex -10.6947 -0.0999996 8.10091
      vertex -5.84367 -0.0999996 7.25457
      vertex -10.6792 -0.0999996 10.6738
    endloop
  endfacet
  facet normal -3.70456e-09 -1 -2.12337e-08
    outer loop
      vertex -0.0577347 -0.0999995 1.53563
      vertex -5.84367 -0.0999996 7.25457
      vertex -10.6947 -0.0999996 8.10091
    endloop
  endfacet
  facet normal 1.72833e-08 -1 0
    outer loop
      vertex -5.84367 -0.0999996 7.25457
      vertex -0.0577347 -0.0999995 1.53563
      vertex -0.0577347 -0.0999995 3.11291
    endloop
  endfacet
  facet normal 0 1 -0
    outer loop
      vertex -10.6792 0.1 10.6738
      vertex -10.6947 0.1 10.727
      vertex -10.6594 0.1 10.7018
    endloop
  endfacet
  facet normal 0 1 0
    outer loop
      vertex -10.6792 0.1 10.6738
      vertex -10.6947 0.1 8.10091
      vertex -10.6947 0.1 10.727
    endloop
  endfacet
  facet normal 0 1 0
    outer loop
      vertex -5.84376 0.1 7.25464
      vertex -10.6947 0.1 8.10091
      vertex -10.6792 0.1 10.6738
    endloop
  endfacet
  facet normal 0 1 -0
    outer loop
      vertex -0.0577351 0.1 1.53563
      vertex -5.84376 0.1 7.25464
      vertex -0.0577343 0.1 3.11291
    endloop
  endfacet
  facet normal 0 1 0
    outer loop
      vertex -0.0577351 0.1 1.53563
      vertex -0.0577343 0.1 3.11291
      vertex -0.0577343 0.1 1.53564
    endloop
  endfacet
  facet normal 0 1 0
    outer loop
      vertex -5.84376 0.1 7.25464
      vertex -0.0577351 0.1 1.53563
      vertex -10.6947 0.1 8.10091
    endloop
  endfacet
  facet normal -1 0 0
    outer loop
      vertex -10.6947 0.1 8.10091
      vertex -10.6947 0.0732107 10.6519
      vertex -10.6947 0.1 10.727
    endloop
  endfacet
  facet normal -1 0 0
    outer loop
      vertex -10.6947 0.1 8.10091
      vertex -10.6947 0 10.5623
      vertex -10.6947 0.0732107 10.6519
    endloop
  endfacet
  facet normal -1 0 0
    outer loop
      vertex -10.6947 -0.0999996 8.10091
      vertex -10.6947 0 10.5623
      vertex -10.6947 0.1 8.10091
    endloop
  endfacet
  facet normal -1 -0 0
    outer loop
      vertex -10.6947 0 10.5623
      vertex -10.6947 -0.0999996 8.10091
      vertex -10.6947 -0.0732099 10.6519
    endloop
  endfacet
  facet normal -1 0 0
    outer loop
      vertex -10.6947 -0.0732099 10.6519
      vertex -10.6947 0.1 10.727
      vertex -10.6947 0.0732107 10.6519
    endloop
  endfacet
  facet normal -1 0 0
    outer loop
      vertex -10.6947 -0.0732099 10.6519
      vertex -10.6947 -0.0999996 10.727
      vertex -10.6947 0.1 10.727
    endloop
  endfacet
  facet normal -1 0 0
    outer loop
      vertex -10.6947 -0.0999996 10.727
      vertex -10.6947 -0.0732099 10.6519
      vertex -10.6947 -0.0999996 8.10091
    endloop
  endfacet
  facet normal 0.58102 -0 0.813889
    outer loop
      vertex -10.6947 -0.0999996 10.727
      vertex -10.6594 0.0993475 10.7018
      vertex -10.6947 0.1 10.727
    endloop
  endfacet
  facet normal 0.58102 0 0.813889
    outer loop
      vertex -10.6594 0.0993475 10.7018
      vertex -10.6947 -0.0999996 10.727
      vertex -10.6594 -0.0999996 10.7018
    endloop
  endfacet
  facet normal 0.58208 0.00139409 0.81313
    outer loop
      vertex -1.54848 -0.069457 4.18001
      vertex -0.0577347 -0.0999995 3.11291
      vertex -0.0560653 -0.097108 3.11171
    endloop
  endfacet
  facet normal 0.582061 -5.23612e-05 0.813145
    outer loop
      vertex -0.0577347 -0.0999995 3.11291
      vertex -1.54848 -0.069457 4.18001
      vertex -5.84367 -0.0999996 7.25457
    endloop
  endfacet
  facet normal 0.58102 0 0.813889
    outer loop
      vertex -10.6594 0.1 10.7018
      vertex -10.6947 0.1 10.727
      vertex -10.6594 0.0993475 10.7018
    endloop
  endfacet
  facet normal 0.582062 -0.000181609 0.813145
    outer loop
      vertex -0.0338828 -0.0586868 3.09584
      vertex -1.54848 -0.069457 4.18001
      vertex -0.0560653 -0.097108 3.11171
    endloop
  endfacet
  facet normal 0.52766 -0.422128 0.737145
    outer loop
      vertex -0.0577343 0.1 3.11291
      vertex -5.84376 0.1 7.25464
      vertex -0.0577347 0.0999995 3.11291
    endloop
  endfacet
  facet normal 0.582062 -0.000123667 0.813144
    outer loop
      vertex -0.0338826 0.0586866 3.09583
      vertex -0.0577347 0.0999995 3.11291
      vertex -5.84376 0.1 7.25464
    endloop
  endfacet
  facet normal 0.865989 0.500063 0.00012687
    outer loop
      vertex 5.41631 -9.18133 10.7018
      vertex 5.43393 -9.21185 10.727
      vertex 5.4262 -9.19845 10.6738
    endloop
  endfacet
  facet normal 1 0 0
    outer loop
      vertex 0.11547 7.14993e-07 3.11291
      vertex 0.11547 -2.89688e-18 1.53563
      vertex 0.11547 7.14993e-07 1.53564
    endloop
  endfacet
  facet normal 0.866026 0.5 -2.26654e-07
    outer loop
      vertex 3.00848 -5.01084 7.25464
      vertex 0.11547 -2.89688e-18 1.53563
      vertex 0.11547 7.14993e-07 3.11291
    endloop
  endfacet
  facet normal 0.866026 0.499999 -2.17887e-06
    outer loop
      vertex 5.43393 -9.21185 8.10091
      vertex 3.00848 -5.01084 7.25464
      vertex 5.4262 -9.19845 10.6738
    endloop
  endfacet
  facet normal 0.866026 0.499999 -9.65694e-07
    outer loop
      vertex 3.00848 -5.01084 7.25464
      vertex 5.43393 -9.21185 8.10091
      vertex 0.11547 -2.89688e-18 1.53563
    endloop
  endfacet
  facet normal 0.866207 0.499685 -0
    outer loop
      vertex 5.43393 -9.21185 8.10091
      vertex 5.4262 -9.19845 10.6738
      vertex 5.43393 -9.21185 10.727
    endloop
  endfacet
  facet normal -0.866025 -0.5 0
    outer loop
      vertex -0.0577347 -0.0999995 1.53563
      vertex 2.83523 -5.11076 7.25457
      vertex -0.0577347 -0.0999995 3.11291
    endloop
  endfacet
  facet normal -0.866025 -0.5 2.39816e-07
    outer loop
      vertex 5.26073 -9.31185 8.10091
      vertex 2.83523 -5.11076 7.25457
      vertex -0.0577347 -0.0999995 1.53563
    endloop
  endfacet
  facet normal -0.866026 -0.5 2.18296e-06
    outer loop
      vertex 2.83523 -5.11076 7.25457
      vertex 5.26073 -9.31185 8.10091
      vertex 5.253 -9.29845 10.6738
    endloop
  endfacet
  facet normal -0.865989 -0.500063 -0.00012687
    outer loop
      vertex 5.253 -9.29845 10.6738
      vertex 5.26073 -9.31185 10.727
      vertex 5.24311 -9.28133 10.7018
    endloop
  endfacet
  facet normal -0.866207 -0.499685 -0
    outer loop
      vertex 5.26073 -9.31185 10.727
      vertex 5.253 -9.29845 10.6738
      vertex 5.26073 -9.31185 8.10091
    endloop
  endfacet
  facet normal 0.500011 -0.866019 -5.67256e-05
    outer loop
      vertex 5.26073 -9.31185 10.727
      vertex 5.41073 -9.22524 10.6519
      vertex 5.43393 -9.21185 10.727
    endloop
  endfacet
  facet normal 0.50001 -0.86602 -5.8931e-05
    outer loop
      vertex 5.26073 -9.31185 10.727
      vertex 5.28393 -9.29845 10.6519
      vertex 5.41073 -9.22524 10.6519
    endloop
  endfacet
  facet normal 0.499961 -0.866048 2.32622e-06
    outer loop
      vertex 5.28393 -9.29845 10.6519
      vertex 5.26073 -9.31185 8.10091
      vertex 5.34733 -9.26185 10.5623
    endloop
  endfacet
  facet normal 0.500153 -0.865937 0
    outer loop
      vertex 5.26073 -9.31185 8.10091
      vertex 5.28393 -9.29845 10.6519
      vertex 5.26073 -9.31185 10.727
    endloop
  endfacet
  facet normal 0.500011 -0.866019 -4.05254e-16
    outer loop
      vertex 5.43393 -9.21185 8.10091
      vertex 5.34733 -9.26185 10.5623
      vertex 5.26073 -9.31185 8.10091
    endloop
  endfacet
  facet normal 0.500059 -0.865991 2.25205e-06
    outer loop
      vertex 5.34733 -9.26185 10.5623
      vertex 5.43393 -9.21185 8.10091
      vertex 5.41073 -9.22524 10.6519
    endloop
  endfacet
  facet normal 0.499873 -0.866099 0
    outer loop
      vertex 5.41073 -9.22524 10.6519
      vertex 5.43393 -9.21185 8.10091
      vertex 5.43393 -9.21185 10.727
    endloop
  endfacet
  facet normal -0.290869 0.503786 0.813385
    outer loop
      vertex 5.41575 -9.18166 10.7018
      vertex 5.26073 -9.31185 10.727
      vertex 5.43393 -9.21185 10.727
    endloop
  endfacet
  facet normal -0.290823 0.50374 0.81343
    outer loop
      vertex 5.26073 -9.31185 10.727
      vertex 5.41575 -9.18166 10.7018
      vertex 5.24311 -9.28133 10.7018
    endloop
  endfacet
  facet normal -0.289836 0.504792 0.81313
    outer loop
      vertex -0.0577347 -0.0999995 3.11291
      vertex 0.714088 -1.37575 4.18001
      vertex -0.0560653 -0.097108 3.11171
    endloop
  endfacet
  facet normal -0.291073 0.504056 0.813145
    outer loop
      vertex 0.714088 -1.37575 4.18001
      vertex -0.0577347 -0.0999995 3.11291
      vertex 2.83523 -5.11076 7.25457
    endloop
  endfacet
  facet normal -0.295314 0.501138 0.813419
    outer loop
      vertex 5.41631 -9.18133 10.7018
      vertex 5.41575 -9.18166 10.7018
      vertex 5.43393 -9.21185 10.727
    endloop
  endfacet
  facet normal -0.327704 0.482296 0.812404
    outer loop
      vertex 0.115469 3.55275e-08 3.11291
      vertex 3.00848 -5.01084 7.25464
      vertex 0.11547 7.14993e-07 3.11291
    endloop
  endfacet
  facet normal -0.29114 0.504018 0.813144
    outer loop
      vertex 3.00848 -5.01084 7.25464
      vertex 0.115469 3.55275e-08 3.11291
      vertex 0.0677653 1.13416e-07 3.09583
    endloop
  endfacet
  facet normal -0.291188 0.50399 0.813144
    outer loop
      vertex -0.0338828 -0.0586868 3.09584
      vertex -0.0560653 -0.097108 3.11171
      vertex 0.714088 -1.37575 4.18001
    endloop
  endfacet
  facet normal -0.866025 0.5 0
    outer loop
      vertex -0.11547 0.2 1.57127
      vertex 5.19526 9.39845 6.627
      vertex -0.11547 0.2 1.06052
    endloop
  endfacet
  facet normal -0.866025 0.5 0
    outer loop
      vertex 5.19526 9.39845 6.627
      vertex -0.11547 0.2 1.57127
      vertex 5.19526 9.39845 8.127
    endloop
  endfacet
  facet normal 0.499968 0.866044 -0
    outer loop
      vertex 5.88808 8.99845 0
      vertex 5.80147 9.04845 2.127
      vertex 5.88808 8.99845 2.127
    endloop
  endfacet
  facet normal 0.500002 0.866024 1.88059e-06
    outer loop
      vertex 5.80147 9.04845 2.127
      vertex 5.88808 8.99845 0
      vertex 4.93545 9.54845 2.127
    endloop
  endfacet
  facet normal 0.5 0.866025 5.87682e-07
    outer loop
      vertex 4.84885 9.59845 0
      vertex 4.93545 9.54845 2.127
      vertex 5.88808 8.99845 0
    endloop
  endfacet
  facet normal 0.500011 0.866019 0
    outer loop
      vertex 4.93545 9.54845 2.127
      vertex 4.84885 9.59845 0
      vertex 4.84885 9.59845 2.127
    endloop
  endfacet
  facet normal 0.500011 0.866019 -0
    outer loop
      vertex 5.80147 9.04845 2.127
      vertex 5.71487 9.09845 3.627
      vertex 5.80147 9.04845 3.627
    endloop
  endfacet
  facet normal 0.5 0.866025 -8.33334e-07
    outer loop
      vertex 5.71487 9.09845 3.627
      vertex 5.80147 9.04845 2.127
      vertex 5.02205 9.49845 3.627
    endloop
  endfacet
  facet normal 0.500002 0.866024 6.6667e-07
    outer loop
      vertex 4.93545 9.54845 2.127
      vertex 5.02205 9.49845 3.627
      vertex 5.80147 9.04845 2.127
    endloop
  endfacet
  facet normal 0.500011 0.866019 0
    outer loop
      vertex 5.02205 9.49845 3.627
      vertex 4.93545 9.54845 2.127
      vertex 4.93545 9.54845 3.627
    endloop
  endfacet
  facet normal 0.500011 0.866019 -0
    outer loop
      vertex 5.71487 9.09845 3.627
      vertex 5.62827 9.14845 5.127
      vertex 5.71487 9.09845 5.127
    endloop
  endfacet
  facet normal 0.499997 0.866027 -1.1111e-06
    outer loop
      vertex 5.62827 9.14845 5.127
      vertex 5.71487 9.09845 3.627
      vertex 5.10865 9.44845 5.127
    endloop
  endfacet
  facet normal 0.5 0.866025 8.33334e-07
    outer loop
      vertex 5.02205 9.49845 3.627
      vertex 5.10865 9.44845 5.127
      vertex 5.71487 9.09845 3.627
    endloop
  endfacet
  facet normal 0.500011 0.866019 0
    outer loop
      vertex 5.10865 9.44845 5.127
      vertex 5.02205 9.49845 3.627
      vertex 5.02205 9.49845 5.127
    endloop
  endfacet
  facet normal 0.500011 0.866019 -0
    outer loop
      vertex 5.62827 9.14845 5.127
      vertex 5.54167 9.19845 6.627
      vertex 5.62827 9.14845 6.627
    endloop
  endfacet
  facet normal 0.5 0.866025 -8.33334e-07
    outer loop
      vertex 5.54167 9.19845 6.627
      vertex 5.62827 9.14845 5.127
      vertex 5.19526 9.39845 6.627
    endloop
  endfacet
  facet normal 0.499997 0.866027 -2.22221e-06
    outer loop
      vertex 5.10865 9.44845 5.127
      vertex 5.19526 9.39845 6.627
      vertex 5.62827 9.14845 5.127
    endloop
  endfacet
  facet normal 0.499968 0.866044 0
    outer loop
      vertex 5.19526 9.39845 6.627
      vertex 5.10865 9.44845 5.127
      vertex 5.10865 9.44845 6.627
    endloop
  endfacet
  facet normal 0.5 0.866025 -0
    outer loop
      vertex 5.54167 9.19845 6.627
      vertex 5.19526 9.39845 8.127
      vertex 5.54167 9.19845 8.127
    endloop
  endfacet
  facet normal 0.5 0.866025 0
    outer loop
      vertex 5.19526 9.39845 8.127
      vertex 5.54167 9.19845 6.627
      vertex 5.19526 9.39845 6.627
    endloop
  endfacet
  facet normal -0.26258 -0.454879 0.850962
    outer loop
      vertex 0.11547 7.14993e-07 1.53564
      vertex 0.23094 -5.79375e-18 1.57127
      vertex 5.43393 9.21185 8.10091
    endloop
  endfacet
  facet normal -0.0220068 -0.997212 0.0713
    outer loop
      vertex 0.23094 -5.79375e-18 1.57127
      vertex 0.11547 7.14993e-07 1.53564
      vertex 0.11547 -2.89688e-18 1.53563
    endloop
  endfacet
  facet normal -0.262637 -0.454887 0.85094
    outer loop
      vertex 5.54167 9.19845 8.127
      vertex 5.26073 9.31185 8.10091
      vertex 5.43393 9.21185 8.10091
    endloop
  endfacet
  facet normal -0.262648 -0.45492 0.850919
    outer loop
      vertex 5.19526 9.39845 8.127
      vertex 5.26073 9.31185 8.10091
      vertex 5.54167 9.19845 8.127
    endloop
  endfacet
  facet normal -0.262579 -0.45488 0.850962
    outer loop
      vertex -0.11547 0.2 1.57127
      vertex 5.26073 9.31185 8.10091
      vertex 5.19526 9.39845 8.127
    endloop
  endfacet
  facet normal -0.262648 -0.45484 0.850962
    outer loop
      vertex 5.26073 9.31185 8.10091
      vertex -0.11547 0.2 1.57127
      vertex -0.0577343 0.1 1.53564
    endloop
  endfacet
  facet normal -0.853278 -0.516968 0.0682623
    outer loop
      vertex -0.0577343 0.1 1.53564
      vertex -0.11547 0.2 1.57127
      vertex -0.0577351 0.1 1.53563
    endloop
  endfacet
  facet normal -0.262637 -0.454846 0.850962
    outer loop
      vertex 0.23094 -5.79375e-18 1.57127
      vertex 5.54167 9.19845 8.127
      vertex 5.43393 9.21185 8.10091
    endloop
  endfacet
  facet normal 0 0 0
    outer loop
      vertex 5.54167 9.19845 8.127
      vertex 0.23094 -5.79375e-18 1.57127
      vertex 0.23094 -1.73813e-17 1.57127
    endloop
  endfacet
  facet normal 0.866025 -0.5 0
    outer loop
      vertex 0.23094 -1.73813e-17 1.57127
      vertex 5.54167 9.19845 6.627
      vertex 5.54167 9.19845 8.127
    endloop
  endfacet
  facet normal 0.866025 -0.5 0
    outer loop
      vertex 5.54167 9.19845 6.627
      vertex 0.23094 -1.73813e-17 1.57127
      vertex 0.23094 -5.79375e-18 1.06052
    endloop
  endfacet
  facet normal 1 0 0
    outer loop
      vertex 0.23094 -5.79375e-18 1.06052
      vertex 0.23094 -1.73813e-17 1.57127
      vertex 0.23094 -1.73813e-17 1.06052
    endloop
  endfacet
  facet normal -0.866026 0.5 0
    outer loop
      vertex -0.173205 0.299999 1.09077
      vertex 5.10865 9.44845 5.127
      vertex -0.173205 0.299999 0.574641
    endloop
  endfacet
  facet normal -0.866026 0.5 0
    outer loop
      vertex 5.10865 9.44845 5.127
      vertex -0.173205 0.299999 1.09077
      vertex 5.10865 9.44845 6.627
    endloop
  endfacet
  facet normal -0.232082 -0.402013 0.885733
    outer loop
      vertex -0.173205 0.299999 1.09077
      vertex 5.19526 9.39845 6.627
      vertex 5.10865 9.44845 6.627
    endloop
  endfacet
  facet normal -0.232153 -0.401972 0.885733
    outer loop
      vertex 5.19526 9.39845 6.627
      vertex -0.173205 0.299999 1.09077
      vertex -0.11547 0.2 1.06052
    endloop
  endfacet
  facet normal -0.23204 -0.402037 0.885733
    outer loop
      vertex 5.54167 9.19845 6.627
      vertex 0.23094 -5.79375e-18 1.06052
      vertex 0.346409 -8.69062e-18 1.09077
    endloop
  endfacet
  facet normal -0.232102 -0.402001 0.885733
    outer loop
      vertex 0.346409 -8.69062e-18 1.09077
      vertex 5.62827 9.14845 6.627
      vertex 5.54167 9.19845 6.627
    endloop
  endfacet
  facet normal 0 0 0
    outer loop
      vertex 5.62827 9.14845 6.627
      vertex 0.346409 -8.69062e-18 1.09077
      vertex 0.346409 -2.60718e-17 1.09077
    endloop
  endfacet
  facet normal 0.866025 -0.5 0
    outer loop
      vertex 0.346409 -2.60718e-17 1.09077
      vertex 5.62827 9.14845 5.127
      vertex 5.62827 9.14845 6.627
    endloop
  endfacet
  facet normal 0.866025 -0.5 0
    outer loop
      vertex 5.62827 9.14845 5.127
      vertex 0.346409 -2.60718e-17 1.09077
      vertex 0.346409 -8.69062e-18 0.574641
    endloop
  endfacet
  facet normal 1 0 0
    outer loop
      vertex 0.346409 -8.69062e-18 0.574641
      vertex 0.346409 -2.60718e-17 1.09077
      vertex 0.346409 -2.60718e-17 0.574641
    endloop
  endfacet
  facet normal -0.866026 0.5 0
    outer loop
      vertex -0.23094 0.4 0.599522
      vertex 5.02205 9.49845 3.627
      vertex -0.23094 0.4 0.0780129
    endloop
  endfacet
  facet normal -0.866026 0.5 0
    outer loop
      vertex 5.02205 9.49845 3.627
      vertex -0.23094 0.4 0.599522
      vertex 5.02205 9.49845 5.127
    endloop
  endfacet
  facet normal -0.197884 -0.342734 0.918355
    outer loop
      vertex -0.23094 0.4 0.599522
      vertex 5.10865 9.44845 5.127
      vertex 5.02205 9.49845 5.127
    endloop
  endfacet
  facet normal -0.197878 -0.342737 0.918355
    outer loop
      vertex 5.10865 9.44845 5.127
      vertex -0.23094 0.4 0.599522
      vertex -0.173205 0.299999 0.574641
    endloop
  endfacet
  facet normal -0.197882 -0.342735 0.918355
    outer loop
      vertex 5.62827 9.14845 5.127
      vertex 0.346409 -8.69062e-18 0.574641
      vertex 0.46188 -1.15875e-17 0.599522
    endloop
  endfacet
  facet normal -0.197884 -0.342734 0.918355
    outer loop
      vertex 0.46188 -1.15875e-17 0.599522
      vertex 5.71487 9.09845 5.127
      vertex 5.62827 9.14845 5.127
    endloop
  endfacet
  facet normal 0 0 0
    outer loop
      vertex 5.71487 9.09845 5.127
      vertex 0.46188 -1.15875e-17 0.599522
      vertex 0.46188 -3.47625e-17 0.599522
    endloop
  endfacet
  facet normal 0.866026 -0.5 0
    outer loop
      vertex 0.46188 -3.47625e-17 0.599522
      vertex 5.71487 9.09845 3.627
      vertex 5.71487 9.09845 5.127
    endloop
  endfacet
  facet normal 0.866026 -0.5 0
    outer loop
      vertex 5.71487 9.09845 3.627
      vertex 0.46188 -3.47625e-17 0.599522
      vertex 0.46188 -1.15875e-17 0.0780129
    endloop
  endfacet
  facet normal 1 0 0
    outer loop
      vertex 0.46188 -1.15875e-17 0.0780129
      vertex 0.46188 -3.47625e-17 0.599522
      vertex 0.46188 -3.47625e-17 0.0780129
    endloop
  endfacet
  facet normal -0.866025 0.5 0
    outer loop
      vertex 0.588773 2.01979 0
      vertex 4.93545 9.54845 3.627
      vertex 4.93545 9.54845 2.127
    endloop
  endfacet
  facet normal -0.866026 0.499999 0
    outer loop
      vertex -0.288675 0.5 0.0975162
      vertex 0.588773 2.01979 0
      vertex -0.288675 0.5 0
    endloop
  endfacet
  facet normal -0.866026 0.499999 3.96216e-06
    outer loop
      vertex 0.588773 2.01979 0
      vertex -0.288675 0.5 0.0975162
      vertex 4.93545 9.54845 3.627
    endloop
  endfacet
  facet normal -0.160023 -0.27716 0.947404
    outer loop
      vertex -0.288675 0.5 0.0975162
      vertex 5.02205 9.49845 3.627
      vertex 4.93545 9.54845 3.627
    endloop
  endfacet
  facet normal -0.160019 -0.277162 0.947404
    outer loop
      vertex 5.02205 9.49845 3.627
      vertex -0.288675 0.5 0.0975162
      vertex -0.23094 0.4 0.0780129
    endloop
  endfacet
  facet normal -0.16002 -0.277162 0.947404
    outer loop
      vertex 5.71487 9.09845 3.627
      vertex 0.46188 -1.15875e-17 0.0780129
      vertex 0.57735 -1.44844e-17 0.0975162
    endloop
  endfacet
  facet normal -0.160023 -0.27716 0.947404
    outer loop
      vertex 0.57735 -1.44844e-17 0.0975162
      vertex 5.80147 9.04845 3.627
      vertex 5.71487 9.09845 3.627
    endloop
  endfacet
  facet normal 0 0 0
    outer loop
      vertex 5.80147 9.04845 3.627
      vertex 0.57735 -1.44844e-17 0.0975162
      vertex 0.57735 -4.34532e-17 0.0975162
    endloop
  endfacet
  facet normal 0.866026 -0.5 0
    outer loop
      vertex 5.80147 9.04845 3.627
      vertex 1.4548 1.51979 0
      vertex 5.80147 9.04845 2.127
    endloop
  endfacet
  facet normal 0.866026 -0.5 -3.99611e-07
    outer loop
      vertex 0.57735 -4.34532e-17 0.0975162
      vertex 1.4548 1.51979 0
      vertex 5.80147 9.04845 3.627
    endloop
  endfacet
  facet normal 0.866026 -0.5 0
    outer loop
      vertex 1.4548 1.51979 0
      vertex 0.57735 -4.34532e-17 0.0975162
      vertex 0.57735 -4.34532e-17 0
    endloop
  endfacet
  facet normal -0.866025 0.5 0
    outer loop
      vertex 4.84885 9.59845 0
      vertex 0.502171 2.06979 0
      vertex 4.84885 9.59845 2.127
    endloop
  endfacet
  facet normal -0.118832 -0.205818 0.971348
    outer loop
      vertex 4.84885 9.59845 2.127
      vertex 0.588773 2.01979 0
      vertex 4.93545 9.54845 2.127
    endloop
  endfacet
  facet normal -0.11883 -0.205819 0.971349
    outer loop
      vertex 0.588773 2.01979 0
      vertex 4.84885 9.59845 2.127
      vertex 0.502171 2.06979 0
    endloop
  endfacet
  facet normal -0.118822 -0.205824 0.971349
    outer loop
      vertex 5.80147 9.04845 2.127
      vertex 1.5414 1.46979 0
      vertex 5.88808 8.99845 2.127
    endloop
  endfacet
  facet normal -0.118832 -0.205818 0.971348
    outer loop
      vertex 1.5414 1.46979 0
      vertex 5.80147 9.04845 2.127
      vertex 1.4548 1.51979 0
    endloop
  endfacet
  facet normal 0.866025 -0.500001 0
    outer loop
      vertex 5.88808 8.99845 2.127
      vertex 1.5414 1.46979 0
      vertex 5.88808 8.99845 0
    endloop
  endfacet
  facet normal 0 -1 0
    outer loop
      vertex -10.7369 -0.2 6.627
      vertex -0.11547 -0.2 1.57127
      vertex -10.7369 -0.2 8.127
    endloop
  endfacet
  facet normal -0 -1 -0
    outer loop
      vertex -0.11547 -0.2 1.57127
      vertex -10.7369 -0.2 6.627
      vertex -0.11547 -0.2 1.06052
    endloop
  endfacet
  facet normal -1 0 0
    outer loop
      vertex -10.7369 0.599999 0
      vertex -10.7369 0.5 2.127
      vertex -10.7369 0.599999 2.127
    endloop
  endfacet
  facet normal -1 0 0
    outer loop
      vertex -10.7369 0.5 2.127
      vertex -10.7369 0.4 3.627
      vertex -10.7369 0.5 3.627
    endloop
  endfacet
  facet normal -1 0 0
    outer loop
      vertex -10.7369 -0.5 2.127
      vertex -10.7369 0.5 2.127
      vertex -10.7369 0.599999 0
    endloop
  endfacet
  facet normal -1 0 0
    outer loop
      vertex -10.7369 0.4 3.627
      vertex -10.7369 0.299999 5.127
      vertex -10.7369 0.4 5.127
    endloop
  endfacet
  facet normal -1 0 0
    outer loop
      vertex -10.7369 0.5 2.127
      vertex -10.7369 -0.5 2.127
      vertex -10.7369 0.4 3.627
    endloop
  endfacet
  facet normal -1 0 0
    outer loop
      vertex -10.7369 0.299999 5.127
      vertex -10.7369 0.2 6.627
      vertex -10.7369 0.299999 6.627
    endloop
  endfacet
  facet normal -1 0 0
    outer loop
      vertex -10.7369 0.4 3.627
      vertex -10.7369 -0.4 3.627
      vertex -10.7369 0.299999 5.127
    endloop
  endfacet
  facet normal -1 0 0
    outer loop
      vertex -10.7369 0.2 6.627
      vertex -10.7369 -0.2 6.627
      vertex -10.7369 0.2 8.127
    endloop
  endfacet
  facet normal -1 0 -0
    outer loop
      vertex -10.7369 -0.299999 5.127
      vertex -10.7369 0.299999 5.127
      vertex -10.7369 -0.4 3.627
    endloop
  endfacet
  facet normal -1 -0 0
    outer loop
      vertex -10.7369 0.2 6.627
      vertex -10.7369 -0.299999 5.127
      vertex -10.7369 -0.2 6.627
    endloop
  endfacet
  facet normal -1 0 0
    outer loop
      vertex -10.7369 0.299999 5.127
      vertex -10.7369 -0.299999 5.127
      vertex -10.7369 0.2 6.627
    endloop
  endfacet
  facet normal -1 -0 0
    outer loop
      vertex -10.7369 0.4 3.627
      vertex -10.7369 -0.5 2.127
      vertex -10.7369 -0.4 3.627
    endloop
  endfacet
  facet normal -1 0 0
    outer loop
      vertex -10.7369 -0.599999 0
      vertex -10.7369 -0.5 2.127
      vertex -10.7369 0.599999 0
    endloop
  endfacet
  facet normal -1 -0 0
    outer loop
      vertex -10.7369 -0.5 2.127
      vertex -10.7369 -0.599999 0
      vertex -10.7369 -0.599999 2.127
    endloop
  endfacet
  facet normal -1 -0 0
    outer loop
      vertex -10.7369 0.2 8.127
      vertex -10.7369 -0.2 6.627
      vertex -10.7369 -0.2 8.127
    endloop
  endfacet
  facet normal -1 -0 0
    outer loop
      vertex -10.7369 -0.2 6.627
      vertex -10.7369 -0.299999 5.127
      vertex -10.7369 -0.299999 6.627
    endloop
  endfacet
  facet normal -1 -0 0
    outer loop
      vertex -10.7369 -0.299999 5.127
      vertex -10.7369 -0.4 3.627
      vertex -10.7369 -0.4 5.127
    endloop
  endfacet
  facet normal -1 -0 0
    outer loop
      vertex -10.7369 -0.4 3.627
      vertex -10.7369 -0.5 2.127
      vertex -10.7369 -0.5 3.627
    endloop
  endfacet
  facet normal 0.525226 -4.45161e-05 0.850963
    outer loop
      vertex -0.11547 0.2 1.57127
      vertex -10.6947 0.1 8.10091
      vertex -0.0577351 0.1 1.53563
    endloop
  endfacet
  facet normal 0.525862 0 0.85057
    outer loop
      vertex -10.6947 0.1 8.10091
      vertex -10.7369 0.2 8.127
      vertex -10.6947 -0.0999996 8.10091
    endloop
  endfacet
  facet normal 0.525228 -0.000369584 0.850961
    outer loop
      vertex -10.7369 0.2 8.127
      vertex -10.6947 0.1 8.10091
      vertex -0.11547 0.2 1.57127
    endloop
  endfacet
  facet normal 0.525226 4.24264e-05 0.850963
    outer loop
      vertex -10.6947 -0.0999996 8.10091
      vertex -0.11547 -0.2 1.57127
      vertex -0.0577347 -0.0999995 1.53563
    endloop
  endfacet
  facet normal 0.525228 0.000369582 0.850961
    outer loop
      vertex -10.6947 -0.0999996 8.10091
      vertex -10.7369 -0.2 8.127
      vertex -0.11547 -0.2 1.57127
    endloop
  endfacet
  facet normal 0.525862 -0 0.85057
    outer loop
      vertex -10.7369 -0.2 8.127
      vertex -10.6947 -0.0999996 8.10091
      vertex -10.7369 0.2 8.127
    endloop
  endfacet
  facet normal 0 1 0
    outer loop
      vertex -0.11547 0.2 1.57127
      vertex -10.7369 0.2 6.627
      vertex -10.7369 0.2 8.127
    endloop
  endfacet
  facet normal 0 1 0
    outer loop
      vertex -10.7369 0.2 6.627
      vertex -0.11547 0.2 1.57127
      vertex -0.11547 0.2 1.06052
    endloop
  endfacet
  facet normal 0 -1 0
    outer loop
      vertex -10.7369 -0.299999 5.127
      vertex -0.173205 -0.299999 1.09077
      vertex -10.7369 -0.299999 6.627
    endloop
  endfacet
  facet normal -0 -1 -0
    outer loop
      vertex -0.173205 -0.299999 1.09077
      vertex -10.7369 -0.299999 5.127
      vertex -0.173205 -0.299999 0.574641
    endloop
  endfacet
  facet normal 0.464195 -6.87694e-05 0.885733
    outer loop
      vertex -10.7369 -0.2 6.627
      vertex -0.173205 -0.299999 1.09077
      vertex -0.11547 -0.2 1.06052
    endloop
  endfacet
  facet normal 0.464196 0 0.885733
    outer loop
      vertex -0.173205 -0.299999 1.09077
      vertex -10.7369 -0.2 6.627
      vertex -10.7369 -0.299999 6.627
    endloop
  endfacet
  facet normal 0.464196 -0 0.885733
    outer loop
      vertex -10.7369 0.2 6.627
      vertex -0.173205 0.299999 1.09077
      vertex -10.7369 0.299999 6.627
    endloop
  endfacet
  facet normal 0.464195 6.87694e-05 0.885733
    outer loop
      vertex -0.173205 0.299999 1.09077
      vertex -10.7369 0.2 6.627
      vertex -0.11547 0.2 1.06052
    endloop
  endfacet
  facet normal 0 1 0
    outer loop
      vertex -0.173205 0.299999 1.09077
      vertex -10.7369 0.299999 5.127
      vertex -10.7369 0.299999 6.627
    endloop
  endfacet
  facet normal 0 1 0
    outer loop
      vertex -10.7369 0.299999 5.127
      vertex -0.173205 0.299999 1.09077
      vertex -0.173205 0.299999 0.574641
    endloop
  endfacet
  facet normal 0 -1 0
    outer loop
      vertex -10.7369 -0.4 3.627
      vertex -0.23094 -0.4 0.599522
      vertex -10.7369 -0.4 5.127
    endloop
  endfacet
  facet normal -0 -1 -0
    outer loop
      vertex -0.23094 -0.4 0.599522
      vertex -10.7369 -0.4 3.627
      vertex -0.23094 -0.4 0.0780129
    endloop
  endfacet
  facet normal 0.395759 4.21494e-06 0.918354
    outer loop
      vertex -10.7369 -0.299999 5.127
      vertex -0.23094 -0.4 0.599522
      vertex -0.173205 -0.299999 0.574641
    endloop
  endfacet
  facet normal 0.395759 0 0.918354
    outer loop
      vertex -0.23094 -0.4 0.599522
      vertex -10.7369 -0.299999 5.127
      vertex -10.7369 -0.4 5.127
    endloop
  endfacet
  facet normal 0.395759 -0 0.918354
    outer loop
      vertex -10.7369 0.299999 5.127
      vertex -0.23094 0.4 0.599522
      vertex -10.7369 0.4 5.127
    endloop
  endfacet
  facet normal 0.395759 -4.21494e-06 0.918354
    outer loop
      vertex -0.23094 0.4 0.599522
      vertex -10.7369 0.299999 5.127
      vertex -0.173205 0.299999 0.574641
    endloop
  endfacet
  facet normal 0 1 0
    outer loop
      vertex -0.23094 0.4 0.599522
      vertex -10.7369 0.4 3.627
      vertex -10.7369 0.4 5.127
    endloop
  endfacet
  facet normal 0 1 0
    outer loop
      vertex -10.7369 0.4 3.627
      vertex -0.23094 0.4 0.599522
      vertex -0.23094 0.4 0.0780129
    endloop
  endfacet
  facet normal 0 -1 0
    outer loop
      vertex -2.04357 -0.5 0
      vertex -10.7369 -0.5 3.627
      vertex -10.7369 -0.5 2.127
    endloop
  endfacet
  facet normal 0 -1 0
    outer loop
      vertex -10.7369 -0.5 3.627
      vertex -2.04357 -0.5 0
      vertex -0.288675 -0.5 0.0975162
    endloop
  endfacet
  facet normal 0 -1 -0
    outer loop
      vertex -0.288675 -0.5 0.0975162
      vertex -2.04357 -0.5 0
      vertex -0.288675 -0.5 0
    endloop
  endfacet
  facet normal 0.32004 1.07717e-07 0.947404
    outer loop
      vertex -10.7369 -0.4 3.627
      vertex -0.288675 -0.5 0.0975162
      vertex -0.23094 -0.4 0.0780129
    endloop
  endfacet
  facet normal 0.32004 0 0.947404
    outer loop
      vertex -0.288675 -0.5 0.0975162
      vertex -10.7369 -0.4 3.627
      vertex -10.7369 -0.5 3.627
    endloop
  endfacet
  facet normal 0.32004 -0 0.947404
    outer loop
      vertex -10.7369 0.4 3.627
      vertex -0.288675 0.5 0.0975162
      vertex -10.7369 0.5 3.627
    endloop
  endfacet
  facet normal 0.32004 -1.07717e-07 0.947404
    outer loop
      vertex -0.288675 0.5 0.0975162
      vertex -10.7369 0.4 3.627
      vertex -0.23094 0.4 0.0780129
    endloop
  endfacet
  facet normal 0 1 -0
    outer loop
      vertex -2.04357 0.5 0
      vertex -10.7369 0.5 3.627
      vertex -0.288675 0.5 0.0975162
    endloop
  endfacet
  facet normal 0 1 0
    outer loop
      vertex -2.04357 0.5 0
      vertex -0.288675 0.5 0.0975162
      vertex -0.288675 0.5 0
    endloop
  endfacet
  facet normal 0 1 0
    outer loop
      vertex -10.7369 0.5 3.627
      vertex -2.04357 0.5 0
      vertex -10.7369 0.5 2.127
    endloop
  endfacet
  facet normal 0 -1 0
    outer loop
      vertex -10.7369 -0.599999 2.127
      vertex -10.7369 -0.599999 0
      vertex -2.04357 -0.599999 0
    endloop
  endfacet
  facet normal 0.23766 0 0.971348
    outer loop
      vertex -10.7369 -0.5 2.127
      vertex -2.04357 -0.599999 0
      vertex -2.04357 -0.5 0
    endloop
  endfacet
  facet normal 0.23766 0 0.971348
    outer loop
      vertex -2.04357 -0.599999 0
      vertex -10.7369 -0.5 2.127
      vertex -10.7369 -0.599999 2.127
    endloop
  endfacet
  facet normal 0.23766 0 0.971348
    outer loop
      vertex -10.7369 0.599999 2.127
      vertex -2.04357 0.5 0
      vertex -2.04357 0.599999 0
    endloop
  endfacet
  facet normal 0.23766 0 0.971348
    outer loop
      vertex -2.04357 0.5 0
      vertex -10.7369 0.599999 2.127
      vertex -10.7369 0.5 2.127
    endloop
  endfacet
  facet normal 0 1 0
    outer loop
      vertex -2.04357 0.599999 0
      vertex -10.7369 0.599999 0
      vertex -10.7369 0.599999 2.127
    endloop
  endfacet
  facet normal 0 0 0
    outer loop
      vertex 5.54167 -9.19845 8.127
      vertex 0.23094 -1.73813e-17 1.57127
      vertex 0.23094 -5.79375e-18 1.57127
    endloop
  endfacet
  facet normal 0.866025 0.5 -0
    outer loop
      vertex 5.54167 -9.19845 6.627
      vertex 0.23094 -1.73813e-17 1.57127
      vertex 5.54167 -9.19845 8.127
    endloop
  endfacet
  facet normal 0.866025 0.5 0
    outer loop
      vertex 0.23094 -1.73813e-17 1.57127
      vertex 5.54167 -9.19845 6.627
      vertex 0.23094 -1.73813e-17 1.06052
    endloop
  endfacet
  facet normal 0.500011 -0.866019 0
    outer loop
      vertex 4.84885 -9.59845 0
      vertex 4.93545 -9.54845 2.127
      vertex 4.84885 -9.59845 2.127
    endloop
  endfacet
  facet normal 0.500002 -0.866024 4.70148e-07
    outer loop
      vertex 4.93545 -9.54845 2.127
      vertex 4.84885 -9.59845 0
      vertex 5.80147 -9.04845 2.127
    endloop
  endfacet
  facet normal 0.5 -0.866025 1.76305e-06
    outer loop
      vertex 5.88808 -8.99845 0
      vertex 5.80147 -9.04845 2.127
      vertex 4.84885 -9.59845 0
    endloop
  endfacet
  facet normal 0.499968 -0.866044 0
    outer loop
      vertex 5.80147 -9.04845 2.127
      vertex 5.88808 -8.99845 0
      vertex 5.88808 -8.99845 2.127
    endloop
  endfacet
  facet normal 0.500011 -0.866019 0
    outer loop
      vertex 4.93545 -9.54845 2.127
      vertex 5.02205 -9.49845 3.627
      vertex 4.93545 -9.54845 3.627
    endloop
  endfacet
  facet normal 0.5 -0.866025 8.33334e-07
    outer loop
      vertex 5.02205 -9.49845 3.627
      vertex 4.93545 -9.54845 2.127
      vertex 5.71487 -9.09845 3.627
    endloop
  endfacet
  facet normal 0.500002 -0.866024 -6.6667e-07
    outer loop
      vertex 5.80147 -9.04845 2.127
      vertex 5.71487 -9.09845 3.627
      vertex 4.93545 -9.54845 2.127
    endloop
  endfacet
  facet normal 0.500011 -0.866019 0
    outer loop
      vertex 5.71487 -9.09845 3.627
      vertex 5.80147 -9.04845 2.127
      vertex 5.80147 -9.04845 3.627
    endloop
  endfacet
  facet normal 0.500011 -0.866019 0
    outer loop
      vertex 5.02205 -9.49845 3.627
      vertex 5.10865 -9.44845 5.127
      vertex 5.02205 -9.49845 5.127
    endloop
  endfacet
  facet normal 0.499997 -0.866027 1.1111e-06
    outer loop
      vertex 5.10865 -9.44845 5.127
      vertex 5.02205 -9.49845 3.627
      vertex 5.62827 -9.14845 5.127
    endloop
  endfacet
  facet normal 0.5 -0.866025 -8.33334e-07
    outer loop
      vertex 5.71487 -9.09845 3.627
      vertex 5.62827 -9.14845 5.127
      vertex 5.02205 -9.49845 3.627
    endloop
  endfacet
  facet normal 0.500011 -0.866019 0
    outer loop
      vertex 5.62827 -9.14845 5.127
      vertex 5.71487 -9.09845 3.627
      vertex 5.71487 -9.09845 5.127
    endloop
  endfacet
  facet normal 0.499968 -0.866044 0
    outer loop
      vertex 5.10865 -9.44845 5.127
      vertex 5.19526 -9.39845 6.627
      vertex 5.10865 -9.44845 6.627
    endloop
  endfacet
  facet normal 0.5 -0.866025 -2.5e-06
    outer loop
      vertex 5.19526 -9.39845 6.627
      vertex 5.10865 -9.44845 5.127
      vertex 5.54167 -9.19845 6.627
    endloop
  endfacet
  facet normal 0.499997 -0.866027 -1.1111e-06
    outer loop
      vertex 5.62827 -9.14845 5.127
      vertex 5.54167 -9.19845 6.627
      vertex 5.10865 -9.44845 5.127
    endloop
  endfacet
  facet normal 0.500011 -0.866019 0
    outer loop
      vertex 5.54167 -9.19845 6.627
      vertex 5.62827 -9.14845 5.127
      vertex 5.62827 -9.14845 6.627
    endloop
  endfacet
  facet normal 0.5 -0.866025 0
    outer loop
      vertex 5.19526 -9.39845 6.627
      vertex 5.54167 -9.19845 8.127
      vertex 5.19526 -9.39845 8.127
    endloop
  endfacet
  facet normal 0.5 -0.866025 0
    outer loop
      vertex 5.54167 -9.19845 8.127
      vertex 5.19526 -9.39845 6.627
      vertex 5.54167 -9.19845 6.627
    endloop
  endfacet
  facet normal -0.262637 0.454846 0.850962
    outer loop
      vertex 0.23094 -5.79375e-18 1.57127
      vertex 5.43393 -9.21185 8.10091
      vertex 5.54167 -9.19845 8.127
    endloop
  endfacet
  facet normal -0.262651 0.454839 0.850962
    outer loop
      vertex 5.43393 -9.21185 8.10091
      vertex 0.23094 -5.79375e-18 1.57127
      vertex 0.11547 -2.89688e-18 1.53563
    endloop
  endfacet
  facet normal -0.262637 0.454887 0.85094
    outer loop
      vertex 5.26073 -9.31185 8.10091
      vertex 5.54167 -9.19845 8.127
      vertex 5.43393 -9.21185 8.10091
    endloop
  endfacet
  facet normal -0.262648 0.45492 0.850919
    outer loop
      vertex 5.26073 -9.31185 8.10091
      vertex 5.19526 -9.39845 8.127
      vertex 5.54167 -9.19845 8.127
    endloop
  endfacet
  facet normal -0.262578 0.454881 0.850962
    outer loop
      vertex -0.11547 -0.2 1.57127
      vertex 5.26073 -9.31185 8.10091
      vertex -0.0577347 -0.0999995 1.53563
    endloop
  endfacet
  facet normal -0.262579 0.45488 0.850962
    outer loop
      vertex 5.26073 -9.31185 8.10091
      vertex -0.11547 -0.2 1.57127
      vertex 5.19526 -9.39845 8.127
    endloop
  endfacet
  facet normal -0.866025 -0.5 0
    outer loop
      vertex 5.19526 -9.39845 6.627
      vertex -0.11547 -0.2 1.57127
      vertex -0.11547 -0.2 1.06052
    endloop
  endfacet
  facet normal -0.866025 -0.5 0
    outer loop
      vertex -0.11547 -0.2 1.57127
      vertex 5.19526 -9.39845 6.627
      vertex 5.19526 -9.39845 8.127
    endloop
  endfacet
  facet normal 0 0 0
    outer loop
      vertex 5.62827 -9.14845 6.627
      vertex 0.346409 -2.60718e-17 1.09077
      vertex 0.346409 -8.69062e-18 1.09077
    endloop
  endfacet
  facet normal 0.866025 0.5 -0
    outer loop
      vertex 5.62827 -9.14845 5.127
      vertex 0.346409 -2.60718e-17 1.09077
      vertex 5.62827 -9.14845 6.627
    endloop
  endfacet
  facet normal 0.866025 0.5 0
    outer loop
      vertex 0.346409 -2.60718e-17 1.09077
      vertex 5.62827 -9.14845 5.127
      vertex 0.346409 -2.60718e-17 0.574641
    endloop
  endfacet
  facet normal -0.232102 0.402001 0.885733
    outer loop
      vertex 0.346409 -8.69062e-18 1.09077
      vertex 5.54167 -9.19845 6.627
      vertex 5.62827 -9.14845 6.627
    endloop
  endfacet
  facet normal -0.253423 0 0.967356
    outer loop
      vertex 0.23094 -1.73813e-17 1.06052
      vertex 0.346409 -8.69062e-18 1.09077
      vertex 0.23094 -5.79375e-18 1.06052
    endloop
  endfacet
  facet normal -0.23204 0.402037 0.885733
    outer loop
      vertex 0.346409 -8.69062e-18 1.09077
      vertex 0.23094 -1.73813e-17 1.06052
      vertex 5.54167 -9.19845 6.627
    endloop
  endfacet
  facet normal -0.232153 0.401972 0.885733
    outer loop
      vertex -0.173205 -0.299999 1.09077
      vertex 5.19526 -9.39845 6.627
      vertex -0.11547 -0.2 1.06052
    endloop
  endfacet
  facet normal -0.232082 0.402013 0.885733
    outer loop
      vertex 5.19526 -9.39845 6.627
      vertex -0.173205 -0.299999 1.09077
      vertex 5.10865 -9.44845 6.627
    endloop
  endfacet
  facet normal -0.866026 -0.5 0
    outer loop
      vertex 5.10865 -9.44845 5.127
      vertex -0.173205 -0.299999 1.09077
      vertex -0.173205 -0.299999 0.574641
    endloop
  endfacet
  facet normal -0.866026 -0.5 0
    outer loop
      vertex -0.173205 -0.299999 1.09077
      vertex 5.10865 -9.44845 5.127
      vertex 5.10865 -9.44845 6.627
    endloop
  endfacet
  facet normal 0 0 0
    outer loop
      vertex 5.71487 -9.09845 5.127
      vertex 0.46188 -3.47625e-17 0.599522
      vertex 0.46188 -1.15875e-17 0.599522
    endloop
  endfacet
  facet normal 0.866026 0.5 -0
    outer loop
      vertex 5.71487 -9.09845 3.627
      vertex 0.46188 -3.47625e-17 0.599522
      vertex 5.71487 -9.09845 5.127
    endloop
  endfacet
  facet normal 0.866026 0.5 0
    outer loop
      vertex 0.46188 -3.47625e-17 0.599522
      vertex 5.71487 -9.09845 3.627
      vertex 0.46188 -3.47625e-17 0.0780129
    endloop
  endfacet
  facet normal -0.197884 0.342734 0.918355
    outer loop
      vertex 0.46188 -1.15875e-17 0.599522
      vertex 5.62827 -9.14845 5.127
      vertex 5.71487 -9.09845 5.127
    endloop
  endfacet
  facet normal -0.21064 0 0.977564
    outer loop
      vertex 0.346409 -2.60718e-17 0.574641
      vertex 0.46188 -1.15875e-17 0.599522
      vertex 0.346409 -8.69062e-18 0.574641
    endloop
  endfacet
  facet normal -0.197882 0.342735 0.918355
    outer loop
      vertex 0.46188 -1.15875e-17 0.599522
      vertex 0.346409 -2.60718e-17 0.574641
      vertex 5.62827 -9.14845 5.127
    endloop
  endfacet
  facet normal -0.197878 0.342737 0.918355
    outer loop
      vertex -0.23094 -0.4 0.599522
      vertex 5.10865 -9.44845 5.127
      vertex -0.173205 -0.299999 0.574641
    endloop
  endfacet
  facet normal -0.197884 0.342734 0.918355
    outer loop
      vertex 5.10865 -9.44845 5.127
      vertex -0.23094 -0.4 0.599522
      vertex 5.02205 -9.49845 5.127
    endloop
  endfacet
  facet normal -0.866026 -0.5 0
    outer loop
      vertex 5.02205 -9.49845 3.627
      vertex -0.23094 -0.4 0.599522
      vertex -0.23094 -0.4 0.0780129
    endloop
  endfacet
  facet normal -0.866026 -0.5 0
    outer loop
      vertex -0.23094 -0.4 0.599522
      vertex 5.02205 -9.49845 3.627
      vertex 5.02205 -9.49845 5.127
    endloop
  endfacet
  facet normal 0.866026 0.5 0
    outer loop
      vertex 0.57735 -4.34532e-17 0.0975162
      vertex 1.4548 -1.51979 0
      vertex 0.57735 -4.34532e-17 0
    endloop
  endfacet
  facet normal 0 0 0
    outer loop
      vertex 5.80147 -9.04845 3.627
      vertex 0.57735 -4.34532e-17 0.0975162
      vertex 0.57735 -1.44844e-17 0.0975162
    endloop
  endfacet
  facet normal 0.866026 0.5 -3.99611e-07
    outer loop
      vertex 5.80147 -9.04845 3.627
      vertex 1.4548 -1.51979 0
      vertex 0.57735 -4.34532e-17 0.0975162
    endloop
  endfacet
  facet normal 0.866026 0.5 0
    outer loop
      vertex 1.4548 -1.51979 0
      vertex 5.80147 -9.04845 3.627
      vertex 5.80147 -9.04845 2.127
    endloop
  endfacet
  facet normal -0.160023 0.27716 0.947404
    outer loop
      vertex 0.57735 -1.44844e-17 0.0975162
      vertex 5.71487 -9.09845 3.627
      vertex 5.80147 -9.04845 3.627
    endloop
  endfacet
  facet normal -0.166545 0 0.986034
    outer loop
      vertex 0.46188 -3.47625e-17 0.0780129
      vertex 0.57735 -1.44844e-17 0.0975162
      vertex 0.46188 -1.15875e-17 0.0780129
    endloop
  endfacet
  facet normal -0.16002 0.277162 0.947404
    outer loop
      vertex 0.57735 -1.44844e-17 0.0975162
      vertex 0.46188 -3.47625e-17 0.0780129
      vertex 5.71487 -9.09845 3.627
    endloop
  endfacet
  facet normal -0.160019 0.277162 0.947404
    outer loop
      vertex -0.288675 -0.5 0.0975162
      vertex 5.02205 -9.49845 3.627
      vertex -0.23094 -0.4 0.0780129
    endloop
  endfacet
  facet normal -0.160023 0.27716 0.947404
    outer loop
      vertex 5.02205 -9.49845 3.627
      vertex -0.288675 -0.5 0.0975162
      vertex 4.93545 -9.54845 3.627
    endloop
  endfacet
  facet normal -0.866026 -0.499999 0
    outer loop
      vertex 0.588773 -2.01979 0
      vertex -0.288675 -0.5 0.0975162
      vertex -0.288675 -0.5 0
    endloop
  endfacet
  facet normal -0.866025 -0.5 -0
    outer loop
      vertex 4.93545 -9.54845 3.627
      vertex 0.588773 -2.01979 0
      vertex 4.93545 -9.54845 2.127
    endloop
  endfacet
  facet normal -0.866026 -0.499999 3.96216e-06
    outer loop
      vertex 0.588773 -2.01979 0
      vertex 4.93545 -9.54845 3.627
      vertex -0.288675 -0.5 0.0975162
    endloop
  endfacet
  facet normal 0.866025 0.500001 -0
    outer loop
      vertex 5.88808 -8.99845 0
      vertex 1.5414 -1.46979 0
      vertex 5.88808 -8.99845 2.127
    endloop
  endfacet
  facet normal -0.118822 0.205824 0.971349
    outer loop
      vertex 1.5414 -1.46979 0
      vertex 5.80147 -9.04845 2.127
      vertex 5.88808 -8.99845 2.127
    endloop
  endfacet
  facet normal -0.118832 0.205818 0.971348
    outer loop
      vertex 5.80147 -9.04845 2.127
      vertex 1.5414 -1.46979 0
      vertex 1.4548 -1.51979 0
    endloop
  endfacet
  facet normal -0.118832 0.205818 0.971348
    outer loop
      vertex 0.588773 -2.01979 0
      vertex 4.84885 -9.59845 2.127
      vertex 4.93545 -9.54845 2.127
    endloop
  endfacet
  facet normal -0.11883 0.205819 0.971349
    outer loop
      vertex 4.84885 -9.59845 2.127
      vertex 0.588773 -2.01979 0
      vertex 0.502171 -2.06979 0
    endloop
  endfacet
  facet normal -0.866025 -0.5 -0
    outer loop
      vertex 4.84885 -9.59845 2.127
      vertex 0.502171 -2.06979 0
      vertex 4.84885 -9.59845 0
    endloop
  endfacet
  facet normal 0 0 -1
    outer loop
      vertex 1.4548 -1.51979 0
      vertex 5.88808 -8.99845 0
      vertex 4.84885 -9.59845 0
    endloop
  endfacet
  facet normal 0 0 -1
    outer loop
      vertex 5.88808 -8.99845 0
      vertex 1.4548 -1.51979 0
      vertex 1.5414 -1.46979 0
    endloop
  endfacet
  facet normal 0 0 -1
    outer loop
      vertex 4.84885 -9.59845 0
      vertex 0.588773 -2.01979 0
      vertex 1.4548 -1.51979 0
    endloop
  endfacet
  facet normal 0 -0 -1
    outer loop
      vertex 0.588773 -2.01979 0
      vertex 4.84885 -9.59845 0
      vertex 0.502171 -2.06979 0
    endloop
  endfacet
  facet normal 0 0 -1
    outer loop
      vertex 0.588773 -2.01979 0
      vertex 0.57735 -4.34532e-17 0
      vertex 1.4548 -1.51979 0
    endloop
  endfacet
  facet normal 0 -0 -1
    outer loop
      vertex 0.57735 -4.34532e-17 0
      vertex 0.588773 -2.01979 0
      vertex -0.288675 -0.5 0
    endloop
  endfacet
  facet normal 0 0 -1
    outer loop
      vertex 0.57735 -4.34532e-17 0
      vertex 0.588773 2.01979 0
      vertex 1.4548 1.51979 0
    endloop
  endfacet
  facet normal 0 0 -1
    outer loop
      vertex -0.288675 0.5 0
      vertex 0.57735 -4.34532e-17 0
      vertex -0.288675 -0.5 0
    endloop
  endfacet
  facet normal 0 0 -1
    outer loop
      vertex 0.57735 -4.34532e-17 0
      vertex -0.288675 0.5 0
      vertex 0.588773 2.01979 0
    endloop
  endfacet
  facet normal 0 0 -1
    outer loop
      vertex -2.04357 -0.5 0
      vertex -0.288675 0.5 0
      vertex -0.288675 -0.5 0
    endloop
  endfacet
  facet normal -0 0 -1
    outer loop
      vertex -0.288675 0.5 0
      vertex -2.04357 -0.5 0
      vertex -2.04357 0.5 0
    endloop
  endfacet
  facet normal 0 0 -1
    outer loop
      vertex 1.4548 1.51979 0
      vertex 5.88808 8.99845 0
      vertex 1.5414 1.46979 0
    endloop
  endfacet
  facet normal -0 0 -1
    outer loop
      vertex 5.88808 8.99845 0
      vertex 1.4548 1.51979 0
      vertex 4.84885 9.59845 0
    endloop
  endfacet
  facet normal 0 0 -1
    outer loop
      vertex 0.588773 2.01979 0
      vertex 4.84885 9.59845 0
      vertex 1.4548 1.51979 0
    endloop
  endfacet
  facet normal 0 0 -1
    outer loop
      vertex 4.84885 9.59845 0
      vertex 0.588773 2.01979 0
      vertex 0.502171 2.06979 0
    endloop
  endfacet
  facet normal 0 0 -1
    outer loop
      vertex -10.7369 -0.599999 0
      vertex -2.04357 -0.5 0
      vertex -2.04357 -0.599999 0
    endloop
  endfacet
  facet normal -0 0 -1
    outer loop
      vertex -2.04357 -0.5 0
      vertex -10.7369 -0.599999 0
      vertex -2.04357 0.5 0
    endloop
  endfacet
  facet normal 0 0 -1
    outer loop
      vertex -10.7369 0.599999 0
      vertex -2.04357 0.5 0
      vertex -10.7369 -0.599999 0
    endloop
  endfacet
  facet normal 0 0 -1
    outer loop
      vertex -2.04357 0.5 0
      vertex -10.7369 0.599999 0
      vertex -2.04357 0.599999 0
    endloop
  endfacet
endsolid OpenSCAD_Model
