solid OpenSCAD_Model
  facet normal 0 0.816483 -0.57737
    outer loop
      vertex -8.15534 8.15534 14.5334
      vertex -8.18405 8.18405 14.574
      vertex -8.12663 8.18405 14.574
    endloop
  endfacet
  facet normal 0 0.816483 -0.57737
    outer loop
      vertex 8.15534 8.15534 14.5334
      vertex 8.12663 8.18405 14.574
      vertex 8.18405 8.18405 14.574
    endloop
  endfacet
  facet normal 0 0.816498 -0.577348
    outer loop
      vertex 0 0.141421 3.19994
      vertex -8.04263 8.18405 14.574
      vertex 8.04263 8.18405 14.574
    endloop
  endfacet
  facet normal 0 -0.816483 0.57737
    outer loop
      vertex -8.15534 -8.15534 14.6145
      vertex -8.18405 -8.18405 14.5739
      vertex -8.12663 -8.18405 14.5739
    endloop
  endfacet
  facet normal 0 -0.816483 0.57737
    outer loop
      vertex 8.15534 -8.15534 14.6145
      vertex 8.12663 -8.18405 14.5739
      vertex 8.18405 -8.18405 14.5739
    endloop
  endfacet
  facet normal -0.000432135 -0.816354 0.577552
    outer loop
      vertex -8.02636 -8.16778 14.597
      vertex -8.34485e-07 -2.23963e-05 26.1479
      vertex -8.13235 -8.13235 14.647
    endloop
  endfacet
  facet normal 0 -0.816495 0.577352
    outer loop
      vertex -8.34485e-07 -2.23963e-05 26.1479
      vertex -8.02636 -8.16778 14.597
      vertex 8.34485e-07 -2.23963e-05 26.1479
    endloop
  endfacet
  facet normal 0 -0.816495 0.577352
    outer loop
      vertex 8.02636 -8.16778 14.597
      vertex 8.34485e-07 -2.23963e-05 26.1479
      vertex -8.02636 -8.16778 14.597
    endloop
  endfacet
  facet normal 0.000432135 -0.816354 0.577552
    outer loop
      vertex 8.34485e-07 -2.23963e-05 26.1479
      vertex 8.02636 -8.16778 14.597
      vertex 8.13235 -8.13235 14.647
    endloop
  endfacet
  facet normal 0 -0.817566 0.575835
    outer loop
      vertex -8.04263 -8.18405 14.5739
      vertex 8.02636 -8.16778 14.597
      vertex -8.02636 -8.16778 14.597
    endloop
  endfacet
  facet normal 0 -0.817566 0.575835
    outer loop
      vertex 8.02636 -8.16778 14.597
      vertex -8.04263 -8.18405 14.5739
      vertex 8.04263 -8.18405 14.5739
    endloop
  endfacet
  facet normal -0.817563 -8.49753e-06 0.575839
    outer loop
      vertex -8.18405 -1.26608 14.574
      vertex -8.18405 -8.04263 14.5739
      vertex -8.16778 -8.02636 14.597
    endloop
  endfacet
  facet normal -0.816496 -7.83845e-07 0.577352
    outer loop
      vertex -8.16778 -8.02636 14.597
      vertex -1.72949 1.72947 23.7021
      vertex -8.18405 -1.26608 14.574
    endloop
  endfacet
  facet normal -0.816492 -8.28941e-06 0.577357
    outer loop
      vertex -1.72949 1.72947 23.7021
      vertex -8.16778 -8.02636 14.597
      vertex -8.34485e-07 -2.23963e-05 26.1479
    endloop
  endfacet
  facet normal -0.816353 -0.000431594 0.577553
    outer loop
      vertex -8.34485e-07 -2.23963e-05 26.1479
      vertex -8.16778 -8.02636 14.597
      vertex -8.13235 -8.13235 14.647
    endloop
  endfacet
  facet normal -0.816483 0 0.57737
    outer loop
      vertex -8.15534 -8.15534 14.6145
      vertex -8.18405 -8.12663 14.5739
      vertex -8.18405 -8.18405 14.5739
    endloop
  endfacet
  facet normal -0.816554 0 0.577268
    outer loop
      vertex -8.18405 1.26608 14.574
      vertex -8.16779 8.02637 14.597
      vertex -8.18405 8.04263 14.574
    endloop
  endfacet
  facet normal -0.816496 -4.23136e-07 0.577351
    outer loop
      vertex -8.18405 1.26608 14.574
      vertex -1.72949 1.72947 23.7021
      vertex -8.16779 8.02637 14.597
    endloop
  endfacet
  facet normal -0.816496 0 0.577351
    outer loop
      vertex -1.72949 1.72947 23.7021
      vertex -8.18405 1.26608 14.574
      vertex -8.18405 -1.26608 14.574
    endloop
  endfacet
  facet normal -0.816488 2.22294e-05 0.577362
    outer loop
      vertex -8.13236 8.13236 14.6471
      vertex -8.16779 8.02637 14.597
      vertex -1.72949 1.72947 23.7021
    endloop
  endfacet
  facet normal -0.816483 0 0.57737
    outer loop
      vertex -8.18405 8.18405 14.574
      vertex -8.18405 8.12663 14.574
      vertex -8.15534 8.15534 14.6146
    endloop
  endfacet
  facet normal 0.816498 0 -0.577349
    outer loop
      vertex 8.18405 -1.26608 14.574
      vertex 1.82607 -1.68465 5.58242
      vertex 8.18405 1.26608 14.574
    endloop
  endfacet
  facet normal 0.816498 8.51981e-06 -0.577349
    outer loop
      vertex 1.82607 -1.68465 5.58242
      vertex 8.18405 -1.26608 14.574
      vertex 8.18405 -8.04263 14.5739
    endloop
  endfacet
  facet normal 0.816483 0 -0.57737
    outer loop
      vertex 8.18405 -8.18405 14.5739
      vertex 8.15534 -8.15534 14.5333
      vertex 8.18405 -8.12663 14.5739
    endloop
  endfacet
  facet normal 0.816498 0 -0.577349
    outer loop
      vertex 1.82607 -1.68465 5.58242
      vertex 8.18405 8.04263 14.574
      vertex 8.18405 1.26608 14.574
    endloop
  endfacet
  facet normal 0.816497 1.84945e-06 -0.57735
    outer loop
      vertex 8.18405 8.04263 14.574
      vertex 1.82607 -1.68465 5.58242
      vertex 0.141421 0 3.19997
    endloop
  endfacet
  facet normal 0.816483 0 -0.57737
    outer loop
      vertex 8.18405 8.12663 14.574
      vertex 8.15534 8.15534 14.5334
      vertex 8.18405 8.18405 14.574
    endloop
  endfacet
  facet normal 0.816492 -8.28941e-06 0.577357
    outer loop
      vertex 8.16778 -8.02636 14.597
      vertex 1.72949 1.72947 23.7021
      vertex 8.34485e-07 -2.23963e-05 26.1479
    endloop
  endfacet
  facet normal 0.816496 -7.83845e-07 0.577352
    outer loop
      vertex 1.72949 1.72947 23.7021
      vertex 8.16778 -8.02636 14.597
      vertex 8.18405 -1.26608 14.574
    endloop
  endfacet
  facet normal 0.816353 -0.000431594 0.577553
    outer loop
      vertex 8.16778 -8.02636 14.597
      vertex 8.34485e-07 -2.23963e-05 26.1479
      vertex 8.13235 -8.13235 14.647
    endloop
  endfacet
  facet normal 0.817563 -8.49753e-06 0.575839
    outer loop
      vertex 8.18405 -1.26608 14.574
      vertex 8.16778 -8.02636 14.597
      vertex 8.18405 -8.04263 14.5739
    endloop
  endfacet
  facet normal 0.816483 0 0.57737
    outer loop
      vertex 8.18405 -8.12663 14.5739
      vertex 8.15534 -8.15534 14.6145
      vertex 8.18405 -8.18405 14.5739
    endloop
  endfacet
  facet normal 0.816488 2.22294e-05 0.577362
    outer loop
      vertex 8.13236 8.13236 14.6471
      vertex 1.72949 1.72947 23.7021
      vertex 8.16779 8.02637 14.597
    endloop
  endfacet
  facet normal 0.816554 0 0.577268
    outer loop
      vertex 8.16779 8.02637 14.597
      vertex 8.18405 1.26608 14.574
      vertex 8.18405 8.04263 14.574
    endloop
  endfacet
  facet normal 0.816496 -4.23136e-07 0.577351
    outer loop
      vertex 1.72949 1.72947 23.7021
      vertex 8.18405 1.26608 14.574
      vertex 8.16779 8.02637 14.597
    endloop
  endfacet
  facet normal 0.816496 0 0.577351
    outer loop
      vertex 8.18405 1.26608 14.574
      vertex 1.72949 1.72947 23.7021
      vertex 8.18405 -1.26608 14.574
    endloop
  endfacet
  facet normal 0.816483 0 0.57737
    outer loop
      vertex 8.18405 8.18405 14.574
      vertex 8.15534 8.15534 14.6146
      vertex 8.18405 8.12663 14.574
    endloop
  endfacet
  facet normal -0.816497 1.84945e-06 -0.57735
    outer loop
      vertex -1.82607 -1.68465 5.58242
      vertex -8.18405 8.04263 14.574
      vertex -0.141421 0 3.19997
    endloop
  endfacet
  facet normal -0.816498 -0 -0.577349
    outer loop
      vertex -8.18405 8.04263 14.574
      vertex -1.82607 -1.68465 5.58242
      vertex -8.18405 1.26608 14.574
    endloop
  endfacet
  facet normal -0.816483 0 -0.57737
    outer loop
      vertex -8.15534 8.15534 14.5334
      vertex -8.18405 8.12663 14.574
      vertex -8.18405 8.18405 14.574
    endloop
  endfacet
  facet normal -0.816498 0 -0.577349
    outer loop
      vertex -1.82607 -1.68465 5.58242
      vertex -8.18405 -1.26608 14.574
      vertex -8.18405 1.26608 14.574
    endloop
  endfacet
  facet normal -0.816498 8.51981e-06 -0.577349
    outer loop
      vertex -8.18405 -1.26608 14.574
      vertex -1.82607 -1.68465 5.58242
      vertex -8.18405 -8.04263 14.5739
    endloop
  endfacet
  facet normal -0.816483 0 -0.57737
    outer loop
      vertex -8.18405 -8.18405 14.5739
      vertex -8.18405 -8.12663 14.5739
      vertex -8.15534 -8.15534 14.5333
    endloop
  endfacet
  facet normal 0 -0.816483 -0.57737
    outer loop
      vertex -8.18405 -8.18405 14.5739
      vertex -8.15534 -8.15534 14.5333
      vertex -8.12663 -8.18405 14.5739
    endloop
  endfacet
  facet normal -0 -0.816483 -0.57737
    outer loop
      vertex 8.18405 -8.18405 14.5739
      vertex 8.12663 -8.18405 14.5739
      vertex 8.15534 -8.15534 14.5333
    endloop
  endfacet
  facet normal -0 -0.816494 -0.577353
    outer loop
      vertex 8.04263 -8.18405 14.5739
      vertex -8.04263 -8.18405 14.5739
      vertex 0 -0.141421 3.2
    endloop
  endfacet
  facet normal 0 0.816489 0.577362
    outer loop
      vertex 1.72949 1.72947 23.7021
      vertex -8.34485e-07 -2.23963e-05 26.1479
      vertex 8.34485e-07 -2.23963e-05 26.1479
    endloop
  endfacet
  facet normal 0 0.816489 0.577362
    outer loop
      vertex 1.72949 1.72947 23.7021
      vertex -1.72949 1.72947 23.7021
      vertex -8.34485e-07 -2.23963e-05 26.1479
    endloop
  endfacet
  facet normal 2.15905e-05 0.816488 0.577363
    outer loop
      vertex 8.02637 8.16779 14.597
      vertex 1.72949 1.72947 23.7021
      vertex 8.13236 8.13236 14.6471
    endloop
  endfacet
  facet normal 0 0.816495 0.577353
    outer loop
      vertex 1.72949 1.72947 23.7021
      vertex 8.02637 8.16779 14.597
      vertex -1.72949 1.72947 23.7021
    endloop
  endfacet
  facet normal -0 0.816495 0.577353
    outer loop
      vertex -8.02637 8.16779 14.597
      vertex -1.72949 1.72947 23.7021
      vertex 8.02637 8.16779 14.597
    endloop
  endfacet
  facet normal -2.15905e-05 0.816488 0.577363
    outer loop
      vertex -1.72949 1.72947 23.7021
      vertex -8.02637 8.16779 14.597
      vertex -8.13236 8.13236 14.6471
    endloop
  endfacet
  facet normal 0 0.816554 0.577268
    outer loop
      vertex 8.04263 8.18405 14.574
      vertex -8.02637 8.16779 14.597
      vertex 8.02637 8.16779 14.597
    endloop
  endfacet
  facet normal 0 0.816554 0.577268
    outer loop
      vertex -8.02637 8.16779 14.597
      vertex 8.04263 8.18405 14.574
      vertex -8.04263 8.18405 14.574
    endloop
  endfacet
  facet normal -0 0.816483 0.57737
    outer loop
      vertex -8.18405 8.18405 14.574
      vertex -8.15534 8.15534 14.6146
      vertex -8.12663 8.18405 14.574
    endloop
  endfacet
  facet normal 0 0.816483 0.57737
    outer loop
      vertex 8.18405 8.18405 14.574
      vertex 8.12663 8.18405 14.574
      vertex 8.15534 8.15534 14.6146
    endloop
  endfacet
  facet normal -0.707107 0.707107 0
    outer loop
      vertex 8.08463 8.22605 12.0411
      vertex 8.04263 8.18405 14.574
      vertex 8.08463 8.22605 14.6797
    endloop
  endfacet
  facet normal -0.707107 0.707107 0
    outer loop
      vertex 0 0.141421 3.19994
      vertex 8.08463 8.22605 12.0411
      vertex 0 0.141421 1.5914
    endloop
  endfacet
  facet normal -0.707107 0.707107 1.42446e-09
    outer loop
      vertex 8.08463 8.22605 12.0411
      vertex 0 0.141421 3.19994
      vertex 8.04263 8.18405 14.574
    endloop
  endfacet
  facet normal -0.707107 0.707107 -2.71856e-14
    outer loop
      vertex 8.08463 8.22605 14.6797
      vertex 8.04263 8.18405 14.574
      vertex 8.02637 8.16779 14.597
    endloop
  endfacet
  facet normal 0.707107 0.707107 0
    outer loop
      vertex 8.08463 8.22605 14.6797
      vertex 8.12663 8.18405 14.574
      vertex 8.08463 8.22605 12.0411
    endloop
  endfacet
  facet normal 0.707107 0.707107 -1.87624e-14
    outer loop
      vertex 8.08463 8.22605 14.6797
      vertex 8.15534 8.15534 14.6146
      vertex 8.12663 8.18405 14.574
    endloop
  endfacet
  facet normal 0.707107 0.707107 -1.86977e-14
    outer loop
      vertex 8.15534 8.15534 14.6146
      vertex 8.22605 8.08463 14.6797
      vertex 8.18405 8.12663 14.574
    endloop
  endfacet
  facet normal 0.707107 0.707107 0
    outer loop
      vertex 8.22605 8.08463 14.6797
      vertex 8.15534 8.15534 14.6146
      vertex 8.08463 8.22605 14.6797
    endloop
  endfacet
  facet normal 0.707107 0.707107 1.19079e-15
    outer loop
      vertex 8.15534 8.15534 14.5334
      vertex 8.08463 8.22605 12.0411
      vertex 8.12663 8.18405 14.574
    endloop
  endfacet
  facet normal 0.707107 0.707107 1.19491e-15
    outer loop
      vertex 8.22605 8.08463 12.0411
      vertex 8.15534 8.15534 14.5334
      vertex 8.18405 8.12663 14.574
    endloop
  endfacet
  facet normal 0.707107 0.707107 -0
    outer loop
      vertex 8.22605 8.08463 12.0411
      vertex 8.18405 8.12663 14.574
      vertex 8.22605 8.08463 14.6797
    endloop
  endfacet
  facet normal 0.707107 0.707107 0
    outer loop
      vertex 8.15534 8.15534 14.5334
      vertex 8.22605 8.08463 12.0411
      vertex 8.08463 8.22605 12.0411
    endloop
  endfacet
  facet normal -0.707107 -0.707107 -2.71856e-14
    outer loop
      vertex -8.22605 8.08463 14.6797
      vertex -8.18405 8.04263 14.574
      vertex -8.16779 8.02637 14.597
    endloop
  endfacet
  facet normal -0.707107 -0.707107 0
    outer loop
      vertex -8.22605 8.08463 12.0411
      vertex -8.18405 8.04263 14.574
      vertex -8.22605 8.08463 14.6797
    endloop
  endfacet
  facet normal -0.707107 -0.707107 1.42446e-09
    outer loop
      vertex -8.22605 8.08463 12.0411
      vertex -0.141421 0 3.19997
      vertex -8.18405 8.04263 14.574
    endloop
  endfacet
  facet normal -0.707107 -0.707107 -0
    outer loop
      vertex -0.141421 0 3.19997
      vertex -8.22605 8.08463 12.0411
      vertex -0.141421 0 1.5914
    endloop
  endfacet
  facet normal -0.500831 -0.501032 0.705787
    outer loop
      vertex 8.22605 8.08463 14.6797
      vertex 8.13236 8.13236 14.6471
      vertex 8.16779 8.02637 14.597
    endloop
  endfacet
  facet normal -0.500778 -0.500778 0.706005
    outer loop
      vertex 8.08463 8.22605 14.6797
      vertex 8.13236 8.13236 14.6471
      vertex 8.22605 8.08463 14.6797
    endloop
  endfacet
  facet normal -0.501032 -0.500831 0.705787
    outer loop
      vertex 8.13236 8.13236 14.6471
      vertex 8.08463 8.22605 14.6797
      vertex 8.02637 8.16779 14.597
    endloop
  endfacet
  facet normal 0.707107 -0.707107 -2.72427e-14
    outer loop
      vertex 8.18405 8.04263 14.574
      vertex 8.22605 8.08463 14.6797
      vertex 8.16779 8.02637 14.597
    endloop
  endfacet
  facet normal 0.707107 -0.707107 0
    outer loop
      vertex 8.18405 8.04263 14.574
      vertex 8.22605 8.08463 12.0411
      vertex 8.22605 8.08463 14.6797
    endloop
  endfacet
  facet normal 0.707107 -0.707107 1.42446e-09
    outer loop
      vertex 0.141421 0 3.19997
      vertex 8.22605 8.08463 12.0411
      vertex 8.18405 8.04263 14.574
    endloop
  endfacet
  facet normal 0.707107 -0.707107 0
    outer loop
      vertex 8.22605 8.08463 12.0411
      vertex 0.141421 0 3.19997
      vertex 0.141421 0 1.5914
    endloop
  endfacet
  facet normal 0.707107 -0.707107 -2.71731e-14
    outer loop
      vertex -8.02636 -8.16778 14.597
      vertex -8.08463 -8.22605 14.6797
      vertex -8.04263 -8.18405 14.5739
    endloop
  endfacet
  facet normal 0.707107 -0.707107 1.42452e-09
    outer loop
      vertex -8.08463 -8.22605 12.0411
      vertex 0 -0.141421 3.2
      vertex -8.04263 -8.18405 14.5739
    endloop
  endfacet
  facet normal 0.707107 -0.707107 0
    outer loop
      vertex 0 -0.141421 3.2
      vertex -8.08463 -8.22605 12.0411
      vertex 0 -0.141421 1.5914
    endloop
  endfacet
  facet normal 0.707107 -0.707107 0
    outer loop
      vertex -8.08463 -8.22605 12.0411
      vertex -8.04263 -8.18405 14.5739
      vertex -8.08463 -8.22605 14.6797
    endloop
  endfacet
  facet normal -0.707107 0.707107 0
    outer loop
      vertex -8.08463 8.22605 12.0411
      vertex -8.12663 8.18405 14.574
      vertex -8.08463 8.22605 14.6797
    endloop
  endfacet
  facet normal -0.707107 0.707107 1.19491e-15
    outer loop
      vertex -8.08463 8.22605 12.0411
      vertex -8.15534 8.15534 14.5334
      vertex -8.12663 8.18405 14.574
    endloop
  endfacet
  facet normal -0.707107 0.707107 0
    outer loop
      vertex -8.22605 8.08463 12.0411
      vertex -8.15534 8.15534 14.5334
      vertex -8.08463 8.22605 12.0411
    endloop
  endfacet
  facet normal -0.707107 0.707107 1.19079e-15
    outer loop
      vertex -8.15534 8.15534 14.5334
      vertex -8.22605 8.08463 12.0411
      vertex -8.18405 8.12663 14.574
    endloop
  endfacet
  facet normal -0.707107 0.707107 -1.86977e-14
    outer loop
      vertex -8.15534 8.15534 14.6146
      vertex -8.08463 8.22605 14.6797
      vertex -8.12663 8.18405 14.574
    endloop
  endfacet
  facet normal -0.707107 0.707107 0
    outer loop
      vertex -8.15534 8.15534 14.6146
      vertex -8.22605 8.08463 14.6797
      vertex -8.08463 8.22605 14.6797
    endloop
  endfacet
  facet normal -0.707107 0.707107 -1.87301e-14
    outer loop
      vertex -8.18405 8.12663 14.574
      vertex -8.22605 8.08463 14.6797
      vertex -8.15534 8.15534 14.6146
    endloop
  endfacet
  facet normal -0.707107 0.707107 0
    outer loop
      vertex -8.22605 8.08463 14.6797
      vertex -8.18405 8.12663 14.574
      vertex -8.22605 8.08463 12.0411
    endloop
  endfacet
  facet normal 0.501032 -0.500831 0.705787
    outer loop
      vertex -8.08463 8.22605 14.6797
      vertex -8.13236 8.13236 14.6471
      vertex -8.02637 8.16779 14.597
    endloop
  endfacet
  facet normal 0.500831 -0.501032 0.705787
    outer loop
      vertex -8.13236 8.13236 14.6471
      vertex -8.22605 8.08463 14.6797
      vertex -8.16779 8.02637 14.597
    endloop
  endfacet
  facet normal 0.500778 -0.500778 0.706005
    outer loop
      vertex -8.22605 8.08463 14.6797
      vertex -8.13236 8.13236 14.6471
      vertex -8.08463 8.22605 14.6797
    endloop
  endfacet
  facet normal 0.707107 0.707107 0
    outer loop
      vertex -8.08463 8.22605 14.6797
      vertex -8.04263 8.18405 14.574
      vertex -8.08463 8.22605 12.0411
    endloop
  endfacet
  facet normal 0.707107 0.707107 -2.72427e-14
    outer loop
      vertex -8.04263 8.18405 14.574
      vertex -8.08463 8.22605 14.6797
      vertex -8.02637 8.16779 14.597
    endloop
  endfacet
  facet normal 0.707107 0.707107 1.42446e-09
    outer loop
      vertex 0 0.141421 3.19994
      vertex -8.08463 8.22605 12.0411
      vertex -8.04263 8.18405 14.574
    endloop
  endfacet
  facet normal 0.707107 0.707107 0
    outer loop
      vertex -8.08463 8.22605 12.0411
      vertex 0 0.141421 3.19994
      vertex 0 0.141421 1.5914
    endloop
  endfacet
  facet normal -0.707107 0.707107 -2.72015e-14
    outer loop
      vertex -8.18405 -8.04263 14.5739
      vertex -8.22605 -8.08463 14.6797
      vertex -8.16778 -8.02636 14.597
    endloop
  endfacet
  facet normal -0.707107 0.707107 0
    outer loop
      vertex -8.18405 -8.04263 14.5739
      vertex -8.22605 -8.08463 12.0411
      vertex -8.22605 -8.08463 14.6797
    endloop
  endfacet
  facet normal -0.707107 0.707107 3.04851e-16
    outer loop
      vertex -1.82607 -1.68465 5.58242
      vertex -8.22605 -8.08463 12.0411
      vertex -8.18405 -8.04263 14.5739
    endloop
  endfacet
  facet normal -0.707107 0.707107 0
    outer loop
      vertex -0.141421 0 1.5914
      vertex -1.82607 -1.68465 5.58242
      vertex -0.141421 0 3.19997
    endloop
  endfacet
  facet normal -0.707107 0.707107 3.08656e-07
    outer loop
      vertex -1.82607 -1.68465 5.58242
      vertex -0.141421 0 1.5914
      vertex -8.22605 -8.08463 12.0411
    endloop
  endfacet
  facet normal -0.707107 -0.707107 0
    outer loop
      vertex -8.22605 -8.08463 12.0411
      vertex -8.18405 -8.12663 14.5739
      vertex -8.22605 -8.08463 14.6797
    endloop
  endfacet
  facet normal -0.707107 -0.707107 1.19496e-15
    outer loop
      vertex -8.22605 -8.08463 12.0411
      vertex -8.15534 -8.15534 14.5333
      vertex -8.18405 -8.12663 14.5739
    endloop
  endfacet
  facet normal -0.707107 -0.707107 0
    outer loop
      vertex -8.08463 -8.22605 12.0411
      vertex -8.15534 -8.15534 14.5333
      vertex -8.22605 -8.08463 12.0411
    endloop
  endfacet
  facet normal -0.707107 -0.707107 1.19084e-15
    outer loop
      vertex -8.15534 -8.15534 14.5333
      vertex -8.08463 -8.22605 12.0411
      vertex -8.12663 -8.18405 14.5739
    endloop
  endfacet
  facet normal -0.707107 -0.707107 -1.86864e-14
    outer loop
      vertex -8.15534 -8.15534 14.6145
      vertex -8.22605 -8.08463 14.6797
      vertex -8.18405 -8.12663 14.5739
    endloop
  endfacet
  facet normal -0.707107 -0.707107 0
    outer loop
      vertex -8.15534 -8.15534 14.6145
      vertex -8.08463 -8.22605 14.6797
      vertex -8.22605 -8.08463 14.6797
    endloop
  endfacet
  facet normal -0.707107 -0.707107 -1.87187e-14
    outer loop
      vertex -8.12663 -8.18405 14.5739
      vertex -8.08463 -8.22605 14.6797
      vertex -8.15534 -8.15534 14.6145
    endloop
  endfacet
  facet normal -0.707107 -0.707107 -0
    outer loop
      vertex -8.08463 -8.22605 14.6797
      vertex -8.12663 -8.18405 14.5739
      vertex -8.08463 -8.22605 12.0411
    endloop
  endfacet
  facet normal 0.500533 0.501245 0.705847
    outer loop
      vertex -8.13235 -8.13235 14.647
      vertex -8.08463 -8.22605 14.6797
      vertex -8.02636 -8.16778 14.597
    endloop
  endfacet
  facet normal 0.501433 0.501433 0.705074
    outer loop
      vertex -8.13235 -8.13235 14.647
      vertex -8.22605 -8.08463 14.6797
      vertex -8.08463 -8.22605 14.6797
    endloop
  endfacet
  facet normal 0.501245 0.500533 0.705847
    outer loop
      vertex -8.22605 -8.08463 14.6797
      vertex -8.13235 -8.13235 14.647
      vertex -8.16778 -8.02636 14.597
    endloop
  endfacet
  facet normal 0.707107 0.707107 -2.71161e-14
    outer loop
      vertex 8.22605 -8.08463 14.6797
      vertex 8.18405 -8.04263 14.5739
      vertex 8.16778 -8.02636 14.597
    endloop
  endfacet
  facet normal 0.707107 0.707107 -0
    outer loop
      vertex 8.22605 -8.08463 12.0411
      vertex 8.18405 -8.04263 14.5739
      vertex 8.22605 -8.08463 14.6797
    endloop
  endfacet
  facet normal 0.707107 0.707107 4.88238e-16
    outer loop
      vertex 8.22605 -8.08463 12.0411
      vertex 1.82607 -1.68465 5.58242
      vertex 8.18405 -8.04263 14.5739
    endloop
  endfacet
  facet normal 0.707107 0.707107 3.08656e-07
    outer loop
      vertex 0.141421 0 1.5914
      vertex 1.82607 -1.68465 5.58242
      vertex 8.22605 -8.08463 12.0411
    endloop
  endfacet
  facet normal 0.707107 0.707107 0
    outer loop
      vertex 1.82607 -1.68465 5.58242
      vertex 0.141421 0 1.5914
      vertex 0.141421 0 3.19997
    endloop
  endfacet
  facet normal -0.707107 -0.707107 0
    outer loop
      vertex 8.08463 -8.22605 12.0411
      vertex 0 -0.141421 3.2
      vertex 0 -0.141421 1.5914
    endloop
  endfacet
  facet normal -0.707107 -0.707107 1.42452e-09
    outer loop
      vertex 0 -0.141421 3.2
      vertex 8.08463 -8.22605 12.0411
      vertex 8.04263 -8.18405 14.5739
    endloop
  endfacet
  facet normal -0.707107 -0.707107 -2.72015e-14
    outer loop
      vertex 8.04263 -8.18405 14.5739
      vertex 8.08463 -8.22605 14.6797
      vertex 8.02636 -8.16778 14.597
    endloop
  endfacet
  facet normal -0.707107 -0.707107 -0
    outer loop
      vertex 8.08463 -8.22605 14.6797
      vertex 8.04263 -8.18405 14.5739
      vertex 8.08463 -8.22605 12.0411
    endloop
  endfacet
  facet normal 0.707107 -0.707107 0
    outer loop
      vertex 8.22605 -8.08463 14.6797
      vertex 8.18405 -8.12663 14.5739
      vertex 8.22605 -8.08463 12.0411
    endloop
  endfacet
  facet normal 0.707107 -0.707107 -1.87511e-14
    outer loop
      vertex 8.22605 -8.08463 14.6797
      vertex 8.15534 -8.15534 14.6145
      vertex 8.18405 -8.12663 14.5739
    endloop
  endfacet
  facet normal 0.707107 -0.707107 -1.86864e-14
    outer loop
      vertex 8.15534 -8.15534 14.6145
      vertex 8.08463 -8.22605 14.6797
      vertex 8.12663 -8.18405 14.5739
    endloop
  endfacet
  facet normal 0.707107 -0.707107 0
    outer loop
      vertex 8.08463 -8.22605 14.6797
      vertex 8.15534 -8.15534 14.6145
      vertex 8.22605 -8.08463 14.6797
    endloop
  endfacet
  facet normal 0.707107 -0.707107 1.19084e-15
    outer loop
      vertex 8.15534 -8.15534 14.5333
      vertex 8.22605 -8.08463 12.0411
      vertex 8.18405 -8.12663 14.5739
    endloop
  endfacet
  facet normal 0.707107 -0.707107 1.19496e-15
    outer loop
      vertex 8.08463 -8.22605 12.0411
      vertex 8.15534 -8.15534 14.5333
      vertex 8.12663 -8.18405 14.5739
    endloop
  endfacet
  facet normal 0.707107 -0.707107 0
    outer loop
      vertex 8.08463 -8.22605 12.0411
      vertex 8.12663 -8.18405 14.5739
      vertex 8.08463 -8.22605 14.6797
    endloop
  endfacet
  facet normal 0.707107 -0.707107 0
    outer loop
      vertex 8.15534 -8.15534 14.5333
      vertex 8.08463 -8.22605 12.0411
      vertex 8.22605 -8.08463 12.0411
    endloop
  endfacet
  facet normal -0.501245 0.500533 0.705847
    outer loop
      vertex 8.13235 -8.13235 14.647
      vertex 8.22605 -8.08463 14.6797
      vertex 8.16778 -8.02636 14.597
    endloop
  endfacet
  facet normal -0.501433 0.501433 0.705074
    outer loop
      vertex 8.13235 -8.13235 14.647
      vertex 8.08463 -8.22605 14.6797
      vertex 8.22605 -8.08463 14.6797
    endloop
  endfacet
  facet normal -0.500533 0.501245 0.705847
    outer loop
      vertex 8.08463 -8.22605 14.6797
      vertex 8.13235 -8.13235 14.647
      vertex 8.02636 -8.16778 14.597
    endloop
  endfacet
  facet normal -0.707107 0.707107 0
    outer loop
      vertex 0 0.282842 1.68279
      vertex 8.0438 8.32664 10.5797
      vertex 0 0.282842 1.16551
    endloop
  endfacet
  facet normal -0.707107 0.707107 0
    outer loop
      vertex 8.0438 8.32664 10.5797
      vertex 0 0.282842 1.68279
      vertex 8.0438 8.32664 12.0797
    endloop
  endfacet
  facet normal 0.707107 -0.707107 0
    outer loop
      vertex 0.282842 0 1.68279
      vertex 8.32664 8.0438 10.5797
      vertex 8.32664 8.0438 12.0797
    endloop
  endfacet
  facet normal 0.707107 -0.707107 0
    outer loop
      vertex 8.32664 8.0438 10.5797
      vertex 0.282842 0 1.68279
      vertex 0.282842 0 1.16551
    endloop
  endfacet
  facet normal 0.707107 -0.707107 0
    outer loop
      vertex -8.0438 -8.32664 10.5797
      vertex 0 -0.282842 1.68279
      vertex -8.0438 -8.32664 12.0797
    endloop
  endfacet
  facet normal 0.707107 -0.707107 0
    outer loop
      vertex 0 -0.282842 1.68279
      vertex -8.0438 -8.32664 10.5797
      vertex 0 -0.282842 1.16551
    endloop
  endfacet
  facet normal 0.707107 0.707107 0
    outer loop
      vertex 8.0438 8.32664 12.0797
      vertex 8.32664 8.0438 12.0797
      vertex 8.0438 8.32664 10.5797
    endloop
  endfacet
  facet normal 0.707107 0.707107 0
    outer loop
      vertex 7.97309 8.39735 10.5797
      vertex 8.0438 8.32664 10.5797
      vertex 7.97309 8.39735 9.07968
    endloop
  endfacet
  facet normal 0.707157 0.707057 0
    outer loop
      vertex 7.90238 8.46807 9.07968
      vertex 7.97309 8.39735 9.07968
      vertex 7.90238 8.46807 7.57968
    endloop
  endfacet
  facet normal 0.707107 0.707107 0
    outer loop
      vertex 7.83167 8.53878 7.57968
      vertex 7.90238 8.46807 7.57968
      vertex 7.83167 8.53878 6.07968
    endloop
  endfacet
  facet normal 0.707107 0.707107 0
    outer loop
      vertex 7.83167 8.53878 6.07968
      vertex 7.76096 8.60949 0
      vertex 7.76096 8.60949 6.07968
    endloop
  endfacet
  facet normal 0.707107 0.707107 -8.51167e-16
    outer loop
      vertex 8.53878 7.83167 6.07968
      vertex 7.83167 8.53878 6.07968
      vertex 7.90238 8.46807 7.57968
    endloop
  endfacet
  facet normal 0.707107 0.707107 4.71405e-06
    outer loop
      vertex 8.46807 7.90238 7.57968
      vertex 7.90238 8.46807 7.57968
      vertex 7.97309 8.39735 9.07968
    endloop
  endfacet
  facet normal 0.707107 0.707107 4.31752e-16
    outer loop
      vertex 8.39735 7.97309 9.07968
      vertex 7.97309 8.39735 9.07968
      vertex 8.0438 8.32664 10.5797
    endloop
  endfacet
  facet normal 0.707107 0.707107 -0
    outer loop
      vertex 8.32664 8.0438 10.5797
      vertex 8.0438 8.32664 10.5797
      vertex 8.32664 8.0438 12.0797
    endloop
  endfacet
  facet normal 0.707107 0.707107 4.16332e-16
    outer loop
      vertex 8.39735 7.97309 9.07968
      vertex 8.0438 8.32664 10.5797
      vertex 8.32664 8.0438 10.5797
    endloop
  endfacet
  facet normal 0.707107 0.707107 -0
    outer loop
      vertex 8.39735 7.97309 9.07968
      vertex 8.32664 8.0438 10.5797
      vertex 8.39735 7.97309 10.5797
    endloop
  endfacet
  facet normal 0.707107 0.707107 4.71405e-06
    outer loop
      vertex 7.97309 8.39735 9.07968
      vertex 8.39735 7.97309 9.07968
      vertex 8.46807 7.90238 7.57968
    endloop
  endfacet
  facet normal 0.707057 0.707157 -0
    outer loop
      vertex 8.46807 7.90238 7.57968
      vertex 8.39735 7.97309 9.07968
      vertex 8.46807 7.90238 9.07968
    endloop
  endfacet
  facet normal 0.707107 0.707107 -8.32661e-16
    outer loop
      vertex 7.90238 8.46807 7.57968
      vertex 8.46807 7.90238 7.57968
      vertex 8.53878 7.83167 6.07968
    endloop
  endfacet
  facet normal 0.707107 0.707107 -0
    outer loop
      vertex 8.53878 7.83167 6.07968
      vertex 8.46807 7.90238 7.57968
      vertex 8.53878 7.83167 7.57968
    endloop
  endfacet
  facet normal 0.707107 0.707107 0
    outer loop
      vertex 7.83167 8.53878 6.07968
      vertex 8.53878 7.83167 6.07968
      vertex 7.76096 8.60949 0
    endloop
  endfacet
  facet normal 0.707107 0.707107 -0
    outer loop
      vertex 8.60949 7.76096 0
      vertex 8.53878 7.83167 6.07968
      vertex 8.60949 7.76096 6.07968
    endloop
  endfacet
  facet normal 0.707107 0.707107 0
    outer loop
      vertex 8.53878 7.83167 6.07968
      vertex 8.60949 7.76096 0
      vertex 7.76096 8.60949 0
    endloop
  endfacet
  facet normal -0.4769 -0.4769 0.738331
    outer loop
      vertex 8.32664 8.0438 12.0797
      vertex 8.08463 8.22605 12.0411
      vertex 8.22605 8.08463 12.0411
    endloop
  endfacet
  facet normal -0.4769 -0.4769 0.738331
    outer loop
      vertex 8.0438 8.32664 12.0797
      vertex 8.08463 8.22605 12.0411
      vertex 8.32664 8.0438 12.0797
    endloop
  endfacet
  facet normal -0.477151 -0.476932 0.738148
    outer loop
      vertex 0 0.282842 1.68279
      vertex 8.08463 8.22605 12.0411
      vertex 8.0438 8.32664 12.0797
    endloop
  endfacet
  facet normal -0.477074 -0.47701 0.738147
    outer loop
      vertex 8.08463 8.22605 12.0411
      vertex 0 0.282842 1.68279
      vertex 0 0.141421 1.5914
    endloop
  endfacet
  facet normal -0.476932 -0.477151 0.738148
    outer loop
      vertex 8.22605 8.08463 12.0411
      vertex 0.282842 0 1.68279
      vertex 8.32664 8.0438 12.0797
    endloop
  endfacet
  facet normal -0.47701 -0.477074 0.738147
    outer loop
      vertex 0.282842 0 1.68279
      vertex 8.22605 8.08463 12.0411
      vertex 0.141421 0 1.5914
    endloop
  endfacet
  facet normal -0.707107 0.707107 0
    outer loop
      vertex 0 0.424263 1.24827
      vertex 7.97309 8.39735 9.07968
      vertex 0 0.424263 0.722354
    endloop
  endfacet
  facet normal -0.707107 0.707107 0
    outer loop
      vertex 7.97309 8.39735 9.07968
      vertex 0 0.424263 1.24827
      vertex 7.97309 8.39735 10.5797
    endloop
  endfacet
  facet normal 0.707107 -0.707107 0
    outer loop
      vertex 0.424263 0 1.24827
      vertex 8.39735 7.97309 9.07968
      vertex 8.39735 7.97309 10.5797
    endloop
  endfacet
  facet normal 0.707107 -0.707107 0
    outer loop
      vertex 8.39735 7.97309 9.07968
      vertex 0.424263 0 1.24827
      vertex 0.424263 0 0.722354
    endloop
  endfacet
  facet normal 0.707107 -0.707107 0
    outer loop
      vertex -7.97309 -8.39735 9.07968
      vertex 0 -0.424263 1.24827
      vertex -7.97309 -8.39735 10.5797
    endloop
  endfacet
  facet normal 0.707107 -0.707107 0
    outer loop
      vertex 0 -0.424263 1.24827
      vertex -7.97309 -8.39735 9.07968
      vertex 0 -0.424263 0.722354
    endloop
  endfacet
  facet normal -0.450824 -0.450824 0.770399
    outer loop
      vertex 0 0.424263 1.24827
      vertex 8.0438 8.32664 10.5797
      vertex 7.97309 8.39735 10.5797
    endloop
  endfacet
  facet normal -0.450809 -0.45084 0.770399
    outer loop
      vertex 8.0438 8.32664 10.5797
      vertex 0 0.424263 1.24827
      vertex 0 0.282842 1.16551
    endloop
  endfacet
  facet normal -0.450824 -0.450824 0.770399
    outer loop
      vertex 8.32664 8.0438 10.5797
      vertex 0.424263 0 1.24827
      vertex 8.39735 7.97309 10.5797
    endloop
  endfacet
  facet normal -0.45084 -0.450809 0.770399
    outer loop
      vertex 0.424263 0 1.24827
      vertex 8.32664 8.0438 10.5797
      vertex 0.282842 0 1.16551
    endloop
  endfacet
  facet normal -0.707107 0.707107 0
    outer loop
      vertex 0 0.565685 0.796473
      vertex 7.90238 8.46807 7.57968
      vertex 0 0.565685 0.261918
    endloop
  endfacet
  facet normal -0.707107 0.707107 0
    outer loop
      vertex 7.90238 8.46807 7.57968
      vertex 0 0.565685 0.796473
      vertex 7.90238 8.46807 9.07968
    endloop
  endfacet
  facet normal 0.707107 -0.707107 0
    outer loop
      vertex 0.565685 0 0.796473
      vertex 8.46807 7.90238 7.57968
      vertex 8.46807 7.90238 9.07968
    endloop
  endfacet
  facet normal 0.707107 -0.707107 0
    outer loop
      vertex 8.46807 7.90238 7.57968
      vertex 0.565685 0 0.796473
      vertex 0.565685 0 0.261918
    endloop
  endfacet
  facet normal 0.707107 -0.707107 0
    outer loop
      vertex -7.90238 -8.46807 7.57968
      vertex 0 -0.565685 0.796473
      vertex -7.90238 -8.46807 9.07968
    endloop
  endfacet
  facet normal 0.707107 -0.707107 0
    outer loop
      vertex 0 -0.565685 0.796473
      vertex -7.90238 -8.46807 7.57968
      vertex 0 -0.565685 0.261918
    endloop
  endfacet
  facet normal -0.421081 -0.421022 0.803387
    outer loop
      vertex 0 0.565685 0.796473
      vertex 7.97309 8.39735 9.07968
      vertex 7.90238 8.46807 9.07968
    endloop
  endfacet
  facet normal -0.42105 -0.421054 0.803387
    outer loop
      vertex 7.97309 8.39735 9.07968
      vertex 0 0.565685 0.796473
      vertex 0 0.424263 0.722354
    endloop
  endfacet
  facet normal -0.421022 -0.421081 0.803387
    outer loop
      vertex 8.39735 7.97309 9.07968
      vertex 0.565685 0 0.796473
      vertex 8.46807 7.90238 9.07968
    endloop
  endfacet
  facet normal -0.421054 -0.42105 0.803387
    outer loop
      vertex 0.565685 0 0.796473
      vertex 8.39735 7.97309 9.07968
      vertex 0.424263 0 0.722354
    endloop
  endfacet
  facet normal -0.707107 0.707107 -1.38616e-07
    outer loop
      vertex 0 0.707107 0.327398
      vertex 7.83167 8.53878 6.07968
      vertex 0.268454 0.975561 0
    endloop
  endfacet
  facet normal -0.707107 0.707107 0
    outer loop
      vertex 0 0.707107 0.327398
      vertex 0.268454 0.975561 0
      vertex 0 0.707107 0
    endloop
  endfacet
  facet normal -0.707107 0.707107 0
    outer loop
      vertex 7.83167 8.53878 6.07968
      vertex 0 0.707107 0.327398
      vertex 7.83167 8.53878 7.57968
    endloop
  endfacet
  facet normal -0.387357 -0.387357 0.836606
    outer loop
      vertex 0 0.707107 0.327398
      vertex 7.90238 8.46807 7.57968
      vertex 7.83167 8.53878 7.57968
    endloop
  endfacet
  facet normal -0.387355 -0.387358 0.836606
    outer loop
      vertex 7.90238 8.46807 7.57968
      vertex 0 0.707107 0.327398
      vertex 0 0.565685 0.261918
    endloop
  endfacet
  facet normal -0.387357 -0.387357 0.836606
    outer loop
      vertex 8.46807 7.90238 7.57968
      vertex 0.707107 0 0.327398
      vertex 8.53878 7.83167 7.57968
    endloop
  endfacet
  facet normal -0.387358 -0.387355 0.836606
    outer loop
      vertex 0.707107 0 0.327398
      vertex 8.46807 7.90238 7.57968
      vertex 0.565685 0 0.261918
    endloop
  endfacet
  facet normal 0.707107 -0.707107 0
    outer loop
      vertex 0.707107 0 0.327398
      vertex 8.53878 7.83167 6.07968
      vertex 8.53878 7.83167 7.57968
    endloop
  endfacet
  facet normal 0.707107 -0.707107 0
    outer loop
      vertex 0.975561 0.268454 0
      vertex 0.707107 0 0.327398
      vertex 0.707107 0 0
    endloop
  endfacet
  facet normal 0.707107 -0.707107 -1.38616e-07
    outer loop
      vertex 0.707107 0 0.327398
      vertex 0.975561 0.268454 0
      vertex 8.53878 7.83167 6.07968
    endloop
  endfacet
  facet normal 0.707107 -0.707107 0
    outer loop
      vertex 0 -0.707107 0.327398
      vertex -0.268454 -0.975561 0
      vertex 0 -0.707107 0
    endloop
  endfacet
  facet normal 0.707107 -0.707107 0
    outer loop
      vertex -7.83167 -8.53878 6.07968
      vertex 0 -0.707107 0.327398
      vertex -7.83167 -8.53878 7.57968
    endloop
  endfacet
  facet normal 0.707107 -0.707107 -1.38616e-07
    outer loop
      vertex 0 -0.707107 0.327398
      vertex -7.83167 -8.53878 6.07968
      vertex -0.268454 -0.975561 0
    endloop
  endfacet
  facet normal -0.707107 0.707107 0
    outer loop
      vertex 7.76096 8.60949 0
      vertex 0.197744 1.04627 0
      vertex 7.76096 8.60949 6.07968
    endloop
  endfacet
  facet normal 0.707107 -0.707107 0
    outer loop
      vertex 8.60949 7.76096 6.07968
      vertex 1.04627 0.197744 0
      vertex 8.60949 7.76096 0
    endloop
  endfacet
  facet normal 0.707107 -0.707107 0
    outer loop
      vertex -7.76096 -8.60949 6.07968
      vertex -7.76096 -8.60949 0
      vertex -0.197744 -1.04627 0
    endloop
  endfacet
  facet normal -0.349422 -0.349422 0.869373
    outer loop
      vertex 7.76096 8.60949 6.07968
      vertex 0.268454 0.975561 0
      vertex 7.83167 8.53878 6.07968
    endloop
  endfacet
  facet normal -0.349419 -0.349424 0.869373
    outer loop
      vertex 0.268454 0.975561 0
      vertex 7.76096 8.60949 6.07968
      vertex 0.197744 1.04627 0
    endloop
  endfacet
  facet normal -0.349422 -0.349422 0.869373
    outer loop
      vertex 8.53878 7.83167 6.07968
      vertex 1.04627 0.197744 0
      vertex 8.60949 7.76096 6.07968
    endloop
  endfacet
  facet normal -0.349424 -0.349419 0.869373
    outer loop
      vertex 1.04627 0.197744 0
      vertex 8.53878 7.83167 6.07968
      vertex 0.975561 0.268454 0
    endloop
  endfacet
  facet normal -0.707107 -0.707107 -0
    outer loop
      vertex -0.282842 0 1.68279
      vertex -8.32664 8.0438 10.5797
      vertex -0.282842 0 1.16551
    endloop
  endfacet
  facet normal -0.707107 -0.707107 0
    outer loop
      vertex -8.32664 8.0438 10.5797
      vertex -0.282842 0 1.68279
      vertex -8.32664 8.0438 12.0797
    endloop
  endfacet
  facet normal 0.707107 0.707107 0
    outer loop
      vertex 0 0.282842 1.68279
      vertex -8.0438 8.32664 10.5797
      vertex -8.0438 8.32664 12.0797
    endloop
  endfacet
  facet normal 0.707107 0.707107 0
    outer loop
      vertex -8.0438 8.32664 10.5797
      vertex 0 0.282842 1.68279
      vertex 0 0.282842 1.16551
    endloop
  endfacet
  facet normal -0.707107 0.707107 0
    outer loop
      vertex -7.76096 8.60949 0
      vertex -7.83167 8.53878 6.07968
      vertex -7.76096 8.60949 6.07968
    endloop
  endfacet
  facet normal -0.707107 0.707107 0
    outer loop
      vertex -7.83167 8.53878 6.07968
      vertex -7.90238 8.46807 7.57968
      vertex -7.83167 8.53878 7.57968
    endloop
  endfacet
  facet normal -0.707107 0.707107 0
    outer loop
      vertex -8.53878 7.83167 6.07968
      vertex -7.83167 8.53878 6.07968
      vertex -7.76096 8.60949 0
    endloop
  endfacet
  facet normal -0.707157 0.707057 0
    outer loop
      vertex -7.90238 8.46807 7.57968
      vertex -7.97309 8.39735 9.07968
      vertex -7.90238 8.46807 9.07968
    endloop
  endfacet
  facet normal -0.707107 0.707107 -8.37289e-16
    outer loop
      vertex -7.83167 8.53878 6.07968
      vertex -8.53878 7.83167 6.07968
      vertex -7.90238 8.46807 7.57968
    endloop
  endfacet
  facet normal -0.707107 0.707107 0
    outer loop
      vertex -7.97309 8.39735 9.07968
      vertex -8.0438 8.32664 10.5797
      vertex -7.97309 8.39735 10.5797
    endloop
  endfacet
  facet normal -0.707107 0.707107 -8.38443e-16
    outer loop
      vertex -8.46807 7.90238 7.57968
      vertex -7.90238 8.46807 7.57968
      vertex -8.53878 7.83167 6.07968
    endloop
  endfacet
  facet normal -0.707107 0.707107 0
    outer loop
      vertex -8.0438 8.32664 10.5797
      vertex -8.32664 8.0438 10.5797
      vertex -8.0438 8.32664 12.0797
    endloop
  endfacet
  facet normal -0.707107 0.707107 4.71405e-06
    outer loop
      vertex -8.39735 7.97309 9.07968
      vertex -7.97309 8.39735 9.07968
      vertex -8.46807 7.90238 7.57968
    endloop
  endfacet
  facet normal -0.707107 0.707107 4.16332e-16
    outer loop
      vertex -8.0438 8.32664 10.5797
      vertex -8.39735 7.97309 9.07968
      vertex -8.32664 8.0438 10.5797
    endloop
  endfacet
  facet normal -0.707107 0.707107 4.20187e-16
    outer loop
      vertex -7.97309 8.39735 9.07968
      vertex -8.39735 7.97309 9.07968
      vertex -8.0438 8.32664 10.5797
    endloop
  endfacet
  facet normal -0.707107 0.707107 4.71405e-06
    outer loop
      vertex -7.90238 8.46807 7.57968
      vertex -8.46807 7.90238 7.57968
      vertex -7.97309 8.39735 9.07968
    endloop
  endfacet
  facet normal -0.707107 0.707107 0
    outer loop
      vertex -8.60949 7.76096 0
      vertex -8.53878 7.83167 6.07968
      vertex -7.76096 8.60949 0
    endloop
  endfacet
  facet normal -0.707107 0.707107 0
    outer loop
      vertex -8.53878 7.83167 6.07968
      vertex -8.60949 7.76096 0
      vertex -8.60949 7.76096 6.07968
    endloop
  endfacet
  facet normal -0.707107 0.707107 0
    outer loop
      vertex -8.0438 8.32664 12.0797
      vertex -8.32664 8.0438 10.5797
      vertex -8.32664 8.0438 12.0797
    endloop
  endfacet
  facet normal -0.707107 0.707107 0
    outer loop
      vertex -8.32664 8.0438 10.5797
      vertex -8.39735 7.97309 9.07968
      vertex -8.39735 7.97309 10.5797
    endloop
  endfacet
  facet normal -0.707057 0.707157 0
    outer loop
      vertex -8.39735 7.97309 9.07968
      vertex -8.46807 7.90238 7.57968
      vertex -8.46807 7.90238 9.07968
    endloop
  endfacet
  facet normal -0.707107 0.707107 0
    outer loop
      vertex -8.46807 7.90238 7.57968
      vertex -8.53878 7.83167 6.07968
      vertex -8.53878 7.83167 7.57968
    endloop
  endfacet
  facet normal 0.477151 -0.476932 0.738148
    outer loop
      vertex -8.08463 8.22605 12.0411
      vertex 0 0.282842 1.68279
      vertex -8.0438 8.32664 12.0797
    endloop
  endfacet
  facet normal 0.477074 -0.47701 0.738147
    outer loop
      vertex 0 0.282842 1.68279
      vertex -8.08463 8.22605 12.0411
      vertex 0 0.141421 1.5914
    endloop
  endfacet
  facet normal 0.4769 -0.4769 0.738331
    outer loop
      vertex -8.0438 8.32664 12.0797
      vertex -8.22605 8.08463 12.0411
      vertex -8.08463 8.22605 12.0411
    endloop
  endfacet
  facet normal 0.4769 -0.4769 0.738331
    outer loop
      vertex -8.22605 8.08463 12.0411
      vertex -8.0438 8.32664 12.0797
      vertex -8.32664 8.0438 12.0797
    endloop
  endfacet
  facet normal 0.47701 -0.477074 0.738147
    outer loop
      vertex -8.22605 8.08463 12.0411
      vertex -0.282842 0 1.68279
      vertex -0.141421 0 1.5914
    endloop
  endfacet
  facet normal 0.476932 -0.477151 0.738148
    outer loop
      vertex -0.282842 0 1.68279
      vertex -8.22605 8.08463 12.0411
      vertex -8.32664 8.0438 12.0797
    endloop
  endfacet
  facet normal -0.707107 -0.707107 -0
    outer loop
      vertex -0.424263 0 1.24827
      vertex -8.39735 7.97309 9.07968
      vertex -0.424263 0 0.722354
    endloop
  endfacet
  facet normal -0.707107 -0.707107 0
    outer loop
      vertex -8.39735 7.97309 9.07968
      vertex -0.424263 0 1.24827
      vertex -8.39735 7.97309 10.5797
    endloop
  endfacet
  facet normal 0.707107 0.707107 0
    outer loop
      vertex 0 0.424263 1.24827
      vertex -7.97309 8.39735 9.07968
      vertex -7.97309 8.39735 10.5797
    endloop
  endfacet
  facet normal 0.707107 0.707107 0
    outer loop
      vertex -7.97309 8.39735 9.07968
      vertex 0 0.424263 1.24827
      vertex 0 0.424263 0.722354
    endloop
  endfacet
  facet normal 0.45084 -0.450809 0.770399
    outer loop
      vertex -8.32664 8.0438 10.5797
      vertex -0.424263 0 1.24827
      vertex -0.282842 0 1.16551
    endloop
  endfacet
  facet normal 0.450824 -0.450824 0.770399
    outer loop
      vertex -0.424263 0 1.24827
      vertex -8.32664 8.0438 10.5797
      vertex -8.39735 7.97309 10.5797
    endloop
  endfacet
  facet normal 0.450824 -0.450824 0.770399
    outer loop
      vertex -8.0438 8.32664 10.5797
      vertex 0 0.424263 1.24827
      vertex -7.97309 8.39735 10.5797
    endloop
  endfacet
  facet normal 0.450809 -0.45084 0.770399
    outer loop
      vertex 0 0.424263 1.24827
      vertex -8.0438 8.32664 10.5797
      vertex 0 0.282842 1.16551
    endloop
  endfacet
  facet normal -0.707107 -0.707107 -0
    outer loop
      vertex -0.565685 0 0.796473
      vertex -8.46807 7.90238 7.57968
      vertex -0.565685 0 0.261918
    endloop
  endfacet
  facet normal -0.707107 -0.707107 0
    outer loop
      vertex -8.46807 7.90238 7.57968
      vertex -0.565685 0 0.796473
      vertex -8.46807 7.90238 9.07968
    endloop
  endfacet
  facet normal 0.707107 0.707107 0
    outer loop
      vertex 0 0.565685 0.796473
      vertex -7.90238 8.46807 7.57968
      vertex -7.90238 8.46807 9.07968
    endloop
  endfacet
  facet normal 0.707107 0.707107 0
    outer loop
      vertex -7.90238 8.46807 7.57968
      vertex 0 0.565685 0.796473
      vertex 0 0.565685 0.261918
    endloop
  endfacet
  facet normal 0.421054 -0.42105 0.803387
    outer loop
      vertex -8.39735 7.97309 9.07968
      vertex -0.565685 0 0.796473
      vertex -0.424263 0 0.722354
    endloop
  endfacet
  facet normal 0.421022 -0.421081 0.803387
    outer loop
      vertex -0.565685 0 0.796473
      vertex -8.39735 7.97309 9.07968
      vertex -8.46807 7.90238 9.07968
    endloop
  endfacet
  facet normal 0.421081 -0.421022 0.803387
    outer loop
      vertex -7.97309 8.39735 9.07968
      vertex 0 0.565685 0.796473
      vertex -7.90238 8.46807 9.07968
    endloop
  endfacet
  facet normal 0.42105 -0.421054 0.803387
    outer loop
      vertex 0 0.565685 0.796473
      vertex -7.97309 8.39735 9.07968
      vertex 0 0.424263 0.722354
    endloop
  endfacet
  facet normal -0.707107 -0.707107 0
    outer loop
      vertex -8.53878 7.83167 6.07968
      vertex -0.707107 0 0.327398
      vertex -8.53878 7.83167 7.57968
    endloop
  endfacet
  facet normal -0.707107 -0.707107 -1.38616e-07
    outer loop
      vertex -0.975561 0.268454 0
      vertex -0.707107 0 0.327398
      vertex -8.53878 7.83167 6.07968
    endloop
  endfacet
  facet normal -0.707107 -0.707107 -0
    outer loop
      vertex -0.707107 0 0.327398
      vertex -0.975561 0.268454 0
      vertex -0.707107 0 0
    endloop
  endfacet
  facet normal 0.387358 -0.387355 0.836606
    outer loop
      vertex -8.46807 7.90238 7.57968
      vertex -0.707107 0 0.327398
      vertex -0.565685 0 0.261918
    endloop
  endfacet
  facet normal 0.387357 -0.387357 0.836606
    outer loop
      vertex -0.707107 0 0.327398
      vertex -8.46807 7.90238 7.57968
      vertex -8.53878 7.83167 7.57968
    endloop
  endfacet
  facet normal 0.387357 -0.387357 0.836606
    outer loop
      vertex -7.90238 8.46807 7.57968
      vertex 0 0.707107 0.327398
      vertex -7.83167 8.53878 7.57968
    endloop
  endfacet
  facet normal 0.387355 -0.387358 0.836606
    outer loop
      vertex 0 0.707107 0.327398
      vertex -7.90238 8.46807 7.57968
      vertex 0 0.565685 0.261918
    endloop
  endfacet
  facet normal 0.707107 0.707107 0
    outer loop
      vertex 0 0.707107 0.327398
      vertex -7.83167 8.53878 6.07968
      vertex -7.83167 8.53878 7.57968
    endloop
  endfacet
  facet normal 0.707107 0.707107 -1.38616e-07
    outer loop
      vertex -7.83167 8.53878 6.07968
      vertex 0 0.707107 0.327398
      vertex -0.268454 0.975561 0
    endloop
  endfacet
  facet normal 0.707107 0.707107 0
    outer loop
      vertex -0.268454 0.975561 0
      vertex 0 0.707107 0.327398
      vertex 0 0.707107 0
    endloop
  endfacet
  facet normal -0.707107 -0.707107 -0
    outer loop
      vertex -8.60949 7.76096 6.07968
      vertex -8.60949 7.76096 0
      vertex -1.04627 0.197744 0
    endloop
  endfacet
  facet normal 0.707107 0.707107 0
    outer loop
      vertex -0.197744 1.04627 0
      vertex -7.76096 8.60949 0
      vertex -7.76096 8.60949 6.07968
    endloop
  endfacet
  facet normal 0.349424 -0.349419 0.869373
    outer loop
      vertex -8.53878 7.83167 6.07968
      vertex -1.04627 0.197744 0
      vertex -0.975561 0.268454 0
    endloop
  endfacet
  facet normal 0.349422 -0.349422 0.869373
    outer loop
      vertex -1.04627 0.197744 0
      vertex -8.53878 7.83167 6.07968
      vertex -8.60949 7.76096 6.07968
    endloop
  endfacet
  facet normal 0.349419 -0.349424 0.869373
    outer loop
      vertex -7.76096 8.60949 6.07968
      vertex -0.268454 0.975561 0
      vertex -0.197744 1.04627 0
    endloop
  endfacet
  facet normal 0.349422 -0.349422 0.869373
    outer loop
      vertex -0.268454 0.975561 0
      vertex -7.76096 8.60949 6.07968
      vertex -7.83167 8.53878 6.07968
    endloop
  endfacet
  facet normal -0.707107 0.707107 0
    outer loop
      vertex -8.32664 -8.0438 10.5797
      vertex -0.282842 0 1.68279
      vertex -0.282842 0 1.16551
    endloop
  endfacet
  facet normal -0.707107 0.707107 0
    outer loop
      vertex -0.282842 0 1.68279
      vertex -8.32664 -8.0438 10.5797
      vertex -8.32664 -8.0438 12.0797
    endloop
  endfacet
  facet normal -0.707107 -0.707107 0
    outer loop
      vertex -8.60949 -7.76096 0
      vertex -8.53878 -7.83167 6.07968
      vertex -8.60949 -7.76096 6.07968
    endloop
  endfacet
  facet normal -0.707107 -0.707107 0
    outer loop
      vertex -8.53878 -7.83167 6.07968
      vertex -8.46807 -7.90238 7.57968
      vertex -8.53878 -7.83167 7.57968
    endloop
  endfacet
  facet normal -0.707107 -0.707107 0
    outer loop
      vertex -7.83167 -8.53878 6.07968
      vertex -8.53878 -7.83167 6.07968
      vertex -8.60949 -7.76096 0
    endloop
  endfacet
  facet normal -0.707057 -0.707157 0
    outer loop
      vertex -8.46807 -7.90238 7.57968
      vertex -8.39735 -7.97309 9.07968
      vertex -8.46807 -7.90238 9.07968
    endloop
  endfacet
  facet normal -0.707107 -0.707107 -8.37289e-16
    outer loop
      vertex -8.53878 -7.83167 6.07968
      vertex -7.83167 -8.53878 6.07968
      vertex -8.46807 -7.90238 7.57968
    endloop
  endfacet
  facet normal -0.707107 -0.707107 0
    outer loop
      vertex -8.39735 -7.97309 9.07968
      vertex -8.32664 -8.0438 10.5797
      vertex -8.39735 -7.97309 10.5797
    endloop
  endfacet
  facet normal -0.707107 -0.707107 -8.38443e-16
    outer loop
      vertex -7.90238 -8.46807 7.57968
      vertex -8.46807 -7.90238 7.57968
      vertex -7.83167 -8.53878 6.07968
    endloop
  endfacet
  facet normal -0.707107 -0.707107 0
    outer loop
      vertex -8.32664 -8.0438 10.5797
      vertex -8.0438 -8.32664 10.5797
      vertex -8.32664 -8.0438 12.0797
    endloop
  endfacet
  facet normal -0.707107 -0.707107 4.71405e-06
    outer loop
      vertex -7.97309 -8.39735 9.07968
      vertex -8.39735 -7.97309 9.07968
      vertex -7.90238 -8.46807 7.57968
    endloop
  endfacet
  facet normal -0.707107 -0.707107 4.16332e-16
    outer loop
      vertex -8.32664 -8.0438 10.5797
      vertex -7.97309 -8.39735 9.07968
      vertex -8.0438 -8.32664 10.5797
    endloop
  endfacet
  facet normal -0.707107 -0.707107 4.20187e-16
    outer loop
      vertex -8.39735 -7.97309 9.07968
      vertex -7.97309 -8.39735 9.07968
      vertex -8.32664 -8.0438 10.5797
    endloop
  endfacet
  facet normal -0.707107 -0.707107 4.71405e-06
    outer loop
      vertex -8.46807 -7.90238 7.57968
      vertex -7.90238 -8.46807 7.57968
      vertex -8.39735 -7.97309 9.07968
    endloop
  endfacet
  facet normal -0.707107 -0.707107 0
    outer loop
      vertex -7.76096 -8.60949 0
      vertex -7.83167 -8.53878 6.07968
      vertex -8.60949 -7.76096 0
    endloop
  endfacet
  facet normal -0.707107 -0.707107 0
    outer loop
      vertex -7.83167 -8.53878 6.07968
      vertex -7.76096 -8.60949 0
      vertex -7.76096 -8.60949 6.07968
    endloop
  endfacet
  facet normal -0.707107 -0.707107 0
    outer loop
      vertex -8.32664 -8.0438 12.0797
      vertex -8.0438 -8.32664 10.5797
      vertex -8.0438 -8.32664 12.0797
    endloop
  endfacet
  facet normal -0.707107 -0.707107 0
    outer loop
      vertex -8.0438 -8.32664 10.5797
      vertex -7.97309 -8.39735 9.07968
      vertex -7.97309 -8.39735 10.5797
    endloop
  endfacet
  facet normal -0.707157 -0.707057 0
    outer loop
      vertex -7.97309 -8.39735 9.07968
      vertex -7.90238 -8.46807 7.57968
      vertex -7.90238 -8.46807 9.07968
    endloop
  endfacet
  facet normal -0.707107 -0.707107 0
    outer loop
      vertex -7.90238 -8.46807 7.57968
      vertex -7.83167 -8.53878 6.07968
      vertex -7.83167 -8.53878 7.57968
    endloop
  endfacet
  facet normal 0.47701 0.477074 0.738147
    outer loop
      vertex -0.282842 0 1.68279
      vertex -8.22605 -8.08463 12.0411
      vertex -0.141421 0 1.5914
    endloop
  endfacet
  facet normal 0.476932 0.477151 0.738148
    outer loop
      vertex -8.22605 -8.08463 12.0411
      vertex -0.282842 0 1.68279
      vertex -8.32664 -8.0438 12.0797
    endloop
  endfacet
  facet normal 0.477074 0.47701 0.738147
    outer loop
      vertex -8.08463 -8.22605 12.0411
      vertex 0 -0.282842 1.68279
      vertex 0 -0.141421 1.5914
    endloop
  endfacet
  facet normal 0.477151 0.476932 0.738148
    outer loop
      vertex 0 -0.282842 1.68279
      vertex -8.08463 -8.22605 12.0411
      vertex -8.0438 -8.32664 12.0797
    endloop
  endfacet
  facet normal 0.4769 0.4769 0.738331
    outer loop
      vertex -8.22605 -8.08463 12.0411
      vertex -8.0438 -8.32664 12.0797
      vertex -8.08463 -8.22605 12.0411
    endloop
  endfacet
  facet normal 0.4769 0.4769 0.738331
    outer loop
      vertex -8.0438 -8.32664 12.0797
      vertex -8.22605 -8.08463 12.0411
      vertex -8.32664 -8.0438 12.0797
    endloop
  endfacet
  facet normal -0.707107 0.707107 0
    outer loop
      vertex -8.39735 -7.97309 9.07968
      vertex -0.424263 0 1.24827
      vertex -0.424263 0 0.722354
    endloop
  endfacet
  facet normal -0.707107 0.707107 0
    outer loop
      vertex -0.424263 0 1.24827
      vertex -8.39735 -7.97309 9.07968
      vertex -8.39735 -7.97309 10.5797
    endloop
  endfacet
  facet normal 0.450809 0.45084 0.770399
    outer loop
      vertex -8.0438 -8.32664 10.5797
      vertex 0 -0.424263 1.24827
      vertex 0 -0.282842 1.16551
    endloop
  endfacet
  facet normal 0.450824 0.450824 0.770399
    outer loop
      vertex 0 -0.424263 1.24827
      vertex -8.0438 -8.32664 10.5797
      vertex -7.97309 -8.39735 10.5797
    endloop
  endfacet
  facet normal 0.45084 0.450809 0.770399
    outer loop
      vertex -0.424263 0 1.24827
      vertex -8.32664 -8.0438 10.5797
      vertex -0.282842 0 1.16551
    endloop
  endfacet
  facet normal 0.450824 0.450824 0.770399
    outer loop
      vertex -8.32664 -8.0438 10.5797
      vertex -0.424263 0 1.24827
      vertex -8.39735 -7.97309 10.5797
    endloop
  endfacet
  facet normal -0.707107 0.707107 0
    outer loop
      vertex -8.46807 -7.90238 7.57968
      vertex -0.565685 0 0.796473
      vertex -0.565685 0 0.261918
    endloop
  endfacet
  facet normal -0.707107 0.707107 0
    outer loop
      vertex -0.565685 0 0.796473
      vertex -8.46807 -7.90238 7.57968
      vertex -8.46807 -7.90238 9.07968
    endloop
  endfacet
  facet normal 0.42105 0.421054 0.803387
    outer loop
      vertex -7.97309 -8.39735 9.07968
      vertex 0 -0.565685 0.796473
      vertex 0 -0.424263 0.722354
    endloop
  endfacet
  facet normal 0.421081 0.421022 0.803387
    outer loop
      vertex 0 -0.565685 0.796473
      vertex -7.97309 -8.39735 9.07968
      vertex -7.90238 -8.46807 9.07968
    endloop
  endfacet
  facet normal 0.421054 0.42105 0.803387
    outer loop
      vertex -0.565685 0 0.796473
      vertex -8.39735 -7.97309 9.07968
      vertex -0.424263 0 0.722354
    endloop
  endfacet
  facet normal 0.421022 0.421081 0.803387
    outer loop
      vertex -8.39735 -7.97309 9.07968
      vertex -0.565685 0 0.796473
      vertex -8.46807 -7.90238 9.07968
    endloop
  endfacet
  facet normal 0.387355 0.387358 0.836606
    outer loop
      vertex -7.90238 -8.46807 7.57968
      vertex 0 -0.707107 0.327398
      vertex 0 -0.565685 0.261918
    endloop
  endfacet
  facet normal 0.387357 0.387357 0.836606
    outer loop
      vertex 0 -0.707107 0.327398
      vertex -7.90238 -8.46807 7.57968
      vertex -7.83167 -8.53878 7.57968
    endloop
  endfacet
  facet normal 0.387358 0.387355 0.836606
    outer loop
      vertex -0.707107 0 0.327398
      vertex -8.46807 -7.90238 7.57968
      vertex -0.565685 0 0.261918
    endloop
  endfacet
  facet normal 0.387357 0.387357 0.836606
    outer loop
      vertex -8.46807 -7.90238 7.57968
      vertex -0.707107 0 0.327398
      vertex -8.53878 -7.83167 7.57968
    endloop
  endfacet
  facet normal -0.707107 0.707107 0
    outer loop
      vertex -0.707107 0 0.327398
      vertex -8.53878 -7.83167 6.07968
      vertex -8.53878 -7.83167 7.57968
    endloop
  endfacet
  facet normal -0.707107 0.707107 0
    outer loop
      vertex -0.975561 -0.268454 0
      vertex -0.707107 0 0.327398
      vertex -0.707107 0 0
    endloop
  endfacet
  facet normal -0.707107 0.707107 -1.38616e-07
    outer loop
      vertex -0.707107 0 0.327398
      vertex -0.975561 -0.268454 0
      vertex -8.53878 -7.83167 6.07968
    endloop
  endfacet
  facet normal -0.707107 0.707107 0
    outer loop
      vertex -1.04627 -0.197744 0
      vertex -8.60949 -7.76096 0
      vertex -8.60949 -7.76096 6.07968
    endloop
  endfacet
  facet normal 0.349419 0.349424 0.869373
    outer loop
      vertex -0.268454 -0.975561 0
      vertex -7.76096 -8.60949 6.07968
      vertex -0.197744 -1.04627 0
    endloop
  endfacet
  facet normal 0.349422 0.349422 0.869373
    outer loop
      vertex -7.76096 -8.60949 6.07968
      vertex -0.268454 -0.975561 0
      vertex -7.83167 -8.53878 6.07968
    endloop
  endfacet
  facet normal 0.349424 0.349419 0.869373
    outer loop
      vertex -1.04627 -0.197744 0
      vertex -8.53878 -7.83167 6.07968
      vertex -0.975561 -0.268454 0
    endloop
  endfacet
  facet normal 0.349422 0.349422 0.869373
    outer loop
      vertex -8.53878 -7.83167 6.07968
      vertex -1.04627 -0.197744 0
      vertex -8.60949 -7.76096 6.07968
    endloop
  endfacet
  facet normal 0.707107 0.707107 -0
    outer loop
      vertex 8.32664 -8.0438 10.5797
      vertex 0.282842 0 1.68279
      vertex 8.32664 -8.0438 12.0797
    endloop
  endfacet
  facet normal 0.707107 0.707107 0
    outer loop
      vertex 0.282842 0 1.68279
      vertex 8.32664 -8.0438 10.5797
      vertex 0.282842 0 1.16551
    endloop
  endfacet
  facet normal -0.707107 -0.707107 0
    outer loop
      vertex 8.0438 -8.32664 10.5797
      vertex 0 -0.282842 1.68279
      vertex 0 -0.282842 1.16551
    endloop
  endfacet
  facet normal -0.707107 -0.707107 0
    outer loop
      vertex 0 -0.282842 1.68279
      vertex 8.0438 -8.32664 10.5797
      vertex 8.0438 -8.32664 12.0797
    endloop
  endfacet
  facet normal 0.707107 -0.707107 0
    outer loop
      vertex 8.32664 -8.0438 12.0797
      vertex 8.0438 -8.32664 12.0797
      vertex 8.32664 -8.0438 10.5797
    endloop
  endfacet
  facet normal 0.707107 -0.707107 0
    outer loop
      vertex 8.39735 -7.97309 10.5797
      vertex 8.32664 -8.0438 10.5797
      vertex 8.39735 -7.97309 9.07968
    endloop
  endfacet
  facet normal 0.707057 -0.707157 0
    outer loop
      vertex 8.46807 -7.90238 9.07968
      vertex 8.39735 -7.97309 9.07968
      vertex 8.46807 -7.90238 7.57968
    endloop
  endfacet
  facet normal 0.707107 -0.707107 0
    outer loop
      vertex 8.53878 -7.83167 7.57968
      vertex 8.46807 -7.90238 7.57968
      vertex 8.53878 -7.83167 6.07968
    endloop
  endfacet
  facet normal 0.707107 -0.707107 0
    outer loop
      vertex 8.53878 -7.83167 6.07968
      vertex 8.60949 -7.76096 0
      vertex 8.60949 -7.76096 6.07968
    endloop
  endfacet
  facet normal 0.707107 -0.707107 -8.51167e-16
    outer loop
      vertex 7.83167 -8.53878 6.07968
      vertex 8.53878 -7.83167 6.07968
      vertex 8.46807 -7.90238 7.57968
    endloop
  endfacet
  facet normal 0.707107 -0.707107 4.71405e-06
    outer loop
      vertex 7.90238 -8.46807 7.57968
      vertex 8.46807 -7.90238 7.57968
      vertex 8.39735 -7.97309 9.07968
    endloop
  endfacet
  facet normal 0.707107 -0.707107 4.31752e-16
    outer loop
      vertex 7.97309 -8.39735 9.07968
      vertex 8.39735 -7.97309 9.07968
      vertex 8.32664 -8.0438 10.5797
    endloop
  endfacet
  facet normal 0.707107 -0.707107 0
    outer loop
      vertex 8.0438 -8.32664 10.5797
      vertex 8.32664 -8.0438 10.5797
      vertex 8.0438 -8.32664 12.0797
    endloop
  endfacet
  facet normal 0.707107 -0.707107 4.16332e-16
    outer loop
      vertex 7.97309 -8.39735 9.07968
      vertex 8.32664 -8.0438 10.5797
      vertex 8.0438 -8.32664 10.5797
    endloop
  endfacet
  facet normal 0.707107 -0.707107 0
    outer loop
      vertex 7.97309 -8.39735 9.07968
      vertex 8.0438 -8.32664 10.5797
      vertex 7.97309 -8.39735 10.5797
    endloop
  endfacet
  facet normal 0.707107 -0.707107 4.71405e-06
    outer loop
      vertex 8.39735 -7.97309 9.07968
      vertex 7.97309 -8.39735 9.07968
      vertex 7.90238 -8.46807 7.57968
    endloop
  endfacet
  facet normal 0.707157 -0.707057 0
    outer loop
      vertex 7.90238 -8.46807 7.57968
      vertex 7.97309 -8.39735 9.07968
      vertex 7.90238 -8.46807 9.07968
    endloop
  endfacet
  facet normal 0.707107 -0.707107 -8.32661e-16
    outer loop
      vertex 8.46807 -7.90238 7.57968
      vertex 7.90238 -8.46807 7.57968
      vertex 7.83167 -8.53878 6.07968
    endloop
  endfacet
  facet normal 0.707107 -0.707107 0
    outer loop
      vertex 7.83167 -8.53878 6.07968
      vertex 7.90238 -8.46807 7.57968
      vertex 7.83167 -8.53878 7.57968
    endloop
  endfacet
  facet normal 0.707107 -0.707107 0
    outer loop
      vertex 8.53878 -7.83167 6.07968
      vertex 7.83167 -8.53878 6.07968
      vertex 8.60949 -7.76096 0
    endloop
  endfacet
  facet normal 0.707107 -0.707107 0
    outer loop
      vertex 7.76096 -8.60949 0
      vertex 7.83167 -8.53878 6.07968
      vertex 7.76096 -8.60949 6.07968
    endloop
  endfacet
  facet normal 0.707107 -0.707107 0
    outer loop
      vertex 7.83167 -8.53878 6.07968
      vertex 7.76096 -8.60949 0
      vertex 8.60949 -7.76096 0
    endloop
  endfacet
  facet normal -0.476932 0.477151 0.738148
    outer loop
      vertex 0.282842 0 1.68279
      vertex 8.22605 -8.08463 12.0411
      vertex 8.32664 -8.0438 12.0797
    endloop
  endfacet
  facet normal -0.47701 0.477074 0.738147
    outer loop
      vertex 8.22605 -8.08463 12.0411
      vertex 0.282842 0 1.68279
      vertex 0.141421 0 1.5914
    endloop
  endfacet
  facet normal -0.4769 0.4769 0.738331
    outer loop
      vertex 8.08463 -8.22605 12.0411
      vertex 8.32664 -8.0438 12.0797
      vertex 8.22605 -8.08463 12.0411
    endloop
  endfacet
  facet normal -0.4769 0.4769 0.738331
    outer loop
      vertex 8.08463 -8.22605 12.0411
      vertex 8.0438 -8.32664 12.0797
      vertex 8.32664 -8.0438 12.0797
    endloop
  endfacet
  facet normal -0.477074 0.47701 0.738147
    outer loop
      vertex 0 -0.282842 1.68279
      vertex 8.08463 -8.22605 12.0411
      vertex 0 -0.141421 1.5914
    endloop
  endfacet
  facet normal -0.477151 0.476932 0.738148
    outer loop
      vertex 8.08463 -8.22605 12.0411
      vertex 0 -0.282842 1.68279
      vertex 8.0438 -8.32664 12.0797
    endloop
  endfacet
  facet normal 0.707107 0.707107 -0
    outer loop
      vertex 8.39735 -7.97309 9.07968
      vertex 0.424263 0 1.24827
      vertex 8.39735 -7.97309 10.5797
    endloop
  endfacet
  facet normal 0.707107 0.707107 0
    outer loop
      vertex 0.424263 0 1.24827
      vertex 8.39735 -7.97309 9.07968
      vertex 0.424263 0 0.722354
    endloop
  endfacet
  facet normal -0.707107 -0.707107 0
    outer loop
      vertex 7.97309 -8.39735 9.07968
      vertex 0 -0.424263 1.24827
      vertex 0 -0.424263 0.722354
    endloop
  endfacet
  facet normal -0.707107 -0.707107 0
    outer loop
      vertex 0 -0.424263 1.24827
      vertex 7.97309 -8.39735 9.07968
      vertex 7.97309 -8.39735 10.5797
    endloop
  endfacet
  facet normal -0.450824 0.450824 0.770399
    outer loop
      vertex 0.424263 0 1.24827
      vertex 8.32664 -8.0438 10.5797
      vertex 8.39735 -7.97309 10.5797
    endloop
  endfacet
  facet normal -0.45084 0.450809 0.770399
    outer loop
      vertex 8.32664 -8.0438 10.5797
      vertex 0.424263 0 1.24827
      vertex 0.282842 0 1.16551
    endloop
  endfacet
  facet normal -0.450809 0.45084 0.770399
    outer loop
      vertex 0 -0.424263 1.24827
      vertex 8.0438 -8.32664 10.5797
      vertex 0 -0.282842 1.16551
    endloop
  endfacet
  facet normal -0.450824 0.450824 0.770399
    outer loop
      vertex 8.0438 -8.32664 10.5797
      vertex 0 -0.424263 1.24827
      vertex 7.97309 -8.39735 10.5797
    endloop
  endfacet
  facet normal 0.707107 0.707107 -0
    outer loop
      vertex 8.46807 -7.90238 7.57968
      vertex 0.565685 0 0.796473
      vertex 8.46807 -7.90238 9.07968
    endloop
  endfacet
  facet normal 0.707107 0.707107 0
    outer loop
      vertex 0.565685 0 0.796473
      vertex 8.46807 -7.90238 7.57968
      vertex 0.565685 0 0.261918
    endloop
  endfacet
  facet normal -0.707107 -0.707107 0
    outer loop
      vertex 7.90238 -8.46807 7.57968
      vertex 0 -0.565685 0.796473
      vertex 0 -0.565685 0.261918
    endloop
  endfacet
  facet normal -0.707107 -0.707107 0
    outer loop
      vertex 0 -0.565685 0.796473
      vertex 7.90238 -8.46807 7.57968
      vertex 7.90238 -8.46807 9.07968
    endloop
  endfacet
  facet normal -0.421022 0.421081 0.803387
    outer loop
      vertex 0.565685 0 0.796473
      vertex 8.39735 -7.97309 9.07968
      vertex 8.46807 -7.90238 9.07968
    endloop
  endfacet
  facet normal -0.421054 0.42105 0.803387
    outer loop
      vertex 8.39735 -7.97309 9.07968
      vertex 0.565685 0 0.796473
      vertex 0.424263 0 0.722354
    endloop
  endfacet
  facet normal -0.42105 0.421054 0.803387
    outer loop
      vertex 0 -0.565685 0.796473
      vertex 7.97309 -8.39735 9.07968
      vertex 0 -0.424263 0.722354
    endloop
  endfacet
  facet normal -0.421081 0.421022 0.803387
    outer loop
      vertex 7.97309 -8.39735 9.07968
      vertex 0 -0.565685 0.796473
      vertex 7.90238 -8.46807 9.07968
    endloop
  endfacet
  facet normal 0.707107 0.707107 -0
    outer loop
      vertex 8.53878 -7.83167 6.07968
      vertex 0.707107 0 0.327398
      vertex 8.53878 -7.83167 7.57968
    endloop
  endfacet
  facet normal 0.707107 0.707107 -1.38616e-07
    outer loop
      vertex 0.975561 -0.268454 0
      vertex 0.707107 0 0.327398
      vertex 8.53878 -7.83167 6.07968
    endloop
  endfacet
  facet normal 0.707107 0.707107 0
    outer loop
      vertex 0.707107 0 0.327398
      vertex 0.975561 -0.268454 0
      vertex 0.707107 0 0
    endloop
  endfacet
  facet normal -0.387357 0.387357 0.836606
    outer loop
      vertex 0.707107 0 0.327398
      vertex 8.46807 -7.90238 7.57968
      vertex 8.53878 -7.83167 7.57968
    endloop
  endfacet
  facet normal -0.387358 0.387355 0.836606
    outer loop
      vertex 8.46807 -7.90238 7.57968
      vertex 0.707107 0 0.327398
      vertex 0.565685 0 0.261918
    endloop
  endfacet
  facet normal -0.387355 0.387358 0.836606
    outer loop
      vertex 0 -0.707107 0.327398
      vertex 7.90238 -8.46807 7.57968
      vertex 0 -0.565685 0.261918
    endloop
  endfacet
  facet normal -0.387357 0.387357 0.836606
    outer loop
      vertex 7.90238 -8.46807 7.57968
      vertex 0 -0.707107 0.327398
      vertex 7.83167 -8.53878 7.57968
    endloop
  endfacet
  facet normal -0.707107 -0.707107 0
    outer loop
      vertex 0.268454 -0.975561 0
      vertex 0 -0.707107 0.327398
      vertex 0 -0.707107 0
    endloop
  endfacet
  facet normal -0.707107 -0.707107 -1.38616e-07
    outer loop
      vertex 7.83167 -8.53878 6.07968
      vertex 0 -0.707107 0.327398
      vertex 0.268454 -0.975561 0
    endloop
  endfacet
  facet normal -0.707107 -0.707107 0
    outer loop
      vertex 0 -0.707107 0.327398
      vertex 7.83167 -8.53878 6.07968
      vertex 7.83167 -8.53878 7.57968
    endloop
  endfacet
  facet normal 0.707107 0.707107 -0
    outer loop
      vertex 8.60949 -7.76096 0
      vertex 1.04627 -0.197744 0
      vertex 8.60949 -7.76096 6.07968
    endloop
  endfacet
  facet normal -0.707107 -0.707107 -0
    outer loop
      vertex 7.76096 -8.60949 6.07968
      vertex 0.197744 -1.04627 0
      vertex 7.76096 -8.60949 0
    endloop
  endfacet
  facet normal -0.349422 0.349422 0.869373
    outer loop
      vertex 1.04627 -0.197744 0
      vertex 8.53878 -7.83167 6.07968
      vertex 8.60949 -7.76096 6.07968
    endloop
  endfacet
  facet normal -0.349424 0.349419 0.869373
    outer loop
      vertex 8.53878 -7.83167 6.07968
      vertex 1.04627 -0.197744 0
      vertex 0.975561 -0.268454 0
    endloop
  endfacet
  facet normal -0.349422 0.349422 0.869373
    outer loop
      vertex 0.268454 -0.975561 0
      vertex 7.76096 -8.60949 6.07968
      vertex 7.83167 -8.53878 6.07968
    endloop
  endfacet
  facet normal -0.349419 0.349424 0.869373
    outer loop
      vertex 7.76096 -8.60949 6.07968
      vertex 0.268454 -0.975561 0
      vertex 0.197744 -1.04627 0
    endloop
  endfacet
  facet normal -0 0 -1
    outer loop
      vertex 0 0.707107 0
      vertex -0.707107 0 0
      vertex -0.268454 0.975561 0
    endloop
  endfacet
  facet normal 0 0 -1
    outer loop
      vertex -0.268454 -0.975561 0
      vertex -0.975561 -0.268454 0
      vertex -0.707107 0 0
    endloop
  endfacet
  facet normal 0 0 -1
    outer loop
      vertex -7.76096 -8.60949 0
      vertex -0.268454 -0.975561 0
      vertex -0.197744 -1.04627 0
    endloop
  endfacet
  facet normal -0 0 -1
    outer loop
      vertex -0.268454 -0.975561 0
      vertex -7.76096 -8.60949 0
      vertex -0.975561 -0.268454 0
    endloop
  endfacet
  facet normal 0 0 -1
    outer loop
      vertex -8.60949 -7.76096 0
      vertex -0.975561 -0.268454 0
      vertex -7.76096 -8.60949 0
    endloop
  endfacet
  facet normal -0 0 -1
    outer loop
      vertex -0.975561 -0.268454 0
      vertex -8.60949 -7.76096 0
      vertex -1.04627 -0.197744 0
    endloop
  endfacet
  facet normal 0 0 -1
    outer loop
      vertex 0 0.707107 0
      vertex 0.707107 0 0
      vertex 0 -0.707107 0
    endloop
  endfacet
  facet normal 0 0 -1
    outer loop
      vertex 0.707107 0 0
      vertex 0 0.707107 0
      vertex 0.268454 0.975561 0
    endloop
  endfacet
  facet normal 0 0 -1
    outer loop
      vertex -0.707107 0 0
      vertex 0 -0.707107 0
      vertex -0.268454 -0.975561 0
    endloop
  endfacet
  facet normal 0 0 -1
    outer loop
      vertex 0 -0.707107 0
      vertex -0.707107 0 0
      vertex 0 0.707107 0
    endloop
  endfacet
  facet normal 0 0 -1
    outer loop
      vertex 0.975561 -0.268454 0
      vertex 8.60949 -7.76096 0
      vertex 7.76096 -8.60949 0
    endloop
  endfacet
  facet normal 0 0 -1
    outer loop
      vertex 8.60949 -7.76096 0
      vertex 0.975561 -0.268454 0
      vertex 1.04627 -0.197744 0
    endloop
  endfacet
  facet normal 0 0 -1
    outer loop
      vertex 0.268454 -0.975561 0
      vertex 0.975561 -0.268454 0
      vertex 7.76096 -8.60949 0
    endloop
  endfacet
  facet normal -0 0 -1
    outer loop
      vertex 0.975561 -0.268454 0
      vertex 0.268454 -0.975561 0
      vertex 0.707107 0 0
    endloop
  endfacet
  facet normal 0 -0 -1
    outer loop
      vertex 0.268454 -0.975561 0
      vertex 7.76096 -8.60949 0
      vertex 0.197744 -1.04627 0
    endloop
  endfacet
  facet normal 0 0 -1
    outer loop
      vertex 0.975561 0.268454 0
      vertex 8.60949 7.76096 0
      vertex 1.04627 0.197744 0
    endloop
  endfacet
  facet normal -0 0 -1
    outer loop
      vertex 8.60949 7.76096 0
      vertex 0.975561 0.268454 0
      vertex 7.76096 8.60949 0
    endloop
  endfacet
  facet normal 0 0 -1
    outer loop
      vertex 0.268454 0.975561 0
      vertex 0.975561 0.268454 0
      vertex 0.707107 0 0
    endloop
  endfacet
  facet normal 0 0 -1
    outer loop
      vertex 0 -0.707107 0
      vertex 0.707107 0 0
      vertex 0.268454 -0.975561 0
    endloop
  endfacet
  facet normal 0 0 -1
    outer loop
      vertex 0.975561 0.268454 0
      vertex 0.268454 0.975561 0
      vertex 7.76096 8.60949 0
    endloop
  endfacet
  facet normal 0 0 -1
    outer loop
      vertex 7.76096 8.60949 0
      vertex 0.268454 0.975561 0
      vertex 0.197744 1.04627 0
    endloop
  endfacet
  facet normal 0 0 -1
    outer loop
      vertex -0.975561 0.268454 0
      vertex -0.268454 0.975561 0
      vertex -0.707107 0 0
    endloop
  endfacet
  facet normal 0 0 -1
    outer loop
      vertex -7.76096 8.60949 0
      vertex -0.268454 0.975561 0
      vertex -0.975561 0.268454 0
    endloop
  endfacet
  facet normal 0 0 -1
    outer loop
      vertex -8.60949 7.76096 0
      vertex -0.975561 0.268454 0
      vertex -1.04627 0.197744 0
    endloop
  endfacet
  facet normal 0 0 -1
    outer loop
      vertex -0.268454 0.975561 0
      vertex -7.76096 8.60949 0
      vertex -0.197744 1.04627 0
    endloop
  endfacet
  facet normal 0 0 -1
    outer loop
      vertex -0.975561 0.268454 0
      vertex -8.60949 7.76096 0
      vertex -7.76096 8.60949 0
    endloop
  endfacet
endsolid OpenSCAD_Model
