solid OpenSCAD_Model
  facet normal 0 0.866025 0.500001
    outer loop
      vertex 3.24809 4.47061 23.4067
      vertex -3.24809 4.47061 23.4067
      vertex 0 1.05442e-06 31.15
    endloop
  endfacet
  facet normal 8.19175e-06 0.866027 0.499998
    outer loop
      vertex 1.77801 8.4064 16.5897
      vertex 3.24809 4.47061 23.4067
      vertex 5.28073 7.2683 18.5609
    endloop
  endfacet
  facet normal 0 0.866026 0.499999
    outer loop
      vertex 3.24809 4.47061 23.4067
      vertex 1.77801 8.4064 16.5897
      vertex -3.24809 4.47061 23.4067
    endloop
  endfacet
  facet normal -0 0.866026 0.499999
    outer loop
      vertex -1.77801 8.4064 16.5897
      vertex -3.24809 4.47061 23.4067
      vertex 1.77801 8.4064 16.5897
    endloop
  endfacet
  facet normal -8.19175e-06 0.866027 0.499998
    outer loop
      vertex -3.24809 4.47061 23.4067
      vertex -1.77801 8.4064 16.5897
      vertex -5.28073 7.2683 18.5609
    endloop
  endfacet
  facet normal -0 0.86602 0.500009
    outer loop
      vertex -1.77801 8.4064 16.5897
      vertex 1.77801 8.4064 16.5897
      vertex 0 8.98411 15.5891
    endloop
  endfacet
  facet normal -1.5306e-05 -0.866012 -0.500023
    outer loop
      vertex 1.77801 -8.4064 17.5603
      vertex 4.89024 -6.88233 14.9206
      vertex 5.18338 -7.28102 15.6111
    endloop
  endfacet
  facet normal -6.31617e-07 -0.866026 -0.499999
    outer loop
      vertex 3.74971 -5.33116 12.2338
      vertex -1.77801 -8.4064 17.5603
      vertex -3.74979 -5.33127 12.234
    endloop
  endfacet
  facet normal 1.0256e-05 -0.866031 -0.49999
    outer loop
      vertex -1.77801 -8.4064 17.5603
      vertex 3.74971 -5.33116 12.2338
      vertex 4.89024 -6.88233 14.9206
    endloop
  endfacet
  facet normal -6.31718e-07 -0.866025 -0.500001
    outer loop
      vertex 3.74971 -5.33116 12.2338
      vertex -3.74979 -5.33127 12.234
      vertex -4.74441e-07 -0.170129 3.29467
    endloop
  endfacet
  facet normal 0 -0.86602 -0.500009
    outer loop
      vertex -1.77801 -8.4064 17.5603
      vertex 1.77801 -8.4064 17.5603
      vertex 0 -8.98411 18.5609
    endloop
  endfacet
  facet normal -4.12565e-06 -0.866027 -0.499998
    outer loop
      vertex -3.74979 -5.33127 12.234
      vertex -1.77801 -8.4064 17.5603
      vertex -5.18338 -7.28102 15.6111
    endloop
  endfacet
  facet normal -0.000267509 -0.866226 -0.499652
    outer loop
      vertex -5.28073 -7.2683 15.5891
      vertex -5.18338 -7.28102 15.6111
      vertex -1.77801 -8.4064 17.5603
    endloop
  endfacet
  facet normal -0.000202062 -0.866101 -0.49987
    outer loop
      vertex -5.18338 -7.28102 15.6111
      vertex -5.28073 -7.2683 15.5891
      vertex -5.25315 -7.23033 15.5233
    endloop
  endfacet
  facet normal 0 -0.86602 -0.500009
    outer loop
      vertex -1.77801 -8.4064 17.5603
      vertex 4.89024 -6.88233 14.9206
      vertex 1.77801 -8.4064 17.5603
    endloop
  endfacet
  facet normal 0.000267509 -0.866226 -0.499652
    outer loop
      vertex 5.18338 -7.28102 15.6111
      vertex 5.28073 -7.2683 15.5891
      vertex 1.77801 -8.4064 17.5603
    endloop
  endfacet
  facet normal 0.000202062 -0.866101 -0.49987
    outer loop
      vertex 5.28073 -7.2683 15.5891
      vertex 5.18338 -7.28102 15.6111
      vertex 5.25315 -7.23033 15.5233
    endloop
  endfacet
  facet normal -0.823634 0.267615 0.500009
    outer loop
      vertex -8.5444 0.906728 16.5897
      vertex -5.28073 7.2683 18.5609
      vertex -8.5444 2.77624 15.5891
    endloop
  endfacet
  facet normal -0.823639 0.267622 0.499997
    outer loop
      vertex -5.28073 7.2683 18.5609
      vertex -8.5444 0.906728 16.5897
      vertex -3.24809 4.47061 23.4067
    endloop
  endfacet
  facet normal -0.823639 0.267612 0.500002
    outer loop
      vertex -3.24809 4.47061 23.4067
      vertex -8.5444 0.906728 16.5897
      vertex -8.5444 -0.906728 17.5603
    endloop
  endfacet
  facet normal -0.823638 0.267617 0.500001
    outer loop
      vertex -5.25552 -1.70762 23.4067
      vertex 0 1.05442e-06 31.15
      vertex -3.24809 4.47061 23.4067
    endloop
  endfacet
  facet normal -0.827419 0 0.561585
    outer loop
      vertex 0 1.05442e-06 31.15
      vertex -5.25552 -1.70762 23.4067
      vertex 0 3.83789e-07 31.15
    endloop
  endfacet
  facet normal -0.82364 0.267617 0.499998
    outer loop
      vertex -5.25552 -1.70762 23.4067
      vertex -3.24809 4.47061 23.4067
      vertex -8.5444 -0.906728 17.5603
    endloop
  endfacet
  facet normal -0.823638 0.267616 0.500001
    outer loop
      vertex 0 3.83789e-07 31.15
      vertex -5.25552 -1.70762 23.4067
      vertex -2.10257e-07 -2.63316e-07 31.15
    endloop
  endfacet
  facet normal -0.823643 0.267609 0.499998
    outer loop
      vertex -5.25552 -1.70762 23.4067
      vertex -8.5444 -0.906728 17.5603
      vertex -8.5444 -2.77624 18.5609
    endloop
  endfacet
  facet normal 0.823806 -0.267416 -0.499832
    outer loop
      vertex 8.5444 2.77624 15.5891
      vertex 8.52642 2.67973 15.6111
      vertex 8.49977 2.76174 15.5233
    endloop
  endfacet
  facet normal 0.823962 -0.26739 -0.499589
    outer loop
      vertex 8.5444 0.906728 16.5897
      vertex 8.52642 2.67973 15.6111
      vertex 8.5444 2.77624 15.5891
    endloop
  endfacet
  facet normal 0.82364 -0.267618 -0.499997
    outer loop
      vertex 8.5444 0.906728 16.5897
      vertex 6.22895 1.91876 12.2338
      vertex 8.52642 2.67973 15.6111
    endloop
  endfacet
  facet normal 0.823641 -0.267617 -0.499997
    outer loop
      vertex 3.31922 -4.39839 10.8218
      vertex 6.22895 1.91876 12.2338
      vertex 8.5444 0.906728 16.5897
    endloop
  endfacet
  facet normal 0.823639 -0.267615 -0.500002
    outer loop
      vertex 6.22895 1.91876 12.2338
      vertex 3.31922 -4.39839 10.8218
      vertex 0.161802 -0.0525729 3.29467
    endloop
  endfacet
  facet normal 0.823638 -0.267613 -0.500004
    outer loop
      vertex 3.91153 -5.21363 12.2339
      vertex 8.5444 0.906728 16.5897
      vertex 8.5444 -0.906728 17.5603
    endloop
  endfacet
  facet normal 0.823638 -0.267612 -0.500005
    outer loop
      vertex 3.91153 -5.21363 12.2339
      vertex 8.5444 -0.906728 17.5603
      vertex 8.5444 -2.77624 18.5609
    endloop
  endfacet
  facet normal 0.823643 -0.267628 -0.499988
    outer loop
      vertex 8.5444 0.906728 16.5897
      vertex 3.91153 -5.21363 12.2339
      vertex 3.31922 -4.39839 10.8218
    endloop
  endfacet
  facet normal 0.823637 -0.267618 -0.500002
    outer loop
      vertex 8.5444 -2.77624 18.5609
      vertex 5.32291 -7.17965 15.6111
      vertex 3.91153 -5.21363 12.2339
    endloop
  endfacet
  facet normal 0.82367 -0.267868 -0.499814
    outer loop
      vertex 5.32291 -7.17965 15.6111
      vertex 5.28073 -7.2683 15.5891
      vertex 5.25315 -7.23033 15.5233
    endloop
  endfacet
  facet normal 0.823755 -0.267954 -0.499629
    outer loop
      vertex 5.28073 -7.2683 15.5891
      vertex 5.32291 -7.17965 15.6111
      vertex 8.5444 -2.77624 18.5609
    endloop
  endfacet
  facet normal -0.50904 -0.70063 0.499996
    outer loop
      vertex -8.5444 -2.77624 18.5609
      vertex -1.77801 -8.4064 17.5603
      vertex -5.25552 -1.70762 23.4067
    endloop
  endfacet
  facet normal -0.509033 -0.700625 0.50001
    outer loop
      vertex -1.77801 -8.4064 17.5603
      vertex -8.5444 -2.77624 18.5609
      vertex -5.28073 -7.2683 15.5891
    endloop
  endfacet
  facet normal -0.509037 -0.700628 0.500001
    outer loop
      vertex -5.25552 -1.70762 23.4067
      vertex 0 -4.16077e-07 31.15
      vertex -2.10257e-07 -2.63316e-07 31.15
    endloop
  endfacet
  facet normal -0.509034 -0.700631 0.5
    outer loop
      vertex -5.25552 -1.70762 23.4067
      vertex 0 -8.98411 18.5609
      vertex 0 -4.16077e-07 31.15
    endloop
  endfacet
  facet normal -0.509032 -0.700631 0.500002
    outer loop
      vertex 0 -8.98411 18.5609
      vertex -5.25552 -1.70762 23.4067
      vertex -1.77801 -8.4064 17.5603
    endloop
  endfacet
  facet normal 0.509043 0.700623 -0.500002
    outer loop
      vertex 1.77801 8.4064 16.5897
      vertex 0.0999998 6.51718 12.2341
      vertex 0.0862348 8.93719 15.6111
    endloop
  endfacet
  facet normal 0.509031 0.700632 -0.500002
    outer loop
      vertex 5.20881 1.79759 10.8218
      vertex 0.0999998 6.51718 12.2341
      vertex 1.77801 8.4064 16.5897
    endloop
  endfacet
  facet normal 0.509032 0.700633 -0.5
    outer loop
      vertex 0.0999998 6.51718 12.2341
      vertex 5.20881 1.79759 10.8218
      vertex 0.0999993 0.137637 3.29467
    endloop
  endfacet
  facet normal 0.508893 0.701101 -0.499485
    outer loop
      vertex 0.0862348 8.93719 15.6111
      vertex 0 8.98411 15.5891
      vertex 1.77801 8.4064 16.5897
    endloop
  endfacet
  facet normal 0.508864 0.700903 -0.499793
    outer loop
      vertex 0 8.98411 15.5891
      vertex 0.0862348 8.93719 15.6111
      vertex 0 8.93719 15.5233
    endloop
  endfacet
  facet normal 0.509042 0.700627 -0.499998
    outer loop
      vertex 6.16729 2.10902 12.234
      vertex 5.28073 7.2683 18.5609
      vertex 8.47312 2.84376 15.6111
    endloop
  endfacet
  facet normal 0.509511 0.700638 -0.499506
    outer loop
      vertex 8.5444 2.77624 15.5891
      vertex 8.47312 2.84376 15.6111
      vertex 5.28073 7.2683 18.5609
    endloop
  endfacet
  facet normal 0.509321 0.700543 -0.499831
    outer loop
      vertex 8.47312 2.84376 15.6111
      vertex 8.5444 2.77624 15.5891
      vertex 8.49977 2.76174 15.5233
    endloop
  endfacet
  facet normal 0.509031 0.700631 -0.500003
    outer loop
      vertex 5.28073 7.2683 18.5609
      vertex 6.16729 2.10902 12.234
      vertex 1.77801 8.4064 16.5897
    endloop
  endfacet
  facet normal 0.509035 0.700631 -0.499999
    outer loop
      vertex 1.77801 8.4064 16.5897
      vertex 6.16729 2.10902 12.234
      vertex 5.20881 1.79759 10.8218
    endloop
  endfacet
  facet normal 0.50904 -0.70063 0.499996
    outer loop
      vertex 1.77801 -8.4064 17.5603
      vertex 8.5444 -2.77624 18.5609
      vertex 5.25552 -1.70762 23.4067
    endloop
  endfacet
  facet normal 0.509033 -0.700625 0.50001
    outer loop
      vertex 8.5444 -2.77624 18.5609
      vertex 1.77801 -8.4064 17.5603
      vertex 5.28073 -7.2683 15.5891
    endloop
  endfacet
  facet normal 0.509037 -0.700628 0.500001
    outer loop
      vertex 0 -4.16077e-07 31.15
      vertex 5.25552 -1.70762 23.4067
      vertex 2.10257e-07 -2.63316e-07 31.15
    endloop
  endfacet
  facet normal 0.509034 -0.700631 0.5
    outer loop
      vertex 0 -8.98411 18.5609
      vertex 5.25552 -1.70762 23.4067
      vertex 0 -4.16077e-07 31.15
    endloop
  endfacet
  facet normal 0.509032 -0.700631 0.500002
    outer loop
      vertex 5.25552 -1.70762 23.4067
      vertex 0 -8.98411 18.5609
      vertex 1.77801 -8.4064 17.5603
    endloop
  endfacet
  facet normal -0.508895 0.701096 -0.499491
    outer loop
      vertex 0 8.98411 15.5891
      vertex -0.0862343 8.93719 15.6111
      vertex -1.77801 8.4064 16.5897
    endloop
  endfacet
  facet normal -0.508866 0.700902 -0.499792
    outer loop
      vertex -0.0862343 8.93719 15.6111
      vertex 0 8.98411 15.5891
      vertex 0 8.93719 15.5233
    endloop
  endfacet
  facet normal -0.509046 0.700614 -0.500013
    outer loop
      vertex -0.0890489 8.44235 14.9206
      vertex -1.77801 8.4064 16.5897
      vertex -0.0862343 8.93719 15.6111
    endloop
  endfacet
  facet normal -0.509036 0.700628 -0.500003
    outer loop
      vertex -0.1 6.51703 12.2339
      vertex -1.77801 8.4064 16.5897
      vertex -0.0890489 8.44235 14.9206
    endloop
  endfacet
  facet normal -0.50903 0.700632 -0.500003
    outer loop
      vertex -0.1 6.51703 12.2339
      vertex -5.20881 1.79759 10.8218
      vertex -1.77801 8.4064 16.5897
    endloop
  endfacet
  facet normal -0.509032 0.700633 -0.5
    outer loop
      vertex -5.20881 1.79759 10.8218
      vertex -0.1 6.51703 12.2339
      vertex -0.1 0.137637 3.29467
    endloop
  endfacet
  facet normal -0.509041 0.700627 -0.499999
    outer loop
      vertex -5.28073 7.2683 18.5609
      vertex -6.16728 2.10902 12.234
      vertex -8.47312 2.84376 15.6111
    endloop
  endfacet
  facet normal -0.509038 0.700631 -0.499997
    outer loop
      vertex -6.16728 2.10902 12.234
      vertex -1.77801 8.4064 16.5897
      vertex -5.20881 1.79759 10.8218
    endloop
  endfacet
  facet normal -0.509031 0.700631 -0.500003
    outer loop
      vertex -6.16728 2.10902 12.234
      vertex -5.28073 7.2683 18.5609
      vertex -1.77801 8.4064 16.5897
    endloop
  endfacet
  facet normal -0.509511 0.700638 -0.499506
    outer loop
      vertex -8.47312 2.84376 15.6111
      vertex -8.5444 2.77624 15.5891
      vertex -5.28073 7.2683 18.5609
    endloop
  endfacet
  facet normal -0.509321 0.700543 -0.499831
    outer loop
      vertex -8.5444 2.77624 15.5891
      vertex -8.47312 2.84376 15.6111
      vertex -8.49977 2.76174 15.5233
    endloop
  endfacet
  facet normal 0.823639 0.267622 0.499997
    outer loop
      vertex 8.5444 0.906728 16.5897
      vertex 5.28073 7.2683 18.5609
      vertex 3.24809 4.47061 23.4067
    endloop
  endfacet
  facet normal 0.823634 0.267615 0.500009
    outer loop
      vertex 5.28073 7.2683 18.5609
      vertex 8.5444 0.906728 16.5897
      vertex 8.5444 2.77624 15.5891
    endloop
  endfacet
  facet normal 0.823639 0.267612 0.500002
    outer loop
      vertex 8.5444 0.906728 16.5897
      vertex 3.24809 4.47061 23.4067
      vertex 8.5444 -0.906728 17.5603
    endloop
  endfacet
  facet normal 0.827419 0 0.561585
    outer loop
      vertex 5.25552 -1.70762 23.4067
      vertex 0 1.05442e-06 31.15
      vertex 0 3.83789e-07 31.15
    endloop
  endfacet
  facet normal 0.823638 0.267616 0.500001
    outer loop
      vertex 5.25552 -1.70762 23.4067
      vertex 0 3.83789e-07 31.15
      vertex 2.10257e-07 -2.63316e-07 31.15
    endloop
  endfacet
  facet normal 0.823638 0.267617 0.500001
    outer loop
      vertex 0 1.05442e-06 31.15
      vertex 5.25552 -1.70762 23.4067
      vertex 3.24809 4.47061 23.4067
    endloop
  endfacet
  facet normal 0.82364 0.267617 0.499998
    outer loop
      vertex 3.24809 4.47061 23.4067
      vertex 5.25552 -1.70762 23.4067
      vertex 8.5444 -0.906728 17.5603
    endloop
  endfacet
  facet normal 0.823643 0.267609 0.499998
    outer loop
      vertex 8.5444 -0.906728 17.5603
      vertex 5.25552 -1.70762 23.4067
      vertex 8.5444 -2.77624 18.5609
    endloop
  endfacet
  facet normal -0.823806 -0.267416 -0.499832
    outer loop
      vertex -8.52642 2.67973 15.6111
      vertex -8.5444 2.77624 15.5891
      vertex -8.49977 2.76174 15.5233
    endloop
  endfacet
  facet normal -0.823962 -0.26739 -0.499589
    outer loop
      vertex -8.52642 2.67973 15.6111
      vertex -8.5444 0.906728 16.5897
      vertex -8.5444 2.77624 15.5891
    endloop
  endfacet
  facet normal -0.823653 -0.26761 -0.499981
    outer loop
      vertex -8.05665 2.52413 14.9205
      vertex -8.5444 0.906728 16.5897
      vertex -8.52642 2.67973 15.6111
    endloop
  endfacet
  facet normal -0.823635 -0.267632 -0.499998
    outer loop
      vertex -6.22888 1.91874 12.2337
      vertex -8.5444 0.906728 16.5897
      vertex -8.05665 2.52413 14.9205
    endloop
  endfacet
  facet normal -0.823639 -0.267615 -0.500001
    outer loop
      vertex -3.31922 -4.39839 10.8218
      vertex -6.22888 1.91874 12.2337
      vertex -0.161804 -0.0525732 3.29467
    endloop
  endfacet
  facet normal -0.823641 -0.267617 -0.499997
    outer loop
      vertex -6.22888 1.91874 12.2337
      vertex -3.31922 -4.39839 10.8218
      vertex -8.5444 0.906728 16.5897
    endloop
  endfacet
  facet normal -0.823643 -0.267632 -0.499985
    outer loop
      vertex -3.91148 -5.21357 12.2338
      vertex -8.5444 0.906728 16.5897
      vertex -3.31922 -4.39839 10.8218
    endloop
  endfacet
  facet normal -0.823637 -0.267613 -0.500005
    outer loop
      vertex -8.5444 0.906728 16.5897
      vertex -3.91148 -5.21357 12.2338
      vertex -8.5444 -0.906728 17.5603
    endloop
  endfacet
  facet normal -0.823638 -0.267622 -0.499999
    outer loop
      vertex -5.03432 -6.77765 14.9206
      vertex -8.5444 -0.906728 17.5603
      vertex -3.91148 -5.21357 12.2338
    endloop
  endfacet
  facet normal -0.823634 -0.267615 -0.500009
    outer loop
      vertex -8.5444 -0.906728 17.5603
      vertex -5.03432 -6.77765 14.9206
      vertex -8.5444 -2.77624 18.5609
    endloop
  endfacet
  facet normal -0.823631 -0.267599 -0.500024
    outer loop
      vertex -5.32291 -7.17965 15.6111
      vertex -8.5444 -2.77624 18.5609
      vertex -5.03432 -6.77765 14.9206
    endloop
  endfacet
  facet normal -0.823755 -0.267954 -0.499629
    outer loop
      vertex -5.32291 -7.17965 15.6111
      vertex -5.28073 -7.2683 15.5891
      vertex -8.5444 -2.77624 18.5609
    endloop
  endfacet
  facet normal -0.82367 -0.267868 -0.499814
    outer loop
      vertex -5.28073 -7.2683 15.5891
      vertex -5.32291 -7.17965 15.6111
      vertex -5.25315 -7.23033 15.5233
    endloop
  endfacet
  facet normal 0 0 1
    outer loop
      vertex -2.10257e-07 -2.63316e-07 31.15
      vertex 2.10257e-07 -2.63316e-07 31.15
      vertex 0 3.83789e-07 31.15
    endloop
  endfacet
  facet normal 0 0 1
    outer loop
      vertex 2.10257e-07 -2.63316e-07 31.15
      vertex -2.10257e-07 -2.63316e-07 31.15
      vertex 0 -4.16077e-07 31.15
    endloop
  endfacet
  facet normal -0.309017 0.951056 0
    outer loop
      vertex 8.46887 2.85685 12.9569
      vertex 6.16729 2.10902 12.234
      vertex 8.46887 2.85685 15.6111
    endloop
  endfacet
  facet normal -0.309017 0.951056 -3.5738e-07
    outer loop
      vertex 8.46887 2.85685 12.9569
      vertex 5.20881 1.79759 10.8218
      vertex 6.16729 2.10902 12.234
    endloop
  endfacet
  facet normal -0.309018 0.951056 6.20686e-07
    outer loop
      vertex 0.0999994 0.137637 1.67644
      vertex 5.20881 1.79759 10.8218
      vertex 8.46887 2.85685 12.9569
    endloop
  endfacet
  facet normal -0.309017 0.951057 -1.9096e-08
    outer loop
      vertex 5.20881 1.79759 10.8218
      vertex 0.0999994 0.137637 1.67644
      vertex 0.0999993 0.137637 3.29467
    endloop
  endfacet
  facet normal 0 1 0
    outer loop
      vertex 0.0999993 0.137637 3.29467
      vertex 0.0999994 0.137637 1.67644
      vertex 0.0999993 0.137637 1.67644
    endloop
  endfacet
  facet normal 0.309019 -0.951056 0
    outer loop
      vertex 6.22895 1.91876 12.2338
      vertex 8.53067 2.66664 12.9569
      vertex 8.53067 2.66664 15.6111
    endloop
  endfacet
  facet normal 0.30902 -0.951056 -2.48416e-06
    outer loop
      vertex 0.161802 -0.0525729 3.29467
      vertex 8.53067 2.66664 12.9569
      vertex 6.22895 1.91876 12.2338
    endloop
  endfacet
  facet normal 0.309017 -0.951056 -5.87714e-08
    outer loop
      vertex 0.161802 -0.0525729 3.29467
      vertex 0.161802 -0.0525728 1.67644
      vertex 8.53067 2.66664 12.9569
    endloop
  endfacet
  facet normal 1 0 0
    outer loop
      vertex 0.161802 -0.0525728 1.67644
      vertex 0.161802 -0.0525729 3.29467
      vertex 0.161802 -0.0525729 1.67644
    endloop
  endfacet
  facet normal 0.951125 0.308807 0.000218064
    outer loop
      vertex 8.49977 2.76174 15.5233
      vertex 8.46887 2.85685 15.6111
      vertex 8.47312 2.84376 15.6111
    endloop
  endfacet
  facet normal 0.951066 0.308989 0
    outer loop
      vertex 8.46887 2.85685 15.6111
      vertex 8.49977 2.76174 15.5233
      vertex 8.46887 2.85685 12.9569
    endloop
  endfacet
  facet normal 0.951125 0.308807 -0.000253236
    outer loop
      vertex 8.53067 2.66664 15.6111
      vertex 8.49977 2.76174 15.5233
      vertex 8.52642 2.67973 15.6111
    endloop
  endfacet
  facet normal 0.951056 0.309018 0
    outer loop
      vertex 8.49977 2.76174 15.5233
      vertex 8.53067 2.66664 15.6111
      vertex 8.53067 2.66664 12.9569
    endloop
  endfacet
  facet normal 0.951061 0.309004 6.02017e-07
    outer loop
      vertex 8.49977 2.76174 15.5233
      vertex 8.53067 2.66664 12.9569
      vertex 8.46887 2.85685 12.9569
    endloop
  endfacet
  facet normal -0.773115 -0.251012 0.582482
    outer loop
      vertex 8.46887 2.85685 15.6111
      vertex 6.16729 2.10902 12.234
      vertex 8.47312 2.84376 15.6111
    endloop
  endfacet
  facet normal -0.773115 -0.251011 0.582483
    outer loop
      vertex 8.52642 2.67973 15.6111
      vertex 6.22895 1.91876 12.2338
      vertex 8.53067 2.66664 15.6111
    endloop
  endfacet
  facet normal -1 -0 0
    outer loop
      vertex -0.1 8.93719 12.9569
      vertex -0.1 6.51703 12.2339
      vertex -0.1 8.93719 15.6111
    endloop
  endfacet
  facet normal -1 0 0
    outer loop
      vertex -0.1 0.137638 1.67644
      vertex -0.1 6.51703 12.2339
      vertex -0.1 8.93719 12.9569
    endloop
  endfacet
  facet normal -1 0 0
    outer loop
      vertex -0.1 0.137637 3.29467
      vertex -0.1 0.137638 1.67644
      vertex -0.1 0.137637 1.67644
    endloop
  endfacet
  facet normal -1 0 0
    outer loop
      vertex -0.1 0.137638 1.67644
      vertex -0.1 0.137637 3.29467
      vertex -0.1 6.51703 12.2339
    endloop
  endfacet
  facet normal 1 -8.26443e-08 0
    outer loop
      vertex 0.0999998 6.51718 12.2341
      vertex 0.1 8.93719 12.9569
      vertex 0.1 8.93719 15.6111
    endloop
  endfacet
  facet normal 1 -8.38006e-08 3.87159e-09
    outer loop
      vertex 0.0999993 0.137637 3.29467
      vertex 0.1 8.93719 12.9569
      vertex 0.0999998 6.51718 12.2341
    endloop
  endfacet
  facet normal 1 -7.95495e-08 0
    outer loop
      vertex 0.1 8.93719 12.9569
      vertex 0.0999993 0.137637 3.29467
      vertex 0.0999993 0.137637 1.67644
    endloop
  endfacet
  facet normal 0 1 0
    outer loop
      vertex 0.1 8.93719 15.6111
      vertex 0 8.93719 15.5233
      vertex 0.0862348 8.93719 15.6111
    endloop
  endfacet
  facet normal -0 1 0
    outer loop
      vertex 0 8.93719 15.5233
      vertex 0.1 8.93719 15.6111
      vertex 0.1 8.93719 12.9569
    endloop
  endfacet
  facet normal 0 1 0
    outer loop
      vertex 0 8.93719 15.5233
      vertex -0.1 8.93719 15.6111
      vertex -0.0862343 8.93719 15.6111
    endloop
  endfacet
  facet normal 0 1 0
    outer loop
      vertex -0.1 8.93719 12.9569
      vertex 0 8.93719 15.5233
      vertex 0.1 8.93719 12.9569
    endloop
  endfacet
  facet normal 0 1 0
    outer loop
      vertex 0 8.93719 15.5233
      vertex -0.1 8.93719 12.9569
      vertex -0.1 8.93719 15.6111
    endloop
  endfacet
  facet normal 0 -0.812827 0.582505
    outer loop
      vertex -0.0862343 8.93719 15.6111
      vertex -0.1 8.93719 15.6111
      vertex -0.0890489 8.44235 14.9206
    endloop
  endfacet
  facet normal 0 -0.812837 0.582491
    outer loop
      vertex 0.1 8.93719 15.6111
      vertex 0.0862348 8.93719 15.6111
      vertex 0.0999998 6.51718 12.2341
    endloop
  endfacet
  facet normal -0.00116853 -0.812836 0.582492
    outer loop
      vertex -0.0890489 8.44235 14.9206
      vertex -0.1 8.93719 15.6111
      vertex -0.1 6.51703 12.2339
    endloop
  endfacet
  facet normal -0.309018 -0.951056 0
    outer loop
      vertex -8.53067 2.66664 12.9569
      vertex -6.22888 1.91874 12.2337
      vertex -8.53067 2.66664 15.6111
    endloop
  endfacet
  facet normal -0.309018 -0.951056 -1.00638e-06
    outer loop
      vertex -8.53067 2.66664 12.9569
      vertex -0.161804 -0.0525732 3.29467
      vertex -6.22888 1.91874 12.2337
    endloop
  endfacet
  facet normal -0.309017 -0.951056 -0
    outer loop
      vertex -0.161804 -0.0525732 3.29467
      vertex -8.53067 2.66664 12.9569
      vertex -0.161804 -0.0525732 1.67644
    endloop
  endfacet
  facet normal 0.309016 0.951057 0
    outer loop
      vertex -6.16728 2.10902 12.234
      vertex -8.46887 2.85685 12.9569
      vertex -8.46887 2.85685 15.6111
    endloop
  endfacet
  facet normal 0.309015 0.951057 -4.29656e-06
    outer loop
      vertex -5.20881 1.79759 10.8218
      vertex -8.46887 2.85685 12.9569
      vertex -6.16728 2.10902 12.234
    endloop
  endfacet
  facet normal 0.309017 0.951057 -0
    outer loop
      vertex -0.1 0.137637 1.67644
      vertex -5.20881 1.79759 10.8218
      vertex -0.1 0.137637 3.29467
    endloop
  endfacet
  facet normal 0.309018 0.951056 5.88716e-07
    outer loop
      vertex -5.20881 1.79759 10.8218
      vertex -0.1 0.137637 1.67644
      vertex -8.46887 2.85685 12.9569
    endloop
  endfacet
  facet normal -0.951066 0.308989 0
    outer loop
      vertex -8.49977 2.76174 15.5233
      vertex -8.46887 2.85685 15.6111
      vertex -8.46887 2.85685 12.9569
    endloop
  endfacet
  facet normal -0.951125 0.308807 0.000218064
    outer loop
      vertex -8.46887 2.85685 15.6111
      vertex -8.49977 2.76174 15.5233
      vertex -8.47312 2.84376 15.6111
    endloop
  endfacet
  facet normal -0.951061 0.309004 6.02017e-07
    outer loop
      vertex -8.53067 2.66664 12.9569
      vertex -8.49977 2.76174 15.5233
      vertex -8.46887 2.85685 12.9569
    endloop
  endfacet
  facet normal -0.951056 0.309018 0
    outer loop
      vertex -8.53067 2.66664 15.6111
      vertex -8.49977 2.76174 15.5233
      vertex -8.53067 2.66664 12.9569
    endloop
  endfacet
  facet normal -0.951125 0.308807 -0.000253236
    outer loop
      vertex -8.49977 2.76174 15.5233
      vertex -8.53067 2.66664 15.6111
      vertex -8.52642 2.67973 15.6111
    endloop
  endfacet
  facet normal 0.773128 -0.251015 0.582465
    outer loop
      vertex -8.52642 2.67973 15.6111
      vertex -8.53067 2.66664 15.6111
      vertex -8.05665 2.52413 14.9205
    endloop
  endfacet
  facet normal 0.773114 -0.251011 0.582484
    outer loop
      vertex -8.46887 2.85685 15.6111
      vertex -8.47312 2.84376 15.6111
      vertex -6.16728 2.10902 12.234
    endloop
  endfacet
  facet normal 0.773664 -0.249316 0.582482
    outer loop
      vertex -8.05665 2.52413 14.9205
      vertex -8.53067 2.66664 15.6111
      vertex -6.22888 1.91874 12.2337
    endloop
  endfacet
  facet normal 0.809018 -0.587784 1.34589e-06
    outer loop
      vertex -5.17224 -7.28911 12.9569
      vertex -4.74441e-07 -0.170129 3.29467
      vertex -3.74979 -5.33127 12.234
    endloop
  endfacet
  facet normal 0.809018 -0.587784 0
    outer loop
      vertex -5.17224 -7.28911 12.9569
      vertex -3.74979 -5.33127 12.234
      vertex -5.17224 -7.28911 15.6111
    endloop
  endfacet
  facet normal 0.809017 -0.587785 0
    outer loop
      vertex -4.74441e-07 -0.170129 3.29467
      vertex -5.17224 -7.28911 12.9569
      vertex -4.74441e-07 -0.170129 1.67644
    endloop
  endfacet
  facet normal -0.809017 0.587785 0
    outer loop
      vertex -0.161804 -0.0525732 1.67644
      vertex -3.31922 -4.39839 10.8218
      vertex -0.161804 -0.0525732 3.29467
    endloop
  endfacet
  facet normal -0.809016 0.587787 1.54603e-06
    outer loop
      vertex -5.33405 -7.17156 12.9569
      vertex -3.31922 -4.39839 10.8218
      vertex -0.161804 -0.0525732 1.67644
    endloop
  endfacet
  facet normal -0.809015 0.587788 4.26044e-06
    outer loop
      vertex -3.31922 -4.39839 10.8218
      vertex -5.33405 -7.17156 12.9569
      vertex -3.91148 -5.21357 12.2338
    endloop
  endfacet
  facet normal -0.809016 0.587787 0
    outer loop
      vertex -3.91148 -5.21357 12.2338
      vertex -5.33405 -7.17156 12.9569
      vertex -5.33405 -7.17156 15.6111
    endloop
  endfacet
  facet normal -0.58761 -0.809144 0.000179352
    outer loop
      vertex -5.33405 -7.17156 15.6111
      vertex -5.25315 -7.23033 15.5233
      vertex -5.32291 -7.17965 15.6111
    endloop
  endfacet
  facet normal -0.587738 -0.809052 0
    outer loop
      vertex -5.25315 -7.23033 15.5233
      vertex -5.33405 -7.17156 15.6111
      vertex -5.33405 -7.17156 12.9569
    endloop
  endfacet
  facet normal -0.58761 -0.809144 -0.000204583
    outer loop
      vertex -5.25315 -7.23033 15.5233
      vertex -5.17224 -7.28911 15.6111
      vertex -5.18338 -7.28102 15.6111
    endloop
  endfacet
  facet normal -0.587746 -0.809045 4.31146e-07
    outer loop
      vertex -5.17224 -7.28911 12.9569
      vertex -5.25315 -7.23033 15.5233
      vertex -5.33405 -7.17156 12.9569
    endloop
  endfacet
  facet normal -0.587755 -0.809039 0
    outer loop
      vertex -5.25315 -7.23033 15.5233
      vertex -5.17224 -7.28911 12.9569
      vertex -5.17224 -7.28911 15.6111
    endloop
  endfacet
  facet normal 0.477635 0.657708 0.582482
    outer loop
      vertex -3.74979 -5.33127 12.234
      vertex -5.18338 -7.28102 15.6111
      vertex -5.17224 -7.28911 15.6111
    endloop
  endfacet
  facet normal 0.477621 0.657688 0.582516
    outer loop
      vertex -5.03432 -6.77765 14.9206
      vertex -5.33405 -7.17156 15.6111
      vertex -5.32291 -7.17965 15.6111
    endloop
  endfacet
  facet normal 0.47559 0.659183 0.582487
    outer loop
      vertex -3.91148 -5.21357 12.2338
      vertex -5.33405 -7.17156 15.6111
      vertex -5.03432 -6.77765 14.9206
    endloop
  endfacet
  facet normal 0.809017 0.587785 0
    outer loop
      vertex 3.31922 -4.39839 10.8218
      vertex 0.161802 -0.0525729 1.67644
      vertex 0.161802 -0.0525729 3.29467
    endloop
  endfacet
  facet normal 0.809017 0.587785 -2.34798e-06
    outer loop
      vertex 5.33405 -7.17156 12.9569
      vertex 3.31922 -4.39839 10.8218
      vertex 3.91153 -5.21363 12.2339
    endloop
  endfacet
  facet normal 0.809017 0.587785 -0
    outer loop
      vertex 5.33405 -7.17156 12.9569
      vertex 3.91153 -5.21363 12.2339
      vertex 5.33405 -7.17156 15.6111
    endloop
  endfacet
  facet normal 0.809016 0.587787 1.29744e-06
    outer loop
      vertex 3.31922 -4.39839 10.8218
      vertex 5.33405 -7.17156 12.9569
      vertex 0.161802 -0.0525729 1.67644
    endloop
  endfacet
  facet normal 0.58761 -0.809144 -0.000204583
    outer loop
      vertex 5.17224 -7.28911 15.6111
      vertex 5.25315 -7.23033 15.5233
      vertex 5.18338 -7.28102 15.6111
    endloop
  endfacet
  facet normal 0.587755 -0.809039 0
    outer loop
      vertex 5.25315 -7.23033 15.5233
      vertex 5.17224 -7.28911 15.6111
      vertex 5.17224 -7.28911 12.9569
    endloop
  endfacet
  facet normal 0.58761 -0.809144 0.000179352
    outer loop
      vertex 5.25315 -7.23033 15.5233
      vertex 5.33405 -7.17156 15.6111
      vertex 5.32291 -7.17965 15.6111
    endloop
  endfacet
  facet normal 0.587746 -0.809045 4.31146e-07
    outer loop
      vertex 5.33405 -7.17156 12.9569
      vertex 5.25315 -7.23033 15.5233
      vertex 5.17224 -7.28911 12.9569
    endloop
  endfacet
  facet normal 0.587738 -0.809052 0
    outer loop
      vertex 5.25315 -7.23033 15.5233
      vertex 5.33405 -7.17156 12.9569
      vertex 5.33405 -7.17156 15.6111
    endloop
  endfacet
  facet normal -0.477632 0.657704 0.582488
    outer loop
      vertex 5.33405 -7.17156 15.6111
      vertex 3.91153 -5.21363 12.2339
      vertex 5.32291 -7.17965 15.6111
    endloop
  endfacet
  facet normal -0.477622 0.65769 0.582512
    outer loop
      vertex 5.18338 -7.28102 15.6111
      vertex 4.89024 -6.88233 14.9206
      vertex 5.17224 -7.28911 15.6111
    endloop
  endfacet
  facet normal -0.48008 0.655928 0.582478
    outer loop
      vertex 4.89024 -6.88233 14.9206
      vertex 3.74971 -5.33116 12.2338
      vertex 5.17224 -7.28911 15.6111
    endloop
  endfacet
  facet normal -0.903473 -0.428645 0
    outer loop
      vertex -1.31673e-17 -0.17013 1.67644
      vertex -4.74441e-07 -0.170129 3.29467
      vertex -4.74441e-07 -0.170129 1.67644
    endloop
  endfacet
  facet normal -0.809017 -0.587785 1.26035e-07
    outer loop
      vertex 5.17224 -7.28911 12.9569
      vertex -4.74441e-07 -0.170129 3.29467
      vertex -1.31673e-17 -0.17013 1.67644
    endloop
  endfacet
  facet normal -0.809018 -0.587784 1.42147e-06
    outer loop
      vertex -4.74441e-07 -0.170129 3.29467
      vertex 5.17224 -7.28911 12.9569
      vertex 3.74971 -5.33116 12.2338
    endloop
  endfacet
  facet normal -0.809018 -0.587784 0
    outer loop
      vertex 3.74971 -5.33116 12.2338
      vertex 5.17224 -7.28911 12.9569
      vertex 5.17224 -7.28911 15.6111
    endloop
  endfacet
  facet normal -0.309017 0.951057 0
    outer loop
      vertex 8.47816 2.96501 11.5111
      vertex 0.2 0.275276 1.85289
      vertex 8.47816 2.96501 13.0111
    endloop
  endfacet
  facet normal -0.309017 0.951057 0
    outer loop
      vertex 0.2 0.275276 1.85289
      vertex 8.47816 2.96501 11.5111
      vertex 0.2 0.275276 1.32223
    endloop
  endfacet
  facet normal 0.951061 0.309004 0
    outer loop
      vertex 8.47816 2.96501 13.0111
      vertex 8.60176 2.58459 13.0111
      vertex 8.47816 2.96501 11.5111
    endloop
  endfacet
  facet normal 0.951066 0.308989 0
    outer loop
      vertex 8.44726 3.06012 11.5111
      vertex 8.47816 2.96501 11.5111
      vertex 8.44726 3.06012 10.0111
    endloop
  endfacet
  facet normal 0.951027 0.309109 0
    outer loop
      vertex 8.41635 3.15522 10.0111
      vertex 8.44726 3.06012 10.0111
      vertex 8.41635 3.15522 8.51111
    endloop
  endfacet
  facet normal 0.951066 0.308989 0
    outer loop
      vertex 8.38545 3.25033 8.51111
      vertex 8.41635 3.15522 8.51111
      vertex 8.38545 3.25033 7.01111
    endloop
  endfacet
  facet normal 0.951056 0.309018 0
    outer loop
      vertex 8.38545 3.25033 7.01111
      vertex 8.35455 3.34543 0
      vertex 8.35455 3.34543 7.01111
    endloop
  endfacet
  facet normal 0.951056 0.309019 2.09212e-06
    outer loop
      vertex 8.69447 2.29927 7.01111
      vertex 8.38545 3.25033 7.01111
      vertex 8.41635 3.15522 8.51111
    endloop
  endfacet
  facet normal 0.951054 0.309026 -5.78539e-06
    outer loop
      vertex 8.66357 2.39438 8.51111
      vertex 8.41635 3.15522 8.51111
      vertex 8.44726 3.06012 10.0111
    endloop
  endfacet
  facet normal 0.951056 0.309019 2.08679e-06
    outer loop
      vertex 8.63267 2.48949 10.0111
      vertex 8.44726 3.06012 10.0111
      vertex 8.47816 2.96501 11.5111
    endloop
  endfacet
  facet normal 0.951061 0.309004 -0
    outer loop
      vertex 8.60176 2.58459 11.5111
      vertex 8.47816 2.96501 11.5111
      vertex 8.60176 2.58459 13.0111
    endloop
  endfacet
  facet normal 0.951061 0.309004 7.37042e-06
    outer loop
      vertex 8.63267 2.48949 10.0111
      vertex 8.47816 2.96501 11.5111
      vertex 8.60176 2.58459 11.5111
    endloop
  endfacet
  facet normal 0.951027 0.309109 -0
    outer loop
      vertex 8.63267 2.48949 10.0111
      vertex 8.60176 2.58459 11.5111
      vertex 8.63267 2.48949 11.5111
    endloop
  endfacet
  facet normal 0.951056 0.309019 -2.0868e-06
    outer loop
      vertex 8.44726 3.06012 10.0111
      vertex 8.63267 2.48949 10.0111
      vertex 8.66357 2.39438 8.51111
    endloop
  endfacet
  facet normal 0.951066 0.308989 -0
    outer loop
      vertex 8.66357 2.39438 8.51111
      vertex 8.63267 2.48949 10.0111
      vertex 8.66357 2.39438 10.0111
    endloop
  endfacet
  facet normal 0.951054 0.309026 -2.61518e-06
    outer loop
      vertex 8.41635 3.15522 8.51111
      vertex 8.66357 2.39438 8.51111
      vertex 8.69447 2.29927 7.01111
    endloop
  endfacet
  facet normal 0.951066 0.308989 -0
    outer loop
      vertex 8.69447 2.29927 7.01111
      vertex 8.66357 2.39438 8.51111
      vertex 8.69447 2.29927 8.51111
    endloop
  endfacet
  facet normal 0.951056 0.309019 6.84625e-09
    outer loop
      vertex 8.38545 3.25033 7.01111
      vertex 8.69447 2.29927 7.01111
      vertex 8.35455 3.34543 0
    endloop
  endfacet
  facet normal 0.951056 0.309018 -0
    outer loop
      vertex 8.72537 2.20417 0
      vertex 8.69447 2.29927 7.01111
      vertex 8.72537 2.20417 7.01111
    endloop
  endfacet
  facet normal 0.951056 0.309019 -5.70527e-09
    outer loop
      vertex 8.69447 2.29927 7.01111
      vertex 8.72537 2.20417 0
      vertex 8.35455 3.34543 0
    endloop
  endfacet
  facet normal -0.749834 -0.243811 0.615066
    outer loop
      vertex 0.2 0.275276 1.85289
      vertex 8.46887 2.85685 12.9569
      vertex 8.47816 2.96501 13.0111
    endloop
  endfacet
  facet normal -0.749874 -0.243685 0.615066
    outer loop
      vertex 8.46887 2.85685 12.9569
      vertex 0.2 0.275276 1.85289
      vertex 0.0999994 0.137637 1.67644
    endloop
  endfacet
  facet normal -0.75004 -0.243691 0.614862
    outer loop
      vertex 8.60176 2.58459 13.0111
      vertex 8.46887 2.85685 12.9569
      vertex 8.53067 2.66664 12.9569
    endloop
  endfacet
  facet normal -0.75004 -0.243691 0.614862
    outer loop
      vertex 8.46887 2.85685 12.9569
      vertex 8.60176 2.58459 13.0111
      vertex 8.47816 2.96501 13.0111
    endloop
  endfacet
  facet normal -0.749896 -0.243618 0.615066
    outer loop
      vertex 0.323606 -0.105146 1.85289
      vertex 8.53067 2.66664 12.9569
      vertex 0.161802 -0.0525728 1.67644
    endloop
  endfacet
  facet normal -0.749944 -0.243473 0.615065
    outer loop
      vertex 8.53067 2.66664 12.9569
      vertex 0.323606 -0.105146 1.85289
      vertex 8.60176 2.58459 13.0111
    endloop
  endfacet
  facet normal 0.309017 -0.951056 0
    outer loop
      vertex 0.323606 -0.105146 1.85289
      vertex 8.60176 2.58459 11.5111
      vertex 8.60176 2.58459 13.0111
    endloop
  endfacet
  facet normal 0.309017 -0.951056 0
    outer loop
      vertex 8.60176 2.58459 11.5111
      vertex 0.323606 -0.105146 1.85289
      vertex 0.323606 -0.105146 1.32223
    endloop
  endfacet
  facet normal -0.309017 0.951057 0
    outer loop
      vertex 8.44726 3.06012 10.0111
      vertex 0.299999 0.412914 1.48335
      vertex 8.44726 3.06012 11.5111
    endloop
  endfacet
  facet normal -0.309017 0.951057 0
    outer loop
      vertex 0.299999 0.412914 1.48335
      vertex 8.44726 3.06012 10.0111
      vertex 0.299999 0.412914 0.937362
    endloop
  endfacet
  facet normal -0.723124 -0.234933 0.649537
    outer loop
      vertex 0.299999 0.412914 1.48335
      vertex 8.47816 2.96501 11.5111
      vertex 8.44726 3.06012 11.5111
    endloop
  endfacet
  facet normal -0.723106 -0.23499 0.649537
    outer loop
      vertex 8.47816 2.96501 11.5111
      vertex 0.299999 0.412914 1.48335
      vertex 0.2 0.275276 1.32223
    endloop
  endfacet
  facet normal -0.723127 -0.234926 0.649536
    outer loop
      vertex 0.485409 -0.157719 1.48335
      vertex 8.60176 2.58459 11.5111
      vertex 0.323606 -0.105146 1.32223
    endloop
  endfacet
  facet normal -0.723094 -0.235025 0.649537
    outer loop
      vertex 8.60176 2.58459 11.5111
      vertex 0.485409 -0.157719 1.48335
      vertex 8.63267 2.48949 11.5111
    endloop
  endfacet
  facet normal 0.309017 -0.951056 0
    outer loop
      vertex 0.485409 -0.157719 1.48335
      vertex 8.63267 2.48949 10.0111
      vertex 8.63267 2.48949 11.5111
    endloop
  endfacet
  facet normal 0.309017 -0.951056 0
    outer loop
      vertex 8.63267 2.48949 10.0111
      vertex 0.485409 -0.157719 1.48335
      vertex 0.485409 -0.157719 0.937362
    endloop
  endfacet
  facet normal -0.309017 0.951057 0
    outer loop
      vertex 8.41635 3.15522 8.51111
      vertex 0.4 0.550552 1.08315
      vertex 8.41635 3.15522 10.0111
    endloop
  endfacet
  facet normal -0.309017 0.951057 0
    outer loop
      vertex 0.4 0.550552 1.08315
      vertex 8.41635 3.15522 8.51111
      vertex 0.4 0.550552 0.521837
    endloop
  endfacet
  facet normal -0.691527 -0.224765 0.686492
    outer loop
      vertex 0.4 0.550552 1.08315
      vertex 8.44726 3.06012 10.0111
      vertex 8.41635 3.15522 10.0111
    endloop
  endfacet
  facet normal -0.691549 -0.224696 0.686492
    outer loop
      vertex 8.44726 3.06012 10.0111
      vertex 0.4 0.550552 1.08315
      vertex 0.299999 0.412914 0.937362
    endloop
  endfacet
  facet normal -0.691549 -0.224698 0.686492
    outer loop
      vertex 0.647213 -0.210292 1.08315
      vertex 8.63267 2.48949 10.0111
      vertex 0.485409 -0.157719 0.937362
    endloop
  endfacet
  facet normal -0.691555 -0.224677 0.686492
    outer loop
      vertex 8.63267 2.48949 10.0111
      vertex 0.647213 -0.210292 1.08315
      vertex 8.66357 2.39438 10.0111
    endloop
  endfacet
  facet normal 0.309017 -0.951057 0
    outer loop
      vertex 0.647213 -0.210292 1.08315
      vertex 8.66357 2.39438 8.51111
      vertex 8.66357 2.39438 10.0111
    endloop
  endfacet
  facet normal 0.309017 -0.951057 0
    outer loop
      vertex 8.66357 2.39438 8.51111
      vertex 0.647213 -0.210292 1.08315
      vertex 0.647213 -0.210292 0.521837
    endloop
  endfacet
  facet normal -0.309017 0.951056 0
    outer loop
      vertex 8.38545 3.25033 7.01111
      vertex 0.5 0.688191 0.652297
      vertex 8.38545 3.25033 8.51111
    endloop
  endfacet
  facet normal -0.309017 0.951056 0
    outer loop
      vertex 0.5 0.688191 0.652297
      vertex 8.38545 3.25033 7.01111
      vertex 0.5 0.688191 0.0756565
    endloop
  endfacet
  facet normal -0.654263 -0.212562 0.72578
    outer loop
      vertex 0.5 0.688191 0.652297
      vertex 8.41635 3.15522 8.51111
      vertex 8.38545 3.25033 8.51111
    endloop
  endfacet
  facet normal -0.654257 -0.212582 0.72578
    outer loop
      vertex 8.41635 3.15522 8.51111
      vertex 0.5 0.688191 0.652297
      vertex 0.4 0.550552 0.521837
    endloop
  endfacet
  facet normal -0.654263 -0.212562 0.72578
    outer loop
      vertex 8.66357 2.39438 8.51111
      vertex 0.809017 -0.262866 0.652297
      vertex 8.69447 2.29927 8.51111
    endloop
  endfacet
  facet normal -0.654257 -0.212579 0.725781
    outer loop
      vertex 0.809017 -0.262866 0.652297
      vertex 8.66357 2.39438 8.51111
      vertex 0.647213 -0.210292 0.521837
    endloop
  endfacet
  facet normal 0.309017 -0.951057 0
    outer loop
      vertex 0.809017 -0.262866 0.652297
      vertex 8.69447 2.29927 7.01111
      vertex 8.69447 2.29927 8.51111
    endloop
  endfacet
  facet normal 0.309017 -0.951057 0
    outer loop
      vertex 8.69447 2.29927 7.01111
      vertex 0.809017 -0.262866 0.652297
      vertex 0.809017 -0.262866 0.0756565
    endloop
  endfacet
  facet normal -0.309017 0.951057 0
    outer loop
      vertex 8.35455 3.34543 0
      vertex 0.599999 0.825828 0.190787
      vertex 8.35455 3.34543 7.01111
    endloop
  endfacet
  facet normal -0.309017 0.951057 0
    outer loop
      vertex 0.599999 0.825828 0.190787
      vertex 8.35455 3.34543 0
      vertex 0.599999 0.825828 0
    endloop
  endfacet
  facet normal -0.610204 -0.198268 0.767034
    outer loop
      vertex 0.599999 0.825828 0.190787
      vertex 8.38545 3.25033 7.01111
      vertex 8.35455 3.34543 7.01111
    endloop
  endfacet
  facet normal -0.610204 -0.198269 0.767034
    outer loop
      vertex 8.38545 3.25033 7.01111
      vertex 0.599999 0.825828 0.190787
      vertex 0.5 0.688191 0.0756565
    endloop
  endfacet
  facet normal -0.610204 -0.198268 0.767034
    outer loop
      vertex 8.69447 2.29927 7.01111
      vertex 0.970819 -0.315438 0.190787
      vertex 8.72537 2.20417 7.01111
    endloop
  endfacet
  facet normal -0.610204 -0.198268 0.767034
    outer loop
      vertex 0.970819 -0.315438 0.190787
      vertex 8.69447 2.29927 7.01111
      vertex 0.809017 -0.262866 0.0756565
    endloop
  endfacet
  facet normal 0.309017 -0.951056 0
    outer loop
      vertex 8.72537 2.20417 0
      vertex 0.970819 -0.315438 0.190787
      vertex 0.970819 -0.315438 0
    endloop
  endfacet
  facet normal 0.309017 -0.951056 0
    outer loop
      vertex 0.970819 -0.315438 0.190787
      vertex 8.72537 2.20417 0
      vertex 8.72537 2.20417 7.01111
    endloop
  endfacet
  facet normal -1 0 0
    outer loop
      vertex -0.2 0.275276 1.85289
      vertex -0.2 8.97945 11.5111
      vertex -0.2 0.275276 1.32223
    endloop
  endfacet
  facet normal -1 -0 0
    outer loop
      vertex -0.2 8.97945 11.5111
      vertex -0.2 0.275276 1.85289
      vertex -0.2 8.97945 13.0111
    endloop
  endfacet
  facet normal 0 1 -0
    outer loop
      vertex 0.599999 8.97945 0
      vertex 0.5 8.97945 7.01111
      vertex 0.599999 8.97945 7.01111
    endloop
  endfacet
  facet normal 0 1 0
    outer loop
      vertex 0.5 8.97945 7.01111
      vertex 0.599999 8.97945 0
      vertex -0.5 8.97945 7.01111
    endloop
  endfacet
  facet normal 0 1 0
    outer loop
      vertex -0.599999 8.97945 0
      vertex -0.5 8.97945 7.01111
      vertex 0.599999 8.97945 0
    endloop
  endfacet
  facet normal 0 1 0
    outer loop
      vertex -0.5 8.97945 7.01111
      vertex -0.599999 8.97945 0
      vertex -0.599999 8.97945 7.01111
    endloop
  endfacet
  facet normal 0 1 -0
    outer loop
      vertex 0.5 8.97945 7.01111
      vertex 0.4 8.97945 8.51111
      vertex 0.5 8.97945 8.51111
    endloop
  endfacet
  facet normal 0 1 0
    outer loop
      vertex 0.4 8.97945 8.51111
      vertex 0.5 8.97945 7.01111
      vertex -0.4 8.97945 8.51111
    endloop
  endfacet
  facet normal 0 1 0
    outer loop
      vertex -0.5 8.97945 7.01111
      vertex -0.4 8.97945 8.51111
      vertex 0.5 8.97945 7.01111
    endloop
  endfacet
  facet normal 0 1 0
    outer loop
      vertex -0.4 8.97945 8.51111
      vertex -0.5 8.97945 7.01111
      vertex -0.5 8.97945 8.51111
    endloop
  endfacet
  facet normal 0 1 -0
    outer loop
      vertex 0.4 8.97945 8.51111
      vertex 0.299999 8.97945 10.0111
      vertex 0.4 8.97945 10.0111
    endloop
  endfacet
  facet normal 0 1 0
    outer loop
      vertex 0.299999 8.97945 10.0111
      vertex 0.4 8.97945 8.51111
      vertex -0.299999 8.97945 10.0111
    endloop
  endfacet
  facet normal 0 1 0
    outer loop
      vertex -0.4 8.97945 8.51111
      vertex -0.299999 8.97945 10.0111
      vertex 0.4 8.97945 8.51111
    endloop
  endfacet
  facet normal 0 1 0
    outer loop
      vertex -0.299999 8.97945 10.0111
      vertex -0.4 8.97945 8.51111
      vertex -0.4 8.97945 10.0111
    endloop
  endfacet
  facet normal 0 1 -0
    outer loop
      vertex 0.299999 8.97945 10.0111
      vertex 0.2 8.97945 11.5111
      vertex 0.299999 8.97945 11.5111
    endloop
  endfacet
  facet normal 0 1 0
    outer loop
      vertex 0.2 8.97945 11.5111
      vertex 0.299999 8.97945 10.0111
      vertex -0.2 8.97945 11.5111
    endloop
  endfacet
  facet normal 0 1 0
    outer loop
      vertex -0.299999 8.97945 10.0111
      vertex -0.2 8.97945 11.5111
      vertex 0.299999 8.97945 10.0111
    endloop
  endfacet
  facet normal 0 1 0
    outer loop
      vertex -0.2 8.97945 11.5111
      vertex -0.299999 8.97945 10.0111
      vertex -0.299999 8.97945 11.5111
    endloop
  endfacet
  facet normal 0 1 -0
    outer loop
      vertex 0.2 8.97945 11.5111
      vertex -0.2 8.97945 13.0111
      vertex 0.2 8.97945 13.0111
    endloop
  endfacet
  facet normal 0 1 0
    outer loop
      vertex -0.2 8.97945 13.0111
      vertex 0.2 8.97945 11.5111
      vertex -0.2 8.97945 11.5111
    endloop
  endfacet
  facet normal 0 -0.788615 0.614887
    outer loop
      vertex -0.2 8.97945 13.0111
      vertex -0.1 8.93719 12.9569
      vertex 0.2 8.97945 13.0111
    endloop
  endfacet
  facet normal 0.000155654 -0.788476 0.615066
    outer loop
      vertex -0.2 0.275276 1.85289
      vertex -0.1 8.93719 12.9569
      vertex -0.2 8.97945 13.0111
    endloop
  endfacet
  facet normal 4.26353e-05 -0.788475 0.615066
    outer loop
      vertex -0.1 8.93719 12.9569
      vertex -0.2 0.275276 1.85289
      vertex -0.1 0.137638 1.67644
    endloop
  endfacet
  facet normal 0 -0.788615 0.614887
    outer loop
      vertex 0.1 8.93719 12.9569
      vertex 0.2 8.97945 13.0111
      vertex -0.1 8.93719 12.9569
    endloop
  endfacet
  facet normal -0.000155654 -0.788476 0.615066
    outer loop
      vertex 0.1 8.93719 12.9569
      vertex 0.2 0.275276 1.85289
      vertex 0.2 8.97945 13.0111
    endloop
  endfacet
  facet normal -3.48736e-05 -0.788475 0.615066
    outer loop
      vertex 0.0999993 0.137637 1.67644
      vertex 0.2 0.275276 1.85289
      vertex 0.1 8.93719 12.9569
    endloop
  endfacet
  facet normal 0 -0.788485 0.615054
    outer loop
      vertex 0.2 0.275276 1.85289
      vertex 0.0999993 0.137637 1.67644
      vertex 0.0999994 0.137637 1.67644
    endloop
  endfacet
  facet normal 1 0 0
    outer loop
      vertex 0.2 0.275276 1.85289
      vertex 0.2 8.97945 11.5111
      vertex 0.2 8.97945 13.0111
    endloop
  endfacet
  facet normal 1 0 0
    outer loop
      vertex 0.2 8.97945 11.5111
      vertex 0.2 0.275276 1.85289
      vertex 0.2 0.275276 1.32223
    endloop
  endfacet
  facet normal -1 0 0
    outer loop
      vertex -0.299999 0.412914 1.48335
      vertex -0.299999 8.97945 10.0111
      vertex -0.299999 0.412914 0.937362
    endloop
  endfacet
  facet normal -1 -0 0
    outer loop
      vertex -0.299999 8.97945 10.0111
      vertex -0.299999 0.412914 1.48335
      vertex -0.299999 8.97945 11.5111
    endloop
  endfacet
  facet normal 0 -0.76033 0.649537
    outer loop
      vertex -0.299999 0.412914 1.48335
      vertex -0.2 8.97945 11.5111
      vertex -0.299999 8.97945 11.5111
    endloop
  endfacet
  facet normal 3.0466e-05 -0.76033 0.649537
    outer loop
      vertex -0.2 8.97945 11.5111
      vertex -0.299999 0.412914 1.48335
      vertex -0.2 0.275276 1.32223
    endloop
  endfacet
  facet normal 0 -0.76033 0.649537
    outer loop
      vertex 0.2 8.97945 11.5111
      vertex 0.299999 0.412914 1.48335
      vertex 0.299999 8.97945 11.5111
    endloop
  endfacet
  facet normal -3.0466e-05 -0.76033 0.649537
    outer loop
      vertex 0.299999 0.412914 1.48335
      vertex 0.2 8.97945 11.5111
      vertex 0.2 0.275276 1.32223
    endloop
  endfacet
  facet normal 1 0 0
    outer loop
      vertex 0.299999 0.412914 1.48335
      vertex 0.299999 8.97945 10.0111
      vertex 0.299999 8.97945 11.5111
    endloop
  endfacet
  facet normal 1 0 0
    outer loop
      vertex 0.299999 8.97945 10.0111
      vertex 0.299999 0.412914 1.48335
      vertex 0.299999 0.412914 0.937362
    endloop
  endfacet
  facet normal -1 0 0
    outer loop
      vertex -0.4 0.550552 1.08315
      vertex -0.4 8.97945 8.51111
      vertex -0.4 0.550552 0.521837
    endloop
  endfacet
  facet normal -1 -0 0
    outer loop
      vertex -0.4 8.97945 8.51111
      vertex -0.4 0.550552 1.08315
      vertex -0.4 8.97945 10.0111
    endloop
  endfacet
  facet normal 0 -0.727137 0.686492
    outer loop
      vertex -0.4 0.550552 1.08315
      vertex -0.299999 8.97945 10.0111
      vertex -0.4 8.97945 10.0111
    endloop
  endfacet
  facet normal 5.60912e-06 -0.727137 0.686492
    outer loop
      vertex -0.299999 8.97945 10.0111
      vertex -0.4 0.550552 1.08315
      vertex -0.299999 0.412914 0.937362
    endloop
  endfacet
  facet normal 0 -0.727137 0.686492
    outer loop
      vertex 0.299999 8.97945 10.0111
      vertex 0.4 0.550552 1.08315
      vertex 0.4 8.97945 10.0111
    endloop
  endfacet
  facet normal -5.60912e-06 -0.727137 0.686492
    outer loop
      vertex 0.4 0.550552 1.08315
      vertex 0.299999 8.97945 10.0111
      vertex 0.299999 0.412914 0.937362
    endloop
  endfacet
  facet normal 1 0 0
    outer loop
      vertex 0.4 0.550552 1.08315
      vertex 0.4 8.97945 8.51111
      vertex 0.4 8.97945 10.0111
    endloop
  endfacet
  facet normal 1 0 0
    outer loop
      vertex 0.4 8.97945 8.51111
      vertex 0.4 0.550552 1.08315
      vertex 0.4 0.550552 0.521837
    endloop
  endfacet
  facet normal -1 0 0
    outer loop
      vertex -0.5 0.688191 0.652297
      vertex -0.5 8.97945 7.01111
      vertex -0.5 0.688191 0.0756565
    endloop
  endfacet
  facet normal -1 -0 0
    outer loop
      vertex -0.5 8.97945 7.01111
      vertex -0.5 0.688191 0.652297
      vertex -0.5 8.97945 8.51111
    endloop
  endfacet
  facet normal 0 -0.687926 0.725781
    outer loop
      vertex -0.5 0.688191 0.652297
      vertex -0.4 8.97945 8.51111
      vertex -0.5 8.97945 8.51111
    endloop
  endfacet
  facet normal -1.3031e-06 -0.687926 0.725781
    outer loop
      vertex -0.4 8.97945 8.51111
      vertex -0.5 0.688191 0.652297
      vertex -0.4 0.550552 0.521837
    endloop
  endfacet
  facet normal 0 -0.687926 0.725781
    outer loop
      vertex 0.4 8.97945 8.51111
      vertex 0.5 0.688191 0.652297
      vertex 0.5 8.97945 8.51111
    endloop
  endfacet
  facet normal 1.3031e-06 -0.687926 0.725781
    outer loop
      vertex 0.5 0.688191 0.652297
      vertex 0.4 8.97945 8.51111
      vertex 0.4 0.550552 0.521837
    endloop
  endfacet
  facet normal 1 0 0
    outer loop
      vertex 0.5 0.688191 0.652297
      vertex 0.5 8.97945 7.01111
      vertex 0.5 8.97945 8.51111
    endloop
  endfacet
  facet normal 1 0 0
    outer loop
      vertex 0.5 8.97945 7.01111
      vertex 0.5 0.688191 0.652297
      vertex 0.5 0.688191 0.0756565
    endloop
  endfacet
  facet normal -1 0 0
    outer loop
      vertex -0.599999 0.825828 0.190787
      vertex -0.599999 8.97945 0
      vertex -0.599999 0.825828 0
    endloop
  endfacet
  facet normal -1 0 0
    outer loop
      vertex -0.599999 8.97945 0
      vertex -0.599999 0.825828 0.190787
      vertex -0.599999 8.97945 7.01111
    endloop
  endfacet
  facet normal 0 -0.641607 0.767034
    outer loop
      vertex -0.599999 0.825828 0.190787
      vertex -0.5 8.97945 7.01111
      vertex -0.599999 8.97945 7.01111
    endloop
  endfacet
  facet normal 1.64757e-06 -0.641607 0.767034
    outer loop
      vertex -0.5 8.97945 7.01111
      vertex -0.599999 0.825828 0.190787
      vertex -0.5 0.688191 0.0756565
    endloop
  endfacet
  facet normal 0 -0.641607 0.767034
    outer loop
      vertex 0.5 8.97945 7.01111
      vertex 0.599999 0.825828 0.190787
      vertex 0.599999 8.97945 7.01111
    endloop
  endfacet
  facet normal -1.64757e-06 -0.641607 0.767034
    outer loop
      vertex 0.599999 0.825828 0.190787
      vertex 0.5 8.97945 7.01111
      vertex 0.5 0.688191 0.0756565
    endloop
  endfacet
  facet normal 1 -0 0
    outer loop
      vertex 0.599999 0.825828 0.190787
      vertex 0.599999 8.97945 0
      vertex 0.599999 8.97945 7.01111
    endloop
  endfacet
  facet normal 1 0 0
    outer loop
      vertex 0.599999 8.97945 0
      vertex 0.599999 0.825828 0.190787
      vertex 0.599999 0.825828 0
    endloop
  endfacet
  facet normal -0.309017 -0.951056 0
    outer loop
      vertex -8.60176 2.58459 11.5111
      vertex -0.323606 -0.105146 1.85289
      vertex -8.60176 2.58459 13.0111
    endloop
  endfacet
  facet normal -0.309017 -0.951056 -0
    outer loop
      vertex -0.323606 -0.105146 1.85289
      vertex -8.60176 2.58459 11.5111
      vertex -0.323606 -0.105146 1.32223
    endloop
  endfacet
  facet normal -0.951056 0.309018 0
    outer loop
      vertex -8.35455 3.34543 0
      vertex -8.38545 3.25033 7.01111
      vertex -8.35455 3.34543 7.01111
    endloop
  endfacet
  facet normal -0.951066 0.308989 0
    outer loop
      vertex -8.38545 3.25033 7.01111
      vertex -8.41635 3.15522 8.51111
      vertex -8.38545 3.25033 8.51111
    endloop
  endfacet
  facet normal -0.951056 0.309019 6.84625e-09
    outer loop
      vertex -8.69447 2.29927 7.01111
      vertex -8.38545 3.25033 7.01111
      vertex -8.35455 3.34543 0
    endloop
  endfacet
  facet normal -0.951027 0.309109 0
    outer loop
      vertex -8.41635 3.15522 8.51111
      vertex -8.44726 3.06012 10.0111
      vertex -8.41635 3.15522 10.0111
    endloop
  endfacet
  facet normal -0.951056 0.309019 2.09212e-06
    outer loop
      vertex -8.38545 3.25033 7.01111
      vertex -8.69447 2.29927 7.01111
      vertex -8.41635 3.15522 8.51111
    endloop
  endfacet
  facet normal -0.951066 0.308989 0
    outer loop
      vertex -8.44726 3.06012 10.0111
      vertex -8.47816 2.96501 11.5111
      vertex -8.44726 3.06012 11.5111
    endloop
  endfacet
  facet normal -0.951054 0.309026 -2.61518e-06
    outer loop
      vertex -8.66357 2.39438 8.51111
      vertex -8.41635 3.15522 8.51111
      vertex -8.69447 2.29927 7.01111
    endloop
  endfacet
  facet normal -0.951061 0.309004 0
    outer loop
      vertex -8.47816 2.96501 11.5111
      vertex -8.60176 2.58459 11.5111
      vertex -8.47816 2.96501 13.0111
    endloop
  endfacet
  facet normal -0.951056 0.309019 -2.0868e-06
    outer loop
      vertex -8.63267 2.48949 10.0111
      vertex -8.44726 3.06012 10.0111
      vertex -8.66357 2.39438 8.51111
    endloop
  endfacet
  facet normal -0.951061 0.309004 7.37042e-06
    outer loop
      vertex -8.47816 2.96501 11.5111
      vertex -8.63267 2.48949 10.0111
      vertex -8.60176 2.58459 11.5111
    endloop
  endfacet
  facet normal -0.951056 0.309019 2.08679e-06
    outer loop
      vertex -8.44726 3.06012 10.0111
      vertex -8.63267 2.48949 10.0111
      vertex -8.47816 2.96501 11.5111
    endloop
  endfacet
  facet normal -0.951054 0.309026 -5.78539e-06
    outer loop
      vertex -8.41635 3.15522 8.51111
      vertex -8.66357 2.39438 8.51111
      vertex -8.44726 3.06012 10.0111
    endloop
  endfacet
  facet normal -0.951056 0.309019 -5.70527e-09
    outer loop
      vertex -8.72537 2.20417 0
      vertex -8.69447 2.29927 7.01111
      vertex -8.35455 3.34543 0
    endloop
  endfacet
  facet normal -0.951056 0.309018 0
    outer loop
      vertex -8.69447 2.29927 7.01111
      vertex -8.72537 2.20417 0
      vertex -8.72537 2.20417 7.01111
    endloop
  endfacet
  facet normal -0.951061 0.309004 0
    outer loop
      vertex -8.47816 2.96501 13.0111
      vertex -8.60176 2.58459 11.5111
      vertex -8.60176 2.58459 13.0111
    endloop
  endfacet
  facet normal -0.951027 0.309109 0
    outer loop
      vertex -8.60176 2.58459 11.5111
      vertex -8.63267 2.48949 10.0111
      vertex -8.63267 2.48949 11.5111
    endloop
  endfacet
  facet normal -0.951066 0.308989 0
    outer loop
      vertex -8.63267 2.48949 10.0111
      vertex -8.66357 2.39438 8.51111
      vertex -8.66357 2.39438 10.0111
    endloop
  endfacet
  facet normal -0.951066 0.308989 0
    outer loop
      vertex -8.66357 2.39438 8.51111
      vertex -8.69447 2.29927 7.01111
      vertex -8.69447 2.29927 8.51111
    endloop
  endfacet
  facet normal 0.75004 -0.243691 0.614862
    outer loop
      vertex -8.60176 2.58459 13.0111
      vertex -8.46887 2.85685 12.9569
      vertex -8.47816 2.96501 13.0111
    endloop
  endfacet
  facet normal 0.75004 -0.243691 0.614862
    outer loop
      vertex -8.46887 2.85685 12.9569
      vertex -8.60176 2.58459 13.0111
      vertex -8.53067 2.66664 12.9569
    endloop
  endfacet
  facet normal 0.749944 -0.243473 0.615065
    outer loop
      vertex -0.323606 -0.105146 1.85289
      vertex -8.53067 2.66664 12.9569
      vertex -8.60176 2.58459 13.0111
    endloop
  endfacet
  facet normal 0.7499 -0.243604 0.615066
    outer loop
      vertex -8.53067 2.66664 12.9569
      vertex -0.323606 -0.105146 1.85289
      vertex -0.161804 -0.0525732 1.67644
    endloop
  endfacet
  facet normal 0.749834 -0.243811 0.615066
    outer loop
      vertex -8.46887 2.85685 12.9569
      vertex -0.2 0.275276 1.85289
      vertex -8.47816 2.96501 13.0111
    endloop
  endfacet
  facet normal 0.749873 -0.243689 0.615066
    outer loop
      vertex -0.1 0.137637 1.67644
      vertex -0.2 0.275276 1.85289
      vertex -8.46887 2.85685 12.9569
    endloop
  endfacet
  facet normal 0.869998 0 0.493056
    outer loop
      vertex -0.2 0.275276 1.85289
      vertex -0.1 0.137637 1.67644
      vertex -0.1 0.137638 1.67644
    endloop
  endfacet
  facet normal 0.309017 0.951057 0
    outer loop
      vertex -0.2 0.275276 1.85289
      vertex -8.47816 2.96501 11.5111
      vertex -8.47816 2.96501 13.0111
    endloop
  endfacet
  facet normal 0.309017 0.951057 0
    outer loop
      vertex -8.47816 2.96501 11.5111
      vertex -0.2 0.275276 1.85289
      vertex -0.2 0.275276 1.32223
    endloop
  endfacet
  facet normal -0.309017 -0.951056 0
    outer loop
      vertex -8.63267 2.48949 10.0111
      vertex -0.485409 -0.157719 1.48335
      vertex -8.63267 2.48949 11.5111
    endloop
  endfacet
  facet normal -0.309017 -0.951056 -0
    outer loop
      vertex -0.485409 -0.157719 1.48335
      vertex -8.63267 2.48949 10.0111
      vertex -0.485409 -0.157719 0.937362
    endloop
  endfacet
  facet normal 0.723094 -0.235025 0.649537
    outer loop
      vertex -0.485409 -0.157719 1.48335
      vertex -8.60176 2.58459 11.5111
      vertex -8.63267 2.48949 11.5111
    endloop
  endfacet
  facet normal 0.723127 -0.234926 0.649536
    outer loop
      vertex -8.60176 2.58459 11.5111
      vertex -0.485409 -0.157719 1.48335
      vertex -0.323606 -0.105146 1.32223
    endloop
  endfacet
  facet normal 0.723124 -0.234933 0.649537
    outer loop
      vertex -8.47816 2.96501 11.5111
      vertex -0.299999 0.412914 1.48335
      vertex -8.44726 3.06012 11.5111
    endloop
  endfacet
  facet normal 0.723106 -0.23499 0.649537
    outer loop
      vertex -0.299999 0.412914 1.48335
      vertex -8.47816 2.96501 11.5111
      vertex -0.2 0.275276 1.32223
    endloop
  endfacet
  facet normal 0.309017 0.951057 0
    outer loop
      vertex -0.299999 0.412914 1.48335
      vertex -8.44726 3.06012 10.0111
      vertex -8.44726 3.06012 11.5111
    endloop
  endfacet
  facet normal 0.309017 0.951057 0
    outer loop
      vertex -8.44726 3.06012 10.0111
      vertex -0.299999 0.412914 1.48335
      vertex -0.299999 0.412914 0.937362
    endloop
  endfacet
  facet normal -0.309017 -0.951057 0
    outer loop
      vertex -8.66357 2.39438 8.51111
      vertex -0.647213 -0.210292 1.08315
      vertex -8.66357 2.39438 10.0111
    endloop
  endfacet
  facet normal -0.309017 -0.951057 -0
    outer loop
      vertex -0.647213 -0.210292 1.08315
      vertex -8.66357 2.39438 8.51111
      vertex -0.647213 -0.210292 0.521837
    endloop
  endfacet
  facet normal 0.691555 -0.224677 0.686492
    outer loop
      vertex -0.647213 -0.210292 1.08315
      vertex -8.63267 2.48949 10.0111
      vertex -8.66357 2.39438 10.0111
    endloop
  endfacet
  facet normal 0.691549 -0.224698 0.686492
    outer loop
      vertex -8.63267 2.48949 10.0111
      vertex -0.647213 -0.210292 1.08315
      vertex -0.485409 -0.157719 0.937362
    endloop
  endfacet
  facet normal 0.691527 -0.224765 0.686492
    outer loop
      vertex -8.44726 3.06012 10.0111
      vertex -0.4 0.550552 1.08315
      vertex -8.41635 3.15522 10.0111
    endloop
  endfacet
  facet normal 0.691549 -0.224696 0.686492
    outer loop
      vertex -0.4 0.550552 1.08315
      vertex -8.44726 3.06012 10.0111
      vertex -0.299999 0.412914 0.937362
    endloop
  endfacet
  facet normal 0.309017 0.951057 0
    outer loop
      vertex -0.4 0.550552 1.08315
      vertex -8.41635 3.15522 8.51111
      vertex -8.41635 3.15522 10.0111
    endloop
  endfacet
  facet normal 0.309017 0.951057 0
    outer loop
      vertex -8.41635 3.15522 8.51111
      vertex -0.4 0.550552 1.08315
      vertex -0.4 0.550552 0.521837
    endloop
  endfacet
  facet normal -0.309017 -0.951057 0
    outer loop
      vertex -8.69447 2.29927 7.01111
      vertex -0.809017 -0.262866 0.652297
      vertex -8.69447 2.29927 8.51111
    endloop
  endfacet
  facet normal -0.309017 -0.951057 -0
    outer loop
      vertex -0.809017 -0.262866 0.652297
      vertex -8.69447 2.29927 7.01111
      vertex -0.809017 -0.262866 0.0756565
    endloop
  endfacet
  facet normal 0.654257 -0.212579 0.725781
    outer loop
      vertex -8.66357 2.39438 8.51111
      vertex -0.809017 -0.262866 0.652297
      vertex -0.647213 -0.210292 0.521837
    endloop
  endfacet
  facet normal 0.654263 -0.212562 0.72578
    outer loop
      vertex -0.809017 -0.262866 0.652297
      vertex -8.66357 2.39438 8.51111
      vertex -8.69447 2.29927 8.51111
    endloop
  endfacet
  facet normal 0.654263 -0.212562 0.72578
    outer loop
      vertex -8.41635 3.15522 8.51111
      vertex -0.5 0.688191 0.652297
      vertex -8.38545 3.25033 8.51111
    endloop
  endfacet
  facet normal 0.654257 -0.212582 0.72578
    outer loop
      vertex -0.5 0.688191 0.652297
      vertex -8.41635 3.15522 8.51111
      vertex -0.4 0.550552 0.521837
    endloop
  endfacet
  facet normal 0.309017 0.951056 0
    outer loop
      vertex -0.5 0.688191 0.652297
      vertex -8.38545 3.25033 7.01111
      vertex -8.38545 3.25033 8.51111
    endloop
  endfacet
  facet normal 0.309017 0.951056 0
    outer loop
      vertex -8.38545 3.25033 7.01111
      vertex -0.5 0.688191 0.652297
      vertex -0.5 0.688191 0.0756565
    endloop
  endfacet
  facet normal -0.309017 -0.951056 0
    outer loop
      vertex -8.72537 2.20417 0
      vertex -0.970819 -0.315438 0.190787
      vertex -8.72537 2.20417 7.01111
    endloop
  endfacet
  facet normal -0.309017 -0.951056 -0
    outer loop
      vertex -0.970819 -0.315438 0.190787
      vertex -8.72537 2.20417 0
      vertex -0.970819 -0.315438 0
    endloop
  endfacet
  facet normal 0.610204 -0.198268 0.767034
    outer loop
      vertex -8.69447 2.29927 7.01111
      vertex -0.970819 -0.315438 0.190787
      vertex -0.809017 -0.262866 0.0756565
    endloop
  endfacet
  facet normal 0.610204 -0.198268 0.767034
    outer loop
      vertex -0.970819 -0.315438 0.190787
      vertex -8.69447 2.29927 7.01111
      vertex -8.72537 2.20417 7.01111
    endloop
  endfacet
  facet normal 0.610204 -0.198268 0.767034
    outer loop
      vertex -8.38545 3.25033 7.01111
      vertex -0.599999 0.825828 0.190787
      vertex -8.35455 3.34543 7.01111
    endloop
  endfacet
  facet normal 0.610204 -0.198269 0.767034
    outer loop
      vertex -0.599999 0.825828 0.190787
      vertex -8.38545 3.25033 7.01111
      vertex -0.5 0.688191 0.0756565
    endloop
  endfacet
  facet normal 0.309017 0.951057 0
    outer loop
      vertex -8.35455 3.34543 0
      vertex -0.599999 0.825828 0.190787
      vertex -0.599999 0.825828 0
    endloop
  endfacet
  facet normal 0.309017 0.951057 0
    outer loop
      vertex -0.599999 0.825828 0.190787
      vertex -8.35455 3.34543 0
      vertex -8.35455 3.34543 7.01111
    endloop
  endfacet
  facet normal 0.809017 -0.587785 0
    outer loop
      vertex -5.11618 -7.38208 11.5111
      vertex 2.58157e-19 -0.34026 1.85289
      vertex -5.11618 -7.38208 13.0111
    endloop
  endfacet
  facet normal 0.809017 -0.587785 -4.0542e-17
    outer loop
      vertex 2.58157e-19 -0.34026 1.85289
      vertex -5.11618 -7.38208 11.5111
      vertex -2.63346e-17 -0.34026 1.32223
    endloop
  endfacet
  facet normal 0 -1 -0
    outer loop
      vertex 2.58157e-19 -0.34026 1.85289
      vertex -2.63346e-17 -0.34026 1.32223
      vertex 2.58157e-19 -0.34026 1.32223
    endloop
  endfacet
  facet normal -0.587755 -0.809039 0
    outer loop
      vertex -5.7634 -6.91185 0
      vertex -5.68249 -6.97063 7.01111
      vertex -5.7634 -6.91185 7.01111
    endloop
  endfacet
  facet normal -0.587792 -0.809012 6.39145e-07
    outer loop
      vertex -5.68249 -6.97063 7.01111
      vertex -5.7634 -6.91185 0
      vertex -4.87348 -7.55842 7.01111
    endloop
  endfacet
  facet normal -0.58779 -0.809014 2.35887e-07
    outer loop
      vertex -4.79258 -7.6172 0
      vertex -4.87348 -7.55842 7.01111
      vertex -5.7634 -6.91185 0
    endloop
  endfacet
  facet normal -0.587803 -0.809004 0
    outer loop
      vertex -4.87348 -7.55842 7.01111
      vertex -4.79258 -7.6172 0
      vertex -4.79258 -7.6172 7.01111
    endloop
  endfacet
  facet normal -0.587803 -0.809004 0
    outer loop
      vertex -5.68249 -6.97063 7.01111
      vertex -5.60159 -7.02941 8.51111
      vertex -5.68249 -6.97063 8.51111
    endloop
  endfacet
  facet normal -0.587789 -0.809014 -1.164e-06
    outer loop
      vertex -5.60159 -7.02941 8.51111
      vertex -5.68249 -6.97063 7.01111
      vertex -4.95438 -7.49964 8.51111
    endloop
  endfacet
  facet normal -0.587792 -0.809012 9.31203e-07
    outer loop
      vertex -4.87348 -7.55842 7.01111
      vertex -4.95438 -7.49964 8.51111
      vertex -5.68249 -6.97063 7.01111
    endloop
  endfacet
  facet normal -0.587803 -0.809004 0
    outer loop
      vertex -4.95438 -7.49964 8.51111
      vertex -4.87348 -7.55842 7.01111
      vertex -4.87348 -7.55842 8.51111
    endloop
  endfacet
  facet normal -0.587803 -0.809004 0
    outer loop
      vertex -5.60159 -7.02941 8.51111
      vertex -5.52069 -7.08819 10.0111
      vertex -5.60159 -7.02941 10.0111
    endloop
  endfacet
  facet normal -0.587784 -0.809018 -1.55201e-06
    outer loop
      vertex -5.52069 -7.08819 10.0111
      vertex -5.60159 -7.02941 8.51111
      vertex -5.03528 -7.44086 10.0111
    endloop
  endfacet
  facet normal -0.587789 -0.809014 1.16401e-06
    outer loop
      vertex -4.95438 -7.49964 8.51111
      vertex -5.03528 -7.44086 10.0111
      vertex -5.60159 -7.02941 8.51111
    endloop
  endfacet
  facet normal -0.587803 -0.809004 0
    outer loop
      vertex -5.03528 -7.44086 10.0111
      vertex -4.95438 -7.49964 8.51111
      vertex -4.95438 -7.49964 10.0111
    endloop
  endfacet
  facet normal -0.587803 -0.809004 0
    outer loop
      vertex -5.52069 -7.08819 10.0111
      vertex -5.43979 -7.14697 11.5111
      vertex -5.52069 -7.08819 11.5111
    endloop
  endfacet
  facet normal -0.587775 -0.809025 -2.328e-06
    outer loop
      vertex -5.43979 -7.14697 11.5111
      vertex -5.52069 -7.08819 10.0111
      vertex -5.11618 -7.38208 11.5111
    endloop
  endfacet
  facet normal -0.587784 -0.809018 1.552e-06
    outer loop
      vertex -5.03528 -7.44086 10.0111
      vertex -5.11618 -7.38208 11.5111
      vertex -5.52069 -7.08819 10.0111
    endloop
  endfacet
  facet normal -0.587803 -0.809004 0
    outer loop
      vertex -5.11618 -7.38208 11.5111
      vertex -5.03528 -7.44086 10.0111
      vertex -5.03528 -7.44086 11.5111
    endloop
  endfacet
  facet normal -0.587775 -0.809025 0
    outer loop
      vertex -5.43979 -7.14697 11.5111
      vertex -5.11618 -7.38208 13.0111
      vertex -5.43979 -7.14697 13.0111
    endloop
  endfacet
  facet normal -0.587775 -0.809025 -0
    outer loop
      vertex -5.11618 -7.38208 13.0111
      vertex -5.43979 -7.14697 11.5111
      vertex -5.11618 -7.38208 11.5111
    endloop
  endfacet
  facet normal 0.463473 0.63798 0.614958
    outer loop
      vertex -5.33405 -7.17156 12.9569
      vertex -5.11618 -7.38208 13.0111
      vertex -5.17224 -7.28911 12.9569
    endloop
  endfacet
  facet normal -0 0.845676 0.533697
    outer loop
      vertex -2.63346e-17 -0.34026 1.85289
      vertex -5.11618 -7.38208 13.0111
      vertex 2.58157e-19 -0.34026 1.85289
    endloop
  endfacet
  facet normal 0.463349 0.637968 0.615065
    outer loop
      vertex -5.11618 -7.38208 13.0111
      vertex -2.63346e-17 -0.34026 1.85289
      vertex -5.17224 -7.28911 12.9569
    endloop
  endfacet
  facet normal 0.834972 0.396145 0.381956
    outer loop
      vertex -4.74441e-07 -0.170129 1.67644
      vertex -2.63346e-17 -0.34026 1.85289
      vertex -1.31673e-17 -0.17013 1.67644
    endloop
  endfacet
  facet normal 0.463425 0.637912 0.615066
    outer loop
      vertex -2.63346e-17 -0.34026 1.85289
      vertex -4.74441e-07 -0.170129 1.67644
      vertex -5.17224 -7.28911 12.9569
    endloop
  endfacet
  facet normal 0.463539 0.638024 0.614863
    outer loop
      vertex -5.11618 -7.38208 13.0111
      vertex -5.33405 -7.17156 12.9569
      vertex -5.43979 -7.14697 13.0111
    endloop
  endfacet
  facet normal 0.463589 0.637793 0.615066
    outer loop
      vertex -5.33405 -7.17156 12.9569
      vertex -0.323606 -0.105146 1.85289
      vertex -5.43979 -7.14697 13.0111
    endloop
  endfacet
  facet normal 0.463494 0.637861 0.615066
    outer loop
      vertex -0.323606 -0.105146 1.85289
      vertex -5.33405 -7.17156 12.9569
      vertex -0.161804 -0.0525732 1.67644
    endloop
  endfacet
  facet normal -0.809017 0.587785 0
    outer loop
      vertex -5.43979 -7.14697 11.5111
      vertex -0.323606 -0.105146 1.85289
      vertex -0.323606 -0.105146 1.32223
    endloop
  endfacet
  facet normal -0.809017 0.587785 0
    outer loop
      vertex -0.323606 -0.105146 1.85289
      vertex -5.43979 -7.14697 11.5111
      vertex -5.43979 -7.14697 13.0111
    endloop
  endfacet
  facet normal 0.809017 -0.587785 0
    outer loop
      vertex -5.03528 -7.44086 10.0111
      vertex 3.87234e-19 -0.510389 1.48335
      vertex -5.03528 -7.44086 11.5111
    endloop
  endfacet
  facet normal 0.809017 -0.587785 -5.91057e-17
    outer loop
      vertex 3.87234e-19 -0.510389 1.48335
      vertex -5.03528 -7.44086 10.0111
      vertex -3.95019e-17 -0.510389 0.937362
    endloop
  endfacet
  facet normal 0 -1 0
    outer loop
      vertex -3.95019e-17 -0.510389 0.937362
      vertex 3.87234e-19 -0.510389 0.937362
      vertex 3.87234e-19 -0.510389 1.48335
    endloop
  endfacet
  facet normal 0.446882 0.615141 0.649537
    outer loop
      vertex -5.11618 -7.38208 11.5111
      vertex -3.95019e-17 -0.510389 1.48335
      vertex -2.63346e-17 -0.34026 1.32223
    endloop
  endfacet
  facet normal 0.446924 0.61511 0.649537
    outer loop
      vertex -3.95019e-17 -0.510389 1.48335
      vertex -5.11618 -7.38208 11.5111
      vertex -5.03528 -7.44086 11.5111
    endloop
  endfacet
  facet normal 0 0.822646 0.568554
    outer loop
      vertex 3.87234e-19 -0.510389 1.48335
      vertex -3.95019e-17 -0.510389 1.48335
      vertex -5.03528 -7.44086 11.5111
    endloop
  endfacet
  facet normal 0.446936 0.615102 0.649537
    outer loop
      vertex -0.485409 -0.157719 1.48335
      vertex -5.43979 -7.14697 11.5111
      vertex -0.323606 -0.105146 1.32223
    endloop
  endfacet
  facet normal 0.446924 0.61511 0.649537
    outer loop
      vertex -5.43979 -7.14697 11.5111
      vertex -0.485409 -0.157719 1.48335
      vertex -5.52069 -7.08819 11.5111
    endloop
  endfacet
  facet normal -0.809017 0.587785 0
    outer loop
      vertex -5.52069 -7.08819 10.0111
      vertex -0.485409 -0.157719 1.48335
      vertex -0.485409 -0.157719 0.937362
    endloop
  endfacet
  facet normal -0.809017 0.587785 0
    outer loop
      vertex -0.485409 -0.157719 1.48335
      vertex -5.52069 -7.08819 10.0111
      vertex -5.52069 -7.08819 11.5111
    endloop
  endfacet
  facet normal 0.809017 -0.587785 0
    outer loop
      vertex -4.95438 -7.49964 8.51111
      vertex 5.16313e-19 -0.68052 1.08315
      vertex -4.95438 -7.49964 10.0111
    endloop
  endfacet
  facet normal 0.809017 -0.587785 -7.6656e-17
    outer loop
      vertex 5.16313e-19 -0.68052 1.08315
      vertex -4.95438 -7.49964 8.51111
      vertex -5.26692e-17 -0.68052 0.521837
    endloop
  endfacet
  facet normal 0 -1 -0
    outer loop
      vertex 5.16313e-19 -0.68052 1.08315
      vertex -5.26692e-17 -0.68052 0.521837
      vertex 5.16313e-19 -0.68052 0.521837
    endloop
  endfacet
  facet normal 0.427402 0.588266 0.686492
    outer loop
      vertex -5.03528 -7.44086 10.0111
      vertex -5.26692e-17 -0.68052 1.08315
      vertex -3.95019e-17 -0.510389 0.937362
    endloop
  endfacet
  facet normal 0.427414 0.588257 0.686492
    outer loop
      vertex -5.26692e-17 -0.68052 1.08315
      vertex -5.03528 -7.44086 10.0111
      vertex -4.95438 -7.49964 10.0111
    endloop
  endfacet
  facet normal 0 0.794707 0.606993
    outer loop
      vertex 5.16313e-19 -0.68052 1.08315
      vertex -5.26692e-17 -0.68052 1.08315
      vertex -4.95438 -7.49964 10.0111
    endloop
  endfacet
  facet normal 0.427402 0.588265 0.686492
    outer loop
      vertex -0.647213 -0.210292 1.08315
      vertex -5.52069 -7.08819 10.0111
      vertex -0.485409 -0.157719 0.937362
    endloop
  endfacet
  facet normal 0.427414 0.588257 0.686492
    outer loop
      vertex -5.52069 -7.08819 10.0111
      vertex -0.647213 -0.210292 1.08315
      vertex -5.60159 -7.02941 10.0111
    endloop
  endfacet
  facet normal -0.809017 0.587785 0
    outer loop
      vertex -5.60159 -7.02941 8.51111
      vertex -0.647213 -0.210292 1.08315
      vertex -0.647213 -0.210292 0.521837
    endloop
  endfacet
  facet normal -0.809017 0.587785 0
    outer loop
      vertex -0.647213 -0.210292 1.08315
      vertex -5.60159 -7.02941 8.51111
      vertex -5.60159 -7.02941 10.0111
    endloop
  endfacet
  facet normal 0.809017 -0.587785 0
    outer loop
      vertex -4.87348 -7.55842 7.01111
      vertex 6.45392e-19 -0.850651 0.652297
      vertex -4.87348 -7.55842 8.51111
    endloop
  endfacet
  facet normal 0.809017 -0.587785 -9.32731e-17
    outer loop
      vertex 6.45392e-19 -0.850651 0.652297
      vertex -4.87348 -7.55842 7.01111
      vertex -6.58366e-17 -0.850651 0.0756565
    endloop
  endfacet
  facet normal 0 -1 0
    outer loop
      vertex -6.58366e-17 -0.850651 0.0756565
      vertex 6.45392e-19 -0.850651 0.0756565
      vertex 6.45392e-19 -0.850651 0.652297
    endloop
  endfacet
  facet normal 0.404353 0.556544 0.725781
    outer loop
      vertex -4.95438 -7.49964 8.51111
      vertex -6.58366e-17 -0.850651 0.652297
      vertex -5.26692e-17 -0.68052 0.521837
    endloop
  endfacet
  facet normal 0.404365 0.556535 0.725781
    outer loop
      vertex -6.58366e-17 -0.850651 0.652297
      vertex -4.95438 -7.49964 8.51111
      vertex -4.87348 -7.55842 8.51111
    endloop
  endfacet
  facet normal 0 0.760611 0.649208
    outer loop
      vertex 6.45392e-19 -0.850651 0.652297
      vertex -6.58366e-17 -0.850651 0.652297
      vertex -4.87348 -7.55842 8.51111
    endloop
  endfacet
  facet normal 0.40435 0.556546 0.72578
    outer loop
      vertex -0.809017 -0.262866 0.652297
      vertex -5.60159 -7.02941 8.51111
      vertex -0.647213 -0.210292 0.521837
    endloop
  endfacet
  facet normal 0.404365 0.556535 0.72578
    outer loop
      vertex -5.60159 -7.02941 8.51111
      vertex -0.809017 -0.262866 0.652297
      vertex -5.68249 -6.97063 8.51111
    endloop
  endfacet
  facet normal -0.809017 0.587785 0
    outer loop
      vertex -5.68249 -6.97063 7.01111
      vertex -0.809017 -0.262866 0.652297
      vertex -0.809017 -0.262866 0.0756565
    endloop
  endfacet
  facet normal -0.809017 0.587785 0
    outer loop
      vertex -0.809017 -0.262866 0.652297
      vertex -5.68249 -6.97063 7.01111
      vertex -5.68249 -6.97063 8.51111
    endloop
  endfacet
  facet normal 0.809017 -0.587785 0
    outer loop
      vertex -4.79258 -7.6172 0
      vertex 7.7447e-19 -1.02078 0.190787
      vertex -4.79258 -7.6172 7.01111
    endloop
  endfacet
  facet normal 0.809017 -0.587785 0
    outer loop
      vertex 7.7447e-19 -1.02078 0.190787
      vertex -4.79258 -7.6172 0
      vertex 7.7447e-19 -1.02078 0
    endloop
  endfacet
  facet normal 0.377127 0.519071 0.767034
    outer loop
      vertex -4.87348 -7.55842 7.01111
      vertex -7.90038e-17 -1.02078 0.190787
      vertex -6.58366e-17 -0.850651 0.0756565
    endloop
  endfacet
  facet normal 0.377138 0.519062 0.767034
    outer loop
      vertex -7.90038e-17 -1.02078 0.190787
      vertex -4.87348 -7.55842 7.01111
      vertex -4.79258 -7.6172 7.01111
    endloop
  endfacet
  facet normal 0 0.718807 0.69521
    outer loop
      vertex 7.7447e-19 -1.02078 0.190787
      vertex -7.90038e-17 -1.02078 0.190787
      vertex -4.79258 -7.6172 7.01111
    endloop
  endfacet
  facet normal 0.377131 0.519069 0.767033
    outer loop
      vertex -0.970819 -0.315438 0.190787
      vertex -5.68249 -6.97063 7.01111
      vertex -0.809017 -0.262866 0.0756565
    endloop
  endfacet
  facet normal 0.377108 0.519085 0.767034
    outer loop
      vertex -5.68249 -6.97063 7.01111
      vertex -0.970819 -0.315438 0.190787
      vertex -5.7634 -6.91185 7.01111
    endloop
  endfacet
  facet normal -0.809017 0.587786 0
    outer loop
      vertex -5.7634 -6.91185 0
      vertex -0.970819 -0.315438 0.190787
      vertex -0.970819 -0.315438 0
    endloop
  endfacet
  facet normal -0.809017 0.587786 0
    outer loop
      vertex -0.970819 -0.315438 0.190787
      vertex -5.7634 -6.91185 0
      vertex -5.7634 -6.91185 7.01111
    endloop
  endfacet
  facet normal 0.809017 0.587785 -0
    outer loop
      vertex 5.43979 -7.14697 11.5111
      vertex 0.323606 -0.105146 1.85289
      vertex 5.43979 -7.14697 13.0111
    endloop
  endfacet
  facet normal 0.809017 0.587785 0
    outer loop
      vertex 0.323606 -0.105146 1.85289
      vertex 5.43979 -7.14697 11.5111
      vertex 0.323606 -0.105146 1.32223
    endloop
  endfacet
  facet normal 0.587803 -0.809004 0
    outer loop
      vertex 4.79258 -7.6172 0
      vertex 4.87348 -7.55842 7.01111
      vertex 4.79258 -7.6172 7.01111
    endloop
  endfacet
  facet normal 0.587792 -0.809012 1.99227e-07
    outer loop
      vertex 4.87348 -7.55842 7.01111
      vertex 4.79258 -7.6172 0
      vertex 5.68249 -6.97063 7.01111
    endloop
  endfacet
  facet normal 0.58779 -0.809014 6.02482e-07
    outer loop
      vertex 5.7634 -6.91185 0
      vertex 5.68249 -6.97063 7.01111
      vertex 4.79258 -7.6172 0
    endloop
  endfacet
  facet normal 0.587755 -0.809039 0
    outer loop
      vertex 5.68249 -6.97063 7.01111
      vertex 5.7634 -6.91185 0
      vertex 5.7634 -6.91185 7.01111
    endloop
  endfacet
  facet normal 0.587803 -0.809004 0
    outer loop
      vertex 4.87348 -7.55842 7.01111
      vertex 4.95438 -7.49964 8.51111
      vertex 4.87348 -7.55842 8.51111
    endloop
  endfacet
  facet normal 0.587789 -0.809014 1.164e-06
    outer loop
      vertex 4.95438 -7.49964 8.51111
      vertex 4.87348 -7.55842 7.01111
      vertex 5.60159 -7.02941 8.51111
    endloop
  endfacet
  facet normal 0.587792 -0.809012 -9.31203e-07
    outer loop
      vertex 5.68249 -6.97063 7.01111
      vertex 5.60159 -7.02941 8.51111
      vertex 4.87348 -7.55842 7.01111
    endloop
  endfacet
  facet normal 0.587803 -0.809004 0
    outer loop
      vertex 5.60159 -7.02941 8.51111
      vertex 5.68249 -6.97063 7.01111
      vertex 5.68249 -6.97063 8.51111
    endloop
  endfacet
  facet normal 0.587803 -0.809004 0
    outer loop
      vertex 4.95438 -7.49964 8.51111
      vertex 5.03528 -7.44086 10.0111
      vertex 4.95438 -7.49964 10.0111
    endloop
  endfacet
  facet normal 0.587784 -0.809018 1.55201e-06
    outer loop
      vertex 5.03528 -7.44086 10.0111
      vertex 4.95438 -7.49964 8.51111
      vertex 5.52069 -7.08819 10.0111
    endloop
  endfacet
  facet normal 0.587789 -0.809014 -1.16401e-06
    outer loop
      vertex 5.60159 -7.02941 8.51111
      vertex 5.52069 -7.08819 10.0111
      vertex 4.95438 -7.49964 8.51111
    endloop
  endfacet
  facet normal 0.587803 -0.809004 0
    outer loop
      vertex 5.52069 -7.08819 10.0111
      vertex 5.60159 -7.02941 8.51111
      vertex 5.60159 -7.02941 10.0111
    endloop
  endfacet
  facet normal 0.587803 -0.809004 0
    outer loop
      vertex 5.03528 -7.44086 10.0111
      vertex 5.11618 -7.38208 11.5111
      vertex 5.03528 -7.44086 11.5111
    endloop
  endfacet
  facet normal 0.587775 -0.809025 2.328e-06
    outer loop
      vertex 5.11618 -7.38208 11.5111
      vertex 5.03528 -7.44086 10.0111
      vertex 5.43979 -7.14697 11.5111
    endloop
  endfacet
  facet normal 0.587784 -0.809018 -1.552e-06
    outer loop
      vertex 5.52069 -7.08819 10.0111
      vertex 5.43979 -7.14697 11.5111
      vertex 5.03528 -7.44086 10.0111
    endloop
  endfacet
  facet normal 0.587803 -0.809004 0
    outer loop
      vertex 5.43979 -7.14697 11.5111
      vertex 5.52069 -7.08819 10.0111
      vertex 5.52069 -7.08819 11.5111
    endloop
  endfacet
  facet normal 0.587775 -0.809025 0
    outer loop
      vertex 5.11618 -7.38208 11.5111
      vertex 5.43979 -7.14697 13.0111
      vertex 5.11618 -7.38208 13.0111
    endloop
  endfacet
  facet normal 0.587775 -0.809025 0
    outer loop
      vertex 5.43979 -7.14697 13.0111
      vertex 5.11618 -7.38208 11.5111
      vertex 5.43979 -7.14697 11.5111
    endloop
  endfacet
  facet normal -0.463539 0.638024 0.614863
    outer loop
      vertex 5.43979 -7.14697 13.0111
      vertex 5.33405 -7.17156 12.9569
      vertex 5.11618 -7.38208 13.0111
    endloop
  endfacet
  facet normal -0.463589 0.637793 0.615066
    outer loop
      vertex 0.323606 -0.105146 1.85289
      vertex 5.33405 -7.17156 12.9569
      vertex 5.43979 -7.14697 13.0111
    endloop
  endfacet
  facet normal -0.737033 0 0.675857
    outer loop
      vertex 0.161802 -0.0525729 1.67644
      vertex 0.323606 -0.105146 1.85289
      vertex 0.161802 -0.0525728 1.67644
    endloop
  endfacet
  facet normal -0.463485 0.637867 0.615066
    outer loop
      vertex 0.323606 -0.105146 1.85289
      vertex 0.161802 -0.0525729 1.67644
      vertex 5.33405 -7.17156 12.9569
    endloop
  endfacet
  facet normal -0.463473 0.63798 0.614958
    outer loop
      vertex 5.17224 -7.28911 12.9569
      vertex 5.11618 -7.38208 13.0111
      vertex 5.33405 -7.17156 12.9569
    endloop
  endfacet
  facet normal -0.463349 0.637968 0.615065
    outer loop
      vertex 5.17224 -7.28911 12.9569
      vertex -2.63346e-17 -0.34026 1.85289
      vertex 5.11618 -7.38208 13.0111
    endloop
  endfacet
  facet normal -0.463421 0.637914 0.615066
    outer loop
      vertex -2.63346e-17 -0.34026 1.85289
      vertex 5.17224 -7.28911 12.9569
      vertex -1.31673e-17 -0.17013 1.67644
    endloop
  endfacet
  facet normal -0.809017 -0.587785 0
    outer loop
      vertex 5.11618 -7.38208 11.5111
      vertex -2.63346e-17 -0.34026 1.85289
      vertex 2.58157e-19 -0.34026 1.32223
    endloop
  endfacet
  facet normal -0.809017 -0.587785 0
    outer loop
      vertex -2.63346e-17 -0.34026 1.85289
      vertex 5.11618 -7.38208 11.5111
      vertex 5.11618 -7.38208 13.0111
    endloop
  endfacet
  facet normal 0 1 -0
    outer loop
      vertex 2.58157e-19 -0.34026 1.32223
      vertex -2.63346e-17 -0.34026 1.85289
      vertex 2.58157e-19 -0.34026 1.85289
    endloop
  endfacet
  facet normal 0.809017 0.587785 -0
    outer loop
      vertex 5.52069 -7.08819 10.0111
      vertex 0.485409 -0.157719 1.48335
      vertex 5.52069 -7.08819 11.5111
    endloop
  endfacet
  facet normal 0.809017 0.587785 0
    outer loop
      vertex 0.485409 -0.157719 1.48335
      vertex 5.52069 -7.08819 10.0111
      vertex 0.485409 -0.157719 0.937362
    endloop
  endfacet
  facet normal -0.446924 0.61511 0.649537
    outer loop
      vertex 0.485409 -0.157719 1.48335
      vertex 5.43979 -7.14697 11.5111
      vertex 5.52069 -7.08819 11.5111
    endloop
  endfacet
  facet normal -0.446936 0.615102 0.649537
    outer loop
      vertex 5.43979 -7.14697 11.5111
      vertex 0.485409 -0.157719 1.48335
      vertex 0.323606 -0.105146 1.32223
    endloop
  endfacet
  facet normal -0.446882 0.615141 0.649537
    outer loop
      vertex -3.95019e-17 -0.510389 1.48335
      vertex 5.11618 -7.38208 11.5111
      vertex 2.58157e-19 -0.34026 1.32223
    endloop
  endfacet
  facet normal 0 0.687621 0.72607
    outer loop
      vertex -3.95019e-17 -0.510389 1.48335
      vertex 2.58157e-19 -0.34026 1.32223
      vertex -2.63346e-17 -0.34026 1.32223
    endloop
  endfacet
  facet normal -0.446924 0.61511 0.649537
    outer loop
      vertex 5.11618 -7.38208 11.5111
      vertex -3.95019e-17 -0.510389 1.48335
      vertex 5.03528 -7.44086 11.5111
    endloop
  endfacet
  facet normal -0.809017 -0.587785 0
    outer loop
      vertex 5.03528 -7.44086 10.0111
      vertex -3.95019e-17 -0.510389 1.48335
      vertex 3.87234e-19 -0.510389 0.937362
    endloop
  endfacet
  facet normal -0.809017 -0.587785 0
    outer loop
      vertex -3.95019e-17 -0.510389 1.48335
      vertex 5.03528 -7.44086 10.0111
      vertex 5.03528 -7.44086 11.5111
    endloop
  endfacet
  facet normal -0 1 0
    outer loop
      vertex -3.95019e-17 -0.510389 1.48335
      vertex 3.87234e-19 -0.510389 1.48335
      vertex 3.87234e-19 -0.510389 0.937362
    endloop
  endfacet
  facet normal 0.809017 0.587785 -0
    outer loop
      vertex 5.60159 -7.02941 8.51111
      vertex 0.647213 -0.210292 1.08315
      vertex 5.60159 -7.02941 10.0111
    endloop
  endfacet
  facet normal 0.809017 0.587785 0
    outer loop
      vertex 0.647213 -0.210292 1.08315
      vertex 5.60159 -7.02941 8.51111
      vertex 0.647213 -0.210292 0.521837
    endloop
  endfacet
  facet normal -0.427414 0.588257 0.686492
    outer loop
      vertex 0.647213 -0.210292 1.08315
      vertex 5.52069 -7.08819 10.0111
      vertex 5.60159 -7.02941 10.0111
    endloop
  endfacet
  facet normal -0.427402 0.588265 0.686492
    outer loop
      vertex 5.52069 -7.08819 10.0111
      vertex 0.647213 -0.210292 1.08315
      vertex 0.485409 -0.157719 0.937362
    endloop
  endfacet
  facet normal -0.427402 0.588266 0.686492
    outer loop
      vertex -5.26692e-17 -0.68052 1.08315
      vertex 5.03528 -7.44086 10.0111
      vertex 3.87234e-19 -0.510389 0.937362
    endloop
  endfacet
  facet normal 0 0.650692 0.759342
    outer loop
      vertex -5.26692e-17 -0.68052 1.08315
      vertex 3.87234e-19 -0.510389 0.937362
      vertex -3.95019e-17 -0.510389 0.937362
    endloop
  endfacet
  facet normal -0.427414 0.588257 0.686492
    outer loop
      vertex 5.03528 -7.44086 10.0111
      vertex -5.26692e-17 -0.68052 1.08315
      vertex 4.95438 -7.49964 10.0111
    endloop
  endfacet
  facet normal -0.809017 -0.587785 0
    outer loop
      vertex 4.95438 -7.49964 8.51111
      vertex -5.26692e-17 -0.68052 1.08315
      vertex 5.16313e-19 -0.68052 0.521837
    endloop
  endfacet
  facet normal -0.809017 -0.587785 0
    outer loop
      vertex -5.26692e-17 -0.68052 1.08315
      vertex 4.95438 -7.49964 8.51111
      vertex 4.95438 -7.49964 10.0111
    endloop
  endfacet
  facet normal 0 1 -0
    outer loop
      vertex 5.16313e-19 -0.68052 0.521837
      vertex -5.26692e-17 -0.68052 1.08315
      vertex 5.16313e-19 -0.68052 1.08315
    endloop
  endfacet
  facet normal 0.809017 0.587785 -0
    outer loop
      vertex 5.68249 -6.97063 7.01111
      vertex 0.809017 -0.262866 0.652297
      vertex 5.68249 -6.97063 8.51111
    endloop
  endfacet
  facet normal 0.809017 0.587785 0
    outer loop
      vertex 0.809017 -0.262866 0.652297
      vertex 5.68249 -6.97063 7.01111
      vertex 0.809017 -0.262866 0.0756565
    endloop
  endfacet
  facet normal -0.404365 0.556535 0.72578
    outer loop
      vertex 0.809017 -0.262866 0.652297
      vertex 5.60159 -7.02941 8.51111
      vertex 5.68249 -6.97063 8.51111
    endloop
  endfacet
  facet normal -0.40435 0.556546 0.72578
    outer loop
      vertex 5.60159 -7.02941 8.51111
      vertex 0.809017 -0.262866 0.652297
      vertex 0.647213 -0.210292 0.521837
    endloop
  endfacet
  facet normal -0.404353 0.556544 0.725781
    outer loop
      vertex -6.58366e-17 -0.850651 0.652297
      vertex 4.95438 -7.49964 8.51111
      vertex 5.16313e-19 -0.68052 0.521837
    endloop
  endfacet
  facet normal 0 0.608509 0.793547
    outer loop
      vertex -6.58366e-17 -0.850651 0.652297
      vertex 5.16313e-19 -0.68052 0.521837
      vertex -5.26692e-17 -0.68052 0.521837
    endloop
  endfacet
  facet normal -0.404365 0.556535 0.725781
    outer loop
      vertex 4.95438 -7.49964 8.51111
      vertex -6.58366e-17 -0.850651 0.652297
      vertex 4.87348 -7.55842 8.51111
    endloop
  endfacet
  facet normal -0.809017 -0.587785 0
    outer loop
      vertex 4.87348 -7.55842 7.01111
      vertex -6.58366e-17 -0.850651 0.652297
      vertex 6.45392e-19 -0.850651 0.0756565
    endloop
  endfacet
  facet normal -0.809017 -0.587785 0
    outer loop
      vertex -6.58366e-17 -0.850651 0.652297
      vertex 4.87348 -7.55842 7.01111
      vertex 4.87348 -7.55842 8.51111
    endloop
  endfacet
  facet normal 0 1 -0
    outer loop
      vertex 6.45392e-19 -0.850651 0.0756565
      vertex -6.58366e-17 -0.850651 0.652297
      vertex 6.45392e-19 -0.850651 0.652297
    endloop
  endfacet
  facet normal 0.809017 0.587786 -0
    outer loop
      vertex 5.7634 -6.91185 0
      vertex 0.970819 -0.315438 0.190787
      vertex 5.7634 -6.91185 7.01111
    endloop
  endfacet
  facet normal 0.809017 0.587786 0
    outer loop
      vertex 0.970819 -0.315438 0.190787
      vertex 5.7634 -6.91185 0
      vertex 0.970819 -0.315438 0
    endloop
  endfacet
  facet normal -0.377108 0.519085 0.767034
    outer loop
      vertex 0.970819 -0.315438 0.190787
      vertex 5.68249 -6.97063 7.01111
      vertex 5.7634 -6.91185 7.01111
    endloop
  endfacet
  facet normal -0.377131 0.519069 0.767033
    outer loop
      vertex 5.68249 -6.97063 7.01111
      vertex 0.970819 -0.315438 0.190787
      vertex 0.809017 -0.262866 0.0756565
    endloop
  endfacet
  facet normal -0.377127 0.519071 0.767034
    outer loop
      vertex -7.90038e-17 -1.02078 0.190787
      vertex 4.87348 -7.55842 7.01111
      vertex 6.45392e-19 -0.850651 0.0756565
    endloop
  endfacet
  facet normal 0 0.560454 0.828186
    outer loop
      vertex -7.90038e-17 -1.02078 0.190787
      vertex 6.45392e-19 -0.850651 0.0756565
      vertex -6.58366e-17 -0.850651 0.0756565
    endloop
  endfacet
  facet normal -0.377138 0.519062 0.767034
    outer loop
      vertex 4.87348 -7.55842 7.01111
      vertex -7.90038e-17 -1.02078 0.190787
      vertex 4.79258 -7.6172 7.01111
    endloop
  endfacet
  facet normal -0.809017 -0.587785 0
    outer loop
      vertex 4.79258 -7.6172 0
      vertex -7.90038e-17 -1.02078 0.190787
      vertex 7.7447e-19 -1.02078 0
    endloop
  endfacet
  facet normal -0.809017 -0.587785 0
    outer loop
      vertex -7.90038e-17 -1.02078 0.190787
      vertex 4.79258 -7.6172 0
      vertex 4.79258 -7.6172 7.01111
    endloop
  endfacet
  facet normal 0 1 -0
    outer loop
      vertex 7.7447e-19 -1.02078 0
      vertex -7.90038e-17 -1.02078 0.190787
      vertex 7.7447e-19 -1.02078 0.190787
    endloop
  endfacet
  facet normal 0 0 -1
    outer loop
      vertex 7.7447e-19 -1.02078 0
      vertex -0.970819 -0.315438 0
      vertex -0.599999 0.825828 0
    endloop
  endfacet
  facet normal 0 0 -1
    outer loop
      vertex -4.79258 -7.6172 0
      vertex -0.970819 -0.315438 0
      vertex 7.7447e-19 -1.02078 0
    endloop
  endfacet
  facet normal 0 0 -1
    outer loop
      vertex -0.970819 -0.315438 0
      vertex -4.79258 -7.6172 0
      vertex -5.7634 -6.91185 0
    endloop
  endfacet
  facet normal 0 0 -1
    outer loop
      vertex 4.79258 -7.6172 0
      vertex 0.970819 -0.315438 0
      vertex 5.7634 -6.91185 0
    endloop
  endfacet
  facet normal 0 0 -1
    outer loop
      vertex 7.7447e-19 -1.02078 0
      vertex 0.970819 -0.315438 0
      vertex 4.79258 -7.6172 0
    endloop
  endfacet
  facet normal 0 0 -1
    outer loop
      vertex 7.7447e-19 -1.02078 0
      vertex 0.599999 0.825828 0
      vertex 0.970819 -0.315438 0
    endloop
  endfacet
  facet normal 0 0 -1
    outer loop
      vertex -0.599999 0.825828 0
      vertex 0.599999 0.825828 0
      vertex 7.7447e-19 -1.02078 0
    endloop
  endfacet
  facet normal 0 0 -1
    outer loop
      vertex 0.599999 0.825828 0
      vertex -0.599999 0.825828 0
      vertex 0.599999 8.97945 0
    endloop
  endfacet
  facet normal -0 0 -1
    outer loop
      vertex 0.599999 8.97945 0
      vertex -0.599999 0.825828 0
      vertex -0.599999 8.97945 0
    endloop
  endfacet
  facet normal 0 0 -1
    outer loop
      vertex 0.970819 -0.315438 0
      vertex 8.35455 3.34543 0
      vertex 8.72537 2.20417 0
    endloop
  endfacet
  facet normal 0 0 -1
    outer loop
      vertex 8.35455 3.34543 0
      vertex 0.970819 -0.315438 0
      vertex 0.599999 0.825828 0
    endloop
  endfacet
  facet normal 0 0 -1
    outer loop
      vertex -0.970819 -0.315438 0
      vertex -8.35455 3.34543 0
      vertex -0.599999 0.825828 0
    endloop
  endfacet
  facet normal 0 -0 -1
    outer loop
      vertex -8.35455 3.34543 0
      vertex -0.970819 -0.315438 0
      vertex -8.72537 2.20417 0
    endloop
  endfacet
endsolid OpenSCAD_Model
