<svg xmlns="http://www.w3.org/2000/svg" viewBox="0 0 10.58 15.3">
  <path d="M1.56,4.27a.57.57,0,0,1-.25-.58Q1.67,1.86,6.62,0A6.81,6.81,0,0,1,10,4,7.47,7.47,0,0,1,6.75,6.79c3.6,1,5.33,4.13,2.2,7A6.78,6.78,0,0,1,0,13.45c.52-1,1-1.95,1.54-2.89a.24.24,0,0,1,.28-.15A.26.26,0,0,1,2,10.7q-.21,3.63,2.85,3.63a2.24,2.24,0,0,0,1.79-.76c.8-.78,1.18-3.88.33-5a2.62,2.62,0,0,0-2.29-.94,15.21,15.21,0,0,1-2,.26c-.19,0-.3-.07-.32-.2,0-.29,0-.6.16-.63,1.67-.29,4.77-.28,4.65-2.23C7,3.4,6,2,4.34,2.13,2.93,2.09,2.43,3.09,2,4,1.92,4.29,1.77,4.36,1.56,4.27Z"/>
</svg>
