<svg xmlns="http://www.w3.org/2000/svg" viewBox="0 0 10.35 15.49">
  <path d="M2.92,7.89C1,7.14.28,5.74.94,3.84,1.65,2.16,3.73,1.23,5.05,0,9.4.85,11.11,3.46,7.53,6.55c2.8,1,3.65,3.33,1.93,5.14a30.35,30.35,0,0,0-3.09,3.8,13.35,13.35,0,0,1-4.31-1.17C-1.56,12.68.15,9.28,2.92,7.89Zm5,3.44c0-.09,0-.22,0-.4-.11-2.15-2.71-2-4.34-2.56C2.84,9,1.89,9.65,2,10.63a1.85,1.85,0,0,0,1.41,1.69C4.87,12.58,7.4,13.45,7.93,11.33ZM2.17,4.19c0,1.64,2.69,1.52,3.82,2l.6.19c1.82-2.06,1.15-3.65-2.8-3.93C2.88,2.37,2.46,3.23,2.18,4,2.18,4.05,2.17,4.11,2.17,4.19Z"/>
</svg>
