solid OpenSCAD_Model
  facet normal 0 0 -1
    outer loop
      vertex -7.325 -7.325 5.36227
      vertex 7.325 7.325 5.36227
      vertex 7.325 -7.325 5.36227
    endloop
  endfacet
  facet normal -0 0 -1
    outer loop
      vertex 7.325 7.325 5.36227
      vertex -7.325 -7.325 5.36227
      vertex -7.325 7.325 5.36227
    endloop
  endfacet
  facet normal -1 0 0
    outer loop
      vertex -7.325 -7.325 5.36227
      vertex -7.325 7.325 20.0123
      vertex -7.325 7.325 5.36227
    endloop
  endfacet
  facet normal -1 -0 0
    outer loop
      vertex -7.325 7.325 20.0123
      vertex -7.325 -7.325 5.36227
      vertex -7.325 -7.325 20.0123
    endloop
  endfacet
  facet normal -0 0 1
    outer loop
      vertex -7.325 7.325 20.0123
      vertex 7.325 -7.325 20.0123
      vertex 7.325 7.325 20.0123
    endloop
  endfacet
  facet normal 0 0 1
    outer loop
      vertex 7.325 -7.325 20.0123
      vertex -7.325 7.325 20.0123
      vertex -7.325 -7.325 20.0123
    endloop
  endfacet
  facet normal 0 1 -0
    outer loop
      vertex 7.325 7.325 5.36227
      vertex -7.325 7.325 20.0123
      vertex 7.325 7.325 20.0123
    endloop
  endfacet
  facet normal 0 1 0
    outer loop
      vertex -7.325 7.325 20.0123
      vertex 7.325 7.325 5.36227
      vertex -7.325 7.325 5.36227
    endloop
  endfacet
  facet normal 1 -0 0
    outer loop
      vertex 7.325 -7.325 20.0123
      vertex 7.325 7.325 5.36227
      vertex 7.325 7.325 20.0123
    endloop
  endfacet
  facet normal 1 0 0
    outer loop
      vertex 7.325 7.325 5.36227
      vertex 7.325 -7.325 20.0123
      vertex 7.325 -7.325 5.36227
    endloop
  endfacet
  facet normal 0 -1 0
    outer loop
      vertex -7.325 -7.325 5.36227
      vertex 7.325 -7.325 20.0123
      vertex -7.325 -7.325 20.0123
    endloop
  endfacet
  facet normal 0 -1 -0
    outer loop
      vertex 7.325 -7.325 20.0123
      vertex -7.325 -7.325 5.36227
      vertex 7.325 -7.325 5.36227
    endloop
  endfacet
endsolid OpenSCAD_Model
