solid OpenSCAD_Model
  facet normal 0 0 1
    outer loop
      vertex 4.09475e-07 2.90955e-07 30.15
      vertex -4.09475e-07 2.90955e-07 30.15
      vertex 0 1.57909e-07 30.15
    endloop
  endfacet
  facet normal 0 0.866024 0.500003
    outer loop
      vertex 3.1327 4.3118 22.6818
      vertex -4.09475e-07 2.90955e-07 30.15
      vertex 4.09475e-07 2.90955e-07 30.15
    endloop
  endfacet
  facet normal 0 0.866024 0.500003
    outer loop
      vertex 3.1327 4.3118 22.6818
      vertex -3.1327 4.3118 22.6818
      vertex -4.09475e-07 2.90955e-07 30.15
    endloop
  endfacet
  facet normal -9.19794e-06 0.866027 0.499997
    outer loop
      vertex 1.71485 8.10777 16.1069
      vertex 3.1327 4.3118 22.6818
      vertex 5.09314 7.0101 18.0082
    endloop
  endfacet
  facet normal 0 0.866028 0.499995
    outer loop
      vertex 3.1327 4.3118 22.6818
      vertex 1.71485 8.10777 16.1069
      vertex -3.1327 4.3118 22.6818
    endloop
  endfacet
  facet normal -0 0.866028 0.499995
    outer loop
      vertex -1.71485 8.10777 16.1069
      vertex -3.1327 4.3118 22.6818
      vertex 1.71485 8.10777 16.1069
    endloop
  endfacet
  facet normal 9.19794e-06 0.866027 0.499997
    outer loop
      vertex -3.1327 4.3118 22.6818
      vertex -1.71485 8.10777 16.1069
      vertex -5.09314 7.0101 18.0082
    endloop
  endfacet
  facet normal -0 0.86603 0.499993
    outer loop
      vertex -1.71485 8.10777 16.1069
      vertex 1.71485 8.10777 16.1069
      vertex 0 8.66496 15.1418
    endloop
  endfacet
  facet normal 3.15507e-06 -0.866026 -0.499999
    outer loop
      vertex 1.71485 -8.10777 17.0431
      vertex 0.0841192 -0.345847 3.59902
      vertex 4.99387 -7.02442 15.1667
    endloop
  endfacet
  facet normal -1.72932e-05 -0.866025 -0.500001
    outer loop
      vertex -1.71485 -8.10777 17.0431
      vertex -0.0840912 -0.345809 3.59896
      vertex 0.0841192 -0.345847 3.59902
    endloop
  endfacet
  facet normal -1.72872e-05 -0.866018 -0.500013
    outer loop
      vertex 0.0841192 -0.345847 3.59902
      vertex -0.0840912 -0.345809 3.59896
      vertex 4.06824e-07 -0.231422 3.40084
    endloop
  endfacet
  facet normal 0 -0.86603 -0.499993
    outer loop
      vertex -1.71485 -8.10777 17.0431
      vertex 1.71485 -8.10777 17.0431
      vertex 0 -8.66496 18.0082
    endloop
  endfacet
  facet normal -3.03929e-06 -0.866026 -0.499999
    outer loop
      vertex -0.0840912 -0.345809 3.59896
      vertex -1.71485 -8.10777 17.0431
      vertex -4.99387 -7.02442 15.1667
    endloop
  endfacet
  facet normal 0.00087152 -0.865363 -0.501145
    outer loop
      vertex -5.09314 -7.0101 15.1418
      vertex -4.99387 -7.02442 15.1667
      vertex -1.71485 -8.10777 17.0431
    endloop
  endfacet
  facet normal 0.000482866 -0.866035 -0.499982
    outer loop
      vertex -4.99387 -7.02442 15.1667
      vertex -5.09314 -7.0101 15.1418
      vertex -5.06565 -6.97227 15.0763
    endloop
  endfacet
  facet normal 0 -0.866026 -0.499999
    outer loop
      vertex -1.71485 -8.10777 17.0431
      vertex 0.0841192 -0.345847 3.59902
      vertex 1.71485 -8.10777 17.0431
    endloop
  endfacet
  facet normal -0.00087152 -0.865363 -0.501145
    outer loop
      vertex 4.99387 -7.02442 15.1667
      vertex 5.09314 -7.0101 15.1418
      vertex 1.71485 -8.10777 17.0431
    endloop
  endfacet
  facet normal -0.000482866 -0.866035 -0.499982
    outer loop
      vertex 5.09314 -7.0101 15.1418
      vertex 4.99387 -7.02442 15.1667
      vertex 5.06565 -6.97227 15.0763
    endloop
  endfacet
  facet normal -0.823645 0.267617 0.49999
    outer loop
      vertex -8.24087 0.874518 16.1069
      vertex -5.09314 7.0101 18.0082
      vertex -8.24087 2.67762 15.1418
    endloop
  endfacet
  facet normal -0.823641 0.267612 0.499999
    outer loop
      vertex -5.09314 7.0101 18.0082
      vertex -8.24087 0.874518 16.1069
      vertex -3.1327 4.3118 22.6818
    endloop
  endfacet
  facet normal -0.823641 0.267628 0.49999
    outer loop
      vertex -3.1327 4.3118 22.6818
      vertex -8.24087 0.874518 16.1069
      vertex -8.24087 -0.874518 17.0431
    endloop
  endfacet
  facet normal -0.82364 0.267617 0.499999
    outer loop
      vertex -5.06882 -1.64696 22.6818
      vertex -3.1327 4.3118 22.6818
      vertex -8.24087 -0.874518 17.0431
    endloop
  endfacet
  facet normal -0.823638 0.267616 0.500002
    outer loop
      vertex -3.1327 4.3118 22.6818
      vertex -5.06882 -1.64696 22.6818
      vertex -4.09475e-07 2.90955e-07 30.15
    endloop
  endfacet
  facet normal -0.823638 0.267622 0.499999
    outer loop
      vertex -5.06882 -1.64696 22.6818
      vertex -8.24087 -0.874518 17.0431
      vertex -8.24087 -2.67762 18.0082
    endloop
  endfacet
  facet normal 0.823641 -0.26762 -0.499996
    outer loop
      vertex 4.24449 -5.67647 13.0301
      vertex 8.24087 -0.874518 17.0431
      vertex 8.24087 -2.67762 18.0082
    endloop
  endfacet
  facet normal 0.823639 -0.267614 -0.500001
    outer loop
      vertex 3.20901 -4.23432 10.5525
      vertex 8.24087 -0.874518 17.0431
      vertex 4.24449 -5.67647 13.0301
    endloop
  endfacet
  facet normal 0.823639 -0.267629 -0.499993
    outer loop
      vertex 8.24087 -0.874518 17.0431
      vertex 3.20901 -4.23432 10.5525
      vertex 8.24087 0.874518 16.1069
    endloop
  endfacet
  facet normal 0.823641 -0.267621 -0.499995
    outer loop
      vertex 8.24087 -2.67762 18.0082
      vertex 5.13743 -6.92012 15.1667
      vertex 4.24449 -5.67647 13.0301
    endloop
  endfacet
  facet normal 0.823791 -0.267118 -0.500017
    outer loop
      vertex 5.13743 -6.92012 15.1667
      vertex 5.09314 -7.0101 15.1418
      vertex 5.06565 -6.97227 15.0763
    endloop
  endfacet
  facet normal 0.823256 -0.266523 -0.501214
    outer loop
      vertex 5.09314 -7.0101 15.1418
      vertex 5.13743 -6.92012 15.1667
      vertex 8.24087 -2.67762 18.0082
    endloop
  endfacet
  facet normal 0.823505 -0.268115 -0.499954
    outer loop
      vertex 8.24087 2.67762 15.1418
      vertex 8.22381 2.57879 15.1667
      vertex 8.1964 2.66317 15.0763
    endloop
  endfacet
  facet normal 0.82265 -0.268297 -0.501261
    outer loop
      vertex 8.24087 0.874518 16.1069
      vertex 8.22381 2.57879 15.1667
      vertex 8.24087 2.67762 15.1418
    endloop
  endfacet
  facet normal 0.823635 -0.2676 -0.500016
    outer loop
      vertex 3.20901 -4.23432 10.5525
      vertex 8.22381 2.57879 15.1667
      vertex 8.24087 0.874518 16.1069
    endloop
  endfacet
  facet normal 0.82364 -0.267616 -0.499999
    outer loop
      vertex 8.22381 2.57879 15.1667
      vertex 3.20901 -4.23432 10.5525
      vertex 0.220095 -0.0715132 3.40083
    endloop
  endfacet
  facet normal -0.509036 -0.70063 0.5
    outer loop
      vertex -8.24087 -2.67762 18.0082
      vertex -1.71485 -8.10777 17.0431
      vertex -5.06882 -1.64696 22.6818
    endloop
  endfacet
  facet normal -0.509042 -0.700635 0.499987
    outer loop
      vertex -1.71485 -8.10777 17.0431
      vertex -8.24087 -2.67762 18.0082
      vertex -5.09314 -7.0101 15.1418
    endloop
  endfacet
  facet normal -0.284961 -0.877023 0.386818
    outer loop
      vertex -5.06882 -1.64696 22.6818
      vertex 0 1.57909e-07 30.15
      vertex -4.09475e-07 2.90955e-07 30.15
    endloop
  endfacet
  facet normal -0.509035 -0.700629 0.500002
    outer loop
      vertex -5.06882 -1.64696 22.6818
      vertex 0 -8.66496 18.0082
      vertex 0 1.57909e-07 30.15
    endloop
  endfacet
  facet normal -0.509041 -0.700629 0.499995
    outer loop
      vertex 0 -8.66496 18.0082
      vertex -5.06882 -1.64696 22.6818
      vertex -1.71485 -8.10777 17.0431
    endloop
  endfacet
  facet normal 0.509044 0.700629 -0.499993
    outer loop
      vertex 5.09314 7.0101 18.0082
      vertex 8.16898 2.74755 15.1667
      vertex 1.71485 8.10777 16.1069
    endloop
  endfacet
  facet normal 0.507913 0.700603 -0.501178
    outer loop
      vertex 8.24087 2.67762 15.1418
      vertex 8.16898 2.74755 15.1667
      vertex 5.09314 7.0101 18.0082
    endloop
  endfacet
  facet normal 0.50865 0.700931 -0.499971
    outer loop
      vertex 8.16898 2.74755 15.1667
      vertex 8.24087 2.67762 15.1418
      vertex 8.1964 2.66317 15.0763
    endloop
  endfacet
  facet normal 0.509041 0.700627 -0.499998
    outer loop
      vertex 1.71485 8.10777 16.1069
      vertex 8.16898 2.74755 15.1667
      vertex 5.01872 1.74348 10.5525
    endloop
  endfacet
  facet normal 0.509021 0.700637 -0.500005
    outer loop
      vertex 1.71485 8.10777 16.1069
      vertex 0.0973163 7.08719 13.0301
      vertex 0.088727 8.6182 15.1667
    endloop
  endfacet
  facet normal 0.50903 0.700629 -0.500007
    outer loop
      vertex 5.01872 1.74348 10.5525
      vertex 0.0973163 7.08719 13.0301
      vertex 1.71485 8.10777 16.1069
    endloop
  endfacet
  facet normal 0.509036 0.700631 -0.499999
    outer loop
      vertex 0.0973163 7.08719 13.0301
      vertex 5.01872 1.74348 10.5525
      vertex 0.136026 0.187223 3.40083
    endloop
  endfacet
  facet normal 0.509336 0.699626 -0.501099
    outer loop
      vertex 0.088727 8.6182 15.1667
      vertex 0 8.66496 15.1418
      vertex 1.71485 8.10777 16.1069
    endloop
  endfacet
  facet normal 0.509414 0.700365 -0.499986
    outer loop
      vertex 0 8.66496 15.1418
      vertex 0.088727 8.6182 15.1667
      vertex 0 8.6182 15.0763
    endloop
  endfacet
  facet normal 0.509036 -0.70063 0.5
    outer loop
      vertex 1.71485 -8.10777 17.0431
      vertex 8.24087 -2.67762 18.0082
      vertex 5.06882 -1.64696 22.6818
    endloop
  endfacet
  facet normal 0.509042 -0.700635 0.499987
    outer loop
      vertex 8.24087 -2.67762 18.0082
      vertex 1.71485 -8.10777 17.0431
      vertex 5.09314 -7.0101 15.1418
    endloop
  endfacet
  facet normal 0.284961 -0.877023 0.386818
    outer loop
      vertex 0 1.57909e-07 30.15
      vertex 5.06882 -1.64696 22.6818
      vertex 4.09475e-07 2.90955e-07 30.15
    endloop
  endfacet
  facet normal 0.509035 -0.700629 0.500002
    outer loop
      vertex 0 -8.66496 18.0082
      vertex 5.06882 -1.64696 22.6818
      vertex 0 1.57909e-07 30.15
    endloop
  endfacet
  facet normal 0.509041 -0.700629 0.499995
    outer loop
      vertex 5.06882 -1.64696 22.6818
      vertex 0 -8.66496 18.0082
      vertex 1.71485 -8.10777 17.0431
    endloop
  endfacet
  facet normal -0.509339 0.699618 -0.501108
    outer loop
      vertex 0 8.66496 15.1418
      vertex -0.0887263 8.6182 15.1667
      vertex -1.71485 8.10777 16.1069
    endloop
  endfacet
  facet normal -0.509417 0.700364 -0.499985
    outer loop
      vertex -0.0887263 8.6182 15.1667
      vertex 0 8.66496 15.1418
      vertex 0 8.6182 15.0763
    endloop
  endfacet
  facet normal -0.509023 0.70063 -0.500012
    outer loop
      vertex -0.0887263 8.6182 15.1667
      vertex -5.01872 1.74348 10.5525
      vertex -1.71485 8.10777 16.1069
    endloop
  endfacet
  facet normal -0.509036 0.700631 -0.499999
    outer loop
      vertex -0.135229 0.329255 3.59904
      vertex -5.01872 1.74348 10.5525
      vertex -0.0887263 8.6182 15.1667
    endloop
  endfacet
  facet normal -0.509048 0.700618 -0.500005
    outer loop
      vertex -0.135229 0.329255 3.59904
      vertex -0.271307 0.230342 3.59898
      vertex -5.01872 1.74348 10.5525
    endloop
  endfacet
  facet normal -0.509051 0.700622 -0.499996
    outer loop
      vertex -0.271307 0.230342 3.59898
      vertex -0.135229 0.329255 3.59904
      vertex -0.136026 0.187224 3.40083
    endloop
  endfacet
  facet normal -0.509041 0.700627 -0.499998
    outer loop
      vertex -1.71485 8.10777 16.1069
      vertex -5.01872 1.74348 10.5525
      vertex -8.16898 2.74755 15.1667
    endloop
  endfacet
  facet normal -0.509044 0.700629 -0.499993
    outer loop
      vertex -8.16898 2.74755 15.1667
      vertex -5.09314 7.0101 18.0082
      vertex -1.71485 8.10777 16.1069
    endloop
  endfacet
  facet normal -0.507913 0.700603 -0.501178
    outer loop
      vertex -8.16898 2.74755 15.1667
      vertex -8.24087 2.67762 15.1418
      vertex -5.09314 7.0101 18.0082
    endloop
  endfacet
  facet normal -0.508618 0.700917 -0.500024
    outer loop
      vertex -8.24087 2.67762 15.1418
      vertex -8.16898 2.74755 15.1667
      vertex -8.19639 2.66317 15.0763
    endloop
  endfacet
  facet normal 0.823641 0.267612 0.499999
    outer loop
      vertex 8.24087 0.874518 16.1069
      vertex 5.09314 7.0101 18.0082
      vertex 3.1327 4.3118 22.6818
    endloop
  endfacet
  facet normal 0.823645 0.267617 0.49999
    outer loop
      vertex 5.09314 7.0101 18.0082
      vertex 8.24087 0.874518 16.1069
      vertex 8.24087 2.67762 15.1418
    endloop
  endfacet
  facet normal 0.823641 0.267628 0.49999
    outer loop
      vertex 8.24087 0.874518 16.1069
      vertex 3.1327 4.3118 22.6818
      vertex 8.24087 -0.874518 17.0431
    endloop
  endfacet
  facet normal 0.823638 0.267616 0.500002
    outer loop
      vertex 5.06882 -1.64696 22.6818
      vertex 3.1327 4.3118 22.6818
      vertex 4.09475e-07 2.90955e-07 30.15
    endloop
  endfacet
  facet normal 0.82364 0.267617 0.499999
    outer loop
      vertex 3.1327 4.3118 22.6818
      vertex 5.06882 -1.64696 22.6818
      vertex 8.24087 -0.874518 17.0431
    endloop
  endfacet
  facet normal 0.823638 0.267622 0.499999
    outer loop
      vertex 8.24087 -0.874518 17.0431
      vertex 5.06882 -1.64696 22.6818
      vertex 8.24087 -2.67762 18.0082
    endloop
  endfacet
  facet normal -0.823449 -0.268127 -0.500039
    outer loop
      vertex -8.22381 2.57879 15.1667
      vertex -8.24087 2.67762 15.1418
      vertex -8.19639 2.66317 15.0763
    endloop
  endfacet
  facet normal -0.82265 -0.268297 -0.501261
    outer loop
      vertex -8.22381 2.57879 15.1667
      vertex -8.24087 0.874518 16.1069
      vertex -8.24087 2.67762 15.1418
    endloop
  endfacet
  facet normal -0.823653 -0.267587 -0.499993
    outer loop
      vertex -6.77038 2.0975 13.03
      vertex -8.24087 0.874518 16.1069
      vertex -8.22381 2.57879 15.1667
    endloop
  endfacet
  facet normal -0.823637 -0.267621 -0.500001
    outer loop
      vertex -3.20901 -4.23432 10.5525
      vertex -6.77038 2.0975 13.03
      vertex -0.220096 -0.0715137 3.40084
    endloop
  endfacet
  facet normal -0.823638 -0.267622 -0.499999
    outer loop
      vertex -6.77038 2.0975 13.03
      vertex -3.20901 -4.23432 10.5525
      vertex -8.24087 0.874518 16.1069
    endloop
  endfacet
  facet normal -0.823639 -0.267629 -0.499993
    outer loop
      vertex -3.20901 -4.23432 10.5525
      vertex -8.24087 -0.874518 17.0431
      vertex -8.24087 0.874518 16.1069
    endloop
  endfacet
  facet normal -0.823639 -0.267604 -0.500006
    outer loop
      vertex -8.24087 -0.874518 17.0431
      vertex -3.20901 -4.23432 10.5525
      vertex -4.24447 -5.67645 13.03
    endloop
  endfacet
  facet normal -0.823643 -0.267618 -0.499993
    outer loop
      vertex -8.24087 -0.874518 17.0431
      vertex -4.24447 -5.67645 13.03
      vertex -8.24087 -2.67762 18.0082
    endloop
  endfacet
  facet normal -0.823643 -0.267629 -0.499987
    outer loop
      vertex -5.13743 -6.92012 15.1667
      vertex -8.24087 -2.67762 18.0082
      vertex -4.24447 -5.67645 13.03
    endloop
  endfacet
  facet normal -0.823256 -0.266523 -0.501214
    outer loop
      vertex -5.13743 -6.92012 15.1667
      vertex -5.09314 -7.0101 15.1418
      vertex -8.24087 -2.67762 18.0082
    endloop
  endfacet
  facet normal -0.823791 -0.267118 -0.500017
    outer loop
      vertex -5.09314 -7.0101 15.1418
      vertex -5.13743 -6.92012 15.1667
      vertex -5.06565 -6.97227 15.0763
    endloop
  endfacet
  facet normal -0.309017 0.951056 0
    outer loop
      vertex 8.15004 2.80583 12.5126
      vertex 0.149999 0.206457 3.42767
      vertex 8.15004 2.80583 15.1667
    endloop
  endfacet
  facet normal -0.309017 0.951057 -1.85724e-07
    outer loop
      vertex 0.15 0.206457 1.76382
      vertex 0.149999 0.206457 3.42767
      vertex 8.15004 2.80583 12.5126
    endloop
  endfacet
  facet normal 0 1 0
    outer loop
      vertex 0.149999 0.206457 3.42767
      vertex 0.15 0.206457 1.76382
      vertex 0.149999 0.206457 1.76382
    endloop
  endfacet
  facet normal 0.951039 0.309071 -2.15894e-05
    outer loop
      vertex 8.1964 2.66317 15.0763
      vertex 8.15004 2.80583 15.1667
      vertex 8.16898 2.74755 15.1667
    endloop
  endfacet
  facet normal 0.951043 0.309059 0
    outer loop
      vertex 8.15004 2.80583 15.1667
      vertex 8.1964 2.66317 15.0763
      vertex 8.15004 2.80583 12.5126
    endloop
  endfacet
  facet normal 0.951039 0.309071 0.000126793
    outer loop
      vertex 8.24275 2.52051 15.1667
      vertex 8.1964 2.66317 15.0763
      vertex 8.22381 2.57879 15.1667
    endloop
  endfacet
  facet normal 0.951062 0.308999 0
    outer loop
      vertex 8.1964 2.66317 15.0763
      vertex 8.24275 2.52051 15.1667
      vertex 8.24275 2.52051 12.5126
    endloop
  endfacet
  facet normal 0.951053 0.309029 -1.85484e-06
    outer loop
      vertex 8.1964 2.66317 15.0763
      vertex 8.24275 2.52051 12.5126
      vertex 8.15004 2.80583 12.5126
    endloop
  endfacet
  facet normal -0.77306 -0.251231 0.582461
    outer loop
      vertex 8.15004 2.80583 15.1667
      vertex 5.01872 1.74348 10.5525
      vertex 8.16898 2.74755 15.1667
    endloop
  endfacet
  facet normal -0.772995 -0.251429 0.582463
    outer loop
      vertex 0.149999 0.206457 3.42767
      vertex 5.01872 1.74348 10.5525
      vertex 8.15004 2.80583 15.1667
    endloop
  endfacet
  facet normal -0.82564 0 0.564197
    outer loop
      vertex 0.149999 0.206456 3.42767
      vertex 5.01872 1.74348 10.5525
      vertex 0.149999 0.206457 3.42767
    endloop
  endfacet
  facet normal -0.77307 -0.251194 0.582464
    outer loop
      vertex 5.01872 1.74348 10.5525
      vertex 0.149999 0.206456 3.42767
      vertex 0.136026 0.187223 3.40083
    endloop
  endfacet
  facet normal -0.773076 -0.25118 0.582463
    outer loop
      vertex 0.242704 -0.0788592 3.42767
      vertex 8.22381 2.57879 15.1667
      vertex 0.220095 -0.0715132 3.40083
    endloop
  endfacet
  facet normal -0.826973 0 0.562241
    outer loop
      vertex 0.242704 -0.0788595 3.42767
      vertex 8.22381 2.57879 15.1667
      vertex 0.242704 -0.0788592 3.42767
    endloop
  endfacet
  facet normal -0.773059 -0.251231 0.582463
    outer loop
      vertex 8.22381 2.57879 15.1667
      vertex 0.242704 -0.0788595 3.42767
      vertex 8.24275 2.52051 15.1667
    endloop
  endfacet
  facet normal 0.309017 -0.951057 0
    outer loop
      vertex 0.242704 -0.0788595 3.42767
      vertex 8.24275 2.52051 12.5126
      vertex 8.24275 2.52051 15.1667
    endloop
  endfacet
  facet normal 0.309017 -0.951057 0
    outer loop
      vertex 0.242704 -0.0788595 3.42767
      vertex 0.242704 -0.0788595 1.76382
      vertex 8.24275 2.52051 12.5126
    endloop
  endfacet
  facet normal -1 0 0
    outer loop
      vertex -0.15 0.206457 3.42767
      vertex -0.15 8.6182 12.5126
      vertex -0.15 0.206457 1.76382
    endloop
  endfacet
  facet normal -1 -0 0
    outer loop
      vertex -0.15 8.6182 12.5126
      vertex -0.15 0.206457 3.42767
      vertex -0.15 8.6182 15.1667
    endloop
  endfacet
  facet normal 0 1 0
    outer loop
      vertex 0.149999 8.6182 15.1667
      vertex 0 8.6182 15.0763
      vertex 0.088727 8.6182 15.1667
    endloop
  endfacet
  facet normal 0 1 -0
    outer loop
      vertex 0.149999 8.6182 12.5126
      vertex 0 8.6182 15.0763
      vertex 0.149999 8.6182 15.1667
    endloop
  endfacet
  facet normal 0 1 0
    outer loop
      vertex 0 8.6182 15.0763
      vertex 0.149999 8.6182 12.5126
      vertex -0.15 8.6182 12.5126
    endloop
  endfacet
  facet normal 0 1 0
    outer loop
      vertex 0 8.6182 15.0763
      vertex -0.15 8.6182 15.1667
      vertex -0.0887263 8.6182 15.1667
    endloop
  endfacet
  facet normal 0 1 0
    outer loop
      vertex -0.15 8.6182 15.1667
      vertex 0 8.6182 15.0763
      vertex -0.15 8.6182 12.5126
    endloop
  endfacet
  facet normal 0 -0.812857 0.582463
    outer loop
      vertex -0.15 8.6182 15.1667
      vertex -0.135229 0.329255 3.59904
      vertex -0.0887263 8.6182 15.1667
    endloop
  endfacet
  facet normal 4.22282e-05 -0.812857 0.582463
    outer loop
      vertex -0.15 0.206457 3.42767
      vertex -0.135229 0.329255 3.59904
      vertex -0.15 8.6182 15.1667
    endloop
  endfacet
  facet normal -0.614942 -0.614942 0.493651
    outer loop
      vertex -0.149999 0.206456 3.42767
      vertex -0.135229 0.329255 3.59904
      vertex -0.15 0.206457 3.42767
    endloop
  endfacet
  facet normal -0.000322592 -0.81284 0.582487
    outer loop
      vertex -0.135229 0.329255 3.59904
      vertex -0.149999 0.206456 3.42767
      vertex -0.139931 0.1926 3.40834
    endloop
  endfacet
  facet normal 0 -0.812857 0.582464
    outer loop
      vertex 0.149999 8.6182 15.1667
      vertex 0.088727 8.6182 15.1667
      vertex 0.0973163 7.08719 13.0301
    endloop
  endfacet
  facet normal 5.26925e-05 -0.812857 0.582463
    outer loop
      vertex 0.0973163 7.08719 13.0301
      vertex 0.149999 0.206456 3.42767
      vertex 0.149999 8.6182 15.1667
    endloop
  endfacet
  facet normal 2.77907e-05 -0.812857 0.582463
    outer loop
      vertex 0.149999 0.206456 3.42767
      vertex 0.0973163 7.08719 13.0301
      vertex 0.136026 0.187223 3.40083
    endloop
  endfacet
  facet normal 0.962158 -0.232172 0.14265
    outer loop
      vertex -0.13993 0.192598 3.40833
      vertex -0.135229 0.329255 3.59904
      vertex -0.139931 0.1926 3.40834
    endloop
  endfacet
  facet normal 5.41633e-05 -0.812855 0.582466
    outer loop
      vertex -0.135229 0.329255 3.59904
      vertex -0.13993 0.192598 3.40833
      vertex -0.136026 0.187224 3.40083
    endloop
  endfacet
  facet normal 1 0 0
    outer loop
      vertex 0.149999 8.6182 15.1667
      vertex 0.149999 0.206457 3.42767
      vertex 0.149999 8.6182 12.5126
    endloop
  endfacet
  facet normal 1 0 -0
    outer loop
      vertex 0.149999 0.206457 3.42767
      vertex 0.149999 8.6182 15.1667
      vertex 0.149999 0.206456 3.42767
    endloop
  endfacet
  facet normal 1 0 0
    outer loop
      vertex 0.149999 8.6182 12.5126
      vertex 0.149999 0.206457 3.42767
      vertex 0.149999 0.206457 1.76382
    endloop
  endfacet
  facet normal -0.309017 -0.951057 0
    outer loop
      vertex -8.24275 2.52051 12.5126
      vertex -0.242705 -0.0788596 3.42768
      vertex -8.24275 2.52051 15.1667
    endloop
  endfacet
  facet normal -0.309017 -0.951057 -0
    outer loop
      vertex -0.242705 -0.0788596 3.42768
      vertex -8.24275 2.52051 12.5126
      vertex -0.242705 -0.0788596 1.76382
    endloop
  endfacet
  facet normal 0.309017 0.951056 0
    outer loop
      vertex -8.15004 2.80583 15.1667
      vertex -0.15 0.206457 3.42767
      vertex -8.15004 2.80583 12.5126
    endloop
  endfacet
  facet normal 0.672421 0.672421 0.309354
    outer loop
      vertex -0.15 0.206457 3.42767
      vertex -8.15004 2.80583 15.1667
      vertex -0.149999 0.206456 3.42767
    endloop
  endfacet
  facet normal 0.309017 0.951056 0
    outer loop
      vertex -8.15004 2.80583 12.5126
      vertex -0.15 0.206457 3.42767
      vertex -0.15 0.206457 1.76382
    endloop
  endfacet
  facet normal -0.951062 0.308999 0
    outer loop
      vertex -8.19639 2.66317 15.0763
      vertex -8.15004 2.80583 15.1667
      vertex -8.15004 2.80583 12.5126
    endloop
  endfacet
  facet normal -0.951039 0.309071 -0.000126793
    outer loop
      vertex -8.15004 2.80583 15.1667
      vertex -8.19639 2.66317 15.0763
      vertex -8.16898 2.74755 15.1667
    endloop
  endfacet
  facet normal -0.951053 0.309029 1.85484e-06
    outer loop
      vertex -8.24275 2.52051 12.5126
      vertex -8.19639 2.66317 15.0763
      vertex -8.15004 2.80583 12.5126
    endloop
  endfacet
  facet normal -0.951043 0.309059 0
    outer loop
      vertex -8.24275 2.52051 15.1667
      vertex -8.19639 2.66317 15.0763
      vertex -8.24275 2.52051 12.5126
    endloop
  endfacet
  facet normal -0.951039 0.309071 2.15894e-05
    outer loop
      vertex -8.19639 2.66317 15.0763
      vertex -8.24275 2.52051 15.1667
      vertex -8.22381 2.57879 15.1667
    endloop
  endfacet
  facet normal 0.773069 -0.251234 0.582448
    outer loop
      vertex -8.22381 2.57879 15.1667
      vertex -8.24275 2.52051 15.1667
      vertex -6.77038 2.0975 13.03
    endloop
  endfacet
  facet normal 0.77306 -0.251231 0.582461
    outer loop
      vertex -5.01872 1.74348 10.5525
      vertex -8.15004 2.80583 15.1667
      vertex -8.16898 2.74755 15.1667
    endloop
  endfacet
  facet normal 0.77312 -0.25104 0.582464
    outer loop
      vertex -0.149999 0.206456 3.42767
      vertex -5.01872 1.74348 10.5525
      vertex -0.271307 0.230342 3.59898
    endloop
  endfacet
  facet normal 0.772994 -0.251431 0.582463
    outer loop
      vertex -5.01872 1.74348 10.5525
      vertex -0.149999 0.206456 3.42767
      vertex -8.15004 2.80583 15.1667
    endloop
  endfacet
  facet normal 0.773192 -0.250782 0.58248
    outer loop
      vertex -0.271307 0.230342 3.59898
      vertex -0.139931 0.1926 3.40834
      vertex -0.149999 0.206456 3.42767
    endloop
  endfacet
  facet normal 0.00336987 -0.98051 0.196439
    outer loop
      vertex -0.139931 0.1926 3.40834
      vertex -0.271307 0.230342 3.59898
      vertex -0.13993 0.192598 3.40833
    endloop
  endfacet
  facet normal 0.773336 -0.250376 0.582463
    outer loop
      vertex -0.242705 -0.0788596 3.42768
      vertex -6.77038 2.0975 13.03
      vertex -8.24275 2.52051 15.1667
    endloop
  endfacet
  facet normal 0.773076 -0.251171 0.582466
    outer loop
      vertex -6.77038 2.0975 13.03
      vertex -0.242705 -0.0788596 3.42768
      vertex -0.220096 -0.0715137 3.40084
    endloop
  endfacet
  facet normal 0.773045 -0.251293 0.582455
    outer loop
      vertex -0.13993 0.192598 3.40833
      vertex -0.271307 0.230342 3.59898
      vertex -0.136026 0.187224 3.40083
    endloop
  endfacet
  facet normal 0.76974 -0.636773 -0.0449415
    outer loop
      vertex -4.9443 -7.06044 15.1667
      vertex -4.08745e-07 -0.255195 3.42767
      vertex 4.18512e-07 -0.255194 3.42767
    endloop
  endfacet
  facet normal 0.809017 -0.587785 0
    outer loop
      vertex -4.9443 -7.06044 12.5126
      vertex -4.08745e-07 -0.255195 3.42767
      vertex -4.9443 -7.06044 15.1667
    endloop
  endfacet
  facet normal 0.809017 -0.587785 0
    outer loop
      vertex -4.08745e-07 -0.255195 3.42767
      vertex -4.9443 -7.06044 12.5126
      vertex -4.08745e-07 -0.255195 1.76382
    endloop
  endfacet
  facet normal -0.809017 0.587785 0
    outer loop
      vertex -5.187 -6.8841 12.5126
      vertex -0.242705 -0.0788596 3.42768
      vertex -0.242705 -0.0788596 1.76382
    endloop
  endfacet
  facet normal -0.809017 0.587785 0
    outer loop
      vertex -0.242705 -0.0788596 3.42768
      vertex -5.187 -6.8841 12.5126
      vertex -5.187 -6.8841 15.1667
    endloop
  endfacet
  facet normal -0.587842 -0.808976 -7.9451e-05
    outer loop
      vertex -5.187 -6.8841 15.1667
      vertex -5.06565 -6.97227 15.0763
      vertex -5.13743 -6.92012 15.1667
    endloop
  endfacet
  facet normal -0.587803 -0.809004 0
    outer loop
      vertex -5.187 -6.8841 12.5126
      vertex -5.06565 -6.97227 15.0763
      vertex -5.187 -6.8841 15.1667
    endloop
  endfacet
  facet normal -0.587803 -0.809004 1.01498e-16
    outer loop
      vertex -5.06565 -6.97227 15.0763
      vertex -5.187 -6.8841 12.5126
      vertex -4.9443 -7.06044 12.5126
    endloop
  endfacet
  facet normal -0.587842 -0.808976 7.9451e-05
    outer loop
      vertex -5.06565 -6.97227 15.0763
      vertex -4.9443 -7.06044 15.1667
      vertex -4.99387 -7.02442 15.1667
    endloop
  endfacet
  facet normal -0.587803 -0.809004 -0
    outer loop
      vertex -4.9443 -7.06044 15.1667
      vertex -5.06565 -6.97227 15.0763
      vertex -4.9443 -7.06044 12.5126
    endloop
  endfacet
  facet normal 0.477831 0.657582 0.582463
    outer loop
      vertex -4.9443 -7.06044 15.1667
      vertex -0.0840912 -0.345809 3.59896
      vertex -4.99387 -7.02442 15.1667
    endloop
  endfacet
  facet normal 0.477922 0.657516 0.582463
    outer loop
      vertex 4.18512e-07 -0.255194 3.42767
      vertex -0.0840912 -0.345809 3.59896
      vertex -4.9443 -7.06044 15.1667
    endloop
  endfacet
  facet normal 0.478118 0.657361 0.582477
    outer loop
      vertex 4.07194e-07 -0.238066 3.40834
      vertex -0.0840912 -0.345809 3.59896
      vertex 4.18512e-07 -0.255194 3.42767
    endloop
  endfacet
  facet normal -0.630274 0.761296 0.152259
    outer loop
      vertex -0.0840912 -0.345809 3.59896
      vertex 4.07194e-07 -0.238066 3.40834
      vertex 4.07196e-07 -0.238064 3.40833
    endloop
  endfacet
  facet normal 0.477838 0.657591 0.582448
    outer loop
      vertex -4.24447 -5.67645 13.03
      vertex -5.187 -6.8841 15.1667
      vertex -5.13743 -6.92012 15.1667
    endloop
  endfacet
  facet normal 0.478957 0.656756 0.58247
    outer loop
      vertex -3.20901 -4.23432 10.5525
      vertex -5.187 -6.8841 15.1667
      vertex -4.24447 -5.67645 13.03
    endloop
  endfacet
  facet normal 0.477958 0.65749 0.582463
    outer loop
      vertex -3.20901 -4.23432 10.5525
      vertex -0.242705 -0.0788596 3.42768
      vertex -5.187 -6.8841 15.1667
    endloop
  endfacet
  facet normal 0.477803 0.657602 0.582464
    outer loop
      vertex -0.242705 -0.0788596 3.42768
      vertex -3.20901 -4.23432 10.5525
      vertex -0.220096 -0.0715137 3.40084
    endloop
  endfacet
  facet normal 0.478834 0.656841 0.582475
    outer loop
      vertex 4.06824e-07 -0.231422 3.40084
      vertex -0.0840912 -0.345809 3.59896
      vertex 4.07196e-07 -0.238064 3.40833
    endloop
  endfacet
  facet normal 0.921592 0 -0.38816
    outer loop
      vertex 5.187 -6.8841 15.1667
      vertex 0.242704 -0.0788595 3.42767
      vertex 0.242704 -0.0788592 3.42767
    endloop
  endfacet
  facet normal 0.809017 0.587785 -0
    outer loop
      vertex 5.187 -6.8841 12.5126
      vertex 0.242704 -0.0788595 3.42767
      vertex 5.187 -6.8841 15.1667
    endloop
  endfacet
  facet normal 0.809017 0.587785 0
    outer loop
      vertex 0.242704 -0.0788595 3.42767
      vertex 5.187 -6.8841 12.5126
      vertex 0.242704 -0.0788595 1.76382
    endloop
  endfacet
  facet normal 0.587842 -0.808976 7.9451e-05
    outer loop
      vertex 4.9443 -7.06044 15.1667
      vertex 5.06565 -6.97227 15.0763
      vertex 4.99387 -7.02442 15.1667
    endloop
  endfacet
  facet normal 0.587803 -0.809004 0
    outer loop
      vertex 5.06565 -6.97227 15.0763
      vertex 4.9443 -7.06044 15.1667
      vertex 4.9443 -7.06044 12.5126
    endloop
  endfacet
  facet normal 0.587842 -0.808976 -7.9451e-05
    outer loop
      vertex 5.06565 -6.97227 15.0763
      vertex 5.187 -6.8841 15.1667
      vertex 5.13743 -6.92012 15.1667
    endloop
  endfacet
  facet normal 0.587803 -0.809004 9.92423e-17
    outer loop
      vertex 5.187 -6.8841 12.5126
      vertex 5.06565 -6.97227 15.0763
      vertex 4.9443 -7.06044 12.5126
    endloop
  endfacet
  facet normal 0.587803 -0.809004 0
    outer loop
      vertex 5.06565 -6.97227 15.0763
      vertex 5.187 -6.8841 12.5126
      vertex 5.187 -6.8841 15.1667
    endloop
  endfacet
  facet normal -0.477833 0.657584 0.582459
    outer loop
      vertex 5.187 -6.8841 15.1667
      vertex 4.24449 -5.67647 13.0301
      vertex 5.13743 -6.92012 15.1667
    endloop
  endfacet
  facet normal -0.477831 0.657582 0.582463
    outer loop
      vertex 0.0841192 -0.345847 3.59902
      vertex 4.9443 -7.06044 15.1667
      vertex 4.99387 -7.02442 15.1667
    endloop
  endfacet
  facet normal -0.477771 0.657626 0.582463
    outer loop
      vertex 0.0841192 -0.345847 3.59902
      vertex -4.08745e-07 -0.255195 3.42767
      vertex 4.9443 -7.06044 15.1667
    endloop
  endfacet
  facet normal -0.62664 0.518393 0.581886
    outer loop
      vertex 0.0841192 -0.345847 3.59902
      vertex 4.18512e-07 -0.255194 3.42767
      vertex -4.08745e-07 -0.255195 3.42767
    endloop
  endfacet
  facet normal -0.478091 0.657372 0.582487
    outer loop
      vertex 4.18512e-07 -0.255194 3.42767
      vertex 0.0841192 -0.345847 3.59902
      vertex 4.07194e-07 -0.238066 3.40834
    endloop
  endfacet
  facet normal -0.478087 0.657396 0.582464
    outer loop
      vertex 5.187 -6.8841 15.1667
      vertex 3.20901 -4.23432 10.5525
      vertex 4.24449 -5.67647 13.0301
    endloop
  endfacet
  facet normal -0.477921 0.657518 0.582463
    outer loop
      vertex 0.242704 -0.0788592 3.42767
      vertex 3.20901 -4.23432 10.5525
      vertex 5.187 -6.8841 15.1667
    endloop
  endfacet
  facet normal -0.477798 0.657606 0.582463
    outer loop
      vertex 3.20901 -4.23432 10.5525
      vertex 0.242704 -0.0788592 3.42767
      vertex 0.220095 -0.0715132 3.40083
    endloop
  endfacet
  facet normal 0.630292 0.761282 0.152256
    outer loop
      vertex 0.0841192 -0.345847 3.59902
      vertex 4.07196e-07 -0.238064 3.40833
      vertex 4.07194e-07 -0.238066 3.40834
    endloop
  endfacet
  facet normal -0.478806 0.656853 0.582485
    outer loop
      vertex 4.07196e-07 -0.238064 3.40833
      vertex 0.0841192 -0.345847 3.59902
      vertex 4.06824e-07 -0.231422 3.40084
    endloop
  endfacet
  facet normal 0 -1 0
    outer loop
      vertex -1.9751e-17 -0.255195 1.76382
      vertex -4.08745e-07 -0.255195 3.42767
      vertex -4.08745e-07 -0.255195 1.76382
    endloop
  endfacet
  facet normal -0.809017 -0.587785 -1.98745e-07
    outer loop
      vertex 4.9443 -7.06044 12.5126
      vertex -4.08745e-07 -0.255195 3.42767
      vertex -1.9751e-17 -0.255195 1.76382
    endloop
  endfacet
  facet normal -0.809017 -0.587785 0
    outer loop
      vertex -4.08745e-07 -0.255195 3.42767
      vertex 4.9443 -7.06044 12.5126
      vertex 4.9443 -7.06044 15.1667
    endloop
  endfacet
  facet normal -0.309017 0.951056 0
    outer loop
      vertex 8.14388 2.96155 11.0667
      vertex 0.299999 0.412914 2.02764
      vertex 8.14388 2.96155 12.5667
    endloop
  endfacet
  facet normal -0.309017 0.951056 0
    outer loop
      vertex 0.299999 0.412914 2.02764
      vertex 8.14388 2.96155 11.0667
      vertex 0.299999 0.412914 1.47996
    endloop
  endfacet
  facet normal 0.309017 -0.951057 0
    outer loop
      vertex 0.485409 -0.157719 2.02764
      vertex 8.32929 2.39091 11.0667
      vertex 8.32929 2.39091 12.5667
    endloop
  endfacet
  facet normal 0.309017 -0.951057 0
    outer loop
      vertex 8.32929 2.39091 11.0667
      vertex 0.485409 -0.157719 2.02764
      vertex 0.485409 -0.157719 1.47996
    endloop
  endfacet
  facet normal 0.951058 0.309014 0
    outer loop
      vertex 8.14388 2.96155 12.5667
      vertex 8.32929 2.39091 12.5667
      vertex 8.14388 2.96155 11.0667
    endloop
  endfacet
  facet normal 0.951056 0.309018 0
    outer loop
      vertex 8.09753 3.1042 11.0667
      vertex 8.14388 2.96155 11.0667
      vertex 8.09753 3.1042 9.56665
    endloop
  endfacet
  facet normal 0.951062 0.308999 0
    outer loop
      vertex 8.05118 3.24686 9.56665
      vertex 8.09753 3.1042 9.56665
      vertex 8.05118 3.24686 8.06665
    endloop
  endfacet
  facet normal 0.951062 0.308999 0
    outer loop
      vertex 8.00483 3.38952 8.06665
      vertex 8.05118 3.24686 8.06665
      vertex 8.00483 3.38952 6.56665
    endloop
  endfacet
  facet normal 0.951043 0.309059 0
    outer loop
      vertex 8.00483 3.38952 6.56665
      vertex 7.95847 3.53218 0
      vertex 7.95847 3.53218 6.56665
    endloop
  endfacet
  facet normal 0.951057 0.309015 1.6801e-06
    outer loop
      vertex 8.46835 1.96294 6.56665
      vertex 8.00483 3.38952 6.56665
      vertex 8.05118 3.24686 8.06665
    endloop
  endfacet
  facet normal 0.951056 0.309019 2.10012e-06
    outer loop
      vertex 8.422 2.1056 8.06665
      vertex 8.05118 3.24686 8.06665
      vertex 8.09753 3.1042 9.56665
    endloop
  endfacet
  facet normal 0.951055 0.309022 3.96653e-07
    outer loop
      vertex 8.37565 2.24825 9.56665
      vertex 8.09753 3.1042 9.56665
      vertex 8.14388 2.96155 11.0667
    endloop
  endfacet
  facet normal 0.951058 0.309014 -0
    outer loop
      vertex 8.32929 2.39091 11.0667
      vertex 8.14388 2.96155 11.0667
      vertex 8.32929 2.39091 12.5667
    endloop
  endfacet
  facet normal 0.951058 0.309014 4.75513e-06
    outer loop
      vertex 8.37565 2.24825 9.56665
      vertex 8.14388 2.96155 11.0667
      vertex 8.32929 2.39091 11.0667
    endloop
  endfacet
  facet normal 0.951043 0.309059 -0
    outer loop
      vertex 8.37565 2.24825 9.56665
      vertex 8.32929 2.39091 11.0667
      vertex 8.37565 2.24825 11.0667
    endloop
  endfacet
  facet normal 0.951055 0.309022 -3.96666e-07
    outer loop
      vertex 8.09753 3.1042 9.56665
      vertex 8.37565 2.24825 9.56665
      vertex 8.422 2.1056 8.06665
    endloop
  endfacet
  facet normal 0.951056 0.309018 -0
    outer loop
      vertex 8.422 2.1056 8.06665
      vertex 8.37565 2.24825 9.56665
      vertex 8.422 2.1056 9.56665
    endloop
  endfacet
  facet normal 0.951056 0.309019 -2.10012e-06
    outer loop
      vertex 8.05118 3.24686 8.06665
      vertex 8.422 2.1056 8.06665
      vertex 8.46835 1.96294 6.56665
    endloop
  endfacet
  facet normal 0.951062 0.308999 -0
    outer loop
      vertex 8.46835 1.96294 6.56665
      vertex 8.422 2.1056 8.06665
      vertex 8.46835 1.96294 8.06665
    endloop
  endfacet
  facet normal 0.951057 0.309015 -1.06454e-06
    outer loop
      vertex 8.00483 3.38952 6.56665
      vertex 8.46835 1.96294 6.56665
      vertex 7.95847 3.53218 0
    endloop
  endfacet
  facet normal 0.951062 0.308999 -0
    outer loop
      vertex 8.5147 1.82028 0
      vertex 8.46835 1.96294 6.56665
      vertex 8.5147 1.82028 6.56665
    endloop
  endfacet
  facet normal 0.951057 0.309017 -4.40509e-07
    outer loop
      vertex 8.46835 1.96294 6.56665
      vertex 8.5147 1.82028 0
      vertex 7.95847 3.53218 0
    endloop
  endfacet
  facet normal -0.748854 -0.243733 0.616289
    outer loop
      vertex 0.299999 0.412914 2.02764
      vertex 8.15004 2.80583 12.5126
      vertex 8.14388 2.96155 12.5667
    endloop
  endfacet
  facet normal -0.748969 -0.243371 0.616292
    outer loop
      vertex 8.15004 2.80583 12.5126
      vertex 0.299999 0.412914 2.02764
      vertex 0.15 0.206457 1.76382
    endloop
  endfacet
  facet normal -0.749531 -0.243548 0.615539
    outer loop
      vertex 8.32929 2.39091 12.5667
      vertex 8.15004 2.80583 12.5126
      vertex 8.24275 2.52051 12.5126
    endloop
  endfacet
  facet normal -0.749487 -0.24352 0.615603
    outer loop
      vertex 8.15004 2.80583 12.5126
      vertex 8.32929 2.39091 12.5667
      vertex 8.14388 2.96155 12.5667
    endloop
  endfacet
  facet normal -0.748977 -0.243345 0.616293
    outer loop
      vertex 0.485409 -0.157719 2.02764
      vertex 8.24275 2.52051 12.5126
      vertex 0.242704 -0.0788595 1.76382
    endloop
  endfacet
  facet normal -0.749108 -0.242952 0.616289
    outer loop
      vertex 8.24275 2.52051 12.5126
      vertex 0.485409 -0.157719 2.02764
      vertex 8.32929 2.39091 12.5667
    endloop
  endfacet
  facet normal -0.309016 0.951057 0
    outer loop
      vertex 8.09753 3.1042 9.56665
      vertex 0.45 0.619372 1.71994
      vertex 8.09753 3.1042 11.0667
    endloop
  endfacet
  facet normal -0.309016 0.951057 0
    outer loop
      vertex 0.45 0.619372 1.71994
      vertex 8.09753 3.1042 9.56665
      vertex 0.45 0.619372 1.14842
    endloop
  endfacet
  facet normal -0.720967 -0.234257 0.652173
    outer loop
      vertex 0.45 0.619372 1.71994
      vertex 8.14388 2.96155 11.0667
      vertex 8.09753 3.1042 11.0667
    endloop
  endfacet
  facet normal -0.72097 -0.234248 0.652173
    outer loop
      vertex 8.14388 2.96155 11.0667
      vertex 0.45 0.619372 1.71994
      vertex 0.299999 0.412914 1.47996
    endloop
  endfacet
  facet normal -0.720965 -0.234264 0.652173
    outer loop
      vertex 0.728115 -0.236579 1.71994
      vertex 8.32929 2.39091 11.0667
      vertex 0.485409 -0.157719 1.47996
    endloop
  endfacet
  facet normal -0.720957 -0.234288 0.652173
    outer loop
      vertex 8.32929 2.39091 11.0667
      vertex 0.728115 -0.236579 1.71994
      vertex 8.37565 2.24825 11.0667
    endloop
  endfacet
  facet normal 0.309016 -0.951057 0
    outer loop
      vertex 0.728115 -0.236579 1.71994
      vertex 8.37565 2.24825 9.56665
      vertex 8.37565 2.24825 11.0667
    endloop
  endfacet
  facet normal 0.309016 -0.951057 0
    outer loop
      vertex 8.37565 2.24825 9.56665
      vertex 0.728115 -0.236579 1.71994
      vertex 0.728115 -0.236579 1.14842
    endloop
  endfacet
  facet normal -0.309017 0.951057 0
    outer loop
      vertex 8.05118 3.24686 8.06665
      vertex 0.599999 0.825828 1.36456
      vertex 8.05118 3.24686 9.56665
    endloop
  endfacet
  facet normal -0.309017 0.951057 0
    outer loop
      vertex 0.599999 0.825828 1.36456
      vertex 8.05118 3.24686 8.06665
      vertex 0.599999 0.825828 0.769205
    endloop
  endfacet
  facet normal -0.687732 -0.223443 0.690723
    outer loop
      vertex 0.599999 0.825828 1.36456
      vertex 8.09753 3.1042 9.56665
      vertex 8.05118 3.24686 9.56665
    endloop
  endfacet
  facet normal -0.687726 -0.22346 0.690723
    outer loop
      vertex 8.09753 3.1042 9.56665
      vertex 0.599999 0.825828 1.36456
      vertex 0.45 0.619372 1.14842
    endloop
  endfacet
  facet normal -0.687727 -0.223457 0.690723
    outer loop
      vertex 8.37565 2.24825 9.56665
      vertex 0.970819 -0.315438 1.36456
      vertex 8.422 2.1056 9.56665
    endloop
  endfacet
  facet normal -0.687728 -0.223454 0.690723
    outer loop
      vertex 0.970819 -0.315438 1.36456
      vertex 8.37565 2.24825 9.56665
      vertex 0.728115 -0.236579 1.14842
    endloop
  endfacet
  facet normal 0.309017 -0.951056 0
    outer loop
      vertex 0.970819 -0.315438 1.36456
      vertex 8.422 2.1056 8.06665
      vertex 8.422 2.1056 9.56665
    endloop
  endfacet
  facet normal 0.309017 -0.951056 0
    outer loop
      vertex 8.422 2.1056 8.06665
      vertex 0.970819 -0.315438 1.36456
      vertex 0.970819 -0.315438 0.769205
    endloop
  endfacet
  facet normal -0.309016 0.951057 0
    outer loop
      vertex 8.00483 3.38952 6.56665
      vertex 0.75 1.03229 0.961507
      vertex 8.00483 3.38952 8.06665
    endloop
  endfacet
  facet normal -0.309016 0.951057 0
    outer loop
      vertex 0.75 1.03229 0.961507
      vertex 8.00483 3.38952 6.56665
      vertex 0.75 1.03229 0.342312
    endloop
  endfacet
  facet normal -0.64822 -0.210606 0.731748
    outer loop
      vertex 0.75 1.03229 0.961507
      vertex 8.05118 3.24686 8.06665
      vertex 8.00483 3.38952 8.06665
    endloop
  endfacet
  facet normal -0.648219 -0.210611 0.731748
    outer loop
      vertex 8.05118 3.24686 8.06665
      vertex 0.75 1.03229 0.961507
      vertex 0.599999 0.825828 0.769205
    endloop
  endfacet
  facet normal -0.648221 -0.210606 0.731748
    outer loop
      vertex 8.422 2.1056 8.06665
      vertex 1.21353 -0.394298 0.961507
      vertex 8.46835 1.96294 8.06665
    endloop
  endfacet
  facet normal -0.64821 -0.210639 0.731748
    outer loop
      vertex 1.21353 -0.394298 0.961507
      vertex 8.422 2.1056 8.06665
      vertex 0.970819 -0.315438 0.769205
    endloop
  endfacet
  facet normal 0.309017 -0.951056 0
    outer loop
      vertex 1.21353 -0.394298 0.961507
      vertex 8.46835 1.96294 6.56665
      vertex 8.46835 1.96294 8.06665
    endloop
  endfacet
  facet normal 0.309017 -0.951056 0
    outer loop
      vertex 8.46835 1.96294 6.56665
      vertex 1.21353 -0.394298 0.961507
      vertex 1.21353 -0.394298 0.342312
    endloop
  endfacet
  facet normal -0.309017 0.951056 0
    outer loop
      vertex 7.95847 3.53218 0
      vertex 0.9 1.23874 0.510774
      vertex 7.95847 3.53218 6.56665
    endloop
  endfacet
  facet normal -0.309017 0.951056 0
    outer loop
      vertex 0.9 1.23874 0.510774
      vertex 7.95847 3.53218 0
      vertex 0.9 1.23874 0
    endloop
  endfacet
  facet normal -0.601258 -0.19539 0.774798
    outer loop
      vertex 0.9 1.23874 0.510774
      vertex 8.00483 3.38952 6.56665
      vertex 7.95847 3.53218 6.56665
    endloop
  endfacet
  facet normal -0.601264 -0.195371 0.774798
    outer loop
      vertex 8.00483 3.38952 6.56665
      vertex 0.9 1.23874 0.510774
      vertex 0.75 1.03229 0.342312
    endloop
  endfacet
  facet normal -0.601271 -0.195352 0.774798
    outer loop
      vertex 8.46835 1.96294 6.56665
      vertex 1.45623 -0.473158 0.510774
      vertex 8.5147 1.82028 6.56665
    endloop
  endfacet
  facet normal -0.601273 -0.195346 0.774798
    outer loop
      vertex 1.45623 -0.473158 0.510774
      vertex 8.46835 1.96294 6.56665
      vertex 1.21353 -0.394298 0.342312
    endloop
  endfacet
  facet normal 0.309017 -0.951056 0
    outer loop
      vertex 8.5147 1.82028 0
      vertex 1.45623 -0.473158 0.510774
      vertex 1.45623 -0.473158 0
    endloop
  endfacet
  facet normal 0.309017 -0.951056 0
    outer loop
      vertex 1.45623 -0.473158 0.510774
      vertex 8.5147 1.82028 0
      vertex 8.5147 1.82028 6.56665
    endloop
  endfacet
  facet normal -1 0 0
    outer loop
      vertex -0.299999 0.412914 2.02764
      vertex -0.299999 8.66046 11.0667
      vertex -0.299999 0.412914 1.47996
    endloop
  endfacet
  facet normal -1 -0 0
    outer loop
      vertex -0.299999 8.66046 11.0667
      vertex -0.299999 0.412914 2.02764
      vertex -0.299999 8.66046 12.5667
    endloop
  endfacet
  facet normal 1 0 0
    outer loop
      vertex 0.299999 0.412914 2.02764
      vertex 0.299999 8.66046 11.0667
      vertex 0.299999 8.66046 12.5667
    endloop
  endfacet
  facet normal 1 0 0
    outer loop
      vertex 0.299999 8.66046 11.0667
      vertex 0.299999 0.412914 2.02764
      vertex 0.299999 0.412914 1.47996
    endloop
  endfacet
  facet normal 0 1 -0
    outer loop
      vertex 0.9 8.66046 0
      vertex 0.75 8.66046 6.56665
      vertex 0.9 8.66046 6.56665
    endloop
  endfacet
  facet normal 0 1 0
    outer loop
      vertex 0.75 8.66046 6.56665
      vertex 0.9 8.66046 0
      vertex -0.75 8.66046 6.56665
    endloop
  endfacet
  facet normal 0 1 0
    outer loop
      vertex -0.9 8.66046 0
      vertex -0.75 8.66046 6.56665
      vertex 0.9 8.66046 0
    endloop
  endfacet
  facet normal 0 1 0
    outer loop
      vertex -0.75 8.66046 6.56665
      vertex -0.9 8.66046 0
      vertex -0.9 8.66046 6.56665
    endloop
  endfacet
  facet normal 0 1 -0
    outer loop
      vertex 0.75 8.66046 6.56665
      vertex 0.599999 8.66046 8.06665
      vertex 0.75 8.66046 8.06665
    endloop
  endfacet
  facet normal 0 1 0
    outer loop
      vertex 0.599999 8.66046 8.06665
      vertex 0.75 8.66046 6.56665
      vertex -0.599999 8.66046 8.06665
    endloop
  endfacet
  facet normal 0 1 0
    outer loop
      vertex -0.75 8.66046 6.56665
      vertex -0.599999 8.66046 8.06665
      vertex 0.75 8.66046 6.56665
    endloop
  endfacet
  facet normal 0 1 0
    outer loop
      vertex -0.599999 8.66046 8.06665
      vertex -0.75 8.66046 6.56665
      vertex -0.75 8.66046 8.06665
    endloop
  endfacet
  facet normal 0 1 -0
    outer loop
      vertex 0.599999 8.66046 8.06665
      vertex 0.45 8.66046 9.56665
      vertex 0.599999 8.66046 9.56665
    endloop
  endfacet
  facet normal 0 1 0
    outer loop
      vertex 0.45 8.66046 9.56665
      vertex 0.599999 8.66046 8.06665
      vertex -0.45 8.66046 9.56665
    endloop
  endfacet
  facet normal 0 1 0
    outer loop
      vertex -0.599999 8.66046 8.06665
      vertex -0.45 8.66046 9.56665
      vertex 0.599999 8.66046 8.06665
    endloop
  endfacet
  facet normal 0 1 0
    outer loop
      vertex -0.45 8.66046 9.56665
      vertex -0.599999 8.66046 8.06665
      vertex -0.599999 8.66046 9.56665
    endloop
  endfacet
  facet normal 0 1 -0
    outer loop
      vertex 0.45 8.66046 9.56665
      vertex 0.299999 8.66046 11.0667
      vertex 0.45 8.66046 11.0667
    endloop
  endfacet
  facet normal 0 1 0
    outer loop
      vertex 0.299999 8.66046 11.0667
      vertex 0.45 8.66046 9.56665
      vertex -0.299999 8.66046 11.0667
    endloop
  endfacet
  facet normal 0 1 0
    outer loop
      vertex -0.45 8.66046 9.56665
      vertex -0.299999 8.66046 11.0667
      vertex 0.45 8.66046 9.56665
    endloop
  endfacet
  facet normal 0 1 0
    outer loop
      vertex -0.299999 8.66046 11.0667
      vertex -0.45 8.66046 9.56665
      vertex -0.45 8.66046 11.0667
    endloop
  endfacet
  facet normal 0 1 -0
    outer loop
      vertex 0.299999 8.66046 11.0667
      vertex -0.299999 8.66046 12.5667
      vertex 0.299999 8.66046 12.5667
    endloop
  endfacet
  facet normal 0 1 0
    outer loop
      vertex -0.299999 8.66046 12.5667
      vertex 0.299999 8.66046 11.0667
      vertex -0.299999 8.66046 11.0667
    endloop
  endfacet
  facet normal 0 -0.788064 0.615593
    outer loop
      vertex -0.299999 8.66046 12.5667
      vertex -0.15 8.6182 12.5126
      vertex 0.299999 8.66046 12.5667
    endloop
  endfacet
  facet normal 0.000404291 -0.78752 0.616289
    outer loop
      vertex -0.299999 0.412914 2.02764
      vertex -0.15 8.6182 12.5126
      vertex -0.299999 8.66046 12.5667
    endloop
  endfacet
  facet normal 1.2292e-05 -0.787517 0.616293
    outer loop
      vertex -0.15 8.6182 12.5126
      vertex -0.299999 0.412914 2.02764
      vertex -0.15 0.206457 1.76382
    endloop
  endfacet
  facet normal 0 -0.788064 0.615593
    outer loop
      vertex 0.149999 8.6182 12.5126
      vertex 0.299999 8.66046 12.5667
      vertex -0.15 8.6182 12.5126
    endloop
  endfacet
  facet normal -0.000404288 -0.78752 0.616289
    outer loop
      vertex 0.149999 8.6182 12.5126
      vertex 0.299999 0.412914 2.02764
      vertex 0.299999 8.66046 12.5667
    endloop
  endfacet
  facet normal -1.22919e-05 -0.787517 0.616293
    outer loop
      vertex 0.149999 0.206457 1.76382
      vertex 0.299999 0.412914 2.02764
      vertex 0.149999 8.6182 12.5126
    endloop
  endfacet
  facet normal 0 -0.787521 0.616288
    outer loop
      vertex 0.299999 0.412914 2.02764
      vertex 0.149999 0.206457 1.76382
      vertex 0.15 0.206457 1.76382
    endloop
  endfacet
  facet normal -1 0 0
    outer loop
      vertex -0.45 0.619372 1.71994
      vertex -0.45 8.66046 9.56665
      vertex -0.45 0.619372 1.14842
    endloop
  endfacet
  facet normal -1 -0 0
    outer loop
      vertex -0.45 8.66046 9.56665
      vertex -0.45 0.619372 1.71994
      vertex -0.45 8.66046 11.0667
    endloop
  endfacet
  facet normal 0 -0.75807 0.652173
    outer loop
      vertex -0.45 0.619372 1.71994
      vertex -0.299999 8.66046 11.0667
      vertex -0.45 8.66046 11.0667
    endloop
  endfacet
  facet normal -6.89414e-06 -0.75807 0.652173
    outer loop
      vertex -0.299999 8.66046 11.0667
      vertex -0.45 0.619372 1.71994
      vertex -0.299999 0.412914 1.47996
    endloop
  endfacet
  facet normal 0 -0.75807 0.652173
    outer loop
      vertex 0.299999 8.66046 11.0667
      vertex 0.45 0.619372 1.71994
      vertex 0.45 8.66046 11.0667
    endloop
  endfacet
  facet normal 6.89414e-06 -0.75807 0.652173
    outer loop
      vertex 0.45 0.619372 1.71994
      vertex 0.299999 8.66046 11.0667
      vertex 0.299999 0.412914 1.47996
    endloop
  endfacet
  facet normal 1 0 0
    outer loop
      vertex 0.45 0.619372 1.71994
      vertex 0.45 8.66046 9.56665
      vertex 0.45 8.66046 11.0667
    endloop
  endfacet
  facet normal 1 0 0
    outer loop
      vertex 0.45 8.66046 9.56665
      vertex 0.45 0.619372 1.71994
      vertex 0.45 0.619372 1.14842
    endloop
  endfacet
  facet normal -1 0 0
    outer loop
      vertex -0.599999 0.825828 1.36456
      vertex -0.599999 8.66046 8.06665
      vertex -0.599999 0.825828 0.769205
    endloop
  endfacet
  facet normal -1 -0 0
    outer loop
      vertex -0.599999 8.66046 8.06665
      vertex -0.599999 0.825828 1.36456
      vertex -0.599999 8.66046 9.56665
    endloop
  endfacet
  facet normal 0 -0.723119 0.690723
    outer loop
      vertex -0.599999 0.825828 1.36456
      vertex -0.45 8.66046 9.56665
      vertex -0.599999 8.66046 9.56665
    endloop
  endfacet
  facet normal 3.81821e-06 -0.723119 0.690723
    outer loop
      vertex -0.45 8.66046 9.56665
      vertex -0.599999 0.825828 1.36456
      vertex -0.45 0.619372 1.14842
    endloop
  endfacet
  facet normal 0 -0.723119 0.690723
    outer loop
      vertex 0.45 8.66046 9.56665
      vertex 0.599999 0.825828 1.36456
      vertex 0.599999 8.66046 9.56665
    endloop
  endfacet
  facet normal -3.81821e-06 -0.723119 0.690723
    outer loop
      vertex 0.599999 0.825828 1.36456
      vertex 0.45 8.66046 9.56665
      vertex 0.45 0.619372 1.14842
    endloop
  endfacet
  facet normal 1 0 0
    outer loop
      vertex 0.599999 0.825828 1.36456
      vertex 0.599999 8.66046 8.06665
      vertex 0.599999 8.66046 9.56665
    endloop
  endfacet
  facet normal 1 0 0
    outer loop
      vertex 0.599999 8.66046 8.06665
      vertex 0.599999 0.825828 1.36456
      vertex 0.599999 0.825828 0.769205
    endloop
  endfacet
  facet normal -1 0 0
    outer loop
      vertex -0.75 1.03229 0.961507
      vertex -0.75 8.66046 6.56665
      vertex -0.75 1.03229 0.342312
    endloop
  endfacet
  facet normal -1 -0 0
    outer loop
      vertex -0.75 8.66046 6.56665
      vertex -0.75 1.03229 0.961507
      vertex -0.75 8.66046 8.06665
    endloop
  endfacet
  facet normal 0 -0.681575 0.731748
    outer loop
      vertex -0.75 1.03229 0.961507
      vertex -0.599999 8.66046 8.06665
      vertex -0.75 8.66046 8.06665
    endloop
  endfacet
  facet normal -1.84846e-05 -0.681575 0.731748
    outer loop
      vertex -0.599999 8.66046 8.06665
      vertex -0.75 1.03229 0.961507
      vertex -0.599999 0.825828 0.769205
    endloop
  endfacet
  facet normal 0 -0.681575 0.731748
    outer loop
      vertex 0.599999 8.66046 8.06665
      vertex 0.75 1.03229 0.961507
      vertex 0.75 8.66046 8.06665
    endloop
  endfacet
  facet normal 1.84846e-05 -0.681575 0.731748
    outer loop
      vertex 0.75 1.03229 0.961507
      vertex 0.599999 8.66046 8.06665
      vertex 0.599999 0.825828 0.769205
    endloop
  endfacet
  facet normal 1 0 0
    outer loop
      vertex 0.75 1.03229 0.961507
      vertex 0.75 8.66046 6.56665
      vertex 0.75 8.66046 8.06665
    endloop
  endfacet
  facet normal 1 0 0
    outer loop
      vertex 0.75 8.66046 6.56665
      vertex 0.75 1.03229 0.961507
      vertex 0.75 1.03229 0.342312
    endloop
  endfacet
  facet normal -1 0 0
    outer loop
      vertex -0.9 1.23874 0.510774
      vertex -0.9 8.66046 0
      vertex -0.9 1.23874 0
    endloop
  endfacet
  facet normal -1 0 0
    outer loop
      vertex -0.9 8.66046 0
      vertex -0.9 1.23874 0.510774
      vertex -0.9 8.66046 6.56665
    endloop
  endfacet
  facet normal 0 -0.632209 0.774798
    outer loop
      vertex -0.9 1.23874 0.510774
      vertex -0.75 8.66046 6.56665
      vertex -0.9 8.66046 6.56665
    endloop
  endfacet
  facet normal 2.85714e-05 -0.632209 0.774797
    outer loop
      vertex -0.75 8.66046 6.56665
      vertex -0.9 1.23874 0.510774
      vertex -0.75 1.03229 0.342312
    endloop
  endfacet
  facet normal 0 -0.632209 0.774798
    outer loop
      vertex 0.75 8.66046 6.56665
      vertex 0.9 1.23874 0.510774
      vertex 0.9 8.66046 6.56665
    endloop
  endfacet
  facet normal -2.85714e-05 -0.632209 0.774797
    outer loop
      vertex 0.9 1.23874 0.510774
      vertex 0.75 8.66046 6.56665
      vertex 0.75 1.03229 0.342312
    endloop
  endfacet
  facet normal 1 -0 0
    outer loop
      vertex 0.9 1.23874 0.510774
      vertex 0.9 8.66046 0
      vertex 0.9 8.66046 6.56665
    endloop
  endfacet
  facet normal 1 0 0
    outer loop
      vertex 0.9 8.66046 0
      vertex 0.9 1.23874 0.510774
      vertex 0.9 1.23874 0
    endloop
  endfacet
  facet normal -0.309017 -0.951057 0
    outer loop
      vertex -8.32929 2.39091 11.0667
      vertex -0.485409 -0.157719 2.02764
      vertex -8.32929 2.39091 12.5667
    endloop
  endfacet
  facet normal -0.309017 -0.951057 -0
    outer loop
      vertex -0.485409 -0.157719 2.02764
      vertex -8.32929 2.39091 11.0667
      vertex -0.485409 -0.157719 1.47996
    endloop
  endfacet
  facet normal 0.309017 0.951056 0
    outer loop
      vertex -0.299999 0.412914 2.02764
      vertex -8.14388 2.96155 11.0667
      vertex -8.14388 2.96155 12.5667
    endloop
  endfacet
  facet normal 0.309017 0.951056 0
    outer loop
      vertex -8.14388 2.96155 11.0667
      vertex -0.299999 0.412914 2.02764
      vertex -0.299999 0.412914 1.47996
    endloop
  endfacet
  facet normal -0.951043 0.309059 0
    outer loop
      vertex -7.95847 3.53218 0
      vertex -8.00483 3.38952 6.56665
      vertex -7.95847 3.53218 6.56665
    endloop
  endfacet
  facet normal -0.951062 0.308999 0
    outer loop
      vertex -8.00483 3.38952 6.56665
      vertex -8.05118 3.24686 8.06665
      vertex -8.00483 3.38952 8.06665
    endloop
  endfacet
  facet normal -0.951057 0.309015 -1.06454e-06
    outer loop
      vertex -8.46835 1.96294 6.56665
      vertex -8.00483 3.38952 6.56665
      vertex -7.95847 3.53218 0
    endloop
  endfacet
  facet normal -0.951062 0.308999 0
    outer loop
      vertex -8.05118 3.24686 8.06665
      vertex -8.09753 3.1042 9.56665
      vertex -8.05118 3.24686 9.56665
    endloop
  endfacet
  facet normal -0.951057 0.309015 1.6801e-06
    outer loop
      vertex -8.00483 3.38952 6.56665
      vertex -8.46835 1.96294 6.56665
      vertex -8.05118 3.24686 8.06665
    endloop
  endfacet
  facet normal -0.951056 0.309018 0
    outer loop
      vertex -8.09753 3.1042 9.56665
      vertex -8.14388 2.96155 11.0667
      vertex -8.09753 3.1042 11.0667
    endloop
  endfacet
  facet normal -0.951056 0.309019 -2.10012e-06
    outer loop
      vertex -8.422 2.1056 8.06665
      vertex -8.05118 3.24686 8.06665
      vertex -8.46835 1.96294 6.56665
    endloop
  endfacet
  facet normal -0.951058 0.309014 0
    outer loop
      vertex -8.14388 2.96155 11.0667
      vertex -8.32929 2.39091 11.0667
      vertex -8.14388 2.96155 12.5667
    endloop
  endfacet
  facet normal -0.951055 0.309022 -3.96666e-07
    outer loop
      vertex -8.37565 2.24825 9.56665
      vertex -8.09753 3.1042 9.56665
      vertex -8.422 2.1056 8.06665
    endloop
  endfacet
  facet normal -0.951058 0.309014 4.75513e-06
    outer loop
      vertex -8.14388 2.96155 11.0667
      vertex -8.37565 2.24825 9.56665
      vertex -8.32929 2.39091 11.0667
    endloop
  endfacet
  facet normal -0.951055 0.309022 3.96653e-07
    outer loop
      vertex -8.09753 3.1042 9.56665
      vertex -8.37565 2.24825 9.56665
      vertex -8.14388 2.96155 11.0667
    endloop
  endfacet
  facet normal -0.951056 0.309019 2.10012e-06
    outer loop
      vertex -8.05118 3.24686 8.06665
      vertex -8.422 2.1056 8.06665
      vertex -8.09753 3.1042 9.56665
    endloop
  endfacet
  facet normal -0.951057 0.309017 -4.40509e-07
    outer loop
      vertex -8.5147 1.82028 0
      vertex -8.46835 1.96294 6.56665
      vertex -7.95847 3.53218 0
    endloop
  endfacet
  facet normal -0.951062 0.308999 0
    outer loop
      vertex -8.46835 1.96294 6.56665
      vertex -8.5147 1.82028 0
      vertex -8.5147 1.82028 6.56665
    endloop
  endfacet
  facet normal -0.951058 0.309014 0
    outer loop
      vertex -8.14388 2.96155 12.5667
      vertex -8.32929 2.39091 11.0667
      vertex -8.32929 2.39091 12.5667
    endloop
  endfacet
  facet normal -0.951043 0.309059 0
    outer loop
      vertex -8.32929 2.39091 11.0667
      vertex -8.37565 2.24825 9.56665
      vertex -8.37565 2.24825 11.0667
    endloop
  endfacet
  facet normal -0.951056 0.309018 0
    outer loop
      vertex -8.37565 2.24825 9.56665
      vertex -8.422 2.1056 8.06665
      vertex -8.422 2.1056 9.56665
    endloop
  endfacet
  facet normal -0.951062 0.308999 0
    outer loop
      vertex -8.422 2.1056 8.06665
      vertex -8.46835 1.96294 6.56665
      vertex -8.46835 1.96294 8.06665
    endloop
  endfacet
  facet normal 0.749487 -0.24352 0.615603
    outer loop
      vertex -8.32929 2.39091 12.5667
      vertex -8.15004 2.80583 12.5126
      vertex -8.14388 2.96155 12.5667
    endloop
  endfacet
  facet normal 0.749531 -0.243548 0.615539
    outer loop
      vertex -8.15004 2.80583 12.5126
      vertex -8.32929 2.39091 12.5667
      vertex -8.24275 2.52051 12.5126
    endloop
  endfacet
  facet normal 0.749108 -0.242952 0.616289
    outer loop
      vertex -0.485409 -0.157719 2.02764
      vertex -8.24275 2.52051 12.5126
      vertex -8.32929 2.39091 12.5667
    endloop
  endfacet
  facet normal 0.748978 -0.243341 0.616293
    outer loop
      vertex -8.24275 2.52051 12.5126
      vertex -0.485409 -0.157719 2.02764
      vertex -0.242705 -0.0788596 1.76382
    endloop
  endfacet
  facet normal 0.748854 -0.243733 0.616289
    outer loop
      vertex -8.15004 2.80583 12.5126
      vertex -0.299999 0.412914 2.02764
      vertex -8.14388 2.96155 12.5667
    endloop
  endfacet
  facet normal 0.748969 -0.243371 0.616292
    outer loop
      vertex -0.15 0.206457 1.76382
      vertex -0.299999 0.412914 2.02764
      vertex -8.15004 2.80583 12.5126
    endloop
  endfacet
  facet normal -0.309016 -0.951057 0
    outer loop
      vertex -8.37565 2.24825 9.56665
      vertex -0.728115 -0.236579 1.71994
      vertex -8.37565 2.24825 11.0667
    endloop
  endfacet
  facet normal -0.309016 -0.951057 -0
    outer loop
      vertex -0.728115 -0.236579 1.71994
      vertex -8.37565 2.24825 9.56665
      vertex -0.728115 -0.236579 1.14842
    endloop
  endfacet
  facet normal 0.720957 -0.234288 0.652173
    outer loop
      vertex -0.728115 -0.236579 1.71994
      vertex -8.32929 2.39091 11.0667
      vertex -8.37565 2.24825 11.0667
    endloop
  endfacet
  facet normal 0.720965 -0.234264 0.652173
    outer loop
      vertex -8.32929 2.39091 11.0667
      vertex -0.728115 -0.236579 1.71994
      vertex -0.485409 -0.157719 1.47996
    endloop
  endfacet
  facet normal 0.720967 -0.234257 0.652173
    outer loop
      vertex -8.14388 2.96155 11.0667
      vertex -0.45 0.619372 1.71994
      vertex -8.09753 3.1042 11.0667
    endloop
  endfacet
  facet normal 0.72097 -0.234248 0.652173
    outer loop
      vertex -0.45 0.619372 1.71994
      vertex -8.14388 2.96155 11.0667
      vertex -0.299999 0.412914 1.47996
    endloop
  endfacet
  facet normal 0.309016 0.951057 0
    outer loop
      vertex -0.45 0.619372 1.71994
      vertex -8.09753 3.1042 9.56665
      vertex -8.09753 3.1042 11.0667
    endloop
  endfacet
  facet normal 0.309016 0.951057 0
    outer loop
      vertex -8.09753 3.1042 9.56665
      vertex -0.45 0.619372 1.71994
      vertex -0.45 0.619372 1.14842
    endloop
  endfacet
  facet normal -0.309017 -0.951056 0
    outer loop
      vertex -8.422 2.1056 8.06665
      vertex -0.970819 -0.315438 1.36456
      vertex -8.422 2.1056 9.56665
    endloop
  endfacet
  facet normal -0.309017 -0.951056 -0
    outer loop
      vertex -0.970819 -0.315438 1.36456
      vertex -8.422 2.1056 8.06665
      vertex -0.970819 -0.315438 0.769205
    endloop
  endfacet
  facet normal 0.687728 -0.223454 0.690723
    outer loop
      vertex -8.37565 2.24825 9.56665
      vertex -0.970819 -0.315438 1.36456
      vertex -0.728115 -0.236579 1.14842
    endloop
  endfacet
  facet normal 0.687727 -0.223457 0.690723
    outer loop
      vertex -0.970819 -0.315438 1.36456
      vertex -8.37565 2.24825 9.56665
      vertex -8.422 2.1056 9.56665
    endloop
  endfacet
  facet normal 0.687732 -0.223443 0.690723
    outer loop
      vertex -8.09753 3.1042 9.56665
      vertex -0.599999 0.825828 1.36456
      vertex -8.05118 3.24686 9.56665
    endloop
  endfacet
  facet normal 0.687726 -0.22346 0.690723
    outer loop
      vertex -0.599999 0.825828 1.36456
      vertex -8.09753 3.1042 9.56665
      vertex -0.45 0.619372 1.14842
    endloop
  endfacet
  facet normal 0.309017 0.951057 0
    outer loop
      vertex -0.599999 0.825828 1.36456
      vertex -8.05118 3.24686 8.06665
      vertex -8.05118 3.24686 9.56665
    endloop
  endfacet
  facet normal 0.309017 0.951057 0
    outer loop
      vertex -8.05118 3.24686 8.06665
      vertex -0.599999 0.825828 1.36456
      vertex -0.599999 0.825828 0.769205
    endloop
  endfacet
  facet normal -0.309017 -0.951056 0
    outer loop
      vertex -8.46835 1.96294 6.56665
      vertex -1.21353 -0.394298 0.961507
      vertex -8.46835 1.96294 8.06665
    endloop
  endfacet
  facet normal -0.309017 -0.951056 -0
    outer loop
      vertex -1.21353 -0.394298 0.961507
      vertex -8.46835 1.96294 6.56665
      vertex -1.21353 -0.394298 0.342312
    endloop
  endfacet
  facet normal 0.64821 -0.210639 0.731748
    outer loop
      vertex -8.422 2.1056 8.06665
      vertex -1.21353 -0.394298 0.961507
      vertex -0.970819 -0.315438 0.769205
    endloop
  endfacet
  facet normal 0.648221 -0.210606 0.731748
    outer loop
      vertex -1.21353 -0.394298 0.961507
      vertex -8.422 2.1056 8.06665
      vertex -8.46835 1.96294 8.06665
    endloop
  endfacet
  facet normal 0.64822 -0.210606 0.731748
    outer loop
      vertex -8.05118 3.24686 8.06665
      vertex -0.75 1.03229 0.961507
      vertex -8.00483 3.38952 8.06665
    endloop
  endfacet
  facet normal 0.648219 -0.210611 0.731748
    outer loop
      vertex -0.75 1.03229 0.961507
      vertex -8.05118 3.24686 8.06665
      vertex -0.599999 0.825828 0.769205
    endloop
  endfacet
  facet normal 0.309016 0.951057 0
    outer loop
      vertex -0.75 1.03229 0.961507
      vertex -8.00483 3.38952 6.56665
      vertex -8.00483 3.38952 8.06665
    endloop
  endfacet
  facet normal 0.309016 0.951057 0
    outer loop
      vertex -8.00483 3.38952 6.56665
      vertex -0.75 1.03229 0.961507
      vertex -0.75 1.03229 0.342312
    endloop
  endfacet
  facet normal -0.309017 -0.951056 0
    outer loop
      vertex -8.5147 1.82028 0
      vertex -1.45623 -0.473158 0.510774
      vertex -8.5147 1.82028 6.56665
    endloop
  endfacet
  facet normal -0.309017 -0.951056 -0
    outer loop
      vertex -1.45623 -0.473158 0.510774
      vertex -8.5147 1.82028 0
      vertex -1.45623 -0.473158 0
    endloop
  endfacet
  facet normal 0.601273 -0.195346 0.774798
    outer loop
      vertex -8.46835 1.96294 6.56665
      vertex -1.45623 -0.473158 0.510774
      vertex -1.21353 -0.394298 0.342312
    endloop
  endfacet
  facet normal 0.601271 -0.195352 0.774798
    outer loop
      vertex -1.45623 -0.473158 0.510774
      vertex -8.46835 1.96294 6.56665
      vertex -8.5147 1.82028 6.56665
    endloop
  endfacet
  facet normal 0.601258 -0.19539 0.774798
    outer loop
      vertex -8.00483 3.38952 6.56665
      vertex -0.9 1.23874 0.510774
      vertex -7.95847 3.53218 6.56665
    endloop
  endfacet
  facet normal 0.601264 -0.195371 0.774798
    outer loop
      vertex -0.9 1.23874 0.510774
      vertex -8.00483 3.38952 6.56665
      vertex -0.75 1.03229 0.342312
    endloop
  endfacet
  facet normal 0.309017 0.951056 0
    outer loop
      vertex -7.95847 3.53218 0
      vertex -0.9 1.23874 0.510774
      vertex -0.9 1.23874 0
    endloop
  endfacet
  facet normal 0.309017 0.951056 0
    outer loop
      vertex -0.9 1.23874 0.510774
      vertex -7.95847 3.53218 0
      vertex -7.95847 3.53218 6.56665
    endloop
  endfacet
  facet normal 0.809017 -0.587785 0
    outer loop
      vertex -4.84779 -7.1828 11.0667
      vertex 3.87234e-19 -0.510389 2.02764
      vertex -4.84779 -7.1828 12.5667
    endloop
  endfacet
  facet normal 0.809017 -0.587785 -5.89231e-17
    outer loop
      vertex 3.87234e-19 -0.510389 2.02764
      vertex -4.84779 -7.1828 11.0667
      vertex -3.95019e-17 -0.510389 1.47996
    endloop
  endfacet
  facet normal 0 -1 -0
    outer loop
      vertex 3.87234e-19 -0.510389 2.02764
      vertex -3.95019e-17 -0.510389 1.47996
      vertex 3.87234e-19 -0.510389 1.47996
    endloop
  endfacet
  facet normal -0.809017 0.587785 0
    outer loop
      vertex -5.3332 -6.83013 11.0667
      vertex -0.485409 -0.157719 2.02764
      vertex -0.485409 -0.157719 1.47996
    endloop
  endfacet
  facet normal -0.809017 0.587785 0
    outer loop
      vertex -0.485409 -0.157719 2.02764
      vertex -5.3332 -6.83013 11.0667
      vertex -5.3332 -6.83013 12.5667
    endloop
  endfacet
  facet normal -0.587771 -0.809027 0
    outer loop
      vertex -5.81861 -6.47745 0
      vertex -5.69725 -6.56562 6.56665
      vertex -5.81861 -6.47745 6.56665
    endloop
  endfacet
  facet normal -0.587788 -0.809015 4.69687e-07
    outer loop
      vertex -5.69725 -6.56562 6.56665
      vertex -5.81861 -6.47745 0
      vertex -4.48373 -7.4473 6.56665
    endloop
  endfacet
  facet normal -0.587788 -0.809015 4.29112e-07
    outer loop
      vertex -4.36238 -7.53547 0
      vertex -4.48373 -7.4473 6.56665
      vertex -5.81861 -6.47745 0
    endloop
  endfacet
  facet normal -0.587803 -0.809004 0
    outer loop
      vertex -4.48373 -7.4473 6.56665
      vertex -4.36238 -7.53547 0
      vertex -4.36238 -7.53547 6.56665
    endloop
  endfacet
  facet normal -0.587803 -0.809004 0
    outer loop
      vertex -5.69725 -6.56562 6.56665
      vertex -5.5759 -6.65379 8.06665
      vertex -5.69725 -6.56562 8.06665
    endloop
  endfacet
  facet normal -0.587784 -0.809018 -2.328e-06
    outer loop
      vertex -5.5759 -6.65379 8.06665
      vertex -5.69725 -6.56562 6.56665
      vertex -4.60508 -7.35913 8.06665
    endloop
  endfacet
  facet normal -0.587788 -0.809015 1.8624e-06
    outer loop
      vertex -4.48373 -7.4473 6.56665
      vertex -4.60508 -7.35913 8.06665
      vertex -5.69725 -6.56562 6.56665
    endloop
  endfacet
  facet normal -0.587803 -0.809004 0
    outer loop
      vertex -4.60508 -7.35913 8.06665
      vertex -4.48373 -7.4473 6.56665
      vertex -4.48373 -7.4473 8.06665
    endloop
  endfacet
  facet normal -0.587803 -0.809004 0
    outer loop
      vertex -5.5759 -6.65379 8.06665
      vertex -5.45455 -6.74196 9.56665
      vertex -5.5759 -6.65379 9.56665
    endloop
  endfacet
  facet normal -0.587778 -0.809022 -3.104e-06
    outer loop
      vertex -5.45455 -6.74196 9.56665
      vertex -5.5759 -6.65379 8.06665
      vertex -4.72643 -7.27096 9.56665
    endloop
  endfacet
  facet normal -0.587784 -0.809018 2.328e-06
    outer loop
      vertex -4.60508 -7.35913 8.06665
      vertex -4.72643 -7.27096 9.56665
      vertex -5.5759 -6.65379 8.06665
    endloop
  endfacet
  facet normal -0.587803 -0.809004 0
    outer loop
      vertex -4.72643 -7.27096 9.56665
      vertex -4.60508 -7.35913 8.06665
      vertex -4.60508 -7.35913 9.56665
    endloop
  endfacet
  facet normal -0.587803 -0.809004 0
    outer loop
      vertex -5.45455 -6.74196 9.56665
      vertex -5.3332 -6.83013 11.0667
      vertex -5.45455 -6.74196 11.0667
    endloop
  endfacet
  facet normal -0.587784 -0.809018 -2.32793e-06
    outer loop
      vertex -5.3332 -6.83013 11.0667
      vertex -5.45455 -6.74196 9.56665
      vertex -4.84779 -7.1828 11.0667
    endloop
  endfacet
  facet normal -0.587778 -0.809022 -6.20779e-06
    outer loop
      vertex -4.72643 -7.27096 9.56665
      vertex -4.84779 -7.1828 11.0667
      vertex -5.45455 -6.74196 9.56665
    endloop
  endfacet
  facet normal -0.587728 -0.809059 0
    outer loop
      vertex -4.84779 -7.1828 11.0667
      vertex -4.72643 -7.27096 9.56665
      vertex -4.72643 -7.27096 11.0667
    endloop
  endfacet
  facet normal -0.587784 -0.809018 0
    outer loop
      vertex -5.3332 -6.83013 11.0667
      vertex -4.84779 -7.1828 12.5667
      vertex -5.3332 -6.83013 12.5667
    endloop
  endfacet
  facet normal -0.587784 -0.809018 -0
    outer loop
      vertex -4.84779 -7.1828 12.5667
      vertex -5.3332 -6.83013 11.0667
      vertex -4.84779 -7.1828 11.0667
    endloop
  endfacet
  facet normal 0.463223 0.637542 0.615601
    outer loop
      vertex -5.187 -6.8841 12.5126
      vertex -4.84779 -7.1828 12.5667
      vertex -4.9443 -7.06044 12.5126
    endloop
  endfacet
  facet normal -0 0.844903 0.534919
    outer loop
      vertex -3.95019e-17 -0.510389 2.02764
      vertex -4.84779 -7.1828 12.5667
      vertex 3.87234e-19 -0.510389 2.02764
    endloop
  endfacet
  facet normal 0.462583 0.637342 0.616289
    outer loop
      vertex -4.84779 -7.1828 12.5667
      vertex -3.95019e-17 -0.510389 2.02764
      vertex -4.9443 -7.06044 12.5126
    endloop
  endfacet
  facet normal -0 0.71876 0.695259
    outer loop
      vertex -4.08745e-07 -0.255195 1.76382
      vertex -3.95019e-17 -0.510389 2.02764
      vertex -1.9751e-17 -0.255195 1.76382
    endloop
  endfacet
  facet normal 0.462877 0.637125 0.616293
    outer loop
      vertex -3.95019e-17 -0.510389 2.02764
      vertex -4.08745e-07 -0.255195 1.76382
      vertex -4.9443 -7.06044 12.5126
    endloop
  endfacet
  facet normal 0.463164 0.637493 0.615696
    outer loop
      vertex -4.84779 -7.1828 12.5667
      vertex -5.187 -6.8841 12.5126
      vertex -5.3332 -6.83013 12.5667
    endloop
  endfacet
  facet normal 0.463171 0.636915 0.616289
    outer loop
      vertex -5.187 -6.8841 12.5126
      vertex -0.485409 -0.157719 2.02764
      vertex -5.3332 -6.83013 12.5667
    endloop
  endfacet
  facet normal 0.462903 0.637106 0.616292
    outer loop
      vertex -0.485409 -0.157719 2.02764
      vertex -5.187 -6.8841 12.5126
      vertex -0.242705 -0.0788596 1.76382
    endloop
  endfacet
  facet normal 0.809017 -0.587785 0
    outer loop
      vertex -4.72643 -7.27096 9.56665
      vertex 5.80853e-19 -0.765585 1.71994
      vertex -4.72643 -7.27096 11.0667
    endloop
  endfacet
  facet normal 0.809017 -0.587785 -8.46979e-17
    outer loop
      vertex 5.80853e-19 -0.765585 1.71994
      vertex -4.72643 -7.27096 9.56665
      vertex -5.92529e-17 -0.765585 1.14842
    endloop
  endfacet
  facet normal 0 -1 0
    outer loop
      vertex -5.92529e-17 -0.765585 1.14842
      vertex 5.80853e-19 -0.765585 1.14842
      vertex 5.80853e-19 -0.765585 1.71994
    endloop
  endfacet
  facet normal 0.445587 0.613288 0.652174
    outer loop
      vertex -4.84779 -7.1828 11.0667
      vertex -5.92529e-17 -0.765585 1.71994
      vertex -3.95019e-17 -0.510389 1.47996
    endloop
  endfacet
  facet normal 0.445539 0.613323 0.652173
    outer loop
      vertex -5.92529e-17 -0.765585 1.71994
      vertex -4.84779 -7.1828 11.0667
      vertex -4.72643 -7.27096 11.0667
    endloop
  endfacet
  facet normal 0 0.82077 0.571259
    outer loop
      vertex 5.80853e-19 -0.765585 1.71994
      vertex -5.92529e-17 -0.765585 1.71994
      vertex -4.72643 -7.27096 11.0667
    endloop
  endfacet
  facet normal 0.445577 0.613295 0.652174
    outer loop
      vertex -0.728115 -0.236579 1.71994
      vertex -5.3332 -6.83013 11.0667
      vertex -0.485409 -0.157719 1.47996
    endloop
  endfacet
  facet normal 0.445596 0.613282 0.652173
    outer loop
      vertex -5.3332 -6.83013 11.0667
      vertex -0.728115 -0.236579 1.71994
      vertex -5.45455 -6.74196 11.0667
    endloop
  endfacet
  facet normal -0.809017 0.587785 0
    outer loop
      vertex -5.45455 -6.74196 9.56665
      vertex -0.728115 -0.236579 1.71994
      vertex -0.728115 -0.236579 1.14842
    endloop
  endfacet
  facet normal -0.809017 0.587785 0
    outer loop
      vertex -0.728115 -0.236579 1.71994
      vertex -5.45455 -6.74196 9.56665
      vertex -5.45455 -6.74196 11.0667
    endloop
  endfacet
  facet normal 0.809017 -0.587785 0
    outer loop
      vertex -4.60508 -7.35913 8.06665
      vertex 7.7447e-19 -1.02078 1.36456
      vertex -4.60508 -7.35913 9.56665
    endloop
  endfacet
  facet normal 0.809017 -0.587785 -1.08409e-16
    outer loop
      vertex 7.7447e-19 -1.02078 1.36456
      vertex -4.60508 -7.35913 8.06665
      vertex -7.90038e-17 -1.02078 0.769205
    endloop
  endfacet
  facet normal 0 -1 -0
    outer loop
      vertex 7.7447e-19 -1.02078 1.36456
      vertex -7.90038e-17 -1.02078 0.769205
      vertex 7.7447e-19 -1.02078 0.769205
    endloop
  endfacet
  facet normal 0.42504 0.585015 0.690723
    outer loop
      vertex -4.72643 -7.27096 9.56665
      vertex -7.90038e-17 -1.02078 1.36456
      vertex -5.92529e-17 -0.765585 1.14842
    endloop
  endfacet
  facet normal 0.425052 0.585007 0.690723
    outer loop
      vertex -7.90038e-17 -1.02078 1.36456
      vertex -4.72643 -7.27096 9.56665
      vertex -4.60508 -7.35913 9.56665
    endloop
  endfacet
  facet normal 0 0.791268 0.61147
    outer loop
      vertex 7.7447e-19 -1.02078 1.36456
      vertex -7.90038e-17 -1.02078 1.36456
      vertex -4.60508 -7.35913 9.56665
    endloop
  endfacet
  facet normal 0.425042 0.585013 0.690723
    outer loop
      vertex -0.970819 -0.315438 1.36456
      vertex -5.45455 -6.74196 9.56665
      vertex -0.728115 -0.236579 1.14842
    endloop
  endfacet
  facet normal 0.425052 0.585006 0.690723
    outer loop
      vertex -5.45455 -6.74196 9.56665
      vertex -0.970819 -0.315438 1.36456
      vertex -5.5759 -6.65379 9.56665
    endloop
  endfacet
  facet normal -0.809017 0.587785 0
    outer loop
      vertex -5.5759 -6.65379 8.06665
      vertex -0.970819 -0.315438 1.36456
      vertex -0.970819 -0.315438 0.769205
    endloop
  endfacet
  facet normal -0.809017 0.587785 0
    outer loop
      vertex -0.970819 -0.315438 1.36456
      vertex -5.5759 -6.65379 8.06665
      vertex -5.5759 -6.65379 9.56665
    endloop
  endfacet
  facet normal 0.809017 -0.587786 0
    outer loop
      vertex -4.48373 -7.4473 6.56665
      vertex 9.68088e-19 -1.27598 0.961507
      vertex -4.48373 -7.4473 8.06665
    endloop
  endfacet
  facet normal 0.809017 -0.587786 -1.30294e-16
    outer loop
      vertex 9.68088e-19 -1.27598 0.961507
      vertex -4.48373 -7.4473 6.56665
      vertex -9.87549e-17 -1.27598 0.342312
    endloop
  endfacet
  facet normal 0 -1 -0
    outer loop
      vertex 9.68088e-19 -1.27598 0.961507
      vertex -9.87549e-17 -1.27598 0.342312
      vertex 9.68088e-19 -1.27598 0.342312
    endloop
  endfacet
  facet normal 0.400632 0.551397 0.731748
    outer loop
      vertex -4.60508 -7.35913 8.06665
      vertex -9.87549e-17 -1.27598 0.961507
      vertex -7.90038e-17 -1.02078 0.769205
    endloop
  endfacet
  facet normal 0.400632 0.551397 0.731748
    outer loop
      vertex -9.87549e-17 -1.27598 0.961507
      vertex -4.60508 -7.35913 8.06665
      vertex -4.48373 -7.4473 8.06665
    endloop
  endfacet
  facet normal 0 0.754977 0.655751
    outer loop
      vertex 9.68088e-19 -1.27598 0.961507
      vertex -9.87549e-17 -1.27598 0.961507
      vertex -4.48373 -7.4473 8.06665
    endloop
  endfacet
  facet normal 0.400609 0.551414 0.731748
    outer loop
      vertex -1.21353 -0.394298 0.961507
      vertex -5.5759 -6.65379 8.06665
      vertex -0.970819 -0.315438 0.769205
    endloop
  endfacet
  facet normal 0.400632 0.551397 0.731748
    outer loop
      vertex -5.5759 -6.65379 8.06665
      vertex -1.21353 -0.394298 0.961507
      vertex -5.69725 -6.56562 8.06665
    endloop
  endfacet
  facet normal -0.809017 0.587785 0
    outer loop
      vertex -5.69725 -6.56562 6.56665
      vertex -1.21353 -0.394298 0.961507
      vertex -1.21353 -0.394298 0.342312
    endloop
  endfacet
  facet normal -0.809017 0.587785 0
    outer loop
      vertex -1.21353 -0.394298 0.961507
      vertex -5.69725 -6.56562 6.56665
      vertex -5.69725 -6.56562 8.06665
    endloop
  endfacet
  facet normal 0.809017 -0.587785 0
    outer loop
      vertex -4.36238 -7.53547 0
      vertex 1.16171e-18 -1.53117 0.510774
      vertex -4.36238 -7.53547 6.56665
    endloop
  endfacet
  facet normal 0.809017 -0.587785 0
    outer loop
      vertex 1.16171e-18 -1.53117 0.510774
      vertex -4.36238 -7.53547 0
      vertex 1.16171e-18 -1.53117 0
    endloop
  endfacet
  facet normal 0.37159 0.511478 0.774798
    outer loop
      vertex -4.48373 -7.4473 6.56665
      vertex -1.18506e-16 -1.53117 0.510774
      vertex -9.87549e-17 -1.27598 0.342312
    endloop
  endfacet
  facet normal 0.371614 0.51146 0.774798
    outer loop
      vertex -1.18506e-16 -1.53117 0.510774
      vertex -4.48373 -7.4473 6.56665
      vertex -4.36238 -7.53547 6.56665
    endloop
  endfacet
  facet normal 0 0.710124 0.704076
    outer loop
      vertex 1.16171e-18 -1.53117 0.510774
      vertex -1.18506e-16 -1.53117 0.510774
      vertex -4.36238 -7.53547 6.56665
    endloop
  endfacet
  facet normal 0.371611 0.511463 0.774797
    outer loop
      vertex -1.45623 -0.473158 0.510774
      vertex -5.69725 -6.56562 6.56665
      vertex -1.21353 -0.394298 0.342312
    endloop
  endfacet
  facet normal 0.371594 0.511474 0.774798
    outer loop
      vertex -5.69725 -6.56562 6.56665
      vertex -1.45623 -0.473158 0.510774
      vertex -5.81861 -6.47745 6.56665
    endloop
  endfacet
  facet normal -0.809017 0.587786 0
    outer loop
      vertex -5.81861 -6.47745 0
      vertex -1.45623 -0.473158 0.510774
      vertex -1.45623 -0.473158 0
    endloop
  endfacet
  facet normal -0.809017 0.587786 0
    outer loop
      vertex -1.45623 -0.473158 0.510774
      vertex -5.81861 -6.47745 0
      vertex -5.81861 -6.47745 6.56665
    endloop
  endfacet
  facet normal 0.809017 0.587785 -0
    outer loop
      vertex 5.3332 -6.83013 11.0667
      vertex 0.485409 -0.157719 2.02764
      vertex 5.3332 -6.83013 12.5667
    endloop
  endfacet
  facet normal 0.809017 0.587785 0
    outer loop
      vertex 0.485409 -0.157719 2.02764
      vertex 5.3332 -6.83013 11.0667
      vertex 0.485409 -0.157719 1.47996
    endloop
  endfacet
  facet normal -0.809017 -0.587785 0
    outer loop
      vertex 4.84779 -7.1828 11.0667
      vertex -3.95019e-17 -0.510389 2.02764
      vertex 3.87234e-19 -0.510389 1.47996
    endloop
  endfacet
  facet normal -0.809017 -0.587785 0
    outer loop
      vertex -3.95019e-17 -0.510389 2.02764
      vertex 4.84779 -7.1828 11.0667
      vertex 4.84779 -7.1828 12.5667
    endloop
  endfacet
  facet normal -0 1 0
    outer loop
      vertex -3.95019e-17 -0.510389 2.02764
      vertex 3.87234e-19 -0.510389 2.02764
      vertex 3.87234e-19 -0.510389 1.47996
    endloop
  endfacet
  facet normal 0.587803 -0.809004 0
    outer loop
      vertex 4.36238 -7.53547 0
      vertex 4.48373 -7.4473 6.56665
      vertex 4.36238 -7.53547 6.56665
    endloop
  endfacet
  facet normal 0.587788 -0.809015 4.25423e-07
    outer loop
      vertex 4.48373 -7.4473 6.56665
      vertex 4.36238 -7.53547 0
      vertex 5.69725 -6.56562 6.56665
    endloop
  endfacet
  facet normal 0.587788 -0.809015 4.65999e-07
    outer loop
      vertex 5.81861 -6.47745 0
      vertex 5.69725 -6.56562 6.56665
      vertex 4.36238 -7.53547 0
    endloop
  endfacet
  facet normal 0.587771 -0.809027 0
    outer loop
      vertex 5.69725 -6.56562 6.56665
      vertex 5.81861 -6.47745 0
      vertex 5.81861 -6.47745 6.56665
    endloop
  endfacet
  facet normal 0.587803 -0.809004 0
    outer loop
      vertex 4.48373 -7.4473 6.56665
      vertex 4.60508 -7.35913 8.06665
      vertex 4.48373 -7.4473 8.06665
    endloop
  endfacet
  facet normal 0.587784 -0.809018 2.328e-06
    outer loop
      vertex 4.60508 -7.35913 8.06665
      vertex 4.48373 -7.4473 6.56665
      vertex 5.5759 -6.65379 8.06665
    endloop
  endfacet
  facet normal 0.587788 -0.809015 -1.8624e-06
    outer loop
      vertex 5.69725 -6.56562 6.56665
      vertex 5.5759 -6.65379 8.06665
      vertex 4.48373 -7.4473 6.56665
    endloop
  endfacet
  facet normal 0.587803 -0.809004 0
    outer loop
      vertex 5.5759 -6.65379 8.06665
      vertex 5.69725 -6.56562 6.56665
      vertex 5.69725 -6.56562 8.06665
    endloop
  endfacet
  facet normal 0.587803 -0.809004 0
    outer loop
      vertex 4.60508 -7.35913 8.06665
      vertex 4.72643 -7.27096 9.56665
      vertex 4.60508 -7.35913 9.56665
    endloop
  endfacet
  facet normal 0.587778 -0.809022 3.104e-06
    outer loop
      vertex 4.72643 -7.27096 9.56665
      vertex 4.60508 -7.35913 8.06665
      vertex 5.45455 -6.74196 9.56665
    endloop
  endfacet
  facet normal 0.587784 -0.809018 -2.328e-06
    outer loop
      vertex 5.5759 -6.65379 8.06665
      vertex 5.45455 -6.74196 9.56665
      vertex 4.60508 -7.35913 8.06665
    endloop
  endfacet
  facet normal 0.587803 -0.809004 0
    outer loop
      vertex 5.45455 -6.74196 9.56665
      vertex 5.5759 -6.65379 8.06665
      vertex 5.5759 -6.65379 9.56665
    endloop
  endfacet
  facet normal 0.587728 -0.809059 0
    outer loop
      vertex 4.72643 -7.27096 9.56665
      vertex 4.84779 -7.1828 11.0667
      vertex 4.72643 -7.27096 11.0667
    endloop
  endfacet
  facet normal 0.587784 -0.809018 -6.98378e-06
    outer loop
      vertex 4.84779 -7.1828 11.0667
      vertex 4.72643 -7.27096 9.56665
      vertex 5.3332 -6.83013 11.0667
    endloop
  endfacet
  facet normal 0.587778 -0.809022 -3.1039e-06
    outer loop
      vertex 5.45455 -6.74196 9.56665
      vertex 5.3332 -6.83013 11.0667
      vertex 4.72643 -7.27096 9.56665
    endloop
  endfacet
  facet normal 0.587803 -0.809004 0
    outer loop
      vertex 5.3332 -6.83013 11.0667
      vertex 5.45455 -6.74196 9.56665
      vertex 5.45455 -6.74196 11.0667
    endloop
  endfacet
  facet normal 0.587784 -0.809018 0
    outer loop
      vertex 4.84779 -7.1828 11.0667
      vertex 5.3332 -6.83013 12.5667
      vertex 4.84779 -7.1828 12.5667
    endloop
  endfacet
  facet normal 0.587784 -0.809018 0
    outer loop
      vertex 5.3332 -6.83013 12.5667
      vertex 4.84779 -7.1828 11.0667
      vertex 5.3332 -6.83013 11.0667
    endloop
  endfacet
  facet normal -0.463164 0.637493 0.615696
    outer loop
      vertex 5.187 -6.8841 12.5126
      vertex 4.84779 -7.1828 12.5667
      vertex 5.3332 -6.83013 12.5667
    endloop
  endfacet
  facet normal -0.463223 0.637542 0.615601
    outer loop
      vertex 4.84779 -7.1828 12.5667
      vertex 5.187 -6.8841 12.5126
      vertex 4.9443 -7.06044 12.5126
    endloop
  endfacet
  facet normal -0.463171 0.636915 0.616289
    outer loop
      vertex 0.485409 -0.157719 2.02764
      vertex 5.187 -6.8841 12.5126
      vertex 5.3332 -6.83013 12.5667
    endloop
  endfacet
  facet normal -0.4629 0.637108 0.616292
    outer loop
      vertex 0.485409 -0.157719 2.02764
      vertex 0.242704 -0.0788595 1.76382
      vertex 5.187 -6.8841 12.5126
    endloop
  endfacet
  facet normal -0.462583 0.637342 0.616289
    outer loop
      vertex 4.9443 -7.06044 12.5126
      vertex -3.95019e-17 -0.510389 2.02764
      vertex 4.84779 -7.1828 12.5667
    endloop
  endfacet
  facet normal -0.462878 0.637124 0.616293
    outer loop
      vertex -3.95019e-17 -0.510389 2.02764
      vertex 4.9443 -7.06044 12.5126
      vertex -1.9751e-17 -0.255195 1.76382
    endloop
  endfacet
  facet normal 0.809017 0.587785 -0
    outer loop
      vertex 5.45455 -6.74196 9.56665
      vertex 0.728115 -0.236579 1.71994
      vertex 5.45455 -6.74196 11.0667
    endloop
  endfacet
  facet normal 0.809017 0.587785 0
    outer loop
      vertex 0.728115 -0.236579 1.71994
      vertex 5.45455 -6.74196 9.56665
      vertex 0.728115 -0.236579 1.14842
    endloop
  endfacet
  facet normal -0.445596 0.613282 0.652173
    outer loop
      vertex 0.728115 -0.236579 1.71994
      vertex 5.3332 -6.83013 11.0667
      vertex 5.45455 -6.74196 11.0667
    endloop
  endfacet
  facet normal -0.445577 0.613295 0.652174
    outer loop
      vertex 5.3332 -6.83013 11.0667
      vertex 0.728115 -0.236579 1.71994
      vertex 0.485409 -0.157719 1.47996
    endloop
  endfacet
  facet normal -0.445587 0.613288 0.652174
    outer loop
      vertex -5.92529e-17 -0.765585 1.71994
      vertex 4.84779 -7.1828 11.0667
      vertex 3.87234e-19 -0.510389 1.47996
    endloop
  endfacet
  facet normal 0 0.685055 0.728491
    outer loop
      vertex -5.92529e-17 -0.765585 1.71994
      vertex 3.87234e-19 -0.510389 1.47996
      vertex -3.95019e-17 -0.510389 1.47996
    endloop
  endfacet
  facet normal -0.445539 0.613323 0.652173
    outer loop
      vertex 4.84779 -7.1828 11.0667
      vertex -5.92529e-17 -0.765585 1.71994
      vertex 4.72643 -7.27096 11.0667
    endloop
  endfacet
  facet normal -0.809017 -0.587785 0
    outer loop
      vertex 4.72643 -7.27096 9.56665
      vertex -5.92529e-17 -0.765585 1.71994
      vertex 5.80853e-19 -0.765585 1.14842
    endloop
  endfacet
  facet normal -0.809017 -0.587785 0
    outer loop
      vertex -5.92529e-17 -0.765585 1.71994
      vertex 4.72643 -7.27096 9.56665
      vertex 4.72643 -7.27096 11.0667
    endloop
  endfacet
  facet normal 0 1 -0
    outer loop
      vertex 5.80853e-19 -0.765585 1.14842
      vertex -5.92529e-17 -0.765585 1.71994
      vertex 5.80853e-19 -0.765585 1.71994
    endloop
  endfacet
  facet normal 0.809017 0.587785 -0
    outer loop
      vertex 5.5759 -6.65379 8.06665
      vertex 0.970819 -0.315438 1.36456
      vertex 5.5759 -6.65379 9.56665
    endloop
  endfacet
  facet normal 0.809017 0.587785 0
    outer loop
      vertex 0.970819 -0.315438 1.36456
      vertex 5.5759 -6.65379 8.06665
      vertex 0.970819 -0.315438 0.769205
    endloop
  endfacet
  facet normal -0.425052 0.585006 0.690723
    outer loop
      vertex 0.970819 -0.315438 1.36456
      vertex 5.45455 -6.74196 9.56665
      vertex 5.5759 -6.65379 9.56665
    endloop
  endfacet
  facet normal -0.425042 0.585013 0.690723
    outer loop
      vertex 5.45455 -6.74196 9.56665
      vertex 0.970819 -0.315438 1.36456
      vertex 0.728115 -0.236579 1.14842
    endloop
  endfacet
  facet normal -0.42504 0.585015 0.690723
    outer loop
      vertex -7.90038e-17 -1.02078 1.36456
      vertex 4.72643 -7.27096 9.56665
      vertex 5.80853e-19 -0.765585 1.14842
    endloop
  endfacet
  facet normal 0 0.646301 0.763083
    outer loop
      vertex -7.90038e-17 -1.02078 1.36456
      vertex 5.80853e-19 -0.765585 1.14842
      vertex -5.92529e-17 -0.765585 1.14842
    endloop
  endfacet
  facet normal -0.425052 0.585007 0.690723
    outer loop
      vertex 4.72643 -7.27096 9.56665
      vertex -7.90038e-17 -1.02078 1.36456
      vertex 4.60508 -7.35913 9.56665
    endloop
  endfacet
  facet normal -0.809017 -0.587785 0
    outer loop
      vertex 4.60508 -7.35913 8.06665
      vertex -7.90038e-17 -1.02078 1.36456
      vertex 7.7447e-19 -1.02078 0.769205
    endloop
  endfacet
  facet normal -0.809017 -0.587785 0
    outer loop
      vertex -7.90038e-17 -1.02078 1.36456
      vertex 4.60508 -7.35913 8.06665
      vertex 4.60508 -7.35913 9.56665
    endloop
  endfacet
  facet normal 0 1 -0
    outer loop
      vertex 7.7447e-19 -1.02078 0.769205
      vertex -7.90038e-17 -1.02078 1.36456
      vertex 7.7447e-19 -1.02078 1.36456
    endloop
  endfacet
  facet normal 0.809017 0.587785 -0
    outer loop
      vertex 5.69725 -6.56562 6.56665
      vertex 1.21353 -0.394298 0.961507
      vertex 5.69725 -6.56562 8.06665
    endloop
  endfacet
  facet normal 0.809017 0.587785 0
    outer loop
      vertex 1.21353 -0.394298 0.961507
      vertex 5.69725 -6.56562 6.56665
      vertex 1.21353 -0.394298 0.342312
    endloop
  endfacet
  facet normal -0.400632 0.551397 0.731748
    outer loop
      vertex 1.21353 -0.394298 0.961507
      vertex 5.5759 -6.65379 8.06665
      vertex 5.69725 -6.56562 8.06665
    endloop
  endfacet
  facet normal -0.400609 0.551414 0.731748
    outer loop
      vertex 5.5759 -6.65379 8.06665
      vertex 1.21353 -0.394298 0.961507
      vertex 0.970819 -0.315438 0.769205
    endloop
  endfacet
  facet normal -0.400632 0.551397 0.731748
    outer loop
      vertex -9.87549e-17 -1.27598 0.961507
      vertex 4.60508 -7.35913 8.06665
      vertex 7.7447e-19 -1.02078 0.769205
    endloop
  endfacet
  facet normal 0 0.601805 0.798643
    outer loop
      vertex -9.87549e-17 -1.27598 0.961507
      vertex 7.7447e-19 -1.02078 0.769205
      vertex -7.90038e-17 -1.02078 0.769205
    endloop
  endfacet
  facet normal -0.400632 0.551397 0.731748
    outer loop
      vertex 4.60508 -7.35913 8.06665
      vertex -9.87549e-17 -1.27598 0.961507
      vertex 4.48373 -7.4473 8.06665
    endloop
  endfacet
  facet normal -0.809017 -0.587786 0
    outer loop
      vertex 4.48373 -7.4473 6.56665
      vertex -9.87549e-17 -1.27598 0.961507
      vertex 9.68088e-19 -1.27598 0.342312
    endloop
  endfacet
  facet normal -0.809017 -0.587786 0
    outer loop
      vertex -9.87549e-17 -1.27598 0.961507
      vertex 4.48373 -7.4473 6.56665
      vertex 4.48373 -7.4473 8.06665
    endloop
  endfacet
  facet normal -0 1 0
    outer loop
      vertex -9.87549e-17 -1.27598 0.961507
      vertex 9.68088e-19 -1.27598 0.961507
      vertex 9.68088e-19 -1.27598 0.342312
    endloop
  endfacet
  facet normal 0.809017 0.587786 -0
    outer loop
      vertex 5.81861 -6.47745 0
      vertex 1.45623 -0.473158 0.510774
      vertex 5.81861 -6.47745 6.56665
    endloop
  endfacet
  facet normal 0.809017 0.587786 0
    outer loop
      vertex 1.45623 -0.473158 0.510774
      vertex 5.81861 -6.47745 0
      vertex 1.45623 -0.473158 0
    endloop
  endfacet
  facet normal -0.371594 0.511474 0.774798
    outer loop
      vertex 1.45623 -0.473158 0.510774
      vertex 5.69725 -6.56562 6.56665
      vertex 5.81861 -6.47745 6.56665
    endloop
  endfacet
  facet normal -0.371611 0.511463 0.774797
    outer loop
      vertex 5.69725 -6.56562 6.56665
      vertex 1.45623 -0.473158 0.510774
      vertex 1.21353 -0.394298 0.342312
    endloop
  endfacet
  facet normal -0.37159 0.511478 0.774798
    outer loop
      vertex -1.18506e-16 -1.53117 0.510774
      vertex 4.48373 -7.4473 6.56665
      vertex 9.68088e-19 -1.27598 0.342312
    endloop
  endfacet
  facet normal 0 0.550926 0.834554
    outer loop
      vertex -1.18506e-16 -1.53117 0.510774
      vertex 9.68088e-19 -1.27598 0.342312
      vertex -9.87549e-17 -1.27598 0.342312
    endloop
  endfacet
  facet normal -0.371614 0.51146 0.774798
    outer loop
      vertex 4.48373 -7.4473 6.56665
      vertex -1.18506e-16 -1.53117 0.510774
      vertex 4.36238 -7.53547 6.56665
    endloop
  endfacet
  facet normal -0.809017 -0.587785 0
    outer loop
      vertex 4.36238 -7.53547 0
      vertex -1.18506e-16 -1.53117 0.510774
      vertex 1.16171e-18 -1.53117 0
    endloop
  endfacet
  facet normal -0.809017 -0.587785 0
    outer loop
      vertex -1.18506e-16 -1.53117 0.510774
      vertex 4.36238 -7.53547 0
      vertex 4.36238 -7.53547 6.56665
    endloop
  endfacet
  facet normal 0 1 -0
    outer loop
      vertex 1.16171e-18 -1.53117 0
      vertex -1.18506e-16 -1.53117 0.510774
      vertex 1.16171e-18 -1.53117 0.510774
    endloop
  endfacet
  facet normal 0 0 -1
    outer loop
      vertex 1.16171e-18 -1.53117 0
      vertex -1.45623 -0.473158 0
      vertex -0.9 1.23874 0
    endloop
  endfacet
  facet normal 0 0 -1
    outer loop
      vertex -4.36238 -7.53547 0
      vertex -1.45623 -0.473158 0
      vertex 1.16171e-18 -1.53117 0
    endloop
  endfacet
  facet normal 0 0 -1
    outer loop
      vertex -1.45623 -0.473158 0
      vertex -4.36238 -7.53547 0
      vertex -5.81861 -6.47745 0
    endloop
  endfacet
  facet normal 0 0 -1
    outer loop
      vertex 4.36238 -7.53547 0
      vertex 1.45623 -0.473158 0
      vertex 5.81861 -6.47745 0
    endloop
  endfacet
  facet normal 0 0 -1
    outer loop
      vertex 1.16171e-18 -1.53117 0
      vertex 1.45623 -0.473158 0
      vertex 4.36238 -7.53547 0
    endloop
  endfacet
  facet normal 0 0 -1
    outer loop
      vertex 1.16171e-18 -1.53117 0
      vertex 0.9 1.23874 0
      vertex 1.45623 -0.473158 0
    endloop
  endfacet
  facet normal 0 0 -1
    outer loop
      vertex -0.9 1.23874 0
      vertex 0.9 1.23874 0
      vertex 1.16171e-18 -1.53117 0
    endloop
  endfacet
  facet normal 0 0 -1
    outer loop
      vertex 0.9 1.23874 0
      vertex -0.9 1.23874 0
      vertex 0.9 8.66046 0
    endloop
  endfacet
  facet normal -0 0 -1
    outer loop
      vertex 0.9 8.66046 0
      vertex -0.9 1.23874 0
      vertex -0.9 8.66046 0
    endloop
  endfacet
  facet normal 0 0 -1
    outer loop
      vertex 1.45623 -0.473158 0
      vertex 7.95847 3.53218 0
      vertex 8.5147 1.82028 0
    endloop
  endfacet
  facet normal 0 0 -1
    outer loop
      vertex 7.95847 3.53218 0
      vertex 1.45623 -0.473158 0
      vertex 0.9 1.23874 0
    endloop
  endfacet
  facet normal 0 0 -1
    outer loop
      vertex -1.45623 -0.473158 0
      vertex -7.95847 3.53218 0
      vertex -0.9 1.23874 0
    endloop
  endfacet
  facet normal 0 -0 -1
    outer loop
      vertex -7.95847 3.53218 0
      vertex -1.45623 -0.473158 0
      vertex -8.5147 1.82028 0
    endloop
  endfacet
endsolid OpenSCAD_Model
