solid OpenSCAD_Model
  facet normal -0.93969 0 -0.342028
    outer loop
      vertex -11.6801 -11.6801 0
      vertex -13.5 -13.5 5
      vertex -11.6801 11.6801 0
    endloop
  endfacet
  facet normal 0.93969 0 -0.342028
    outer loop
      vertex 13.5 -13.5 5
      vertex 11.6801 11.6801 0
      vertex 13.5 13.5 5
    endloop
  endfacet
  facet normal -0 0 1
    outer loop
      vertex -13.5 13.5 5
      vertex 13.5 -13.5 5
      vertex 13.5 13.5 5
    endloop
  endfacet
  facet normal 0 0 1
    outer loop
      vertex 13.5 -13.5 5
      vertex -13.5 13.5 5
      vertex -13.5 -13.5 5
    endloop
  endfacet
  facet normal -0.93969 0 -0.342028
    outer loop
      vertex -11.6801 11.6801 0
      vertex -13.5 -13.5 5
      vertex -13.5 13.5 5
    endloop
  endfacet
  facet normal 0.93969 0 -0.342028
    outer loop
      vertex 13.5 -13.5 5
      vertex 11.6801 -11.6801 0
      vertex 11.6801 11.6801 0
    endloop
  endfacet
  facet normal 0 0.93969 -0.342028
    outer loop
      vertex 11.6801 11.6801 0
      vertex -13.5 13.5 5
      vertex 13.5 13.5 5
    endloop
  endfacet
  facet normal 0 0.93969 -0.342028
    outer loop
      vertex -13.5 13.5 5
      vertex 11.6801 11.6801 0
      vertex -11.6801 11.6801 0
    endloop
  endfacet
  facet normal 0 0 -1
    outer loop
      vertex -11.6801 -11.6801 0
      vertex 11.6801 11.6801 0
      vertex 11.6801 -11.6801 0
    endloop
  endfacet
  facet normal -0 0 -1
    outer loop
      vertex 11.6801 11.6801 0
      vertex -11.6801 -11.6801 0
      vertex -11.6801 11.6801 0
    endloop
  endfacet
  facet normal 0 -0.93969 -0.342028
    outer loop
      vertex -11.6801 -11.6801 0
      vertex 13.5 -13.5 5
      vertex -13.5 -13.5 5
    endloop
  endfacet
  facet normal 0 -0.93969 -0.342028
    outer loop
      vertex 13.5 -13.5 5
      vertex -11.6801 -11.6801 0
      vertex 11.6801 -11.6801 0
    endloop
  endfacet
  facet normal 0 0.199368 0.979925
    outer loop
      vertex -0.00156879 7.70667 8.43802
      vertex -6.42868 -3.4285 10.7035
      vertex 6.43007 -3.4285 10.7035
    endloop
  endfacet
  facet normal -0.866085 0.499896 0
    outer loop
      vertex -6.42868 -3.4285 5
      vertex -0.00156879 7.70667 8.43802
      vertex -0.00156879 7.70667 5
    endloop
  endfacet
  facet normal -0.866085 0.499896 0
    outer loop
      vertex -0.00156879 7.70667 8.43802
      vertex -6.42868 -3.4285 5
      vertex -6.42868 -3.4285 10.7035
    endloop
  endfacet
  facet normal 0.865933 0.50016 -0
    outer loop
      vertex 6.43007 -3.4285 5
      vertex -0.00156879 7.70667 8.43802
      vertex 6.43007 -3.4285 10.7035
    endloop
  endfacet
  facet normal 0.865933 0.50016 0
    outer loop
      vertex -0.00156879 7.70667 8.43802
      vertex 6.43007 -3.4285 5
      vertex -0.00156879 7.70667 5
    endloop
  endfacet
  facet normal 0 -1 0
    outer loop
      vertex -6.42868 -3.4285 5
      vertex 6.43007 -3.4285 10.7035
      vertex -6.42868 -3.4285 10.7035
    endloop
  endfacet
  facet normal 0 -1 -0
    outer loop
      vertex 6.43007 -3.4285 10.7035
      vertex -6.42868 -3.4285 5
      vertex 6.43007 -3.4285 5
    endloop
  endfacet
  facet normal 0 0 -1
    outer loop
      vertex 6.43007 -3.4285 5
      vertex -6.42868 -3.4285 5
      vertex -0.00156879 7.70667 5
    endloop
  endfacet
endsolid OpenSCAD_Model
