solid OpenSCAD_Model
  facet normal 0 0.982247 -0.187592
    outer loop
      vertex 3.89817 8.53792 12.3395
      vertex -3.56876 8.7281 13.3353
      vertex 3.56876 8.7281 13.3353
    endloop
  endfacet
  facet normal 0 0.982247 -0.187592
    outer loop
      vertex 3.89817 8.53792 12.3395
      vertex -3.89817 8.53792 12.3395
      vertex -3.56876 8.7281 13.3353
    endloop
  endfacet
  facet normal 2.27788e-06 0.982246 -0.187596
    outer loop
      vertex 2.25779 6.97538 4.15807
      vertex 3.89817 8.53792 12.3395
      vertex 5.77437 7.45467 6.66766
    endloop
  endfacet
  facet normal 0 0.982246 -0.187595
    outer loop
      vertex 3.89817 8.53792 12.3395
      vertex 2.25779 6.97538 4.15807
      vertex -3.89817 8.53792 12.3395
    endloop
  endfacet
  facet normal 0 0.982246 -0.187595
    outer loop
      vertex -2.25779 6.97538 4.15807
      vertex -3.89817 8.53792 12.3395
      vertex 2.25779 6.97538 4.15807
    endloop
  endfacet
  facet normal -2.27788e-06 0.982246 -0.187596
    outer loop
      vertex -3.89817 8.53792 12.3395
      vertex -2.25779 6.97538 4.15807
      vertex -5.77437 7.45467 6.66766
    endloop
  endfacet
  facet normal 0 0.982246 -0.187596
    outer loop
      vertex -2.25779 6.97538 4.15807
      vertex 2.25779 6.97538 4.15807
      vertex 0 6.66765 2.54681
    endloop
  endfacet
  facet normal 0 -0.982247 0.187592
    outer loop
      vertex -2.25779 -6.97538 15.8449
      vertex 2.25779 -6.97538 15.8449
      vertex 0 -6.66765 17.4562
    endloop
  endfacet
  facet normal 2.75207e-06 -0.982246 0.187596
    outer loop
      vertex -3.89817 -8.53792 7.6635
      vertex -2.25779 -6.97538 15.8449
      vertex -5.77437 -7.45467 13.3354
    endloop
  endfacet
  facet normal 0 -0.982246 0.187596
    outer loop
      vertex -2.25779 -6.97538 15.8449
      vertex -3.89817 -8.53792 7.6635
      vertex 2.25779 -6.97538 15.8449
    endloop
  endfacet
  facet normal 0 -0.982246 0.187596
    outer loop
      vertex 3.89817 -8.53792 7.6635
      vertex 2.25779 -6.97538 15.8449
      vertex -3.89817 -8.53792 7.6635
    endloop
  endfacet
  facet normal -2.75207e-06 -0.982246 0.187596
    outer loop
      vertex 2.25779 -6.97538 15.8449
      vertex 3.89817 -8.53792 7.6635
      vertex 5.77437 -7.45467 13.3354
    endloop
  endfacet
  facet normal 0 -0.982247 0.18759
    outer loop
      vertex -3.56876 -8.7281 6.66769
      vertex 3.89817 -8.53792 7.6635
      vertex -3.89817 -8.53792 7.6635
    endloop
  endfacet
  facet normal 0 -0.982247 0.18759
    outer loop
      vertex 3.89817 -8.53792 7.6635
      vertex -3.56876 -8.7281 6.66769
      vertex 3.56876 -8.7281 6.66769
    endloop
  endfacet
  facet normal -0.850652 0.491123 0.18759
    outer loop
      vertex -9.34312 0.277596 9.27474
      vertex -5.77437 7.45467 6.66766
      vertex -9.34312 1.2734 6.66766
    endloop
  endfacet
  facet normal -0.850652 0.491123 0.187591
    outer loop
      vertex -5.77437 7.45467 6.66766
      vertex -9.34312 0.277596 9.27474
      vertex -3.89817 8.53792 12.3395
    endloop
  endfacet
  facet normal -0.850652 0.491124 0.187587
    outer loop
      vertex -3.89817 8.53792 12.3395
      vertex -9.34312 0.277596 9.27474
      vertex -9.34312 -0.277596 10.7283
    endloop
  endfacet
  facet normal -0.850648 0.491126 0.187597
    outer loop
      vertex -6.30737 2.64576 16.8407
      vertex -3.56876 8.7281 13.3353
      vertex -3.89817 8.53792 12.3395
    endloop
  endfacet
  facet normal -0.850655 0.49112 0.187581
    outer loop
      vertex -3.56876 8.7281 13.3353
      vertex -6.30737 2.64576 16.8407
      vertex -5.77438 3.33385 17.4562
    endloop
  endfacet
  facet normal -0.850651 0.491123 0.187592
    outer loop
      vertex -9.34312 -0.277596 10.7283
      vertex -6.30737 2.64576 16.8407
      vertex -3.89817 8.53792 12.3395
    endloop
  endfacet
  facet normal -0.850653 0.491119 0.187594
    outer loop
      vertex -6.30737 2.64576 16.8407
      vertex -9.34312 -0.277596 10.7283
      vertex -9.34312 -1.2734 13.3353
    endloop
  endfacet
  facet normal 0.850649 -0.491125 -0.187596
    outer loop
      vertex 5.77437 -7.45467 13.3354
      vertex 9.34312 -0.277596 10.7283
      vertex 9.34312 -1.2734 13.3353
    endloop
  endfacet
  facet normal 0.850652 -0.491123 -0.187589
    outer loop
      vertex 3.89817 -8.53792 7.6635
      vertex 9.34312 -0.277596 10.7283
      vertex 5.77437 -7.45467 13.3354
    endloop
  endfacet
  facet normal 0.850652 -0.491124 -0.187586
    outer loop
      vertex 9.34312 -0.277596 10.7283
      vertex 3.89817 -8.53792 7.6635
      vertex 9.34312 0.277596 9.27474
    endloop
  endfacet
  facet normal 0.850652 -0.491123 -0.18759
    outer loop
      vertex 9.34312 0.277596 9.27474
      vertex 6.30737 -2.64576 3.16227
      vertex 9.34312 1.2734 6.66766
    endloop
  endfacet
  facet normal 0.850652 -0.491123 -0.18759
    outer loop
      vertex 3.89817 -8.53792 7.6635
      vertex 6.30737 -2.64576 3.16227
      vertex 9.34312 0.277596 9.27474
    endloop
  endfacet
  facet normal 0.850649 -0.491126 -0.187596
    outer loop
      vertex 3.56876 -8.7281 6.66769
      vertex 6.30737 -2.64576 3.16227
      vertex 3.89817 -8.53792 7.6635
    endloop
  endfacet
  facet normal 0.850651 -0.491124 -0.187591
    outer loop
      vertex 6.30737 -2.64576 3.16227
      vertex 3.56876 -8.7281 6.66769
      vertex 5.77438 -3.33385 2.54683
    endloop
  endfacet
  facet normal -0.525733 -0.303531 0.794654
    outer loop
      vertex -9.34312 -1.2734 13.3353
      vertex -2.25779 -6.97538 15.8449
      vertex -6.30737 2.64576 16.8407
    endloop
  endfacet
  facet normal -0.525723 -0.303513 0.794667
    outer loop
      vertex -2.25779 -6.97538 15.8449
      vertex -9.34312 -1.2734 13.3353
      vertex -5.77437 -7.45467 13.3354
    endloop
  endfacet
  facet normal -0.525742 -0.303526 0.794649
    outer loop
      vertex 0 1.78425e-05 20.003
      vertex -2.25779 -6.97538 15.8449
      vertex 0 -6.66765 17.4562
    endloop
  endfacet
  facet normal -0.52574 -0.303569 0.794634
    outer loop
      vertex -6.30737 2.64576 16.8407
      vertex 0 1.78425e-05 20.003
      vertex -5.77438 3.33385 17.4562
    endloop
  endfacet
  facet normal -0.525734 -0.303531 0.794653
    outer loop
      vertex 0 1.78425e-05 20.003
      vertex -6.30737 2.64576 16.8407
      vertex -2.25779 -6.97538 15.8449
    endloop
  endfacet
  facet normal 0.52573 0.303527 -0.794656
    outer loop
      vertex 1.00172e-05 -2.36259e-05 0
      vertex 6.30737 -2.64576 3.16227
      vertex 5.77438 -3.33385 2.54683
    endloop
  endfacet
  facet normal 0.525731 0.30353 -0.794655
    outer loop
      vertex 6.30737 -2.64576 3.16227
      vertex 1.00172e-05 -2.36259e-05 0
      vertex 2.25779 6.97538 4.15807
    endloop
  endfacet
  facet normal 0.525732 0.30353 -0.794655
    outer loop
      vertex 0 -6.27551e-06 0
      vertex 2.25779 6.97538 4.15807
      vertex 1.00172e-05 -2.36259e-05 0
    endloop
  endfacet
  facet normal 0.525731 0.30353 -0.794655
    outer loop
      vertex 2.25779 6.97538 4.15807
      vertex 0 -6.27551e-06 0
      vertex 0 6.66765 2.54681
    endloop
  endfacet
  facet normal 0.525732 0.30353 -0.794654
    outer loop
      vertex 2.25779 6.97538 4.15807
      vertex 9.34312 1.2734 6.66766
      vertex 6.30737 -2.64576 3.16227
    endloop
  endfacet
  facet normal 0.525732 0.303531 -0.794654
    outer loop
      vertex 9.34312 1.2734 6.66766
      vertex 2.25779 6.97538 4.15807
      vertex 5.77437 7.45467 6.66766
    endloop
  endfacet
  facet normal 0.525733 -0.303531 0.794654
    outer loop
      vertex 2.25779 -6.97538 15.8449
      vertex 9.34312 -1.2734 13.3353
      vertex 6.30737 2.64576 16.8407
    endloop
  endfacet
  facet normal 0.525723 -0.303513 0.794667
    outer loop
      vertex 9.34312 -1.2734 13.3353
      vertex 2.25779 -6.97538 15.8449
      vertex 5.77437 -7.45467 13.3354
    endloop
  endfacet
  facet normal 0.52574 -0.303569 0.794634
    outer loop
      vertex 0 1.78425e-05 20.003
      vertex 6.30737 2.64576 16.8407
      vertex 5.77438 3.33385 17.4562
    endloop
  endfacet
  facet normal 0.525734 -0.303531 0.794653
    outer loop
      vertex 6.30737 2.64576 16.8407
      vertex 0 1.78425e-05 20.003
      vertex 2.25779 -6.97538 15.8449
    endloop
  endfacet
  facet normal 0.525742 -0.303526 0.794649
    outer loop
      vertex 2.25779 -6.97538 15.8449
      vertex 0 1.78425e-05 20.003
      vertex 0 -6.66765 17.4562
    endloop
  endfacet
  facet normal -0.525732 0.30353 -0.794655
    outer loop
      vertex -2.25779 6.97538 4.15807
      vertex 0 -6.27551e-06 0
      vertex -1.00172e-05 -2.36259e-05 0
    endloop
  endfacet
  facet normal -0.525731 0.30353 -0.794655
    outer loop
      vertex 0 -6.27551e-06 0
      vertex -2.25779 6.97538 4.15807
      vertex 0 6.66765 2.54681
    endloop
  endfacet
  facet normal -0.52573 0.303527 -0.794656
    outer loop
      vertex -6.30737 -2.64576 3.16227
      vertex -1.00172e-05 -2.36259e-05 0
      vertex -5.77438 -3.33385 2.54683
    endloop
  endfacet
  facet normal -0.525731 0.30353 -0.794655
    outer loop
      vertex -1.00172e-05 -2.36259e-05 0
      vertex -6.30737 -2.64576 3.16227
      vertex -2.25779 6.97538 4.15807
    endloop
  endfacet
  facet normal -0.525732 0.30353 -0.794654
    outer loop
      vertex -9.34312 1.2734 6.66766
      vertex -2.25779 6.97538 4.15807
      vertex -6.30737 -2.64576 3.16227
    endloop
  endfacet
  facet normal -0.525732 0.303531 -0.794654
    outer loop
      vertex -2.25779 6.97538 4.15807
      vertex -9.34312 1.2734 6.66766
      vertex -5.77437 7.45467 6.66766
    endloop
  endfacet
  facet normal 0.850652 0.491123 0.187591
    outer loop
      vertex 9.34312 0.277596 9.27474
      vertex 5.77437 7.45467 6.66766
      vertex 3.89817 8.53792 12.3395
    endloop
  endfacet
  facet normal 0.850652 0.491123 0.18759
    outer loop
      vertex 5.77437 7.45467 6.66766
      vertex 9.34312 0.277596 9.27474
      vertex 9.34312 1.2734 6.66766
    endloop
  endfacet
  facet normal 0.850652 0.491124 0.187587
    outer loop
      vertex 9.34312 0.277596 9.27474
      vertex 3.89817 8.53792 12.3395
      vertex 9.34312 -0.277596 10.7283
    endloop
  endfacet
  facet normal 0.850655 0.49112 0.187581
    outer loop
      vertex 6.30737 2.64576 16.8407
      vertex 3.56876 8.7281 13.3353
      vertex 5.77438 3.33385 17.4562
    endloop
  endfacet
  facet normal 0.850648 0.491126 0.187597
    outer loop
      vertex 3.56876 8.7281 13.3353
      vertex 6.30737 2.64576 16.8407
      vertex 3.89817 8.53792 12.3395
    endloop
  endfacet
  facet normal 0.850651 0.491123 0.187592
    outer loop
      vertex 6.30737 2.64576 16.8407
      vertex 9.34312 -0.277596 10.7283
      vertex 3.89817 8.53792 12.3395
    endloop
  endfacet
  facet normal 0.850653 0.491119 0.187594
    outer loop
      vertex 9.34312 -0.277596 10.7283
      vertex 6.30737 2.64576 16.8407
      vertex 9.34312 -1.2734 13.3353
    endloop
  endfacet
  facet normal -0.850652 -0.491123 -0.18759
    outer loop
      vertex -6.30737 -2.64576 3.16227
      vertex -9.34312 0.277596 9.27474
      vertex -9.34312 1.2734 6.66766
    endloop
  endfacet
  facet normal -0.850651 -0.491124 -0.187591
    outer loop
      vertex -3.56876 -8.7281 6.66769
      vertex -6.30737 -2.64576 3.16227
      vertex -5.77438 -3.33385 2.54683
    endloop
  endfacet
  facet normal -0.850652 -0.491123 -0.18759
    outer loop
      vertex -6.30737 -2.64576 3.16227
      vertex -3.89817 -8.53792 7.6635
      vertex -9.34312 0.277596 9.27474
    endloop
  endfacet
  facet normal -0.850649 -0.491126 -0.187596
    outer loop
      vertex -6.30737 -2.64576 3.16227
      vertex -3.56876 -8.7281 6.66769
      vertex -3.89817 -8.53792 7.6635
    endloop
  endfacet
  facet normal -0.850652 -0.491124 -0.187586
    outer loop
      vertex -3.89817 -8.53792 7.6635
      vertex -9.34312 -0.277596 10.7283
      vertex -9.34312 0.277596 9.27474
    endloop
  endfacet
  facet normal -0.850649 -0.491125 -0.187596
    outer loop
      vertex -9.34312 -0.277596 10.7283
      vertex -5.77437 -7.45467 13.3354
      vertex -9.34312 -1.2734 13.3353
    endloop
  endfacet
  facet normal -0.850652 -0.491123 -0.187589
    outer loop
      vertex -9.34312 -0.277596 10.7283
      vertex -3.89817 -8.53792 7.6635
      vertex -5.77437 -7.45467 13.3354
    endloop
  endfacet
  facet normal 1.23332e-07 -0.607064 -0.794653
    outer loop
      vertex 3.56876 -8.7281 6.66769
      vertex 1.00172e-05 -2.36259e-05 0
      vertex 5.77438 -3.33385 2.54683
    endloop
  endfacet
  facet normal 0 -0.607064 -0.794653
    outer loop
      vertex 3.56876 -8.7281 6.66769
      vertex -1.00172e-05 -2.36259e-05 0
      vertex 1.00172e-05 -2.36259e-05 0
    endloop
  endfacet
  facet normal 0 -0.607064 -0.794653
    outer loop
      vertex -3.56876 -8.7281 6.66769
      vertex -1.00172e-05 -2.36259e-05 0
      vertex 3.56876 -8.7281 6.66769
    endloop
  endfacet
  facet normal -1.23332e-07 -0.607064 -0.794653
    outer loop
      vertex -1.00172e-05 -2.36259e-05 0
      vertex -3.56876 -8.7281 6.66769
      vertex -5.77438 -3.33385 2.54683
    endloop
  endfacet
  facet normal -6.46092e-06 0.607066 0.794652
    outer loop
      vertex 3.56876 8.7281 13.3353
      vertex 0 1.78425e-05 20.003
      vertex 5.77438 3.33385 17.4562
    endloop
  endfacet
  facet normal -0 0.607064 0.794653
    outer loop
      vertex -3.56876 8.7281 13.3353
      vertex 0 1.78425e-05 20.003
      vertex 3.56876 8.7281 13.3353
    endloop
  endfacet
  facet normal 6.46092e-06 0.607066 0.794652
    outer loop
      vertex 0 1.78425e-05 20.003
      vertex -3.56876 8.7281 13.3353
      vertex -5.77438 3.33385 17.4562
    endloop
  endfacet
  facet normal 0 0 -1
    outer loop
      vertex 1.00172e-05 -2.36259e-05 0
      vertex -1.00172e-05 -2.36259e-05 0
      vertex 0 -6.27551e-06 0
    endloop
  endfacet
endsolid OpenSCAD_Model
