solid OpenSCAD_Model
  facet normal 0 0 1
    outer loop
      vertex 12 -1.90735e-06 16.9705
      vertex -6 10.3923 16.9705
      vertex -6 -10.3923 16.9705
    endloop
  endfacet
  facet normal -0.942809 0 -0.333334
    outer loop
      vertex -6 -10.3923 16.9705
      vertex -6 10.3923 16.9705
      vertex 0 0 0
    endloop
  endfacet
  facet normal 0.471404 -0.816496 -0.333334
    outer loop
      vertex 12 -1.90735e-06 16.9705
      vertex -6 -10.3923 16.9705
      vertex 0 0 0
    endloop
  endfacet
  facet normal 0.471404 0.816496 -0.333334
    outer loop
      vertex 0 0 0
      vertex -6 10.3923 16.9705
      vertex 12 -1.90735e-06 16.9705
    endloop
  endfacet
endsolid OpenSCAD_Model
