solid OpenSCAD_Model
  facet normal -0.408248 0.707108 -0.57735
    outer loop
      vertex 5.30723 9.19239 7.50555
      vertex -10.6145 0 7.50555
      vertex -5.30723 9.19239 15.0111
    endloop
  endfacet
  facet normal -0.408248 0.707107 -0.577351
    outer loop
      vertex -2.35514e-15 0 0
      vertex 5.30723 9.19239 7.50555
      vertex 1.17757e-15 2.03961e-15 0
    endloop
  endfacet
  facet normal -0.408247 0.707107 -0.577351
    outer loop
      vertex 5.30723 9.19239 7.50555
      vertex -2.35514e-15 0 0
      vertex -10.6145 0 7.50555
    endloop
  endfacet
  facet normal -0.816496 3.34665e-06 0.577351
    outer loop
      vertex -10.6145 0 7.50555
      vertex 0 0 22.5167
      vertex -5.30723 9.19239 15.0111
    endloop
  endfacet
  facet normal -0.816496 -3.34665e-06 0.577351
    outer loop
      vertex 0 0 22.5167
      vertex -10.6145 0 7.50555
      vertex -5.30723 -9.19239 15.0111
    endloop
  endfacet
  facet normal 0.408248 -0.707108 0.577349
    outer loop
      vertex -5.30723 -9.19239 15.0111
      vertex 10.6145 0 15.0111
      vertex 0 0 22.5167
    endloop
  endfacet
  facet normal 0.408248 -0.707108 0.57735
    outer loop
      vertex 10.6145 0 15.0111
      vertex -5.30723 -9.19239 15.0111
      vertex 5.30723 -9.19239 7.50555
    endloop
  endfacet
  facet normal 0.408248 0.707108 0.577349
    outer loop
      vertex 10.6145 0 15.0111
      vertex -5.30723 9.19239 15.0111
      vertex 0 0 22.5167
    endloop
  endfacet
  facet normal 0.408248 0.707108 0.57735
    outer loop
      vertex -5.30723 9.19239 15.0111
      vertex 10.6145 0 15.0111
      vertex 5.30723 9.19239 7.50555
    endloop
  endfacet
  facet normal 0.816495 1.77646e-06 -0.577352
    outer loop
      vertex 10.6145 0 15.0111
      vertex 1.17757e-15 2.03961e-15 0
      vertex 5.30723 9.19239 7.50555
    endloop
  endfacet
  facet normal 0.816495 0 -0.577352
    outer loop
      vertex 10.6145 0 15.0111
      vertex 1.17757e-15 -2.03961e-15 0
      vertex 1.17757e-15 2.03961e-15 0
    endloop
  endfacet
  facet normal 0.816495 -1.77646e-06 -0.577352
    outer loop
      vertex 1.17757e-15 -2.03961e-15 0
      vertex 10.6145 0 15.0111
      vertex 5.30723 -9.19239 7.50555
    endloop
  endfacet
  facet normal -0.408248 -0.707108 -0.57735
    outer loop
      vertex -10.6145 0 7.50555
      vertex 5.30723 -9.19239 7.50555
      vertex -5.30723 -9.19239 15.0111
    endloop
  endfacet
  facet normal -0.408247 -0.707107 -0.577351
    outer loop
      vertex -2.35514e-15 0 0
      vertex 5.30723 -9.19239 7.50555
      vertex -10.6145 0 7.50555
    endloop
  endfacet
  facet normal -0.333333 -0.666667 -0.666667
    outer loop
      vertex 5.30723 -9.19239 7.50555
      vertex -2.35514e-15 0 0
      vertex 1.17757e-15 -2.03961e-15 0
    endloop
  endfacet
  facet normal 0 0 -1
    outer loop
      vertex 1.17757e-15 -2.03961e-15 0
      vertex -2.35514e-15 0 0
      vertex 1.17757e-15 2.03961e-15 0
    endloop
  endfacet
endsolid OpenSCAD_Model
