solid OpenSCAD_Model
  facet normal 0 0 1
    outer loop
      vertex 17.642 7.85471 0
      vertex 19.3115 0 0
      vertex 18.8895 4.01509 0
    endloop
  endfacet
  facet normal 0 0 1
    outer loop
      vertex 17.642 7.85471 0
      vertex 15.6234 11.351 0
      vertex 9.65576 16.7243 0
    endloop
  endfacet
  facet normal 0 0 1
    outer loop
      vertex 9.65576 16.7243 0
      vertex 15.6234 11.351 0
      vertex 12.9219 14.3513 0
    endloop
  endfacet
  facet normal 0 0 1
    outer loop
      vertex 2.0186 19.2057 0
      vertex 9.65576 16.7243 0
      vertex 5.96759 18.3664 0
    endloop
  endfacet
  facet normal 0 0 1
    outer loop
      vertex 17.642 7.85471 0
      vertex 9.65576 16.7243 0
      vertex 2.0186 19.2057 0
    endloop
  endfacet
  facet normal 0 0 1
    outer loop
      vertex -17.642 7.85471 0
      vertex -17.642 -7.85471 0
      vertex -2.0186 -19.2057 0
    endloop
  endfacet
  facet normal -0 0 1
    outer loop
      vertex -17.642 7.85471 0
      vertex -2.0186 -19.2057 0
      vertex -2.0186 19.2057 0
    endloop
  endfacet
  facet normal 0 0 1
    outer loop
      vertex -2.0186 19.2057 0
      vertex -5.96759 18.3664 0
      vertex -9.65576 16.7243 0
    endloop
  endfacet
  facet normal 0 0 1
    outer loop
      vertex -15.6234 11.351 0
      vertex -9.65576 16.7243 0
      vertex -12.9219 14.3513 0
    endloop
  endfacet
  facet normal 0 0 1
    outer loop
      vertex -17.642 7.85471 0
      vertex -9.65576 16.7243 0
      vertex -15.6234 11.351 0
    endloop
  endfacet
  facet normal 0 0 1
    outer loop
      vertex -2.0186 19.2057 0
      vertex -9.65576 16.7243 0
      vertex -17.642 7.85471 0
    endloop
  endfacet
  facet normal 0 -0 1
    outer loop
      vertex -17.642 -7.85471 0
      vertex -17.642 7.85471 0
      vertex -19.3115 0 0
    endloop
  endfacet
  facet normal 0 0 1
    outer loop
      vertex -9.65576 -16.7243 0
      vertex -5.96759 -18.3664 0
      vertex -2.0186 -19.2057 0
    endloop
  endfacet
  facet normal -0 0 1
    outer loop
      vertex -18.8895 4.01509 0
      vertex -19.3115 0 0
      vertex -17.642 7.85471 0
    endloop
  endfacet
  facet normal -0 -0 1
    outer loop
      vertex -9.65576 -16.7243 0
      vertex -2.0186 -19.2057 0
      vertex -17.642 -7.85471 0
    endloop
  endfacet
  facet normal -0 -0 1
    outer loop
      vertex -18.8895 -4.01509 0
      vertex -17.642 -7.85471 0
      vertex -19.3115 0 0
    endloop
  endfacet
  facet normal 0 0 1
    outer loop
      vertex -9.65576 -16.7243 0
      vertex -15.6234 -11.351 0
      vertex -12.9219 -14.3513 0
    endloop
  endfacet
  facet normal 0 0 1
    outer loop
      vertex -17.642 -7.85471 0
      vertex -15.6234 -11.351 0
      vertex -9.65576 -16.7243 0
    endloop
  endfacet
  facet normal 0 0 1
    outer loop
      vertex -2.0186 -19.2057 0
      vertex 2.0186 -19.2057 0
      vertex -2.0186 19.2057 0
    endloop
  endfacet
  facet normal 0 -0 1
    outer loop
      vertex 2.0186 -19.2057 0
      vertex 2.0186 19.2057 0
      vertex -2.0186 19.2057 0
    endloop
  endfacet
  facet normal 0 0 1
    outer loop
      vertex 17.642 -7.85471 0
      vertex 2.0186 19.2057 0
      vertex 2.0186 -19.2057 0
    endloop
  endfacet
  facet normal 0 0 1
    outer loop
      vertex 17.642 7.85471 0
      vertex 2.0186 19.2057 0
      vertex 17.642 -7.85471 0
    endloop
  endfacet
  facet normal 0 0 1
    outer loop
      vertex 2.0186 -19.2057 0
      vertex 5.96759 -18.3664 0
      vertex 9.65576 -16.7243 0
    endloop
  endfacet
  facet normal 0 0 1
    outer loop
      vertex 17.642 -7.85471 0
      vertex 9.65576 -16.7243 0
      vertex 15.6234 -11.351 0
    endloop
  endfacet
  facet normal 0 0 1
    outer loop
      vertex 9.65576 -16.7243 0
      vertex 12.9219 -14.3513 0
      vertex 15.6234 -11.351 0
    endloop
  endfacet
  facet normal 0 0 1
    outer loop
      vertex 2.0186 -19.2057 0
      vertex 9.65576 -16.7243 0
      vertex 17.642 -7.85471 0
    endloop
  endfacet
  facet normal 0 0 1
    outer loop
      vertex 17.642 7.85471 0
      vertex 17.642 -7.85471 0
      vertex 19.3115 0 0
    endloop
  endfacet
  facet normal 0 0 1
    outer loop
      vertex 17.642 -7.85471 0
      vertex 18.8895 -4.01509 0
      vertex 19.3115 0 0
    endloop
  endfacet
  facet normal -0 -0 -1
    outer loop
      vertex 18.8895 4.01509 -10
      vertex 19.3115 0 -10
      vertex 17.642 7.85471 -10
    endloop
  endfacet
  facet normal 0 0 -1
    outer loop
      vertex 9.65576 16.7243 -10
      vertex 15.6234 11.351 -10
      vertex 17.642 7.85471 -10
    endloop
  endfacet
  facet normal -0 -0 -1
    outer loop
      vertex 12.9219 14.3513 -10
      vertex 15.6234 11.351 -10
      vertex 9.65576 16.7243 -10
    endloop
  endfacet
  facet normal -0 -0 -1
    outer loop
      vertex 5.96759 18.3664 -10
      vertex 9.65576 16.7243 -10
      vertex 2.0186 19.2057 -10
    endloop
  endfacet
  facet normal 0 0 -1
    outer loop
      vertex 2.0186 19.2057 -10
      vertex 9.65576 16.7243 -10
      vertex 17.642 7.85471 -10
    endloop
  endfacet
  facet normal 0 0 -1
    outer loop
      vertex -2.0186 -19.2057 -10
      vertex -17.642 -7.85471 -10
      vertex -17.642 7.85471 -10
    endloop
  endfacet
  facet normal 0 -0 -1
    outer loop
      vertex -2.0186 19.2057 -10
      vertex -2.0186 -19.2057 -10
      vertex -17.642 7.85471 -10
    endloop
  endfacet
  facet normal 0 0 -1
    outer loop
      vertex -9.65576 16.7243 -10
      vertex -5.96759 18.3664 -10
      vertex -2.0186 19.2057 -10
    endloop
  endfacet
  facet normal 0 -0 -1
    outer loop
      vertex -12.9219 14.3513 -10
      vertex -9.65576 16.7243 -10
      vertex -15.6234 11.351 -10
    endloop
  endfacet
  facet normal 0 -0 -1
    outer loop
      vertex -15.6234 11.351 -10
      vertex -9.65576 16.7243 -10
      vertex -17.642 7.85471 -10
    endloop
  endfacet
  facet normal 0 0 -1
    outer loop
      vertex -17.642 7.85471 -10
      vertex -9.65576 16.7243 -10
      vertex -2.0186 19.2057 -10
    endloop
  endfacet
  facet normal 0 0 -1
    outer loop
      vertex -19.3115 0 -10
      vertex -17.642 7.85471 -10
      vertex -17.642 -7.85471 -10
    endloop
  endfacet
  facet normal 0 0 -1
    outer loop
      vertex -2.0186 -19.2057 -10
      vertex -5.96759 -18.3664 -10
      vertex -9.65576 -16.7243 -10
    endloop
  endfacet
  facet normal 0 0 -1
    outer loop
      vertex -17.642 7.85471 -10
      vertex -19.3115 0 -10
      vertex -18.8895 4.01509 -10
    endloop
  endfacet
  facet normal 0 0 -1
    outer loop
      vertex -17.642 -7.85471 -10
      vertex -2.0186 -19.2057 -10
      vertex -9.65576 -16.7243 -10
    endloop
  endfacet
  facet normal 0 0 -1
    outer loop
      vertex -19.3115 0 -10
      vertex -17.642 -7.85471 -10
      vertex -18.8895 -4.01509 -10
    endloop
  endfacet
  facet normal 0 0 -1
    outer loop
      vertex -12.9219 -14.3513 -10
      vertex -15.6234 -11.351 -10
      vertex -9.65576 -16.7243 -10
    endloop
  endfacet
  facet normal 0 0 -1
    outer loop
      vertex -9.65576 -16.7243 -10
      vertex -15.6234 -11.351 -10
      vertex -17.642 -7.85471 -10
    endloop
  endfacet
  facet normal 0 0 -1
    outer loop
      vertex -2.0186 19.2057 -10
      vertex 2.0186 -19.2057 -10
      vertex -2.0186 -19.2057 -10
    endloop
  endfacet
  facet normal 0 0 -1
    outer loop
      vertex -2.0186 19.2057 -10
      vertex 2.0186 19.2057 -10
      vertex 2.0186 -19.2057 -10
    endloop
  endfacet
  facet normal 0 0 -1
    outer loop
      vertex 2.0186 -19.2057 -10
      vertex 2.0186 19.2057 -10
      vertex 17.642 -7.85471 -10
    endloop
  endfacet
  facet normal 0 0 -1
    outer loop
      vertex 17.642 -7.85471 -10
      vertex 2.0186 19.2057 -10
      vertex 17.642 7.85471 -10
    endloop
  endfacet
  facet normal 0 0 -1
    outer loop
      vertex 9.65576 -16.7243 -10
      vertex 5.96759 -18.3664 -10
      vertex 2.0186 -19.2057 -10
    endloop
  endfacet
  facet normal -0 0 -1
    outer loop
      vertex 15.6234 -11.351 -10
      vertex 9.65576 -16.7243 -10
      vertex 17.642 -7.85471 -10
    endloop
  endfacet
  facet normal 0 0 -1
    outer loop
      vertex 15.6234 -11.351 -10
      vertex 12.9219 -14.3513 -10
      vertex 9.65576 -16.7243 -10
    endloop
  endfacet
  facet normal 0 0 -1
    outer loop
      vertex 17.642 -7.85471 -10
      vertex 9.65576 -16.7243 -10
      vertex 2.0186 -19.2057 -10
    endloop
  endfacet
  facet normal -0 0 -1
    outer loop
      vertex 19.3115 0 -10
      vertex 17.642 -7.85471 -10
      vertex 17.642 7.85471 -10
    endloop
  endfacet
  facet normal 0 0 -1
    outer loop
      vertex 19.3115 0 -10
      vertex 18.8895 -4.01509 -10
      vertex 17.642 -7.85471 -10
    endloop
  endfacet
  facet normal 0.994522 0.104528 0
    outer loop
      vertex 19.3115 0 0
      vertex 19.3115 0 -10
      vertex 18.8895 4.01509 0
    endloop
  endfacet
  facet normal 0.994522 0.104528 0
    outer loop
      vertex 19.3115 0 -10
      vertex 18.8895 4.01509 -10
      vertex 18.8895 4.01509 0
    endloop
  endfacet
  facet normal 0.951061 0.309002 0
    outer loop
      vertex 18.8895 4.01509 0
      vertex 18.8895 4.01509 -10
      vertex 17.642 7.85471 0
    endloop
  endfacet
  facet normal 0.951061 0.309002 0
    outer loop
      vertex 18.8895 4.01509 -10
      vertex 17.642 7.85471 -10
      vertex 17.642 7.85471 0
    endloop
  endfacet
  facet normal 0.866024 0.500003 0
    outer loop
      vertex 17.642 7.85471 0
      vertex 17.642 7.85471 -10
      vertex 15.6234 11.351 0
    endloop
  endfacet
  facet normal 0.866024 0.500003 0
    outer loop
      vertex 17.642 7.85471 -10
      vertex 15.6234 11.351 -10
      vertex 15.6234 11.351 0
    endloop
  endfacet
  facet normal 0.743143 0.669133 0
    outer loop
      vertex 15.6234 11.351 0
      vertex 15.6234 11.351 -10
      vertex 12.9219 14.3513 0
    endloop
  endfacet
  facet normal 0.743143 0.669133 0
    outer loop
      vertex 15.6234 11.351 -10
      vertex 12.9219 14.3513 -10
      vertex 12.9219 14.3513 0
    endloop
  endfacet
  facet normal 0.587787 0.809016 0
    outer loop
      vertex 12.9219 14.3513 0
      vertex 12.9219 14.3513 -10
      vertex 9.65576 16.7243 0
    endloop
  endfacet
  facet normal 0.587787 0.809016 0
    outer loop
      vertex 12.9219 14.3513 -10
      vertex 9.65576 16.7243 -10
      vertex 9.65576 16.7243 0
    endloop
  endfacet
  facet normal 0.406741 0.913544 0
    outer loop
      vertex 9.65576 16.7243 0
      vertex 9.65576 16.7243 -10
      vertex 5.96759 18.3664 0
    endloop
  endfacet
  facet normal 0.406741 0.913544 0
    outer loop
      vertex 9.65576 16.7243 -10
      vertex 5.96759 18.3664 -10
      vertex 5.96759 18.3664 0
    endloop
  endfacet
  facet normal 0.207892 0.978152 0
    outer loop
      vertex 5.96759 18.3664 0
      vertex 5.96759 18.3664 -10
      vertex 2.0186 19.2057 0
    endloop
  endfacet
  facet normal 0.207892 0.978152 0
    outer loop
      vertex 5.96759 18.3664 -10
      vertex 2.0186 19.2057 -10
      vertex 2.0186 19.2057 0
    endloop
  endfacet
  facet normal 0 1 0
    outer loop
      vertex 2.0186 19.2057 0
      vertex 2.0186 19.2057 -10
      vertex -2.0186 19.2057 0
    endloop
  endfacet
  facet normal 0 1 0
    outer loop
      vertex 2.0186 19.2057 -10
      vertex -2.0186 19.2057 -10
      vertex -2.0186 19.2057 0
    endloop
  endfacet
  facet normal -0.207892 0.978152 0
    outer loop
      vertex -2.0186 19.2057 0
      vertex -2.0186 19.2057 -10
      vertex -5.96759 18.3664 0
    endloop
  endfacet
  facet normal -0.207892 0.978152 0
    outer loop
      vertex -2.0186 19.2057 -10
      vertex -5.96759 18.3664 -10
      vertex -5.96759 18.3664 0
    endloop
  endfacet
  facet normal -0.406741 0.913544 0
    outer loop
      vertex -5.96759 18.3664 0
      vertex -5.96759 18.3664 -10
      vertex -9.65576 16.7243 0
    endloop
  endfacet
  facet normal -0.406741 0.913544 0
    outer loop
      vertex -5.96759 18.3664 -10
      vertex -9.65576 16.7243 -10
      vertex -9.65576 16.7243 0
    endloop
  endfacet
  facet normal -0.587787 0.809016 0
    outer loop
      vertex -9.65576 16.7243 0
      vertex -9.65576 16.7243 -10
      vertex -12.9219 14.3513 0
    endloop
  endfacet
  facet normal -0.587787 0.809016 0
    outer loop
      vertex -9.65576 16.7243 -10
      vertex -12.9219 14.3513 -10
      vertex -12.9219 14.3513 0
    endloop
  endfacet
  facet normal -0.743143 0.669133 0
    outer loop
      vertex -12.9219 14.3513 0
      vertex -12.9219 14.3513 -10
      vertex -15.6234 11.351 0
    endloop
  endfacet
  facet normal -0.743143 0.669133 0
    outer loop
      vertex -12.9219 14.3513 -10
      vertex -15.6234 11.351 -10
      vertex -15.6234 11.351 0
    endloop
  endfacet
  facet normal -0.866024 0.500003 0
    outer loop
      vertex -15.6234 11.351 0
      vertex -15.6234 11.351 -10
      vertex -17.642 7.85471 0
    endloop
  endfacet
  facet normal -0.866024 0.500003 0
    outer loop
      vertex -15.6234 11.351 -10
      vertex -17.642 7.85471 -10
      vertex -17.642 7.85471 0
    endloop
  endfacet
  facet normal -0.951061 0.309002 0
    outer loop
      vertex -17.642 7.85471 0
      vertex -17.642 7.85471 -10
      vertex -18.8895 4.01509 0
    endloop
  endfacet
  facet normal -0.951061 0.309002 0
    outer loop
      vertex -17.642 7.85471 -10
      vertex -18.8895 4.01509 -10
      vertex -18.8895 4.01509 0
    endloop
  endfacet
  facet normal -0.994522 0.104528 0
    outer loop
      vertex -18.8895 4.01509 0
      vertex -18.8895 4.01509 -10
      vertex -19.3115 0 0
    endloop
  endfacet
  facet normal -0.994522 0.104528 0
    outer loop
      vertex -18.8895 4.01509 -10
      vertex -19.3115 0 -10
      vertex -19.3115 0 0
    endloop
  endfacet
  facet normal -0.994522 -0.104528 -0
    outer loop
      vertex -19.3115 0 0
      vertex -19.3115 0 -10
      vertex -18.8895 -4.01509 0
    endloop
  endfacet
  facet normal -0.994522 -0.104528 0
    outer loop
      vertex -19.3115 0 -10
      vertex -18.8895 -4.01509 -10
      vertex -18.8895 -4.01509 0
    endloop
  endfacet
  facet normal -0.951061 -0.309002 -0
    outer loop
      vertex -18.8895 -4.01509 0
      vertex -18.8895 -4.01509 -10
      vertex -17.642 -7.85471 0
    endloop
  endfacet
  facet normal -0.951061 -0.309002 0
    outer loop
      vertex -18.8895 -4.01509 -10
      vertex -17.642 -7.85471 -10
      vertex -17.642 -7.85471 0
    endloop
  endfacet
  facet normal -0.866024 -0.500003 -0
    outer loop
      vertex -17.642 -7.85471 0
      vertex -17.642 -7.85471 -10
      vertex -15.6234 -11.351 0
    endloop
  endfacet
  facet normal -0.866024 -0.500003 0
    outer loop
      vertex -17.642 -7.85471 -10
      vertex -15.6234 -11.351 -10
      vertex -15.6234 -11.351 0
    endloop
  endfacet
  facet normal -0.743143 -0.669133 -0
    outer loop
      vertex -15.6234 -11.351 0
      vertex -15.6234 -11.351 -10
      vertex -12.9219 -14.3513 0
    endloop
  endfacet
  facet normal -0.743143 -0.669133 0
    outer loop
      vertex -15.6234 -11.351 -10
      vertex -12.9219 -14.3513 -10
      vertex -12.9219 -14.3513 0
    endloop
  endfacet
  facet normal -0.587787 -0.809016 -0
    outer loop
      vertex -12.9219 -14.3513 0
      vertex -12.9219 -14.3513 -10
      vertex -9.65576 -16.7243 0
    endloop
  endfacet
  facet normal -0.587787 -0.809016 0
    outer loop
      vertex -12.9219 -14.3513 -10
      vertex -9.65576 -16.7243 -10
      vertex -9.65576 -16.7243 0
    endloop
  endfacet
  facet normal -0.406741 -0.913544 -0
    outer loop
      vertex -9.65576 -16.7243 0
      vertex -9.65576 -16.7243 -10
      vertex -5.96759 -18.3664 0
    endloop
  endfacet
  facet normal -0.406741 -0.913544 0
    outer loop
      vertex -9.65576 -16.7243 -10
      vertex -5.96759 -18.3664 -10
      vertex -5.96759 -18.3664 0
    endloop
  endfacet
  facet normal -0.207892 -0.978152 -0
    outer loop
      vertex -5.96759 -18.3664 0
      vertex -5.96759 -18.3664 -10
      vertex -2.0186 -19.2057 0
    endloop
  endfacet
  facet normal -0.207892 -0.978152 0
    outer loop
      vertex -5.96759 -18.3664 -10
      vertex -2.0186 -19.2057 -10
      vertex -2.0186 -19.2057 0
    endloop
  endfacet
  facet normal 0 -1 0
    outer loop
      vertex -2.0186 -19.2057 0
      vertex -2.0186 -19.2057 -10
      vertex 2.0186 -19.2057 0
    endloop
  endfacet
  facet normal 0 -1 0
    outer loop
      vertex -2.0186 -19.2057 -10
      vertex 2.0186 -19.2057 -10
      vertex 2.0186 -19.2057 0
    endloop
  endfacet
  facet normal 0.207892 -0.978152 0
    outer loop
      vertex 2.0186 -19.2057 0
      vertex 2.0186 -19.2057 -10
      vertex 5.96759 -18.3664 0
    endloop
  endfacet
  facet normal 0.207892 -0.978152 0
    outer loop
      vertex 2.0186 -19.2057 -10
      vertex 5.96759 -18.3664 -10
      vertex 5.96759 -18.3664 0
    endloop
  endfacet
  facet normal 0.406741 -0.913544 0
    outer loop
      vertex 5.96759 -18.3664 0
      vertex 5.96759 -18.3664 -10
      vertex 9.65576 -16.7243 0
    endloop
  endfacet
  facet normal 0.406741 -0.913544 0
    outer loop
      vertex 5.96759 -18.3664 -10
      vertex 9.65576 -16.7243 -10
      vertex 9.65576 -16.7243 0
    endloop
  endfacet
  facet normal 0.587787 -0.809016 0
    outer loop
      vertex 9.65576 -16.7243 0
      vertex 9.65576 -16.7243 -10
      vertex 12.9219 -14.3513 0
    endloop
  endfacet
  facet normal 0.587787 -0.809016 0
    outer loop
      vertex 9.65576 -16.7243 -10
      vertex 12.9219 -14.3513 -10
      vertex 12.9219 -14.3513 0
    endloop
  endfacet
  facet normal 0.743143 -0.669133 0
    outer loop
      vertex 12.9219 -14.3513 0
      vertex 12.9219 -14.3513 -10
      vertex 15.6234 -11.351 0
    endloop
  endfacet
  facet normal 0.743143 -0.669133 0
    outer loop
      vertex 12.9219 -14.3513 -10
      vertex 15.6234 -11.351 -10
      vertex 15.6234 -11.351 0
    endloop
  endfacet
  facet normal 0.866024 -0.500003 0
    outer loop
      vertex 15.6234 -11.351 0
      vertex 15.6234 -11.351 -10
      vertex 17.642 -7.85471 0
    endloop
  endfacet
  facet normal 0.866024 -0.500003 0
    outer loop
      vertex 15.6234 -11.351 -10
      vertex 17.642 -7.85471 -10
      vertex 17.642 -7.85471 0
    endloop
  endfacet
  facet normal 0.951061 -0.309002 0
    outer loop
      vertex 17.642 -7.85471 0
      vertex 17.642 -7.85471 -10
      vertex 18.8895 -4.01509 0
    endloop
  endfacet
  facet normal 0.951061 -0.309002 0
    outer loop
      vertex 17.642 -7.85471 -10
      vertex 18.8895 -4.01509 -10
      vertex 18.8895 -4.01509 0
    endloop
  endfacet
  facet normal 0.994522 -0.104528 0
    outer loop
      vertex 18.8895 -4.01509 0
      vertex 18.8895 -4.01509 -10
      vertex 19.3115 0 0
    endloop
  endfacet
  facet normal 0.994522 -0.104528 0
    outer loop
      vertex 18.8895 -4.01509 -10
      vertex 19.3115 0 -10
      vertex 19.3115 0 0
    endloop
  endfacet
endsolid OpenSCAD_Model
