solid OpenSCAD_Model
  facet normal 0 0 1
    outer loop
      vertex 1.70538 4.43461 20.25
      vertex 3.1154 -3.1154 20.25
      vertex 5.065 2.2514 20.25
    endloop
  endfacet
  facet normal 0 0 1
    outer loop
      vertex -3.1154 -3.1154 20.25
      vertex 3.1154 -3.1154 20.25
      vertex 1.70538 4.43461 20.25
    endloop
  endfacet
  facet normal 0 0 1
    outer loop
      vertex -1.70538 4.43461 20.25
      vertex 1.70538 4.43461 20.25
      vertex 0 5.54283 20.25
    endloop
  endfacet
  facet normal 0 0 1
    outer loop
      vertex 3.1154 -3.1154 20.25
      vertex -3.1154 -3.1154 20.25
      vertex 6.55451e-08 -11.6913 20.25
    endloop
  endfacet
  facet normal 0 0 1
    outer loop
      vertex 6.55451e-08 -11.6913 20.25
      vertex -3.1154 -3.1154 20.25
      vertex 0 -11.6913 20.25
    endloop
  endfacet
  facet normal 0 0 1
    outer loop
      vertex 1.70538 4.43461 20.25
      vertex -1.70538 4.43461 20.25
      vertex -3.1154 -3.1154 20.25
    endloop
  endfacet
  facet normal 0 0 1
    outer loop
      vertex 0 -11.6913 20.25
      vertex -3.1154 -3.1154 20.25
      vertex -6.55451e-08 -11.6913 20.25
    endloop
  endfacet
  facet normal 0 -0 1
    outer loop
      vertex -3.1154 -3.1154 20.25
      vertex -1.70538 4.43461 20.25
      vertex -5.065 2.2514 20.25
    endloop
  endfacet
  facet normal 0 0 -1
    outer loop
      vertex 1.70538 -4.43461 6.75
      vertex 3.1154 3.1154 6.75
      vertex 5.065 -2.2514 6.75
    endloop
  endfacet
  facet normal 0 0 -1
    outer loop
      vertex -3.1154 3.1154 6.75
      vertex 3.1154 3.1154 6.75
      vertex 1.70538 -4.43461 6.75
    endloop
  endfacet
  facet normal 0 0 -1
    outer loop
      vertex -1.70538 -4.43461 6.75
      vertex 1.70538 -4.43461 6.75
      vertex 0 -5.54283 6.75
    endloop
  endfacet
  facet normal 0 0 -1
    outer loop
      vertex 3.1154 3.1154 6.75
      vertex -3.1154 3.1154 6.75
      vertex 6.55451e-08 11.6913 6.75
    endloop
  endfacet
  facet normal -0 0 -1
    outer loop
      vertex 6.55451e-08 11.6913 6.75
      vertex -3.1154 3.1154 6.75
      vertex 0 11.6913 6.75
    endloop
  endfacet
  facet normal 0 0 -1
    outer loop
      vertex 1.70538 -4.43461 6.75
      vertex -1.70538 -4.43461 6.75
      vertex -3.1154 3.1154 6.75
    endloop
  endfacet
  facet normal -0 0 -1
    outer loop
      vertex 0 11.6913 6.75
      vertex -3.1154 3.1154 6.75
      vertex -6.55451e-08 11.6913 6.75
    endloop
  endfacet
  facet normal 0 -0 -1
    outer loop
      vertex -3.1154 3.1154 6.75
      vertex -1.70538 -4.43461 6.75
      vertex -5.065 -2.2514 6.75
    endloop
  endfacet
  facet normal -0.823633 -0.299223 0.481762
    outer loop
      vertex -8.19534 0.837965 14.0204
      vertex -5.065 2.2514 20.25
      vertex -8.19534 2.5657 15.0935
    endloop
  endfacet
  facet normal -0.82364 -0.299192 0.481769
    outer loop
      vertex -3.1154 -3.1154 20.25
      vertex -8.19534 0.837965 14.0204
      vertex -8.19534 -0.837965 12.9796
    endloop
  endfacet
  facet normal -0.82364 -0.299204 0.481761
    outer loop
      vertex -8.19534 0.837965 14.0204
      vertex -3.1154 -3.1154 20.25
      vertex -5.065 2.2514 20.25
    endloop
  endfacet
  facet normal -0.823645 -0.299214 0.481747
    outer loop
      vertex -5.04082 -6.07831 15.1181
      vertex -8.19534 -0.837965 12.9796
      vertex -8.19534 -2.5657 11.9065
    endloop
  endfacet
  facet normal -0.823639 -0.299204 0.481764
    outer loop
      vertex -8.19534 -0.837965 12.9796
      vertex -5.04082 -6.07831 15.1181
      vertex -3.1154 -3.1154 20.25
    endloop
  endfacet
  facet normal -0.823637 -0.299206 0.481765
    outer loop
      vertex -3.1154 -3.1154 20.25
      vertex -5.04082 -6.07831 15.1181
      vertex -6.55451e-08 -11.6913 20.25
    endloop
  endfacet
  facet normal 0.82364 0.299192 -0.481769
    outer loop
      vertex 8.19534 -0.837965 12.9796
      vertex 3.1154 3.1154 6.75
      vertex 8.19534 0.837965 14.0204
    endloop
  endfacet
  facet normal 0.82364 0.299204 -0.481761
    outer loop
      vertex 8.19534 -0.837965 12.9796
      vertex 5.065 -2.2514 6.75
      vertex 3.1154 3.1154 6.75
    endloop
  endfacet
  facet normal 0.823633 0.299223 -0.481762
    outer loop
      vertex 5.065 -2.2514 6.75
      vertex 8.19534 -0.837965 12.9796
      vertex 8.19534 -2.5657 11.9065
    endloop
  endfacet
  facet normal 0.823637 0.299206 -0.481765
    outer loop
      vertex 5.04082 6.07831 11.8819
      vertex 3.1154 3.1154 6.75
      vertex 6.55451e-08 11.6913 6.75
    endloop
  endfacet
  facet normal 0.823645 0.299214 -0.481747
    outer loop
      vertex 8.19534 0.837965 14.0204
      vertex 5.04082 6.07831 11.8819
      vertex 8.19534 2.5657 15.0935
    endloop
  endfacet
  facet normal 0.823639 0.299204 -0.481764
    outer loop
      vertex 5.04082 6.07831 11.8819
      vertex 8.19534 0.837965 14.0204
      vertex 3.1154 3.1154 6.75
    endloop
  endfacet
  facet normal -0.509033 -0.78333 -0.356763
    outer loop
      vertex -5.065 -2.2514 6.75
      vertex -5.04082 -6.07831 15.1181
      vertex -8.19534 -2.5657 11.9065
    endloop
  endfacet
  facet normal -0.509037 -0.783328 -0.356762
    outer loop
      vertex -5.04082 -6.07831 15.1181
      vertex -5.065 -2.2514 6.75
      vertex -1.70538 -4.43461 6.75
    endloop
  endfacet
  facet normal 0 -0.674771 -0.738027
    outer loop
      vertex -5.04082 -6.07831 15.1181
      vertex 0 -11.6913 20.25
      vertex -6.55451e-08 -11.6913 20.25
    endloop
  endfacet
  facet normal -0.509036 -0.783328 -0.356762
    outer loop
      vertex 0 -5.54283 6.75
      vertex -5.04082 -6.07831 15.1181
      vertex -1.70538 -4.43461 6.75
    endloop
  endfacet
  facet normal -0.509035 -0.783329 -0.356761
    outer loop
      vertex -5.04082 -6.07831 15.1181
      vertex 0 -5.54283 6.75
      vertex 0 -11.6913 20.25
    endloop
  endfacet
  facet normal 0.509033 0.78333 0.356763
    outer loop
      vertex 5.04082 6.07831 11.8819
      vertex 5.065 2.2514 20.25
      vertex 8.19534 2.5657 15.0935
    endloop
  endfacet
  facet normal 0.509037 0.783328 0.356762
    outer loop
      vertex 5.065 2.2514 20.25
      vertex 5.04082 6.07831 11.8819
      vertex 1.70538 4.43461 20.25
    endloop
  endfacet
  facet normal 0.509036 0.783328 0.356762
    outer loop
      vertex 5.04082 6.07831 11.8819
      vertex 0 5.54283 20.25
      vertex 1.70538 4.43461 20.25
    endloop
  endfacet
  facet normal -0 0.674771 0.738027
    outer loop
      vertex 0 11.6913 6.75
      vertex 5.04082 6.07831 11.8819
      vertex 6.55451e-08 11.6913 6.75
    endloop
  endfacet
  facet normal 0.509035 0.783329 0.356761
    outer loop
      vertex 5.04082 6.07831 11.8819
      vertex 0 11.6913 6.75
      vertex 0 5.54283 20.25
    endloop
  endfacet
  facet normal 0.509037 -0.783328 -0.356762
    outer loop
      vertex 5.065 -2.2514 6.75
      vertex 5.04082 -6.07831 15.1181
      vertex 1.70538 -4.43461 6.75
    endloop
  endfacet
  facet normal 0.509033 -0.78333 -0.356763
    outer loop
      vertex 5.04082 -6.07831 15.1181
      vertex 5.065 -2.2514 6.75
      vertex 8.19534 -2.5657 11.9065
    endloop
  endfacet
  facet normal 0 -0.674771 -0.738027
    outer loop
      vertex 0 -11.6913 20.25
      vertex 5.04082 -6.07831 15.1181
      vertex 6.55451e-08 -11.6913 20.25
    endloop
  endfacet
  facet normal 0.509035 -0.783329 -0.356761
    outer loop
      vertex 0 -5.54283 6.75
      vertex 5.04082 -6.07831 15.1181
      vertex 0 -11.6913 20.25
    endloop
  endfacet
  facet normal 0.509036 -0.783328 -0.356762
    outer loop
      vertex 5.04082 -6.07831 15.1181
      vertex 0 -5.54283 6.75
      vertex 1.70538 -4.43461 6.75
    endloop
  endfacet
  facet normal -0.509036 0.783328 0.356762
    outer loop
      vertex 0 5.54283 20.25
      vertex -5.04082 6.07831 11.8819
      vertex -1.70538 4.43461 20.25
    endloop
  endfacet
  facet normal -0.509035 0.783329 0.356761
    outer loop
      vertex 0 11.6913 6.75
      vertex -5.04082 6.07831 11.8819
      vertex 0 5.54283 20.25
    endloop
  endfacet
  facet normal 0 0.674771 0.738027
    outer loop
      vertex -5.04082 6.07831 11.8819
      vertex 0 11.6913 6.75
      vertex -6.55451e-08 11.6913 6.75
    endloop
  endfacet
  facet normal -0.509037 0.783328 0.356762
    outer loop
      vertex -5.04082 6.07831 11.8819
      vertex -5.065 2.2514 20.25
      vertex -1.70538 4.43461 20.25
    endloop
  endfacet
  facet normal -0.509033 0.78333 0.356763
    outer loop
      vertex -5.065 2.2514 20.25
      vertex -5.04082 6.07831 11.8819
      vertex -8.19534 2.5657 15.0935
    endloop
  endfacet
  facet normal 0.823633 -0.299223 0.481762
    outer loop
      vertex 5.065 2.2514 20.25
      vertex 8.19534 0.837965 14.0204
      vertex 8.19534 2.5657 15.0935
    endloop
  endfacet
  facet normal 0.82364 -0.299204 0.481761
    outer loop
      vertex 3.1154 -3.1154 20.25
      vertex 8.19534 0.837965 14.0204
      vertex 5.065 2.2514 20.25
    endloop
  endfacet
  facet normal 0.82364 -0.299192 0.481769
    outer loop
      vertex 8.19534 0.837965 14.0204
      vertex 3.1154 -3.1154 20.25
      vertex 8.19534 -0.837965 12.9796
    endloop
  endfacet
  facet normal 0.823639 -0.299204 0.481764
    outer loop
      vertex 5.04082 -6.07831 15.1181
      vertex 8.19534 -0.837965 12.9796
      vertex 3.1154 -3.1154 20.25
    endloop
  endfacet
  facet normal 0.823645 -0.299214 0.481747
    outer loop
      vertex 8.19534 -0.837965 12.9796
      vertex 5.04082 -6.07831 15.1181
      vertex 8.19534 -2.5657 11.9065
    endloop
  endfacet
  facet normal 0.823637 -0.299206 0.481765
    outer loop
      vertex 5.04082 -6.07831 15.1181
      vertex 3.1154 -3.1154 20.25
      vertex 6.55451e-08 -11.6913 20.25
    endloop
  endfacet
  facet normal -0.823651 0.299232 -0.481725
    outer loop
      vertex -6.55451e-08 11.6913 6.75
      vertex -3.02113 6.86699 8.91881
      vertex -3.0839 6.86927 9.02755
    endloop
  endfacet
  facet normal -0.823621 0.299173 -0.481813
    outer loop
      vertex -6.55451e-08 11.6913 6.75
      vertex -2.99391 6.85889 8.86725
      vertex -3.02113 6.86699 8.91881
    endloop
  endfacet
  facet normal -0.82363 0.299191 -0.481786
    outer loop
      vertex -6.55451e-08 11.6913 6.75
      vertex -2.96306 6.84971 8.80881
      vertex -2.99391 6.85889 8.86725
    endloop
  endfacet
  facet normal -0.823641 0.299211 -0.481754
    outer loop
      vertex -6.55451e-08 11.6913 6.75
      vertex -2.93848 6.83471 8.75747
      vertex -2.96306 6.84971 8.80881
    endloop
  endfacet
  facet normal -0.823628 0.299188 -0.481792
    outer loop
      vertex -6.55451e-08 11.6913 6.75
      vertex -2.91062 6.8177 8.69928
      vertex -2.93848 6.83471 8.75747
    endloop
  endfacet
  facet normal -0.823653 0.299229 -0.481724
    outer loop
      vertex -6.55451e-08 11.6913 6.75
      vertex -2.88619 6.79315 8.64226
      vertex -2.91062 6.8177 8.69928
    endloop
  endfacet
  facet normal -0.82366 0.299242 -0.481703
    outer loop
      vertex -6.55451e-08 11.6913 6.75
      vertex -2.86464 6.77148 8.59195
      vertex -2.88619 6.79315 8.64226
    endloop
  endfacet
  facet normal -0.823633 0.299199 -0.481776
    outer loop
      vertex -6.55451e-08 11.6913 6.75
      vertex -2.84645 6.74349 8.54347
      vertex -2.86464 6.77148 8.59195
    endloop
  endfacet
  facet normal -0.823618 0.299175 -0.481817
    outer loop
      vertex -6.55451e-08 11.6913 6.75
      vertex -2.82583 6.71176 8.48852
      vertex -2.84645 6.74349 8.54347
    endloop
  endfacet
  facet normal -0.823683 0.299273 -0.481645
    outer loop
      vertex -6.55451e-08 11.6913 6.75
      vertex -2.80936 6.67337 8.4365
      vertex -2.82583 6.71176 8.48852
    endloop
  endfacet
  facet normal -0.823612 0.29917 -0.481831
    outer loop
      vertex -6.55451e-08 11.6913 6.75
      vertex -2.79482 6.63949 8.39061
      vertex -2.80936 6.67337 8.4365
    endloop
  endfacet
  facet normal -0.82363 0.299196 -0.481784
    outer loop
      vertex -6.55451e-08 11.6913 6.75
      vertex -2.78416 6.60027 8.34803
      vertex -2.79482 6.63949 8.39061
    endloop
  endfacet
  facet normal -0.823641 0.299211 -0.481755
    outer loop
      vertex -6.55451e-08 11.6913 6.75
      vertex -2.77208 6.55582 8.29977
      vertex -2.78416 6.60027 8.34803
    endloop
  endfacet
  facet normal -0.82363 0.299196 -0.481784
    outer loop
      vertex -6.55451e-08 11.6913 6.75
      vertex -2.76547 6.51186 8.26117
      vertex -2.77208 6.55582 8.29977
    endloop
  endfacet
  facet normal -0.823637 0.299205 -0.481766
    outer loop
      vertex -6.55451e-08 11.6913 6.75
      vertex -2.75798 6.46205 8.21743
      vertex -2.76547 6.51186 8.26117
    endloop
  endfacet
  facet normal -0.823631 0.299197 -0.481781
    outer loop
      vertex -6.55451e-08 11.6913 6.75
      vertex -2.7552 6.40766 8.1789
      vertex -2.75798 6.46205 8.21743
    endloop
  endfacet
  facet normal -0.823636 0.299204 -0.481768
    outer loop
      vertex -6.55451e-08 11.6913 6.75
      vertex -2.75274 6.35967 8.14489
      vertex -2.7552 6.40766 8.1789
    endloop
  endfacet
  facet normal -0.823649 0.299218 -0.481738
    outer loop
      vertex -6.55451e-08 11.6913 6.75
      vertex -2.75448 6.3084 8.11602
      vertex -2.75274 6.35967 8.14489
    endloop
  endfacet
  facet normal -0.823631 0.299198 -0.48178
    outer loop
      vertex -6.55451e-08 11.6913 6.75
      vertex -2.75645 6.25029 8.0833
      vertex -2.75448 6.3084 8.11602
    endloop
  endfacet
  facet normal -0.823656 0.299226 -0.48172
    outer loop
      vertex -6.55451e-08 11.6913 6.75
      vertex -2.76314 6.18939 8.05691
      vertex -2.75645 6.25029 8.0833
    endloop
  endfacet
  facet normal -0.823642 0.29921 -0.481755
    outer loop
      vertex -6.55451e-08 11.6913 6.75
      vertex -2.76904 6.13565 8.03362
      vertex -2.76314 6.18939 8.05691
    endloop
  endfacet
  facet normal -0.823566 0.299131 -0.481934
    outer loop
      vertex -6.55451e-08 11.6913 6.75
      vertex -2.77901 6.08028 8.01629
      vertex -2.76904 6.13565 8.03362
    endloop
  endfacet
  facet normal -0.823708 0.299276 -0.481601
    outer loop
      vertex -6.55451e-08 11.6913 6.75
      vertex -2.79032 6.01753 7.99664
      vertex -2.77901 6.08028 8.01629
    endloop
  endfacet
  facet normal -0.823676 0.299244 -0.481675
    outer loop
      vertex -6.55451e-08 11.6913 6.75
      vertex -2.80606 5.95394 7.98405
      vertex -2.79032 6.01753 7.99664
    endloop
  endfacet
  facet normal -0.823585 0.299154 -0.481887
    outer loop
      vertex -6.55451e-08 11.6913 6.75
      vertex -2.81995 5.89782 7.97295
      vertex -2.80606 5.95394 7.98405
    endloop
  endfacet
  facet normal -0.823638 0.299206 -0.481764
    outer loop
      vertex -3.1154 3.1154 6.75
      vertex -2.81995 5.89782 7.97295
      vertex -6.55451e-08 11.6913 6.75
    endloop
  endfacet
  facet normal -0.823686 0.299182 -0.481697
    outer loop
      vertex -2.81995 5.89782 7.97295
      vertex -3.1154 3.1154 6.75
      vertex -2.83987 5.83438 7.96761
    endloop
  endfacet
  facet normal -0.82353 0.299263 -0.481912
    outer loop
      vertex -2.83987 5.83438 7.96761
      vertex -3.1154 3.1154 6.75
      vertex -2.85746 5.77839 7.9629
    endloop
  endfacet
  facet normal -0.82365 0.299199 -0.481747
    outer loop
      vertex -2.85746 5.77839 7.9629
      vertex -3.1154 3.1154 6.75
      vertex -2.87846 5.72343 7.96467
    endloop
  endfacet
  facet normal -0.823692 0.299176 -0.48169
    outer loop
      vertex -2.87846 5.72343 7.96467
      vertex -3.1154 3.1154 6.75
      vertex -2.90226 5.66114 7.96668
    endloop
  endfacet
  facet normal -0.82364 0.299205 -0.48176
    outer loop
      vertex -2.90226 5.66114 7.96668
      vertex -3.1154 3.1154 6.75
      vertex -2.92956 5.60098 7.97599
    endloop
  endfacet
  facet normal -0.823619 0.299228 -0.481782
    outer loop
      vertex -3.1154 3.1154 6.75
      vertex -3.45683 4.9884 8.49698
      vertex -3.42008 5.00306 8.44326
    endloop
  endfacet
  facet normal -0.823664 0.299176 -0.481738
    outer loop
      vertex -3.52458 4.9687 8.60057
      vertex -3.1154 3.1154 6.75
      vertex -3.55575 4.96272 8.65015
    endloop
  endfacet
  facet normal -0.823605 0.299246 -0.481795
    outer loop
      vertex -3.48925 4.97547 8.54438
      vertex -3.1154 3.1154 6.75
      vertex -3.52458 4.9687 8.60057
    endloop
  endfacet
  facet normal -0.823659 0.299184 -0.481742
    outer loop
      vertex -3.45683 4.9884 8.49698
      vertex -3.1154 3.1154 6.75
      vertex -3.48925 4.97547 8.54438
    endloop
  endfacet
  facet normal -0.823688 0.299154 -0.481711
    outer loop
      vertex -3.3825 5.02536 8.39285
      vertex -3.1154 3.1154 6.75
      vertex -3.42008 5.00306 8.44326
    endloop
  endfacet
  facet normal -0.823562 0.299286 -0.481844
    outer loop
      vertex -3.34933 5.04504 8.34838
      vertex -3.1154 3.1154 6.75
      vertex -3.3825 5.02536 8.39285
    endloop
  endfacet
  facet normal -0.82366 0.299187 -0.481738
    outer loop
      vertex -3.31595 5.07116 8.30753
      vertex -3.1154 3.1154 6.75
      vertex -3.34933 5.04504 8.34838
    endloop
  endfacet
  facet normal -0.823671 0.299175 -0.481726
    outer loop
      vertex -3.27812 5.10076 8.26123
      vertex -3.1154 3.1154 6.75
      vertex -3.31595 5.07116 8.30753
    endloop
  endfacet
  facet normal -0.823627 0.299217 -0.481776
    outer loop
      vertex -3.20756 5.16933 8.18319
      vertex -3.1154 3.1154 6.75
      vertex -3.27812 5.10076 8.26123
    endloop
  endfacet
  facet normal -0.823626 0.299218 -0.481777
    outer loop
      vertex -3.17102 5.21201 8.14723
      vertex -3.1154 3.1154 6.75
      vertex -3.20756 5.16933 8.18319
    endloop
  endfacet
  facet normal -0.823672 0.29918 -0.481722
    outer loop
      vertex -3.13878 5.24968 8.1155
      vertex -3.1154 3.1154 6.75
      vertex -3.17102 5.21201 8.14723
    endloop
  endfacet
  facet normal -0.823647 0.299199 -0.481752
    outer loop
      vertex -3.07285 5.34054 8.05921
      vertex -3.1154 3.1154 6.75
      vertex -3.13878 5.24968 8.1155
    endloop
  endfacet
  facet normal -0.823663 0.299188 -0.481732
    outer loop
      vertex -3.04377 5.38738 8.03858
      vertex -3.1154 3.1154 6.75
      vertex -3.07285 5.34054 8.05921
    endloop
  endfacet
  facet normal -0.823603 0.29923 -0.481809
    outer loop
      vertex -3.01081 5.44047 8.01521
      vertex -3.1154 3.1154 6.75
      vertex -3.04377 5.38738 8.03858
    endloop
  endfacet
  facet normal -0.823569 0.299252 -0.481853
    outer loop
      vertex -2.98401 5.49083 8.00068
      vertex -3.1154 3.1154 6.75
      vertex -3.01081 5.44047 8.01521
    endloop
  endfacet
  facet normal -0.823747 0.299139 -0.481619
    outer loop
      vertex -2.95365 5.5479 7.9842
      vertex -3.1154 3.1154 6.75
      vertex -2.98401 5.49083 8.00068
    endloop
  endfacet
  facet normal -0.823574 0.299244 -0.48185
    outer loop
      vertex -2.92956 5.60098 7.97599
      vertex -3.1154 3.1154 6.75
      vertex -2.95365 5.5479 7.9842
    endloop
  endfacet
  facet normal -0.823652 0.299233 -0.481723
    outer loop
      vertex -3.11507 6.86329 9.07713
      vertex -6.55451e-08 11.6913 6.75
      vertex -3.0839 6.86927 9.02755
    endloop
  endfacet
  facet normal -0.823621 0.299169 -0.481815
    outer loop
      vertex -3.1504 6.85652 9.13332
      vertex -6.55451e-08 11.6913 6.75
      vertex -3.11507 6.86329 9.07713
    endloop
  endfacet
  facet normal -0.823609 0.299142 -0.481854
    outer loop
      vertex -3.18715 6.84187 9.18704
      vertex -6.55451e-08 11.6913 6.75
      vertex -3.1504 6.85652 9.13332
    endloop
  endfacet
  facet normal -0.823651 0.299236 -0.481723
    outer loop
      vertex -3.21957 6.82894 9.23444
      vertex -6.55451e-08 11.6913 6.75
      vertex -3.18715 6.84187 9.18704
    endloop
  endfacet
  facet normal -0.823665 0.299266 -0.48168
    outer loop
      vertex -3.25715 6.80663 9.28484
      vertex -6.55451e-08 11.6913 6.75
      vertex -3.21957 6.82894 9.23444
    endloop
  endfacet
  facet normal -0.823616 0.299154 -0.481834
    outer loop
      vertex -3.29032 6.78695 9.32932
      vertex -6.55451e-08 11.6913 6.75
      vertex -3.25715 6.80663 9.28484
    endloop
  endfacet
  facet normal -0.823631 0.299243 -0.481752
    outer loop
      vertex -5.04082 6.07831 11.8819
      vertex -3.29032 6.78695 9.32932
      vertex -3.3237 6.76084 9.37017
    endloop
  endfacet
  facet normal -0.82367 0.298978 -0.481851
    outer loop
      vertex -5.04082 6.07831 11.8819
      vertex -3.3237 6.76084 9.37017
      vertex -3.36153 6.73124 9.41647
    endloop
  endfacet
  facet normal -0.823587 0.299534 -0.481647
    outer loop
      vertex -5.04082 6.07831 11.8819
      vertex -3.36153 6.73124 9.41647
      vertex -3.39902 6.69481 9.45792
    endloop
  endfacet
  facet normal -0.823668 0.29901 -0.481835
    outer loop
      vertex -5.04082 6.07831 11.8819
      vertex -3.39902 6.69481 9.45792
      vertex -3.43209 6.66266 9.4945
    endloop
  endfacet
  facet normal -0.823652 0.299107 -0.481801
    outer loop
      vertex -5.04082 6.07831 11.8819
      vertex -3.43209 6.66266 9.4945
      vertex -3.46863 6.61998 9.53047
    endloop
  endfacet
  facet normal -0.823597 0.299445 -0.481686
    outer loop
      vertex -5.04082 6.07831 11.8819
      vertex -3.46863 6.61998 9.53047
      vertex -3.50088 6.58232 9.5622
    endloop
  endfacet
  facet normal -0.823641 0.299182 -0.481772
    outer loop
      vertex -5.04082 6.07831 11.8819
      vertex -3.50088 6.58232 9.5622
      vertex -3.56681 6.49146 9.61849
    endloop
  endfacet
  facet normal -0.823637 0.299203 -0.481767
    outer loop
      vertex -3.29032 6.78695 9.32932
      vertex -5.04082 6.07831 11.8819
      vertex -6.55451e-08 11.6913 6.75
    endloop
  endfacet
  facet normal -0.823672 0.29902 -0.481822
    outer loop
      vertex -3.59976 6.43837 9.64187
      vertex -5.04082 6.07831 11.8819
      vertex -3.56681 6.49146 9.61849
    endloop
  endfacet
  facet normal -0.823625 0.299258 -0.481753
    outer loop
      vertex -3.62884 6.39153 9.66249
      vertex -5.04082 6.07831 11.8819
      vertex -3.59976 6.43837 9.64187
    endloop
  endfacet
  facet normal -0.823615 0.299309 -0.48174
    outer loop
      vertex -3.65564 6.34117 9.67702
      vertex -5.04082 6.07831 11.8819
      vertex -3.62884 6.39153 9.66249
    endloop
  endfacet
  facet normal -0.823635 0.299214 -0.481764
    outer loop
      vertex -3.68601 6.28409 9.69349
      vertex -5.04082 6.07831 11.8819
      vertex -3.65564 6.34117 9.67702
    endloop
  endfacet
  facet normal -0.823648 0.299156 -0.481777
    outer loop
      vertex -3.73739 6.17086 9.71102
      vertex -5.04082 6.07831 11.8819
      vertex -3.68601 6.28409 9.69349
    endloop
  endfacet
  facet normal -0.823624 0.299253 -0.481759
    outer loop
      vertex -3.7822 6.0536 9.71479
      vertex -5.04082 6.07831 11.8819
      vertex -3.73739 6.17086 9.71102
    endloop
  endfacet
  facet normal -0.823676 0.299063 -0.481787
    outer loop
      vertex -3.80212 5.99015 9.70946
      vertex -5.04082 6.07831 11.8819
      vertex -3.7822 6.0536 9.71479
    endloop
  endfacet
  facet normal -0.8236 0.299325 -0.481754
    outer loop
      vertex -3.81971 5.93417 9.70475
      vertex -5.04082 6.07831 11.8819
      vertex -3.80212 5.99015 9.70946
    endloop
  endfacet
  facet normal -0.823636 0.299206 -0.481767
    outer loop
      vertex -3.83545 5.87057 9.69216
      vertex -5.04082 6.07831 11.8819
      vertex -3.81971 5.93417 9.70475
    endloop
  endfacet
  facet normal -0.823682 0.299063 -0.481778
    outer loop
      vertex -3.84933 5.81446 9.68106
      vertex -5.04082 6.07831 11.8819
      vertex -3.83545 5.87057 9.69216
    endloop
  endfacet
  facet normal -0.823597 0.299319 -0.481763
    outer loop
      vertex -3.85931 5.75909 9.66372
      vertex -5.04082 6.07831 11.8819
      vertex -3.84933 5.81446 9.68106
    endloop
  endfacet
  facet normal -0.823652 0.299159 -0.481769
    outer loop
      vertex -3.87061 5.69635 9.64408
      vertex -5.04082 6.07831 11.8819
      vertex -3.85931 5.75909 9.66372
    endloop
  endfacet
  facet normal -0.823636 0.299205 -0.481768
    outer loop
      vertex -3.8832 5.5817 9.5944
      vertex -5.04082 6.07831 11.8819
      vertex -3.87061 5.69635 9.64408
    endloop
  endfacet
  facet normal -0.823641 0.299192 -0.481768
    outer loop
      vertex -3.88517 5.52359 9.56168
      vertex -5.04082 6.07831 11.8819
      vertex -3.8832 5.5817 9.5944
    endloop
  endfacet
  facet normal -0.823586 0.299331 -0.481774
    outer loop
      vertex -3.88691 5.47232 9.5328
      vertex -5.04082 6.07831 11.8819
      vertex -3.88517 5.52359 9.56168
    endloop
  endfacet
  facet normal -0.823686 0.299082 -0.481759
    outer loop
      vertex -3.88412 5.41794 9.49427
      vertex -5.04082 6.07831 11.8819
      vertex -3.88691 5.47232 9.5328
    endloop
  endfacet
  facet normal -0.823604 0.299281 -0.481775
    outer loop
      vertex -3.88167 5.36995 9.46027
      vertex -5.04082 6.07831 11.8819
      vertex -3.88412 5.41794 9.49427
    endloop
  endfacet
  facet normal -0.823648 0.299177 -0.481765
    outer loop
      vertex -3.87506 5.32599 9.42167
      vertex -5.04082 6.07831 11.8819
      vertex -3.88167 5.36995 9.46027
    endloop
  endfacet
  facet normal -0.823635 0.299207 -0.481768
    outer loop
      vertex -3.86757 5.27618 9.37793
      vertex -5.04082 6.07831 11.8819
      vertex -3.87506 5.32599 9.42167
    endloop
  endfacet
  facet normal -0.823696 0.299067 -0.481752
    outer loop
      vertex -3.85691 5.23695 9.33535
      vertex -5.04082 6.07831 11.8819
      vertex -3.86757 5.27618 9.37793
    endloop
  endfacet
  facet normal -0.82365 0.29931 -0.481678
    outer loop
      vertex -8.19534 0.837965 14.0204
      vertex -3.85691 5.23695 9.33535
      vertex -3.84484 5.1925 9.28709
    endloop
  endfacet
  facet normal -0.82364 0.299221 -0.481751
    outer loop
      vertex -8.19534 0.837965 14.0204
      vertex -3.84484 5.1925 9.28709
      vertex -3.82836 5.15411 9.23507
    endloop
  endfacet
  facet normal -0.823631 0.299141 -0.481815
    outer loop
      vertex -8.19534 0.837965 14.0204
      vertex -3.82836 5.15411 9.23507
      vertex -3.81382 5.12023 9.18918
    endloop
  endfacet
  facet normal -0.823636 0.299189 -0.481777
    outer loop
      vertex -8.19534 0.837965 14.0204
      vertex -3.81382 5.12023 9.18918
      vertex -3.7932 5.08851 9.13423
    endloop
  endfacet
  facet normal -0.823637 0.299194 -0.481774
    outer loop
      vertex -8.19534 0.837965 14.0204
      vertex -3.7932 5.08851 9.13423
      vertex -3.77501 5.06052 9.08575
    endloop
  endfacet
  facet normal -0.823641 0.29924 -0.481737
    outer loop
      vertex -8.19534 0.837965 14.0204
      vertex -3.77501 5.06052 9.08575
      vertex -3.72903 5.01429 8.97842
    endloop
  endfacet
  facet normal -0.823668 0.299171 -0.481734
    outer loop
      vertex -3.1154 3.1154 6.75
      vertex -3.61852 4.965 8.75889
      vertex -3.55575 4.96272 8.65015
    endloop
  endfacet
  facet normal -0.823585 0.299276 -0.48181
    outer loop
      vertex -3.1154 3.1154 6.75
      vertex -3.64574 4.9731 8.81045
      vertex -3.61852 4.965 8.75889
    endloop
  endfacet
  facet normal -0.823572 0.299294 -0.481822
    outer loop
      vertex -3.1154 3.1154 6.75
      vertex -3.67659 4.98229 8.86889
      vertex -3.64574 4.9731 8.81045
    endloop
  endfacet
  facet normal -0.82365 0.29919 -0.481752
    outer loop
      vertex -3.1154 3.1154 6.75
      vertex -3.72903 5.01429 8.97842
      vertex -3.67659 4.98229 8.86889
    endloop
  endfacet
  facet normal -0.823638 0.299207 -0.481763
    outer loop
      vertex -8.19534 0.837965 14.0204
      vertex -3.72903 5.01429 8.97842
      vertex -3.1154 3.1154 6.75
    endloop
  endfacet
  facet normal -0.823637 0.299201 -0.481769
    outer loop
      vertex -3.85691 5.23695 9.33535
      vertex -8.19534 0.837965 14.0204
      vertex -5.04082 6.07831 11.8819
    endloop
  endfacet
  facet normal -0.823645 0.299214 -0.481747
    outer loop
      vertex -5.04082 6.07831 11.8819
      vertex -8.19534 0.837965 14.0204
      vertex -8.19534 2.5657 15.0935
    endloop
  endfacet
  facet normal -0.82364 0.299192 -0.481769
    outer loop
      vertex -3.1154 3.1154 6.75
      vertex -8.19534 -0.837965 12.9796
      vertex -8.19534 0.837965 14.0204
    endloop
  endfacet
  facet normal -0.82364 0.299204 -0.481761
    outer loop
      vertex -5.065 -2.2514 6.75
      vertex -8.19534 -0.837965 12.9796
      vertex -3.1154 3.1154 6.75
    endloop
  endfacet
  facet normal -0.823633 0.299223 -0.481762
    outer loop
      vertex -8.19534 -0.837965 12.9796
      vertex -5.065 -2.2514 6.75
      vertex -8.19534 -2.5657 11.9065
    endloop
  endfacet
  facet normal -0.214414 0.622149 0.752965
    outer loop
      vertex -3.07285 5.34054 8.05921
      vertex 0.36169 3.97806 10.163
      vertex 0.427621 4.06892 10.1067
    endloop
  endfacet
  facet normal -0.214448 0.622105 0.752992
    outer loop
      vertex 0.36169 3.97806 10.163
      vertex -3.07285 5.34054 8.05921
      vertex -3.13878 5.24968 8.1155
    endloop
  endfacet
  facet normal -0.823772 0.299419 -0.481403
    outer loop
      vertex 0.54682 4.27628 10.0317
      vertex 0.489656 4.16885 10.0627
      vertex 0.427621 4.06892 10.1067
    endloop
  endfacet
  facet normal -0.823526 0.298777 -0.482221
    outer loop
      vertex 0.427621 4.06892 10.1067
      vertex 0.36169 3.97806 10.163
      vertex 0.222346 3.82914 10.3087
    endloop
  endfacet
  facet normal -0.822775 0.299283 -0.483189
    outer loop
      vertex -0.319241 4.66255 11.7522
      vertex -0.28173 4.78198 11.7623
      vertex -0.348867 4.54284 11.7285
    endloop
  endfacet
  facet normal -0.823766 0.299199 -0.481549
    outer loop
      vertex 0.747722 5.08805 10.1924
      vertex 0.710149 4.74592 10.0441
      vertex 0.54682 4.27628 10.0317
    endloop
  endfacet
  facet normal -0.146946 0.707894 0.690864
    outer loop
      vertex 0.292903 3.89771 10.2307
      vertex -3.17102 5.21201 8.14723
      vertex -3.20756 5.16933 8.18319
    endloop
  endfacet
  facet normal -0.510508 -0.761133 0.400073
    outer loop
      vertex -2.80936 6.67337 8.4365
      vertex 0.674633 5.44014 10.536
      vertex -2.82583 6.71176 8.48852
    endloop
  endfacet
  facet normal 0.214416 -0.62215 -0.752964
    outer loop
      vertex -0.0663404 5.21984 11.666
      vertex -3.50088 6.58232 9.5622
      vertex -0.000409126 5.3107 11.6097
    endloop
  endfacet
  facet normal 0.21445 -0.622106 -0.752991
    outer loop
      vertex -3.50088 6.58232 9.5622
      vertex -0.0663404 5.21984 11.666
      vertex -3.56681 6.49146 9.61849
    endloop
  endfacet
  facet normal -0.338228 0.42272 0.840779
    outer loop
      vertex 0.54682 4.27628 10.0317
      vertex -2.95365 5.5479 7.9842
      vertex -2.98401 5.49083 8.00068
    endloop
  endfacet
  facet normal -0.475556 -0.827209 0.299285
    outer loop
      vertex -2.86464 6.77148 8.59195
      vertex 0.674633 5.44014 10.536
      vertex 0.635826 5.49986 10.6394
    endloop
  endfacet
  facet normal -0.475526 -0.827258 0.299198
    outer loop
      vertex 0.674633 5.44014 10.536
      vertex -2.86464 6.77148 8.59195
      vertex -2.84645 6.74349 8.54347
    endloop
  endfacet
  facet normal 0.475501 0.827298 -0.299127
    outer loop
      vertex -0.313353 3.84861 11.2367
      vertex -3.7932 5.08851 9.13423
      vertex -3.81382 5.12023 9.18918
    endloop
  endfacet
  facet normal -0.537432 -0.683041 0.494592
    outer loop
      vertex -2.77208 6.55582 8.29977
      vertex 0.728386 5.2842 10.3473
      vertex -2.78416 6.60027 8.34803
    endloop
  endfacet
  facet normal 0.203014 0.948759 0.24216
    outer loop
      vertex -3.52458 4.9687 8.60057
      vertex -0.0552816 3.6911 10.6976
      vertex 0.0112143 3.70385 10.5919
    endloop
  endfacet
  facet normal 0.203058 0.948767 0.242093
    outer loop
      vertex -0.0552816 3.6911 10.6976
      vertex -3.52458 4.9687 8.60057
      vertex -3.55575 4.96272 8.65015
    endloop
  endfacet
  facet normal 0.537444 0.682989 -0.494652
    outer loop
      vertex -0.344369 3.92088 11.3346
      vertex -3.84484 5.1925 9.28709
      vertex -3.85691 5.23695 9.33535
    endloop
  endfacet
  facet normal 0.338292 -0.422602 -0.840813
    outer loop
      vertex -3.65564 6.34117 9.67702
      vertex -0.185539 5.01247 11.741
      vertex -3.68601 6.28409 9.69349
    endloop
  endfacet
  facet normal 0.267897 0.954014 0.134491
    outer loop
      vertex -0.0552816 3.6911 10.6976
      vertex -3.61852 4.965 8.75889
      vertex -0.118057 3.69339 10.8064
    endloop
  endfacet
  facet normal 0.267835 0.954016 0.134604
    outer loop
      vertex -3.61852 4.965 8.75889
      vertex -0.0552816 3.6911 10.6976
      vertex -3.55575 4.96272 8.65015
    endloop
  endfacet
  facet normal 0.203103 0.948777 0.242015
    outer loop
      vertex 0.0112143 3.70385 10.5919
      vertex -3.48925 4.97547 8.54438
      vertex -3.52458 4.9687 8.60057
    endloop
  endfacet
  facet normal -0.432994 -0.880386 0.193485
    outer loop
      vertex -2.88619 6.79315 8.64226
      vertex 0.635826 5.49986 10.6394
      vertex 0.589841 5.54608 10.7468
    endloop
  endfacet
  facet normal -0.433071 -0.880308 0.193671
    outer loop
      vertex 0.635826 5.49986 10.6394
      vertex -2.88619 6.79315 8.64226
      vertex -2.86464 6.77148 8.59195
    endloop
  endfacet
  facet normal -0.823623 0.299211 -0.481787
    outer loop
      vertex 0.747722 5.08805 10.1924
      vertex 0.54682 4.27628 10.0317
      vertex 0.222346 3.82914 10.3087
    endloop
  endfacet
  facet normal -0.823129 0.300986 -0.481524
    outer loop
      vertex 0.0112143 3.70385 10.5919
      vertex -0.0552816 3.6911 10.6976
      vertex -0.176122 3.71067 10.9164
    endloop
  endfacet
  facet normal -0.00609827 0.844774 0.535089
    outer loop
      vertex 0.222346 3.82914 10.3087
      vertex -3.27812 5.10076 8.26123
      vertex -3.31595 5.07116 8.30753
    endloop
  endfacet
  facet normal 0.510523 0.761104 -0.400109
    outer loop
      vertex -0.313353 3.84861 11.2367
      vertex -3.82836 5.15411 9.23507
      vertex -0.344369 3.92088 11.3346
    endloop
  endfacet
  facet normal 0.510532 0.761083 -0.400138
    outer loop
      vertex -3.82836 5.15411 9.23507
      vertex -0.313353 3.84861 11.2367
      vertex -3.81382 5.12023 9.18918
    endloop
  endfacet
  facet normal -0.823632 0.299188 -0.481784
    outer loop
      vertex 0.747722 5.08805 10.1924
      vertex -0.176122 3.71067 10.9164
      vertex -0.367105 4.00456 11.4254
    endloop
  endfacet
  facet normal -0.82417 0.297026 -0.482202
    outer loop
      vertex 0.416562 5.59765 11.075
      vertex 0.479338 5.59537 10.9663
      vertex 0.350066 5.5849 11.1808
    endloop
  endfacet
  facet normal 0.146889 -0.70796 -0.690809
    outer loop
      vertex -3.43209 6.66266 9.4945
      vertex 0.0683765 5.39105 11.542
      vertex -3.46863 6.61998 9.53047
    endloop
  endfacet
  facet normal -0.0650127 -0.893714 -0.443902
    outer loop
      vertex -3.25715 6.80663 9.28484
      vertex 0.210149 5.51534 11.3768
      vertex -3.29032 6.78695 9.32932
    endloop
  endfacet
  facet normal -0.0650521 -0.893736 -0.443851
    outer loop
      vertex 0.210149 5.51534 11.3768
      vertex -3.25715 6.80663 9.28484
      vertex 0.280898 5.55732 11.2819
    endloop
  endfacet
  facet normal 0.515707 0.0417709 -0.855746
    outer loop
      vertex -3.81971 5.93417 9.70475
      vertex -0.319241 4.66255 11.7522
      vertex -3.83545 5.87057 9.69216
    endloop
  endfacet
  facet normal -0.823687 0.298975 -0.481824
    outer loop
      vertex -0.176122 3.71067 10.9164
      vertex -0.22856 3.74267 11.0259
      vertex -0.274546 3.7889 11.1332
    endloop
  endfacet
  facet normal 0.555865 0.594311 -0.581213
    outer loop
      vertex -0.367105 4.00456 11.4254
      vertex -3.88167 5.36995 9.46027
      vertex -0.381203 4.09833 11.5078
    endloop
  endfacet
  facet normal 0.55589 0.5941 -0.581404
    outer loop
      vertex -3.88167 5.36995 9.46027
      vertex -0.367105 4.00456 11.4254
      vertex -3.87506 5.32599 9.42167
    endloop
  endfacet
  facet normal -0.824885 0.297306 -0.480806
    outer loop
      vertex -0.274546 3.7889 11.1332
      vertex -0.313353 3.84861 11.2367
      vertex -0.344369 3.92088 11.3346
    endloop
  endfacet
  facet normal -0.823452 0.298286 -0.482652
    outer loop
      vertex 0.36169 3.97806 10.163
      vertex 0.292903 3.89771 10.2307
      vertex 0.222346 3.82914 10.3087
    endloop
  endfacet
  facet normal -0.146944 0.707894 0.690864
    outer loop
      vertex -3.13878 5.24968 8.1155
      vertex 0.292903 3.89771 10.2307
      vertex 0.36169 3.97806 10.163
    endloop
  endfacet
  facet normal -0.147019 0.707811 0.690934
    outer loop
      vertex 0.292903 3.89771 10.2307
      vertex -3.13878 5.24968 8.1155
      vertex -3.17102 5.21201 8.14723
    endloop
  endfacet
  facet normal -0.823577 0.299293 -0.481813
    outer loop
      vertex 0.747722 5.08805 10.1924
      vertex 0.731425 4.86403 10.0811
      vertex 0.710149 4.74592 10.0441
    endloop
  endfacet
  facet normal -0.482071 0.0780399 0.872649
    outer loop
      vertex -2.85746 5.77839 7.9629
      vertex 0.680521 4.6262 10.0204
      vertex -2.83987 5.83438 7.96761
    endloop
  endfacet
  facet normal -0.481991 0.0783224 0.872669
    outer loop
      vertex 0.680521 4.6262 10.0204
      vertex -2.85746 5.77839 7.9629
      vertex 0.64301 4.50678 10.0104
    endloop
  endfacet
  facet normal -0.56558 -0.495772 0.659037
    outer loop
      vertex -2.7552 6.40766 8.1789
      vertex 0.742484 5.19043 10.2649
      vertex -2.75798 6.46205 8.21743
    endloop
  endfacet
  facet normal -0.823746 0.298944 -0.481742
    outer loop
      vertex 0.705649 5.36787 10.4381
      vertex 0.728386 5.2842 10.3473
      vertex 0.350066 5.5849 11.1808
    endloop
  endfacet
  facet normal -0.823752 0.298096 -0.482256
    outer loop
      vertex 0.222346 3.82914 10.3087
      vertex 0.151132 3.77342 10.3959
      vertex 0.0803823 3.73144 10.4908
    endloop
  endfacet
  facet normal -0.823748 0.298219 -0.482187
    outer loop
      vertex 0.222346 3.82914 10.3087
      vertex 0.0803823 3.73144 10.4908
      vertex 0.0112143 3.70385 10.5919
    endloop
  endfacet
  facet normal 0.51049 0.761176 -0.400013
    outer loop
      vertex -0.344369 3.92088 11.3346
      vertex -3.82836 5.15411 9.23507
      vertex -3.84484 5.1925 9.28709
    endloop
  endfacet
  facet normal 0.328375 0.944216 0.0250097
    outer loop
      vertex -0.118057 3.69339 10.8064
      vertex -3.64574 4.9731 8.81045
      vertex -0.176122 3.71067 10.9164
    endloop
  endfacet
  facet normal 0.32837 0.944218 0.0250207
    outer loop
      vertex -3.64574 4.9731 8.81045
      vertex -0.118057 3.69339 10.8064
      vertex -3.61852 4.965 8.75889
    endloop
  endfacet
  facet normal -0.824204 0.297565 -0.481812
    outer loop
      vertex -0.0552816 3.6911 10.6976
      vertex -0.118057 3.69339 10.8064
      vertex -0.176122 3.71067 10.9164
    endloop
  endfacet
  facet normal 0.0771892 -0.782451 -0.61791
    outer loop
      vertex -3.39902 6.69481 9.45792
      vertex 0.0683765 5.39105 11.542
      vertex -3.43209 6.66266 9.4945
    endloop
  endfacet
  facet normal 0.0772321 -0.78241 -0.617956
    outer loop
      vertex 0.0683765 5.39105 11.542
      vertex -3.39902 6.69481 9.45792
      vertex 0.138934 5.45962 11.464
    endloop
  endfacet
  facet normal -0.203056 -0.948768 -0.242091
    outer loop
      vertex -3.0839 6.86927 9.02755
      vertex 0.350066 5.5849 11.1808
      vertex -3.11507 6.86329 9.07713
    endloop
  endfacet
  facet normal -0.203118 -0.948778 -0.241998
    outer loop
      vertex 0.350066 5.5849 11.1808
      vertex -3.0839 6.86927 9.02755
      vertex 0.416562 5.59765 11.075
    endloop
  endfacet
  facet normal -0.823957 0.299607 -0.480969
    outer loop
      vertex -0.185539 5.01247 11.741
      vertex -0.128376 5.11991 11.71
      vertex -0.236927 4.89924 11.7585
    endloop
  endfacet
  facet normal -0.823646 0.299182 -0.481765
    outer loop
      vertex 0.350066 5.5849 11.1808
      vertex 0.747722 5.08805 10.1924
      vertex -0.128376 5.11991 11.71
    endloop
  endfacet
  facet normal 0.0061045 -0.844776 -0.535085
    outer loop
      vertex -3.3237 6.76084 9.37017
      vertex 0.138934 5.45962 11.464
      vertex -3.36153 6.73124 9.41647
    endloop
  endfacet
  facet normal -0.433011 -0.88037 0.193522
    outer loop
      vertex -2.88619 6.79315 8.64226
      vertex 0.589841 5.54608 10.7468
      vertex -2.91062 6.8177 8.69928
    endloop
  endfacet
  facet normal -0.383761 -0.91951 0.085018
    outer loop
      vertex -2.96306 6.84971 8.80881
      vertex 0.589841 5.54608 10.7468
      vertex 0.537402 5.57809 10.8563
    endloop
  endfacet
  facet normal -0.383728 -0.919531 0.0849424
    outer loop
      vertex 0.589841 5.54608 10.7468
      vertex -2.96306 6.84971 8.80881
      vertex -2.93848 6.83471 8.75747
    endloop
  endfacet
  facet normal 0.392721 -0.311941 -0.865138
    outer loop
      vertex -0.236927 4.89924 11.7585
      vertex -3.68601 6.28409 9.69349
      vertex -0.185539 5.01247 11.741
    endloop
  endfacet
  facet normal 0.392642 -0.312103 -0.865115
    outer loop
      vertex -3.68601 6.28409 9.69349
      vertex -0.236927 4.89924 11.7585
      vertex -3.73739 6.17086 9.71102
    endloop
  endfacet
  facet normal -0.823706 0.299301 -0.481589
    outer loop
      vertex -0.0663404 5.21984 11.666
      vertex -0.000409126 5.3107 11.6097
      vertex -0.128376 5.11991 11.71
    endloop
  endfacet
  facet normal -0.82383 0.299057 -0.481528
    outer loop
      vertex -0.348867 4.54284 11.7285
      vertex -0.367105 4.00456 11.4254
      vertex -0.38644 4.20071 11.5803
    endloop
  endfacet
  facet normal 0.541124 0.160418 -0.8255
    outer loop
      vertex -3.85931 5.75909 9.66372
      vertex -0.348867 4.54284 11.7285
      vertex -0.370145 4.42473 11.6916
    endloop
  endfacet
  facet normal 0.541208 0.160922 -0.825347
    outer loop
      vertex -0.348867 4.54284 11.7285
      vertex -3.85931 5.75909 9.66372
      vertex -3.84933 5.81446 9.68106
    endloop
  endfacet
  facet normal -0.823607 0.299166 -0.481841
    outer loop
      vertex 0.54682 4.27628 10.0317
      vertex 0.427621 4.06892 10.1067
      vertex 0.222346 3.82914 10.3087
    endloop
  endfacet
  facet normal -0.338278 0.422623 0.840808
    outer loop
      vertex -2.98401 5.49083 8.00068
      vertex 0.489656 4.16885 10.0627
      vertex 0.54682 4.27628 10.0317
    endloop
  endfacet
  facet normal -0.338282 0.422616 0.84081
    outer loop
      vertex 0.489656 4.16885 10.0627
      vertex -2.98401 5.49083 8.00068
      vertex -3.01081 5.44047 8.01521
    endloop
  endfacet
  facet normal -0.823537 0.299131 -0.481983
    outer loop
      vertex 0.710149 4.74592 10.0441
      vertex 0.64301 4.50678 10.0104
      vertex 0.54682 4.27628 10.0317
    endloop
  endfacet
  facet normal -0.823764 0.30035 -0.480835
    outer loop
      vertex 0.138934 5.45962 11.464
      vertex 0.210149 5.51534 11.3768
      vertex -0.000409126 5.3107 11.6097
    endloop
  endfacet
  facet normal -0.823648 0.299168 -0.48177
    outer loop
      vertex -0.000409126 5.3107 11.6097
      vertex 0.210149 5.51534 11.3768
      vertex -0.128376 5.11991 11.71
    endloop
  endfacet
  facet normal -0.555887 -0.594124 0.581383
    outer loop
      vertex -2.75798 6.46205 8.21743
      vertex 0.742484 5.19043 10.2649
      vertex -2.76547 6.51186 8.26117
    endloop
  endfacet
  facet normal -0.0772312 0.78241 0.617957
    outer loop
      vertex -3.20756 5.16933 8.18319
      vertex 0.222346 3.82914 10.3087
      vertex 0.292903 3.89771 10.2307
    endloop
  endfacet
  facet normal -0.0771147 0.782516 0.617836
    outer loop
      vertex 0.222346 3.82914 10.3087
      vertex -3.20756 5.16933 8.18319
      vertex -3.27812 5.10076 8.26123
    endloop
  endfacet
  facet normal 0.065044 0.893736 0.443854
    outer loop
      vertex 0.0803823 3.73144 10.4908
      vertex -3.3825 5.02536 8.39285
      vertex -3.42008 5.00306 8.44326
    endloop
  endfacet
  facet normal 0.135048 0.928542 0.345791
    outer loop
      vertex -3.45683 4.9884 8.49698
      vertex 0.0112143 3.70385 10.5919
      vertex 0.0803823 3.73144 10.4908
    endloop
  endfacet
  facet normal 0.135107 0.928565 0.345707
    outer loop
      vertex 0.0112143 3.70385 10.5919
      vertex -3.45683 4.9884 8.49698
      vertex -3.48925 4.97547 8.54438
    endloop
  endfacet
  facet normal 0.0650495 0.893737 0.44385
    outer loop
      vertex -3.34933 5.04504 8.34838
      vertex 0.0803823 3.73144 10.4908
      vertex 0.151132 3.77342 10.3959
    endloop
  endfacet
  facet normal 0.0649651 0.89369 0.443956
    outer loop
      vertex 0.0803823 3.73144 10.4908
      vertex -3.34933 5.04504 8.34838
      vertex -3.3825 5.02536 8.39285
    endloop
  endfacet
  facet normal -0.00599584 0.844857 0.534959
    outer loop
      vertex -3.31595 5.07116 8.30753
      vertex 0.151132 3.77342 10.3959
      vertex 0.222346 3.82914 10.3087
    endloop
  endfacet
  facet normal -0.00613774 0.844749 0.535128
    outer loop
      vertex 0.151132 3.77342 10.3959
      vertex -3.31595 5.07116 8.30753
      vertex -3.34933 5.04504 8.34838
    endloop
  endfacet
  facet normal -0.823649 0.299227 -0.481732
    outer loop
      vertex 0.747722 5.08805 10.1924
      vertex 0.222346 3.82914 10.3087
      vertex -0.176122 3.71067 10.9164
    endloop
  endfacet
  facet normal -0.823693 0.298984 -0.481808
    outer loop
      vertex 0.222346 3.82914 10.3087
      vertex 0.0112143 3.70385 10.5919
      vertex -0.176122 3.71067 10.9164
    endloop
  endfacet
  facet normal -0.823442 0.298211 -0.482714
    outer loop
      vertex 0.0683765 5.39105 11.542
      vertex 0.138934 5.45962 11.464
      vertex -0.000409126 5.3107 11.6097
    endloop
  endfacet
  facet normal 0.146937 -0.707902 -0.690857
    outer loop
      vertex -3.46863 6.61998 9.53047
      vertex -0.000409126 5.3107 11.6097
      vertex -3.50088 6.58232 9.5622
    endloop
  endfacet
  facet normal 0.146945 -0.707893 -0.690865
    outer loop
      vertex -0.000409126 5.3107 11.6097
      vertex -3.46863 6.61998 9.53047
      vertex 0.0683765 5.39105 11.542
    endloop
  endfacet
  facet normal -0.824382 0.298119 -0.481165
    outer loop
      vertex -0.274546 3.7889 11.1332
      vertex -0.344369 3.92088 11.3346
      vertex -0.367105 4.00456 11.4254
    endloop
  endfacet
  facet normal 0.475464 0.827353 -0.299033
    outer loop
      vertex -0.274546 3.7889 11.1332
      vertex -3.7932 5.08851 9.13423
      vertex -0.313353 3.84861 11.2367
    endloop
  endfacet
  facet normal 0.475524 0.827259 -0.299199
    outer loop
      vertex -3.7932 5.08851 9.13423
      vertex -0.274546 3.7889 11.1332
      vertex -3.77501 5.06052 9.08575
    endloop
  endfacet
  facet normal -0.82359 0.299287 -0.481795
    outer loop
      vertex 0.728386 5.2842 10.3473
      vertex 0.747722 5.08805 10.1924
      vertex 0.350066 5.5849 11.1808
    endloop
  endfacet
  facet normal -0.823582 0.299414 -0.481731
    outer loop
      vertex 0.479338 5.59537 10.9663
      vertex 0.635826 5.49986 10.6394
      vertex 0.350066 5.5849 11.1808
    endloop
  endfacet
  facet normal 0.0771786 -0.782464 -0.617895
    outer loop
      vertex -3.36153 6.73124 9.41647
      vertex 0.138934 5.45962 11.464
      vertex -3.39902 6.69481 9.45792
    endloop
  endfacet
  facet normal -0.475538 -0.827239 0.29923
    outer loop
      vertex -2.82583 6.71176 8.48852
      vertex 0.674633 5.44014 10.536
      vertex -2.84645 6.74349 8.54347
    endloop
  endfacet
  facet normal -0.328378 -0.944215 -0.0250084
    outer loop
      vertex -3.02113 6.86699 8.91881
      vertex 0.537402 5.57809 10.8563
      vertex 0.479338 5.59537 10.9663
    endloop
  endfacet
  facet normal -0.328372 -0.944217 -0.0250218
    outer loop
      vertex 0.537402 5.57809 10.8563
      vertex -3.02113 6.86699 8.91881
      vertex -2.99391 6.85889 8.86725
    endloop
  endfacet
  facet normal 0.278522 -0.526582 -0.803204
    outer loop
      vertex -3.56681 6.49146 9.61849
      vertex -0.0663404 5.21984 11.666
      vertex -3.59976 6.43837 9.64187
    endloop
  endfacet
  facet normal 0.566346 0.389707 -0.72621
    outer loop
      vertex -3.8832 5.5817 9.5944
      vertex -0.382735 4.31008 11.6419
      vertex -3.88517 5.52359 9.56168
    endloop
  endfacet
  facet normal -0.824668 0.298639 -0.480352
    outer loop
      vertex -0.370145 4.42473 11.6916
      vertex -0.348867 4.54284 11.7285
      vertex -0.38644 4.20071 11.5803
    endloop
  endfacet
  facet normal 0.565575 0.4959 -0.658944
    outer loop
      vertex -0.38644 4.20071 11.5803
      vertex -3.88412 5.41794 9.49427
      vertex -3.88691 5.47232 9.5328
    endloop
  endfacet
  facet normal -0.822965 0.298782 -0.483175
    outer loop
      vertex 0.64301 4.50678 10.0104
      vertex 0.598207 4.38952 10.0142
      vertex 0.54682 4.27628 10.0317
    endloop
  endfacet
  facet normal -0.392732 0.311915 0.865142
    outer loop
      vertex -2.92956 5.60098 7.97599
      vertex 0.54682 4.27628 10.0317
      vertex 0.598207 4.38952 10.0142
    endloop
  endfacet
  facet normal -0.39268 0.312026 0.865125
    outer loop
      vertex 0.54682 4.27628 10.0317
      vertex -2.92956 5.60098 7.97599
      vertex -2.95365 5.5479 7.9842
    endloop
  endfacet
  facet normal -0.278528 0.526567 0.803212
    outer loop
      vertex -3.04377 5.38738 8.03858
      vertex 0.427621 4.06892 10.1067
      vertex 0.489656 4.16885 10.0627
    endloop
  endfacet
  facet normal -0.278481 0.52664 0.80318
    outer loop
      vertex 0.427621 4.06892 10.1067
      vertex -3.04377 5.38738 8.03858
      vertex -3.07285 5.34054 8.05921
    endloop
  endfacet
  facet normal -0.278558 0.526518 0.803234
    outer loop
      vertex 0.489656 4.16885 10.0627
      vertex -3.01081 5.44047 8.01521
      vertex -3.04377 5.38738 8.03858
    endloop
  endfacet
  facet normal -0.482105 0.0779262 0.872641
    outer loop
      vertex 0.680521 4.6262 10.0204
      vertex -2.81995 5.89782 7.97295
      vertex -2.83987 5.83438 7.96761
    endloop
  endfacet
  facet normal -0.558183 -0.277519 0.78193
    outer loop
      vertex 0.744016 4.97867 10.1308
      vertex -2.75645 6.25029 8.0833
      vertex -2.76314 6.18939 8.05691
    endloop
  endfacet
  facet normal -0.51571 -0.0417763 0.855744
    outer loop
      vertex 0.710149 4.74592 10.0441
      vertex -2.79032 6.01753 7.99664
      vertex -2.80606 5.95394 7.98405
    endloop
  endfacet
  facet normal -0.56559 -0.495676 0.6591
    outer loop
      vertex 0.742484 5.19043 10.2649
      vertex -2.75274 6.35967 8.14489
      vertex 0.747722 5.08805 10.1924
    endloop
  endfacet
  facet normal -0.565568 -0.495954 0.65891
    outer loop
      vertex -2.75274 6.35967 8.14489
      vertex 0.742484 5.19043 10.2649
      vertex -2.7552 6.40766 8.1789
    endloop
  endfacet
  facet normal -0.82323 0.299777 -0.482106
    outer loop
      vertex 0.674633 5.44014 10.536
      vertex 0.705649 5.36787 10.4381
      vertex 0.635826 5.49986 10.6394
    endloop
  endfacet
  facet normal -0.823743 0.298952 -0.481743
    outer loop
      vertex 0.635826 5.49986 10.6394
      vertex 0.705649 5.36787 10.4381
      vertex 0.350066 5.5849 11.1808
    endloop
  endfacet
  facet normal -0.566348 -0.389706 0.726209
    outer loop
      vertex -2.75448 6.3084 8.11602
      vertex 0.747722 5.08805 10.1924
      vertex -2.75274 6.35967 8.14489
    endloop
  endfacet
  facet normal -0.566349 -0.389773 0.726172
    outer loop
      vertex 0.747722 5.08805 10.1924
      vertex -2.75448 6.3084 8.11602
      vertex 0.744016 4.97867 10.1308
    endloop
  endfacet
  facet normal -0.555865 -0.594311 0.581213
    outer loop
      vertex -2.77208 6.55582 8.29977
      vertex 0.742484 5.19043 10.2649
      vertex 0.728386 5.2842 10.3473
    endloop
  endfacet
  facet normal -0.555891 -0.5941 0.581404
    outer loop
      vertex 0.742484 5.19043 10.2649
      vertex -2.77208 6.55582 8.29977
      vertex -2.76547 6.51186 8.26117
    endloop
  endfacet
  facet normal -0.825347 0.297574 -0.479845
    outer loop
      vertex 0.742484 5.19043 10.2649
      vertex 0.747722 5.08805 10.1924
      vertex 0.728386 5.2842 10.3473
    endloop
  endfacet
  facet normal -0.566346 -0.389707 0.72621
    outer loop
      vertex 0.744016 4.97867 10.1308
      vertex -2.75448 6.3084 8.11602
      vertex -2.75645 6.25029 8.0833
    endloop
  endfacet
  facet normal -0.541206 -0.160874 0.825358
    outer loop
      vertex -2.77901 6.08028 8.01629
      vertex 0.731425 4.86403 10.0811
      vertex -2.76904 6.13565 8.03362
    endloop
  endfacet
  facet normal -0.541235 -0.161045 0.825306
    outer loop
      vertex 0.731425 4.86403 10.0811
      vertex -2.77901 6.08028 8.01629
      vertex 0.710149 4.74592 10.0441
    endloop
  endfacet
  facet normal 0.433072 0.880306 -0.193675
    outer loop
      vertex -0.22856 3.74267 11.0259
      vertex -3.77501 5.06052 9.08575
      vertex -0.274546 3.7889 11.1332
    endloop
  endfacet
  facet normal 0.433063 0.880315 -0.193652
    outer loop
      vertex -3.77501 5.06052 9.08575
      vertex -0.22856 3.74267 11.0259
      vertex -3.72903 5.01429 8.97842
    endloop
  endfacet
  facet normal 0.135052 0.928544 0.345786
    outer loop
      vertex 0.0803823 3.73144 10.4908
      vertex -3.42008 5.00306 8.44326
      vertex -3.45683 4.9884 8.49698
    endloop
  endfacet
  facet normal -0.823431 0.299538 -0.481911
    outer loop
      vertex -0.176122 3.71067 10.9164
      vertex -0.274546 3.7889 11.1332
      vertex -0.367105 4.00456 11.4254
    endloop
  endfacet
  facet normal -0.823635 0.299219 -0.48176
    outer loop
      vertex -0.128376 5.11991 11.71
      vertex 0.747722 5.08805 10.1924
      vertex -0.367105 4.00456 11.4254
    endloop
  endfacet
  facet normal -0.267808 -0.954017 -0.134653
    outer loop
      vertex -3.0839 6.86927 9.02755
      vertex 0.479338 5.59537 10.9663
      vertex 0.416562 5.59765 11.075
    endloop
  endfacet
  facet normal -0.267834 -0.954016 -0.134604
    outer loop
      vertex 0.479338 5.59537 10.9663
      vertex -3.0839 6.86927 9.02755
      vertex -3.02113 6.86699 8.91881
    endloop
  endfacet
  facet normal -0.823641 0.299132 -0.481805
    outer loop
      vertex 0.210149 5.51534 11.3768
      vertex 0.350066 5.5849 11.1808
      vertex -0.128376 5.11991 11.71
    endloop
  endfacet
  facet normal -0.823756 0.298081 -0.48226
    outer loop
      vertex 0.280898 5.55732 11.2819
      vertex 0.350066 5.5849 11.1808
      vertex 0.210149 5.51534 11.3768
    endloop
  endfacet
  facet normal 0.00605631 -0.844813 -0.535028
    outer loop
      vertex -3.29032 6.78695 9.32932
      vertex 0.138934 5.45962 11.464
      vertex -3.3237 6.76084 9.37017
    endloop
  endfacet
  facet normal 0.00599609 -0.844857 -0.534959
    outer loop
      vertex 0.138934 5.45962 11.464
      vertex -3.29032 6.78695 9.32932
      vertex 0.210149 5.51534 11.3768
    endloop
  endfacet
  facet normal -0.328371 -0.944217 -0.0250229
    outer loop
      vertex -2.96306 6.84971 8.80881
      vertex 0.537402 5.57809 10.8563
      vertex -2.99391 6.85889 8.86725
    endloop
  endfacet
  facet normal -0.383775 -0.919502 0.085045
    outer loop
      vertex -2.91062 6.8177 8.69928
      vertex 0.589841 5.54608 10.7468
      vertex -2.93848 6.83471 8.75747
    endloop
  endfacet
  facet normal 0.338298 -0.422593 -0.840815
    outer loop
      vertex -0.185539 5.01247 11.741
      vertex -3.62884 6.39153 9.66249
      vertex -0.128376 5.11991 11.71
    endloop
  endfacet
  facet normal 0.338284 -0.422617 -0.840808
    outer loop
      vertex -3.62884 6.39153 9.66249
      vertex -0.185539 5.01247 11.741
      vertex -3.65564 6.34117 9.67702
    endloop
  endfacet
  facet normal 0.27853 -0.526569 -0.80321
    outer loop
      vertex -0.128376 5.11991 11.71
      vertex -3.59976 6.43837 9.64187
      vertex -0.0663404 5.21984 11.666
    endloop
  endfacet
  facet normal 0.278552 -0.526533 -0.803226
    outer loop
      vertex -3.59976 6.43837 9.64187
      vertex -0.128376 5.11991 11.71
      vertex -3.62884 6.39153 9.66249
    endloop
  endfacet
  facet normal 0.541216 0.160888 -0.825349
    outer loop
      vertex -3.85931 5.75909 9.66372
      vertex -0.370145 4.42473 11.6916
      vertex -3.87061 5.69635 9.64408
    endloop
  endfacet
  facet normal -0.823577 0.299231 -0.481853
    outer loop
      vertex -0.348867 4.54284 11.7285
      vertex -0.128376 5.11991 11.71
      vertex -0.367105 4.00456 11.4254
    endloop
  endfacet
  facet normal 0.558197 0.277641 -0.781877
    outer loop
      vertex -3.8832 5.5817 9.5944
      vertex -0.370145 4.42473 11.6916
      vertex -0.382735 4.31008 11.6419
    endloop
  endfacet
  facet normal 0.558187 0.277527 -0.781925
    outer loop
      vertex -0.370145 4.42473 11.6916
      vertex -3.8832 5.5817 9.5944
      vertex -3.87061 5.69635 9.64408
    endloop
  endfacet
  facet normal -0.515676 -0.041631 0.855772
    outer loop
      vertex -2.81995 5.89782 7.97295
      vertex 0.710149 4.74592 10.0441
      vertex -2.80606 5.95394 7.98405
    endloop
  endfacet
  facet normal -0.515708 -0.0417788 0.855745
    outer loop
      vertex 0.710149 4.74592 10.0441
      vertex -2.81995 5.89782 7.97295
      vertex 0.680521 4.6262 10.0204
    endloop
  endfacet
  facet normal -0.824216 0.299156 -0.480806
    outer loop
      vertex 0.710149 4.74592 10.0441
      vertex 0.680521 4.6262 10.0204
      vertex 0.64301 4.50678 10.0104
    endloop
  endfacet
  facet normal -0.440774 0.196793 0.87578
    outer loop
      vertex -2.85746 5.77839 7.9629
      vertex 0.598207 4.38952 10.0142
      vertex 0.64301 4.50678 10.0104
    endloop
  endfacet
  facet normal -0.440835 0.196646 0.875783
    outer loop
      vertex 0.598207 4.38952 10.0142
      vertex -2.85746 5.77839 7.9629
      vertex -2.87846 5.72343 7.96467
    endloop
  endfacet
  facet normal -0.558189 -0.277581 0.781904
    outer loop
      vertex -2.76904 6.13565 8.03362
      vertex 0.744016 4.97867 10.1308
      vertex -2.76314 6.18939 8.05691
    endloop
  endfacet
  facet normal -0.558195 -0.277659 0.781872
    outer loop
      vertex 0.744016 4.97867 10.1308
      vertex -2.76904 6.13565 8.03362
      vertex 0.731425 4.86403 10.0811
    endloop
  endfacet
  facet normal -0.823233 0.299497 -0.482275
    outer loop
      vertex 0.747722 5.08805 10.1924
      vertex 0.744016 4.97867 10.1308
      vertex 0.731425 4.86403 10.0811
    endloop
  endfacet
  facet normal -0.823485 0.299646 -0.481752
    outer loop
      vertex 0.537402 5.57809 10.8563
      vertex 0.635826 5.49986 10.6394
      vertex 0.479338 5.59537 10.9663
    endloop
  endfacet
  facet normal -0.822308 0.302228 -0.482149
    outer loop
      vertex 0.589841 5.54608 10.7468
      vertex 0.635826 5.49986 10.6394
      vertex 0.537402 5.57809 10.8563
    endloop
  endfacet
  facet normal -0.537459 -0.682929 0.494719
    outer loop
      vertex -2.79482 6.63949 8.39061
      vertex 0.728386 5.2842 10.3473
      vertex 0.705649 5.36787 10.4381
    endloop
  endfacet
  facet normal -0.537432 -0.68304 0.494594
    outer loop
      vertex 0.728386 5.2842 10.3473
      vertex -2.79482 6.63949 8.39061
      vertex -2.78416 6.60027 8.34803
    endloop
  endfacet
  facet normal -0.51052 -0.761105 0.40011
    outer loop
      vertex -2.80936 6.67337 8.4365
      vertex 0.705649 5.36787 10.4381
      vertex 0.674633 5.44014 10.536
    endloop
  endfacet
  facet normal -0.510529 -0.761084 0.40014
    outer loop
      vertex 0.705649 5.36787 10.4381
      vertex -2.80936 6.67337 8.4365
      vertex -2.79482 6.63949 8.39061
    endloop
  endfacet
  facet normal 0.383731 0.919529 -0.0849573
    outer loop
      vertex -0.176122 3.71067 10.9164
      vertex -3.72903 5.01429 8.97842
      vertex -0.22856 3.74267 11.0259
    endloop
  endfacet
  facet normal 0.383721 0.919535 -0.0849339
    outer loop
      vertex -3.72903 5.01429 8.97842
      vertex -0.176122 3.71067 10.9164
      vertex -3.67659 4.98229 8.86889
    endloop
  endfacet
  facet normal 0.555887 0.594124 -0.581383
    outer loop
      vertex -0.367105 4.00456 11.4254
      vertex -3.86757 5.27618 9.37793
      vertex -3.87506 5.32599 9.42167
    endloop
  endfacet
  facet normal 0.537468 0.68289 -0.494762
    outer loop
      vertex -0.344369 3.92088 11.3346
      vertex -3.86757 5.27618 9.37793
      vertex -0.367105 4.00456 11.4254
    endloop
  endfacet
  facet normal 0.53745 0.682964 -0.494679
    outer loop
      vertex -3.86757 5.27618 9.37793
      vertex -0.344369 3.92088 11.3346
      vertex -3.85691 5.23695 9.33535
    endloop
  endfacet
  facet normal -0.135111 -0.928563 -0.34571
    outer loop
      vertex -3.18715 6.84187 9.18704
      vertex 0.280898 5.55732 11.2819
      vertex -3.21957 6.82894 9.23444
    endloop
  endfacet
  facet normal -0.135094 -0.928557 -0.345735
    outer loop
      vertex 0.280898 5.55732 11.2819
      vertex -3.18715 6.84187 9.18704
      vertex 0.350066 5.5849 11.1808
    endloop
  endfacet
  facet normal -0.0649379 -0.893666 -0.444009
    outer loop
      vertex -3.21957 6.82894 9.23444
      vertex 0.280898 5.55732 11.2819
      vertex -3.25715 6.80663 9.28484
    endloop
  endfacet
  facet normal -0.135133 -0.928573 -0.345676
    outer loop
      vertex -3.1504 6.85652 9.13332
      vertex 0.350066 5.5849 11.1808
      vertex -3.18715 6.84187 9.18704
    endloop
  endfacet
  facet normal -0.203104 -0.948776 -0.242016
    outer loop
      vertex -3.11507 6.86329 9.07713
      vertex 0.350066 5.5849 11.1808
      vertex -3.1504 6.85652 9.13332
    endloop
  endfacet
  facet normal -0.541208 -0.160909 0.825349
    outer loop
      vertex 0.710149 4.74592 10.0441
      vertex -2.77901 6.08028 8.01629
      vertex -2.79032 6.01753 7.99664
    endloop
  endfacet
  facet normal -0.440817 0.196689 0.875782
    outer loop
      vertex 0.598207 4.38952 10.0142
      vertex -2.87846 5.72343 7.96467
      vertex -2.90226 5.66114 7.96668
    endloop
  endfacet
  facet normal -0.392665 0.312068 0.865117
    outer loop
      vertex 0.598207 4.38952 10.0142
      vertex -2.90226 5.66114 7.96668
      vertex -2.92956 5.60098 7.97599
    endloop
  endfacet
  facet normal 0.328436 0.944198 0.0248987
    outer loop
      vertex -0.176122 3.71067 10.9164
      vertex -3.64574 4.9731 8.81045
      vertex -3.67659 4.98229 8.86889
    endloop
  endfacet
  facet normal 0.482191 -0.0776526 -0.872618
    outer loop
      vertex -3.81971 5.93417 9.70475
      vertex -0.28173 4.78198 11.7623
      vertex -0.319241 4.66255 11.7522
    endloop
  endfacet
  facet normal 0.482076 -0.0780558 -0.872645
    outer loop
      vertex -0.28173 4.78198 11.7623
      vertex -3.81971 5.93417 9.70475
      vertex -3.80212 5.99015 9.70946
    endloop
  endfacet
  facet normal 0.51571 0.0417901 -0.855743
    outer loop
      vertex -3.84933 5.81446 9.68106
      vertex -0.319241 4.66255 11.7522
      vertex -0.348867 4.54284 11.7285
    endloop
  endfacet
  facet normal 0.515695 0.0417223 -0.855756
    outer loop
      vertex -0.319241 4.66255 11.7522
      vertex -3.84933 5.81446 9.68106
      vertex -3.83545 5.87057 9.69216
    endloop
  endfacet
  facet normal -0.823775 0.299319 -0.48146
    outer loop
      vertex -0.28173 4.78198 11.7623
      vertex -0.128376 5.11991 11.71
      vertex -0.348867 4.54284 11.7285
    endloop
  endfacet
  facet normal -0.823272 0.29892 -0.482566
    outer loop
      vertex -0.236927 4.89924 11.7585
      vertex -0.128376 5.11991 11.71
      vertex -0.28173 4.78198 11.7623
    endloop
  endfacet
  facet normal -0.823448 0.299364 -0.481991
    outer loop
      vertex -0.382735 4.31008 11.6419
      vertex -0.370145 4.42473 11.6916
      vertex -0.38644 4.20071 11.5803
    endloop
  endfacet
  facet normal 0.566348 0.389804 -0.726156
    outer loop
      vertex -3.88691 5.47232 9.5328
      vertex -0.382735 4.31008 11.6419
      vertex -0.38644 4.20071 11.5803
    endloop
  endfacet
  facet normal 0.566348 0.389814 -0.726151
    outer loop
      vertex -0.382735 4.31008 11.6419
      vertex -3.88691 5.47232 9.5328
      vertex -3.88517 5.52359 9.56168
    endloop
  endfacet
  facet normal 0.440771 -0.196792 -0.875782
    outer loop
      vertex -0.28173 4.78198 11.7623
      vertex -3.73739 6.17086 9.71102
      vertex -0.236927 4.89924 11.7585
    endloop
  endfacet
  facet normal 0.440841 -0.196621 -0.875785
    outer loop
      vertex -3.73739 6.17086 9.71102
      vertex -0.28173 4.78198 11.7623
      vertex -3.7822 6.0536 9.71479
    endloop
  endfacet
  facet normal 0.48208 -0.0780432 -0.872644
    outer loop
      vertex -3.7822 6.0536 9.71479
      vertex -0.28173 4.78198 11.7623
      vertex -3.80212 5.99015 9.70946
    endloop
  endfacet
  facet normal -0.825319 0.297605 -0.479876
    outer loop
      vertex -0.367105 4.00456 11.4254
      vertex -0.381203 4.09833 11.5078
      vertex -0.38644 4.20071 11.5803
    endloop
  endfacet
  facet normal 0.565592 0.495672 -0.659102
    outer loop
      vertex -3.88167 5.36995 9.46027
      vertex -0.38644 4.20071 11.5803
      vertex -0.381203 4.09833 11.5078
    endloop
  endfacet
  facet normal 0.565583 0.495782 -0.659026
    outer loop
      vertex -0.38644 4.20071 11.5803
      vertex -3.88167 5.36995 9.46027
      vertex -3.88412 5.41794 9.49427
    endloop
  endfacet
endsolid OpenSCAD_Model
