solid OpenSCAD_Model
  facet normal -0.894428 0.447213 0
    outer loop
      vertex -5.78159 0 13
      vertex 0 11.5632 19
      vertex 0 11.5632 13
    endloop
  endfacet
  facet normal -0.894428 0.447213 0
    outer loop
      vertex 0 11.5632 19
      vertex -5.78159 0 13
      vertex -5.78159 0 19
    endloop
  endfacet
  facet normal 0 0 1
    outer loop
      vertex 0 11.5632 19
      vertex 0 -2.90393 19
      vertex 5.78159 0 19
    endloop
  endfacet
  facet normal 0 -0 1
    outer loop
      vertex 0 -2.90393 19
      vertex 0 11.5632 19
      vertex -5.78159 0 19
    endloop
  endfacet
  facet normal 0.894428 0.447213 0
    outer loop
      vertex 5.78159 0 19
      vertex 0 11.5632 13
      vertex 0 11.5632 19
    endloop
  endfacet
  facet normal 0.894428 0.447213 0
    outer loop
      vertex 0 11.5632 13
      vertex 5.78159 0 19
      vertex 5.78159 0 13
    endloop
  endfacet
  facet normal 0.448837 -0.893614 0
    outer loop
      vertex 0 -2.90393 13
      vertex 5.78159 0 19
      vertex 0 -2.90393 19
    endloop
  endfacet
  facet normal 0.448837 -0.893614 0
    outer loop
      vertex 5.78159 0 19
      vertex 0 -2.90393 13
      vertex 5.78159 0 13
    endloop
  endfacet
  facet normal -0.448837 -0.893614 0
    outer loop
      vertex -5.78159 0 13
      vertex 0 -2.90393 19
      vertex -5.78159 0 19
    endloop
  endfacet
  facet normal -0.448837 -0.893614 -0
    outer loop
      vertex 0 -2.90393 19
      vertex -5.78159 0 13
      vertex 0 -2.90393 13
    endloop
  endfacet
  facet normal 0 0 -1
    outer loop
      vertex 0 -2.90393 13
      vertex 0 11.5632 13
      vertex 5.78159 0 13
    endloop
  endfacet
  facet normal 0 -0 -1
    outer loop
      vertex 0 11.5632 13
      vertex 0 -2.90393 13
      vertex -5.78159 0 13
    endloop
  endfacet
endsolid OpenSCAD_Model
