solid OpenSCAD_Model
  facet normal 0 0 -1
    outer loop
      vertex -7.5 -6.5 13
      vertex 5.5 6.5 13
      vertex 5.5 -6.5 13
    endloop
  endfacet
  facet normal -0 0 -1
    outer loop
      vertex 5.5 6.5 13
      vertex -7.5 -6.5 13
      vertex -7.5 6.5 13
    endloop
  endfacet
  facet normal 1 -0 0
    outer loop
      vertex 5.5 -6.5 19
      vertex 5.5 6.5 13
      vertex 5.5 6.5 19
    endloop
  endfacet
  facet normal 1 0 0
    outer loop
      vertex 5.5 6.5 13
      vertex 5.5 -6.5 19
      vertex 5.5 -6.5 13
    endloop
  endfacet
  facet normal 0 -1 0
    outer loop
      vertex -7.5 -6.5 13
      vertex 5.5 -6.5 19
      vertex -7.5 -6.5 19
    endloop
  endfacet
  facet normal 0 -1 -0
    outer loop
      vertex 5.5 -6.5 19
      vertex -7.5 -6.5 13
      vertex 5.5 -6.5 13
    endloop
  endfacet
  facet normal -0 0 1
    outer loop
      vertex -7.5 6.5 19
      vertex 5.5 -6.5 19
      vertex 5.5 6.5 19
    endloop
  endfacet
  facet normal 0 0 1
    outer loop
      vertex 5.5 -6.5 19
      vertex -7.5 6.5 19
      vertex -7.5 -6.5 19
    endloop
  endfacet
  facet normal -1 0 0
    outer loop
      vertex -7.5 -6.5 13
      vertex -7.5 6.5 19
      vertex -7.5 6.5 13
    endloop
  endfacet
  facet normal -1 -0 0
    outer loop
      vertex -7.5 6.5 19
      vertex -7.5 -6.5 13
      vertex -7.5 -6.5 19
    endloop
  endfacet
  facet normal 0 1 -0
    outer loop
      vertex 5.5 6.5 13
      vertex -7.5 6.5 19
      vertex 5.5 6.5 19
    endloop
  endfacet
  facet normal 0 1 0
    outer loop
      vertex -7.5 6.5 19
      vertex 5.5 6.5 13
      vertex -7.5 6.5 13
    endloop
  endfacet
endsolid OpenSCAD_Model
