solid OpenSCAD_Model
  facet normal 0 0 -1
    outer loop
      vertex -6.256 -7.82 10.744
      vertex 6.256 7.82 10.744
      vertex 6.256 -7.82 10.744
    endloop
  endfacet
  facet normal -0 0 -1
    outer loop
      vertex 6.256 7.82 10.744
      vertex -6.256 -7.82 10.744
      vertex -6.256 7.82 10.744
    endloop
  endfacet
  facet normal -1 0 0
    outer loop
      vertex -6.256 -7.82 10.744
      vertex -6.256 7.82 23.256
      vertex -6.256 7.82 10.744
    endloop
  endfacet
  facet normal -1 -0 0
    outer loop
      vertex -6.256 7.82 23.256
      vertex -6.256 -7.82 10.744
      vertex -6.256 -7.82 23.256
    endloop
  endfacet
  facet normal -0 0 1
    outer loop
      vertex -6.256 7.82 23.256
      vertex 6.256 -7.82 23.256
      vertex 6.256 7.82 23.256
    endloop
  endfacet
  facet normal 0 0 1
    outer loop
      vertex 6.256 -7.82 23.256
      vertex -6.256 7.82 23.256
      vertex -6.256 -7.82 23.256
    endloop
  endfacet
  facet normal 1 -0 0
    outer loop
      vertex 6.256 -7.82 23.256
      vertex 6.256 7.82 10.744
      vertex 6.256 7.82 23.256
    endloop
  endfacet
  facet normal 1 0 0
    outer loop
      vertex 6.256 7.82 10.744
      vertex 6.256 -7.82 23.256
      vertex 6.256 -7.82 10.744
    endloop
  endfacet
  facet normal 0 -0.563147 -0.826357
    outer loop
      vertex -3.05176e-05 -17 17
      vertex 6.256 -7.82 10.744
      vertex 3.05176e-05 -17 17
    endloop
  endfacet
  facet normal -0 -0.563147 -0.826357
    outer loop
      vertex 6.256 -7.82 10.744
      vertex -3.05176e-05 -17 17
      vertex -6.256 -7.82 10.744
    endloop
  endfacet
  facet normal 0 -0.563147 0.826357
    outer loop
      vertex 6.256 -7.82 23.256
      vertex -3.05176e-05 -17 17
      vertex 3.05176e-05 -17 17
    endloop
  endfacet
  facet normal 0 -0.563147 0.826357
    outer loop
      vertex -3.05176e-05 -17 17
      vertex 6.256 -7.82 23.256
      vertex -6.256 -7.82 23.256
    endloop
  endfacet
  facet normal 0.826358 -0.563145 0
    outer loop
      vertex 3.05176e-05 -17 17
      vertex 6.256 -7.82 10.744
      vertex 6.256 -7.82 23.256
    endloop
  endfacet
  facet normal -0.826358 -0.563145 0
    outer loop
      vertex -3.05176e-05 -17 17
      vertex -6.256 -7.82 23.256
      vertex -6.256 -7.82 10.744
    endloop
  endfacet
  facet normal -0.826358 0.563145 0
    outer loop
      vertex -3.05176e-05 17 17
      vertex -6.256 7.82 10.744
      vertex -6.256 7.82 23.256
    endloop
  endfacet
  facet normal 0 0.563147 -0.826357
    outer loop
      vertex 6.256 7.82 10.744
      vertex -3.05176e-05 17 17
      vertex 3.05176e-05 17 17
    endloop
  endfacet
  facet normal 0 0.563147 -0.826357
    outer loop
      vertex -3.05176e-05 17 17
      vertex 6.256 7.82 10.744
      vertex -6.256 7.82 10.744
    endloop
  endfacet
  facet normal 0.826358 0.563145 0
    outer loop
      vertex 3.05176e-05 17 17
      vertex 6.256 7.82 23.256
      vertex 6.256 7.82 10.744
    endloop
  endfacet
  facet normal -0 0.563147 0.826357
    outer loop
      vertex -3.05176e-05 17 17
      vertex 6.256 7.82 23.256
      vertex 3.05176e-05 17 17
    endloop
  endfacet
  facet normal 0 0.563147 0.826357
    outer loop
      vertex 6.256 7.82 23.256
      vertex -3.05176e-05 17 17
      vertex -6.256 7.82 23.256
    endloop
  endfacet
endsolid OpenSCAD_Model
