<?xml version="1.0" encoding="UTF-8"?>
<svg id="Layer_2" data-name="Layer 2" xmlns="http://www.w3.org/2000/svg" viewBox="0 0 36.85 36.85">
  <defs>
    <style>
      .cls-1 {
        fill: #231f20;
      }
    </style>
  </defs>
  <g id="Layer_1-2" data-name="Layer 1">
    <g>
      <path class="cls-1" d="m15.15,9.74c.33.05.68.07,1.03.08.22,1.68.03,3.54.04,5.25.03,5.47.08,13.73-.19,14.66-.12.55-.38,1.11-.77,1.66-.32.45-.5.81-.35,1.1.33.63,1.56.14,2.01-.03.43-.16,1.47-.46,1.87-.46,0,0,.04,0,.06,0,.05,0,.11,0,.13,0,.31,0,1.29.3,1.72.46.47.17,1.7.65,2.01,0,.13-.26.02-.61-.34-1.07-.9-1.34-.91-2.05-.95-3.75v-.58s-.01-21.46-.01-21.46c0-.16-.13-.29-.29-.29,0,0-1.2,0-1.27,0-.46,0-2.13.09-2.53.49-.39.29-.69.75-.99,1.21-.45.69-.8,1.13-1.42,1.18-.14,0-.18-.05-.22-.51-.02-.28-.06-.66-.31-.85-.44-.33-1.39-.22-1.68.25-.19.32-.21.75-.06,1.04.57,1.04,1.47,1.47,2.51,1.63Z"/>
      <g>
        <path d="m36.74,0c-2.51,0-5.03,0-7.54,0-.48,0-.47.62-.2.85.32.23.7.4,1.06.56.55.25,1.11.47,1.64.77.5.27.96.61,1.38.98.85.76,1.49,1.69,1.95,2.72.22.48.42.98.65,1.46.09.18.18.37.32.51.33.33.85.22.85-.35,0-2.5,0-5,0-7.5h-.11Z"/>
        <path d="m36.85,36.74c0-2.51,0-5.03,0-7.54,0-.48-.62-.47-.85-.2-.23.32-.4.7-.56,1.06-.25.55-.47,1.11-.77,1.64-.27.5-.61.96-.98,1.38-.76.85-1.69,1.49-2.72,1.95-.48.22-.98.42-1.46.65-.18.09-.37.18-.51.32-.33.33-.22.85.35.85,2.5,0,5,0,7.5,0v-.11Z"/>
        <path d="m.11,36.85c2.51,0,5.03,0,7.54,0,.48,0,.47-.62.2-.85-.32-.23-.7-.4-1.06-.56-.55-.25-1.11-.47-1.64-.77-.5-.27-.96-.61-1.38-.98-.85-.76-1.49-1.69-1.95-2.72-.22-.48-.42-.98-.65-1.46-.09-.18-.18-.37-.32-.51C.53,28.67,0,28.78,0,29.35,0,31.85,0,34.35,0,36.85h.11Z"/>
        <path d="m0,.11c0,2.51,0,5.03,0,7.54C0,8.13.62,8.12.85,7.85c.23-.32.4-.7.56-1.06.25-.55.47-1.11.77-1.64.27-.5.61-.96.98-1.38.76-.85,1.69-1.49,2.72-1.95.48-.22.98-.42,1.46-.65.18-.09.37-.18.51-.32C8.18.53,8.07,0,7.5,0,5,0,2.5,0,0,0v.11Z"/>
      </g>
    </g>
  </g>
</svg>