<?xml version="1.0" encoding="UTF-8"?>
<svg id="Layer_2" data-name="Layer 2" xmlns="http://www.w3.org/2000/svg" viewBox="0 0 36.85 36.85">
  <defs>
    <style>
      .cls-1 {
        fill: #231f20;
      }
    </style>
  </defs>
  <g id="Layer_1-2" data-name="Layer 1">
    <g>
      <path class="cls-1" d="m5.43,31.26c.45.36,1.04.54,1.73.54h.18c.26,0,.69,0,1.26,0,.81,0,1.89,0,3.13-.01,1.66,0,3.61-.02,5.56-.02,2.17,0,4.33,0,6.5.07.75.02,1.49.05,2.24.1.58.04,1.86.54,2.29-.06.22-.3.08-.72-.07-1.17-.26-.73-.18-1.33.25-1.96l3.51-5.43c.19-.24.23-.55.11-.81-.33-.71-1.68-.52-2.07,0-3.71,4.82-7.01,6.45-13.11,6.45h-.61s-7.33,0-7.33,0h-.28c-.39-.03-.75-.05-.97-.16-.14-.07-.27-.19-.26-.54,1.1-3.87,6.37-5.49,11.48-7.06,5.85-1.8,11.91-3.66,12.05-8.99-.36-6.79-8.73-7.53-12.31-7.53-2.54,0-5.24.36-7.2.96-2.57.66-5.48,2.71-5.91,4.99-.17.89-.02,2.21,1.66,3.43.89.66,2.79,1.12,4.64,1.12.86,0,1.62-.11,2.2-.31.58-.23.78-.67.72-1.02-.17-.95-1.69-.62-2.22-.3-.18.1-.34.2-.45.21-1.15-.02-2.01-.52-2.36-1.38-.4-.96-.08-2.16.82-3.12,2.23-2.45,5.96-2.84,7.99-2.85,1.38.01,4.81.22,6.94,1.81.92.73,1.33,1.59,1.22,2.55-.22,1.87-2.35,3.8-4.27,4.68-1.47.85-3.31,1.62-5.26,2.43-5.8,2.41-12.38,5.15-12.51,11.52-.03.56,0,1.35.74,1.85Z"/>
      <g>
        <path d="m36.74,0c-2.51,0-5.03,0-7.54,0-.48,0-.47.62-.2.85.32.23.7.4,1.06.56.55.25,1.11.47,1.64.77.5.27.96.61,1.38.98.85.76,1.49,1.69,1.95,2.72.22.48.42.98.65,1.46.09.18.18.37.32.51.33.33.85.22.85-.35,0-2.5,0-5,0-7.5h-.11Z"/>
        <path d="m36.85,36.74c0-2.51,0-5.03,0-7.54,0-.48-.62-.47-.85-.2-.23.32-.4.7-.56,1.06-.25.55-.47,1.11-.77,1.64-.27.5-.61.96-.98,1.38-.76.85-1.69,1.49-2.72,1.95-.48.22-.98.42-1.46.65-.18.09-.37.18-.51.32-.33.33-.22.85.35.85,2.5,0,5,0,7.5,0v-.11Z"/>
        <path d="m.11,36.85c2.51,0,5.03,0,7.54,0,.48,0,.47-.62.2-.85-.32-.23-.7-.4-1.06-.56-.55-.25-1.11-.47-1.64-.77-.5-.27-.96-.61-1.38-.98-.85-.76-1.49-1.69-1.95-2.72-.22-.48-.42-.98-.65-1.46-.09-.18-.18-.37-.32-.51C.53,28.67,0,28.78,0,29.35,0,31.85,0,34.35,0,36.85h.11Z"/>
        <path d="m0,.11c0,2.51,0,5.03,0,7.54C0,8.13.62,8.12.85,7.85c.23-.32.4-.7.56-1.06.25-.55.47-1.11.77-1.64.27-.5.61-.96.98-1.38.76-.85,1.69-1.49,2.72-1.95.48-.22.98-.42,1.46-.65.18-.09.37-.18.51-.32C8.18.53,8.07,0,7.5,0,5,0,2.5,0,0,0v.11Z"/>
      </g>
    </g>
  </g>
</svg>