<?xml version="1.0" encoding="UTF-8"?>
<svg id="Layer_2" data-name="Layer 2" xmlns="http://www.w3.org/2000/svg" viewBox="0 0 36.85 36.85">
  <g id="Layer_1-2" data-name="Layer 1">
    <g>
      <path d="m32.17,22.8c-.15-3.18-2.65-5.82-6.73-7.15,4.42-2.18,5.03-4.32,4.72-5.76-.66-3.12-5.93-5.21-10.44-5.21-.32,0-.65.01-.95.03-4.78,0-8.39,1.15-10.71,3.4-1.05,1.06-1.57,2.29-1.46,3.47.1,1.03.69,1.93,1.67,2.59.89.68,2.79,1.16,4.61,1.16.85,0,1.6-.11,2.18-.32.49-.2.79-.62.71-1.03-.18-.95-1.68-.62-2.22-.3-.17.1-.33.2-.43.21-1.2-.03-2.11-.59-2.51-1.53-.42-1.01-.15-2.24.73-3.2,1.98-2.22,5.28-2.71,7.7-2.72h.35c3.18,0,5.6,1.28,6.02,3.19.65,2.97-2.97,4.63-5.06,5.7-1.08.55-2.16,1.02-3.32,1.36-.1.03-.18.11-.21.21-.03.1,0,.21.09.28l1.09,1c.05.05.18.07.25.07,6.49,0,9.15,2.99,9.19,6.01.04,2.82-2.93,5.95-9.55,6.15-2.64-.02-6.2-.59-8.2-3.21-.96-1.18-1.23-2.89-.65-4.18.44-.99,1.32-1.56,2.43-1.6.13.01.29.11.46.21.51.31,1.57.55,2.05.04.13-.14.19-.31.17-.57-.27-1.01-1.43-1.05-2.49-1.1-.13,0-.26,0-.39,0-2.01,0-3.76.5-4.82,1.38-1.81,1.51-1.91,3.15-1.68,4.26.48,2.33,2.94,4.63,5.81,5.45,1.91.69,4.45,1.07,7.15,1.07,2.94,0,5.65-.45,7.65-1.26,4.34-1.66,6.94-4.77,6.78-8.11Z"/>
      <path d="m30.06,1.41c.55.25,1.11.47,1.64.77.5.27.96.61,1.38.98.85.76,1.49,1.69,1.95,2.72.22.48.42.98.65,1.46.09.18.18.37.32.51.33.33.85.22.85-.35,0-2.5,0-5,0-7.5h-7.65c-.48,0-.47.62-.2.85.32.23.7.4,1.06.56Z"/>
      <path d="m36,29c-.23.32-.4.7-.56,1.06-.25.55-.47,1.11-.77,1.64-.28.5-.61.96-.98,1.38-.76.85-1.69,1.49-2.72,1.95-.48.22-.98.42-1.46.65-.18.09-.37.18-.51.32-.33.33-.22.85.35.85,2.5,0,5,0,7.5,0v-7.65c0-.48-.62-.47-.85-.2Z"/>
      <path d="m6.79,35.44c-.55-.25-1.11-.47-1.64-.77-.5-.27-.96-.61-1.38-.98-.85-.76-1.49-1.69-1.95-2.72-.22-.48-.42-.98-.65-1.46-.09-.18-.18-.37-.32-.51C.53,28.67,0,28.78,0,29.35c0,2.5,0,5,0,7.5h7.65c.48,0,.47-.62.2-.85-.32-.23-.7-.4-1.06-.56Z"/>
      <path d="m.85,7.85c.23-.32.4-.7.56-1.06.25-.55.47-1.11.77-1.64.28-.5.61-.96.98-1.38.76-.85,1.69-1.49,2.72-1.95.48-.22.98-.42,1.46-.65.18-.09.37-.18.51-.32C8.18.53,8.07,0,7.5,0c-2.5,0-5,0-7.5,0v7.65c0,.48.62.47.85.2Z"/>
    </g>
  </g>
</svg>