<?xml version="1.0" encoding="UTF-8"?>
<svg id="Layer_2" data-name="Layer 2" xmlns="http://www.w3.org/2000/svg" viewBox="0 0 36.85 36.85">
  <defs>
    <style>
      .cls-1 {
        fill: #231f20;
      }
    </style>
  </defs>
  <g id="Layer_1-2" data-name="Layer 1">
    <g>
      <path class="cls-1" d="m31.83,22.15c-.13-.03-.27-.03-.4-.03-1.33.06-2.66.04-3.99-.05-.32-.02-.68-.07-.87-.34-.14-.2-.15-.46-.15-.71,0-5.3,0-10.6,0-15.9,0-.15,0-.31-.09-.43-.16-.21-.48-.14-.72-.05-1.41.5-2.82,1.03-4.22,1.58-.13.05-.28.11-.36.23-.09.13-.09.3-.09.46,0,4.65,0,9.3,0,13.95,0,.33,0,.68-.2.94-.28.37-.8.4-1.26.38-3.39-.1-6.78-.19-10.16-.29,2.62-1.78,4.94-4.03,6.73-6.7.59-.88,1.13-1.82,1.4-2.85s.25-2.19-.25-3.13c-.74-1.41-2.35-2.08-3.87-2.36-1.58-.3-3.22-.31-4.81-.04-.35.06-.7.14-1.03.3-.24.12-.7.39-.75.7s.31.59.53.69c.29.14.64.17.95.09.63-.16,1.17-.6,1.8-.74,1.33-.3,2.65.87,3.02,2.23s0,2.82-.52,4.13c-1.43,3.67-4.06,6.9-7.52,8.55-.12.06-.26.13-.31.25-.05.11-.02.24.01.36.11.45.23.9.34,1.35.03.14.07.28.18.37.11.09.26.1.4.1,5.1,0,10.19,0,15.29,0,.36,2.04-.27,4.25-1.64,5.75-.12.13-.24.26-.27.43-.1.51.62.73,1.12.65,1.25-.19,2.46-.76,3.73-.73,1.2.04,2.32.61,3.51.73.36.04.82-.03.94-.39.11-.33-.16-.66-.39-.92-1.3-1.49-1.85-3.66-1.43-5.63,1.13.16,2.3.32,3.41.01s2.14-1.21,2.27-2.39c.01-.13.02-.26-.04-.37-.06-.12-.17-.18-.29-.21Z"/>
      <g>
        <path d="m36.74,0c-2.51,0-5.03,0-7.54,0-.48,0-.47.62-.2.85.32.23.7.4,1.06.56.55.25,1.11.47,1.64.77.5.27.96.61,1.38.98.85.76,1.49,1.69,1.95,2.72.22.48.42.98.65,1.46.09.18.18.37.32.51.33.33.85.22.85-.35,0-2.5,0-5,0-7.5h-.11Z"/>
        <path d="m36.85,36.74c0-2.51,0-5.03,0-7.54,0-.48-.62-.47-.85-.2-.23.32-.4.7-.56,1.06-.25.55-.47,1.11-.77,1.64-.27.5-.61.96-.98,1.38-.76.85-1.69,1.49-2.72,1.95-.48.22-.98.42-1.46.65-.18.09-.37.18-.51.32-.33.33-.22.85.35.85,2.5,0,5,0,7.5,0v-.11Z"/>
        <path d="m.11,36.85c2.51,0,5.03,0,7.54,0,.48,0,.47-.62.2-.85-.32-.23-.7-.4-1.06-.56-.55-.25-1.11-.47-1.64-.77-.5-.27-.96-.61-1.38-.98-.85-.76-1.49-1.69-1.95-2.72-.22-.48-.42-.98-.65-1.46-.09-.18-.18-.37-.32-.51C.53,28.67,0,28.78,0,29.35,0,31.85,0,34.35,0,36.85h.11Z"/>
        <path d="m0,.11c0,2.51,0,5.03,0,7.54C0,8.13.62,8.12.85,7.85c.23-.32.4-.7.56-1.06.25-.55.47-1.11.77-1.64.27-.5.61-.96.98-1.38.76-.85,1.69-1.49,2.72-1.95.48-.22.98-.42,1.46-.65.18-.09.37-.18.51-.32C8.18.53,8.07,0,7.5,0,5,0,2.5,0,0,0v.11Z"/>
      </g>
    </g>
  </g>
</svg>