<?xml version="1.0" encoding="UTF-8"?>
<svg id="Layer_2" data-name="Layer 2" xmlns="http://www.w3.org/2000/svg" viewBox="0 0 36.85 36.85">
  <defs>
    <style>
      .cls-1 {
        fill: #231f20;
      }
    </style>
  </defs>
  <g id="Layer_1-2" data-name="Layer 1">
    <g>
      <path class="cls-1" d="m25.62,12.71c-2.25-.83-4.83-1.26-7.67-1.26-2.51,0-5.24.32-8.33.96.11-.22.23-.48.36-.76.54-1.14,1.28-2.71,1.75-3.11.63-.53,1.11-.54,1.98-.56h.5s5.59-.01,5.59-.01h.79c2.76.06,4.43.08,6.24,2.13.46.52,1.72.73,2.06-.03.12-.26.07-.55-.1-.75l-1.5-2.06c-.39-.56-.55-1.02-.49-1.37.04-.24.09-.51.04-.75-.12-.51-.88-.25-1.24-.22-2.41.22-4.81.25-7.23.25-.06,0-.12,0-.17,0-1.39,0-2.79,0-4.02-.02-.98,0-1.86-.01-2.56-.01-.48,0-.88,0-1.16.01-.11,0-.2.06-.25.16l-4.08,8.52c-.06.12-.02.26.08.34l1.24.98s.13.04.21.04c.25,0,.48,0,.72-.05.27-.05.53-.11.8-.17.52-.1,1.05-.2,1.57-.28,1-.15,2.01-.27,3.03-.33.59-.04,1.17-.06,1.76-.06,4.83,0,8.44,1.31,10.75,3.89,2.02,2.32,1.98,6.42-.08,8.6-2.17,2.51-5.93,3.44-8.49,3.48-2.6-.02-6.12-.58-8.1-3.14-.95-1.15-1.21-2.83-.65-4.09.44-.97,1.31-1.53,2.4-1.56.13.01.29.11.45.21.5.3,1.56.53,2.03.04.13-.13.19-.3.17-.56-.27-.99-1.42-1.03-2.47-1.07-.13,0-.26,0-.4,0-1.98,0-3.72.49-4.75,1.34-1.03.78-1.63,1.81-1.73,2.96-.12,1.31.39,2.68,1.46,3.86,2.32,2.46,6.19,3.71,11.5,3.71,0,0,.42,0,.43,0,5.87,0,14.07-3.69,14.2-10.61,0-3.97-2.36-7.06-6.61-8.69Z"/>
      <g>
        <path d="m36.74,0c-2.51,0-5.03,0-7.54,0-.48,0-.47.62-.2.85.32.23.7.4,1.06.56.55.25,1.11.47,1.64.77.5.27.96.61,1.38.98.85.76,1.49,1.69,1.95,2.72.22.48.42.98.65,1.46.09.18.18.37.32.51.33.33.85.22.85-.35,0-2.5,0-5,0-7.5h-.11Z"/>
        <path d="m36.85,36.74c0-2.51,0-5.03,0-7.54,0-.48-.62-.47-.85-.2-.23.32-.4.7-.56,1.06-.25.55-.47,1.11-.77,1.64-.27.5-.61.96-.98,1.38-.76.85-1.69,1.49-2.72,1.95-.48.22-.98.42-1.46.65-.18.09-.37.18-.51.32-.33.33-.22.85.35.85,2.5,0,5,0,7.5,0v-.11Z"/>
        <path d="m.11,36.85c2.51,0,5.03,0,7.54,0,.48,0,.47-.62.2-.85-.32-.23-.7-.4-1.06-.56-.55-.25-1.11-.47-1.64-.77-.5-.27-.96-.61-1.38-.98-.85-.76-1.49-1.69-1.95-2.72-.22-.48-.42-.98-.65-1.46-.09-.18-.18-.37-.32-.51C.53,28.67,0,28.78,0,29.35,0,31.85,0,34.35,0,36.85h.11Z"/>
        <path d="m0,.11c0,2.51,0,5.03,0,7.54C0,8.13.62,8.12.85,7.85c.23-.32.4-.7.56-1.06.25-.55.47-1.11.77-1.64.27-.5.61-.96.98-1.38.76-.85,1.69-1.49,2.72-1.95.48-.22.98-.42,1.46-.65.18-.09.37-.18.51-.32C8.18.53,8.07,0,7.5,0,5,0,2.5,0,0,0v.11Z"/>
      </g>
    </g>
  </g>
</svg>