<?xml version="1.0" encoding="UTF-8"?>
<svg id="Layer_2" data-name="Layer 2" xmlns="http://www.w3.org/2000/svg" viewBox="0 0 36.85 36.85">
  <defs>
    <style>
      .cls-1 {
        fill: #231f20;
      }
    </style>
  </defs>
  <g id="Layer_1-2" data-name="Layer 1">
    <g>
      <path class="cls-1" d="m30.66,15.91c-1.09-1.6-2.69-2.87-4.49-3.61-2.43-.99-5.2-1.06-7.72-.34-1.86.52-3.66,1.51-4.77,3.09s-1.38,3.82-.33,5.43c.64.99,1.71,1.66,2.85,2s2.35.34,3.53.23c.42-.04.87-.11,1.21-.36s.53-.75.32-1.11c-.22-.37-.74-.43-1.15-.33s-.8.32-1.23.37c-.7.09-1.39-.27-1.88-.77-1.22-1.25-1.38-3.33-.5-4.83s2.66-2.39,4.41-2.36,3.43.89,4.61,2.18,1.89,2.96,2.18,4.67c.37,2.18.08,4.51-1.08,6.39-1.74,2.8-5.3,4.22-8.58,3.81-2.08-.26-4.1-1.21-5.45-2.81-1.37-1.63-1.94-3.78-2.24-5.89-.34-2.42-.36-4.92.28-7.29s1.97-4.59,3.97-6.02c1.72-1.23,3.9-1.83,6.01-1.64s4.15,1.15,5.63,2.66c.39.4.77.86,1.31,1.02s1.26-.15,1.26-.71c0-.18-.08-.35-.16-.51-.67-1.25-2.05-2.3-1.87-3.7.02-.18.07-.37-.01-.54-.14-.26-.51-.26-.8-.23-2.75.31-5.53.13-8.28.39-1.2.11-2.39.31-3.55.65s-2.25.82-3.24,1.49c-.25.17-.48.36-.71.54-.09.07-.19.1-.29.16-.12.07-.23.18-.34.27-.44.36-.85.75-1.24,1.17-.77.83-1.44,1.76-1.98,2.76s-.96,2.06-1.25,3.15-.43,2.23-.43,3.36c0,.15,0,.29,0,.44.17,4.3,2.55,8.45,6.17,10.78,2.31,1.49,5.07,2.25,7.82,2.32,3.83.1,7.79-1.19,10.45-3.93,2.67-2.74,3.83-7,2.45-10.56-.24-.62-.56-1.22-.93-1.77Z"/>
      <g>
        <path d="m36.74,0c-2.51,0-5.03,0-7.54,0-.48,0-.47.62-.2.85.32.23.7.4,1.06.56.55.25,1.11.47,1.64.77.5.27.96.61,1.38.98.85.76,1.49,1.69,1.95,2.72.22.48.42.98.65,1.46.09.18.18.37.32.51.33.33.85.22.85-.35,0-2.5,0-5,0-7.5h-.11Z"/>
        <path d="m36.85,36.74c0-2.51,0-5.03,0-7.54,0-.48-.62-.47-.85-.2-.23.32-.4.7-.56,1.06-.25.55-.47,1.11-.77,1.64-.27.5-.61.96-.98,1.38-.76.85-1.69,1.49-2.72,1.95-.48.22-.98.42-1.46.65-.18.09-.37.18-.51.32-.33.33-.22.85.35.85,2.5,0,5,0,7.5,0v-.11Z"/>
        <path d="m.11,36.85c2.51,0,5.03,0,7.54,0,.48,0,.47-.62.2-.85-.32-.23-.7-.4-1.06-.56-.55-.25-1.11-.47-1.64-.77-.5-.27-.96-.61-1.38-.98-.85-.76-1.49-1.69-1.95-2.72-.22-.48-.42-.98-.65-1.46-.09-.18-.18-.37-.32-.51C.53,28.67,0,28.78,0,29.35,0,31.85,0,34.35,0,36.85h.11Z"/>
        <path d="m0,.11c0,2.51,0,5.03,0,7.54C0,8.13.62,8.12.85,7.85c.23-.32.4-.7.56-1.06.25-.55.47-1.11.77-1.64.27-.5.61-.96.98-1.38.76-.85,1.69-1.49,2.72-1.95.48-.22.98-.42,1.46-.65.18-.09.37-.18.51-.32C8.18.53,8.07,0,7.5,0,5,0,2.5,0,0,0v.11Z"/>
      </g>
    </g>
  </g>
</svg>